<svg width="65" height="65" viewBox="0 0 65 65" fill="none" xmlns="http://www.w3.org/2000/svg">
<path d="M29.292 48.5415H35.7087V35.7082H48.542V29.2915H35.7087V16.4582H29.292V29.2915H16.4587V35.7082H29.292V48.5415ZM32.5003 64.5832C28.0621 64.5832 23.8913 63.741 19.9878 62.0566C16.0844 60.3722 12.6889 58.0863 9.80137 55.1988C6.91387 52.3113 4.62793 48.9158 2.94355 45.0123C1.25918 41.1089 0.416992 36.938 0.416992 32.4998C0.416992 28.0616 1.25918 23.8908 2.94355 19.9873C4.62793 16.0839 6.91387 12.6884 9.80137 9.80088C12.6889 6.91338 16.0844 4.62744 19.9878 2.94307C23.8913 1.25869 28.0621 0.416504 32.5003 0.416504C36.9385 0.416504 41.1094 1.25869 45.0128 2.94307C48.9163 4.62744 52.3118 6.91338 55.1993 9.80088C58.0868 12.6884 60.3727 16.0839 62.0571 19.9873C63.7415 23.8908 64.5837 28.0616 64.5837 32.4998C64.5837 36.938 63.7415 41.1089 62.0571 45.0123C60.3727 48.9158 58.0868 52.3113 55.1993 55.1988C52.3118 58.0863 48.9163 60.3722 45.0128 62.0566C41.1094 63.741 36.9385 64.5832 32.5003 64.5832ZM32.5003 58.1665C39.6656 58.1665 45.7347 55.68 50.7076 50.7071C55.6805 45.7342 58.167 39.6651 58.167 32.4998C58.167 25.3346 55.6805 19.2655 50.7076 14.2925C45.7347 9.31963 39.6656 6.83317 32.5003 6.83317C25.335 6.83317 19.266 9.31963 14.293 14.2925C9.32012 19.2655 6.83366 25.3346 6.83366 32.4998C6.83366 39.6651 9.32012 45.7342 14.293 50.7071C19.266 55.68 25.335 58.1665 32.5003 58.1665Z" fill="#FF8B13"/>
</svg>


