<svg width="1440" height="1391" viewBox="0 0 1440 1391" fill="none" xmlns="http://www.w3.org/2000/svg">
<g opacity="0.25">
<path opacity="0.5" d="M85.513 643.892C77.6657 646.334 69.7857 643.51 67.9188 637.567C66.052 631.623 70.9134 624.835 78.7606 622.393C86.6079 619.951 94.4879 622.774 96.3547 628.718C98.2215 634.662 93.3603 641.45 85.513 643.892Z" fill="url(#paint0_radial_3311_5046)"/>
<path d="M102.827 626.899L82.6656 634.238L82.0167 632.172L102.827 626.899Z" fill="#FFFAF0"/>
<path d="M61.8104 639.524L82.0137 632.172L82.6626 634.238L61.8104 639.524Z" fill="#FFFAF0"/>
<path d="M87.1205 648.715L80.942 633.613L83.6836 632.76L87.1205 648.715Z" fill="#FFFAF0"/>
<path d="M77.5186 617.704L83.6839 632.764L80.9423 633.617L77.5186 617.704Z" fill="#FFFAF0"/>
<path d="M684.134 38.0493L731.104 20.9531L732.583 25.6655L684.134 38.0493Z" fill="#FFFAF0"/>
<path d="M247.148 201.545C243.707 202.616 240.307 201.411 239.505 198.858C238.704 196.306 240.778 193.289 244.219 192.218C247.659 191.148 251.06 192.353 251.892 195.003C252.724 197.654 250.588 200.474 247.148 201.545Z" fill="#FFFAF0"/>
<path d="M750.056 331.47C748.581 331.929 747.026 331.443 746.656 330.265C746.286 329.087 747.188 327.836 748.761 327.347C750.236 326.888 751.791 327.374 752.161 328.552C752.531 329.73 751.629 330.98 750.056 331.47Z" fill="#FFFAF0"/>
<path d="M759.763 468.544C758.288 469.003 756.733 468.517 756.363 467.339C755.993 466.161 756.895 464.911 758.468 464.421C760.041 463.932 761.498 464.448 761.868 465.626C762.238 466.804 761.336 468.055 759.763 468.544Z" fill="#FFFAF0"/>
<path d="M560.306 431.368C558.831 431.827 557.276 431.342 556.906 430.163C556.536 428.985 557.438 427.735 559.011 427.245C560.486 426.786 562.041 427.272 562.411 428.45C562.781 429.628 561.879 430.879 560.306 431.368Z" fill="#FFFAF0"/>
<path d="M717.201 173.584C716.413 173.829 715.668 173.521 715.514 173.029C715.36 172.538 715.765 171.764 716.552 171.519C717.339 171.274 718.084 171.582 718.269 172.172C718.455 172.762 717.988 173.339 717.201 173.584Z" fill="#FFFAF0"/>
<path d="M691.693 750.749C690.905 750.994 690.161 750.687 690.006 750.195C689.852 749.704 690.257 748.93 691.044 748.685C691.831 748.44 692.576 748.748 692.762 749.338C692.947 749.928 692.48 750.504 691.693 750.749Z" fill="#FFFAF0"/>
<path d="M834.029 714.324C833.241 714.569 832.496 714.261 832.342 713.769C832.188 713.277 832.593 712.504 833.38 712.259C834.167 712.014 834.912 712.322 835.097 712.912C835.283 713.502 834.816 714.079 834.029 714.324Z" fill="#FFFAF0"/>
<path d="M640.324 587.203C639.536 587.448 638.791 587.14 638.637 586.648C638.483 586.157 638.888 585.383 639.675 585.138C640.462 584.893 641.207 585.201 641.392 585.791C641.578 586.381 641.111 586.958 640.324 587.203Z" fill="#FFFAF0"/>
<path d="M177.009 342.771C176.222 343.016 175.477 342.708 175.323 342.217C175.168 341.725 175.573 340.951 176.361 340.706C177.148 340.461 177.893 340.769 178.078 341.359C178.263 341.949 177.796 342.526 177.009 342.771Z" fill="#FFFAF0"/>
<path d="M102.392 297.248C101.605 297.493 100.86 297.185 100.705 296.693C100.551 296.202 100.956 295.428 101.743 295.183C102.531 294.938 103.276 295.246 103.461 295.836C103.646 296.426 103.179 297.003 102.392 297.248Z" fill="#FFFAF0"/>
<path d="M300.622 278.013C299.835 278.258 299.09 277.95 298.936 277.459C298.781 276.967 299.187 276.193 299.974 275.948C300.761 275.703 301.506 276.011 301.691 276.601C301.877 277.191 301.41 277.768 300.622 278.013Z" fill="#FFFAF0"/>
<path d="M149.206 560.398C148.419 560.643 147.674 560.335 147.52 559.843C147.365 559.352 147.771 558.578 148.558 558.333C149.345 558.088 150.09 558.396 150.275 558.986C150.46 559.576 149.994 560.153 149.206 560.398Z" fill="#FFFAF0"/>
<path d="M283.802 951.185C282.327 951.644 280.772 951.158 280.402 949.98C280.032 948.802 280.934 947.551 282.507 947.062C283.982 946.603 285.537 947.089 285.907 948.267C286.277 949.445 285.375 950.695 283.802 951.185Z" fill="#FFFAF0"/>
<path d="M621.435 315.355C617.994 316.426 614.594 315.221 613.792 312.668C612.991 310.116 615.065 307.1 618.506 306.029C621.947 304.958 625.347 306.163 626.179 308.814C627.011 311.464 624.876 314.284 621.435 315.355Z" fill="#FFFAF0"/>
<path d="M454.105 561.518C450.664 562.588 447.264 561.383 446.462 558.831C445.661 556.278 447.735 553.262 451.176 552.191C454.616 551.12 458.017 552.325 458.849 554.976C459.681 557.627 457.545 560.447 454.105 561.518Z" fill="#FFFAF0"/>
<path d="M460.578 113.778C456.547 115.032 452.434 113.618 451.478 110.575C450.523 107.532 453.094 104.037 457.125 102.783C461.156 101.528 465.269 102.943 466.225 105.986C467.18 109.029 464.707 112.493 460.578 113.778Z" fill="#FFFAF0"/>
<path d="M509.225 715.389C505.194 716.644 501.081 715.23 500.125 712.186C499.169 709.143 501.741 705.649 505.771 704.394C509.802 703.14 513.915 704.554 514.871 707.597C515.827 710.641 513.353 714.104 509.225 715.389Z" fill="#FFFAF0"/>
<path opacity="0.5" d="M1397.05 248.741C1401.82 247.254 1406.62 248.973 1407.76 252.591C1408.89 256.209 1405.93 260.342 1401.16 261.828C1396.38 263.315 1391.58 261.596 1390.45 257.978C1389.31 254.359 1392.27 250.227 1397.05 248.741Z" fill="url(#paint1_radial_3311_5046)"/>
<path d="M1386.51 259.1L1398.78 254.633L1399.18 255.89L1386.51 259.1Z" fill="#FFFAF0"/>
<path d="M1411.48 251.415L1399.18 255.891L1398.78 254.633L1411.48 251.415Z" fill="#FFFAF0"/>
<path d="M1396.07 245.82L1399.83 255.014L1398.16 255.533L1396.07 245.82Z" fill="#FFFAF0"/>
<path d="M1401.92 264.698L1398.16 255.53L1399.83 255.01L1401.92 264.698Z" fill="#FFFAF0"/>
<path d="M1032.63 617.553L1004.04 627.961L1003.13 625.092L1032.63 617.553Z" fill="#FFFAF0"/>
<path d="M1123.54 731.344C1125.64 730.693 1127.71 731.426 1128.2 732.98C1128.68 734.534 1127.42 736.37 1125.33 737.022C1123.23 737.674 1121.16 736.94 1120.66 735.327C1120.15 733.713 1121.45 731.996 1123.54 731.344Z" fill="#FFFAF0"/>
<path d="M1298.65 518.022C1300.74 517.37 1302.81 518.104 1303.3 519.658C1303.79 521.211 1302.53 523.048 1300.43 523.7C1298.34 524.352 1296.27 523.618 1295.76 522.004C1295.25 520.391 1296.55 518.674 1298.65 518.022Z" fill="#FFFAF0"/>
<path d="M1346.12 642.857C1347.02 642.578 1347.97 642.873 1348.19 643.591C1348.42 644.308 1347.87 645.069 1346.91 645.367C1345.95 645.665 1345.07 645.351 1344.84 644.634C1344.62 643.916 1345.17 643.155 1346.12 642.857Z" fill="#FFFAF0"/>
<path d="M992.497 438.929C993.394 438.65 994.341 438.946 994.567 439.663C994.792 440.38 994.243 441.141 993.285 441.439C992.387 441.719 991.44 441.423 991.215 440.706C990.99 439.989 991.539 439.227 992.497 438.929Z" fill="#FFFAF0"/>
<path d="M986.589 355.482C987.486 355.203 988.433 355.499 988.658 356.216C988.884 356.933 988.334 357.694 987.377 357.992C986.419 358.29 985.532 357.976 985.307 357.259C985.082 356.542 985.631 355.78 986.589 355.482Z" fill="#FFFAF0"/>
<path d="M1108.01 378.115C1108.91 377.836 1109.86 378.131 1110.08 378.849C1110.31 379.566 1109.76 380.327 1108.8 380.625C1107.9 380.904 1106.95 380.609 1106.73 379.892C1106.5 379.174 1107.05 378.413 1108.01 378.115Z" fill="#FFFAF0"/>
<path d="M1012.5 535.044C1012.98 534.895 1013.43 535.083 1013.53 535.382C1013.62 535.681 1013.37 536.152 1012.89 536.301C1012.41 536.451 1011.96 536.263 1011.85 535.904C1011.74 535.545 1012.02 535.193 1012.5 535.044Z" fill="#FFFAF0"/>
<path d="M1028.03 183.687C1028.51 183.538 1028.96 183.725 1029.05 184.024C1029.15 184.324 1028.9 184.795 1028.42 184.944C1027.94 185.093 1027.49 184.906 1027.38 184.547C1027.26 184.187 1027.55 183.836 1028.03 183.687Z" fill="#FFFAF0"/>
<path d="M941.378 205.861C941.857 205.712 942.31 205.899 942.404 206.199C942.498 206.498 942.252 206.969 941.772 207.118C941.293 207.267 940.84 207.08 940.727 206.721C940.614 206.361 940.898 206.01 941.378 205.861Z" fill="#FFFAF0"/>
<path d="M1059.3 283.249C1059.78 283.1 1060.23 283.288 1060.33 283.587C1060.42 283.886 1060.17 284.357 1059.69 284.507C1059.21 284.656 1058.76 284.468 1058.65 284.109C1058.54 283.75 1058.82 283.399 1059.3 283.249Z" fill="#FFFAF0"/>
<path d="M1341.35 432.05C1341.83 431.901 1342.28 432.088 1342.37 432.388C1342.47 432.687 1342.22 433.158 1341.74 433.307C1341.26 433.456 1340.81 433.269 1340.7 432.91C1340.58 432.551 1340.87 432.199 1341.35 432.05Z" fill="#FFFAF0"/>
<path d="M1386.77 459.765C1387.25 459.616 1387.7 459.803 1387.8 460.103C1387.89 460.402 1387.65 460.873 1387.17 461.022C1386.69 461.171 1386.23 460.984 1386.12 460.625C1386.01 460.265 1386.29 459.914 1386.77 459.765Z" fill="#FFFAF0"/>
<path d="M1266.1 471.472C1266.58 471.323 1267.03 471.51 1267.12 471.81C1267.22 472.109 1266.97 472.58 1266.49 472.729C1266.01 472.878 1265.56 472.691 1265.45 472.332C1265.33 471.973 1265.62 471.621 1266.1 471.472Z" fill="#FFFAF0"/>
<path d="M1358.27 299.566C1358.75 299.417 1359.21 299.604 1359.3 299.904C1359.39 300.203 1359.15 300.674 1358.67 300.823C1358.19 300.972 1357.74 300.785 1357.62 300.426C1357.51 300.066 1357.79 299.715 1358.27 299.566Z" fill="#FFFAF0"/>
<path d="M1276.34 61.6697C1277.23 61.3904 1278.18 61.6861 1278.41 62.4032C1278.63 63.1204 1278.08 63.8817 1277.12 64.1797C1276.23 64.4591 1275.28 64.1634 1275.06 63.4462C1274.83 62.729 1275.38 61.9677 1276.34 61.6697Z" fill="#FFFAF0"/>
<path d="M1070.8 448.741C1072.89 448.089 1074.96 448.823 1075.45 450.377C1075.94 451.93 1074.68 453.767 1072.58 454.418C1070.49 455.07 1068.42 454.337 1067.91 452.723C1067.4 451.11 1068.7 449.393 1070.8 448.741Z" fill="#FFFAF0"/>
<path d="M1172.66 298.885C1174.76 298.234 1176.83 298.967 1177.32 300.521C1177.8 302.075 1176.54 303.911 1174.45 304.563C1172.35 305.215 1170.28 304.481 1169.77 302.868C1169.27 301.254 1170.57 299.537 1172.66 298.885Z" fill="#FFFAF0"/>
<path d="M1168.72 571.455C1171.18 570.691 1173.68 571.552 1174.26 573.404C1174.84 575.257 1173.28 577.384 1170.82 578.148C1168.37 578.912 1165.87 578.051 1165.28 576.198C1164.7 574.346 1166.21 572.237 1168.72 571.455Z" fill="#FFFAF0"/>
<path d="M1139.11 205.212C1141.56 204.449 1144.06 205.31 1144.65 207.162C1145.23 209.015 1143.66 211.142 1141.21 211.906C1138.76 212.669 1136.25 211.809 1135.67 209.956C1135.09 208.103 1136.59 205.995 1139.11 205.212Z" fill="#FFFAF0"/>
<path opacity="0.5" d="M1331.96 1285.31C1347.07 1284.76 1359.69 1293.57 1360.14 1305.02C1360.58 1316.47 1348.68 1326.17 1333.57 1326.72C1318.47 1327.27 1305.84 1318.46 1305.4 1307.01C1304.95 1295.56 1316.85 1285.85 1331.96 1285.31Z" fill="url(#paint2_radial_3311_5046)"/>
<path d="M1293.04 1307.13L1332.36 1303.83L1332.52 1307.81L1293.04 1307.13Z" fill="#FFFAF0"/>
<path d="M1371.91 1304.51L1332.51 1307.81L1332.35 1303.83L1371.91 1304.51Z" fill="#FFFAF0"/>
<path d="M1331.43 1275.98L1335.12 1305.77L1329.84 1305.96L1331.43 1275.98Z" fill="#FFFAF0"/>
<path d="M1333.52 1335.66L1329.84 1305.95L1335.12 1305.76L1333.52 1335.66Z" fill="#FFFAF0"/>
<path d="M776.468 1245.02C777.687 1244.97 778.772 1245.66 778.81 1246.64C778.848 1247.61 777.901 1248.38 776.601 1248.43C775.382 1248.47 774.298 1247.78 774.26 1246.8C774.222 1245.83 775.168 1245.06 776.468 1245.02Z" fill="#FFFAF0"/>
<path d="M797.453 1138.55C798.671 1138.5 799.756 1139.2 799.794 1140.17C799.832 1141.14 798.885 1141.91 797.585 1141.96C796.286 1142.01 795.282 1141.31 795.244 1140.34C795.206 1139.36 796.153 1138.59 797.453 1138.55Z" fill="#FFFAF0"/>
<path d="M941.714 1208.19C942.933 1208.15 944.018 1208.84 944.056 1209.81C944.094 1210.79 943.147 1211.55 941.847 1211.6C940.628 1211.65 939.544 1210.95 939.506 1209.98C939.468 1209 940.414 1208.24 941.714 1208.19Z" fill="#FFFAF0"/>
<path d="M768.812 1372.13C769.463 1372.1 769.967 1372.49 769.982 1372.9C769.998 1373.31 769.529 1373.81 768.879 1373.84C768.228 1373.86 767.724 1373.47 767.705 1372.98C767.686 1372.49 768.162 1372.15 768.812 1372.13Z" fill="#FFFAF0"/>
<path d="M907.742 937.605C908.393 937.581 908.896 937.97 908.912 938.376C908.928 938.783 908.459 939.289 907.808 939.312C907.158 939.336 906.654 938.947 906.635 938.459C906.616 937.971 907.091 937.628 907.742 937.605Z" fill="#FFFAF0"/>
<path d="M791.76 935.878C792.41 935.854 792.914 936.243 792.93 936.65C792.946 937.056 792.477 937.562 791.826 937.586C791.175 937.609 790.672 937.22 790.653 936.733C790.634 936.245 791.109 935.902 791.76 935.878Z" fill="#FFFAF0"/>
<path d="M913.013 1072.87C913.664 1072.84 914.168 1073.23 914.184 1073.64C914.199 1074.05 913.731 1074.55 913.08 1074.58C912.429 1074.6 911.926 1074.21 911.907 1073.72C911.888 1073.23 912.363 1072.89 913.013 1072.87Z" fill="#FFFAF0"/>
<path d="M1215.38 1355.1C1216.03 1355.08 1216.54 1355.46 1216.55 1355.87C1216.57 1356.28 1216.1 1356.78 1215.45 1356.81C1214.8 1356.83 1214.29 1356.44 1214.28 1355.95C1214.26 1355.47 1214.73 1355.12 1215.38 1355.1Z" fill="#FFFAF0"/>
<path d="M1107.8 1378.84C1108.45 1378.82 1108.95 1379.21 1108.97 1379.61C1108.98 1380.02 1108.52 1380.52 1107.87 1380.55C1107.21 1380.57 1106.71 1380.18 1106.69 1379.7C1106.67 1379.21 1107.15 1378.86 1107.8 1378.84Z" fill="#FFFAF0"/>
<path d="M1281.62 1195.02C1282.27 1195 1282.78 1195.39 1282.79 1195.79C1282.81 1196.2 1282.34 1196.71 1281.69 1196.73C1281.04 1196.75 1280.53 1196.37 1280.52 1195.88C1280.5 1195.39 1280.97 1195.05 1281.62 1195.02Z" fill="#FFFAF0"/>
<path d="M1259.99 869.362C1261.2 869.318 1262.29 870.01 1262.33 870.985C1262.37 871.959 1261.42 872.726 1260.12 872.773C1258.9 872.817 1257.82 872.125 1257.78 871.15C1257.74 870.175 1258.69 869.409 1259.99 869.362Z" fill="#FFFAF0"/>
<path d="M871.122 1283.93C873.965 1283.83 876.306 1285.45 876.388 1287.56C876.47 1289.67 874.265 1291.54 871.422 1291.65C868.579 1291.75 866.238 1290.13 866.153 1287.93C866.067 1285.74 868.279 1284.04 871.122 1283.93Z" fill="#FFFAF0"/>
<path d="M1049.57 1131.02C1052.41 1130.91 1054.75 1132.54 1054.83 1134.65C1054.91 1136.76 1052.71 1138.63 1049.87 1138.73C1047.02 1138.83 1044.68 1137.21 1044.6 1135.02C1044.51 1132.83 1046.72 1131.12 1049.57 1131.02Z" fill="#FFFAF0"/>
<path d="M1039.43 1002.34C1042.76 1002.22 1045.6 1004.15 1045.7 1006.67C1045.8 1009.19 1043.11 1011.32 1039.78 1011.44C1036.45 1011.56 1033.61 1009.63 1033.51 1007.11C1033.42 1004.59 1036.02 1002.47 1039.43 1002.34Z" fill="#FFFAF0"/>
<path opacity="0.5" d="M60.9519 1102.51C48.6451 1107.13 35.798 1103.35 32.2655 1094.03C28.7331 1084.71 35.8682 1073.42 48.1749 1068.8C60.4817 1064.17 73.3286 1067.95 76.8611 1077.27C80.3935 1086.59 73.2586 1097.88 60.9519 1102.51Z" fill="url(#paint3_radial_3311_5046)"/>
<path d="M87.0147 1073.75L55.4973 1087.34L54.2696 1084.1L87.0147 1073.75Z" fill="#FFFAF0"/>
<path d="M22.6899 1097.71L54.2734 1084.1L55.5012 1087.34L22.6899 1097.71Z" fill="#FFFAF0"/>
<path d="M63.959 1110.05L52.6901 1086.5L56.9902 1084.88L63.959 1110.05Z" fill="#FFFAF0"/>
<path d="M45.748 1061.41L56.9919 1084.89L52.6918 1086.51L45.748 1061.41Z" fill="#FFFAF0"/>
<path d="M473.314 783.662L504.832 770.074L506.034 773.246L473.314 783.662Z" fill="#FFFAF0"/>
<path d="M363.488 661.442C361.172 662.312 358.793 661.621 358.142 659.903C357.49 658.185 358.792 656.034 361.108 655.163C363.424 654.292 365.803 654.984 366.48 656.768C367.156 658.552 365.804 660.571 363.488 661.442Z" fill="#FFFAF0"/>
<path d="M180.259 913.119C177.943 913.99 175.564 913.299 174.913 911.581C174.262 909.863 175.564 907.712 177.88 906.841C180.196 905.97 182.575 906.661 183.251 908.446C183.927 910.23 182.575 912.248 180.259 913.119Z" fill="#FFFAF0"/>
<path d="M118.629 775.626C117.636 775.999 116.55 775.728 116.249 774.934C115.949 774.141 116.517 773.247 117.576 772.849C118.635 772.451 119.655 772.747 119.956 773.541C120.257 774.334 119.688 775.228 118.629 775.626Z" fill="#FFFAF0"/>
<path d="M530.201 982.223C529.208 982.597 528.122 982.325 527.821 981.532C527.521 980.739 528.09 979.845 529.149 979.447C530.141 979.074 531.227 979.345 531.528 980.138C531.829 980.931 531.26 981.825 530.201 982.223Z" fill="#FFFAF0"/>
<path d="M542.316 1075.83C541.323 1076.2 540.237 1075.93 539.937 1075.14C539.636 1074.34 540.205 1073.45 541.264 1073.05C542.323 1072.65 543.343 1072.95 543.643 1073.74C543.944 1074.54 543.375 1075.43 542.316 1075.83Z" fill="#FFFAF0"/>
<path d="M404.097 1058.26C403.105 1058.63 402.019 1058.36 401.718 1057.57C401.417 1056.78 401.986 1055.88 403.045 1055.48C404.038 1055.11 405.124 1055.38 405.425 1056.18C405.725 1056.97 405.156 1057.86 404.097 1058.26Z" fill="#FFFAF0"/>
<path d="M501.384 875.28C500.854 875.479 500.332 875.298 500.206 874.967C500.081 874.636 500.328 874.089 500.858 873.89C501.388 873.69 501.911 873.872 502.061 874.269C502.212 874.666 501.914 875.081 501.384 875.28Z" fill="#FFFAF0"/>
<path d="M506.892 1272.02C506.362 1272.22 505.839 1272.04 505.714 1271.71C505.588 1271.38 505.835 1270.83 506.365 1270.63C506.895 1270.43 507.418 1270.62 507.569 1271.01C507.719 1271.41 507.422 1271.82 506.892 1272.02Z" fill="#FFFAF0"/>
<path d="M603.023 1241.39C602.493 1241.59 601.97 1241.41 601.845 1241.08C601.719 1240.75 601.966 1240.2 602.496 1240C603.026 1239.81 603.549 1239.99 603.7 1240.38C603.85 1240.78 603.553 1241.2 603.023 1241.39Z" fill="#FFFAF0"/>
<path d="M465.164 1161.93C464.634 1162.13 464.111 1161.95 463.985 1161.62C463.86 1161.29 464.107 1160.74 464.637 1160.54C465.167 1160.34 465.69 1160.52 465.84 1160.92C465.991 1161.32 465.694 1161.73 465.164 1161.93Z" fill="#FFFAF0"/>
<path d="M137.804 1012.73C137.274 1012.93 136.751 1012.75 136.626 1012.42C136.501 1012.09 136.748 1011.54 137.278 1011.34C137.808 1011.15 138.331 1011.33 138.481 1011.72C138.632 1012.12 138.334 1012.54 137.804 1012.73Z" fill="#FFFAF0"/>
<path d="M84.8376 984.487C84.3076 984.686 83.7846 984.505 83.6592 984.174C83.5338 983.843 83.7808 983.296 84.3108 983.097C84.8408 982.898 85.3637 983.079 85.5143 983.476C85.6648 983.873 85.3676 984.288 84.8376 984.487Z" fill="#FFFAF0"/>
<path d="M219.967 963.422C219.436 963.622 218.914 963.44 218.788 963.109C218.663 962.778 218.91 962.232 219.44 962.032C219.97 961.833 220.493 962.015 220.643 962.412C220.794 962.809 220.497 963.223 219.967 963.422Z" fill="#FFFAF0"/>
<path d="M127.414 1163.06C126.884 1163.26 126.361 1163.07 126.235 1162.74C126.11 1162.41 126.357 1161.87 126.887 1161.67C127.417 1161.47 127.94 1161.65 128.09 1162.05C128.241 1162.44 127.944 1162.86 127.414 1163.06Z" fill="#FFFAF0"/>
<path d="M441.384 976.287C439.068 977.158 436.689 976.467 436.038 974.749C435.387 973.03 436.689 970.88 439.005 970.009C441.321 969.138 443.7 969.829 444.376 971.613C445.052 973.398 443.7 975.416 441.384 976.287Z" fill="#FFFAF0"/>
<path d="M336.48 1151.71C334.164 1152.58 331.785 1151.89 331.134 1150.17C330.483 1148.46 331.784 1146.31 334.101 1145.43C336.417 1144.56 338.796 1145.26 339.472 1147.04C340.148 1148.82 338.796 1150.84 336.48 1151.71Z" fill="#FFFAF0"/>
<path d="M323.077 844.459C320.363 845.479 317.487 844.673 316.711 842.625C315.934 840.576 317.558 838.078 320.271 837.058C322.984 836.037 325.861 836.844 326.637 838.892C327.414 840.941 325.856 843.414 323.077 844.459Z" fill="#FFFAF0"/>
<path d="M380.399 1255.03C377.686 1256.05 374.81 1255.24 374.033 1253.19C373.257 1251.15 374.88 1248.65 377.594 1247.63C380.307 1246.61 383.183 1247.41 383.959 1249.46C384.736 1251.51 383.178 1253.98 380.399 1255.03Z" fill="#FFFAF0"/>
</g>
<defs>
<radialGradient id="paint0_radial_3311_5046" cx="0" cy="0" r="1" gradientUnits="userSpaceOnUse" gradientTransform="translate(85.197 643.033) rotate(72.5633) scale(11.3165 14.8903)">
<stop stop-color="white"/>
<stop offset="0.05" stop-color="white" stop-opacity="0.7744"/>
<stop offset="0.15" stop-color="white" stop-opacity="0.4624"/>
<stop offset="0.26" stop-color="white" stop-opacity="0.25"/>
<stop offset="0.37" stop-color="white" stop-opacity="0.1156"/>
<stop offset="0.48" stop-color="white" stop-opacity="0.0484"/>
<stop offset="0.6" stop-color="white" stop-opacity="0.0144"/>
<stop offset="0.72" stop-color="white" stop-opacity="0.01"/>
<stop offset="0.85" stop-color="white" stop-opacity="0.01"/>
<stop offset="1" stop-color="#232020" stop-opacity="0"/>
</radialGradient>
<radialGradient id="paint1_radial_3311_5046" cx="0" cy="0" r="1" gradientUnits="userSpaceOnUse" gradientTransform="translate(1397.24 249.263) rotate(-107.437) scale(6.8891 9.0647)">
<stop stop-color="white"/>
<stop offset="0.05" stop-color="white" stop-opacity="0.7744"/>
<stop offset="0.15" stop-color="white" stop-opacity="0.4624"/>
<stop offset="0.26" stop-color="white" stop-opacity="0.25"/>
<stop offset="0.37" stop-color="white" stop-opacity="0.1156"/>
<stop offset="0.48" stop-color="white" stop-opacity="0.0484"/>
<stop offset="0.6" stop-color="white" stop-opacity="0.0144"/>
<stop offset="0.72" stop-color="white" stop-opacity="0.01"/>
<stop offset="0.85" stop-color="white" stop-opacity="0.01"/>
<stop offset="1" stop-color="#232020" stop-opacity="0"/>
</radialGradient>
<radialGradient id="paint2_radial_3311_5046" cx="0" cy="0" r="1" gradientUnits="userSpaceOnUse" gradientTransform="translate(1332.11 1286.98) rotate(-92.2315) scale(20.8152 27.3884)">
<stop stop-color="white"/>
<stop offset="0.05" stop-color="white" stop-opacity="0.7744"/>
<stop offset="0.15" stop-color="white" stop-opacity="0.4624"/>
<stop offset="0.26" stop-color="white" stop-opacity="0.25"/>
<stop offset="0.37" stop-color="white" stop-opacity="0.1156"/>
<stop offset="0.48" stop-color="white" stop-opacity="0.0484"/>
<stop offset="0.6" stop-color="white" stop-opacity="0.0144"/>
<stop offset="0.72" stop-color="white" stop-opacity="0.01"/>
<stop offset="0.85" stop-color="white" stop-opacity="0.01"/>
<stop offset="1" stop-color="#232020" stop-opacity="0"/>
</radialGradient>
<radialGradient id="paint3_radial_3311_5046" cx="0" cy="0" r="1" gradientUnits="userSpaceOnUse" gradientTransform="translate(60.3675 1101.16) rotate(69.2424) scale(18.1045 23.8217)">
<stop stop-color="white"/>
<stop offset="0.05" stop-color="white" stop-opacity="0.7744"/>
<stop offset="0.15" stop-color="white" stop-opacity="0.4624"/>
<stop offset="0.26" stop-color="white" stop-opacity="0.25"/>
<stop offset="0.37" stop-color="white" stop-opacity="0.1156"/>
<stop offset="0.48" stop-color="white" stop-opacity="0.0484"/>
<stop offset="0.6" stop-color="white" stop-opacity="0.0144"/>
<stop offset="0.72" stop-color="white" stop-opacity="0.01"/>
<stop offset="0.85" stop-color="white" stop-opacity="0.01"/>
<stop offset="1" stop-color="#232020" stop-opacity="0"/>
</radialGradient>
</defs>
</svg>
