<svg width="177" height="202" viewBox="0 0 177 202" fill="none" xmlns="http://www.w3.org/2000/svg">
<path d="M174.354 4.35355C174.549 4.15829 174.549 3.84171 174.354 3.64645L171.172 0.46447C170.976 0.269203 170.66 0.269203 170.464 0.46447C170.269 0.659729 170.269 0.976311 170.464 1.17158L173.293 4L170.464 6.82843C170.269 7.02369 170.269 7.34027 170.464 7.53554C170.66 7.7308 170.976 7.7308 171.172 7.53554L174.354 4.35355ZM2.18557e-08 107.5L112.648 107.5L112.648 106.5L-2.18557e-08 106.5L2.18557e-08 107.5ZM123.148 97L123.148 14L122.148 14L122.148 97L123.148 97ZM132.648 4.5L174 4.5L174 3.5L132.648 3.5L132.648 4.5ZM123.148 14C123.148 8.7533 127.401 4.5 132.648 4.5L132.648 3.5C126.849 3.5 122.148 8.20101 122.148 14L123.148 14ZM112.648 107.5C118.447 107.5 123.148 102.799 123.148 97L122.148 97C122.148 102.247 117.894 106.5 112.648 106.5L112.648 107.5Z" fill="#333333" fill-opacity="0.3"/>
<path d="M176.354 197.146C176.549 197.342 176.549 197.658 176.354 197.854L173.172 201.036C172.976 201.231 172.66 201.231 172.464 201.036C172.269 200.84 172.269 200.524 172.464 200.328L175.293 197.5L172.464 194.672C172.269 194.476 172.269 194.16 172.464 193.964C172.66 193.769 172.976 193.769 173.172 193.964L176.354 197.146ZM123 117.458L122.5 117.458L123 117.458ZM104.912 106.958L113 106.958L113 107.958L104.912 107.958L104.912 106.958ZM123.5 117.458L123.5 187.5L122.5 187.5L122.5 117.458L123.5 117.458ZM133 197L176 197L176 198L133 198L133 197ZM123.5 187.5C123.5 192.747 127.753 197 133 197L133 198C127.201 198 122.5 193.299 122.5 187.5L123.5 187.5ZM113 106.958C118.799 106.958 123.5 111.659 123.5 117.458L122.5 117.458C122.5 112.212 118.247 107.958 113 107.958L113 106.958Z" fill="#333333" fill-opacity="0.3"/>
</svg>
