<svg width="29" height="22" viewBox="0 0 29 22" fill="none" xmlns="http://www.w3.org/2000/svg">
<g clip-path="url(#clip0_3507_7755)">
<path d="M0 4.36234C0.373784 3.61607 0.707258 3.46924 1.79318 3.5918C1.79318 3.70465 1.79318 3.82235 1.79318 3.94006C1.79318 8.05611 1.79441 12.1722 1.79196 16.2882C1.79196 16.9653 1.93977 17.5866 2.37951 18.1217C2.89255 18.7455 3.55583 19.0537 4.36203 19.1144C5.3197 19.1859 6.2847 19.2357 7.23015 19.3959C8.86576 19.6738 10.3865 20.2659 11.7033 21.3034C11.8646 21.4296 12.016 21.568 12.2188 21.7391C11.6032 21.6335 11.0559 21.5231 10.5026 21.4466C8.87065 21.2221 7.22771 21.1651 5.59088 21.3471C4.1788 21.5049 2.77528 21.7476 1.37176 21.9684C0.696264 22.0752 0.333474 21.8847 0.00122152 21.1882V4.36234H0Z" fill="url(#paint0_linear_3507_7755)"/>
<path d="M13.687 20.9066C13.4598 20.6991 13.2741 20.5183 13.0775 20.3509C11.3869 18.8972 9.3995 18.0963 7.21298 17.7686C6.32983 17.6364 5.43201 17.5903 4.54031 17.532C3.80251 17.4835 3.40186 17.0915 3.40063 16.3477C3.40063 11.2851 3.40063 6.22137 3.40063 1.15882C3.40063 0.384636 3.85382 -0.020659 4.63437 0.00239673C6.09408 0.0448678 7.52691 0.225673 8.91456 0.700135C10.7896 1.34205 12.3495 2.40383 13.4354 4.07962C13.5807 4.30411 13.687 4.59898 13.687 4.8623C13.7017 10.1408 13.698 15.4194 13.698 20.6979C13.698 20.7501 13.6919 20.8023 13.6858 20.9079L13.687 20.9066Z" fill="url(#paint1_linear_3507_7755)"/>
<path d="M15.3006 20.9128C15.3006 20.732 15.3006 20.6216 15.3006 20.5099C15.3006 15.4559 15.3153 10.4018 15.2847 5.34897C15.2798 4.59298 15.5388 4.0178 15.9932 3.46325C17.4236 1.71466 19.3157 0.752388 21.4949 0.327677C22.4709 0.138378 23.475 0.0813454 24.4693 0.00489756C25.1582 -0.0472811 25.5992 0.425968 25.5992 1.14676C25.6017 3.96927 25.5992 6.79177 25.5992 9.61306C25.5992 11.8349 25.5992 14.0567 25.5992 16.2798C25.5992 17.1219 25.2132 17.5115 24.3569 17.5272C22.543 17.56 20.7718 17.8282 19.0714 18.4822C17.7461 18.9931 16.5539 19.7139 15.5351 20.7053C15.4765 20.7623 15.4118 20.8133 15.3006 20.9128Z" fill="url(#paint2_linear_3507_7755)"/>
<path d="M16.7458 21.705C17.2943 21.3228 17.7707 20.9417 18.2923 20.6372C20.0085 19.6385 21.8958 19.2453 23.8612 19.141C24.3119 19.1167 24.7785 19.1288 25.2097 19.0184C26.485 18.6932 27.2045 17.6848 27.2057 16.3003C27.2081 12.183 27.2057 8.06574 27.2057 3.94969C27.2057 3.83077 27.2057 3.71064 27.2057 3.57959C27.5416 3.57959 27.8445 3.55289 28.1414 3.58566C28.5848 3.63541 28.9366 4.02735 28.9903 4.47997C28.9989 4.554 28.9989 4.62923 28.9989 4.70446C28.9989 10.0874 28.9989 15.4703 28.9989 20.8532C28.9989 21.5254 28.586 21.9987 27.9838 21.9987C27.7603 21.9987 27.5355 21.9429 27.3156 21.8955C24.8298 21.3665 22.3172 21.1298 19.7789 21.3143C18.7956 21.3859 17.8196 21.563 16.7458 21.7038V21.705Z" fill="url(#paint3_linear_3507_7755)"/>
</g>
<defs>
<linearGradient id="paint0_linear_3507_7755" x1="2.15951" y1="1.95164" x2="1.46288" y2="17.113" gradientUnits="userSpaceOnUse">
<stop offset="0.000824451" stop-color="#2C3D68"/>
<stop offset="1" stop-color="#0764A7"/>
</linearGradient>
<linearGradient id="paint1_linear_3507_7755" x1="5.22062" y1="-1.81406" x2="4.16028" y2="15.3433" gradientUnits="userSpaceOnUse">
<stop offset="0.000824451" stop-color="#2C3D68"/>
<stop offset="1" stop-color="#0764A7"/>
</linearGradient>
<linearGradient id="paint2_linear_3507_7755" x1="17.1078" y1="-1.81502" x2="16.0487" y2="15.347" gradientUnits="userSpaceOnUse">
<stop offset="0.000824451" stop-color="#2C3D68"/>
<stop offset="1" stop-color="#0764A7"/>
</linearGradient>
<linearGradient id="paint3_linear_3507_7755" x1="18.9114" y1="1.96892" x2="18.2177" y2="17.1194" gradientUnits="userSpaceOnUse">
<stop offset="0.000824451" stop-color="#2C3D68"/>
<stop offset="1" stop-color="#0764A7"/>
</linearGradient>
<clipPath id="clip0_3507_7755">
<rect width="29" height="22" fill="white"/>
</clipPath>
</defs>
</svg>
