<svg width="133" height="121" viewBox="0 0 133 121" fill="none" xmlns="http://www.w3.org/2000/svg">
<path d="M36.8207 82.7648L33.7199 93.383C33.7199 93.383 30.1295 72.3152 26.5391 67.9329C22.9487 63.5506 14.9518 60.2904 13.8098 61.078C12.6672 61.8655 17.4002 64.0564 17.4002 64.0564C17.4002 64.0564 0.754096 61.5284 0.264408 65.5729C-0.225279 69.618 15.1157 71.9774 15.1157 71.9774C15.4221 78.158 16.0641 84.3486 16.9744 90.4633C17.9377 96.9331 18.4751 104.459 22.5481 109.8C27.4346 116.209 36.5135 116.191 41.5698 110.232C46.2866 104.675 48.7054 89.4785 48.7054 89.4785L36.8207 82.7648Z" fill="#FFB171"/>
<path d="M50.9831 91.1356L34.373 83.2713C34.373 83.2713 36.3498 58.8912 56.5683 56.5479L50.9831 91.1356Z" fill="#FF903E"/>
<path d="M60.277 56.1127C60.277 56.1127 52.591 54.8826 47.165 60.5495C41.739 66.2158 41.4189 121 41.4189 121H92.4189C92.4189 121 91.3358 75.6238 82.0229 64.9896C72.7106 54.356 60.277 56.1127 60.277 56.1127Z" fill="#FF903E"/>
<path d="M83.2418 26.7238C82.3766 30.9682 79.9482 35.4291 79.4843 39.227C78.8972 44.0777 74.3055 48.4173 68.2557 50.4535C65.8395 51.2771 63.1885 51.7235 60.4626 51.6789C59.2387 51.6662 57.991 51.5576 56.7484 51.3277C55.5309 51.1172 54.3135 50.7914 53.1148 50.3576C41.1564 46.0113 40.9958 29.5769 41.4965 22.3395C41.9294 15.9637 47.7379 12.3637 49.1166 11.5981C49.3018 11.4961 49.4069 11.4448 49.4069 11.4448C49.4069 11.4448 61.6988 12.6129 71.4016 14.9489C76.9636 16.2895 81.6663 18.0126 82.7173 20.1248C83.7367 22.167 83.7244 24.4137 83.2418 26.7238Z" fill="#FFB171"/>
<path d="M68.2557 46.0242V58.7186C67.7428 59.1337 67.2357 59.4908 66.7479 59.7847C60.9762 63.2248 56.749 58.7186 56.749 58.7186V48.4242L65.426 46.6179C65.426 46.6179 65.426 46.6178 65.426 46.6112L68.2557 46.0242Z" fill="#FFB171"/>
<path d="M83.2422 89.1861C83.2422 89.1861 87.1765 103.171 97.5348 103.969C107.893 104.766 122.715 73.7958 122.715 73.7958L115.149 67.7651L100.426 84.6892L97.5341 81.9647L83.2422 89.1861Z" fill="#FFB171"/>
<path d="M46.3481 29.611C46.4926 30.6151 47.0126 31.3673 47.5094 31.2907C48.0062 31.2148 48.292 30.3386 48.1475 29.3344C48.0029 28.3303 47.4829 27.5787 46.9861 27.6547C46.4894 27.7313 46.2035 28.6075 46.3481 29.611Z" fill="#1D1D1B"/>
<path d="M51.843 27.9299C52.3701 29.3845 52.0766 31.1415 51.174 32.4468C50.9424 32.7793 50.6778 33.0478 50.5088 33.325C50.3275 33.5922 50.2675 33.892 50.2791 34.2318C50.3075 34.9128 50.7152 35.5664 51.0901 36.2274C50.5333 35.7423 49.9552 35.152 49.8004 34.2931C49.7133 33.8807 49.7927 33.391 50.0075 33.0132C50.2191 32.6374 50.4849 32.3675 50.672 32.075C51.4817 30.9083 51.8753 29.4611 51.843 27.9299Z" fill="#F27C49"/>
<path d="M53.8119 34.6462C53.7499 35.058 53.5564 35.3299 53.3319 35.5691C53.0938 35.7936 52.8242 35.9842 52.4229 36.0335C52.4841 35.6204 52.6777 35.3485 52.9028 35.1107C53.1415 34.8868 53.4112 34.6962 53.8119 34.6462Z" fill="#F27C49"/>
<path d="M56.8051 28.0226C56.9496 29.0267 57.4696 29.7783 57.9664 29.7023C58.4632 29.6264 58.749 28.7502 58.6045 27.7461C58.46 26.7419 57.9399 25.9904 57.4431 26.0663C56.9464 26.1423 56.6606 27.0185 56.8051 28.0226Z" fill="#1D1D1B"/>
<path d="M59.8963 29.0288C59.8963 29.0288 57.1795 28.5883 56.3369 30.6859L59.8963 29.0288Z" fill="#F27C49"/>
<path d="M48.7052 31.7625C48.7052 31.7625 46.9452 29.9315 45.4639 31.2095L48.7052 31.7625Z" fill="#F27C49"/>
<path d="M60.1673 24.7636C59.6363 24.2093 59.1427 23.7462 58.5608 23.455C58.2763 23.3024 57.9711 23.1918 57.6434 23.1258C57.315 23.0439 56.9698 23.0299 56.5859 22.9753C56.9085 22.7714 57.2853 22.6355 57.6795 22.6295C58.0744 22.5981 58.4782 22.7047 58.8382 22.8853C59.195 23.0752 59.5086 23.3444 59.7357 23.6722C59.9634 23.9967 60.1292 24.3672 60.1673 24.7636Z" fill="#1D1D1B"/>
<path d="M48.0792 25.5687C47.2353 25.4154 46.4462 25.3401 45.7656 25.598C45.4294 25.7219 45.1075 25.9091 44.8307 26.1857C44.6746 26.3043 44.5636 26.4768 44.4139 26.6208C44.2804 26.7793 44.1617 26.9539 44.0049 27.1185C44.0352 26.8993 44.0842 26.6781 44.152 26.4622C44.2507 26.263 44.3178 26.0337 44.4688 25.8572C44.7139 25.4601 45.1223 25.1669 45.561 24.997C46.0081 24.8384 46.4907 24.8244 46.9256 24.9377C47.3604 25.0476 47.7663 25.2528 48.0792 25.5687Z" fill="#1D1D1B"/>
<path d="M0.264648 65.5735C2.55953 65.6908 4.82605 65.9992 7.08545 66.3537C9.34162 66.7275 11.5907 67.15 13.8101 67.7643C11.5146 67.6484 9.24869 67.3398 6.98929 66.984C4.73376 66.6089 2.48469 66.1872 0.264648 65.5735Z" fill="#F27C49"/>
<path d="M112.848 71.239C112.848 71.239 119.222 60.4036 120.997 60.9826C122.772 61.5616 120.413 66.7708 120.413 66.7708C120.413 66.7708 127.091 59.2142 131.178 62.4298C137.499 67.4024 120.413 77.2697 120.413 77.2697L112.848 71.239Z" fill="#FFB171"/>
<path d="M131.177 62.4297C130.3 63.611 129.294 64.6498 128.258 65.6546C127.209 66.6447 126.128 67.5995 124.919 68.4111C125.796 67.2284 126.802 66.1903 127.838 65.1869C128.889 64.1974 129.969 63.2419 131.177 62.4297Z" fill="#F27C49"/>
<path d="M68.2578 57.1947C68.2578 57.1947 85.2627 54.1311 98.8359 81.1989L82.2987 90.3826L68.2578 57.1947Z" fill="#FF903E"/>
<path d="M63.9064 32.0785C63.9064 33.7163 62.6206 35.0442 61.0348 35.0442C59.4489 35.0442 58.1631 33.7163 58.1631 32.0785C58.1631 30.4407 59.4489 29.1128 61.0348 29.1128C62.6206 29.1128 63.9064 30.4407 63.9064 32.0785Z" fill="#F27C49"/>
<path d="M48.6789 35.0441C48.6789 36.6818 47.3931 38.0098 45.8072 38.0098C44.2214 38.0098 42.9355 36.6818 42.9355 35.0441C42.9355 33.4063 44.2214 32.0784 45.8072 32.0784C47.3931 32.0784 48.6789 33.4063 48.6789 35.0441Z" fill="#F27C49"/>
<path d="M54.6035 37.0731C55.1351 37.1657 55.6436 37.1218 56.0797 36.9472C56.5152 36.7719 56.8764 36.4541 57.1597 36.055C57.4616 35.6712 57.6862 35.2075 57.9036 34.7324C58.1178 34.252 58.2939 33.7489 58.5287 33.2412C58.5468 33.7969 58.4978 34.3553 58.3578 34.8996C58.3029 35.1762 58.1772 35.434 58.0875 35.7039C57.9468 35.9537 57.8352 36.2209 57.6462 36.4481C57.3036 36.9125 56.7984 37.3137 56.2119 37.4243C55.6351 37.5449 55.0364 37.4123 54.6035 37.0731Z" fill="#1D1D1B"/>
<path d="M48.0788 12.9754C48.0788 12.9754 47.2878 21.3268 41.3599 25.4466C41.3599 25.4466 38.4799 15.3134 44.7193 12.4183C50.9588 9.52326 48.0788 12.9754 48.0788 12.9754Z" fill="#1D1D1B"/>
<path d="M83.2415 26.724C82.3763 30.9683 79.9479 35.4292 79.484 39.2272C78.8969 44.0779 74.3052 48.4175 68.2554 50.4537V58.7185C67.7425 59.1336 67.2354 59.4908 66.7476 59.7846C62.9346 58.2914 61.1114 53.7599 60.4623 51.679C60.2584 51.0221 60.1655 50.607 60.1655 50.607C62.5198 49.7774 64.2198 48.3669 65.4243 46.6178C65.4243 46.6178 65.4243 46.6178 65.4243 46.6111C70.9057 38.6655 66.1657 23.6923 66.1657 23.6923C61.2714 22.9201 60.1649 17.5843 60.1649 17.5843C54.059 18.5545 47.082 15.4781 47.082 15.4781C47.5827 13.8763 48.2808 12.5997 49.115 11.5976C49.3001 11.4956 49.4053 11.4443 49.4053 11.4443C49.4053 11.4443 61.6972 12.6124 71.4 14.9484L74.3974 17.4757L83.2415 26.724Z" fill="#F27C49"/>
<path d="M73.7493 22.1731C73.7493 22.1731 63.8923 23.3711 61.5723 14.3314C61.5723 14.3314 49.1095 18.3612 44.0042 13.8956C38.8989 9.43007 39.0047 2.46054 40.6918 1.58902C42.379 0.717493 44.0042 5.50955 44.0042 5.50955C44.0042 5.50955 43.7977 0.826099 46.041 0.0638487C48.2843 -0.698402 48.3172 5.61815 51.9392 5.50955C55.5612 5.40027 78.023 -0.0447576 80.0269 14.3307C80.0269 14.3307 91.3103 18.132 85.827 32.0777C80.3436 46.0234 75.3151 40.8982 74.8596 32.5188C74.4041 24.1394 73.7493 22.1731 73.7493 22.1731Z" fill="#1D1D1B"/>
<path d="M68.3727 25.1515C68.3727 25.1515 72.1657 18.1693 76.8651 22.0865C81.5652 26.0037 79.6601 34.6037 73.3567 34.6463C67.0533 34.6889 68.3727 25.1515 68.3727 25.1515Z" fill="#F27C49"/>
<path d="M71.0938 30.0693C70.9338 29.3537 70.9479 28.6015 71.0738 27.8692C71.1996 27.1349 71.4744 26.4167 71.8879 25.783C72.0925 25.4632 72.3544 25.1887 72.6183 24.9201C72.9189 24.6969 73.1983 24.4397 73.5435 24.2978C74.1925 23.9367 74.9287 23.8261 75.6287 23.8127C74.9693 24.0886 74.3273 24.3231 73.7848 24.7289C73.2325 25.104 72.7531 25.5758 72.397 26.1435C71.6524 27.2609 71.2944 28.6348 71.0938 30.0693Z" fill="#1D1D1B"/>
<path d="M71.2119 28.3736C71.3661 27.8726 71.6616 27.4255 72.0268 27.0477C72.3926 26.6672 72.8578 26.3734 73.3707 26.2081C73.8836 26.0509 74.4462 26.0242 74.9526 26.1808C75.4668 26.3041 75.9152 26.5966 76.2881 26.9411C75.7894 26.8285 75.3346 26.6912 74.8726 26.6719C74.4171 26.6286 73.9707 26.6805 73.5494 26.8185C72.6945 27.077 71.9448 27.6707 71.2119 28.3736Z" fill="#1D1D1B"/>
<path d="M45.8063 71.9253C45.8063 71.9253 40.5978 92.558 41.352 111.744L45.8063 71.9253Z" fill="#D64727"/>
<path d="M72.0615 71.9253C73.4164 75.0782 74.7125 78.2558 75.9958 81.4388C77.29 84.617 78.5152 87.8233 79.7785 91.0142L79.3417 90.8423L84.1889 88.3776C85.8083 87.5641 87.4179 86.7299 89.0457 85.9323L93.9252 83.5336C95.562 82.7554 97.1898 81.9585 98.8356 81.2002C97.2562 82.0984 95.6588 82.9566 94.0697 83.8348L89.2728 86.4041C87.6748 87.2629 86.0592 88.0845 84.4534 88.9267L79.6243 91.43L79.3133 91.5912L79.1875 91.2581C77.9765 88.0458 76.7287 84.8482 75.5487 81.6233C74.3583 78.4018 73.1803 75.1755 72.0615 71.9253Z" fill="#D64727"/>
</svg>
