<svg width="139" height="151" viewBox="0 0 139 151" fill="none" xmlns="http://www.w3.org/2000/svg">
<path d="M87.3035 123.613C89.9092 133.184 96.6907 136.895 103.713 133.338C104.514 133.691 104.369 134.494 104.47 135.129C105.155 139.327 108.977 143.26 113.075 143.922C114.632 144.175 116.145 144.027 117.598 143.366C118.823 142.809 119.558 143.048 119.888 144.495C120.181 145.794 121.122 146.771 122.015 147.725C125.479 151.429 129.503 151.749 133.279 148.329C136.179 145.704 138.927 142.879 141.511 139.942C144.491 136.552 147.352 133.037 150.026 129.4C154.403 123.441 152.736 118.397 145.734 115.849C145.306 115.692 144.892 115.496 144.471 115.32C147.509 108.347 142.527 102.57 134.482 101.397C137.836 93.3152 135.032 86.8156 123.63 86.5646C123.928 84.4798 125.376 82.9762 126.249 81.2548C130.486 72.9116 131.125 64.2688 129.069 55.2766C124.025 33.2392 110.78 17.7017 91.2241 7.26551C82.2212 2.46016 72.5823 -0.19205 62.2509 0.36464C54.2945 0.790535 46.8967 3.35279 39.9211 7.06311C28.1553 13.3198 17.8575 21.4618 9.72973 32.1178C4.34392 39.1812 1.49342 47.3364 0.407026 56.107C-1.09495 68.2459 2.33832 79.282 7.52514 90.0269C10.3338 95.8445 13.7425 101.219 17.9154 106.043C23.4893 112.479 29.6367 118.34 37.0158 122.789C42.4102 126.04 47.9661 128.808 54.1236 130.326C66.0918 133.276 77.14 131.513 87.3035 123.613ZM92.08 115.135C91.7193 115.762 91.6011 116.098 91.3819 116.333C80.5111 127.865 65.9272 131.315 50.3526 126.085C43.2586 123.705 37.289 119.466 31.6025 114.864C18.7301 104.448 9.91013 91.1448 5.59695 75.1233C1.7346 60.7682 3.49003 46.9551 12.4895 34.7504C22.1129 21.7037 34.709 12.4205 49.9752 6.92391C56.4225 4.60316 63.0483 3.65153 69.8965 4.45536C77.0508 5.29454 83.5994 7.75547 89.9705 11.0525C104.47 18.5583 115.165 29.6699 121.95 44.4999C124.317 49.6741 125.754 55.1764 126.477 60.8881C127.743 70.8986 123.903 79.2257 118.38 87.1439C112.49 95.5873 105.233 102.757 97.8834 109.869C96.4519 111.255 95.1842 111.732 93.1726 111.19C82.7509 108.373 72.5015 105.136 63.3099 99.3118C56.5624 95.0385 50.5463 89.9474 46.6453 82.7514C42.1272 74.4219 46.2439 65.1842 55.253 63.3653C56.8781 63.0379 57.8749 63.2029 58.4428 65.0632C59.0627 67.0847 59.9695 69.0696 61.0667 70.8777C63.9381 75.5962 67.5263 79.6198 72.7802 81.8008C73.3216 82.0276 73.87 82.2584 74.4394 82.4122C77.1563 83.1393 79.6548 82.859 81.5091 80.4775C83.2553 78.2355 82.9428 75.8091 81.849 73.4353C78.3306 65.7931 71.8896 62.001 64.0561 60.2413C60.5302 59.4525 59.6596 58.4595 60.7008 54.9444C62.0981 50.2176 65.1944 47.1852 70.0734 46.1721C75.8159 44.9799 80.8456 46.9992 85.5489 49.919C91.2347 53.4505 95.9876 58.0124 99.7155 63.6267C100.447 64.7321 101.019 66.1396 102.626 66.4916C103.419 65.0805 102.606 64.1252 101.967 63.167C99.8611 60.0142 97.6497 56.9229 95.0548 54.1739C89.7575 48.5627 83.674 44.1974 75.7757 43.0618C65.998 41.6573 58.5799 47.1677 57.4844 56.9604C57.2363 59.1771 56.3926 59.7521 54.5138 59.9853C44.9708 61.1829 37.2369 71.6245 43.2918 83.7644C45.7542 88.7074 49.3871 92.7426 53.5295 96.3297C62.0848 103.739 72.188 108.286 82.737 111.968C85.7322 113.014 88.8481 113.713 92.0821 115.131L92.08 115.135ZM130.949 99.947C130.381 100.667 129.486 101.939 128.461 103.09C121.261 111.165 113.934 119.115 106.155 126.641C104.692 128.057 103.141 129.327 101.395 130.327C98.782 131.821 96.2047 131.395 93.956 129.22C91.1555 126.513 90.5428 124.162 92.0087 121.304C93.047 119.279 94.5434 117.569 96.1571 115.987C103.034 109.251 109.93 102.54 116.831 95.8268C118.978 93.74 121.344 91.944 124.145 90.8618C127.098 89.7172 129.405 90.2976 131.231 92.4449C132.84 94.3363 132.851 96.6548 130.951 99.9435L130.949 99.947ZM109.767 129.511L109.683 129.463C110.199 128.662 110.657 127.818 111.241 127.07C116.53 120.312 122.616 114.303 128.79 108.383C129.799 107.415 131.097 106.773 132.184 105.92C133.607 104.801 135.039 104.907 136.524 105.254C141.986 106.537 144.145 110.92 141.048 114.862C134.66 122.987 128.122 131.001 120.421 137.953C119.546 138.745 118.578 139.478 117.551 140.047C114.817 141.565 112.38 141.211 110.063 139.099C107.831 137.066 107.283 134.49 108.541 131.676C108.877 130.922 109.359 130.229 109.773 129.509L109.767 129.511ZM61.2965 63.6456C62.0003 63.5249 62.3411 63.3784 62.6483 63.4284C68.5971 64.3765 73.358 67.4232 77.261 71.8811C78.3384 73.115 79.1342 74.5951 79.3191 76.3102C79.525 78.2485 78.7404 79.2562 76.8312 79.3312C75.5128 79.3848 74.2716 78.9714 73.1001 78.3963C70.8486 77.2896 68.9767 75.6364 67.2902 73.8553C64.5653 70.9754 62.6378 67.5688 61.3 63.6476L61.2965 63.6456Z" fill="#FF8B13"/>
</svg>
