<svg width="1440" height="153" viewBox="0 0 1440 153" fill="none" xmlns="http://www.w3.org/2000/svg">
<path opacity="0.7" d="M1487.81 280.927C1487.44 235.739 1491.96 106.098 1491.59 60.9101C1490.58 61.1304 1489.57 61.3692 1488.55 61.5804C1479.4 63.4624 1479.3 63.2511 1479.42 57.7166C1479.54 52.2005 1478.69 46.7015 1479.53 41.1703C1479.81 39.3143 1478.47 37.7573 1474.47 36.5172C1474.51 42.1149 1474.57 47.1131 1474.59 52.1115C1474.62 55.3392 1474.65 58.5669 1474.51 61.7867C1474.33 65.5971 1468.01 66.3218 1464.12 66.3072C1460.33 66.292 1462.49 63.2678 1462.99 61.7143C1465.8 53.4004 1468.99 45.1387 1472.07 36.8502C1472.87 34.7133 1473.54 32.6328 1478.61 32.2688C1482.6 31.9873 1481.11 29.3894 1480.21 29.2584C1473.34 28.2444 1476.95 25.5036 1477.44 23.6551C1478.6 19.265 1479.82 14.7452 1489.22 11.5055C1478.6 11.6655 1475.46 14.836 1474.04 18.5642C1473.18 20.84 1472.04 23.0258 1470.56 25.1683C1470.01 25.9474 1468.61 26.3185 1467.17 25.9244C1465.28 25.3956 1466.41 24.7131 1467.08 24.0345C1468.19 22.9095 1471.06 22.2683 1469.85 19.6774C1460.13 24.0817 1451.75 28.715 1443.8 33.4278C1433.61 27.599 1448.65 24.1197 1448.42 17.9332C1431.08 29.0491 1420.82 40.9835 1414.17 54.0137L1414.04 37.6631C1416.77 36.7371 1417.46 39.3968 1420.4 38.1647C1420.33 35.6937 1416.82 34.3112 1413.92 32.9145C1410.48 31.2639 1410.19 29.4217 1412.64 27.6772C1421.15 21.5949 1424.1 13.1046 1438 9.69916C1436.84 7.95626 1434.68 9.1543 1433.47 8.53701C1433.93 6.9101 1437.67 6.09575 1436.64 3.06071C1417.17 14.286 1406.55 27.5791 1396.74 41.9355C1394.88 38.7964 1395.66 36.1063 1391.07 34.3268C1389.43 37.4666 1393.45 40.339 1391.74 42.6217C1389.65 45.4054 1382.95 45.589 1378.58 47.2661C1373.05 49.3769 1373.49 44.4209 1369.46 44.3522C1367.71 45.6299 1368.92 46.7636 1369.79 47.8263C1371.13 49.4202 1370.16 50.3965 1367.62 51.2195C1364.35 52.2882 1363.67 50.8827 1362.11 49.7702C1358.8 47.4085 1357.85 44.5572 1356.1 41.8508C1355.52 40.9701 1354.67 38.9572 1353.16 39.6151C1348.33 41.7294 1349.04 38.9384 1349.9 38.3781C1354.11 35.6601 1348.58 35.8157 1347.21 35.7346C1338.14 35.1628 1334.85 32.1092 1334.71 27.3237C1334.67 25.6548 1334.03 23.9722 1333.45 22.3261C1331.53 17.0295 1331.52 11.4776 1326.75 6.51774C1327.39 20.909 1333.89 34.9298 1334.55 49.321C1327.92 38.0218 1324.57 26.1334 1315.29 15.3354C1313.47 18.6427 1317.33 21.415 1317.34 24.6705C1313.27 23.8551 1311.59 21.1758 1306.16 21.183C1309.63 25.3695 1318.09 26.9331 1320.15 31.1404C1317.47 32.647 1313.83 30.7951 1310.52 33.1092C1325.15 32.9903 1323.07 39.5922 1325.75 44.3385C1326.99 46.5234 1327.91 48.7755 1328.85 51.0089C1329.27 52.0015 1330.19 53.1284 1327.23 53.8995C1322.07 50.5752 1323.22 45.641 1319.01 41.9124C1315.55 43.4069 1320.53 46.6035 1314.8 46.9176C1311.45 47.1016 1308.22 46.5468 1306.48 44.6888C1305.6 43.7552 1304.86 42.7191 1304.56 41.6794C1304.04 39.876 1302.58 38.5137 1299.77 37.6604C1293.98 35.8998 1292.47 33.0715 1292.9 29.545C1293.24 26.7663 1293.07 23.9271 1288.62 21.2702C1287.12 26.401 1290.34 31.1613 1286.93 35.3392C1273.24 34.0302 1269.52 26.7561 1260.63 22.5029C1261.76 24.1354 1262.86 25.7589 1264.56 28.2167C1257.99 26.3149 1252.87 24.7057 1247.56 23.3378C1242.58 22.0502 1238.3 19.7056 1231.77 19.1684C1232.29 20.1694 1232.27 20.3817 1232.44 20.4449C1238.21 22.4085 1244.03 24.3348 1249.77 26.3264C1251.1 26.786 1253.4 27.7448 1253.22 27.9492C1249.87 32.0805 1256 30.7118 1258.71 30.8927C1269.58 31.6159 1272.59 33.0671 1275.58 39.3049C1271.41 42.4376 1265.21 35.2483 1261.32 40.3984C1257.9 38.9783 1261.27 34.7085 1254.21 34.7566C1253.09 37.6616 1257.59 40.8714 1252.63 43.411C1248.93 45.3041 1244.44 46.9914 1239.31 45.7881C1233.82 44.4954 1232.09 41.4845 1231.18 38.3377C1230.49 35.9362 1232.69 33.3084 1230.01 30.7755C1226.83 32.3969 1229.78 34.7707 1225.62 36.4093C1225.21 32.8619 1219.45 32.1064 1216.63 29.8237C1215.79 29.1572 1212.64 28.7494 1213.33 29.8689C1214.31 31.4288 1207.89 32.228 1212.19 32.9862C1217.82 33.9826 1218.22 37.6591 1223.29 38.7984C1224.81 39.1366 1226.11 40.3434 1224.83 41.5343C1224.46 41.8878 1223.55 42.2272 1222.84 42.2605C1219.8 42.396 1220.57 41.2276 1220.36 40.1134C1220.01 38.198 1216.97 38.2964 1214.69 38.5824C1211.14 39.0263 1213.94 40.1103 1214.19 41.0028C1215.01 43.9012 1215.99 47.8498 1211.86 49.1284C1207.32 50.5303 1208.13 51.4552 1210.39 53.3919C1205.66 52.7756 1205.01 50.4937 1202.39 49.5743C1196.26 47.4015 1200.07 51.659 1197.73 52.0377C1193.45 49.5271 1190.28 42.6082 1193.6 41.3639C1199.35 39.2051 1196.85 38.3309 1192.94 36.9885C1190.34 36.0966 1190.23 34.4466 1190.23 32.8787C1190.24 29.8076 1190.41 26.7258 1190.26 23.6652C1189.93 16.9999 1190.82 10.251 1186.79 2.64739C1183.78 13.1395 1189.29 22.594 1185.08 32.3489C1177.92 26.7075 1180.65 19.5378 1175.16 12.8498C1173.1 15.8824 1174.34 17.8367 1174.62 19.7067C1175.08 22.9492 1174.8 24.4917 1167.42 23.2513C1159.48 21.914 1151.45 20.31 1142.92 20.3056C1141.37 20.2997 1138.77 19.1311 1138.47 21.0703C1138.21 22.8432 1140.54 22.8611 1142.95 22.7216C1149.05 22.3492 1154.54 23.2546 1159.58 25.0582C1154.18 25.0928 1149.1 26.5728 1143.59 25.0128C1139.13 23.7487 1134.99 26.5491 1136.4 29.369C1137.86 32.2622 1139.34 35.1554 1140.57 38.0782C1141.38 39.9898 1140.6 41.4626 1136.34 41.4972C1132.33 41.5298 1126.28 41.8003 1126.28 39.3564C1126.26 36.8849 1124.58 34.9987 1123.73 32.8475C1123.08 31.2111 1122.98 29.1 1119.5 28.7685C1114.71 28.3187 1119.48 31.9597 1115.6 32.2126C1115.32 32.1226 1115.08 32.0601 1114.87 31.9696C1110.51 30.1604 1115.33 22.6971 1102.91 25.7585C1102.44 25.873 1101.23 25.0989 1100.42 24.6997C1096.57 22.7481 1094.86 20.3734 1094.98 17.3658C1095.08 15.2438 1096.27 12.8271 1092.83 10.8999C1088.49 12.8719 1091.12 15.7187 1089.38 17.8725C1081.35 15.6874 1073.3 13.936 1066.12 11.4028C1059.92 9.21213 1061.16 11.1757 1059.28 13.4873C1058.02 15.0378 1062.84 17.9959 1057.1 17.8489C1048.31 17.6345 1049.84 19.4297 1053.13 22.3173C1054.95 23.9164 1056.12 25.7514 1058.33 28.3435C1051.96 25.6285 1048.09 22.8655 1044.74 19.7939C1040.48 15.8905 1036.2 11.9965 1031.78 8.15891C1030.71 7.2361 1027.76 5.6 1027.1 7.06251C1025.97 9.58952 1021.15 12.6629 1027.68 15.2014C1029.62 15.9603 1031 17.1941 1032.53 18.2608C1047.35 28.6079 1057.82 40.2632 1064.42 53.0567C1065.06 54.3149 1065.51 55.5655 1063.27 56.3677C1061.24 57.0944 1060.1 56.0337 1058.5 55.4565C1056.24 54.6356 1053.47 52.6845 1051.18 53.5701C1046.85 55.2468 1045.22 53.3049 1043.01 52.2991C1041.46 51.5924 1041.15 50.1285 1038.22 50.2999C1033.2 50.5897 1032.79 48.5088 1032.2 46.4384C1031.87 45.2422 1032.93 43.6196 1029.29 42.7916C1026.91 45.467 1027.77 48.236 1027.93 50.8815C1028.19 54.6238 1025.36 55.3939 1019.37 54.6217C1014.34 53.9709 1012.99 52.0267 1012.53 49.6418C1011.78 45.8297 1011.47 41.9956 1010.69 38.1838C1009.67 33.2119 1009.91 28.1191 1006.91 22.8497C1000.29 28.5017 992.702 22.1259 985.606 23.9267C987.641 25.4503 990.25 25.3922 992.52 25.7703C1004.65 27.8021 1005.61 28.523 1006.48 35.6357C1007.09 40.6848 1007.86 45.7232 1008.72 50.761C1008.93 51.9767 1010.18 53.3407 1006.67 53.5444C1003.95 53.7049 1000.98 53.729 999.826 51.9031C999.298 51.0682 998.865 49.965 999.397 49.1952C1003.12 43.7697 993.664 40.1483 995.472 33.8991C990.209 38.3688 990.76 38.0046 985.505 35.5111C976.009 30.9954 968.547 25.8637 964.97 19.0497C964.837 18.7833 963.841 18.6715 962.108 18.123C968.258 32.3496 975.282 45.8497 977.018 60.8039C973.581 57.2165 973.128 53.6511 967.501 51.5756C965.97 55.8858 972.061 58.8152 972.24 62.7794C966.642 62.2532 966.508 59.8287 965.399 57.901C960.917 50.1996 956.598 42.4693 952.083 34.7775C950.893 32.7397 949.47 30.2796 945.828 29.6452C941.19 28.8344 940.571 26.8566 939.299 24.9117C934.791 18.0222 930.364 11.1136 925.872 4.2147C925.327 3.37987 924.812 2.19434 922.841 2.4686C920.902 2.73336 919.705 3.87747 920.122 4.99924C920.622 6.32323 921.562 7.64364 922.73 8.82387C929.882 16.07 935.066 23.7841 939.745 31.6222C940.456 32.8245 942.406 34.0169 939.955 35.3833C936.451 33.6595 933.175 31.8692 929.574 30.3214C924.73 28.2396 919.986 26.4244 913.054 28.353C907.734 29.8349 902.985 29.4401 902.117 25.0111C901.657 22.6169 899.34 20.3854 896.795 18.3679C895.86 17.6377 894.921 16.4833 893.211 16.7831C883.831 18.4456 874.712 18.0586 865.581 16.3068C863.017 15.8111 860.214 16.0829 857.56 16.5841C850.509 17.8956 842.293 18.2944 840.493 23.6489C840.366 24.0373 840.63 24.4686 840.682 24.8002C843.59 25.413 844.501 23.1276 847.081 23.5216C847.061 27.054 844.119 30.2966 845.486 33.9561C852.723 31.4256 859.794 28.7028 870.69 28.8448C863.428 32.3162 855.463 33.4692 851.368 37.293C850.364 38.2326 847.372 39.2714 849.387 40.3433C851.467 41.4424 852.759 39.864 854.366 39.0302C862.372 34.8887 871.782 32.7832 882.713 33.3584C884.475 33.4548 885.948 34.1068 886.346 34.989C888.123 38.8296 889.328 42.7117 888.661 46.8581C884.186 46.1197 887.004 43.6805 883.965 42.949C882.794 43.3643 881.755 43.9169 880.517 44.1575C872.132 45.8027 865.305 50.5709 854.362 46.5005C848.391 44.2803 853.32 48.7224 851.78 49.8601C848.023 49.2081 844.577 48.4891 841.559 50.4504C840.546 48.1898 842.355 46.0724 839.323 44.1326C834.573 47.7035 832.258 51.7434 826.981 54.636C824.268 53.9664 825.393 51.8914 822.192 51.2534C820.584 52.0596 820.653 54.586 817.125 53.9506C813.434 53.2797 817.008 51.5998 816.281 50.4345C815.769 49.6178 815.956 48.5373 813.802 48.3427C809.96 55.1802 810.027 55.3917 814.366 61.5264C814.893 62.2691 816.417 63.1698 815.006 64.0482C814.194 64.5436 813.067 64.2945 812.231 63.7664C805.527 59.5416 803.692 46.525 809.409 41.6366C816.649 35.4632 823.954 29.3169 832.339 23.5953C833.766 22.6246 836.32 21.8107 834.8 19.4805C822.543 26.2849 814.177 34.3766 804.962 42.2815C801.074 39.3987 803.345 35.8849 798.319 33.5002C797.341 37.5477 799.636 41.0244 800.235 44.5702C800.664 47.149 799.573 49.3529 796.061 50.6726C793.037 51.8131 791.384 53.0532 790.682 54.9679C790.378 55.782 789.852 57.225 787.957 56.853C784.56 56.189 784.222 56.7358 784.774 58.4375C785.292 60.0196 783.917 61.4142 781.211 61.5561C778.081 61.7198 779.519 60.0389 779.316 59.1183C779.029 57.894 777.235 57.9823 775.878 57.5507C766.346 54.557 763.354 49.5458 767.499 43.8679C768.079 43.07 769.345 42.2113 767.511 41.3408C763.89 41.2596 764.876 44.1567 761.681 44.404C760.337 41.5836 761.339 38.3936 757.128 35.9747C755.363 37.5015 758.474 39.0441 755.694 40.0996C753.422 39.5462 755.327 37.1513 751.691 37.2362C749.603 39.1162 752.88 41.0816 751.265 42.9946C746.25 41.9286 744.543 38.6408 738.351 37.2616C741.337 41.3968 744.802 44.4121 742.653 48.8933C739.077 56.3742 740.204 56.5403 733.964 59.2655C741.189 53.3781 739.772 47.4687 735.97 41.2559C733.937 37.9339 735.059 33.5164 738.252 31.0649C742.741 27.6252 738.987 27.25 735.565 25.4609C734.429 28.1908 735.51 30.7644 731.794 33.0541C727.639 29.4726 726.198 24.79 717.236 23.6455C721.411 27.7617 730.12 29.7291 723.731 36.2461C720.27 39.7788 716.489 44.2087 715.472 49.4277C712.945 47.4839 713.971 45.4189 711.256 44.4172C707.189 47.6321 714.996 51.0825 709.436 55.2778C708.535 48.7002 707.821 43.1171 706.976 37.5351C705.944 30.8755 697.56 26.7474 687.786 27.9981C684.935 28.3625 681.301 32.7728 683.409 33.3275C696.909 36.9068 694.317 42.9963 691.597 49.4927C690.214 47.8992 692.154 45.8083 687.302 44.7318C687.822 50.4825 690.365 56.475 676.039 59.5058C680.79 56.1009 680.783 53.2788 678.542 50.5026C677.505 49.2106 677.066 47.3789 673.542 47.2969C669.008 47.2046 671.115 49.5854 669.803 50.712C668.281 52.0339 669.126 53.6964 669.367 55.2254C669.624 56.8096 669.607 58.728 666.233 58.8845C662.842 59.0504 662.288 57.0721 662.031 55.5432C661.173 50.3579 662.975 45.363 667.603 40.9078C671.05 37.5781 670.13 34.8188 667.236 31.8726C666.341 36.1315 664.171 39.9765 660.384 43.6318C654.899 48.924 654.411 49.0202 647.23 44.3566C644.852 42.8173 641.496 41.2399 638.307 42.0774C635.524 42.8101 633.698 44.9369 635.625 47.1808C636.777 48.518 636.45 50.3928 633.711 50.5442C631.087 50.6854 628.824 49.1175 628.908 47.4199C629.032 44.6613 629.695 41.9168 630.129 39.1649C630.392 37.4751 631.275 35.6787 627.202 34.1901C626.906 35.9171 626.508 37.1193 626.534 38.3088C626.665 42.3472 626.784 46.9299 622.878 49.9313C618.178 53.5294 611.169 56.0673 612.386 61.2958C608.775 60.4675 609.084 64.3569 606.042 63.2288C603.621 62.3262 605.678 60.6586 606.549 59.4342C607.758 57.7182 609.572 56.1264 610.585 54.3843C611.389 53.0128 614.13 51.1737 608.873 50.4325C605.673 49.9789 602.746 48.9698 601.938 51.9737C601.527 53.4988 599.219 54.4859 596.741 54.5521C593.382 54.644 594.018 52.6283 592.916 51.5213C591.272 49.8654 591.562 47.4375 587.428 46.4751C585.767 48.7112 589.742 50.2375 587.479 52.7091C579.671 47.1837 570.063 42.8165 568.584 35.3859C568.192 33.4154 567.556 31.4193 566.465 29.5375C565.754 28.3075 566.369 25.7755 562.33 26.5C559.236 27.0508 561.208 28.8609 561.871 30.119C562.649 31.6067 563.493 33.0847 564.817 35.5087C555.444 31.2503 550.748 27.4273 550.732 24.0396C547.583 25.8728 543.899 26.0749 539.68 24.6459C541.208 28.1104 543.468 31.2646 543.853 34.5078C544.466 39.6491 549.649 45.3987 539.328 49.6328C540.268 50.9163 544.489 50.4854 544.161 52.2681C543.911 53.6258 540.342 51.9302 539.557 53.7165C547.192 56.0247 544.631 59.9559 544.205 63.7591C543.856 66.999 544.378 67.0132 534.232 70.6648C534.068 68.5911 536.284 66.3689 533.444 64.0771C531.322 65.8005 532.741 67.9102 529.619 68.9592C526.624 67.7201 529.557 65.3445 526.546 64.087C521.211 61.8616 521.368 61.1133 526.75 59.1236C528.555 58.4541 531.655 58.595 532.029 56.4799C526.582 56.5242 521.579 58.8982 515.623 56.4657C516.19 58.0474 516.424 58.7925 516.724 59.5279C517.156 60.585 517.901 61.9254 515.245 62.1499C512.931 62.344 512.495 60.9457 511.932 59.9357C510.608 57.5117 511.537 55.4475 514.817 53.6225C516.31 52.7895 518.303 51.1963 514.388 51.0436C507.014 50.7439 508.459 47.9377 508.602 45.428C508.79 42.5121 509.288 39.603 509.428 36.6967C509.706 30.8473 512.529 24.9404 508.421 19.1543C504.155 28.015 507.541 37.2839 503.767 46.5463C501.252 44.0306 501.311 41.2725 498.477 39.7093C493.934 40.5301 501.132 43.3491 494.189 43.8482C483.66 44.607 490.225 39.7118 487.322 37.6511C485.343 38.986 483.689 40.0969 481.759 41.413C480.399 36.6191 472.307 38.2619 468.133 36.3499C467.527 36.0689 466.085 37.2703 466.578 37.6445C471.04 40.9744 463.336 46.1371 471.757 48.8724C472.902 49.2504 473.008 50.3009 472.002 50.9455C470.023 52.2066 469.505 50.6614 468.36 50.2741C466.316 49.5714 463.646 48.1083 462.197 48.4244C453.536 50.2747 457.145 46.8976 457.44 45.0415C458.834 35.9828 457.83 26.8052 462.877 17.7537C458.215 17.9853 457.919 19.7769 457.115 21.1115C455.505 23.753 455.137 26.5043 455.094 29.2991C455.013 35.442 453.824 41.5386 452.193 47.6388C451.307 50.9292 444.764 48.5753 443.316 50.9757C443.284 51.0313 441.696 50.2326 441.837 49.6228C442.847 45.4091 441.17 41.7337 435.731 38.6699C434.944 38.2244 435.066 37.2181 434.93 36.463C433.887 30.5136 432.648 24.5659 431.914 18.6048C430.499 7.02355 420.26 1.22275 399.82 0.623401C398.173 0.572232 396.442 0.272734 395.537 1.33146C394.536 2.51087 395.374 3.28798 397.336 3.9545C398.824 4.45887 402.724 4.77763 399.753 6.41574C393.568 9.83226 400.237 9.68583 403.013 10.1982C406.198 10.781 409.882 10.5758 412.786 12.7103C406.827 13.9116 400.46 13.0872 393.748 15.9454C400.254 15.8925 404.691 15.9948 409.093 15.793C419.771 15.2912 430.699 19.5554 429.336 26.4005C428.944 28.3312 430.216 30.3498 430.395 32.3404C430.504 33.6123 431.954 35.5003 428.794 35.9502C425.731 36.3901 424.235 34.816 423.276 33.2468C421.557 30.4571 421.531 27.2847 417.825 24.6864C415.182 26.6446 417.315 28.232 417.996 29.7021C419.224 32.3205 419.089 33.8249 413.152 33.6426C405.371 33.4015 402.901 36.4835 401.886 40.0978C401.221 42.4642 400.898 44.8647 399.073 47.1482C393.693 45.329 393.084 42.6133 393.841 39.4715C385.254 42.3726 385.766 47.2011 383.215 52.3311C378.818 45.081 377.198 38.417 372.157 32.1036C369.448 33.9701 371.221 35.4037 371.771 36.7734C374.218 42.8865 376.469 49.0381 379.503 55.0635C381.127 58.2598 377.454 59.8851 374.366 61.2014C371.474 62.4331 365.375 62.5564 364.057 60.8517C361.387 57.4242 359.035 58.9742 355.383 61.1251C358.107 53.1992 360.676 46.2429 360.521 39.1613C356.426 41.0022 357.833 43.4993 356.611 45.6396C355.614 47.4 355.698 47.676 354.816 47.5264C349.1 46.586 348.467 48.8784 347.701 51.0427C347.128 52.6982 346.979 54.4056 346.323 56.0525C345.652 57.7273 347.989 60.3552 343.916 60.8679C340.446 61.3111 341.529 58.0744 338.75 57.3038C338.374 57.1962 337.804 57.2931 337.364 57.2966C335.338 58.8994 339.943 61.6287 334.65 62.4833C329.862 63.2509 328.227 60.7925 325.817 59.2442C323.85 57.9875 322.11 56.5998 320.046 55.3992C316.637 53.4256 316.703 51.4883 319.326 49.2075C324.67 44.5527 329.867 39.8254 334.9 35.0625C336.745 33.3229 339.439 31.6871 339.354 29.2714C335.475 29.5796 334.739 31.2549 333.395 32.4832C327.794 37.6012 322.324 42.755 316.886 47.9269C314.637 50.0756 312.551 50.2678 309.469 48.3469C307.158 46.8993 304.925 45.0544 299.803 44.8932C301.651 47.4974 305.084 48.6131 307.478 50.1891C309.265 51.3643 311.64 52.5347 309.37 54.1671C302.738 58.9153 299.679 65.7373 286.884 66.6159C286.767 68.2308 291.372 66.9853 290.179 68.7011C288.422 71.224 276.75 71.8261 273.7 69.8035C266.19 64.8197 268.373 58.4384 265.848 52.7409C264.834 50.4343 267.948 46.3418 261.913 46.1972C256.123 46.0598 256.63 50.3073 255.329 52.7803C250.944 61.0702 247.001 69.4394 242.894 77.7731C242.567 71.6704 243.872 65.7666 245.194 59.8718C246.217 55.326 249.261 50.5793 247.954 46.283C244.754 35.7676 246.961 26.4625 260.53 18.4945C261.179 18.1111 261.419 17.5097 262.195 16.6088C254.728 16.9093 253.031 22.8071 245.126 21.3957C246.692 23.3935 247.49 25.2961 245.6 27.5157C243.338 30.1809 242.531 33.1664 243.011 36.0768C243.902 41.391 239.394 44.508 231.403 46.5558C227.098 42.5421 227.367 37.4859 220.915 34.292C219.867 33.7748 218.372 32.3944 217.341 33.9337C214.666 37.8935 208.782 36.2536 205.076 35.8226C199.951 35.2279 204.583 33.2719 205.158 31.8931C205.27 31.6339 205.169 31.1921 204.875 31.0746C195.843 27.4958 203.548 26.4187 207.757 24.5216C213.363 21.9951 223.467 21.2213 220.528 14.7525C213.39 17.3559 209.927 22.6871 199.968 23.349C202.423 18.3858 204.93 13.8463 210.003 9.92238C214.103 6.74415 219.47 4.88368 226.68 5.1202C231.916 5.28976 234.769 7.20332 235.263 9.77241C235.91 13.1518 230.166 10.6623 228.202 11.8311C227.861 12.0275 227.733 12.3422 227.362 12.7694C230.973 13.6808 234.876 14.3315 238.083 15.5597C241.649 16.9234 240.763 20.2599 245.208 21.4504C245.285 16.903 243.098 12.6415 239.885 8.5728C234.711 2.02069 223.608 0.450863 213.042 4.62235C208.669 6.34563 204.643 8.57333 203.312 11.3325C197.843 22.7299 184.448 29.9956 167.539 36.3398C160.06 39.1489 154.855 38.8776 149.177 36.5536C130.246 28.7945 109.54 27.524 87.239 30.5643C64.7748 33.6243 45.7335 40.4747 27.2028 47.9296C18.6851 51.3559 18.9444 51.1693 13.3914 46.142C8.44608 41.6539 15.2988 40.0304 19.212 37.9235C24.1156 35.2828 25.1714 38.7881 27.6275 40.0039C28.1351 40.258 28.9834 40.2788 31.6457 40.7829C21.9802 33.4003 32.8837 30.5634 39.2139 26.869C45.4792 23.2121 52.2358 19.8278 58.6977 16.2799C59.9965 15.5684 62.191 14.6929 60.6492 13.6079C58.8286 12.3316 56.7007 13.3726 54.978 14.0967C53.9053 14.5573 52.9478 15.1277 52.072 15.7251C45.033 20.495 36.2569 24.2277 28.4967 28.5609C23.9186 31.1158 20.3999 31.5963 14.7057 29.2632C4.62627 25.1488 -0.473165 25.7621 -9.14028 30.8588L-12.5786 293.297C-8.51726 293.365 -4.45515 293.526 -0.394739 293.493C491.56 289.504 983.531 285.505 1475.49 281.498C1479.55 281.465 1483.6 281.238 1487.66 281.103L1487.81 280.927ZM39.4169 47.8488C37.1855 50.2094 35.0361 52.6063 32.6739 54.9312C31.6546 55.9263 31.4728 57.6247 28.683 57.5091C26.4807 57.4163 24.8415 56.369 23.9516 55.2326C22.7982 53.7849 24.8137 52.9661 26.4871 52.187C46.1772 42.8966 67.3645 35.2265 92.945 32.3348C111.536 30.2285 129.221 31.1177 144.864 37.5847C148.055 38.9052 153.998 39.7976 152.522 42.7701C150.805 46.2149 144.199 46.0841 139.15 46.8537C138.157 47.0094 136.964 46.7147 135.921 46.8062C126.306 47.659 116.557 48.1625 107.509 50.4679C115.853 51.7282 123.553 48.078 133.14 49.7616C126.78 53.8343 119.589 55.9494 111.362 57.0769C104.814 57.9693 97.3878 59.284 95.5415 62.8589C93.1335 67.5635 85.3514 69.2039 81.6307 72.9139C80.2718 74.2715 77.647 74.3666 75.0839 74.037C67.966 73.1264 60.8323 72.2437 53.7144 71.324C51.8044 71.0813 49.9418 70.6721 49.8984 69.3352C49.8572 68.2842 51.4352 67.801 52.7024 67.2097C55.2692 65.9899 59.4126 66.1222 62.1472 63.4716C53.562 64.6296 47.0077 66.8317 39.6759 67.6752C33.7289 68.3599 31.5297 66.644 32.3246 64.1105C33.2943 61.0315 33.4636 57.7838 36.5387 54.8906C38.6589 52.8905 40.7448 50.697 39.417 47.858L39.4169 47.8488ZM1443.1 44.3899C1443.15 37.9706 1451.9 30.7889 1460.48 28.9115C1465.17 27.8866 1468.17 28.4248 1467.71 31.5273C1466.36 40.5395 1462.42 49.3054 1458.79 58.0963C1457.67 60.8261 1453.77 60.9684 1449.79 60.8901C1445.13 60.7989 1443.47 58.9402 1443.97 56.861C1445.11 52.259 1444.37 47.7828 1443.09 44.3901L1443.1 44.3899ZM330.703 80.4718C325.788 77.6989 324.511 77.1098 321.896 78.4775C319.103 79.939 314.596 81.1561 314.257 83.5567C313.81 86.7514 309.337 88.2541 306.055 89.8302C303.684 90.9746 301.883 88.1026 299.803 87.0866C296.512 85.4809 293.157 84.0233 288.992 83.1995C286.95 82.8011 284.451 82.268 285.286 80.7118C287.166 77.2381 288.308 73.2908 294.653 71.4039C304.105 68.5972 314.219 66.9471 324.981 66.7582C328.764 66.6906 330.597 67.4135 330.614 69.5622C330.625 72.9099 330.669 76.2574 330.703 80.481L330.703 80.4718ZM223.216 50.4497C219.78 49.1496 216.297 49.9157 212.954 49.9429C210.182 49.9654 206.121 52.0459 205.101 48.9185C204.014 45.5887 200.573 41.5956 206.097 39.0237C209.785 37.2968 216.169 36.1936 220.969 38.9029C225.507 41.4668 229.075 50.9555 226.462 52.5814C226.105 52.8057 225.683 53.0581 225.211 53.145C220.603 53.994 216.326 55.5505 211.22 55.3522C209.67 55.291 207.503 55.5577 207.119 54.408C206.65 52.9454 209.145 52.8052 210.838 52.4963C214.828 51.763 219.497 52.389 223.232 50.4588L223.216 50.4497ZM136.063 54.2938C125.689 66.1185 110.993 73.865 87.931 75.5834C99.7384 65.5823 117.191 59.8885 136.063 54.2938ZM260.202 52.3349C260.593 52.2856 261 52.2362 261.391 52.1869C262.989 58.2055 264.734 64.2136 266.137 70.243C267.252 75.0758 264.482 77.2933 256.257 78.7067C249.515 79.8682 246.749 78.5718 248.593 74.7848C252.251 67.2663 256.3 59.8092 260.186 52.3258L260.202 52.3349ZM549.733 31.5826C557.351 35.9014 561.466 40.5162 566.165 44.831C567.989 46.4947 570.227 49.0127 564.904 50.2273C559.158 51.5467 549.979 49.8598 549.666 47.4737C549.039 42.517 548.281 37.5153 549.717 31.5827L549.733 31.5826ZM222.367 86.5078C220.032 86.1486 219.492 85.9593 219.004 86.0002C213.055 86.4728 210.983 84.3776 211.042 81.6657C211.145 78.1695 216.083 79.8632 219.051 79.7746C222.002 79.686 224.988 79.9476 227.926 80.1912C230.521 80.4007 232.662 81.0289 232.351 82.839C231.884 85.5912 231.663 88.4796 227.291 90.3136C224.999 91.2821 223.048 94.0463 219.56 92.2486C216.252 90.5509 216.053 88.173 222.367 86.5078ZM228.115 57.3453C231.651 62.9239 223.898 74.2108 216.264 76.0528C213.904 76.6254 211.685 76.4774 210.729 75.1663C208.667 72.2964 206.472 69.1232 213.094 67.1511C219.91 65.1129 224.55 62.087 228.099 57.3454L228.115 57.3453ZM975.712 36.5222C975.315 35.7968 974.704 34.9256 975.956 34.399C977.63 33.6845 978.99 34.485 980.168 35.0564C987.307 38.503 986.893 43.8278 990.061 48.2566C991.116 49.7421 993.206 52.0215 987.976 52.645C983.724 53.1499 981.33 51.5554 980.465 49.4597C978.685 45.1672 977.28 40.8348 975.712 36.5129L975.712 36.5222ZM183.802 58.9136C185.251 52.5106 188.42 47.1634 191.263 41.7728C191.744 40.8558 192.88 40.1088 194.755 40.1212C196.81 40.1322 197.372 41.013 197.559 41.9798C198.121 44.8619 198.699 47.7439 199.179 50.6267C199.385 51.8885 199.073 53.6433 196.806 53.7078C191.002 53.8934 189.282 56.9785 183.802 58.9136ZM306.218 65.6288C303.673 65.5203 300.168 65.6779 302.335 63.5299C305.134 60.768 308.767 58.2669 312.187 55.7121C313.581 54.6678 315.603 54.6514 317.03 55.6358C320.032 57.7142 324.794 59.7598 324.391 62.3454C324.05 64.5062 318.075 63.817 314.689 64.5362C311.954 65.1118 308.938 65.2931 306.218 65.6288ZM167.924 77.6723C162.833 75.3343 158.196 74.6987 154.098 78.0891C153.822 78.3126 152.932 81.1051 150.68 78.9469C149.234 77.5752 144.334 76.7297 146.116 75.2027C149.614 72.1954 154.387 69.5927 160.803 68.4338C161.943 68.2309 163.541 68.1995 164.169 69.1627C165.87 71.7589 169.688 74.0427 167.924 77.6723ZM3.23704 28.7662C8.2435 28.7439 17.9235 31.8839 16.8442 33.5343C15.1529 36.1119 11.385 38.0516 7.04053 39.2674C4.9091 39.8658 -3.57102 33.8755 -3.50485 31.9843C-3.42531 29.7241 -1.21566 28.7009 3.23704 28.7662ZM921.471 44.5717C925.483 44.6589 928.484 44.6069 931.437 44.8227C934.227 45.0213 937.103 45.6159 936.809 47.5919C936.376 50.4913 935.584 53.3844 934.596 56.2422C934.277 57.1855 932.97 58.7917 930.789 57.426C928.38 55.9239 924.184 55.3032 924.176 52.4073C924.156 49.945 924.509 47.2307 921.455 44.5718L921.471 44.5717ZM162.203 60.0483C154.126 61.5619 154.143 61.5526 153.08 57.2358C152.996 56.8768 152.29 56.3845 151.703 56.2971C146.592 55.527 150.674 54.1842 151.287 53.257C152.398 51.5787 154.345 52.3007 156.582 52.7159C161.172 53.5732 160.939 56.9967 166.017 57.767C168.76 58.1782 172.051 59.8207 171.579 61.8536C171.106 63.8403 167.077 63.7347 164.44 64.3648C163.219 64.6606 161.95 65.0398 160.347 64.3888C160.859 63.1857 161.419 61.8992 162.219 60.0482L162.203 60.0483ZM1016.52 72.8411C1015.88 69.1572 1015.07 65.5947 1014.72 62.0192C1014.54 60.2314 1012.78 56.9994 1017.58 57.3201C1021.43 57.5747 1024.67 60.4535 1028.19 62.1679C1022.5 64.363 1028.17 65.6911 1029.32 67.3695C1030.13 68.5342 1030.96 69.9293 1028.91 70.7575C1025.72 72.0377 1025.77 69.9899 1024.67 69.1503C1022 67.1154 1019.9 67.566 1018.6 69.7623C1018 70.754 1018.27 71.9046 1016.5 72.8505L1016.52 72.8411ZM1410.07 34.9655C1408.17 40.1179 1410.3 45.256 1408.32 50.2247C1407.65 51.8902 1410.8 54.7604 1405.44 54.9701C1399.76 55.1914 1400.24 51.9227 1399.56 49.844C1398.85 47.7008 1400.12 45.348 1402.25 43.6983C1405.75 40.9676 1407.66 37.9363 1410.07 34.9747L1410.07 34.9655ZM163.018 41.9009C165.896 38.917 173.157 35.335 182.786 32.2594C184.511 31.7104 186.343 30.3583 188.505 31.512C190.093 32.366 188.749 33.5297 188.268 34.5297C186.424 38.3628 174.579 41.8069 163.018 41.8917L163.018 41.9009ZM245.557 90.4049C247.091 86.6112 261.613 79.5393 266.246 79.64C266.751 79.6543 267.437 79.6764 267.732 79.8585C273.729 83.3973 261.265 84.8267 264.556 88.4152C265.56 89.5045 260.705 90.1619 259.721 89.5335C254.902 86.4555 250.809 88.6007 245.54 90.405L245.557 90.4049ZM285.956 86.8118C290.545 89.6611 295.012 91.4601 297.334 94.2818C299.426 96.8287 295.908 97.4291 293.176 98.3643C289.582 99.5925 288.186 98.3864 287.52 96.6857C286.37 93.7069 285.367 90.7085 284.446 87.7002C283.943 86.0626 284.862 84.6718 288.276 85.3818C294.173 86.6066 299.147 88.5583 302.46 92.949C296.05 90.76 295.197 86.2109 285.955 86.8025L285.956 86.8118ZM549.508 62.0651C549.368 56.92 550.246 56.6086 558.437 59.069C560.545 59.6974 562.834 60.3613 564.326 61.3544C565.556 62.1652 567.331 63.8293 565.396 64.5736C561.445 66.0814 556.861 67.9078 552.507 67.9524C548.659 67.9929 550.459 64.7411 549.564 62.9777C549.415 62.693 549.543 62.3692 549.524 62.065L549.508 62.0651ZM498.702 51.3648C496.352 51.1902 495.249 51.9186 493.982 52.4453C487.984 54.9288 486.905 54.6517 485.729 50.4004C485.393 49.195 484.976 48.0087 484.689 46.8029C484.47 45.91 485.085 45.3794 486.829 45.3006C494.312 44.9631 506.076 53.7028 503.811 57.9359C503.409 58.677 502.959 59.5014 501.345 59.5145C499.16 59.5323 498.858 58.4926 498.802 57.5893C498.671 55.5245 498.735 53.4581 498.718 51.3555L498.702 51.3648ZM179.655 68.3175C190.894 74.7281 191.236 76.662 183.038 81.2293C179.677 83.1011 177.604 82.9059 176.165 80.3445C173.831 76.1764 177.553 72.6139 179.655 68.3175Z" fill="#FD7702"/>
</svg>
