<svg width="1440" height="191" viewBox="0 0 1440 191" fill="none" xmlns="http://www.w3.org/2000/svg">
<path opacity="0.5" d="M-5.7871 294.257C-6.0965 253.687 -4.04897 112.441 -4.35837 71.8704C-3.37212 72.0533 -2.38573 72.2528 -1.38366 72.4274C7.5555 73.9821 7.64935 73.7909 7.45263 68.8243C7.25603 63.8742 7.99665 58.9253 7.10109 53.9723C6.80249 52.3102 8.07835 50.8928 11.9612 49.7205C11.9995 54.7464 12.0179 59.2341 12.068 63.7216C12.0901 66.6195 12.1122 69.5174 12.2931 72.4059C12.5256 75.8238 18.6932 76.3812 22.4733 76.311C26.1739 76.2414 24.0249 73.5584 23.506 72.1713C20.6536 64.7491 17.4205 57.3795 14.2983 49.9843C13.4895 48.0777 12.8082 46.2198 7.86606 45.9677C3.97279 45.7738 5.38447 43.4198 6.25714 43.2889C12.937 42.2775 9.37628 39.8702 8.87125 38.218C7.68172 34.294 6.42778 30.2545 -2.7748 27.4846C7.56616 27.472 10.6692 30.2718 12.1083 33.5978C12.9816 35.6281 14.1242 37.5735 15.6001 39.475C16.1455 40.1664 17.514 40.4789 18.909 40.1039C20.7478 39.6013 19.6313 39.0054 18.9755 38.4059C17.8718 37.4124 15.072 36.879 16.2137 34.5353C25.742 38.3461 33.9693 42.382 41.7843 46.4957C51.6236 41.113 36.9239 38.2111 37.0562 32.6541C54.1113 42.3775 64.2787 52.94 70.9435 64.5395L70.8316 49.8595C68.1569 49.0684 67.5239 51.4662 64.6406 50.4035C64.6714 48.1842 68.0768 46.8913 70.8785 45.5948C74.2026 44.0625 74.46 42.4044 72.0498 40.8744C63.6695 35.5396 60.673 27.9612 47.0856 25.1088C48.1855 23.5272 50.3061 24.5709 51.4772 23.9989C51.0055 22.5451 47.3468 21.8692 48.3108 19.1294C67.4314 28.9199 77.9735 40.6968 87.7445 53.44C89.5019 50.5948 88.7052 48.1913 93.1562 46.5262C94.7978 49.3207 90.9261 51.9585 92.6253 53.9824C94.6933 56.4507 101.222 56.5169 105.506 57.9581C110.921 59.7716 110.427 55.3288 114.349 55.2079C116.073 56.3291 114.906 57.3647 114.071 58.3316C112.796 59.7821 113.755 60.6442 116.239 61.3457C119.439 62.2569 120.08 60.9852 121.581 59.9635C124.774 57.7946 125.659 55.221 127.324 52.7656C127.874 51.9665 128.671 50.1471 130.152 50.7154C134.884 52.5423 134.15 50.0473 133.304 49.5569C129.172 47.1789 134.558 47.2372 135.891 47.1442C144.718 46.4973 147.874 43.7076 147.936 39.4097C147.957 37.9108 148.549 36.391 149.094 34.9047C150.884 30.1217 150.814 25.1375 155.386 20.6147C154.976 33.5433 148.846 46.2257 148.421 59.1544C154.712 48.9134 157.792 38.1919 166.676 28.3617C168.493 31.3039 164.78 33.8494 164.818 36.7721C168.767 35.9802 170.369 33.5501 175.658 33.4767C172.335 37.2861 164.119 38.8143 162.178 42.6215C164.809 43.9345 168.322 42.2186 171.578 44.2472C157.33 44.3559 159.456 50.2518 156.916 54.552C155.739 56.5317 154.881 58.5669 153.991 60.5858C153.601 61.483 152.719 62.5082 155.615 63.1568C160.596 60.0966 159.402 55.684 163.443 52.2749C166.836 53.5655 162.03 56.5086 167.623 56.706C170.88 56.822 174.021 56.2763 175.692 54.5827C176.527 53.7318 177.235 52.7907 177.514 51.8529C177.994 50.2263 179.398 48.9819 182.124 48.1744C187.735 46.5087 189.161 43.9475 188.692 40.7881C188.323 38.2985 188.447 35.7473 192.733 33.2968C194.277 37.8805 191.212 42.2013 194.592 45.9017C207.909 44.525 211.417 37.9402 220.013 33.9913C218.944 35.4733 217.891 36.9469 216.271 39.1784C222.643 37.3744 227.604 35.8544 232.756 34.5482C237.592 33.319 241.721 31.1512 248.071 30.5728C247.585 31.4791 247.603 31.6694 247.444 31.7286C241.851 33.5763 236.21 35.3913 230.649 37.2637C229.365 37.6957 227.132 38.5905 227.308 38.7713C230.64 42.4306 224.643 41.2922 222.008 41.4945C211.435 42.3038 208.522 43.6508 205.706 49.2946C209.809 52.0455 215.748 45.5002 219.611 50.0663C222.921 48.741 219.572 44.9577 226.45 44.8969C227.581 47.4883 223.251 50.436 228.113 52.6428C231.747 54.2877 236.143 55.7364 241.122 54.5806C246.45 53.3393 248.097 50.6108 248.933 47.7726C249.568 45.6066 247.389 43.2799 249.961 40.9667C253.085 42.3753 250.243 44.5499 254.32 45.9595C254.661 42.7691 260.262 42.006 262.979 39.9152C263.784 39.3046 266.847 38.8921 266.187 39.9073C265.261 41.322 271.524 41.9449 267.352 42.6888C261.879 43.6662 261.539 46.9726 256.623 48.07C255.149 48.3959 253.902 49.4984 255.165 50.5486C255.533 50.8605 256.424 51.1518 257.108 51.1714C260.079 51.2481 259.308 50.2107 259.491 49.2074C259.812 47.4826 262.767 47.5263 264.992 47.7495C268.458 48.0957 265.749 49.11 265.517 49.9149C264.759 52.529 263.864 56.088 267.908 57.175C272.348 58.3666 271.577 59.2088 269.398 60.9808C274 60.3578 274.604 58.2997 277.139 57.4358C283.08 55.395 279.424 59.2732 281.714 59.5786C285.842 57.2618 288.828 51.004 285.58 49.9358C279.942 48.0826 282.367 47.2609 286.153 45.9983C288.673 45.1593 288.757 43.6765 288.73 42.2691C288.677 39.5122 288.466 36.7482 288.572 33.9984C288.796 28.01 287.829 21.9646 291.636 15.0795C294.726 24.454 289.501 33.0225 293.745 41.7175C300.632 36.5478 297.867 30.1517 303.11 24.0671C305.164 26.7591 303.986 28.5318 303.745 30.2145C303.338 33.1322 303.634 34.5128 310.805 33.2906C318.515 31.9732 326.319 30.415 334.625 30.2854C336.134 30.2573 338.652 29.17 338.967 30.9064C339.249 32.4941 336.978 32.5445 334.626 32.4548C328.683 32.2103 323.353 33.1038 318.473 34.7971C323.731 34.7487 328.696 36.0025 334.038 34.521C338.366 33.3205 342.435 35.7736 341.104 38.3258C339.726 40.9445 338.333 43.5634 337.177 46.2054C336.412 47.9335 337.2 49.244 341.346 49.2124C345.254 49.1826 351.148 49.3364 351.115 47.1424C351.098 44.9234 352.706 43.2054 353.501 41.2618C354.109 39.7833 354.174 37.8866 357.555 37.5379C362.221 37.0634 357.624 40.4023 361.406 40.5722C361.676 40.4873 361.914 40.4276 362.119 40.3432C366.332 38.655 361.532 32.026 373.671 34.5914C374.133 34.6873 375.303 33.9745 376.078 33.6043C379.798 31.7957 381.433 29.6386 381.27 26.9405C381.144 25.037 379.952 22.8849 383.274 21.1042C387.528 22.8106 385.007 25.405 386.737 27.3128C394.52 25.2331 402.339 23.5422 409.294 21.1625C415.299 19.1046 414.121 20.8855 415.979 22.9331C417.229 24.3064 412.579 27.0329 418.169 26.8164C426.729 26.4944 425.264 28.1285 422.107 30.7692C420.355 32.2316 419.24 33.8961 417.129 36.2555C423.289 33.7245 427.019 31.1871 430.238 28.3804C434.325 24.8136 438.444 21.2548 442.69 17.7447C443.716 16.9006 446.564 15.3884 447.225 16.6917C448.37 18.9434 453.108 21.6315 446.788 24.0064C444.903 24.7164 443.578 25.8443 442.108 26.8243C427.82 36.3313 417.798 46.9485 411.565 58.5304C410.954 59.6694 410.534 60.7988 412.731 61.4858C414.721 62.1082 415.81 61.1394 417.362 60.5976C419.549 59.8275 422.22 58.0351 424.465 58.7963C428.702 60.2379 430.261 58.4706 432.398 57.5352C433.902 56.8779 434.178 55.5592 437.038 55.6699C441.932 55.8561 442.299 53.982 442.841 52.1148C443.15 51.036 442.091 49.5951 445.627 48.798C447.98 51.1648 447.189 53.6632 447.064 56.0406C446.867 59.4038 449.636 60.0534 455.46 59.2721C460.348 58.6138 461.637 56.8485 462.049 54.7008C462.722 51.2677 462.966 47.8212 463.67 44.3878C464.589 39.9095 464.284 35.3411 467.123 30.5666C473.658 35.5429 480.952 29.7077 487.89 31.2197C485.931 32.6175 483.389 32.6037 481.184 32.9766C469.397 34.9792 468.48 35.6404 467.735 42.0384C467.213 46.5799 466.533 51.1144 465.774 55.6495C465.591 56.7439 464.394 57.9867 467.81 58.118C470.463 58.222 473.354 58.1999 474.454 56.5438C474.956 55.7865 475.362 54.7897 474.832 54.1065C471.126 49.2908 480.282 45.9006 478.428 40.3173C483.621 44.2523 483.078 43.9335 488.16 41.6176C497.341 37.4241 504.532 32.7075 507.916 26.5377C508.042 26.2966 509.01 26.1816 510.69 25.6637C504.91 38.5256 498.268 50.7482 496.798 64.1982C500.093 60.9272 500.482 57.7198 505.932 55.7738C507.486 59.6205 501.597 62.34 501.482 65.9013C506.926 65.3464 507.02 63.168 508.071 61.4212C512.323 54.4416 516.416 47.4385 520.699 40.4669C521.829 38.6201 523.178 36.3907 526.715 35.7676C531.22 34.9714 531.795 33.1868 533.004 31.4222C537.293 25.171 541.502 18.9039 545.775 12.6446C546.294 11.8871 546.778 10.8153 548.702 11.0324C550.594 11.2416 551.777 12.251 551.388 13.2642C550.92 14.4601 550.024 15.6593 548.904 16.736C542.045 23.3462 537.11 30.3476 532.669 37.4527C531.994 38.5426 530.112 39.6417 532.52 40.8322C535.907 39.2331 539.072 37.5778 542.555 36.1353C547.242 34.1951 551.836 32.4958 558.615 34.1249C563.819 35.377 568.439 34.9526 569.218 30.9638C569.631 28.8078 571.855 26.7705 574.303 24.9219C575.203 24.2526 576.101 23.2025 577.771 23.4464C586.931 24.8007 595.807 24.319 604.673 22.6119C607.163 22.1293 609.897 22.332 612.489 22.7428C619.376 23.8164 627.384 24.0534 629.215 28.8337C629.345 29.1805 629.094 29.5715 629.048 29.87C626.225 30.4628 625.304 28.4247 622.797 28.8164C622.869 31.9872 625.782 34.8547 624.505 38.16C617.42 35.995 610.492 33.6548 599.883 33.9427C607.006 36.9521 614.781 37.8698 618.826 41.2422C619.817 42.0709 622.746 42.9594 620.8 43.9513C618.791 44.9686 617.509 43.5707 615.931 42.8458C608.072 39.2459 598.877 37.4943 588.24 38.1716C586.525 38.2841 585.1 38.8911 584.725 39.6889C583.052 43.1628 581.935 46.6655 582.646 50.3779C586.993 49.6493 584.213 47.501 587.162 46.7996C588.308 47.1552 589.329 47.6359 590.537 47.8337C598.728 49.1871 605.448 53.3671 616.046 49.5519C621.828 47.4709 617.093 51.5312 618.61 52.5298C622.259 51.8892 625.605 51.193 628.573 52.9092C629.526 50.865 627.733 48.9908 630.658 47.2048C635.336 50.3405 637.651 53.933 642.833 56.4521C645.465 55.811 644.339 53.9648 647.447 53.3449C649.025 54.045 648.995 56.314 652.421 55.6917C656.006 55.035 652.5 53.5796 653.191 52.5227C653.678 51.7821 653.48 50.8148 655.575 50.6084C659.418 56.6899 659.356 56.8808 655.221 62.4518C654.718 63.1264 653.247 63.9573 654.635 64.7251C655.432 65.1579 656.526 64.9177 657.333 64.4313C663.8 60.5399 665.394 48.8278 659.754 44.5237C652.612 39.0883 645.407 33.6783 637.156 28.6655C635.752 27.815 633.253 27.122 634.698 25.0078C646.736 30.9357 655.003 38.0765 664.095 45.0371C667.839 42.392 665.576 39.271 670.435 37.0562C671.448 40.6753 669.264 43.8301 668.732 47.0221C668.353 49.3434 669.448 51.3058 672.888 52.4388C675.85 53.4181 677.479 54.507 678.19 56.2155C678.498 56.9418 679.032 58.2295 680.872 57.8677C684.171 57.2215 684.508 57.7075 683.996 59.2432C683.514 60.6711 684.874 61.9028 687.511 61.9903C690.562 62.0912 689.137 60.6034 689.321 59.774C689.583 58.6707 691.33 58.7236 692.646 58.3161C701.885 55.4883 704.726 50.9457 700.605 45.9096C700.028 45.2019 698.783 44.4496 700.556 43.6412C704.081 43.5149 703.164 46.1302 706.279 46.3052C707.546 43.7535 706.523 40.9046 710.589 38.671C712.331 40.0157 709.323 41.4463 712.047 42.3529C714.251 41.8227 712.36 39.7009 715.902 39.7235C717.964 41.3804 714.801 43.1931 716.402 44.8866C721.271 43.8558 722.885 40.8792 728.895 39.5499C726.048 43.306 722.718 46.0639 724.877 50.055C728.47 56.7181 727.375 56.8837 733.493 59.2384C726.369 54.0596 727.662 48.7338 731.273 43.1006C733.204 40.0884 732.046 36.1393 728.9 33.9856C724.477 30.9639 728.128 30.5717 731.435 28.9153C732.581 31.3492 731.566 33.6754 735.219 35.6762C739.213 32.3999 740.547 28.1751 749.259 27.0157C745.253 30.7723 736.801 32.6667 743.119 38.423C746.542 41.5433 750.289 45.4644 751.357 50.1346C753.79 48.3524 752.759 46.5138 755.389 45.5746C759.398 48.4007 751.845 51.6131 757.322 55.2974C758.103 49.3794 758.716 44.3569 759.456 39.3334C760.363 33.3399 768.467 29.5106 778.006 30.4894C780.788 30.7746 784.391 34.6802 782.346 35.2092C769.251 38.6211 771.866 44.0496 774.611 49.8414C775.934 48.3905 774.014 46.5421 778.724 45.5043C778.302 50.6744 775.913 56.0913 789.911 58.6011C785.234 55.6145 785.199 53.081 787.34 50.5558C788.332 49.3807 788.732 47.7299 792.162 47.6043C796.577 47.4547 794.561 49.623 795.855 50.615C797.357 51.7794 796.558 53.2842 796.346 54.6603C796.119 56.0863 796.164 57.8082 799.453 57.899C802.758 57.998 803.268 56.2139 803.496 54.8376C804.254 50.1701 802.426 45.7127 797.853 41.7813C794.447 38.843 795.301 36.3524 798.076 33.665C799.011 37.4751 801.182 40.8948 804.923 44.1204C810.344 48.7905 810.821 48.8697 817.746 44.5774C820.038 43.1606 823.284 41.695 826.402 42.3999C829.123 43.0168 830.933 44.8991 829.09 46.9418C827.987 48.1592 828.333 49.8374 831.003 49.933C833.561 50.0211 835.742 48.5803 835.635 47.0575C835.473 44.583 834.787 42.129 834.324 39.665C834.042 38.1519 833.156 36.5523 837.101 35.1559C837.415 36.7019 837.82 37.7753 837.812 38.8435C837.745 42.4707 837.697 46.5864 841.545 49.2233C846.176 52.3841 853.039 54.5592 851.931 59.2708C855.435 58.474 855.192 61.9701 858.139 60.9126C860.483 60.0667 858.454 58.6 857.588 57.5136C856.385 55.991 854.596 54.5887 853.583 53.0397C852.78 51.8204 850.083 50.2098 855.192 49.467C858.302 49.0127 861.138 48.0637 861.969 50.7484C862.392 52.1114 864.654 52.9636 867.069 52.9866C870.341 53.0196 869.692 51.2194 870.749 50.2095C872.326 48.6987 872.007 46.5235 876.019 45.5986C877.67 47.5815 873.821 49.0103 876.062 51.1957C883.584 46.1205 892.878 42.0586 894.209 35.3663C894.561 33.5916 895.151 31.7903 896.186 30.085C896.86 28.9703 896.224 26.7063 900.168 27.2973C903.189 27.7462 901.296 29.4001 900.669 30.5393C899.933 31.8863 899.133 33.2255 897.879 35.4211C906.945 31.4602 911.462 27.9591 911.428 24.9178C914.522 26.5171 918.113 26.6443 922.201 25.2993C920.763 28.4319 918.609 31.2968 918.282 34.2139C917.761 38.8382 912.797 44.0761 922.912 47.7251C922.015 48.8911 917.899 48.5665 918.244 50.1619C918.508 51.3771 921.959 49.8024 922.749 51.3944C915.348 53.5789 917.9 57.0703 918.371 60.4781C918.758 63.3815 918.25 63.402 928.186 66.5306C928.315 64.6666 926.123 62.7043 928.856 60.6052C930.948 62.1211 929.596 64.0358 932.653 64.9316C935.551 63.7751 932.66 61.6857 935.574 60.5125C940.737 58.4362 940.573 57.7668 935.302 56.0598C933.534 55.4854 930.518 55.6575 930.122 53.7643C935.427 53.7239 940.335 55.7813 946.1 53.51C945.571 54.9382 945.354 55.6106 945.073 56.2751C944.667 57.2305 943.962 58.4448 946.552 58.6072C948.809 58.7473 949.212 57.4856 949.745 56.5707C950.999 54.3752 950.064 52.5358 946.843 50.9457C945.376 50.22 943.411 48.819 947.222 48.6244C954.399 48.2467 952.951 45.7488 952.775 43.498C952.548 40.8831 952.02 38.2789 951.841 35.672C951.484 30.425 948.648 25.1639 952.563 19.9092C956.849 27.8007 953.688 36.1713 957.5 44.4307C959.913 42.1353 959.814 39.6602 962.551 38.2151C966.988 38.8851 960.019 41.5217 966.789 41.8675C977.054 42.3937 970.588 38.0959 973.385 36.2032C975.332 37.3724 976.96 38.3454 978.859 39.4984C980.113 35.1748 988.018 36.5305 992.055 34.7526C992.641 34.4914 994.062 35.5487 993.589 35.8918C989.291 38.9469 996.871 43.468 988.71 46.0475C987.601 46.4037 987.513 47.3483 988.502 47.9121C990.448 49.0151 990.93 47.6204 992.039 47.2558C994.02 46.5949 996.599 45.2421 998.014 45.5045C1006.48 47.0381 1002.91 44.0596 1002.6 42.3976C1001.11 34.2861 1001.95 26.0326 996.899 17.9813C1001.44 18.1205 1001.76 19.7245 1002.56 20.9107C1004.17 23.2583 1004.57 25.7228 1004.65 28.2311C1004.82 33.7444 1006.07 39.1998 1007.75 44.652C1008.66 47.5928 1014.99 45.3833 1016.44 47.5169C1016.47 47.5663 1018.01 46.8259 1017.86 46.2806C1016.82 42.5128 1018.39 39.1886 1023.65 36.3581C1024.41 35.9466 1024.27 35.0451 1024.39 34.3652C1025.32 29.0091 1026.44 23.6515 1027.07 18.2894C1028.27 7.87196 1038.16 2.51377 1058.06 1.67477C1059.66 1.60458 1061.34 1.31023 1062.24 2.24733C1063.23 3.29135 1062.43 4.00131 1060.53 4.62855C1059.09 5.10324 1055.29 5.44682 1058.21 6.87361C1064.28 9.84957 1057.79 9.81631 1055.09 10.3171C1052 10.8872 1048.41 10.7573 1045.61 12.7162C1051.43 13.7068 1057.62 12.873 1064.2 15.34C1057.86 15.3883 1053.54 15.5455 1049.25 15.4292C1038.85 15.1359 1028.26 19.1249 1029.69 25.2496C1030.1 26.9771 1028.89 28.8079 1028.75 30.5976C1028.66 31.7409 1027.28 33.4572 1030.36 33.8146C1033.35 34.1644 1034.79 32.7292 1035.7 31.3064C1037.33 28.7767 1037.31 25.9285 1040.88 23.5414C1043.48 25.2604 1041.43 26.7168 1040.79 28.0466C1039.63 30.4152 1039.78 31.7638 1045.56 31.5127C1053.14 31.1817 1055.59 33.912 1056.63 37.1416C1057.31 39.2562 1057.66 41.4064 1059.47 43.4295C1064.69 41.7171 1065.24 39.2702 1064.46 36.4609C1072.86 38.9389 1072.43 43.281 1074.99 47.8487C1079.17 41.2755 1080.65 35.2693 1085.47 29.5275C1088.13 31.1632 1086.43 32.4762 1085.91 33.7139C1083.62 39.2377 1081.52 44.7932 1078.65 50.2469C1077.12 53.1401 1080.72 54.5452 1083.74 55.6813C1086.58 56.7444 1092.52 56.7653 1093.78 55.2156C1096.33 52.0993 1098.64 53.4562 1102.23 55.3333C1099.46 48.2583 1096.86 42.0514 1096.9 35.6918C1100.92 37.2841 1099.58 39.5465 1100.81 41.4499C1101.8 43.0156 1101.73 43.2646 1102.58 43.1173C1108.13 42.189 1108.79 44.2375 1109.56 46.1691C1110.15 47.6469 1110.32 49.1774 1110.98 50.6462C1111.66 52.1398 1109.42 54.5333 1113.39 54.9335C1116.78 55.2803 1115.68 52.3906 1118.37 51.658C1118.74 51.5558 1119.29 51.6344 1119.72 51.6311C1121.72 53.0401 1117.28 55.5581 1122.44 56.2473C1127.12 56.8658 1128.67 54.6348 1131 53.2095C1132.9 52.0523 1134.57 50.781 1136.56 49.6728C1139.85 47.8509 1139.76 46.1127 1137.17 44.1038C1131.9 40.0039 1126.77 35.8367 1121.79 31.6351C1119.97 30.1006 1117.32 28.6718 1117.37 26.502C1121.15 26.7216 1121.9 28.2146 1123.22 29.2975C1128.75 33.8094 1134.16 38.3555 1139.53 42.9183C1141.75 44.8141 1143.79 44.9559 1146.76 43.1861C1148.99 41.8526 1151.14 40.1636 1156.12 39.9434C1154.36 42.3084 1151.03 43.3605 1148.72 44.8106C1147 45.8919 1144.71 46.9776 1146.94 48.4096C1153.47 52.5744 1156.55 58.6534 1169.02 59.2539C1169.16 60.7018 1164.66 59.6515 1165.85 61.1743C1167.59 63.4132 1178.97 63.7818 1181.91 61.9212C1189.15 57.3367 1186.93 51.6402 1189.31 46.4884C1190.26 44.4028 1187.17 40.7748 1193.04 40.5561C1198.68 40.3475 1198.25 44.168 1199.55 46.3688C1203.95 53.7462 1207.91 61.2013 1212.03 68.622C1212.26 63.1388 1210.9 57.8581 1209.53 52.5857C1208.46 48.52 1205.43 44.3036 1206.64 40.4276C1209.6 30.9407 1207.31 22.6199 1193.98 15.6668C1193.34 15.3322 1193.1 14.7958 1192.33 13.9985C1199.61 14.1583 1201.35 19.4278 1209.03 18.0444C1207.53 19.8609 1206.78 21.5807 1208.66 23.5453C1210.9 25.9047 1211.73 28.5729 1211.3 31.1927C1210.51 35.9764 1214.95 38.7081 1222.76 40.4288C1226.9 36.7622 1226.56 32.2272 1232.8 29.265C1233.81 28.7853 1235.24 27.5241 1236.27 28.8908C1238.94 32.4061 1244.64 30.8473 1248.24 30.4058C1253.23 29.7965 1248.69 28.1088 1248.11 26.8795C1247.99 26.6485 1248.09 26.2504 1248.37 26.1405C1257.11 22.7949 1249.59 21.9414 1245.47 20.3003C1239.97 18.1148 1230.12 17.5689 1232.88 11.7186C1239.88 13.9506 1243.33 18.6854 1253.04 19.133C1250.57 14.7136 1248.06 10.6754 1243.06 7.22756C1239.02 4.43481 1233.77 2.84367 1226.75 3.16217C1221.65 3.39149 1218.9 5.15131 1218.46 7.46487C1217.88 10.5081 1223.44 8.1887 1225.37 9.20901C1225.7 9.38034 1225.83 9.66088 1226.2 10.039C1222.7 10.9103 1218.9 11.5519 1215.8 12.7017C1212.35 13.9784 1213.26 16.9606 1208.95 18.0947C1208.8 14.0137 1210.87 10.1559 1213.94 6.45603C1218.88 0.497969 1229.67 -1.07476 1240.03 2.51444C1244.31 3.99704 1248.26 5.93759 1249.6 8.3949C1255.1 18.546 1268.25 24.8711 1284.81 30.3174C1292.14 32.7291 1297.2 32.4089 1302.7 30.239C1321.02 22.9948 1341.17 21.5494 1362.93 23.9503C1384.86 26.3666 1403.5 32.2358 1421.66 38.6553C1430.01 41.6056 1429.75 41.442 1435.08 36.8472C1439.83 32.7454 1433.14 31.3888 1429.29 29.5551C1424.48 27.2567 1423.5 30.419 1421.13 31.5466C1420.64 31.7822 1419.81 31.8133 1417.23 32.305C1426.53 25.5354 1415.87 23.1492 1409.65 19.9259C1403.49 16.7353 1396.86 13.7967 1390.52 10.7069C1389.24 10.0873 1387.09 9.33362 1388.58 8.33695C1390.33 7.16434 1392.42 8.06752 1394.11 8.69222C1395.16 9.08993 1396.1 9.58785 1396.96 10.1112C1403.89 14.2896 1412.49 17.5112 1420.11 21.2869C1424.61 23.5131 1428.04 23.8926 1433.56 21.7143C1443.31 17.8724 1448.29 18.3478 1456.8 22.7956L1455.66 283.269C1451.71 283.391 1447.76 283.595 1443.8 283.625C964.614 287.287 485.411 290.942 6.22438 294.588C2.26928 294.618 -1.68715 294.475 -5.64295 294.414L-5.7871 294.257ZM1409.76 38.7626C1411.97 40.8489 1414.1 42.969 1416.43 45.0212C1417.44 45.8995 1417.64 47.4216 1420.36 47.2766C1422.5 47.1609 1424.08 46.1967 1424.93 45.1634C1426.04 43.8467 1424.06 43.1414 1422.42 42.4667C1403.11 34.4165 1382.36 27.8429 1357.4 25.6237C1339.26 24.0066 1322.05 25.0653 1306.91 31.1011C1303.82 32.3336 1298.05 33.2222 1299.53 35.8688C1301.25 38.9359 1307.69 38.7213 1312.61 39.3378C1313.58 39.4629 1314.74 39.1808 1315.76 39.2476C1325.14 39.8716 1334.64 40.1801 1343.48 42.1164C1335.38 43.3706 1327.82 40.2072 1318.51 41.8597C1324.77 45.4222 1331.8 47.2151 1339.83 48.1061C1346.22 48.8108 1353.47 49.8816 1355.32 53.0637C1357.74 57.2516 1365.34 58.6096 1369.02 61.8853C1370.36 63.084 1372.92 63.1307 1375.41 62.7971C1382.33 61.8749 1389.27 60.9774 1396.18 60.047C1398.04 59.801 1399.85 59.4063 1399.87 58.2055C1399.9 57.2613 1398.35 56.8508 1397.11 56.3386C1394.59 55.2814 1390.56 55.4612 1387.86 53.122C1396.23 54.0351 1402.65 55.9155 1409.8 56.5648C1415.6 57.0919 1417.72 55.519 1416.91 53.2564C1415.92 50.5067 1415.71 47.5937 1412.67 45.0417C1410.58 43.2774 1408.51 41.339 1409.76 38.7709L1409.76 38.7626ZM42.6217 56.3262C42.4825 50.5642 33.8565 44.2459 25.4732 42.6869C20.8919 41.8359 17.9731 42.3633 18.4709 45.1416C19.9144 53.2121 23.8816 61.0232 27.5473 68.8615C28.6778 71.2956 32.4748 71.366 36.3497 71.237C40.8917 71.0865 42.4831 69.3935 41.9606 67.5344C40.7855 63.4198 41.4378 59.3906 42.6376 56.3261L42.6217 56.3262ZM1126.55 72.3376C1131.3 69.7759 1132.53 69.2283 1135.1 70.4176C1137.84 71.6884 1142.25 72.7147 1142.62 74.8648C1143.1 77.726 1147.48 79.0092 1150.7 80.3757C1153.02 81.3682 1154.73 78.7634 1156.74 77.8207C1159.93 76.3308 1163.17 74.973 1167.22 74.1721C1169.2 73.7843 1171.63 73.269 1170.79 71.8843C1168.91 68.7936 1167.74 65.2668 1161.53 63.6664C1152.28 61.286 1142.41 59.9537 1131.92 59.9425C1128.24 59.9375 1126.46 60.6135 1126.48 62.5426C1126.52 65.5481 1126.52 68.5537 1126.55 72.3459L1126.55 72.3376ZM1230.79 43.8038C1234.12 42.5861 1237.53 43.2226 1240.78 43.1977C1243.48 43.1772 1247.47 44.985 1248.41 42.1625C1249.42 39.1573 1252.72 35.522 1247.3 33.2946C1243.68 31.7986 1237.45 30.9022 1232.81 33.405C1228.43 35.7735 1225.1 44.3441 1227.66 45.7653C1228.01 45.9613 1228.43 46.1817 1228.89 46.2527C1233.39 46.9471 1237.58 48.2814 1242.55 48.0282C1244.06 47.9505 1246.17 48.1579 1246.53 47.1201C1246.96 45.8003 1244.53 45.7112 1242.88 45.4588C1238.98 44.8592 1234.44 45.49 1230.78 43.8122L1230.79 43.8038ZM1315.73 45.9714C1326.01 56.4337 1340.44 63.1715 1362.92 64.3745C1351.28 55.5704 1334.19 50.7159 1315.73 45.9714ZM1194.8 46.0408C1194.42 46.0023 1194.02 45.9639 1193.64 45.9254C1192.17 51.3519 1190.56 56.7711 1189.28 62.2044C1188.27 66.5593 1191 68.5092 1199.03 69.6568C1205.61 70.6003 1208.29 69.3958 1206.44 66.0233C1202.76 59.3278 1198.71 52.6931 1194.82 46.0324L1194.8 46.0408ZM912.512 31.6745C905.156 35.6637 901.217 39.867 896.704 43.8096C894.952 45.33 892.809 47.6234 898.011 48.6353C903.627 49.7352 912.542 48.0857 912.811 45.939C913.349 41.4802 914.014 36.9789 912.528 31.6743L912.512 31.6745ZM1232.15 76.1609C1234.42 75.8041 1234.94 75.6263 1235.42 75.6557C1241.22 75.9924 1243.21 74.0811 1243.11 71.6474C1242.96 68.5104 1238.17 70.1035 1235.28 70.0676C1232.41 70.0316 1229.5 70.3104 1226.65 70.5724C1224.12 70.7986 1222.05 71.3941 1222.38 73.0145C1222.87 75.4782 1223.13 78.068 1227.41 79.6499C1229.66 80.4857 1231.6 82.9384 1234.97 81.2732C1238.17 79.7004 1238.33 77.5629 1232.15 76.1609ZM1226.12 50.0662C1222.76 55.1262 1230.48 65.1444 1237.94 66.6856C1240.25 67.1648 1242.41 66.9993 1243.32 65.8083C1245.29 63.2016 1247.38 60.3206 1240.9 58.6478C1234.23 56.9184 1229.67 54.2704 1226.14 50.0661L1226.12 50.0662ZM497.712 42.3811C498.088 41.7241 498.67 40.933 497.443 40.4787C495.803 39.8619 494.49 40.6006 493.35 41.1309C486.449 44.33 486.93 49.1041 483.911 53.1265C482.904 54.4755 480.903 56.5526 486.006 57.0353C490.155 57.426 492.463 55.9593 493.274 54.0652C494.944 50.1856 496.249 46.2757 497.712 42.3728L497.712 42.3811ZM1269.31 50.8216C1267.8 45.0949 1264.63 40.3413 1261.79 35.5439C1261.3 34.7279 1260.19 34.074 1258.36 34.1128C1256.36 34.1529 1255.82 34.9518 1255.66 35.8225C1255.15 38.4181 1254.63 41.0138 1254.21 43.6087C1254.03 44.7445 1254.35 46.3152 1256.56 46.3398C1262.22 46.4209 1263.94 49.1651 1269.31 50.8216ZM1150.18 58.6523C1152.66 58.5175 1156.07 58.6074 1153.93 56.711C1151.16 54.2729 1147.59 52.081 1144.22 49.8379C1142.85 48.921 1140.88 48.9361 1139.5 49.8408C1136.61 51.7508 1132 53.6572 1132.43 55.9724C1132.8 57.9072 1138.61 57.2005 1141.91 57.7963C1144.59 58.2727 1147.53 58.3911 1150.18 58.6523ZM1285.05 67.4276C1289.97 65.2538 1294.48 64.615 1298.52 67.5981C1298.79 67.7948 1299.7 70.2885 1301.86 68.3179C1303.25 67.0653 1308.01 66.2341 1306.25 64.8895C1302.8 62.2413 1298.11 59.9751 1291.84 59.0293C1290.73 58.8639 1289.17 58.8592 1288.58 59.7332C1286.96 62.0888 1283.27 64.1953 1285.05 67.4276ZM1444.72 21.0992C1439.84 21.153 1430.46 24.1143 1431.54 25.58C1433.22 27.8691 1436.92 29.5549 1441.17 30.5823C1443.25 31.0881 1451.42 25.5857 1451.33 23.8889C1451.22 21.8611 1449.05 20.9751 1444.72 21.0992ZM550.658 48.8085C546.751 48.946 543.828 48.9434 540.955 49.1806C538.24 49.4 535.449 49.9761 535.764 51.7457C536.229 54.3421 537.043 56.9276 538.047 59.4785C538.371 60.3207 539.669 61.7432 541.772 60.4852C544.096 59.1012 548.174 58.4822 548.138 55.8825C548.122 53.6718 547.738 51.2403 550.674 48.8084L550.658 48.8085ZM1290.36 51.5222C1298.25 52.762 1298.23 52.7539 1299.2 48.863C1299.28 48.5395 1299.96 48.0872 1300.53 48C1305.5 47.2335 1301.5 46.0882 1300.89 45.2648C1299.78 43.7745 1297.9 44.4513 1295.72 44.8571C1291.27 45.6943 1291.54 48.7641 1286.61 49.5304C1283.94 49.9399 1280.76 51.4629 1281.25 53.2808C1281.74 55.0573 1285.67 54.9032 1288.24 55.43C1289.44 55.6776 1290.68 55.9994 1292.23 55.3913C1291.71 54.3189 1291.15 53.1722 1290.34 51.5223L1290.36 51.5222ZM458.507 75.5857C459.07 72.2693 459.808 69.0593 460.101 65.8443C460.248 64.2368 461.909 61.3095 457.242 61.668C453.495 61.9533 450.386 64.5853 446.983 66.1762C452.557 68.063 447.054 69.3387 445.954 70.8624C445.184 71.9198 444.399 73.1844 446.406 73.8978C449.528 75.0001 449.45 73.1625 450.509 72.3926C453.084 70.5265 455.136 70.9 456.437 72.8525C457.032 73.7339 456.786 74.7708 458.523 75.5939L458.507 75.5857ZM74.6568 47.3794C76.5822 51.9768 74.5843 56.6207 76.5878 61.0519C77.2663 62.5371 74.2364 65.1602 79.4634 65.2694C84.9922 65.3846 84.4775 62.4573 85.1144 60.5811C85.7668 58.6468 84.496 56.5534 82.404 55.1037C78.9546 52.7039 77.0437 50.0108 74.6569 47.3876L74.6568 47.3794ZM1289.3 35.2431C1286.45 32.6068 1279.32 29.4981 1269.9 26.8789C1268.21 26.4115 1266.41 25.2246 1264.32 26.2922C1262.79 27.0822 1264.11 28.1071 1264.6 28.9977C1266.45 32.4116 1278.03 35.329 1289.3 35.2348L1289.3 35.2431ZM1209.63 80.0009C1208.07 76.6178 1193.83 70.4831 1189.32 70.6417C1188.82 70.6621 1188.16 70.692 1187.87 70.8598C1182.08 74.1249 1194.24 75.2245 1191.09 78.4944C1190.13 79.4871 1194.87 80.0058 1195.82 79.4272C1200.47 76.593 1204.48 78.4585 1209.64 80.0007L1209.63 80.0009ZM1170.23 77.3701C1165.8 79.9956 1161.48 81.6763 1159.26 84.2436C1157.26 86.5607 1160.69 87.0479 1163.37 87.8473C1166.88 88.8969 1168.23 87.7936 1168.85 86.257C1169.92 83.566 1170.86 80.8596 1171.71 78.1454C1172.18 76.668 1171.26 75.4329 1167.95 76.1206C1162.22 77.307 1157.41 79.1322 1154.24 83.1226C1160.45 81.0631 1161.22 76.9669 1170.23 77.3618L1170.23 77.3701ZM913.181 59.0355C913.241 54.4147 912.381 54.148 904.441 56.4774C902.396 57.0726 900.177 57.7022 898.739 58.6157C897.553 59.3617 895.849 60.8817 897.744 61.5214C901.614 62.8167 906.105 64.3888 910.347 64.3648C914.095 64.3445 912.294 61.4518 913.14 59.8556C913.281 59.5978 913.151 59.309 913.165 59.0357L913.181 59.0355ZM962.504 48.6817C964.79 48.4904 965.875 49.128 967.118 49.5822C972.995 51.7234 974.042 51.4587 975.124 47.625C975.434 46.5379 975.823 45.4668 976.085 44.3801C976.285 43.5754 975.678 43.108 973.978 43.063C966.685 42.8702 955.357 50.8891 957.625 54.6559C958.027 55.3152 958.478 56.0487 960.05 56.0367C962.179 56.0205 962.458 55.0827 962.499 54.2709C962.596 52.4154 962.503 50.5613 962.488 48.6736L962.504 48.6817ZM1273.48 59.2025C1262.63 65.1228 1262.33 66.8639 1270.38 70.8433C1273.68 72.4742 1275.7 72.2684 1277.06 69.9478C1279.27 66.1717 1275.59 63.0284 1273.48 59.2025Z" fill="#FD7702"/>
</svg>
