<svg width="1440" height="152" viewBox="0 0 1440 152" fill="none" xmlns="http://www.w3.org/2000/svg">
<path d="M1469.98 602.418C1470.88 522.87 1474.38 215.565 1475.29 136.018C1474.28 136.38 1473.27 136.774 1472.25 137.12C1463.12 140.198 1463.03 139.823 1463.3 130.085C1463.58 120.378 1462.89 110.678 1463.88 100.963C1464.21 97.7035 1462.93 94.9287 1458.99 92.6433C1458.88 102.497 1458.79 111.297 1458.68 120.095C1458.61 125.777 1458.55 131.459 1458.32 137.123C1458.04 143.826 1451.75 144.939 1447.9 144.814C1444.13 144.69 1446.36 139.423 1446.91 136.701C1449.92 122.139 1453.32 107.679 1456.61 93.1682C1457.46 89.4273 1458.18 85.7823 1463.22 85.2714C1467.18 84.8782 1465.78 80.2673 1464.89 80.0137C1458.11 78.053 1461.77 73.3212 1462.31 70.08C1463.57 62.3822 1464.91 54.4578 1474.32 48.9959C1463.79 49.0059 1460.59 54.5061 1459.08 61.0321C1458.16 65.0158 1456.96 68.834 1455.43 72.5671C1454.87 73.9246 1453.47 74.5419 1452.06 73.8114C1450.19 72.8322 1451.34 71.66 1452.01 70.4824C1453.15 68.5308 1456.01 67.4755 1454.88 62.884C1445.12 70.3877 1436.69 78.3287 1428.67 86.4205C1418.72 75.8998 1433.74 70.1607 1433.68 59.2655C1416.17 78.3874 1405.67 99.1315 1398.71 121.897L1399.04 93.1136C1401.77 91.5535 1402.38 96.2528 1405.33 94.1594C1405.33 89.8081 1401.89 87.2847 1399.05 84.752C1395.69 81.7587 1395.45 78.5087 1397.93 75.5007C1406.54 65.0127 1409.7 50.1437 1423.58 44.5053C1422.48 41.4079 1420.31 43.4614 1419.12 42.3438C1419.62 39.4919 1423.36 38.1544 1422.42 32.7856C1402.8 52.046 1391.9 75.1723 1381.76 100.191C1380.01 94.618 1380.86 89.9029 1376.35 86.653C1374.64 92.1376 1378.54 97.2965 1376.78 101.271C1374.64 106.117 1367.99 106.269 1363.61 109.109C1358.07 112.683 1358.63 103.97 1354.64 103.746C1352.87 105.951 1354.04 107.977 1354.88 109.87C1356.16 112.71 1355.17 114.403 1352.63 115.787C1349.36 117.584 1348.72 115.093 1347.21 113.095C1343.99 108.853 1343.12 103.81 1341.46 99.0014C1340.92 97.4365 1340.13 93.8718 1338.61 94.9911C1333.77 98.5891 1334.55 93.6946 1335.42 92.7303C1339.66 88.0538 1334.18 88.1862 1332.82 88.0084C1323.84 86.7696 1320.67 81.3106 1320.67 72.8839C1320.67 69.9451 1320.09 66.9673 1319.55 64.0549C1317.8 54.6828 1317.94 44.9101 1313.35 36.0578C1313.58 61.4053 1319.64 86.251 1319.89 111.599C1313.63 91.5405 1310.65 70.5292 1301.74 51.2852C1299.85 57.06 1303.6 62.0385 1303.51 67.769C1299.5 66.2296 1297.91 61.4704 1292.52 61.3442C1295.85 68.8021 1304.2 71.7709 1306.12 79.229C1303.42 81.8124 1299.87 78.4597 1296.52 82.4482C1311.03 82.6134 1308.78 94.1805 1311.3 102.603C1312.47 106.481 1313.32 110.469 1314.19 114.424C1314.58 116.182 1315.46 118.189 1312.5 119.47C1307.47 113.487 1308.75 104.831 1304.69 98.1606C1301.21 100.703 1306.07 106.457 1300.37 106.863C1297.05 107.101 1293.86 106.042 1292.18 102.727C1291.34 101.061 1290.64 99.2184 1290.37 97.3806C1289.9 94.193 1288.49 91.7577 1285.72 90.1837C1280.03 86.9366 1278.62 81.9197 1279.14 75.7234C1279.55 70.8409 1279.47 65.8391 1275.14 61.0488C1273.5 70.0414 1276.56 78.5028 1273.06 85.7694C1259.52 83.1149 1256.04 70.2161 1247.35 62.5022C1248.41 65.4044 1249.46 68.2902 1251.08 72.66C1244.62 69.1443 1239.59 66.1807 1234.36 63.6371C1229.45 61.2432 1225.28 57.0067 1218.82 55.894C1219.3 57.6693 1219.28 58.0425 1219.44 58.158C1225.11 61.762 1230.83 65.3017 1236.47 68.9541C1237.77 69.797 1240.03 71.5438 1239.85 71.8989C1236.4 79.0848 1242.52 76.8327 1245.2 77.2205C1255.96 78.7717 1258.91 81.4031 1261.69 92.4593C1257.47 97.8667 1251.52 85.0534 1247.52 94.019C1244.17 91.4317 1247.63 84.0025 1240.63 83.9065C1239.44 88.9912 1243.81 94.7561 1238.82 99.0994C1235.1 102.337 1230.6 105.192 1225.55 102.942C1220.14 100.527 1218.5 95.1824 1217.69 89.6203C1217.08 85.3757 1219.33 80.8064 1216.75 76.2795C1213.54 79.0519 1216.41 83.306 1212.23 86.0836C1211.93 79.8292 1206.24 78.3518 1203.5 74.2616C1202.69 73.0671 1199.58 72.2685 1200.24 74.2569C1201.16 77.0275 1194.77 78.27 1199.01 79.7145C1204.57 81.6125 1204.87 88.0942 1209.86 90.2293C1211.35 90.8633 1212.61 93.0208 1211.31 95.0842C1210.93 95.6969 1210.01 96.271 1209.32 96.3118C1206.29 96.4722 1207.09 94.4355 1206.92 92.469C1206.62 89.0884 1203.61 89.184 1201.34 89.629C1197.8 90.3194 1200.55 92.299 1200.77 93.8765C1201.51 98.9993 1202.37 105.974 1198.23 108.119C1193.69 110.471 1194.47 112.119 1196.66 115.586C1191.98 114.38 1191.4 110.347 1188.83 108.662C1182.81 104.68 1186.47 112.272 1184.14 112.878C1179.97 108.35 1177.02 96.0902 1180.34 93.9849C1186.11 90.3324 1183.65 88.7295 1179.81 86.2666C1177.26 84.6301 1177.2 81.7231 1177.24 78.9635C1177.34 73.5578 1177.59 68.1378 1177.53 62.7465C1177.39 51.006 1178.46 39.1495 1174.68 25.6628C1171.4 44.0537 1176.59 60.8363 1172.15 77.8987C1165.21 67.7857 1168.12 55.2356 1162.87 43.3233C1160.73 48.6083 1161.91 52.08 1162.13 55.3785C1162.5 61.098 1162.18 63.8058 1154.89 61.4335C1147.06 58.8764 1139.14 55.8475 1130.68 55.6213C1129.14 55.5713 1126.6 53.4478 1126.25 56.8535C1125.94 59.9674 1128.25 60.0586 1130.65 59.8748C1136.7 59.3755 1142.12 61.1095 1147.06 64.4131C1141.71 64.3359 1136.64 66.811 1131.22 63.9242C1126.83 61.5849 1122.65 66.4082 1123.97 71.4078C1125.33 76.5378 1126.71 81.6679 1127.85 86.844C1128.6 90.2298 1127.78 92.802 1123.56 92.754C1119.58 92.7087 1113.58 93.03 1113.64 88.7281C1113.69 84.3773 1112.08 81.0143 1111.3 77.2061C1110.7 74.3092 1110.66 70.5906 1107.22 69.9183C1102.48 69.0037 1107.11 75.5348 1103.26 75.8806C1102.98 75.7151 1102.74 75.5987 1102.54 75.434C1098.27 72.1381 1103.25 59.1246 1090.85 64.1953C1090.38 64.3848 1089.2 62.9913 1088.42 62.2679C1084.66 58.7343 1083.02 54.5105 1083.23 49.2197C1083.38 45.4872 1084.63 41.2636 1081.27 37.7833C1076.91 41.1434 1079.44 46.2217 1077.65 49.9681C1069.76 45.9166 1061.82 42.6276 1054.77 37.985C1048.69 33.9703 1049.86 37.4582 1047.94 41.4792C1046.65 44.1759 1051.34 49.5062 1045.65 49.1005C1036.94 48.498 1038.41 51.697 1041.58 56.8639C1043.35 59.7253 1044.46 62.9852 1046.57 67.6042C1040.34 62.6623 1036.58 57.6998 1033.34 52.2076C1029.23 45.2279 1025.09 38.264 1020.81 31.3961C1019.78 29.7445 1016.9 26.7892 1016.21 29.3466C1015.01 33.7655 1010.15 39.0519 1016.55 43.6872C1018.46 45.0728 1019.79 47.2799 1021.27 49.1964C1035.69 67.7887 1045.74 88.572 1051.92 111.26C1052.52 113.491 1052.93 115.704 1050.69 117.058C1048.65 118.285 1047.56 116.389 1045.98 115.332C1043.77 113.83 1041.07 110.324 1038.78 111.824C1034.44 114.665 1032.88 111.205 1030.71 109.378C1029.19 108.095 1028.93 105.51 1026.02 105.737C1021.03 106.118 1020.68 102.445 1020.16 98.7858C1019.86 96.6716 1020.96 93.8428 1017.37 92.292C1014.94 96.9404 1015.71 101.836 1015.8 106.497C1015.95 113.091 1013.12 114.374 1007.2 112.861C1002.24 111.587 1000.95 108.13 1000.56 103.921C999.925 97.1916 999.727 90.435 999.059 83.7055C998.189 74.928 998.566 65.9698 995.744 56.618C989.017 66.3969 981.673 54.9803 974.587 57.9683C976.561 60.7023 979.15 60.6668 981.39 61.3905C993.365 65.2774 994.288 66.5706 994.954 79.1126C995.419 88.0155 996.046 96.9039 996.753 105.793C996.923 107.938 998.125 110.371 994.644 110.64C991.94 110.853 988.996 110.819 987.901 107.576C987.4 106.093 987.002 104.14 987.551 102.798C991.395 93.3439 982.121 86.7275 984.089 75.7742C978.744 83.5068 979.301 82.8799 974.16 78.3564C964.871 70.1649 957.616 60.9412 954.26 48.8556C954.136 48.3834 953.151 48.1611 951.448 47.1513C957.147 72.3501 963.733 96.2925 965.034 122.659C961.726 116.257 961.377 109.969 955.856 106.172C954.217 113.719 960.174 119.032 960.24 126.014C954.704 124.944 954.639 120.673 953.594 117.252C949.366 103.581 945.3 89.8641 941.04 76.2095C939.916 72.5923 938.575 68.2257 934.981 67.0157C930.405 65.4699 929.846 61.9727 928.64 58.5169C924.363 46.2747 920.168 34.0009 915.907 21.7427C915.391 20.2593 914.913 18.1594 912.951 18.5917C911.021 19.0081 909.801 20.9913 910.183 22.9764C910.642 25.3197 911.537 27.6679 912.662 29.7752C919.551 42.7128 924.474 56.4237 928.894 70.3398C929.565 72.4744 931.465 74.623 928.996 76.9654C925.57 73.8415 922.372 70.6066 918.845 67.79C914.1 64.0016 909.447 60.6851 902.519 63.9022C897.201 66.3746 892.503 65.558 891.767 57.7399C891.379 53.514 889.143 49.5269 886.677 45.9106C885.77 44.6014 884.871 42.5454 883.167 43.0293C873.819 45.7155 864.787 44.8009 855.782 41.4836C853.253 40.5456 850.466 40.9522 847.82 41.7664C840.792 43.8945 832.634 44.3861 830.699 53.765C830.562 54.4453 830.812 55.2113 830.854 55.7963C833.72 56.9492 834.688 52.9499 837.235 53.7095C837.115 59.9267 834.107 65.5589 835.36 72.0352C842.607 67.7664 849.696 63.1548 860.496 63.6836C853.198 69.608 845.267 71.4336 841.099 78.0593C840.077 79.6875 837.081 81.4394 839.048 83.3777C841.08 85.3655 842.405 82.6204 844.023 81.1937C852.079 74.109 861.468 70.6439 872.291 71.9361C874.036 72.1508 875.478 73.3362 875.849 74.8991C877.502 81.7048 878.588 88.5689 877.81 95.8501C873.394 94.436 876.257 90.2147 873.263 88.8492C872.091 89.5503 871.045 90.4963 869.811 90.8882C861.45 93.5694 854.546 101.788 843.809 94.3427C837.951 90.2819 842.713 98.227 841.154 100.19C837.448 98.9464 834.05 97.5926 831.003 100.968C830.062 96.9627 831.915 93.2819 828.962 89.7899C824.153 95.9537 821.743 103.005 816.429 107.962C813.758 106.714 814.932 103.09 811.775 101.885C810.158 103.263 810.156 107.712 806.675 106.503C803.034 105.228 806.626 102.362 805.937 100.293C805.452 98.842 805.668 96.9448 803.537 96.5471C799.535 108.484 799.596 108.858 803.726 119.767C804.229 121.088 805.714 122.712 804.29 124.222C803.471 125.074 802.361 124.606 801.547 123.655C795.017 116.047 793.564 93.0888 799.37 84.6308C806.723 73.9498 814.139 63.3183 822.614 53.4619C824.057 51.7897 826.612 50.4225 825.171 46.282C812.825 57.9453 804.302 71.9739 794.942 85.652C791.168 80.4784 793.518 74.3516 788.601 70.0254C787.518 77.1246 789.696 83.303 790.191 89.5596C790.543 94.1098 789.4 97.9611 785.88 100.194C782.849 102.124 781.175 104.265 780.425 107.617C780.101 109.042 779.539 111.569 777.671 110.865C774.32 109.609 773.97 110.563 774.469 113.573C774.939 116.371 773.536 118.79 770.849 118.971C767.741 119.179 769.214 116.257 769.038 114.631C768.788 112.469 767.007 112.579 765.674 111.784C756.306 106.271 753.479 97.3735 757.749 87.4855C758.347 86.096 759.626 84.6168 757.832 83.0377C754.243 82.802 755.139 87.9266 751.965 88.2802C750.712 83.2813 751.794 77.6921 747.687 73.3265C745.893 75.9688 748.935 78.7636 746.149 80.5504C743.912 79.5183 745.868 75.3516 742.26 75.4079C740.136 78.6635 743.331 82.2069 741.676 85.5327C736.733 83.5281 735.133 77.6973 729.031 75.1112C731.876 82.4662 735.227 87.8623 732.971 95.695C729.214 108.771 730.327 109.092 724.062 113.73C731.393 103.552 730.153 93.1138 726.558 82.0809C724.636 76.1815 725.872 68.4346 729.107 64.2012C733.656 58.2618 729.944 57.5051 726.6 54.2685C725.397 59.0445 726.396 63.6021 722.647 67.5373C718.628 61.1269 717.331 52.8478 708.476 50.6038C712.501 57.956 721.081 61.6419 714.562 72.9494C711.031 79.079 707.158 86.7797 706.002 95.9401C703.551 92.4538 704.627 88.8453 701.963 87.0128C697.839 92.5674 705.484 98.8405 699.853 106.083C699.144 94.4819 698.593 84.6364 697.912 74.7894C697.075 63.041 688.878 55.5601 679.151 57.5114C676.313 58.0799 672.586 65.7497 674.661 66.78C687.947 73.4258 685.205 84.0781 682.326 95.4432C680.999 92.603 682.982 88.9724 678.201 86.9533C678.554 97.0889 680.908 107.702 666.617 112.67C671.423 106.798 671.496 101.831 669.352 96.8867C668.36 94.5861 667.976 91.3507 664.484 91.1161C659.991 90.8376 662.013 95.0821 660.68 97.0315C659.134 99.3195 659.925 102.267 660.121 104.965C660.332 107.76 660.261 111.136 656.91 111.325C653.543 111.531 653.049 108.034 652.837 105.336C652.133 96.1873 654.06 87.4416 658.775 79.7181C662.286 73.9454 661.452 69.065 658.665 63.8052C657.657 71.2787 655.397 77.9911 651.54 84.328C645.952 93.5029 645.465 93.6597 638.475 85.2671C636.161 82.4969 632.877 79.6344 629.691 81.0269C626.911 82.2454 625.041 85.9423 626.888 89.9412C627.993 92.3243 627.616 95.616 624.896 95.8123C622.29 95.9937 620.09 93.176 620.221 90.19C620.422 85.3376 621.156 80.5238 621.664 75.6911C621.973 72.7234 622.898 69.5841 618.901 66.8596C618.559 69.8919 618.131 71.9978 618.123 74.0922C618.139 81.2039 618.128 89.2732 614.171 94.4563C609.409 100.669 602.388 104.957 603.448 114.191C599.891 112.641 600.088 119.495 597.102 117.431C594.727 115.781 596.814 112.898 597.712 110.765C598.959 107.776 600.802 105.02 601.856 101.98C602.692 99.5862 605.462 96.4191 600.27 94.9799C597.109 94.0997 594.235 92.2485 593.35 97.5152C592.899 100.189 590.583 101.868 588.123 101.921C584.79 101.996 585.477 98.4647 584.416 96.488C582.832 93.5312 583.188 89.2651 579.116 87.4652C577.405 91.3587 581.304 94.1471 578.991 98.4396C571.404 88.514 561.999 80.581 560.741 67.4639C560.409 63.9856 559.834 60.4557 558.804 57.1156C558.134 54.9323 558.815 50.4913 554.79 51.6632C551.706 52.5535 553.611 55.79 554.232 58.0215C554.963 60.6601 555.758 63.2832 557.003 67.5837C547.828 59.8482 543.279 52.9988 543.358 47.0355C540.184 50.1817 536.525 50.4432 532.381 47.8198C533.8 53.9571 535.952 59.5669 536.243 65.2854C536.706 74.3506 541.685 84.6037 531.331 91.7922C532.227 94.0755 536.424 93.4251 536.049 96.5544C535.763 98.9379 532.271 95.862 531.443 98.9861C538.949 103.244 536.299 110.098 535.77 116.782C535.333 122.476 535.85 122.514 525.686 128.682C525.582 125.027 527.842 121.173 525.09 117.066C522.937 120.045 524.286 123.795 521.16 125.562C518.225 123.304 521.2 119.197 518.25 116.907C513.022 112.853 513.199 111.54 518.592 108.176C520.4 107.044 523.47 107.371 523.9 103.658C518.498 103.596 513.47 107.647 507.632 103.213C508.15 106.011 508.362 107.329 508.638 108.631C509.037 110.502 509.738 112.881 507.098 113.208C504.798 113.49 504.405 111.018 503.876 109.226C502.63 104.925 503.61 101.316 506.913 98.1873C508.417 96.7594 510.438 94.006 506.56 93.6371C499.257 92.9208 500.769 88.0184 500.981 83.6045C501.249 78.4769 501.825 73.369 502.045 68.257C502.486 57.9682 505.45 47.6431 501.539 37.3535C497.06 52.8407 500.157 69.2422 496.155 85.4492C493.731 80.9566 493.868 76.1035 491.101 73.2794C486.573 74.6079 493.632 79.754 486.733 80.4548C476.271 81.521 482.918 73.0725 480.097 69.371C478.098 71.6701 476.426 73.5831 474.475 75.8503C473.261 67.3773 465.191 70.0618 461.106 66.5895C460.513 66.0794 459.05 68.1572 459.527 68.8284C463.859 74.8039 456.075 83.694 464.348 88.7241C465.472 89.4188 465.548 91.2706 464.533 92.3793C462.535 94.5485 462.064 91.8154 460.94 91.1045C458.933 89.8152 456.326 87.1715 454.881 87.6908C446.24 90.7261 449.914 84.8741 450.259 81.6145C451.896 65.7053 451.158 49.5255 456.417 33.7224C451.787 34.0107 451.444 37.1566 450.609 39.4851C448.939 44.0935 448.496 48.9269 448.375 53.8451C448.122 64.6557 446.771 75.3563 444.983 86.0519C444.012 91.821 437.59 87.5102 436.087 91.6983C436.053 91.7953 434.501 90.3489 434.658 89.2791C435.778 81.888 434.218 75.3757 428.911 69.8437C428.143 69.0393 428.293 67.2713 428.179 65.9386C427.311 55.44 426.25 44.9393 425.69 34.428C424.613 14.0066 414.622 3.53407 394.371 1.95592C392.739 1.82368 391.031 1.2522 390.104 3.09259C389.078 5.14293 389.887 6.53223 391.814 7.75566C393.275 8.68153 397.134 9.34244 394.142 12.1497C387.912 18.0051 394.529 17.9181 397.268 18.8909C400.41 19.9983 404.068 19.7315 406.888 23.5629C400.945 25.5248 394.655 23.9107 387.919 28.7699C394.372 28.8433 398.769 29.1369 403.139 28.8944C413.741 28.2845 424.458 36.0701 422.914 48.0836C422.471 51.472 423.676 55.0577 423.798 58.5661C423.869 60.8076 425.255 64.168 422.108 64.8791C419.059 65.575 417.619 62.766 416.713 59.9792C415.087 55.0249 415.151 49.4403 411.548 44.7719C408.873 48.1511 410.943 50.9998 411.577 53.6048C412.721 58.2452 412.545 60.8897 406.662 60.4169C398.954 59.7933 396.418 65.1549 395.31 71.4907C394.584 75.6389 394.196 79.856 392.323 83.8288C387.039 80.4889 386.511 75.6932 387.35 70.1824C378.754 75.0691 379.126 83.5812 376.452 92.5457C372.296 79.6716 370.877 67.9003 366.055 56.6586C363.317 59.8747 365.034 62.4434 365.541 64.8683C367.795 75.6912 369.855 86.5768 372.694 97.2601C374.215 102.928 370.527 105.695 367.428 107.932C364.525 110.026 358.475 110.087 357.215 107.053C354.664 100.952 352.288 103.62 348.606 107.312C351.53 93.431 354.273 81.2525 354.318 68.7834C350.206 71.919 351.531 76.3503 350.259 80.0864C349.221 83.1595 349.296 83.6475 348.426 83.3616C342.785 81.56 342.092 85.5788 341.273 89.3688C340.657 92.2681 340.461 95.2696 339.765 98.1517C339.052 101.082 341.296 105.768 337.243 106.566C333.79 107.257 334.954 101.588 332.22 100.16C331.851 99.9612 331.283 100.117 330.846 100.112C328.792 102.881 333.282 107.803 328.009 109.172C323.239 110.401 321.688 106.032 319.341 103.245C317.426 100.982 315.74 98.4952 313.726 96.3291C310.402 92.7679 310.522 89.3597 313.187 85.4121C318.617 77.3557 323.903 69.1678 329.028 60.9131C330.906 57.8983 333.623 55.0879 333.607 50.8338C329.752 51.277 328.974 54.2069 327.608 56.3346C321.91 65.1997 316.341 74.1312 310.803 83.0956C308.512 86.8201 306.439 87.105 303.437 83.645C301.186 81.0378 299.023 77.7334 293.949 77.3184C295.708 81.9496 299.081 84.0013 301.411 86.8367C303.15 88.951 305.471 91.0719 303.175 93.8871C296.465 102.075 293.24 114.005 280.528 115.224C280.366 118.063 284.968 115.989 283.736 118.978C281.923 123.374 270.332 124.135 267.365 120.497C260.058 111.532 262.402 100.356 260.058 90.2627C259.118 86.1767 262.321 79.0529 256.34 78.6438C250.602 78.2538 250.986 85.7431 249.627 90.0627C245.046 104.542 240.9 119.173 236.593 133.736C236.44 122.986 237.901 112.628 239.377 102.286C240.52 94.3104 243.671 86.0333 242.496 78.4375C239.618 59.8466 242.068 43.5245 255.747 29.8468C256.402 29.1886 256.656 28.1361 257.451 26.5702C250.038 26.908 248.19 37.2457 240.391 34.5591C241.887 38.1157 242.625 41.485 240.689 45.3435C238.371 49.9769 237.487 55.2112 237.881 60.3464C238.616 69.7231 234.058 75.0942 226.076 78.4941C221.92 71.3191 222.329 62.4262 216.021 56.6392C214.996 55.702 213.553 53.2339 212.487 55.917C209.723 62.8185 203.934 59.7813 200.272 58.9278C195.206 57.7498 199.854 54.4256 200.464 52.0133C200.582 51.5601 200.494 50.7797 200.205 50.5653C191.35 44.0349 199.021 42.3363 203.247 39.1046C208.877 34.8011 218.919 33.6977 216.186 22.2362C209.035 26.636 205.451 35.9312 195.557 36.8414C198.131 28.168 200.745 20.242 205.885 13.465C210.04 7.97567 215.414 4.83829 222.557 5.43917C227.744 5.87166 230.52 9.31289 230.937 13.8476C231.484 19.8126 225.858 15.2835 223.878 17.2905C223.534 17.6276 223.399 18.1781 223.018 18.9206C226.574 20.6172 230.426 21.8625 233.57 24.1065C237.068 26.598 236.096 32.4482 240.471 34.6575C240.675 26.6553 238.626 19.0983 235.554 11.8544C230.607 0.189052 219.642 -2.85832 209.047 4.21378C204.663 7.13511 200.608 10.9532 199.21 15.7757C193.467 35.6973 179.98 48.1432 163.035 58.8774C155.54 63.6305 150.387 63.0198 144.822 58.7837C126.267 44.6416 105.771 41.8754 83.5711 46.656C61.2095 51.4672 42.1355 63.0376 23.5506 75.6853C15.0082 81.4981 15.2707 81.1763 9.90552 72.1852C5.1278 64.1588 11.9686 61.4765 15.9081 57.8682C20.8448 53.3457 21.7932 59.5426 24.1946 61.7456C24.6909 62.2058 25.5314 62.2641 28.1572 63.2195C18.7802 49.9775 29.672 45.2631 36.0528 38.9223C42.3683 32.6458 49.1634 26.8619 55.6707 20.7823C56.9786 19.5633 59.1793 18.0783 57.681 16.1292C55.9115 13.8359 53.7723 15.6138 52.0436 16.8443C50.9671 17.6277 50.0015 18.6071 49.1162 19.6361C42.0023 27.8519 33.1949 34.1975 25.3782 41.6259C20.7666 46.006 17.2639 46.7617 11.683 42.5092C1.80389 35.0092 -3.26999 35.9581 -12.0077 44.7074L-18.1674 585.786C-14.1421 586.01 -10.1185 586.397 -6.09117 586.443C481.847 592.014 969.802 597.568 1457.74 603.107C1461.77 603.153 1465.8 602.858 1469.83 602.725L1469.98 602.418ZM35.6646 75.8556C33.3857 79.9537 31.1868 84.1177 28.7792 88.1494C27.7405 89.8748 27.5124 92.8597 24.7495 92.5847C22.5682 92.3651 20.972 90.4797 20.1216 88.4567C19.0187 85.8788 21.0401 84.4893 22.7215 83.1608C42.5073 67.312 63.7325 54.3535 89.1795 49.9184C107.673 46.6868 125.185 48.7047 140.516 60.4882C143.643 62.8943 149.511 64.6172 147.964 69.8115C146.164 75.8309 139.617 75.4316 134.589 76.6571C133.599 76.9056 132.425 76.3564 131.388 76.4907C121.83 77.7458 112.149 78.3825 103.112 82.2088C111.35 84.6406 119.088 78.4127 128.547 81.6216C122.126 88.6275 114.936 92.1664 106.747 93.9403C100.228 95.3436 92.8278 97.4675 90.8965 103.713C88.3765 111.932 80.6137 114.62 76.8199 121.055C75.4343 123.41 72.8288 123.51 70.2965 122.864C63.264 121.08 56.2148 119.343 49.1825 117.542C47.2954 117.066 45.46 116.298 45.4544 113.944C45.4432 112.093 47.0215 111.283 48.2946 110.274C50.8741 108.193 54.9791 108.532 57.7651 103.936C49.2197 105.755 42.6583 109.463 35.3643 110.76C29.4481 111.813 27.3155 108.737 28.1749 104.298C29.2231 98.9029 29.4823 93.1906 32.6128 88.1768C34.7713 84.7105 36.9013 80.903 35.6644 75.8719L35.6646 75.8556ZM1427.67 105.698C1427.9 94.4 1436.77 81.9829 1445.33 78.898C1450.01 77.2139 1452.98 78.2381 1452.43 83.6873C1450.84 99.5159 1446.69 114.844 1442.84 130.225C1441.65 135.001 1437.79 135.152 1433.84 134.912C1429.22 134.633 1427.62 131.318 1428.18 127.672C1429.44 119.6 1428.83 111.702 1427.65 105.698L1427.67 105.698ZM323.59 140.734C318.794 135.727 317.544 134.658 314.913 136.998C312.102 139.499 307.598 141.526 307.195 145.743C306.662 151.355 302.184 153.885 298.886 156.576C296.502 158.529 294.797 153.428 292.764 151.586C289.545 148.676 286.259 146.024 282.152 144.468C280.139 143.714 277.675 142.712 278.547 139.994C280.509 133.928 281.752 127.009 288.097 123.85C297.549 119.152 307.625 116.506 318.301 116.449C322.055 116.427 323.851 117.746 323.808 121.529C323.725 127.422 323.674 133.315 323.589 140.75L323.59 140.734ZM217.848 85.1386C214.478 82.7622 211.002 84.0215 207.686 83.9838C204.937 83.9525 200.852 87.5104 199.928 81.9795C198.944 76.0908 195.644 68.9742 201.194 64.5886C204.899 61.6433 211.261 59.8647 215.945 64.7565C220.373 69.3856 223.644 86.1787 221.007 88.9738C220.647 89.3594 220.222 89.7929 219.751 89.9337C215.157 91.3102 210.873 93.9404 205.815 93.4607C204.28 93.3134 202.124 93.7272 201.775 91.6937C201.352 89.1073 203.829 88.9244 205.517 88.4241C209.493 87.2354 214.106 88.4569 217.864 85.155L217.848 85.1386ZM131.319 89.6739C120.7 110.222 105.909 123.481 82.9924 125.915C94.9817 108.614 112.448 99.0385 131.319 89.6739ZM254.471 89.4035C254.86 89.3267 255.265 89.2502 255.654 89.1734C257.07 99.8081 258.631 110.428 259.853 121.077C260.823 129.612 258.013 133.444 249.819 135.722C243.1 137.593 240.393 135.241 242.329 128.622C246.167 115.482 250.391 102.46 254.455 89.3871L254.471 89.4035ZM542.155 60.287C549.589 68.0838 553.539 76.3119 558.077 84.0272C559.839 87.0022 561.988 91.4917 556.676 93.4932C550.941 95.6686 541.886 92.4644 541.643 88.2564C541.16 79.5157 540.549 70.6924 542.139 60.2868L542.155 60.287ZM215.993 148.585C213.688 147.893 213.158 147.546 212.672 147.606C206.76 148.285 204.765 144.545 204.9 139.773C205.099 133.621 209.949 136.729 212.894 136.649C215.823 136.569 218.777 137.105 221.683 137.609C224.25 138.045 226.356 139.205 225.996 142.383C225.456 147.216 225.155 152.294 220.768 155.41C218.469 157.056 216.457 161.872 213.048 158.618C209.816 155.545 209.685 151.355 215.993 148.585ZM222.513 97.4014C225.862 107.311 217.857 126.98 210.236 130.027C207.879 130.974 205.683 130.657 204.771 128.325C202.808 123.22 200.72 117.579 207.342 114.277C214.158 110.864 218.844 105.656 222.497 97.4012L222.513 97.4014ZM964.421 79.8853C964.047 78.5984 963.467 77.0494 964.722 76.1544C966.402 74.9396 967.728 76.3835 968.881 77.4195C975.863 83.6688 975.303 93.0308 978.32 100.907C979.325 103.549 981.333 107.615 976.129 108.578C971.899 109.358 969.57 106.49 968.771 102.779C967.126 95.1783 965.855 87.5165 964.421 79.8691L964.421 79.8853ZM178.528 99.0276C180.144 87.7942 183.436 78.4634 186.407 69.0476C186.91 67.4459 188.057 66.1601 189.917 66.23C191.954 66.3019 192.486 67.8666 192.645 69.5732C193.121 74.6606 193.613 79.7482 194.008 84.8347C194.177 87.061 193.818 90.1418 191.569 90.1974C185.808 90.3754 184.016 95.7617 178.528 99.0276ZM299.727 113.981C297.206 113.725 293.726 113.913 295.936 110.187C298.789 105.397 302.462 101.088 305.925 96.6786C307.337 94.8762 309.343 94.8991 310.73 96.6684C313.647 100.403 318.312 104.126 317.84 108.667C317.441 112.462 311.536 111.095 308.158 112.275C305.43 113.218 302.434 113.46 299.727 113.981ZM162.255 131.64C157.273 127.394 152.693 126.157 148.533 132.019C148.254 132.406 147.292 137.298 145.12 133.442C143.725 130.991 138.89 129.377 140.7 126.735C144.253 121.531 149.059 117.072 155.454 115.196C156.59 114.868 158.176 114.854 158.771 116.565C160.385 121.179 164.107 125.296 162.255 131.64ZM0.324614 41.3407C5.28962 41.4297 14.8002 47.2045 13.6836 50.0819C11.934 54.5756 8.14329 57.8934 3.80119 59.9222C1.67066 60.9209 -6.56992 50.1598 -6.45111 46.8327C-6.30879 42.8564 -4.08896 41.1119 0.324614 41.3407ZM910.409 92.6655C914.385 92.9218 917.362 92.907 920.285 93.3624C923.046 93.7835 925.88 94.9036 925.533 98.3743C925.022 103.467 924.156 108.539 923.096 113.544C922.754 115.196 921.412 117.99 919.288 115.53C916.941 112.824 912.797 111.624 912.872 106.527C912.921 102.192 913.347 97.4237 910.393 92.6653L910.409 92.6655ZM157.078 100.472C149.026 102.929 149.043 102.913 148.11 95.288C148.037 94.6539 147.351 93.7693 146.771 93.6004C141.725 92.1141 145.81 89.8551 146.444 88.2387C147.593 85.313 149.503 86.6336 151.71 87.4218C156.237 89.0483 155.91 95.0683 160.924 96.5542C163.632 97.3481 166.85 100.324 166.324 103.89C165.799 107.374 161.807 107.085 159.174 108.127C157.955 108.616 156.687 109.251 155.115 108.065C155.656 105.96 156.248 103.71 157.094 100.472L157.078 100.472ZM1003.86 144.858C1003.34 138.357 1002.63 132.066 1002.38 125.763C1002.26 122.612 1000.61 116.878 1005.35 117.565C1009.17 118.112 1012.29 123.262 1015.74 126.37C1010.03 130.088 1015.62 132.571 1016.72 135.554C1017.48 137.625 1018.27 140.102 1016.21 141.507C1013.02 143.679 1013.12 140.076 1012.05 138.57C1009.46 134.92 1007.36 135.659 1006.01 139.492C1005.39 141.222 1005.63 143.254 1003.85 144.874L1003.86 144.858ZM1395.18 88.2637C1393.15 97.2842 1395.12 106.383 1393.01 115.078C1392.3 117.992 1395.35 123.125 1390.02 123.357C1384.39 123.601 1384.96 117.86 1384.34 114.183C1383.7 110.393 1385.02 106.284 1387.18 103.435C1390.72 98.7179 1392.71 93.4312 1395.18 88.2799L1395.18 88.2637ZM158.395 68.5501C161.334 63.3717 168.634 57.2525 178.269 52.0854C179.994 51.1633 181.849 48.8302 183.96 50.9162C185.512 52.4601 184.146 54.4741 183.641 56.2219C181.705 62.9217 169.863 68.6807 158.396 68.5339L158.395 68.5501ZM238.879 156.039C240.507 149.4 255.106 137.324 259.697 137.62C260.198 137.658 260.877 137.715 261.164 138.043C267.012 144.425 254.612 146.622 257.774 153.023C258.739 154.966 253.907 155.999 252.949 154.867C248.256 149.326 244.138 152.997 238.862 156.038L238.879 156.039ZM279.04 150.748C283.511 155.881 287.889 159.162 290.113 164.188C292.116 168.725 288.611 169.691 285.875 171.268C282.276 173.337 280.926 171.179 280.313 168.168C279.257 162.895 278.347 157.592 277.518 152.273C277.065 149.378 278.015 146.953 281.381 148.291C287.194 150.597 292.071 154.16 295.234 161.973C288.938 157.956 288.221 149.927 279.04 150.732L279.04 150.748ZM541.076 113.936C541.082 104.876 541.961 104.35 550.014 108.891C552.087 110.051 554.338 111.278 555.79 113.064C556.986 114.523 558.699 117.497 556.76 118.758C552.8 121.311 548.203 124.408 543.885 124.375C540.067 124.348 541.944 118.67 541.106 115.544C540.966 115.039 541.102 114.472 541.092 113.936L541.076 113.936ZM490.997 93.8009C488.672 93.4335 487.558 94.6872 486.286 95.582C480.269 99.7999 479.207 99.2845 478.16 91.7714C477.861 89.641 477.48 87.5422 477.23 85.4124C477.037 83.8352 477.662 82.9169 479.394 82.823C486.824 82.4204 498.243 98.1049 495.878 105.498C495.459 106.792 494.99 108.232 493.389 108.214C491.221 108.189 490.951 106.351 490.921 104.76C490.849 101.122 490.971 97.4863 491.013 93.7849L490.997 93.8009ZM174.151 115.474C185.116 127.045 185.4 130.458 177.142 138.288C173.757 141.496 171.707 141.1 170.352 136.554C168.155 129.158 171.946 122.983 174.151 115.474Z" fill="#FD7702"/>
</svg>
