<svg width="40" height="40" viewBox="0 0 40 40" fill="none" xmlns="http://www.w3.org/2000/svg">
<path d="M17.1503 6.43319L3.03361 29.9999C2.74256 30.5039 2.58856 31.0754 2.58693 31.6574C2.5853 32.2394 2.7361 32.8117 3.02432 33.3174C3.31255 33.8231 3.72815 34.2444 4.22979 34.5396C4.73143 34.8348 5.30161 34.9935 5.88361 34.9999H34.1169C34.6989 34.9935 35.2691 34.8348 35.7708 34.5396C36.2724 34.2444 36.688 33.8231 36.9762 33.3174C37.2645 32.8117 37.4153 32.2394 37.4136 31.6574C37.412 31.0754 37.258 30.5039 36.9669 29.9999L22.8503 6.43319C22.5532 5.94336 22.1348 5.53839 21.6356 5.25733C21.1364 4.97627 20.5732 4.82861 20.0003 4.82861C19.4274 4.82861 18.8642 4.97627 18.365 5.25733C17.8657 5.53839 17.4474 5.94336 17.1503 6.43319Z" fill="#F8BF3B" stroke="black" stroke-width="2" stroke-linecap="round" stroke-linejoin="round"/>
<path d="M20 15V21.6667" stroke="black" stroke-width="2" stroke-linecap="round" stroke-linejoin="round"/>
<path d="M20 28.3335H20.0179" stroke="black" stroke-width="2" stroke-linecap="round" stroke-linejoin="round"/>
</svg>
