<svg width="103" height="95" viewBox="0 0 103 95" fill="none" xmlns="http://www.w3.org/2000/svg">
<path d="M56.0837 66.1997C56.1716 66.8299 62.6877 63.3747 63.1921 62.9847C69.3732 58.2098 71.0089 50.1097 69.1988 42.7542C68.2835 39.0347 66.5451 35.5583 64.3444 32.4422C62.1488 29.3331 59.0033 27.3006 56.6261 24.3724C54.55 21.8144 53.3027 18.6961 52.087 15.6301C49.6542 16.2179 48.3133 18.2857 47.1849 20.5286C46.0564 22.7716 45.3177 25.2308 43.8628 27.2752C41.1177 31.1338 36.2092 32.9932 33.4796 36.8624C31.3352 39.9022 30.8118 43.8916 31.4731 47.5573C32.1344 51.2231 33.8834 54.6084 35.9496 57.7026C37.5734 60.1342 39.501 62.5029 42.135 63.759C43.656 64.4845 45.3332 64.7996 46.9886 65.1076C48.9873 65.4799 51.0887 65.8465 53.0185 65.203C53.0121 66.1129 53.4349 67.0998 54.275 67.4403C55.115 67.7815 56.2096 67.1005 56.0837 66.1997Z" fill="#1D1D1B"/>
<path d="M34.4055 1.15217C34.4055 1.15217 17.5505 -2.16741 10.4921 9.94604C3.43297 22.0595 7.93129 37.1951 2.8202 50.056C-2.29158 62.9169 0.989641 69.0312 10.4921 67.4113C19.9946 65.7914 29.1959 41.5801 29.1959 41.5801L34.4055 1.15217Z" fill="#1D1D1B"/>
<path d="M91.2167 65.9703C91.2167 65.9703 78.1769 94.2762 71.2458 94.9551C68.901 95.184 65.4171 94.5121 61.8376 93.5083C58.1842 92.4973 54.4288 91.1537 51.6647 90.0983L45.8874 79.0049L44.5204 70.5982L41.1689 49.9389L40.8818 48.16C40.8818 48.16 50.4448 44.2484 56.4057 52.6036C61.7567 60.1025 65.1013 74.3332 65.726 77.1675C65.7992 77.4924 65.8364 77.6697 65.8364 77.6697L84.6972 58.7306L91.2167 65.9703Z" fill="#CE926A"/>
<path d="M65.726 77.1668C64.7481 79.2995 61.889 86.1789 61.8376 93.5083C58.1842 92.4974 54.4288 91.1537 51.6647 90.0983L45.8874 79.0049L45.2331 77.7503L44.5204 70.5982L42.8081 53.3567L41.1689 49.9396L40.8818 48.1607C40.8818 48.1607 50.4448 44.2491 56.4057 52.6043C61.7567 60.1025 65.1013 74.3325 65.726 77.1668Z" fill="#D64727"/>
<path d="M23.8209 48.16C23.8209 48.16 14.3909 43.0714 8.61573 50.0553C2.84053 57.0393 -1.31095 81.5057 4.10406 93.1041H59.3312C59.3312 93.1041 55.8572 49.3941 39.8394 48.7767L23.8209 48.16Z" fill="#D64727"/>
<path d="M49.0225 13.3491C49.0225 13.3491 51.5242 9.32091 54.7161 11.768C57.9079 14.2152 55.924 23.4838 52.7321 22.7907C49.5403 22.0977 49.0225 13.3491 49.0225 13.3491Z" fill="#C15E4D"/>
<path d="M54.9975 34.1286C53.5419 39.6198 48.5068 43.6204 42.9869 46.0563C41.105 46.8906 39.1647 47.5398 37.2976 48.0124C36.0404 48.3225 34.8134 48.5585 33.6519 48.7061C32.0493 48.9124 30.2047 48.6616 28.3009 48.0046C20.7451 45.4141 12.2846 36.4464 14.5119 23.8618C14.5119 23.847 14.5267 23.8173 14.5267 23.8024C16.0111 15.477 19.1355 10.4139 22.9725 7.08508C26.4275 4.08127 30.4622 2.47197 34.4096 1.15092C34.4096 1.15092 42.3481 -0.244314 47.405 6.86396C48.2429 8.03737 49.0738 9.32946 49.8674 10.724C53.8584 17.6987 56.8864 26.9242 54.9975 34.1286Z" fill="#CE926A"/>
<path d="M43.2813 51.385C43.2813 51.385 38.8196 53.481 34.7328 53.3482C32.8734 53.2888 31.0872 52.7724 29.8377 51.385C28.7719 50.2038 28.3526 49.053 28.3012 48.0046C28.1837 45.5914 30.0432 43.6939 30.6679 43.1407C30.7931 43.0227 30.8663 42.9634 30.8663 42.9634H42.8107L42.9872 46.0562L43.2813 51.385Z" fill="#CE926A"/>
<path d="M36.6006 20.4597C36.8391 21.609 36.5577 22.6397 35.9731 22.762C35.3885 22.8842 34.7208 22.052 34.4823 20.9026C34.2438 19.7532 34.5252 18.7225 35.1099 18.6003C35.6952 18.4781 36.3621 19.3103 36.6006 20.4597Z" fill="#1D1D1B"/>
<path d="M42.8067 18.8098C43.3801 20.4848 44.3959 21.8935 45.7636 22.8246C46.0886 23.0647 46.4924 23.2477 46.8787 23.5684C47.2684 23.8892 47.5519 24.3879 47.6188 24.8718C47.7883 25.8672 47.3782 26.7475 46.949 27.5034C47.1045 26.6309 47.2994 25.7535 47.0602 25.0025C46.9385 24.6295 46.752 24.3286 46.4432 24.1138C46.1442 23.8828 45.7425 23.7012 45.3513 23.4356C43.8247 22.3915 42.7983 20.6063 42.8067 18.8098Z" fill="#C15E4D"/>
<path d="M43.2842 26.9104C43.7513 26.7995 44.1284 26.8949 44.4837 27.039C44.8298 27.2043 45.1541 27.4191 45.387 27.8423C44.9192 27.9546 44.5421 27.8592 44.1875 27.7137C43.8421 27.547 43.5177 27.3322 43.2842 26.9104Z" fill="#C15E4D"/>
<path d="M33.5518 22.8281C33.5518 22.8281 36.4088 21.2287 38.1844 23.1573L33.5518 22.8281Z" fill="#C15E4D"/>
<path d="M48.46 18.367C48.6985 19.5164 48.4171 20.5471 47.8325 20.6693C47.2479 20.7915 46.5802 19.9593 46.3417 18.81C46.1032 17.6606 46.3846 16.6299 46.9693 16.5076C47.5539 16.3847 48.2215 17.2176 48.46 18.367Z" fill="#1D1D1B"/>
<path d="M46.6846 21.6739C46.6846 21.6739 47.92 18.9604 50.0819 19.7354L46.6846 21.6739Z" fill="#C15E4D"/>
<path d="M36.1931 26.5223C36.1931 27.9875 35.0104 29.1757 33.5506 29.1757C32.0915 29.1757 30.9082 27.9882 30.9082 26.5223C30.9082 25.0564 32.0908 23.8689 33.5506 23.8689C35.0104 23.8696 36.1931 25.0571 36.1931 26.5223Z" fill="#C15E4D"/>
<path d="M54.3073 24.7235C54.3073 26.1887 53.1247 27.3769 51.6649 27.3769C50.2058 27.3769 49.0225 26.1887 49.0225 24.7235C49.0225 23.2583 50.2051 22.0701 51.6649 22.0701C53.124 22.0701 54.3073 23.2576 54.3073 24.7235Z" fill="#C15E4D"/>
<path d="M32.2579 18.81C32.1425 18.3642 32.1798 17.893 32.305 17.4473C32.4281 16.998 32.6708 16.5769 32.993 16.223C33.3223 15.8782 33.731 15.5964 34.1841 15.4671C34.6266 15.3117 35.1008 15.3039 35.5419 15.3915C35.1353 15.6091 34.7561 15.7666 34.4219 15.9913C34.0828 16.1983 33.7859 16.4441 33.5291 16.7274C32.9966 17.2834 32.63 17.9898 32.2579 18.81Z" fill="#1D1D1B"/>
<path d="M46.0684 14.6941C46.2921 14.2214 46.6628 13.8315 47.1032 13.532C47.5436 13.2296 48.0882 13.0459 48.6503 13.0332C49.2075 13.0367 49.7801 13.1865 50.2121 13.5157C50.4506 13.6457 50.6166 13.8668 50.8066 14.042C50.9684 14.2483 51.1112 14.468 51.2322 14.6933C50.9923 14.5796 50.7904 14.439 50.5779 14.3225C50.3535 14.2278 50.1614 14.0865 49.9398 14.0222C49.5212 13.8357 49.0872 13.7665 48.6629 13.77C47.7997 13.7721 46.9492 14.1798 46.0684 14.6941Z" fill="#1D1D1B"/>
<path d="M48.1699 31.5154C48.1699 32.5637 47.5818 33.5598 46.7587 34.202C46.2957 34.5637 45.7737 34.8222 45.2151 34.9989C44.7811 35.1465 44.3181 35.2496 43.8623 35.309C41.8628 35.5824 39.7242 35.1543 38.1293 33.9067C38.0266 33.8254 37.9309 33.7442 37.8352 33.663C36.4162 32.3935 35.6008 30.4225 35.9462 28.5483C36.0714 27.8913 36.3507 27.2272 36.9016 26.8507C37.4602 26.4671 38.2024 26.4523 38.8567 26.6296C40.1427 26.6296 40.7604 28.1866 41.5913 28.8513C42.4953 29.5818 43.877 29.1763 44.9358 29.0732C45.4578 29.0216 45.9869 28.9771 46.4941 29.1177C47.4938 29.4045 48.1699 30.467 48.1699 31.5154Z" fill="#1D1D1B"/>
<path d="M45.2139 34.9989C44.7798 35.1466 44.3169 35.2497 43.861 35.3091C41.8616 35.5825 39.7229 35.1544 38.1281 33.9068C38.0253 33.8255 37.9297 33.7443 37.834 33.663C39.3852 33.117 42.7664 32.1943 45.2139 34.9989Z" fill="#F9704B"/>
<path d="M37.8344 45.4875C37.8344 45.4875 37.7239 46.5281 37.2976 48.0116C36.8565 49.5467 36.0776 51.5615 34.7325 53.3481C32.8731 53.2888 31.0869 52.7724 29.8374 51.3849C28.7716 50.2037 28.3523 49.0529 28.3009 48.0045C20.7451 45.414 12.2846 36.4464 14.5119 23.8617C14.5119 23.8469 14.5267 23.8172 14.5267 23.8024C16.0111 15.4769 19.1355 10.4138 22.9725 7.08499L34.8577 3.97803C34.8577 3.97803 36.1951 21.161 23.0534 25.5593C23.0534 25.5593 22.1346 37.7745 30.6683 43.1406C32.5572 44.3282 34.9091 45.1773 37.8344 45.4875Z" fill="#C15E4D"/>
<path d="M49.8652 10.7211C41.5179 13.8083 34.8612 3.97521 34.8612 3.97521C34.7212 24.0016 19.0489 24.1061 13.9512 23.6399C13.9512 23.6222 14.5231 23.8172 14.5231 23.7995C17.352 7.99419 23.4283 3.61846 31.7664 0.830113C31.7664 0.830113 42.8068 -0.549576 47.4036 6.85964C48.1669 8.09098 49.0766 9.3315 49.8652 10.7211Z" fill="#1D1D1B"/>
<path d="M20.5827 26.287C20.5827 26.287 16.7626 21.2839 12.196 25.0359C7.62877 28.7878 12.8602 38.0437 20.5827 35.1254L23.3623 31.957L20.5827 26.287Z" fill="#C15E4D"/>
<path d="M12.8604 27.8427C14.4046 26.9187 16.4912 26.9116 18.1522 27.7763C18.9662 28.2334 19.6901 28.8381 20.2424 29.5692C20.5344 29.9203 20.7419 30.3315 20.9818 30.7109C21.1704 31.1227 21.3462 31.5374 21.4961 31.957C21.2013 31.613 20.9459 31.2555 20.6807 30.9108C20.3796 30.5929 20.1207 30.2453 19.8119 29.95C19.2103 29.3418 18.5406 28.8296 17.8131 28.4311C16.34 27.6604 14.6009 27.4845 12.8604 27.8427Z" fill="#1D1D1B"/>
<path d="M14.5205 30.9559C14.7076 30.4705 15.1213 30.1025 15.5596 29.8333C16.0042 29.5585 16.5072 29.4066 17.0089 29.3134C17.5147 29.2251 18.0247 29.2258 18.5249 29.2795C19.0237 29.3445 19.512 29.4702 19.9714 29.6857C19.4684 29.7747 18.99 29.8114 18.5172 29.8552C18.0473 29.9195 17.5829 29.9485 17.1334 30.0403C16.6803 30.1109 16.2364 30.2134 15.8009 30.354C15.3689 30.5044 14.9391 30.674 14.5205 30.9559Z" fill="#1D1D1B"/>
<path d="M35.3358 51.2896C35.4357 50.6948 35.5511 50.1063 35.7044 49.5235C36.04 48.2505 36.5761 44.9839 33.9899 42.9628C30.7235 40.4104 27.2017 38.9247 26.6586 35.6849C26.1154 32.4452 25.9649 31.9563 24.8927 31.9563C23.8205 31.9563 22.448 34.491 22.8553 36.9459C22.8553 36.9459 23.2598 33.7238 21.4954 33.1523C19.731 32.5808 19.9709 37.586 19.9709 37.586C19.9709 37.586 19.5755 33.7436 17.4122 34.2007C15.2488 34.6585 17.8294 43.4926 22.7195 46.9026C22.7195 46.9026 9.54328 79.9113 9.67976 85.0938C9.81554 90.277 12.6683 95.4603 19.0521 94.9149C25.4365 94.3695 27.7455 86.049 30.0544 77.7284C32.0131 70.6738 34.5964 55.683 35.3358 51.2896Z" fill="#CE926A"/>
<path d="M24.8066 33.0693C25.1964 33.3371 25.513 33.7051 25.7852 34.0958C26.0561 34.4893 26.2868 34.9146 26.4662 35.3618C26.6442 35.8096 26.7723 36.2745 26.8757 36.745C26.977 37.2162 27.0368 37.6944 27.0811 38.1741L26.863 37.9036C28.0189 38.1621 29.2121 38.4178 30.3525 38.8714C31.4943 39.3108 32.5869 39.9537 33.4853 40.8177C34.3907 41.6774 35.0506 42.7681 35.4713 43.9168C35.9075 45.0648 36.0749 46.2849 36.1073 47.4837C35.8808 46.3025 35.5586 45.151 35.071 44.0843C34.5764 43.0225 33.8898 42.0681 33.0385 41.2995C32.1887 40.5238 31.1714 39.9579 30.0971 39.5178C29.0172 39.0819 27.8768 38.7908 26.7188 38.4687L26.5035 38.4087L26.5 38.1974C26.4923 37.7397 26.4698 37.2805 26.4079 36.8262C26.3431 36.3727 26.2552 35.9213 26.1187 35.4833C25.9829 35.046 25.8288 34.6101 25.6122 34.2011C25.3927 33.797 25.1394 33.4014 24.8066 33.0693Z" fill="#C46F4D"/>
<path d="M22.8341 35.2512C22.9051 36.6246 23.0683 37.9357 23.5425 39.1226C23.7606 39.7245 24.1124 40.255 24.5127 40.7502C24.9087 41.2638 25.4441 41.6389 25.9908 42.0706C25.3295 41.9102 24.647 41.6354 24.1236 41.1388C23.5868 40.6669 23.1485 40.0593 22.891 39.3868C22.6329 38.7156 22.4964 38.0064 22.4915 37.3027C22.4858 36.6019 22.5787 35.899 22.8341 35.2512Z" fill="#C46F4D"/>
<path d="M19.9329 37.3081C19.9856 38.6504 20.2157 39.9107 20.7651 41.0367C21.0325 41.5984 21.3596 42.1374 21.7691 42.6227C22.1602 43.1285 22.6379 43.5609 23.117 44.0455C22.4874 43.8131 21.876 43.4782 21.3723 43.0035C20.8418 42.5549 20.4394 41.9643 20.1291 41.3391C19.8302 40.7054 19.6508 40.0159 19.6198 39.3236C19.5818 38.6355 19.6691 37.9361 19.9329 37.3081Z" fill="#C46F4D"/>
<path d="M49.8652 66.8723C49.8652 66.8723 51.2821 88.1873 59.3311 93.1048L49.8652 66.8723Z" fill="#B5351F"/>
<path d="M84.0166 59.5946C84.0166 59.5946 88.8899 50.4009 90.6396 50.1649C92.3892 49.929 90.1204 56.53 90.1204 56.53C90.1204 56.53 96.6329 47.669 100.371 50.6368C106.357 55.3877 96.6624 64.5941 90.7936 66.8724C84.9241 69.1514 84.0166 59.5946 84.0166 59.5946Z" fill="#CE926A"/>
<path d="M100.429 50.7322C99.8343 52.0214 99.059 53.1765 98.2422 54.299C97.4064 55.4082 96.527 56.4848 95.4668 57.4258C96.0599 56.1351 96.8351 54.9807 97.6533 53.8589C98.4898 52.7505 99.3692 51.6739 100.429 50.7322Z" fill="#C15E4D"/>
<path d="M89.5439 57.4259C90.1567 57.3199 90.7892 57.3884 91.3949 57.5622C92.0028 57.7353 92.5839 58.0532 93.0672 58.5011C93.3092 58.7272 93.5034 58.997 93.6842 59.2747C93.8193 59.577 93.9839 59.8681 94.0282 60.1952C94.1935 60.8281 94.1112 61.4809 93.9403 62.0687C93.8059 61.4576 93.7215 60.8818 93.4816 60.3704C93.2677 59.8575 92.968 59.3983 92.5614 59.0359C91.7713 58.2821 90.6991 57.8264 89.5439 57.4259Z" fill="#C15E4D"/>
<path d="M97.0303 59.7472C97.7014 58.7094 98.5274 57.8355 99.3892 57.0005C100.267 56.1824 101.182 55.4032 102.252 54.79C101.582 55.8285 100.757 56.7024 99.8936 57.5367C99.0149 58.3541 98.0996 59.1326 97.0303 59.7472Z" fill="#C15E4D"/>
</svg>
