<svg width="170" height="196" viewBox="0 0 170 196" fill="none" xmlns="http://www.w3.org/2000/svg">
<path d="M5.43377 73.6512C11.433 76.928 17.9022 78.6357 24.6179 79.5186C25.3949 79.024 26.5322 79.2742 27.0869 78.3124C26.8143 78.2242 26.5369 78.1329 26.2603 78.0456L26.141 78.1939C26.141 78.1939 26.1242 77.9931 26.1281 77.9922C23.395 77.7132 21.1312 76.0616 18.5379 75.3247C13.8431 73.9934 9.56168 71.7159 5.40266 69.1765C3.54637 68.0418 2.02223 66.585 0.76999 64.8322C-1.97695 60.9893 -2.34453 56.4911 -0.196435 53.5328C1.95166 50.5745 5.86139 49.6246 10.4354 50.9165C13.6641 51.826 16.3981 53.6335 19.2271 55.9123C19.237 54.5943 19.2155 53.5383 19.2607 52.4838C19.4201 48.6632 19.7698 44.8786 21.8274 41.5233C24.1657 37.7113 29.0895 36.6888 31.8039 38.2836C33.5864 39.3307 35.1267 40.55 36.2313 42.2905C39.0732 46.7675 39.9455 51.773 39.8724 56.9522C39.8298 59.7604 39.3847 62.5643 39.1219 65.3684L39.2873 65.4769C39.2873 65.4769 39.1051 65.5853 39.1042 65.5813C38.9785 66.8087 38.8527 68.0361 38.7279 69.2675C39.2269 69.7135 39.6983 70.22 40.468 69.9108C40.7479 68.3976 41.5083 66.9587 41.1574 65.347C40.9449 64.9235 41.1039 64.6951 41.5316 64.6101C43.0575 61.6642 42.9872 58.4515 42.9289 55.2737C42.814 49.3605 41.7303 43.7182 38.0093 38.8527C32.8668 32.1269 24.1051 32.4539 19.6524 39.5173C17.6764 42.6493 17.0273 46.0469 17.1349 49.6771C17.1533 50.3203 17.5534 51.077 16.4393 51.5817C14.5253 50.2304 12.4922 48.8102 10.1034 48.0809C2.1523 45.646 -6.6644 50.814 -4.71109 61.3955C-4.4264 62.9345 -3.76974 64.3261 -2.96507 65.6588C-0.889325 69.0992 1.93582 71.7422 5.43377 73.6512Z" fill="#FF8B13"/>
<path d="M28.8316 97.3066C21.9093 106.167 20.8629 115.653 25.1902 125.948C25.5208 126.062 25.8493 126.183 26.1799 126.297C24.5957 118.303 24.785 110.559 28.6507 103.131C31.0823 98.4524 38.065 93.1711 44.0543 94.8264C46.9713 95.632 49.478 97.1376 51.6399 99.1994C58.339 105.595 61.6809 113.764 63.5474 122.608C65.3922 131.351 65.8687 140.222 65.6625 149.129L65.8268 149.205C65.8268 149.205 65.6895 149.335 65.6879 149.331C65.679 150.107 65.6681 150.887 65.6625 151.67C66.1164 152.357 66.3286 153.299 67.4048 153.319C67.8604 149.704 68.7819 146.181 68.9029 142.493C69.2245 132.68 67.9517 123.093 64.7115 113.833C62.2584 106.82 58.5992 100.455 52.9254 95.4713C44.7947 88.3224 34.2418 90.3835 28.8316 97.3066Z" fill="#FF8B13"/>
<path d="M19.0319 164.744C10.1272 161.44 2.60211 156.34 -1.12903 147.053C-4.01979 139.86 -2.55069 131.171 5.66283 126.912C9.3478 125.001 13.3591 124.879 17.413 125.55C17.9859 124.891 17.684 124.139 17.623 123.415C16.4767 123.151 15.3379 122.812 14.1744 122.63C4.56885 121.127 -3.89594 127.649 -5.41235 136.004C-7.36907 146.805 -2.5321 155.048 5.49486 161.395C12.1826 166.682 20.2544 169.277 28.6025 170.798C35.9628 172.138 43.2743 171.987 50.5314 170.21C51.2622 169.612 51.0345 168.858 50.8572 168.11C48.0049 168.771 45.0503 168.531 42.1884 168.557C34.3093 168.625 26.4896 167.514 19.0335 164.748L19.0319 164.744Z" fill="#FF8B13"/>
<path d="M69.5536 48.9717C67.0592 56.002 67.9225 62.8557 71.0651 69.3233C76.9061 81.3448 86.6576 89.6429 97.7269 96.5502C98.3237 96.4267 98.9204 96.3031 99.5221 96.1827C97.5886 94.0924 95.5262 92.1442 93.3502 90.2972C88.2857 86.0012 83.5216 81.4069 79.4602 76.1011C75.1034 70.4074 72.0532 64.2362 71.881 56.874C71.7484 51.228 73.4295 46.4757 78.5277 43.6592C83.619 40.8485 88.5536 42.2879 92.644 45.7242C96.3449 48.8317 99.5088 52.6338 100.843 57.559C101.314 57.2469 101.786 56.9388 102.258 56.6307C100.933 50.7302 97.938 45.908 93.1612 42.2021C84.4003 35.3991 72.9494 39.3968 69.5545 48.9757L69.5536 48.9717Z" fill="#FF8B13"/>
<path d="M135.507 51.1294C132.107 38.8479 119.229 37.4946 111.947 42.9852C107.433 46.3869 104.452 50.7213 103.358 56.3253C103.72 56.2428 104.086 56.1594 104.45 56.0848C105.378 52.5149 107.887 49.9757 110.19 47.3537C113.979 43.0398 119.894 41.503 124.965 43.4462C130.353 45.5131 132.651 49.947 133.219 55.3434C134.178 64.5059 130.586 72.3296 125.626 79.6005C122.245 84.5566 118.597 89.323 115.067 94.171C115.863 94.5744 116.618 94.2768 117.375 94.0374C117.572 93.7586 117.73 93.4344 117.976 93.207C126.37 85.4581 132.584 76.3349 135.666 65.1483C136.968 60.4238 136.814 55.8437 135.506 51.1254L135.507 51.1294Z" fill="#FF8B13"/>
</svg>

