<svg width="30" height="27" viewBox="0 0 30 27" fill="none" xmlns="http://www.w3.org/2000/svg">
<path d="M26.7871 3.14666C26.1061 2.46533 25.2976 1.92485 24.4076 1.5561C23.5177 1.18735 22.5638 0.997559 21.6005 0.997559C20.6372 0.997559 19.6833 1.18735 18.7933 1.5561C17.9034 1.92485 17.0948 2.46533 16.4138 3.14666L15.0005 4.55999L13.5871 3.14666C12.2116 1.77107 10.3459 0.998272 8.40048 0.998272C6.45511 0.998272 4.58941 1.77107 3.21382 3.14666C1.83823 4.52225 1.06543 6.38795 1.06543 8.33333C1.06543 10.2787 1.83823 12.1444 3.21382 13.52L4.62715 14.9333L15.0005 25.3067L25.3738 14.9333L26.7871 13.52C27.4685 12.839 28.009 12.0304 28.3777 11.1405C28.7465 10.2505 28.9362 9.29664 28.9362 8.33333C28.9362 7.37001 28.7465 6.41613 28.3777 5.52619C28.009 4.63624 27.4685 3.82767 26.7871 3.14666Z" stroke="#FF8B13" stroke-width="2" stroke-linecap="round" stroke-linejoin="round"/>
</svg>
