<svg width="25" height="42" viewBox="0 0 25 42" fill="none" xmlns="http://www.w3.org/2000/svg">
<path d="M12.6799 0.0209485V20.6718L2.5293 2.89027C3.93674 1.13097 6.13319 0 8.58555 0H12.6799V0.0209485Z" fill="#EF5F3E"/>
<path d="M12.6803 20.6727H0.887695V7.58264C0.887695 5.82334 1.50613 4.1897 2.52972 2.91211L12.6803 20.6936V20.6727Z" fill="#F6B0A9"/>
<path d="M24.4938 20.6704V33.7604C24.4938 35.5197 23.8754 37.1533 22.8518 38.4309L12.7012 20.6494H24.4938V20.6704Z" fill="#A1C5E8"/>
<path d="M24.4937 0.0195312L12.6797 20.6704V0.0195312H24.4937Z" fill="#F68B21"/>
<path d="M0.887695 41.3217L12.6803 20.6709V41.3217H0.887695Z" fill="#2D3E69"/>
<path d="M22.8303 38.4544C21.4229 40.2137 19.2264 41.3447 16.7741 41.3447H12.6797V20.6938L22.8303 38.4754V38.4544Z" fill="#3AA277"/>
</svg>
