<svg width="255" height="123" viewBox="0 0 255 123" fill="none" xmlns="http://www.w3.org/2000/svg">
<path d="M206.114 64.408C207.456 63.9602 208.781 63.4932 210.085 63.0468L211.214 57.6969C209.968 60.3423 208.237 62.6004 206.115 64.4093L206.114 64.408ZM254.047 39.9702L253.599 40.0485L252.043 40.3205C248.15 41.3121 240.19 43.3752 230.11 45.9821L230.013 46.4107L227.872 56.528C244.473 50.0107 255.527 44.2515 254.981 41.4495C254.884 40.9248 254.572 40.418 254.047 39.9702ZM215.903 49.6783L215.825 50.067L213.315 61.9164C217.266 60.5346 221.06 59.1542 224.622 57.7917L226.86 47.2265L226.957 46.798C223.454 47.7128 219.757 48.666 215.903 49.6769V49.6783ZM174.898 60.6912C173.964 60.9439 173.03 61.1774 172.115 61.4302C169.527 66.3529 163.182 69.4845 154.95 69.4845C151.875 69.4845 149.072 69.0752 146.62 68.2786H146.601C146.542 68.2786 146.503 68.2593 146.446 68.2401H146.426C140.394 69.9323 135.646 71.3333 132.803 72.2865C132.569 72.3648 132.355 72.4225 132.161 72.5008C131.773 72.6175 131.422 72.7343 131.13 72.851C131.072 72.8702 131.032 72.8895 130.974 72.9087C130.896 72.9279 130.819 72.9678 130.741 73.0062C130.663 73.0255 130.605 73.0447 130.546 73.0845C130.41 73.123 130.312 73.182 130.215 73.2205C130 73.318 129.903 73.3949 129.884 73.454C129.864 73.4348 129.826 73.4155 129.748 73.3949C129.669 73.3757 129.552 73.3757 129.397 73.3565C123.267 72.8702 61.2834 78.0265 25.4941 81.0812C24.5599 81.1595 23.6449 81.2364 22.7505 81.3147C16.6395 81.8394 11.4243 82.2871 7.57059 82.6181L1.51869 83.6689L1.09004 83.7472C0.758941 84.3309 0.642162 84.9147 0.758941 85.4394C1.30437 88.3389 10.4118 90.1093 24.1312 90.8675C24.9871 90.9252 25.8637 90.9651 26.7581 91.0035H26.7773C54.763 92.2493 99.5622 89.6616 131.77 84.0768C149.46 81.0221 170.615 75.5555 190.348 69.4845C183.128 69.1727 177.542 65.846 174.896 60.6898L174.898 60.6912Z" fill="#743B19"/>
<path d="M26.1714 78.4165C27.423 88.185 25.9791 98.9383 21.6266 107.833C19.526 112.176 16.5804 116.235 13.1059 119.613C12.4176 120.238 11.357 121.255 10.6206 121.821L9.32089 122.875L2.81836 112.234C3.46957 111.921 4.37633 111.54 4.99182 111.193L6.06207 110.619C6.56078 110.328 7.1227 109.964 7.62278 109.661C12.0879 106.726 15.7066 102.651 18.4118 98.0277C20.0192 95.2875 21.3203 92.377 22.3617 89.3594C23.5556 85.8555 24.4623 82.1703 24.8607 78.4756L26.17 78.4179L26.1714 78.4165Z" fill="#743B19"/>
<path d="M19.0367 74.1839C24.7588 80.4952 29.2995 88.2186 31.3342 96.5517C32.3563 100.804 32.6435 105.267 31.9909 109.613C31.5609 112.551 30.7063 115.402 29.4904 118.131L20.1344 112.871C23.9689 107.838 25.2713 101.348 24.6448 94.9227C24.4882 93.2155 24.2134 91.5123 23.8397 89.8283C23.0772 86.389 21.9108 83.0102 20.4614 79.7728C19.7263 78.1465 18.9171 76.5216 18.0049 74.9902L19.0367 74.1812V74.1839Z" fill="#F58720"/>
<path d="M146.601 68.2746C140.49 69.9668 135.664 71.3678 132.803 72.2825C132.57 72.3608 132.356 72.4185 132.16 72.4968C131.77 72.6135 131.42 72.7303 131.129 72.847C131.071 72.8663 131.031 72.8855 130.973 72.9061C130.895 72.9253 130.818 72.9638 130.74 73.0036C130.662 73.0229 130.602 73.0421 130.545 73.0819C130.409 73.1204 130.311 73.1794 130.214 73.2179C129.999 73.3154 129.902 73.3937 129.883 73.4514C129.862 73.4322 129.824 73.4129 129.745 73.3937C129.667 73.3745 129.55 73.3745 129.395 73.3552C123.265 72.9267 61.222 78.2972 25.4725 81.4879C24.6152 81.5662 23.7786 81.6239 22.9625 81.7022C16.7924 82.2474 11.5387 82.7337 7.64656 83.0839L1.16602 84.213C1.28279 84.0372 1.38034 83.8435 1.51635 83.6677C1.53009 83.6549 1.54337 83.642 1.55619 83.6292C1.57543 83.61 1.6139 83.5701 1.63451 83.5317C1.71144 83.4534 1.77052 83.3765 1.84883 83.2982V83.279L5.4099 80.4962L26.9343 64.8339C30.3196 67.8103 35.3988 69.4847 41.6265 69.4847C52.4663 69.4847 60.0364 64.0373 60.0364 56.2343C60.0364 56.02 60.0364 55.8057 60.0171 55.6121C61.0475 63.9205 68.2288 69.5231 78.1934 69.5231C87.0288 69.5231 94.21 65.1842 97.8109 57.8688L95.5138 68.6674H112.036L116.512 47.5769C117.387 46.974 118.459 46.6045 119.489 46.6045C120.347 46.6045 121.007 46.7995 121.26 47.1099C121.513 47.4025 121.551 48.0824 121.396 48.8612L117.154 68.6674H133.676L135.992 57.7918C137.198 62.8121 140.935 66.4698 146.424 68.2402H146.443C146.501 68.2595 146.541 68.2787 146.598 68.2787L146.601 68.2746Z" fill="#F58720"/>
<path d="M253.991 40.3207C253.972 40.3015 253.952 40.2822 253.913 40.263C253.815 40.1847 253.698 40.1078 253.601 40.0487C253.465 39.9704 253.329 39.8935 253.193 39.8152L253.173 39.796L248.833 38.395L195.666 23.083L173.422 16.6823L115.874 0.124512L68.5253 34.5821L59.6309 41.061C60.5459 42.4812 61.1875 44.0773 61.4993 45.8271C64.7691 38.259 72.4559 33.4146 81.7969 33.4146C92.0336 33.4146 99.3124 39.2713 99.9732 47.7734L102.854 34.2703H119.299L119.242 34.5038C120.974 33.9201 122.822 33.6083 124.71 33.6083C129.186 33.6083 133 35.2812 135.471 38.3167C136.834 40.0089 137.671 41.9936 137.981 44.1542C139.304 37.7536 146.154 33.4531 155.516 33.4531C166.161 33.4531 173.44 38.1807 174.822 45.8464C178.072 38.259 185.778 33.4132 195.119 33.4132C205.394 33.4132 212.712 39.3084 213.296 47.8888L216.175 34.2689H232.581L230.109 45.981L230.011 46.4095C240.189 43.8218 248.228 41.7794 252.139 40.7863L254.143 40.4361C254.084 40.3976 254.046 40.3578 253.988 40.3193L253.991 40.3207Z" fill="#F58720"/>
<path d="M57.1411 56.2334C57.1411 63.0818 49.4543 66.5651 41.6315 66.5651C36.7075 66.5651 32.3675 65.3976 29.3711 63.0434C27.3048 61.4226 25.8842 59.2181 25.369 56.456C25.2522 55.8296 25.7743 55.261 26.4117 55.261H34.0244C34.5148 55.261 34.8968 55.625 35.0108 56.103C35.2018 56.9106 35.5631 57.6152 36.0453 58.199C37.3107 59.7552 39.4896 60.5339 41.8252 60.5339C44.5881 60.5339 47.0404 59.659 47.0404 57.8103C47.0404 56.1565 44.2776 55.4753 40.814 54.7363C40.6588 54.6978 40.5022 54.6786 40.3469 54.6388C34.6646 53.5097 27.3473 52.1294 27.3473 46.4471C27.3473 39.7539 34.508 36.3682 42.1961 36.3682C48.8333 36.3682 54.5926 38.4504 57.2593 42.7688C57.8775 43.7385 58.3281 44.8318 58.5878 46.046C58.7224 46.6778 58.1935 47.263 57.5464 47.263H49.9984C49.5285 47.263 49.1466 46.9388 48.9927 46.4952C48.0653 43.8072 45.4165 42.5161 42.0807 42.5161C39.6284 42.5161 37.3711 43.391 37.3711 44.9678C37.3711 46.719 40.6986 47.3797 44.5908 48.1393C45.9138 48.4112 47.2959 48.6846 48.6382 49.0348C53.0744 50.1638 57.1425 51.992 57.1425 56.2334H57.1411Z" fill="#003366"/>
<path d="M48.6355 49.0392C47.2932 48.6889 45.9111 48.417 44.5881 48.1437C40.6959 47.3855 37.3684 46.7234 37.3684 44.9722C37.3684 43.3968 39.6256 42.5205 42.078 42.5205C45.4137 42.5205 48.0626 43.8116 48.9913 46.4996C49.1452 46.9432 49.5271 47.2674 49.997 47.2674H57.545C58.1921 47.2674 58.7211 46.6822 58.5864 46.0504C58.3268 44.8362 57.8761 43.7429 57.2593 42.7732C54.5926 38.4534 48.8333 36.3726 42.1961 36.3726C34.5093 36.3726 27.3473 39.7583 27.3473 46.4515C27.3473 52.1324 34.6646 53.5141 40.3469 54.6432C40.5022 54.6816 40.6588 54.7009 40.814 54.7407C44.2776 55.4797 47.0418 56.1609 47.0418 57.8146C47.0418 59.6634 44.5894 60.5383 41.8266 60.5383C39.491 60.5383 37.312 59.7596 36.0467 58.2034C35.5645 57.6196 35.2031 56.9164 35.0122 56.1074C34.8995 55.6294 34.5176 55.2654 34.0257 55.2654H26.4117C25.7743 55.2654 25.2522 55.834 25.369 56.4604C25.8842 59.2225 27.3061 61.427 29.3711 63.0478C32.3675 65.402 36.7075 66.5695 41.6315 66.5695C49.4543 66.5695 57.1425 63.0862 57.1425 56.2378C57.1425 51.9964 53.0758 50.1669 48.6382 49.0392H48.6355Z" fill="#003366"/>
<path d="M95.8115 52.6967C96.3199 52.6967 96.7636 52.3327 96.8474 51.8314C97.0054 50.8919 97.0975 50.0073 97.0975 49.0184C97.0975 41.2937 90.7914 36.3325 81.8008 36.3325C72.3238 36.3325 64.85 41.7991 63.1175 50.4002C62.9032 51.4701 62.8057 52.5401 62.8057 53.5126C62.8057 61.354 68.9551 66.6064 78.1999 66.6064C85.8592 66.6064 92.0444 63.0352 95.196 56.5934C95.5436 55.8833 95.049 55.0495 94.2577 55.0495H86.5819C86.1903 55.0495 85.8414 55.2844 85.6586 55.6292C84.1089 58.5493 81.7527 59.8555 78.8813 59.8555C75.0867 59.8555 72.7896 57.7155 72.7896 53.8244C72.7896 53.4741 72.7896 53.0662 72.828 52.6953H95.8102L95.8115 52.6967ZM81.276 42.8719C84.1913 42.8719 86.5571 44.3237 87.2564 46.6765C87.4515 47.3331 86.913 47.9896 86.2274 47.9896H75.9151C75.0743 47.9896 74.5578 47.0323 75.0304 46.3386C76.6117 44.0201 78.8703 42.8719 81.2746 42.8719H81.276Z" fill="#003366"/>
<path d="M95.8115 52.6967C96.3199 52.6967 96.7636 52.3327 96.8474 51.8314C97.0054 50.8919 97.0975 50.0073 97.0975 49.0184C97.0975 41.2937 90.7914 36.3325 81.8008 36.3325C72.3238 36.3325 64.85 41.7991 63.1175 50.4002C62.9032 51.4701 62.8057 52.5401 62.8057 53.5126C62.8057 61.354 68.9551 66.6064 78.1999 66.6064C85.8592 66.6064 92.0444 63.0352 95.196 56.5934C95.5436 55.8833 95.049 55.0495 94.2577 55.0495H86.5819C86.1903 55.0495 85.8414 55.2844 85.6586 55.6292C84.1089 58.5493 81.7527 59.8555 78.8813 59.8555C75.0867 59.8555 72.7896 57.7155 72.7896 53.8244C72.7896 53.4741 72.7896 53.0662 72.828 52.6953H95.8102L95.8115 52.6967ZM81.276 42.8719C84.1913 42.8719 86.5571 44.3237 87.2564 46.6765C87.4515 47.3331 86.913 47.9896 86.2274 47.9896H75.9151C75.0743 47.9896 74.5578 47.0323 75.0304 46.3386C76.6117 44.0201 78.8703 42.8719 81.2746 42.8719H81.276Z" fill="#003366"/>
<path d="M134.945 48.6058L131.501 64.9123C131.398 65.3986 130.969 65.7474 130.472 65.7474H122.079C121.409 65.7474 120.91 65.1307 121.05 64.4755L124.261 49.4822C124.961 45.9412 123.171 43.6845 119.492 43.6845C117.477 43.6845 115.53 44.5127 114.124 45.7627C113.954 45.9137 113.843 46.1211 113.796 46.3436L109.842 64.9151C109.739 65.4013 109.309 65.7474 108.813 65.7474H100.435C99.7661 65.7474 99.2673 65.1307 99.4061 64.4769L105.031 38.0187C105.134 37.5325 105.564 37.185 106.06 37.185H114.42C115.089 37.185 115.588 37.8003 115.449 38.4541L115.035 40.4141C117.644 37.9624 120.972 36.5229 124.707 36.5229C131.985 36.5229 136.384 41.8536 134.944 48.6058H134.945Z" fill="#003366"/>
<path d="M124.707 36.5282C120.97 36.5282 117.643 37.9677 115.035 40.4194L115.449 38.458C115.586 37.8042 115.087 37.1889 114.42 37.1889H106.06C105.562 37.1889 105.134 37.5364 105.031 38.0226L99.4061 64.4808C99.2673 65.1346 99.7661 65.7513 100.435 65.7513H108.813C109.31 65.7513 109.739 65.4038 109.842 64.919L113.795 46.3476C113.843 46.125 113.953 45.9176 114.123 45.7666C115.53 44.5167 117.477 43.6884 119.492 43.6884C123.17 43.6884 124.96 45.9451 124.259 49.4861L121.049 64.4795C120.909 65.1346 121.407 65.7513 122.078 65.7513H130.471C130.968 65.7513 131.398 65.4038 131.5 64.9162L134.944 48.6098C136.384 41.8589 131.986 36.5269 124.707 36.5269V36.5282Z" fill="#003366"/>
<path d="M170.465 56.2329C170.465 58.7423 169.433 60.8053 167.739 62.4C167.642 62.4975 167.546 62.5758 167.448 62.6719C164.49 65.2597 159.761 66.5631 154.954 66.5631C154.332 66.5631 153.708 66.5439 153.105 66.5041C152.988 66.5041 152.891 66.4848 152.774 66.4656H152.755C145.485 65.9354 139.837 62.6143 138.69 56.4567C138.573 55.829 139.097 55.259 139.736 55.259H147.346C147.837 55.259 148.222 55.623 148.335 56.1024C149.034 59.0596 151.921 60.532 155.167 60.532C157.93 60.532 160.384 59.6571 160.384 57.8083C160.384 56.0763 157.367 55.4156 153.67 54.6368C147.987 53.5078 140.669 52.1274 140.669 46.4451C140.669 39.7519 147.851 36.3662 155.519 36.3662C163.622 36.3662 170.424 39.48 171.882 45.9328C172.034 46.6072 171.552 47.261 170.859 47.261H163.321C162.851 47.261 162.469 46.9369 162.315 46.4932C161.387 43.8052 158.739 42.5141 155.421 42.5141C152.951 42.5141 150.712 43.389 150.712 44.9658C150.712 46.7171 154.039 47.3778 157.931 48.1373C163.556 49.2663 170.465 50.7058 170.465 56.2315V56.2329Z" fill="#003366"/>
<path d="M195.125 36.335C185.648 36.335 178.174 41.8016 176.442 50.4026C176.247 51.4726 176.13 52.5425 176.13 53.515C176.13 55.85 176.675 57.9515 177.686 59.7412C177.706 59.8195 177.746 59.8772 177.784 59.9362C180.197 64.0801 185.121 66.6102 191.543 66.6102C199.186 66.6102 205.385 63.039 208.523 56.5958C208.869 55.8857 208.375 55.0534 207.585 55.0534H199.905C199.513 55.0534 199.164 55.2882 198.981 55.6343C197.434 58.5531 195.095 59.8593 192.204 59.8593C189.869 59.8593 188.098 59.0421 187.066 57.5051C187.027 57.4474 186.988 57.3691 186.93 57.2908C186.405 56.3761 186.112 55.2086 186.112 53.8282C186.112 53.4779 186.112 53.07 186.171 52.6991H210.011C210.089 52.2898 210.166 51.9011 210.225 51.5124C210.244 51.3957 210.264 51.2789 210.264 51.1622C210.361 50.4617 210.419 49.7612 210.419 49.0222C210.419 41.2975 204.133 36.3363 195.122 36.3363L195.125 36.335ZM189.242 47.9893C188.401 47.9893 187.883 47.0306 188.359 46.337C189.944 44.0198 192.217 42.8716 194.619 42.8716C197.533 42.8716 199.884 44.322 200.593 46.6721C200.791 47.33 200.252 47.9879 199.565 47.9879H189.242V47.9893Z" fill="#003366"/>
<path d="M195.125 36.335C185.648 36.335 178.174 41.8016 176.442 50.4026C176.247 51.4726 176.13 52.5425 176.13 53.515C176.13 55.85 176.675 57.9515 177.686 59.7412C177.706 59.8195 177.746 59.8772 177.784 59.9362C180.197 64.0801 185.121 66.6102 191.543 66.6102C199.186 66.6102 205.385 63.039 208.523 56.5958C208.869 55.8857 208.375 55.0534 207.585 55.0534H199.905C199.513 55.0534 199.164 55.2882 198.981 55.6343C197.434 58.5531 195.095 59.8593 192.204 59.8593C189.869 59.8593 188.098 59.0421 187.066 57.5051C187.027 57.4474 186.988 57.3691 186.93 57.2908C186.405 56.3761 186.112 55.2086 186.112 53.8282C186.112 53.4779 186.112 53.07 186.171 52.6991H210.011C210.089 52.2898 210.166 51.9011 210.225 51.5124C210.244 51.3957 210.264 51.2789 210.264 51.1622C210.361 50.4617 210.419 49.7612 210.419 49.0222C210.419 41.2975 204.133 36.3363 195.122 36.3363L195.125 36.335ZM189.242 47.9893C188.401 47.9893 187.883 47.0306 188.359 46.337C189.944 44.0198 192.217 42.8716 194.619 42.8716C197.533 42.8716 199.884 44.322 200.593 46.6721C200.791 47.33 200.252 47.9879 199.565 47.9879H189.242V47.9893Z" fill="#003366"/>
<path d="M227.689 37.1919C228.357 37.1919 228.857 37.8072 228.718 38.461L226.961 46.8038L226.863 47.2324L224.625 57.7975L223.128 64.9192C223.025 65.4055 222.596 65.7543 222.099 65.7543H213.802C213.133 65.7543 212.633 65.1376 212.773 64.4824L213.319 61.9208L215.83 50.0714L215.908 49.6827L218.378 38.0256C218.481 37.5394 218.91 37.1919 219.407 37.1919H227.689Z" fill="#003366"/>
<path d="M227.689 37.1919C228.357 37.1919 228.857 37.8072 228.718 38.461L226.961 46.8038L226.863 47.2324L224.625 57.7975L223.128 64.9192C223.025 65.4055 222.596 65.7543 222.099 65.7543H213.802C213.133 65.7543 212.633 65.1376 212.773 64.4824L213.319 61.9208L215.83 50.0714L215.908 49.6827L218.378 38.0256C218.481 37.5394 218.91 37.1919 219.407 37.1919H227.689Z" fill="#003366"/>
</svg>
