<svg width="102" height="50" viewBox="0 0 102 50" fill="none" xmlns="http://www.w3.org/2000/svg">
<path d="M82.3905 25.7855C82.9289 25.6059 83.4601 25.4185 83.9831 25.2395L84.4361 23.0935C83.9363 24.1546 83.2419 25.0604 82.391 25.786L82.3905 25.7855ZM101.618 15.9829L101.438 16.0143L100.813 16.1234C99.2522 16.5212 96.0592 17.3487 92.0158 18.3944L91.9767 18.5663L91.1181 22.6246C97.777 20.0104 102.211 17.7002 101.992 16.5763C101.953 16.3658 101.828 16.1625 101.618 15.9829ZM86.317 19.877L86.2856 20.033L85.2787 24.786C86.8637 24.2318 88.3858 23.6781 89.8142 23.1315L90.712 18.8936L90.7511 18.7217C89.3458 19.0886 87.8628 19.471 86.317 19.8765V19.877ZM69.8691 24.2946C69.4944 24.396 69.1196 24.4896 68.7526 24.591C67.7144 26.5656 65.1694 27.8218 61.8673 27.8218C60.6339 27.8218 59.5097 27.6576 58.526 27.338H58.5183C58.4946 27.338 58.4792 27.3303 58.456 27.3226H58.4483C56.0284 28.0014 54.1239 28.5634 52.9837 28.9457C52.89 28.9771 52.804 29.0003 52.7263 29.0317C52.5703 29.0785 52.4298 29.1253 52.3124 29.1722C52.2893 29.1799 52.2733 29.1876 52.2502 29.1953C52.2188 29.203 52.1879 29.219 52.1565 29.2344C52.1251 29.2421 52.1019 29.2499 52.0782 29.2658C52.0237 29.2813 51.9845 29.3049 51.9454 29.3204C51.8594 29.3595 51.8203 29.3903 51.8126 29.414C51.8049 29.4063 51.7895 29.3986 51.758 29.3903C51.7266 29.3826 51.6798 29.3826 51.6175 29.3749C49.1585 29.1799 24.2955 31.2482 9.93954 32.4735C9.5648 32.5049 9.19777 32.5357 8.83901 32.5671C6.38776 32.7776 4.29581 32.9572 2.75 33.09L0.322442 33.5115L0.150502 33.5429C0.0176885 33.777 -0.0291543 34.0112 0.0176885 34.2217C0.236472 35.3847 3.88966 36.0949 9.39286 36.399C9.73619 36.4222 10.0878 36.4381 10.4465 36.4536H10.4543C21.68 36.9533 39.65 35.9153 52.5692 33.6751C59.6651 32.4498 68.1508 30.257 76.0661 27.8218C73.1702 27.6967 70.9294 26.3623 69.868 24.294L69.8691 24.2946Z" fill="#743B19"/>
<path d="M10.2112 31.4048C10.7133 35.3232 10.1341 39.6366 8.3882 43.2045C7.54558 44.9467 6.36404 46.5747 4.97032 47.9295C4.69423 48.1802 4.26878 48.5885 3.9734 48.8154L3.45207 49.238L0.84375 44.9698C1.10497 44.8442 1.46869 44.6916 1.71558 44.5522L2.14488 44.3219C2.34492 44.2051 2.57032 44.0591 2.77092 43.9379C4.56197 42.7605 6.01354 41.1258 7.09864 39.2713C7.74342 38.1721 8.2653 37.0047 8.68303 35.7942C9.16193 34.3887 9.52565 32.9105 9.68546 31.4285L10.2107 31.4053L10.2112 31.4048Z" fill="#743B19"/>
<path d="M7.3499 29.7072C9.6452 32.2388 11.4666 35.3368 12.2827 38.6794C12.6927 40.3852 12.8079 42.1752 12.5461 43.9184C12.3737 45.0969 12.0309 46.2407 11.5432 47.3354L7.79023 45.2253C9.32832 43.2066 9.85076 40.6034 9.59946 38.026C9.53664 37.3412 9.42642 36.658 9.27652 35.9825C8.97067 34.6029 8.50279 33.2476 7.92139 31.949C7.62655 31.2967 7.30196 30.6449 6.93604 30.0306L7.3499 29.7061V29.7072Z" fill="#F58720"/>
<path d="M58.5181 27.3367C56.0669 28.0154 54.1309 28.5774 52.9835 28.9443C52.8898 28.9758 52.8039 28.9989 52.7256 29.0303C52.5691 29.0771 52.4286 29.124 52.3117 29.1708C52.2886 29.1785 52.2726 29.1862 52.2495 29.1945C52.218 29.2022 52.1872 29.2176 52.1558 29.2336C52.1244 29.2413 52.1007 29.249 52.0775 29.265C52.023 29.2804 51.9838 29.3041 51.9447 29.3195C51.8587 29.3587 51.8196 29.3901 51.8119 29.4132C51.8036 29.4055 51.7882 29.3978 51.7568 29.3901C51.7254 29.3824 51.6785 29.3824 51.6163 29.3746C49.1573 29.2027 24.2705 31.357 9.93058 32.6368C9.5867 32.6682 9.25108 32.6914 8.92373 32.7228C6.44878 32.9415 4.34141 33.1365 2.78016 33.277L0.180664 33.7299C0.227507 33.6594 0.266634 33.5817 0.321192 33.5112C0.326703 33.5061 0.332031 33.5009 0.337174 33.4958C0.344889 33.4881 0.36032 33.4721 0.368586 33.4567C0.399447 33.4252 0.423144 33.3944 0.454557 33.363V33.3553L1.88299 32.239L10.5169 25.9565C11.8748 27.1504 13.9122 27.8221 16.4103 27.8221C20.7584 27.8221 23.7949 25.637 23.7949 22.507C23.7949 22.4211 23.7949 22.3351 23.7872 22.2574C24.2005 25.5902 27.0811 27.8375 31.0782 27.8375C34.6222 27.8375 37.5028 26.097 38.9472 23.1627L38.0258 27.4942H44.6532L46.4487 19.0344C46.7997 18.7925 47.2296 18.6443 47.6429 18.6443C47.9868 18.6443 48.2518 18.7225 48.3532 18.847C48.4546 18.9644 48.4701 19.2371 48.4078 19.5495L46.706 27.4942H53.3335L54.2626 23.1318C54.7465 25.1455 56.2454 26.6127 58.447 27.3229H58.4548C58.4779 27.3306 58.4939 27.3383 58.517 27.3383L58.5181 27.3367Z" fill="#F58720"/>
<path d="M101.594 16.1236C101.587 16.1159 101.579 16.1082 101.563 16.1005C101.524 16.0691 101.477 16.0382 101.438 16.0145C101.383 15.9831 101.329 15.9523 101.274 15.9209L101.266 15.9132L99.5254 15.3512L78.1987 9.20918L69.276 6.64174L46.1924 0L27.1996 13.8218L23.6318 16.4206C23.9989 16.9903 24.2562 17.6305 24.3813 18.3324C25.6929 15.2967 28.7763 13.3534 32.5232 13.3534C36.6293 13.3534 39.549 15.7027 39.8141 19.1131L40.9697 13.6967H47.5663L47.5432 13.7903C48.2381 13.5562 48.9793 13.4311 49.7365 13.4311C51.532 13.4311 53.0618 14.1022 54.0532 15.3198C54.5999 15.9986 54.9355 16.7947 55.06 17.6613C55.5907 15.0939 58.3385 13.3689 62.0936 13.3689C66.3635 13.3689 69.2832 15.2652 69.8376 18.3401C71.1415 15.2967 74.2325 13.3529 77.9794 13.3529C82.101 13.3529 85.0361 15.7176 85.2703 19.1594L86.4254 13.6961H93.006L92.0146 18.3941L91.9755 18.566C96.058 17.528 99.2824 16.7087 100.851 16.3104L101.655 16.1699C101.632 16.1545 101.616 16.1385 101.593 16.1231L101.594 16.1236Z" fill="#F58720"/>
<path d="M22.6335 22.5068C22.6335 25.2538 19.5501 26.651 16.4122 26.651C14.4371 26.651 12.6962 26.1827 11.4942 25.2384C10.6654 24.5883 10.0956 23.704 9.88892 22.596C9.84207 22.3448 10.0515 22.1167 10.3072 22.1167H13.3608C13.5575 22.1167 13.7107 22.2627 13.7565 22.4544C13.8331 22.7784 13.978 23.061 14.1715 23.2952C14.679 23.9194 15.553 24.2318 16.4899 24.2318C17.5981 24.2318 18.5818 23.8808 18.5818 23.1393C18.5818 22.4759 17.4736 22.2026 16.0843 21.9062C16.022 21.8908 15.9592 21.8831 15.8969 21.8671C13.6176 21.4142 10.6825 20.8605 10.6825 18.5812C10.6825 15.8964 13.5548 14.5383 16.6387 14.5383C19.301 14.5383 21.6112 15.3736 22.6809 17.1058C22.9289 17.4947 23.1096 17.9333 23.2138 18.4203C23.2678 18.6738 23.0556 18.9085 22.796 18.9085H19.7683C19.5799 18.9085 19.4267 18.7785 19.3649 18.6005C18.993 17.5223 17.9304 17.0044 16.5924 17.0044C15.6087 17.0044 14.7033 17.3554 14.7033 17.9878C14.7033 18.6903 16.038 18.9553 17.5992 19.26C18.1299 19.3691 18.6843 19.4787 19.2228 19.6192C21.0022 20.0721 22.634 20.8054 22.634 22.5068H22.6335Z" fill="white"/>
<path d="M19.2217 19.6209C18.6832 19.4804 18.1288 19.3713 17.5981 19.2617C16.0369 18.9576 14.7022 18.692 14.7022 17.9896C14.7022 17.3576 15.6076 17.0061 16.5913 17.0061C17.9293 17.0061 18.9918 17.524 19.3644 18.6022C19.4261 18.7802 19.5793 18.9102 19.7678 18.9102H22.7955C23.055 18.9102 23.2672 18.6755 23.2132 18.4221C23.1091 17.935 22.9283 17.4965 22.6809 17.1075C21.6112 15.3747 19.301 14.54 16.6387 14.54C13.5553 14.54 10.6825 15.8981 10.6825 18.5829C10.6825 20.8617 13.6176 21.4159 15.8969 21.8688C15.9592 21.8842 16.022 21.892 16.0843 21.9079C17.4736 22.2043 18.5824 22.4776 18.5824 23.141C18.5824 23.8825 17.5987 24.2335 16.4904 24.2335C15.5536 24.2335 14.6796 23.9211 14.172 23.2969C13.9786 23.0627 13.8336 22.7806 13.757 22.4561C13.7118 22.2644 13.5586 22.1184 13.3613 22.1184H10.3072C10.0515 22.1184 9.84207 22.3465 9.88892 22.5977C10.0956 23.7057 10.666 24.59 11.4942 25.2401C12.6962 26.1844 14.4371 26.6527 16.4122 26.6527C19.5501 26.6527 22.634 25.2555 22.634 22.5085C22.634 20.8071 21.0028 20.0733 19.2228 19.6209H19.2217Z" fill="white"/>
<path d="M38.1447 21.088C38.3486 21.088 38.5266 20.942 38.5602 20.7409C38.6236 20.364 38.6605 20.0092 38.6605 19.6125C38.6605 16.514 36.131 14.5239 32.5247 14.5239C28.7232 14.5239 25.7253 16.7167 25.0304 20.1668C24.9444 20.596 24.9053 21.0252 24.9053 21.4152C24.9053 24.5606 27.372 26.6675 31.0803 26.6675C34.1526 26.6675 36.6336 25.235 37.8978 22.651C38.0372 22.3662 37.8388 22.0318 37.5214 22.0318H34.4425C34.2854 22.0318 34.1454 22.126 34.0721 22.2643C33.4505 23.4356 32.5054 23.9595 31.3536 23.9595C29.8315 23.9595 28.9101 23.1012 28.9101 21.5403C28.9101 21.3998 28.9101 21.2362 28.9255 21.0874H38.1441L38.1447 21.088ZM32.3142 17.147C33.4836 17.147 34.4325 17.7294 34.7131 18.6732C34.7913 18.9365 34.5753 19.1999 34.3003 19.1999H30.1638C29.8265 19.1999 29.6193 18.8158 29.8089 18.5376C30.4432 17.6076 31.3492 17.147 32.3136 17.147H32.3142Z" fill="white"/>
<path d="M38.1447 21.088C38.3486 21.088 38.5266 20.942 38.5602 20.7409C38.6236 20.364 38.6605 20.0092 38.6605 19.6125C38.6605 16.514 36.131 14.5239 32.5247 14.5239C28.7232 14.5239 25.7253 16.7167 25.0304 20.1668C24.9444 20.596 24.9053 21.0252 24.9053 21.4152C24.9053 24.5606 27.372 26.6675 31.0803 26.6675C34.1526 26.6675 36.6336 25.235 37.8978 22.651C38.0372 22.3662 37.8388 22.0318 37.5214 22.0318H34.4425C34.2854 22.0318 34.1454 22.126 34.0721 22.2643C33.4505 23.4356 32.5054 23.9595 31.3536 23.9595C29.8315 23.9595 28.9101 23.1012 28.9101 21.5403C28.9101 21.3998 28.9101 21.2362 28.9255 21.0874H38.1441L38.1447 21.088ZM32.3142 17.147C33.4836 17.147 34.4325 17.7294 34.7131 18.6732C34.7913 18.9365 34.5753 19.1999 34.3003 19.1999H30.1638C29.8265 19.1999 29.6193 18.8158 29.8089 18.5376C30.4432 17.6076 31.3492 17.147 32.3136 17.147H32.3142Z" fill="white"/>
<path d="M53.8426 19.4471L52.461 25.988C52.4197 26.183 52.2478 26.323 52.0483 26.323H48.6816C48.4127 26.323 48.2127 26.0756 48.2689 25.8128L49.5568 19.7986C49.8378 18.3782 49.1198 17.473 47.6439 17.473C46.8355 17.473 46.0546 17.8052 45.4908 18.3066C45.4225 18.3672 45.3779 18.4504 45.3591 18.5397L43.7731 25.9891C43.7317 26.1841 43.5592 26.323 43.3603 26.323H39.9997C39.7314 26.323 39.5313 26.0756 39.587 25.8133L41.8432 15.2003C41.8845 15.0053 42.057 14.8659 42.2559 14.8659H45.6093C45.8777 14.8659 46.0777 15.1127 46.0221 15.375L45.8562 16.1612C46.9027 15.1777 48.2375 14.6003 49.7359 14.6003C52.655 14.6003 54.4196 16.7386 53.8421 19.4471H53.8426Z" fill="white"/>
<path d="M49.7359 14.6026C48.2369 14.6026 46.9022 15.18 45.8562 16.1635L46.0221 15.3767C46.0772 15.1144 45.8771 14.8676 45.6093 14.8676H42.2559C42.0564 14.8676 41.8845 15.007 41.8432 15.202L39.587 25.815C39.5313 26.0773 39.7314 26.3247 39.9997 26.3247H43.3603C43.5598 26.3247 43.7317 26.1853 43.7731 25.9908L45.3586 18.5414C45.3779 18.4521 45.4219 18.3689 45.4903 18.3083C46.0546 17.8069 46.8355 17.4747 47.6439 17.4747C49.1192 17.4747 49.8373 18.3799 49.5562 19.8003L48.2683 25.8145C48.2121 26.0773 48.4122 26.3247 48.6811 26.3247H52.0477C52.2472 26.3247 52.4197 26.1853 52.4605 25.9897L53.8421 19.4488C54.4196 16.7408 52.6556 14.6021 49.7359 14.6021V14.6026Z" fill="white"/>
<path d="M68.0906 22.5066C68.0906 23.5132 67.6767 24.3407 66.9972 24.9804C66.9581 25.0195 66.9195 25.0509 66.8804 25.0894C65.6939 26.1274 63.7971 26.6503 61.8688 26.6503C61.6191 26.6503 61.3689 26.6426 61.127 26.6266C61.0802 26.6266 61.041 26.6189 60.9942 26.6112H60.9865C58.0707 26.3985 55.8051 25.0663 55.345 22.5964C55.2981 22.3446 55.5081 22.116 55.7643 22.116H58.8168C59.0141 22.116 59.1684 22.262 59.2136 22.4542C59.4941 23.6404 60.652 24.2311 61.9542 24.2311C63.0624 24.2311 64.0467 23.8801 64.0467 23.1385C64.0467 22.4438 62.8365 22.1788 61.3535 21.8664C59.0742 21.4135 56.1385 20.8598 56.1385 18.5805C56.1385 15.8957 59.0196 14.5376 62.0953 14.5376C65.3456 14.5376 68.0741 15.7866 68.6588 18.375C68.7199 18.6455 68.5265 18.9078 68.2488 18.9078H65.2249C65.0365 18.9078 64.8832 18.7777 64.8215 18.5998C64.449 17.5216 63.387 17.0037 62.0562 17.0037C61.0653 17.0037 60.167 17.3546 60.167 17.9871C60.167 18.6896 61.5018 18.9546 63.063 19.2593C65.3192 19.7121 68.0906 20.2895 68.0906 22.506V22.5066Z" fill="white"/>
<path d="M77.9822 14.5249C74.1808 14.5249 71.1828 16.7177 70.4879 20.1678C70.4096 20.597 70.3628 21.0261 70.3628 21.4162C70.3628 22.3528 70.5816 23.1958 70.9872 23.9137C70.9949 23.9451 71.0109 23.9682 71.0263 23.9919C71.994 25.6541 73.9691 26.669 76.5455 26.669C79.6112 26.669 82.0977 25.2365 83.3564 22.652C83.4953 22.3672 83.2969 22.0333 82.98 22.0333H79.8994C79.7424 22.0333 79.6024 22.1275 79.5291 22.2663C78.9086 23.4371 77.9701 23.9611 76.8106 23.9611C75.8737 23.9611 75.1634 23.6333 74.7495 23.0167C74.7341 22.9936 74.7181 22.9622 74.6949 22.9308C74.4844 22.5639 74.367 22.0955 74.367 21.5418C74.367 21.4013 74.367 21.2377 74.3907 21.089H83.9533C83.9847 20.9248 84.0155 20.7689 84.0392 20.6129C84.047 20.5661 84.0547 20.5193 84.0547 20.4724C84.0938 20.1915 84.1169 19.9105 84.1169 19.6141C84.1169 16.5155 81.5957 14.5255 77.9811 14.5255L77.9822 14.5249ZM75.6224 19.1997C75.2851 19.1997 75.0774 18.8152 75.2681 18.5369C75.904 17.6075 76.8155 17.1469 77.7794 17.1469C78.9482 17.1469 79.8912 17.7287 80.1755 18.6714C80.2549 18.9353 80.0389 19.1992 79.7633 19.1992H75.6224V19.1997Z" fill="white"/>
<path d="M77.9822 14.5249C74.1808 14.5249 71.1828 16.7177 70.4879 20.1678C70.4096 20.597 70.3628 21.0261 70.3628 21.4162C70.3628 22.3528 70.5816 23.1958 70.9872 23.9137C70.9949 23.9451 71.0109 23.9682 71.0263 23.9919C71.994 25.6541 73.9691 26.669 76.5455 26.669C79.6112 26.669 82.0977 25.2365 83.3564 22.652C83.4953 22.3672 83.2969 22.0333 82.98 22.0333H79.8994C79.7424 22.0333 79.6024 22.1275 79.5291 22.2663C78.9086 23.4371 77.9701 23.9611 76.8106 23.9611C75.8737 23.9611 75.1634 23.6333 74.7495 23.0167C74.7341 22.9936 74.7181 22.9622 74.6949 22.9308C74.4844 22.5639 74.367 22.0955 74.367 21.5418C74.367 21.4013 74.367 21.2377 74.3907 21.089H83.9533C83.9847 20.9248 84.0155 20.7689 84.0392 20.6129C84.047 20.5661 84.0547 20.5193 84.0547 20.4724C84.0938 20.1915 84.1169 19.9105 84.1169 19.6141C84.1169 16.5155 81.5957 14.5255 77.9811 14.5255L77.9822 14.5249ZM75.6224 19.1997C75.2851 19.1997 75.0774 18.8152 75.2681 18.5369C75.904 17.6075 76.8155 17.1469 77.7794 17.1469C78.9482 17.1469 79.8912 17.7287 80.1755 18.6714C80.2549 18.9353 80.0389 19.1992 79.7633 19.1992H75.6224V19.1997Z" fill="white"/>
<path d="M91.044 14.8687C91.3118 14.8687 91.5124 15.1155 91.4567 15.3777L90.7519 18.7242L90.7128 18.8961L89.815 23.134L89.2143 25.9907C89.173 26.1858 89.0011 26.3257 88.8016 26.3257H85.4735C85.2051 26.3257 85.0046 26.0783 85.0608 25.8155L85.2801 24.788L86.2869 20.0349L86.3184 19.879L87.3092 15.2031C87.3505 15.008 87.5225 14.8687 87.722 14.8687H91.044Z" fill="white"/>
<path d="M91.044 14.8687C91.3118 14.8687 91.5124 15.1155 91.4567 15.3777L90.7519 18.7242L90.7128 18.8961L89.815 23.134L89.2143 25.9907C89.173 26.1858 89.0011 26.3257 88.8016 26.3257H85.4735C85.2051 26.3257 85.0046 26.0783 85.0608 25.8155L85.2801 24.788L86.2869 20.0349L86.3184 19.879L87.3092 15.2031C87.3505 15.008 87.5225 14.8687 87.722 14.8687H91.044Z" fill="white"/>
<path d="M94.2132 10.4465H93.8765V10.2454H94.7858V10.4465H94.4524V11.5699H94.2132V10.4465ZM94.972 10.2454H95.3247L95.5072 11.1644L95.6896 10.2454H96.0423V11.5699H95.8246L95.8312 10.4779L95.6174 11.5699H95.3936L95.1765 10.4878L95.1831 11.5699H94.972V10.2454Z" fill="white"/>
</svg>
