<svg width="24" height="25" viewBox="0 0 24 25" fill="none" xmlns="http://www.w3.org/2000/svg">
<path d="M18 8.61914C18 7.02784 17.3679 5.50172 16.2426 4.3765C15.1174 3.25128 13.5913 2.61914 12 2.61914C10.4087 2.61914 8.88258 3.25128 7.75736 4.3765C6.63214 5.50172 6 7.02784 6 8.61914C6 15.6191 3 17.6191 3 17.6191H21C21 17.6191 18 15.6191 18 8.61914Z" stroke="#89DAE5" stroke-width="2" stroke-linecap="round" stroke-linejoin="round"/>
<path d="M13.7295 21.6191C13.5537 21.9222 13.3014 22.1738 12.9978 22.3487C12.6941 22.5235 12.3499 22.6156 11.9995 22.6156C11.6492 22.6156 11.3049 22.5235 11.0013 22.3487C10.6977 22.1738 10.4453 21.9222 10.2695 21.6191" stroke="#89DAE5" stroke-width="2" stroke-linecap="round" stroke-linejoin="round"/>
</svg>
