<svg width="351" height="391" viewBox="0 0 351 391" fill="none" xmlns="http://www.w3.org/2000/svg">
<path d="M206.616 387.973C208.855 388.646 272.364 386.511 274.727 384.863C275.639 384.262 275.867 374.987 275.826 363.773V363.431C275.826 361.12 275.826 358.736 275.763 356.332C275.763 355.99 275.763 355.658 275.763 355.296C275.515 339.118 274.914 322.339 274.914 322.339L232.971 323.375L234.381 356.259L234.453 357.555L234.847 364.312V365.006C234.847 365.006 210.907 376.697 208.492 378.749C206.078 380.801 204.367 387.309 206.616 387.973Z" fill="#EB9481"/>
<path d="M224.369 369.556C224.514 369.504 224.597 369.463 224.607 369.421L224.369 369.556Z" fill="#FFC727"/>
<path d="M275.817 369.391C275.817 377.961 275.485 384.397 274.781 384.936C272.418 386.553 208.908 388.688 206.659 388.045C204.411 387.403 206.162 380.936 208.556 378.894C209.592 378.003 214.681 375.308 220.091 372.541C214.121 377.257 215.251 382.034 275.817 369.391Z" fill="#FFC727"/>
<path d="M298.128 137.523C298.128 137.523 276.033 248.519 274.478 256.706C274.219 258.022 280.303 361.763 280.303 361.763L231.52 362.966C231.52 362.966 230.836 267.256 232.35 254.768C234.329 238.393 259.357 137.512 259.357 137.512L298.128 137.523Z" fill="#0764A7"/>
<path d="M276.427 351.348C269.442 351.441 271.442 351.348 264.457 351.493C261.037 351.576 238.547 352.135 235.387 352.778C235.314 352.778 235.324 352.913 235.387 352.923C238.599 353.338 261.058 352.384 264.467 352.229C271.452 351.928 269.442 351.938 276.427 351.555C276.455 351.555 276.481 351.544 276.5 351.525C276.52 351.505 276.531 351.479 276.531 351.451C276.531 351.424 276.52 351.397 276.5 351.378C276.481 351.359 276.455 351.348 276.427 351.348Z" fill="#37474F"/>
<path d="M268.747 257.058C269.234 250.944 270.633 244.881 271.784 238.87C272.934 232.859 274.126 226.537 275.297 220.37C277.618 208.162 279.888 195.943 282.23 183.745C284.883 169.94 288.656 156.457 291.444 142.694C291.506 142.373 291.982 142.518 291.92 142.839C287.599 167.318 281.847 191.435 277.214 215.873C276.053 222.042 274.886 228.209 273.711 234.372C272.571 240.383 271.296 246.383 270.312 252.426C269.787 255.562 269.562 258.74 269.638 261.919C269.721 264.904 272.281 339.802 272.633 346.819C272.633 346.912 272.488 346.922 272.478 346.819C270.83 334.496 268.26 263.131 268.747 257.058Z" fill="#2C3D68"/>
<path d="M263.979 137.522L277.783 239.885C284.354 206.721 298.127 137.522 298.127 137.522H263.979Z" fill="#2C3D68"/>
<path d="M280.449 390.729C282.729 391.289 346.051 385.962 348.331 384.231C349.212 383.588 348.974 374.313 348.331 363.12C348.331 362.996 339.947 321.82 339.947 321.82L297.58 325.251L307.488 366.436C307.488 366.436 284.169 379.318 281.858 381.485C279.547 383.651 278.137 390.18 280.449 390.729Z" fill="#EB9481"/>
<path d="M348.277 384.232C345.997 385.962 282.674 391.289 280.405 390.73C278.135 390.17 279.555 383.651 281.835 381.485C283.099 380.304 290.603 375.941 297.173 372.21C289.359 377.547 279.14 387.102 348.619 369.432C348.971 377.62 348.982 383.713 348.277 384.232Z" fill="#FFC727"/>
<path d="M297.216 371.443C297.361 371.381 297.444 371.339 297.454 371.298L297.216 371.443Z" fill="#FFC727"/>
<path d="M304.129 364.696L350.766 359.183C350.766 359.183 326.805 266.749 325.707 262.8C324.038 256.779 320.328 208.276 316.711 178.294C316.711 178.294 323.561 162.064 310.741 137.543H259.316C259.316 137.543 262.768 160.872 268.644 175.672C268.644 175.672 267.545 174.832 274.489 178.657C274.489 178.657 278.738 254.83 281.858 269.257C284.449 281.102 304.129 364.696 304.129 364.696Z" fill="#0764A7"/>
<path d="M346.216 349.814C339.252 350.456 341.242 350.177 334.288 350.902C330.889 351.254 308.534 353.597 305.414 354.488C305.352 354.488 305.414 354.623 305.414 354.623C308.648 354.788 330.961 352.052 334.35 351.638C341.294 350.778 339.294 350.954 346.216 350.011C346.372 350 346.341 349.804 346.216 349.814Z" fill="#37474F"/>
<path d="M266.706 174.604C271.341 176.284 275.822 178.365 280.096 180.822C280.126 180.843 280.148 180.873 280.159 180.908C280.169 180.943 280.166 180.981 280.151 181.014C280.136 181.048 280.11 181.075 280.077 181.091C280.044 181.107 280.007 181.111 279.972 181.102C275.463 179.164 270.862 177.309 266.499 175.133C266.443 175.096 266.402 175.041 266.382 174.978C266.362 174.915 266.364 174.846 266.388 174.784C266.412 174.722 266.457 174.671 266.515 174.638C266.573 174.605 266.64 174.593 266.706 174.604Z" fill="#37474F"/>
<path d="M265.275 143.657C265.275 143.502 265.565 143.471 265.565 143.657C265.56 148.69 265.812 153.719 266.321 158.726C266.529 161.048 268.394 173.888 272.426 172.945C273.099 172.79 273.462 172.127 273.545 171.111C273.528 169.782 273.35 168.459 273.016 167.173C272.56 164.488 272.208 161.794 271.98 159.079C271.508 154.026 271.56 148.938 272.135 143.896C272.143 143.868 272.16 143.843 272.184 143.825C272.207 143.808 272.236 143.798 272.265 143.798C272.294 143.798 272.323 143.808 272.346 143.825C272.369 143.843 272.386 143.868 272.394 143.896C272.281 150.905 272.694 157.914 273.628 164.862C274.125 168.199 275.815 173.225 272.322 173.733C268.829 174.241 266.466 165.846 266.031 163.535C264.919 156.97 264.664 150.288 265.275 143.657Z" fill="#37474F"/>
<path d="M272.313 173.277C272.674 174.141 272.979 175.027 273.225 175.931C273.481 176.631 273.607 177.372 273.598 178.117C273.598 178.262 273.391 178.273 273.318 178.18C272.903 177.522 272.589 176.806 272.385 176.055C272.074 175.226 271.753 174.417 271.473 173.578C271.434 173.467 271.439 173.344 271.49 173.237C271.541 173.13 271.632 173.048 271.743 173.008C271.854 172.968 271.977 172.974 272.084 173.025C272.191 173.075 272.273 173.166 272.313 173.277Z" fill="#37474F"/>
<path d="M307.393 139.978C310.26 144.766 312.174 150.062 313.031 155.576C313.835 161.126 313.656 166.774 312.502 172.262C311.811 175.47 311.557 178.758 311.746 182.035C311.984 185.382 312.44 188.719 312.782 192.056L314.959 211.665C316.399 224.692 318.99 244.932 320.7 257.918C321.54 264.292 339.355 344.652 339.842 346.228C339.849 346.255 339.845 346.284 339.83 346.309C339.815 346.333 339.792 346.35 339.764 346.357C339.737 346.364 339.708 346.36 339.683 346.345C339.659 346.331 339.642 346.307 339.635 346.28C335.417 333.947 321.477 268.696 319.488 256.115C318.451 249.7 317.788 243.233 317.062 236.776C316.337 230.319 315.57 223.707 314.834 217.168C314.098 210.628 313.363 204.223 312.647 197.756L311.559 187.942C311.117 184.825 310.892 181.68 310.886 178.532C311.141 175.421 311.595 172.33 312.243 169.277C312.699 166.448 312.865 163.579 312.741 160.716C312.488 154.984 311.134 149.354 308.751 144.134C308.16 142.849 307.839 141.512 307.134 140.289C306.979 139.802 307.196 139.636 307.393 139.978Z" fill="#2C3D68"/>
<path d="M292.22 142.165C293.038 144.342 293.992 146.477 294.987 148.581C295.785 150.513 296.95 152.273 298.417 153.762C299.919 155.028 301.692 155.933 303.599 156.405C304.703 156.718 305.824 156.963 306.957 157.141C308.114 157.268 309.261 157.479 310.387 157.773C310.434 157.788 310.474 157.817 310.503 157.856C310.532 157.895 310.547 157.942 310.547 157.991C310.547 158.039 310.532 158.087 310.503 158.126C310.474 158.165 310.434 158.194 310.387 158.208C309.166 158.39 307.927 158.421 306.698 158.302C305.512 158.241 304.333 158.082 303.174 157.825C301.061 157.359 299.103 156.36 297.485 154.923C295.913 153.309 294.721 151.365 293.992 149.233C293.073 146.972 292.379 144.625 291.919 142.228C291.911 142.188 291.919 142.146 291.941 142.112C291.964 142.078 291.999 142.054 292.038 142.046C292.078 142.038 292.12 142.046 292.154 142.068C292.188 142.091 292.211 142.125 292.22 142.165Z" fill="#37474F"/>
<path d="M274.509 178.605C274.52 178.575 274.54 178.55 274.566 178.532C274.592 178.514 274.623 178.505 274.654 178.505C274.686 178.505 274.716 178.514 274.742 178.532C274.768 178.55 274.788 178.575 274.799 178.605C275.193 180.377 275.888 187.704 276.053 189.549C276.406 193.269 276.665 197 276.945 200.721C277.494 208.069 278.53 234.828 278.572 236.932C278.572 237.056 278.375 237.046 278.364 236.932C278.147 235.097 276.924 216.992 276.644 213.313C276.074 205.913 275.525 198.513 275.038 191.114C274.903 189.02 274.374 180.688 274.509 178.605Z" fill="#37474F"/>
<path d="M268.643 175.61C268.643 175.61 268.56 175.537 268.643 175.537C268.648 175.561 268.648 175.586 268.643 175.61ZM266.466 175.143C270.861 177.32 275.462 179.175 279.939 181.113C279.975 181.122 280.012 181.118 280.045 181.102C280.078 181.086 280.104 181.058 280.119 181.025C280.134 180.992 280.136 180.954 280.126 180.919C280.116 180.884 280.094 180.853 280.064 180.833C275.789 178.375 271.309 176.295 266.674 174.615C266.608 174.604 266.541 174.616 266.483 174.649C266.425 174.681 266.38 174.733 266.356 174.795C266.332 174.857 266.329 174.925 266.349 174.989C266.37 175.052 266.411 175.107 266.466 175.143ZM266.031 163.525C266.466 165.837 268.757 174.252 272.322 173.723C275.887 173.195 274.125 168.189 273.628 164.852C272.694 157.904 272.281 150.896 272.394 143.886C272.386 143.858 272.369 143.833 272.346 143.816C272.323 143.798 272.294 143.788 272.265 143.788C272.236 143.788 272.207 143.798 272.184 143.816C272.16 143.833 272.143 143.858 272.135 143.886C271.56 148.928 271.508 154.016 271.98 159.069C272.208 161.784 272.56 164.479 273.016 167.163C273.35 168.45 273.528 169.772 273.545 171.101C273.441 172.138 273.099 172.78 272.426 172.936C268.394 173.879 266.529 161.038 266.321 158.717C265.812 153.71 265.56 148.68 265.565 143.648C265.565 143.482 265.285 143.513 265.275 143.648C264.664 150.278 264.919 156.96 266.031 163.525ZM271.472 173.578C271.752 174.418 272.073 175.226 272.384 176.055C272.587 176.806 272.902 177.522 273.317 178.18C273.389 178.273 273.586 178.263 273.597 178.118C273.606 177.372 273.48 176.631 273.224 175.931C272.977 175.028 272.673 174.141 272.312 173.278C272.272 173.166 272.189 173.075 272.082 173.025C271.975 172.974 271.853 172.968 271.742 173.008C271.63 173.048 271.539 173.131 271.489 173.237C271.438 173.344 271.432 173.467 271.472 173.578ZM291.93 142.238C292.39 144.636 293.084 146.982 294.003 149.244C294.731 151.376 295.924 153.319 297.496 154.934C299.114 156.371 301.072 157.37 303.185 157.836C304.344 158.092 305.523 158.252 306.709 158.312C307.938 158.432 309.177 158.401 310.398 158.219C310.445 158.205 310.485 158.176 310.514 158.137C310.543 158.097 310.558 158.05 310.558 158.002C310.558 157.953 310.543 157.906 310.514 157.866C310.485 157.827 310.445 157.798 310.398 157.784C309.272 157.49 308.125 157.278 306.968 157.152C305.835 156.974 304.714 156.728 303.61 156.416C301.703 155.943 299.93 155.039 298.428 153.773C296.961 152.284 295.796 150.524 294.998 148.591C293.961 146.518 293.049 144.352 292.231 142.176C292.222 142.136 292.199 142.101 292.165 142.079C292.131 142.057 292.089 142.049 292.049 142.057C292.009 142.065 291.975 142.089 291.952 142.123C291.93 142.157 291.922 142.198 291.93 142.238ZM275.037 191.072C275.524 198.472 276.074 205.872 276.644 213.272C276.923 216.951 278.146 235.035 278.364 236.891C278.364 237.015 278.582 237.025 278.571 236.891C278.571 234.818 277.535 208.027 276.944 200.68C276.664 196.959 276.405 193.228 276.053 189.507C275.887 187.663 275.193 180.335 274.799 178.563C274.788 178.534 274.768 178.509 274.742 178.491C274.716 178.473 274.685 178.464 274.654 178.464C274.622 178.464 274.592 178.473 274.566 178.491C274.54 178.509 274.52 178.534 274.509 178.563C274.374 180.688 274.902 189.02 275.037 191.072Z" fill="#2C3D68"/>
<path d="M254.01 73.2255C252.974 85.2579 252.083 97.6426 252.881 109.696C253.502 119.085 257.192 126.931 266.851 129.542C275.805 131.957 288.667 132.206 296.491 126.433C300.139 123.759 301.507 119.862 301.414 115.448C301.279 109.302 297.497 75.5574 296.388 65.0382C295.714 58.623 295.071 52.1249 293.279 45.8963C289.496 32.8276 283.091 32.7343 282.21 32.4234C281.464 31.9052 276.614 29.5526 269.556 31.5632C267.711 32.0819 265.997 32.9842 264.526 34.2112C263.054 35.4381 261.858 36.962 261.016 38.6831C255.648 48.964 255.005 61.9705 254.01 73.2255Z" fill="#263238"/>
<path d="M284.137 34.3301C291.723 38.1751 293.288 46.6423 294.905 54.2285C297.164 64.7996 299.237 75.4121 300.802 86.1075C301.559 91.2894 302.191 96.4194 302.667 101.591C303.134 106.545 303.921 111.841 303.434 116.815C302.616 125.034 294.957 128.547 287.609 129.48C287.541 129.482 287.474 129.459 287.422 129.415C287.369 129.371 287.335 129.309 287.324 129.242C287.314 129.174 287.329 129.105 287.366 129.048C287.403 128.991 287.46 128.949 287.526 128.931C291.672 128.236 295.993 127.221 299.196 124.236C303.341 120.401 302.999 115.219 302.699 110.058C302.18 101.28 301.154 92.533 299.828 83.8378C298.501 75.1426 296.853 66.4682 295.081 57.8455C293.392 49.6374 292.314 38.8694 284.085 34.4545C284.013 34.413 284.054 34.2887 284.137 34.3301Z" fill="#263238"/>
<path d="M257.212 45.834C258.881 39.6157 262.394 33.5425 269.037 31.9258C260.383 34.382 257.989 43.6886 256.601 51.4718C255.129 59.6661 253.968 67.9053 253.118 76.1894C252.289 84.1592 251.626 92.1911 251.522 100.202C251.408 108.846 252.714 116.992 257.585 124.277C257.689 124.422 257.482 124.599 257.368 124.453C252.528 118.536 251.149 110.545 250.952 103.104C250.909 93.2535 251.515 83.4108 252.766 73.6399C253.792 64.4162 254.818 54.8193 257.212 45.834Z" fill="#263238"/>
<path d="M276.013 85.4237C274.469 93.0825 264.716 128.692 256.104 135.522C250.176 140.227 225.427 151.379 211.219 155.617C207.467 156.726 200.855 127.812 206.037 126.153C212.597 124.081 238.164 114.297 242.31 112.048C246.3 109.903 257.13 91.5072 267.649 79.4127C273.049 73.1945 277.64 77.3711 276.013 85.4237Z" fill="#EB9481"/>
<path d="M213.716 154.706C210.389 156.032 191.952 162.116 187.267 162.447C182.583 162.779 169.037 162.758 168.416 159.203C167.794 155.649 171.763 155.327 171.763 155.327C171.763 155.327 166.042 154.415 165.752 150.767C165.462 147.119 171.628 146.85 171.628 146.85C171.628 146.85 165.825 145.482 165.794 141.834C165.762 138.186 172.012 138.932 172.012 138.932C172.012 138.932 166.643 137.896 167.866 134.911C169.348 131.273 179.038 134.248 184.179 133.491C185.35 133.315 207.601 128.309 207.601 128.309L213.716 154.706Z" fill="#EB9481"/>
<path d="M171.493 138.88C178.624 141.046 182.116 140.766 189.184 138.818C189.319 138.818 189.412 138.984 189.267 139.036C182.521 141.564 178.188 142.549 171.369 139.222C171.037 139.056 171.151 138.766 171.493 138.88Z" fill="#263238"/>
<path d="M171.079 146.673C178.676 148.269 182.479 148 190.024 146.507C190.128 146.507 190.18 146.663 190.024 146.694C182.77 148.767 178.396 149.658 171.017 147.067C170.727 146.943 170.727 146.59 171.079 146.673Z" fill="#263238"/>
<path d="M172.147 155.244C179.619 156.28 183.786 156.135 190.936 153.752C190.971 153.738 191.009 153.738 191.043 153.753C191.077 153.768 191.104 153.795 191.118 153.829C191.132 153.864 191.131 153.902 191.117 153.936C191.102 153.97 191.074 153.997 191.04 154.011C183.982 157.12 178.78 157.348 172.137 155.472C171.691 155.348 171.681 155.172 172.147 155.244Z" fill="#263238"/>
<path d="M213.447 128.568C213.447 128.568 205.332 123.956 201.321 122.712C197.31 121.469 180.666 122.35 180.646 125.956C180.646 130.62 190.346 131.998 195.155 132.061C195.155 132.061 195.103 142.829 201.86 145.326C208.617 147.824 213.447 128.568 213.447 128.568Z" fill="#EB9481"/>
<path d="M181.06 127.241C184.107 131.501 190.47 131.159 195.165 131.573C195.235 131.575 195.303 131.593 195.364 131.627C195.424 131.66 195.476 131.708 195.514 131.767C195.552 131.825 195.575 131.892 195.581 131.961C195.587 132.03 195.576 132.1 195.549 132.164C195.828 136.683 197.538 142.973 201.622 145.45C201.641 145.467 201.655 145.49 201.66 145.516C201.665 145.541 201.661 145.567 201.649 145.59C201.637 145.613 201.617 145.631 201.593 145.642C201.57 145.652 201.543 145.654 201.518 145.647C196.782 143.575 194.605 137.543 194.616 132.579C189.786 132.237 183.392 132.288 181.019 127.262L181.06 127.241Z" fill="#263238"/>
<path d="M207.964 124.671L215.219 156.674C215.219 156.674 245.273 146.124 256.974 135.947C265.825 128.288 274.085 99.8184 276.24 87.4648C278.396 75.1112 272.883 72.3027 265.814 80.6869C258.746 89.0712 242.776 110.597 242.102 111.291C241.428 111.986 207.964 124.671 207.964 124.671Z" fill="#FF8B13"/>
<path d="M221.592 150.913C220.556 147.482 219.706 143.958 218.856 140.466C218.006 136.973 217.26 133.501 216.556 130.009C216.151 127.936 215.799 125.946 215.374 123.925C215.374 123.863 215.478 123.842 215.488 123.925C216.296 127.428 217.24 130.91 218.079 134.403C218.918 137.896 219.696 141.357 220.463 144.839C220.908 146.85 221.385 148.861 221.748 150.892C221.758 150.964 221.613 150.995 221.592 150.913Z" fill="#263238"/>
<path opacity="0.1" d="M276.229 87.5068C274.073 99.8604 265.803 128.33 256.952 135.989C248.993 142.87 232.576 149.949 222.876 153.773L271.368 76.231C275.41 74.749 277.762 78.708 276.229 87.5068Z" fill="black"/>
<path d="M259.812 121.148L259.087 137.45H310.792C310.792 137.45 303.537 94.43 289.318 79.6202C282.208 72.2101 274.052 72.9355 268.953 78.3143C267.668 79.6824 255.211 97.3008 253.718 105.26C252.464 112.359 259.812 121.148 259.812 121.148Z" fill="#EBEBEB"/>
<path d="M273.194 81.1436L270.634 91.6524C269.794 95.1554 268.996 98.6687 268.271 102.192C267.545 105.716 266.737 109.26 267.659 112.681C268.503 116.119 270.033 119.352 272.157 122.184L272.261 122.308V122.454C272.313 124.868 272.261 127.273 272.261 129.708C272.261 132.144 272.261 134.538 272.157 136.963C271.971 134.545 271.808 132.126 271.67 129.708C271.567 127.293 271.401 124.889 271.328 122.454L271.421 122.723C269.156 119.812 267.509 116.469 266.582 112.898C266.144 111.083 266.056 109.201 266.323 107.354C266.571 105.54 266.913 103.757 267.297 101.995C268.043 98.4511 269.007 94.9688 269.971 91.4866C270.934 88.0044 272.064 84.574 273.194 81.1436Z" fill="#263238"/>
<path d="M266.447 95.2381C266.432 95.4659 266.504 95.691 266.648 95.8679C266.792 96.0449 266.998 96.1605 267.225 96.1915C267.335 96.1943 267.444 96.1749 267.547 96.1343C267.649 96.0938 267.742 96.033 267.821 95.9556C267.899 95.8782 267.961 95.7857 268.003 95.6838C268.045 95.5819 268.065 95.4726 268.064 95.3624C268.082 95.1341 268.011 94.9076 267.866 94.7301C267.722 94.5526 267.514 94.4376 267.287 94.409C267.177 94.4062 267.067 94.4256 266.965 94.4662C266.862 94.5067 266.769 94.5675 266.691 94.6449C266.612 94.7223 266.55 94.8148 266.509 94.9167C266.467 95.0186 266.446 95.1279 266.447 95.2381Z" fill="#263238"/>
<path d="M264.012 105.477C263.997 105.704 264.069 105.928 264.213 106.103C264.358 106.278 264.564 106.392 264.789 106.42C264.899 106.423 265.009 106.404 265.111 106.363C265.214 106.323 265.307 106.262 265.385 106.184C265.463 106.107 265.525 106.014 265.567 105.913C265.609 105.811 265.63 105.701 265.628 105.591C265.643 105.365 265.571 105.141 265.427 104.965C265.282 104.79 265.077 104.677 264.851 104.648C264.741 104.644 264.63 104.662 264.527 104.702C264.424 104.742 264.33 104.803 264.252 104.881C264.173 104.958 264.111 105.051 264.07 105.154C264.029 105.257 264.009 105.367 264.012 105.477Z" fill="#263238"/>
<path d="M264.735 115.53C264.72 115.757 264.792 115.981 264.937 116.156C265.081 116.331 265.287 116.445 265.513 116.474C265.623 116.476 265.732 116.457 265.835 116.416C265.937 116.376 266.03 116.315 266.109 116.238C266.187 116.16 266.249 116.068 266.291 115.966C266.333 115.864 266.354 115.755 266.352 115.644C266.367 115.418 266.295 115.194 266.151 115.019C266.006 114.843 265.8 114.73 265.575 114.701C265.464 114.697 265.354 114.715 265.251 114.755C265.148 114.795 265.054 114.856 264.975 114.934C264.897 115.012 264.835 115.105 264.794 115.207C264.752 115.31 264.732 115.42 264.735 115.53Z" fill="#263238"/>
<path d="M268.498 123.469C268.48 123.697 268.551 123.924 268.696 124.101C268.84 124.279 269.048 124.394 269.275 124.422C269.385 124.425 269.495 124.406 269.597 124.365C269.7 124.325 269.793 124.264 269.871 124.187C269.95 124.109 270.012 124.017 270.053 123.915C270.095 123.813 270.116 123.704 270.115 123.593C270.13 123.366 270.058 123.14 269.914 122.963C269.77 122.787 269.563 122.671 269.337 122.64C269.227 122.637 269.118 122.657 269.015 122.697C268.913 122.738 268.82 122.798 268.741 122.876C268.663 122.953 268.601 123.046 268.559 123.148C268.517 123.25 268.496 123.359 268.498 123.469Z" fill="#263238"/>
<path d="M268.487 132.641C268.472 132.867 268.544 133.091 268.689 133.267C268.833 133.442 269.039 133.555 269.265 133.584C269.375 133.587 269.484 133.567 269.587 133.527C269.689 133.486 269.782 133.425 269.861 133.348C269.939 133.27 270.001 133.178 270.043 133.076C270.085 132.974 270.105 132.865 270.104 132.755C270.119 132.528 270.047 132.304 269.903 132.129C269.758 131.954 269.552 131.84 269.327 131.812C269.216 131.807 269.106 131.826 269.003 131.866C268.9 131.906 268.806 131.967 268.727 132.044C268.649 132.122 268.587 132.215 268.545 132.318C268.504 132.42 268.484 132.53 268.487 132.641Z" fill="#263238"/>
<path d="M281.485 74.5625C281.485 74.5625 279.111 106.193 279.111 110.773C279.111 115.354 285.05 158.281 285.05 158.281L320.141 157.037C320.141 157.037 302.098 100.627 296.201 89.165C289.672 76.428 281.485 74.5625 281.485 74.5625Z" fill="#FF8B13"/>
<path d="M269.732 77.1841C270.023 76.9457 262.478 98.948 262.208 108.648C261.939 118.349 262.208 157.628 262.208 157.628L252.643 154.881L259.275 121.386C259.275 121.386 252.487 113.333 253.244 105.84C254 98.3469 267.846 78.7386 269.732 77.1841Z" fill="#FF8B13"/>
<path d="M278.894 185.838C282.003 187.911 287.185 178.697 288.946 176.718C290.708 174.738 291.465 174.801 291.372 176.314L295.382 160.354C293.31 161.97 288.884 165.452 286.532 167.733C283.381 170.79 275.805 183.745 278.894 185.838Z" fill="#EB9481"/>
<path d="M293.537 80.4495C306.627 90.9999 331.883 113.396 334.941 125.48C337.19 134.528 324.515 166.935 320.628 174.418C318.939 177.682 294.802 164.251 295.382 160.354C295.786 157.66 308.441 132.818 308.596 129.874C308.751 126.931 290.086 99.0421 285.454 90.1811C278.51 76.9155 282.417 71.4745 293.537 80.4495Z" fill="#EB9481"/>
<path d="M281.091 194.999C283.163 197.248 287.309 194.523 287.309 194.523C287.309 194.523 283.599 199.114 286.5 200.896C289.402 202.679 293.382 198.761 293.382 198.761C293.382 198.761 290.19 203.166 293.216 204.731C296.242 206.296 300.16 202.876 300.16 202.876C300.16 202.876 299.942 204.575 302.585 204.71C306.368 204.938 311.757 198.792 313.83 194.927C315.902 191.061 320.576 175.35 321.25 172.935L296.512 159.462L295.361 160.332L291.351 176.293C291.278 177.329 288.449 183.413 287.423 185.174C285.122 189.164 278.779 192.481 281.091 194.999Z" fill="#EB9481"/>
<path d="M287.463 194.295C293.008 190.098 294.718 187.3 297.112 180.884C297.164 180.76 297.36 180.801 297.319 180.936C295.536 187.434 293.909 191.248 287.65 194.575C287.349 194.73 287.194 194.502 287.463 194.295Z" fill="#263238"/>
<path d="M293.124 198.876C298.503 194.005 300.379 190.989 303.395 184.46C303.395 184.367 303.592 184.46 303.56 184.522C301.135 191.176 299.415 194.948 293.414 199.114C293.145 199.311 292.886 199.114 293.124 198.876Z" fill="#263238"/>
<path d="M300.19 202.783C305.061 197.695 307.258 194.492 309.372 187.756C309.38 187.723 309.402 187.694 309.431 187.677C309.46 187.659 309.495 187.654 309.528 187.663C309.561 187.671 309.589 187.692 309.607 187.721C309.624 187.75 309.629 187.785 309.621 187.818C308.129 194.876 305.475 198.918 300.366 202.908C300.014 203.187 299.889 203.105 300.19 202.783Z" fill="#263238"/>
<path d="M294.026 158.457L324.599 172.127C324.599 172.127 339.346 134.993 335.346 123.583C331.563 112.784 307.447 91.2169 294.927 81.2055C280.532 69.6602 277.848 79.0187 285.548 91.393C293.031 103.415 306.939 128.879 307.312 130.34C307.83 132.216 294.026 158.457 294.026 158.457Z" fill="#FF8B13"/>
<path d="M289.775 100.057C293.392 105.664 296.864 111.385 300.263 117.127C301.973 120.018 303.673 122.93 305.362 125.832C305.787 126.558 307.735 129.667 307.818 130.382C307.953 131.688 296.117 155.255 294.128 158.364C294.252 158.364 295.464 159.079 295.672 159.162C295.879 159.245 295.724 159.349 295.672 159.307C294.962 159.117 294.269 158.871 293.599 158.571C293.599 158.571 307.072 131.107 307.072 130.734C307.01 129.978 305.351 127.293 304.937 126.589C301.6 121.013 298.301 115.417 295.04 109.799L294.221 108.348C293.568 107.696 292.956 106.98 292.376 106.276C291.62 105.35 290.927 104.373 290.303 103.353C290.294 103.339 290.29 103.322 290.293 103.306C290.296 103.289 290.305 103.275 290.319 103.265C290.333 103.255 290.35 103.252 290.366 103.255C290.383 103.257 290.397 103.267 290.407 103.281C291.184 104.172 291.93 105.094 292.677 106.017L293.454 106.96C292.169 104.7 290.904 102.427 289.661 100.14C289.599 100.057 289.775 99.9642 289.775 100.057Z" fill="#263238"/>
<path d="M299.6 153.275C303.061 154.456 306.44 155.907 309.819 157.306C313.197 158.706 316.493 160.177 319.789 161.701C321.696 162.571 323.571 163.504 325.489 164.375C325.551 164.375 325.489 164.509 325.489 164.489C322.131 163.048 318.711 161.732 315.332 160.343C311.954 158.954 308.596 157.42 305.321 155.969C303.393 155.13 301.455 154.311 299.579 153.379C299.57 153.362 299.567 153.342 299.571 153.323C299.575 153.304 299.585 153.287 299.6 153.275Z" fill="#263238"/>
<path d="M280.914 75.5989C280.603 76.6353 275.245 82.8536 270.55 82.3146C269.037 82.1281 269.68 73.8164 269.68 73.8164L269.586 73.1945L268.291 64.4475L278.872 58.706L280.448 57.9287C280.448 57.9287 280.645 60.3435 280.862 63.3593V63.7842C280.862 63.9604 280.862 64.1159 280.862 64.2713C280.862 64.7273 280.935 65.1833 280.956 65.6394C280.976 66.0954 281.007 66.3337 281.018 66.6757C281.028 67.0177 281.018 67.4012 281.018 67.7639C281.169 70.3747 281.135 72.993 280.914 75.5989Z" fill="#EB9481"/>
<path d="M280.851 63.38C279.804 65.7316 278.257 67.8272 276.319 69.5219C274.381 71.2165 272.098 72.4697 269.628 73.1945L268.332 64.4475L278.913 58.706L280.447 57.9287C280.447 57.9287 280.634 60.3642 280.851 63.38Z" fill="#263238"/>
<path d="M256.331 51.3064C254.414 66.6966 263.42 69.5881 266.695 69.9612C269.711 70.3343 280.013 71.2256 283.516 56.1048C287.018 40.9841 280.458 35.2426 273.618 34.03C266.778 32.8175 258.249 35.9162 256.331 51.3064Z" fill="#EB9481"/>
<path d="M283.009 55.5655C279.278 55.1717 279.982 49.3472 279.982 49.3472C279.982 49.3472 275.837 48.4663 276.272 41.6055C275.293 42.8844 274.029 43.9175 272.581 44.6227C271.133 45.3279 269.54 45.6858 267.929 45.6681C266.696 45.6681 271.132 43.0253 271.132 43.0253C271.132 43.0253 265.743 46.8807 256.882 44.155C256.249 43.9581 258.125 33.5632 265.608 31.1277C273.09 28.6923 279.868 32.2885 283.744 37.2735C283.744 37.2735 289.009 41.419 289.03 46.435C289.051 51.4511 284.459 55.721 283.009 55.5655Z" fill="#263238"/>
<path d="M279.597 56.0117C279.597 56.0117 283.162 51.2962 285.318 52.5813C287.474 53.8664 284.655 60.7894 282.043 61.6496C281.717 61.7853 281.366 61.8531 281.013 61.8489C280.659 61.8446 280.31 61.7684 279.988 61.6249C279.665 61.4813 279.374 61.2735 279.134 61.014C278.894 60.7546 278.71 60.4489 278.592 60.1158L279.597 56.0117Z" fill="#EB9481"/>
<path d="M284.46 54.5503C284.46 54.5503 284.512 54.5503 284.46 54.6125C283.618 54.9979 282.865 55.5545 282.249 56.2468C281.634 56.9391 281.169 57.7519 280.885 58.6336C280.996 58.4564 281.144 58.3056 281.32 58.1917C281.495 58.0777 281.694 58.0034 281.901 57.9738C282.108 57.9442 282.319 57.9601 282.519 58.0203C282.72 58.0806 282.904 58.1838 283.061 58.3227C283.113 58.3227 283.061 58.4263 283.061 58.416C282.748 58.301 282.406 58.2872 282.085 58.3764C281.763 58.4656 281.477 58.6535 281.268 58.9134C280.915 59.344 280.613 59.8134 280.366 60.3125C280.273 60.468 279.983 60.3747 280.055 60.1882C280.066 57.846 281.983 54.685 284.46 54.5503Z" fill="#263238"/>
<path d="M258.808 48.6015C259.172 48.5945 259.535 48.5668 259.896 48.5186C260.264 48.5367 260.627 48.4348 260.932 48.2284C261.021 48.1429 261.079 48.0299 261.096 47.9077C261.113 47.7855 261.088 47.6612 261.025 47.5547C260.873 47.3611 260.672 47.2118 260.442 47.1225C260.212 47.0332 259.963 47.0071 259.72 47.0469C259.212 47.0562 258.725 47.2516 258.352 47.5962C258.273 47.6831 258.221 47.7912 258.203 47.9071C258.184 48.0231 258.201 48.1419 258.249 48.2488C258.297 48.3557 258.376 48.4461 258.475 48.5088C258.575 48.5714 258.69 48.6037 258.808 48.6015Z" fill="#263238"/>
<path d="M269.255 49.6377C268.892 49.5444 268.571 49.3993 268.218 49.2749C267.84 49.1969 267.497 48.9966 267.244 48.7049C267.185 48.5975 267.162 48.474 267.179 48.3527C267.196 48.2313 267.251 48.1186 267.337 48.0313C267.538 47.8874 267.773 47.7991 268.019 47.7755C268.264 47.7518 268.512 47.7936 268.736 47.8966C269.217 48.04 269.63 48.353 269.897 48.7775C269.951 48.8768 269.976 48.9895 269.968 49.1022C269.96 49.215 269.919 49.323 269.852 49.4136C269.784 49.5041 269.692 49.5734 269.586 49.6131C269.48 49.6528 269.365 49.6614 269.255 49.6377Z" fill="#263238"/>
<path d="M266.561 52.3115C266.561 52.3115 266.644 52.3737 266.633 52.4152C266.436 53.4515 266.384 54.7055 267.286 55.203C267.286 55.203 267.286 55.2756 267.286 55.2652C266.125 54.9128 266.208 53.2754 266.561 52.3115Z" fill="#263238"/>
<path d="M267.679 51.3578C269.4 51.4925 268.996 54.9125 267.41 54.7882C265.824 54.6638 266.239 51.2438 267.679 51.3578Z" fill="#263238"/>
<path d="M268.333 51.617C268.602 51.845 268.861 52.2181 269.213 52.301C269.566 52.3839 269.98 52.0627 270.25 51.7518H270.302C270.229 52.4047 269.897 53.0472 269.182 53.0679C268.467 53.0887 268.146 52.4461 268.053 51.7621C268.094 51.7103 268.219 51.5238 268.333 51.617Z" fill="#263238"/>
<path d="M260.757 51.1196C260.757 51.1196 260.663 51.1196 260.663 51.2129C260.58 52.2493 260.311 53.4826 259.306 53.7313C260.477 53.7831 260.829 52.1456 260.757 51.1196Z" fill="#263238"/>
<path d="M259.906 49.9072C258.217 49.5963 257.709 53.0163 259.274 53.2961C260.839 53.5759 261.326 50.1766 259.906 49.9072Z" fill="#263238"/>
<path d="M259.16 50.0314C258.859 50.1661 258.548 50.4563 258.227 50.4355C257.906 50.4148 257.626 49.9899 257.439 49.6064C257.439 49.6064 257.388 49.6064 257.377 49.6064C257.263 50.249 257.377 50.9641 257.989 51.1817C258.6 51.3994 259.025 50.8812 259.294 50.2594C259.346 50.1661 259.284 49.9692 259.16 50.0314Z" fill="#263238"/>
<path d="M265.555 61.2763C265.286 61.5043 265.006 61.8256 264.612 61.836C264.219 61.7965 263.838 61.6766 263.493 61.4836C263.493 61.4836 263.42 61.4836 263.441 61.4836C263.577 61.7043 263.77 61.8837 264 62.0025C264.23 62.1212 264.489 62.1747 264.747 62.1572C264.969 62.1172 265.174 62.0121 265.337 61.8553C265.499 61.6985 265.611 61.497 265.659 61.2763C265.68 61.266 265.597 61.2349 265.555 61.2763Z" fill="#263238"/>
<path d="M261.617 56.8923C261.617 56.8923 261.203 58.4469 261.099 59.1827C261.099 59.2553 261.275 59.3174 261.524 59.3589C262.148 59.5551 262.815 59.5768 263.45 59.4215C264.086 59.2662 264.667 58.9399 265.131 58.478C265.14 58.4637 265.144 58.447 265.144 58.4301C265.143 58.4132 265.138 58.3969 265.127 58.3833C265.117 58.3698 265.103 58.3597 265.087 58.3544C265.071 58.3491 265.054 58.3488 265.037 58.3536C264.003 58.8832 262.826 59.0649 261.68 58.8718C261.68 58.6542 262.488 56.229 262.374 56.2083C261.789 56.1854 261.203 56.2411 260.633 56.3741C261.41 53.1095 262.706 50.0004 263.452 46.7462C263.457 46.7332 263.459 46.7195 263.458 46.7057C263.458 46.692 263.454 46.6784 263.449 46.6659C263.443 46.6534 263.435 46.6422 263.425 46.6328C263.414 46.6235 263.403 46.6162 263.39 46.6115C263.377 46.6067 263.363 46.6045 263.349 46.6051C263.335 46.6056 263.322 46.6089 263.309 46.6146C263.297 46.6204 263.286 46.6286 263.276 46.6387C263.267 46.6488 263.26 46.6607 263.255 46.6736C261.765 49.9649 260.602 53.3945 259.783 56.913C259.721 57.3276 261.306 56.9649 261.617 56.8923Z" fill="#263238"/>
<path d="M261.637 59.0892C261.971 59.7512 262.471 60.3154 263.088 60.7266C263.428 60.9392 263.827 61.0406 264.228 61.0168C265.119 60.9546 265.264 60.1877 265.264 59.5037C265.246 59.1348 265.183 58.7694 265.077 58.4155C264.033 59.0042 262.826 59.2404 261.637 59.0892Z" fill="#263238"/>
<path d="M263.088 60.7271C263.429 60.9396 263.827 61.041 264.228 61.0173C265.119 60.9551 265.264 60.1882 265.264 59.5042C264.817 59.4311 264.357 59.5122 263.962 59.7345C263.566 59.9567 263.258 60.3067 263.088 60.7271Z" fill="#FF9BBC"/>
<path d="M269.607 75.0494L272.799 81.9827L281.142 72.6035L283.774 75.3499C283.774 75.3499 275.877 89.9939 275.794 89.3514L272.582 83.4026L268.581 87.8486L268.395 77.1843L269.607 75.0494Z" fill="#EBEBEB"/>
<path d="M268.187 82.5839C268.187 80.822 268.187 79.0498 268.311 77.288C268.311 77.2258 268.405 77.1947 268.425 77.288C268.861 78.9669 268.715 85.7034 268.809 87.3098C268.975 87.1232 272.529 83.3819 272.571 83.4441C273.244 84.3768 275.607 88.7089 275.773 89.1027C277.017 86.7812 281.826 78.314 283.328 76.0962C283.338 76.0862 283.351 76.0799 283.365 76.0781C283.379 76.0764 283.393 76.0793 283.405 76.0865C283.417 76.0937 283.426 76.1047 283.431 76.1177C283.436 76.1307 283.436 76.145 283.432 76.1583C282.396 78.6042 276.001 89.994 275.898 89.9732C274.669 87.9311 273.545 85.828 272.529 83.6721C271.255 85.342 269.87 86.9243 268.384 88.4083C268.213 86.4718 268.147 84.5275 268.187 82.5839Z" fill="#263238"/>
<path d="M144.11 175.039C142.722 173.919 142.908 174.987 143.685 178.054C144.577 181.588 153.013 189.755 149.272 192.17C143.996 195.548 133.819 178.915 132.182 173.878C130.533 168.628 130.07 163.078 130.824 157.627C134.151 160.84 144.11 175.039 144.11 175.039Z" fill="#AD6359"/>
<path d="M190.671 199.347L116.374 205.312L119.988 250.322L194.285 244.357L190.671 199.347Z" fill="#FFC727"/>
<path opacity="0.1" d="M190.666 199.351L116.369 205.316L118.071 226.514L192.368 220.549L190.666 199.351Z" fill="black"/>
<path d="M191.905 192.579L114.085 198.826L115.772 219.838L193.592 213.591L191.905 192.579Z" fill="#FFC727"/>
<path d="M168.414 182.408L169.378 194.399L163.74 194.844L163.19 188.025L141.696 189.756L142.245 196.575L136.607 197.021L135.644 185.04L168.414 182.408Z" fill="#263238"/>
<path d="M131.128 213.556L126.056 213.963L126.861 223.994L131.933 223.587L131.128 213.556Z" fill="#263238"/>
<path d="M182.503 209.437L177.431 209.844L178.236 219.875L183.308 219.467L182.503 209.437Z" fill="#263238"/>
<path d="M154.796 146.249C160.393 154.685 167.865 164.841 168.476 176.231C168.579 177.497 168.25 178.761 167.544 179.817C167.917 184.926 165.616 186.626 165.616 186.626C164.497 191.486 161.906 192.906 161.906 192.906C161.906 192.906 161.978 197.052 158.797 197.052C155.615 197.052 154.983 192.077 152.236 187.248C145.956 176.2 132.991 160.613 130.866 157.607L154.796 146.249Z" fill="#AD6359"/>
<path d="M153.739 171.039C155.614 174.253 157.269 177.591 158.693 181.029C160.023 184.888 161.062 188.841 161.802 192.854C161.808 192.875 161.822 192.893 161.839 192.906C161.857 192.919 161.878 192.926 161.9 192.926C161.922 192.926 161.943 192.919 161.961 192.906C161.979 192.893 161.992 192.875 161.999 192.854C161.355 184.963 158.559 177.399 153.915 170.987C153.78 170.811 153.656 170.894 153.739 171.039Z" fill="#263238"/>
<path d="M159.864 166.282C161.418 169.577 164.123 175.391 165.481 186.667H165.553C165.645 179.466 163.729 172.382 160.019 166.209C159.905 166.012 159.76 166.064 159.864 166.282Z" fill="#263238"/>
<path d="M163.201 163.784C165.636 169.495 166.455 173.402 167.512 179.817C167.512 179.817 167.585 179.817 167.574 179.817C167.139 172.386 166.144 169.744 163.429 163.67C163.335 163.463 163.107 163.556 163.201 163.784Z" fill="#263238"/>
<path d="M155.511 147.326C153.77 143.979 142.432 122.329 138.37 115.997C137.012 113.924 130.369 91.8595 125.114 77.8684C121.922 69.3701 114.699 67.3803 113.714 80.1691C113.061 88.968 115.517 117.23 117.974 126.806C119.922 134.32 128.773 153.866 130.783 157.628C132.732 161.172 157.242 150.643 155.511 147.326Z" fill="#AD6359"/>
<path d="M128.098 157.576L155.603 146.249C155.603 146.249 141.011 119.573 138.347 114.204C135.684 108.836 130.709 91.6215 125.579 78.6046C120.449 65.5877 114.179 71.2671 113.568 78.7808C112.956 86.9163 114.894 116.816 116.957 126.454C119.019 136.092 128.098 157.576 128.098 157.576Z" fill="#FFC727"/>
<path d="M155.605 146.248L148.993 148.974L128.099 157.576C128.099 157.576 119.01 136.123 116.958 126.485C114.906 116.846 112.958 86.9261 113.569 78.8113C113.963 73.5569 117.165 69.2041 120.824 71.5049C122.389 72.5412 124.047 74.7176 125.591 78.6351C130.773 91.652 135.696 108.877 138.359 114.235C141.023 119.593 155.605 146.248 155.605 146.248Z" fill="#9FC5EF"/>
<path opacity="0.1" d="M148.993 148.974L128.099 157.576C128.099 157.576 119.01 136.123 116.958 126.485C114.906 116.846 112.958 86.9261 113.569 78.8113C113.963 73.5569 117.165 69.2041 120.824 71.5049L148.993 148.974Z" fill="black"/>
<path d="M126.451 151.078C129.56 149.451 132.794 148.052 135.996 146.622C139.198 145.192 142.401 143.875 145.634 142.58C147.5 141.834 149.386 141.139 151.251 140.383C151.314 140.383 151.355 140.466 151.251 140.486C148.028 141.875 144.847 143.388 141.644 144.808C138.442 146.228 135.25 147.586 132.047 148.954C130.192 149.731 128.337 150.539 126.461 151.244C126.439 151.245 126.418 151.238 126.401 151.223C126.385 151.209 126.375 151.188 126.373 151.166C126.372 151.144 126.379 151.123 126.394 151.106C126.408 151.09 126.429 151.08 126.451 151.078Z" fill="#263238"/>
<path d="M100.386 324.102C100.386 324.102 100.386 366.282 100.386 366.313C100.386 374.376 100.448 381.444 100.842 385.103C100.837 385.123 100.837 385.144 100.842 385.165C100.843 386.027 101.042 386.878 101.422 387.652C101.422 387.652 101.422 387.652 101.474 387.704C103.868 389.341 168.31 391.549 170.58 390.865C172.849 390.181 171.098 383.662 168.662 381.538C166.227 379.413 141.924 367.578 141.924 367.578L141.571 325.459L100.386 324.102Z" fill="#AD6359"/>
<path d="M100.396 357.648V366.313C100.396 374.376 100.459 381.444 100.852 385.102C100.848 385.122 100.848 385.144 100.852 385.164C100.949 386.013 101.144 386.848 101.433 387.652C101.433 387.652 101.433 387.652 101.485 387.703C103.879 389.341 168.321 391.548 170.59 390.864C172.86 390.18 171.108 383.661 168.673 381.537C166.237 379.412 141.934 367.577 141.934 367.577L142.059 358.788L100.396 357.648Z" fill="white"/>
<path d="M170.591 390.875C168.311 391.549 103.869 389.352 101.475 387.704C100.552 387.092 100.324 377.682 100.376 366.313V365.95L141.966 366.914V367.619C141.966 367.619 166.248 379.496 168.694 381.579C171.14 383.662 172.881 390.201 170.591 390.875Z" fill="#A6A6A6"/>
<path d="M169.957 388.346C159.106 387.703 115.267 386.159 104.489 386.356C104.406 386.356 104.406 386.408 104.489 386.418C115.236 387.289 159.085 388.491 169.957 388.491C170.185 388.532 170.195 388.356 169.957 388.346Z" fill="#263238"/>
<path d="M145.437 367.857C141.188 366.914 135.944 367.391 132.576 370.334C132.441 370.448 132.576 370.624 132.741 370.583C136.873 369.408 141.119 368.678 145.406 368.406C145.471 368.398 145.531 368.367 145.575 368.32C145.62 368.272 145.646 368.21 145.65 368.145C145.653 368.079 145.634 368.015 145.595 367.962C145.556 367.91 145.5 367.873 145.437 367.857Z" fill="#263238"/>
<path d="M148.464 369.878C144.215 368.935 138.96 369.412 135.592 372.344C135.457 372.458 135.592 372.645 135.768 372.604C139.896 371.425 144.138 370.692 148.422 370.417C148.494 370.422 148.564 370.399 148.619 370.353C148.673 370.306 148.707 370.24 148.712 370.168C148.718 370.097 148.695 370.026 148.648 369.971C148.602 369.917 148.535 369.883 148.464 369.878Z" fill="#263238"/>
<path d="M151.479 371.795C147.24 370.852 141.986 371.329 138.618 374.261C138.483 374.375 138.618 374.552 138.783 374.521C142.914 373.338 147.16 372.605 151.448 372.334C151.519 372.338 151.59 372.313 151.643 372.266C151.696 372.218 151.729 372.151 151.733 372.08C151.737 372.008 151.713 371.938 151.665 371.885C151.617 371.831 151.55 371.799 151.479 371.795Z" fill="#263238"/>
<path d="M98.3039 293.777L98.3142 294.254L99.247 368.085L144.36 367.183L135.095 142.083H96.998L98.3039 293.777Z" fill="#37474F"/>
<path d="M142.474 359.659C135.427 359.597 137.448 359.514 130.411 359.535C126.96 359.535 104.315 359.618 101.102 360.198C101.089 360.204 101.077 360.213 101.069 360.225C101.061 360.237 101.057 360.251 101.057 360.266C101.057 360.28 101.061 360.294 101.069 360.306C101.077 360.318 101.089 360.328 101.102 360.333C104.325 360.83 127.012 360.333 130.411 360.281C137.458 360.136 135.437 360.095 142.474 359.867C142.609 359.867 142.609 359.659 142.474 359.659Z" fill="#263238"/>
<path d="M106.893 334.641C106.811 327.898 106.703 321.155 106.572 314.411C106.317 300.918 106.068 287.424 105.826 273.93C105.329 247.088 104.893 220.246 104.52 193.404C104.292 178.263 104.303 163.111 103.909 147.969C103.909 147.969 103.909 147.969 103.847 147.969C103.598 161.442 103.753 174.915 103.774 188.46C103.795 202.006 103.857 215.406 103.981 228.941C104.251 255.794 104.624 282.636 105.256 309.478C105.432 317.054 105.619 324.62 105.878 332.196C106.137 339.771 106.313 347.337 106.842 354.892C106.842 354.917 106.851 354.941 106.869 354.958C106.886 354.976 106.91 354.985 106.935 354.985C106.96 354.985 106.983 354.976 107.001 354.958C107.018 354.941 107.028 354.917 107.028 354.892C107.153 348.114 106.987 341.367 106.893 334.641Z" fill="#263238"/>
<path d="M96.9854 142.538L97.9906 257.483L128.533 142.093H96.9957L96.9854 142.538Z" fill="#263238"/>
<path d="M30.1205 303.011C30.1205 303.011 8.35655 338.372 8.35655 338.403C4.8225 345.658 1.8481 352.073 0.62518 355.535C0.245776 356.315 0.0575023 357.175 0.0759022 358.043C0.0710534 358.063 0.0710534 358.085 0.0759022 358.105C1.52683 360.623 58.6415 390.554 60.9838 390.927C63.326 391.3 64.58 384.647 63.2845 381.724C61.989 378.801 45.1894 357.597 45.1894 357.597L66.5802 322.07L30.1205 303.011Z" fill="#AD6359"/>
<path d="M0.042699 358.094C0.0378503 358.115 0.0378503 358.136 0.042699 358.156C1.49363 360.675 58.6083 390.605 60.9506 390.978C63.2928 391.351 64.5364 384.698 63.2617 381.775C61.9869 378.853 45.1873 357.597 45.1873 357.597L49.0011 351.254C39.6737 346.279 22.6979 337.543 12.1579 332.123L8.30262 338.403C4.76858 345.658 1.79417 352.062 0.571245 355.534C0.566752 355.555 0.566752 355.576 0.571245 355.596C0.198707 356.375 0.017503 357.231 0.042699 358.094Z" fill="white"/>
<path d="M60.9617 390.979C58.6609 390.606 1.50475 360.675 0.053826 358.157C-0.505817 357.203 3.37023 348.632 8.34484 338.403C8.34484 338.3 8.44848 338.186 8.51066 338.082L45.5715 356.986L45.2295 357.597C45.2295 357.597 61.9566 378.832 63.2624 381.776C64.5683 384.719 63.3039 391.362 60.9617 390.979Z" fill="#A6A6A6"/>
<path d="M61.4789 388.429C51.9753 383.144 13.1422 362.738 3.34849 358.24C3.26558 358.24 3.24485 358.24 3.34849 358.302C12.6759 363.743 51.6436 383.828 61.3856 388.585C61.6032 388.688 61.6758 388.533 61.4789 388.429Z" fill="#263238"/>
<path d="M48.2975 359.338C44.8775 356.643 39.934 354.798 35.633 355.98C35.4568 355.98 35.5294 356.26 35.633 356.28C39.8643 357.013 44.0056 358.194 47.9866 359.804C48.0485 359.845 48.1241 359.86 48.197 359.846C48.2699 359.831 48.334 359.788 48.3753 359.726C48.4165 359.664 48.4315 359.589 48.4169 359.516C48.4023 359.443 48.3594 359.379 48.2975 359.338Z" fill="#263238"/>
<path d="M50.1327 362.416C46.7126 359.721 41.7795 357.877 37.4681 359.058C37.3023 359.058 37.3749 359.338 37.4681 359.369C41.7028 360.096 45.8476 361.274 49.8321 362.882C49.894 362.922 49.9691 362.936 50.041 362.92C50.1129 362.905 50.1757 362.861 50.2156 362.799C50.2554 362.737 50.2691 362.662 50.2535 362.59C50.238 362.518 50.1945 362.456 50.1327 362.416Z" fill="#263238"/>
<path d="M52.0075 365.494C48.5874 362.799 43.6439 360.955 39.343 362.136C39.1668 362.188 39.2393 362.426 39.343 362.447C43.5754 363.175 47.7172 364.356 51.6966 365.971C51.7598 366.012 51.8368 366.026 51.9107 366.011C51.9845 365.995 52.0492 365.951 52.0904 365.888C52.1316 365.825 52.1461 365.748 52.1305 365.674C52.115 365.6 52.0707 365.535 52.0075 365.494Z" fill="#263238"/>
<path d="M129.943 142.051C129.778 142.829 127.114 155.193 124.357 165.805C122.347 173.568 120.284 180.377 119.093 181.081C117.901 181.786 111.206 184.781 109.019 185.683C109.019 185.683 94.3024 259.141 86.5399 281.91C79.3682 302.928 49.7071 359.11 49.7071 359.11L6.67676 337.346C6.67676 337.346 40.2865 280.345 43.8101 270.096C49.2926 254.239 69.8128 176.822 69.8128 176.822C69.8128 176.822 69.6574 152.581 77.824 142L129.943 142.051Z" fill="#37474F"/>
<path d="M49.0638 350.756C42.9181 347.326 44.7317 348.217 38.5446 344.849C35.508 343.211 15.6096 332.412 12.5108 331.376C12.4486 331.376 12.3864 331.459 12.4486 331.511C15.0396 333.49 35.1349 343.947 38.1922 345.533C44.4105 348.787 42.6797 347.782 48.9705 350.963C48.9841 350.97 48.9988 350.973 49.0137 350.973C49.0287 350.974 49.0435 350.971 49.0575 350.966C49.0714 350.961 49.0842 350.953 49.0951 350.943C49.1059 350.932 49.1147 350.92 49.1208 350.906C49.1269 350.893 49.1303 350.878 49.1308 350.863C49.1312 350.848 49.1287 350.834 49.1234 350.82C49.1181 350.806 49.1101 350.793 49.0999 350.782C49.0897 350.771 49.0774 350.762 49.0638 350.756Z" fill="#263238"/>
<path d="M80.8502 170.126C82.0213 169.826 83.2857 169.732 84.4879 169.546C85.4621 169.39 86.4259 169.214 87.3794 169.007C89.2237 168.673 90.9717 167.937 92.4991 166.851C94.1676 165.556 95.0071 163.587 95.8155 161.669C96.2922 160.55 96.7897 159.431 97.2872 158.322C97.5255 157.783 97.7742 157.286 98.023 156.705C98.3632 156.082 98.6643 155.438 98.9246 154.778C98.9246 154.674 99.1112 154.778 99.0801 154.778C98.9154 155.232 98.777 155.696 98.6655 156.166C98.4997 156.705 98.3443 157.203 98.1784 157.793C97.8779 158.757 97.5877 159.721 97.2768 160.685C96.7912 162.448 96.0952 164.146 95.204 165.742C93.4215 168.572 90.2502 169.712 87.0788 170.116C86.1668 170.23 85.2445 170.292 84.3324 170.344C83.1775 170.447 82.0155 170.447 80.8606 170.344C80.8329 170.315 80.8165 170.277 80.8146 170.237C80.8127 170.197 80.8254 170.158 80.8502 170.126Z" fill="#263238"/>
<path d="M122.564 179.392C117.9 181.091 113.392 183.192 109.091 185.672C109.061 185.693 109.039 185.723 109.029 185.758C109.018 185.793 109.021 185.831 109.036 185.864C109.051 185.898 109.077 185.925 109.11 185.941C109.143 185.957 109.18 185.961 109.215 185.952C113.755 184.004 118.387 182.128 122.823 179.931C122.887 179.892 122.933 179.831 122.954 179.759C122.975 179.688 122.969 179.611 122.937 179.544C122.905 179.477 122.849 179.425 122.78 179.396C122.711 179.368 122.634 179.367 122.564 179.392Z" fill="#263238"/>
<path d="M123.953 148.27C123.953 148.114 123.663 148.083 123.663 148.27C123.671 153.333 123.422 158.394 122.917 163.432C122.709 165.774 120.844 178.708 116.76 177.765C116.087 177.599 115.724 176.936 115.631 175.91C115.647 174.57 115.828 173.236 116.17 171.94C116.626 169.239 116.971 166.52 117.206 163.784C117.68 158.693 117.624 153.567 117.04 148.487C117.032 148.459 117.015 148.434 116.992 148.417C116.969 148.399 116.94 148.39 116.911 148.39C116.881 148.39 116.853 148.399 116.83 148.417C116.806 148.434 116.789 148.459 116.781 148.487C116.896 155.549 116.48 162.609 115.538 169.609C115.03 172.977 113.34 178.034 116.854 178.553C120.367 179.071 122.761 170.604 123.196 168.282C124.312 161.672 124.567 154.945 123.953 148.27Z" fill="#263238"/>
<path d="M116.844 178.148C116.478 179.021 116.174 179.918 115.932 180.833C115.667 181.538 115.537 182.287 115.549 183.04C115.561 183.066 115.581 183.089 115.606 183.104C115.631 183.12 115.659 183.128 115.688 183.128C115.718 183.128 115.746 183.12 115.771 183.104C115.796 183.089 115.816 183.066 115.828 183.04C116.253 182.379 116.571 181.655 116.772 180.895C117.082 180.066 117.404 179.247 117.694 178.407C117.701 178.305 117.673 178.203 117.614 178.118C117.556 178.033 117.47 177.97 117.372 177.94C117.273 177.91 117.168 177.914 117.072 177.952C116.976 177.99 116.896 178.059 116.844 178.148Z" fill="#263238"/>
<path d="M18.2432 330.268C24.3681 318.733 30.6797 307.312 37.0223 295.891C40.1314 290.264 43.4064 284.698 46.3497 278.998C49.1593 273.348 51.4387 267.45 53.1587 261.38C56.9518 249.068 60.5411 236.693 63.9266 224.257C67.3121 211.82 70.4938 199.335 73.4717 186.802C74.2179 183.693 75.0366 180.532 75.6377 177.361C76.1818 174.164 76.1818 170.898 75.6377 167.702C75.1786 164.726 75.1541 161.699 75.5652 158.716C76.0316 155.738 76.7245 152.8 77.6379 149.928C78.1146 148.415 78.6743 146.912 79.151 145.409C79.1677 145.381 79.1932 145.36 79.2235 145.348C79.2539 145.336 79.2872 145.335 79.3183 145.345C79.3494 145.354 79.3763 145.374 79.3949 145.401C79.4134 145.427 79.4224 145.46 79.4205 145.492C77.5654 151.555 75.6584 157.701 76.0626 164.147C76.2492 167.256 77.099 170.272 77.0161 173.381C76.8193 176.471 76.2982 179.531 75.4615 182.511C72.5251 195.114 69.3814 207.671 66.0305 220.184C62.6795 232.696 59.1282 245.133 55.3765 257.493C53.5525 263.525 51.8425 269.64 49.2516 275.392C46.6606 281.143 43.3649 286.595 40.2765 292.098C33.8821 303.498 27.4358 314.815 20.8445 326.07C20.0154 327.501 19.1655 328.92 18.3261 330.34C18.3675 330.496 18.2432 330.361 18.2432 330.268Z" fill="#263238"/>
<path d="M135.022 145.295C134.068 146.331 73.15 147.482 72.8391 147.098C71.9374 146.062 87.5349 83.1539 101.567 71.5258C104.583 69.0281 115.517 69.536 117.02 70.3651C120.512 72.2927 123.694 76.1999 126.14 83.268C131.032 97.4249 135.851 144.342 135.022 145.295Z" fill="#9FC5EF"/>
<path d="M133.695 124.101C132.935 117.676 132.026 111.267 130.969 104.876C130.979 104.867 130.984 104.854 130.984 104.84C130.984 104.827 130.979 104.814 130.969 104.804C130.876 102.949 130.741 101.094 130.513 99.249C130.513 99.1971 130.42 99.1971 130.43 99.249C130.43 100.669 130.575 102.078 130.7 103.488C130.057 99.7361 129.366 95.9913 128.627 92.2534C129.663 99.0624 130.617 105.882 131.508 112.711C131.964 116.173 132.379 119.645 132.793 123.075C133.208 126.506 133.467 129.853 133.83 133.242C134.244 137.066 134.545 140.922 135.167 144.725C135.167 144.901 135.467 144.85 135.467 144.673C135.509 137.823 134.482 130.931 133.695 124.101Z" fill="#263238"/>
<path d="M118.408 79.8477C114.988 80.8841 108.656 75.9924 105.972 71.8469C105.795 71.5671 106.231 59.6798 106.065 57.3376C106.065 56.8609 121.154 59.9493 121.154 59.9493C120.504 62.9612 120.225 66.0415 120.325 69.1212C120.398 69.4425 121.714 78.8321 118.408 79.8477Z" fill="#AD6359"/>
<path d="M120.367 69.1007C120.367 69.1007 120.367 69.308 120.419 69.5671C111.859 69.0593 107.889 64.437 106.117 61.017C106.117 59.3588 106.117 57.9804 106.117 57.3275C106.117 56.8404 121.196 59.9288 121.196 59.9288C120.549 62.9411 120.271 66.0211 120.367 69.1007Z" fill="#263238"/>
<path d="M120.482 69.8783L117.249 78.8223L105.848 68.0439L102.874 71.7335C102.874 71.7335 114.212 89.0928 114.274 88.3155L117.642 80.5841L123.073 85.6934L122.182 72.4278L120.482 69.8783Z" fill="#EBEBEB"/>
<path d="M123.03 79.0809C122.802 76.8941 122.646 74.6866 122.325 72.5206C122.325 72.4377 122.19 72.4066 122.17 72.5206C121.807 74.6555 122.698 82.9984 122.761 85.0089C122.533 84.7913 117.734 80.5214 117.693 80.594C116.946 81.8272 114.48 87.4651 114.314 87.973C112.511 85.2162 105.66 75.2048 103.556 72.6139C103.494 72.5413 103.38 72.6139 103.432 72.6968C104.997 75.5468 114.086 89.0197 114.21 89.0197C115.528 86.3612 116.704 83.6352 117.734 80.853C118.553 81.7858 123.413 86.6153 123.424 86.294C123.417 83.8844 123.286 81.4768 123.03 79.0809Z" fill="#263238"/>
<path d="M121.942 31.3867C121.942 31.3867 126.813 33.4595 127.715 38.3408C128.617 43.2221 127.487 48.4662 127.062 48.7046C126.637 48.9429 121.942 31.3867 121.942 31.3867Z" fill="#263238"/>
<path d="M102.893 37.6672C101.183 42.9112 103.67 58.1771 107.349 61.6386C112.697 66.6546 121.589 67.2972 125.901 60.8509C130.046 54.6327 126.481 34.7653 122.356 31.6044C116.273 26.951 105.422 29.9462 102.893 37.6672Z" fill="#AD6359"/>
<path opacity="0.2" d="M103.725 49.4971C104.303 54.6785 105.887 60.2829 107.954 62.1423C112.953 66.6716 121.403 67.3678 125.614 61.7281C127.112 59.7101 127.643 56.0532 127.511 52.0878C127.511 52.2728 126.809 55.1544 125.026 55.4275C124.508 55.5055 123.976 55.429 123.507 55.209C123.039 54.9889 122.657 54.6366 122.418 54.2027L121.223 53.9559C119.498 55.0478 119.398 53.2422 117.328 52.9962C115.921 52.9187 112.558 54.8161 111.332 54.1715C110.105 53.527 109.054 52.6304 108.258 51.5502C107.129 49.9377 107.186 49.312 107.186 49.312L103.725 49.4971Z" fill="#263238"/>
<path d="M104.5 52.2493C106.386 52.4877 107.506 46.7461 107.723 44.5801C107.92 42.6628 107.506 36.7866 107.516 36.372C107.526 35.9575 116.211 40.1237 120.491 38.0198C124.772 35.916 127.083 31.3456 126.813 29.4387C126.544 27.5317 120.108 23.7282 115.216 24.3293C110.325 24.9304 104.853 32.2265 104.853 32.2265C105.491 31.1878 106.046 30.0996 106.511 28.9723C105.695 29.3144 104.975 29.8514 104.415 30.5362C103.855 31.2209 103.472 32.0326 103.298 32.9001C103.298 32.9001 103.422 29.9879 103.184 29.9776C102.946 29.9672 100.925 32.7965 101.785 34.5169C101.785 34.5169 99.4012 37.4395 99.6085 40.1651C99.8158 42.8908 102.282 51.9798 104.5 52.2493Z" fill="#263238"/>
<path d="M123.529 36.5166C122.321 37.4705 120.976 38.2357 119.539 38.7863C117.906 39.2247 116.189 39.2496 114.544 38.8588C112.888 38.5279 111.298 37.9256 109.839 37.0763C108.543 36.3508 107.351 35.3973 106.004 34.7859C105.662 34.6304 105.393 35.1279 105.621 35.3663C108.128 37.8478 111.364 39.4605 114.855 39.9678C116.478 40.2019 118.134 40.0097 119.66 39.4101C121.186 38.8104 122.531 37.824 123.56 36.5477C123.56 36.5477 123.55 36.5063 123.529 36.5166Z" fill="#263238"/>
<path d="M106.128 50.8814C106.128 50.8814 102.687 45.9587 100.448 47.1919C98.2098 48.4252 100.811 55.5451 103.433 56.5193C103.761 56.667 104.115 56.7472 104.474 56.7549C104.834 56.7626 105.191 56.6978 105.525 56.5643C105.859 56.4307 106.162 56.2313 106.417 55.9778C106.672 55.7244 106.873 55.4221 107.009 55.0891L106.128 50.8814Z" fill="#AD6359"/>
<path d="M101.246 49.2124C101.194 49.2124 101.194 49.2124 101.246 49.285C103.091 50.0208 104.054 51.7308 104.738 53.4926C104.63 53.3098 104.483 53.1524 104.308 53.0314C104.133 52.9103 103.934 52.8283 103.725 52.7909C103.515 52.7535 103.3 52.7617 103.094 52.8148C102.888 52.868 102.696 52.9648 102.531 53.0988C102.531 53.0988 102.531 53.2025 102.583 53.1921C102.905 53.0874 103.252 53.086 103.576 53.1882C103.899 53.2904 104.182 53.491 104.386 53.7621C104.73 54.2154 105.022 54.7055 105.257 55.2234C105.34 55.3892 105.64 55.2959 105.578 55.1094C105.588 52.7464 103.764 49.4508 101.246 49.2124Z" fill="#263238"/>
<path d="M117.093 46.7046C117.093 46.7046 117.01 46.7668 117.02 46.8186C117.207 47.855 117.238 49.1401 116.315 49.6375C117.497 49.3577 117.435 47.6891 117.093 46.7046Z" fill="#263238"/>
<path d="M115.973 45.7201C114.221 45.8341 114.574 49.3163 116.201 49.2127C117.828 49.109 117.434 45.6268 115.973 45.7201Z" fill="#263238"/>
<path d="M123.03 46.0205C123.03 46.0205 123.123 46.0205 123.123 46.1138C123.196 47.1502 123.465 48.4249 124.481 48.684V48.7462C123.268 48.6944 122.916 47.0569 123.03 46.0205Z" fill="#263238"/>
<path d="M123.881 44.7973C125.602 44.4864 126.099 47.9064 124.503 48.2484C122.907 48.5904 122.441 45.0564 123.881 44.7973Z" fill="#263238"/>
<path d="M114.439 44.2691C114.895 44.0929 115.299 43.8649 115.734 43.6576C116.223 43.5026 116.648 43.1936 116.947 42.7767C117.014 42.6274 117.029 42.4604 116.992 42.3012C116.954 42.1421 116.866 41.9996 116.739 41.8958C116.457 41.73 116.135 41.6426 115.807 41.6426C115.479 41.6426 115.157 41.73 114.874 41.8958C114.25 42.1413 113.74 42.6106 113.444 43.212C113.386 43.3536 113.37 43.5088 113.398 43.6592C113.426 43.8096 113.497 43.9488 113.602 44.0601C113.706 44.1715 113.841 44.2504 113.99 44.2875C114.138 44.3245 114.294 44.3181 114.439 44.2691Z" fill="#263238"/>
<path d="M125.051 42.9113C124.574 42.8606 124.1 42.7845 123.631 42.6833C123.119 42.6798 122.623 42.5046 122.222 42.1858C122.124 42.0561 122.07 41.8978 122.07 41.735C122.07 41.5722 122.124 41.4139 122.222 41.2842C122.445 41.0453 122.728 40.8703 123.041 40.7773C123.355 40.6844 123.687 40.6769 124.004 40.7556C124.671 40.8189 125.291 41.1251 125.746 41.6158C125.849 41.7364 125.914 41.8856 125.932 42.0437C125.949 42.2019 125.918 42.3616 125.843 42.5018C125.768 42.642 125.652 42.7562 125.511 42.8293C125.369 42.9024 125.209 42.931 125.051 42.9113Z" fill="#263238"/>
<path d="M117.466 53.4202C117.781 53.8198 118.177 54.1496 118.626 54.3886C119.076 54.6277 119.57 54.7708 120.078 54.809C120.524 54.8469 120.974 54.8224 121.415 54.7364H121.663L121.891 54.6743C121.949 54.6564 121.999 54.6206 122.034 54.5721C122.07 54.5236 122.089 54.4649 122.088 54.4048C122.088 54.4048 122.088 54.3323 122.088 54.2908V54.1975C122.026 53.3684 121.819 52.1248 121.819 52.1248C122.14 52.2388 123.757 52.7777 123.695 52.3528C123.216 48.6146 122.362 44.9341 121.145 41.3672C121.138 41.3464 121.125 41.3284 121.107 41.3156C121.09 41.3028 121.068 41.2959 121.047 41.2959C121.025 41.2959 121.004 41.3028 120.986 41.3156C120.968 41.3284 120.955 41.3464 120.948 41.3672C121.363 44.8183 122.389 48.1762 122.865 51.648C122.292 51.4439 121.691 51.3252 121.083 51.2957C120.969 51.2957 121.529 53.7104 121.529 54.0939C120.855 54.2269 120.162 54.2249 119.49 54.0879C118.817 53.9509 118.179 53.6817 117.611 53.2959C117.466 53.2648 117.393 53.3373 117.466 53.4202Z" fill="#263238"/>
<path d="M120.843 54.4252C120.419 55.0449 119.845 55.5474 119.175 55.8865C118.801 56.0563 118.384 56.1035 117.983 56.0212C117.102 55.8451 117.029 55.0574 117.154 54.363C117.222 54.0054 117.333 53.6574 117.485 53.3267C118.459 54.0418 119.635 54.4268 120.843 54.4252Z" fill="#263238"/>
<path d="M119.216 55.8556C118.842 56.0254 118.425 56.0726 118.024 55.9904C117.143 55.8142 117.07 55.0265 117.195 54.3322C117.652 54.3272 118.099 54.474 118.465 54.7496C118.83 55.0252 119.094 55.4141 119.216 55.8556Z" fill="#FF9BBC"/>
<path d="M95.9715 91.0203C100.459 111.748 105.879 137.17 111.652 141.295C120.668 147.731 146.101 152.467 155.397 152.695C159.263 152.778 164.072 122.702 159.937 122.64C151.107 122.557 132.11 122.972 129.996 121.604C127.882 120.236 117.186 101.457 108.719 86.8852C98.5417 69.329 93.3391 79.0398 95.9715 91.0203Z" fill="#AD6359"/>
<path d="M154.92 122.619C154.92 122.619 166.839 122.422 174.508 123.178C178.788 123.614 186.115 125.552 189.11 127.324C193.598 129.946 210.698 143.771 207.444 147.989C204.48 151.782 191.318 138.04 191.318 138.04C191.318 138.04 205.827 150.736 201.454 154.622C197.08 158.509 184.219 141.056 184.219 141.056C184.219 141.056 198.852 154.436 193.671 157.783C189.753 160.322 177.244 145.108 177.244 145.108C177.244 145.108 189.743 156.695 185.825 159.472C181.493 162.581 169.067 149.233 169.067 149.233C157.926 154.612 150.744 154.042 145.572 151.99C145.552 152.042 151.428 131.324 154.92 122.619Z" fill="#AD6359"/>
<path d="M186.561 133.335C188.323 134.755 190.105 136.196 191.743 137.771C193.38 139.346 194.945 140.994 196.427 142.714C198.395 144.931 200.102 147.365 201.516 149.969C198.666 145.523 192.924 139.782 191.297 138.196C189.67 136.61 188.126 134.962 186.509 133.377C186.457 133.346 186.519 133.294 186.561 133.335Z" fill="#263238"/>
<path d="M180.746 139.108C183.555 140.548 190.074 146.704 193.017 151.119C193.141 151.295 193.017 151.306 192.872 151.119C190.861 149.047 182.798 141.077 180.694 139.118C180.663 139.118 180.705 139.087 180.746 139.108Z" fill="#263238"/>
<path d="M174.86 143.16C178.523 145.732 181.658 148.982 184.094 152.736C184.219 152.923 184.094 152.923 183.897 152.736C180.892 149.492 178.55 146.933 174.767 143.264C174.736 143.222 174.788 143.108 174.86 143.16Z" fill="#263238"/>
<path d="M153.314 121.748C153.314 121.748 144.526 154.467 143.987 153.959C143.448 153.451 116.305 147.741 110.066 141.657C103.827 135.574 96.3032 98.7097 94.9663 87.6516C93.6293 76.5934 100.003 72.3754 107.807 84.5424C115.611 96.7095 129.571 119.645 130.607 120.246C131.644 120.847 153.314 121.748 153.314 121.748Z" fill="#9FC5EF"/>
<path d="M137.561 149.596C138.317 146.176 139.354 142.797 140.328 139.429C141.302 136.061 142.401 132.776 143.437 129.48C144.08 127.563 144.764 125.676 145.396 123.759C145.396 123.697 145.52 123.759 145.499 123.759C144.463 127.107 143.582 130.506 142.587 133.874C141.592 137.242 140.577 140.538 139.478 143.865C138.877 145.782 138.297 147.72 137.613 149.606C137.675 149.731 137.54 149.689 137.561 149.596Z" fill="#263238"/>
<path d="M118.49 146.166C115.569 145.094 112.879 143.476 110.562 141.398C107.961 138.859 107.1 135.097 105.992 131.739C103.566 124.402 101.535 116.961 99.649 109.478C98.6126 105.219 97.6591 100.918 96.716 96.627C96.716 96.627 96.6331 96.627 96.6435 96.627C97.1098 99.933 97.6798 103.229 98.3535 106.504C97.7938 104.721 97.2446 102.949 96.6538 101.177C96.6538 101.114 96.5295 101.177 96.5502 101.177C97.1169 103.469 97.8089 105.728 98.6229 107.944C99.4797 112 100.454 116.028 101.546 120.028C102.582 123.877 103.715 127.694 104.945 131.48C105.546 133.335 106.147 135.201 106.841 137.025C107.378 138.586 108.216 140.026 109.308 141.264C111.775 143.927 115.153 144.984 118.407 146.269C118.511 146.352 118.573 146.197 118.49 146.166Z" fill="#263238"/>
<path d="M140.431 121.023C137.829 120.795 131.642 120.578 131.103 120.153C130.608 119.661 130.183 119.103 129.839 118.495L127.694 115.106C124.978 110.808 122.232 106.524 119.455 102.255C118.729 100.586 118.024 98.9175 117.206 97.2904C117.206 97.2282 117.071 97.2904 117.102 97.3422C117.63 98.6791 118.232 99.9849 118.833 101.291C117.216 98.8346 115.537 96.4094 113.868 94.0361H113.796C116.649 98.9209 119.586 103.757 122.605 108.545L127.103 115.645L129.404 119.241C129.61 119.68 129.915 120.067 130.294 120.37C130.673 120.674 131.116 120.887 131.59 120.992C132.938 121.2 138.845 121.251 140.41 121.21C140.534 121.148 140.534 121.034 140.431 121.023Z" fill="#263238"/>
<path d="M248.567 33.211C249.841 31.3164 250.529 29.089 250.546 26.8062C250.546 18.6913 241.633 12.1104 230.648 12.1104C219.662 12.1104 210.76 18.6913 210.76 26.8269C210.76 34.9625 219.662 41.5227 230.648 41.5227C235.531 41.6028 240.321 40.181 244.369 37.4498L251.23 39.2012L248.567 33.211Z" fill="#FFFEFD"/>
<path d="M248.567 33.2107C249.721 31.3948 250.359 29.2988 250.412 27.1479C250.432 25.0146 249.846 22.9195 248.722 21.1058C246.359 17.5407 242.802 14.9353 238.69 13.7579C234.631 12.4907 230.327 12.217 226.14 12.9599C221.952 13.6088 218.064 15.5259 214.999 18.4527C213.517 19.8921 212.407 21.6706 211.765 23.6346C211.137 25.6026 211.108 27.7129 211.682 29.6974C212.273 31.6861 213.34 33.5005 214.792 34.9829C216.269 36.478 217.99 37.7115 219.88 38.6309C221.781 39.5531 223.8 40.2087 225.881 40.5793C227.966 40.9848 230.092 41.1379 232.213 41.0353C236.482 40.8751 240.625 39.5489 244.194 37.2007L244.287 37.1385H244.39L251.22 38.9937L251.075 39.1699L248.567 33.2107ZM248.567 33.2107L251.345 39.1284L251.448 39.3564L251.199 39.2942L244.318 37.6671H244.504C240.898 40.1534 236.671 41.5887 232.296 41.8126C227.91 42.1451 223.513 41.342 219.528 39.4808C217.531 38.5297 215.711 37.2432 214.149 35.6773C212.564 34.0928 211.387 32.1476 210.719 30.0083C210.077 27.8336 210.099 25.5171 210.781 23.3547C211.482 21.2263 212.687 19.2991 214.294 17.7376C217.518 14.6924 221.598 12.7101 225.984 12.0582C228.144 11.6923 230.339 11.5845 232.524 11.737C234.701 11.9143 236.848 12.3563 238.918 13.0532C240.997 13.7426 242.956 14.7532 244.722 16.0483C246.511 17.3259 248.009 18.9684 249.116 20.8674C250.219 22.7589 250.753 24.9277 250.656 27.1147C250.558 29.3017 249.833 31.4144 248.567 33.2003V33.2107Z" fill="#263238"/>
<path d="M223.487 26.8262C223.487 27.2361 223.366 27.6369 223.138 27.9777C222.91 28.3186 222.587 28.5843 222.208 28.7411C221.829 28.898 221.412 28.9391 221.01 28.8591C220.608 28.7791 220.239 28.5817 219.949 28.2918C219.659 28.002 219.462 27.6326 219.382 27.2305C219.302 26.8285 219.343 26.4117 219.5 26.033C219.656 25.6542 219.922 25.3305 220.263 25.1027C220.604 24.875 221.005 24.7534 221.415 24.7534C221.964 24.7534 222.491 24.9718 222.88 25.3605C223.269 25.7492 223.487 26.2764 223.487 26.8262Z" fill="#FF8B13"/>
<path d="M230.648 28.8679C231.787 28.8679 232.711 27.9446 232.711 26.8056C232.711 25.6665 231.787 24.7432 230.648 24.7432C229.509 24.7432 228.586 25.6665 228.586 26.8056C228.586 27.9446 229.509 28.8679 230.648 28.8679Z" fill="#FF8B13"/>
<path d="M241.935 26.8262C241.935 27.2361 241.813 27.6369 241.585 27.9777C241.357 28.3186 241.034 28.5843 240.655 28.7411C240.276 28.898 239.86 28.9391 239.457 28.8591C239.055 28.7791 238.686 28.5817 238.396 28.2918C238.106 28.002 237.909 27.6326 237.829 27.2305C237.749 26.8285 237.79 26.4117 237.947 26.033C238.104 25.6542 238.369 25.3305 238.71 25.1027C239.051 24.875 239.452 24.7534 239.862 24.7534C240.412 24.7534 240.939 24.9718 241.327 25.3605C241.716 25.7492 241.935 26.2764 241.935 26.8262Z" fill="#FF8B13"/>
<path d="M140.048 21.5308C138.776 19.6357 138.087 17.4087 138.069 15.126C138.069 7.01117 146.982 0.430176 157.967 0.430176C168.953 0.430176 177.855 7.01117 177.855 15.126C177.855 23.2408 168.953 29.8218 157.967 29.8218C153.085 29.9129 148.293 28.5059 144.235 25.7903L137.385 27.5314L140.048 21.5308Z" fill="#FF8B13"/>
<path d="M140.048 21.5304C138.782 19.7444 138.057 17.6317 137.96 15.4447C137.862 13.2577 138.397 11.0889 139.499 9.19751C140.605 7.30064 142.099 5.65849 143.883 4.37836C145.649 3.08339 147.607 2.07279 149.686 1.38323C151.76 0.687325 153.911 0.245372 156.091 0.0670392C158.276 -0.0854385 160.471 0.0224082 162.631 0.388313C167.017 1.05087 171.094 3.04417 174.311 6.09875C175.924 7.65704 177.134 9.58504 177.834 11.7159C178.52 13.8782 178.538 16.1968 177.886 18.3694C177.226 20.5099 176.052 22.4562 174.466 24.0384C172.904 25.6044 171.085 26.8909 169.087 27.8419C165.101 29.6992 160.704 30.4987 156.319 30.1634C151.941 29.9403 147.711 28.5051 144.1 26.0179H144.297L137.416 27.645L137.167 27.7072L137.271 27.4688L140.048 21.5304ZM140.048 21.5304L137.499 27.5414L137.354 27.3756L144.183 25.5204H144.287L144.38 25.593C147.949 27.9412 152.092 29.2673 156.361 29.4276C158.478 29.5007 160.597 29.3233 162.672 28.899C164.755 28.5328 166.775 27.8733 168.673 26.9403C170.565 26.0283 172.286 24.7979 173.761 23.3026C175.21 21.8182 176.277 20.0045 176.871 18.0171C177.445 16.0326 177.416 13.9223 176.788 11.9543C176.134 9.99582 175.026 8.22003 173.554 6.7724C170.486 3.85267 166.599 1.93986 162.413 1.28996C158.223 0.547053 153.915 0.820717 149.852 2.08797C145.759 3.26959 142.221 5.87098 139.872 9.42552C138.766 11.231 138.185 13.3088 138.193 15.4261C138.244 17.5919 138.885 19.7027 140.048 21.5304Z" fill="#263238"/>
<path d="M167.181 17.1883C168.32 17.1883 169.243 16.2649 169.243 15.1259C169.243 13.9868 168.32 13.0635 167.181 13.0635C166.042 13.0635 165.118 13.9868 165.118 15.1259C165.118 16.2649 166.042 17.1883 167.181 17.1883Z" fill="#263238"/>
<path d="M155.905 15.1255C155.905 15.5354 156.027 15.9362 156.255 16.2771C156.482 16.6179 156.806 16.8836 157.185 17.0405C157.564 17.1973 157.98 17.2384 158.382 17.1584C158.784 17.0784 159.154 16.881 159.444 16.5911C159.734 16.3013 159.931 15.9319 160.011 15.5299C160.091 15.1278 160.05 14.711 159.893 14.3323C159.736 13.9535 159.47 13.6298 159.13 13.4021C158.789 13.1743 158.388 13.0527 157.978 13.0527C157.428 13.0527 156.901 13.2711 156.512 13.6598C156.124 14.0485 155.905 14.5758 155.905 15.1255Z" fill="#263238"/>
<path d="M146.682 15.1255C146.682 15.5354 146.803 15.9362 147.031 16.2771C147.259 16.6179 147.582 16.8836 147.961 17.0405C148.34 17.1973 148.757 17.2384 149.159 17.1584C149.561 17.0784 149.93 16.881 150.22 16.5911C150.51 16.3013 150.707 15.9319 150.787 15.5299C150.867 15.1278 150.826 14.711 150.669 14.3323C150.512 13.9535 150.247 13.6298 149.906 13.4021C149.565 13.1743 149.164 13.0527 148.754 13.0527C148.205 13.0527 147.677 13.2711 147.289 13.6598C146.9 14.0485 146.682 14.5758 146.682 15.1255Z" fill="#263238"/>
</svg>
