<svg width="619" height="471" viewBox="0 0 619 471" fill="none" xmlns="http://www.w3.org/2000/svg">
<path d="M525.982 242.628C525.982 242.628 486.999 438.457 484.256 452.901C483.799 455.223 494.532 638.252 494.532 638.252L408.466 640.373C408.466 640.373 407.26 471.515 409.929 449.482C413.422 420.592 457.579 242.61 457.579 242.61L525.982 242.628Z" fill="#0764A7"/>
<path d="M474.145 453.523C475.004 442.735 477.472 432.039 479.502 421.434C481.532 410.829 483.634 399.675 485.701 388.796C489.796 367.256 493.801 345.699 497.933 324.178C502.614 299.823 509.269 276.034 514.188 251.752C514.298 251.186 515.139 251.442 515.029 252.008C507.404 295.197 497.256 337.745 489.083 380.86C487.035 391.745 484.975 402.625 482.903 413.498C480.892 424.103 478.643 434.69 476.906 445.35C475.98 450.883 475.582 456.491 475.717 462.099C475.863 467.365 480.38 599.507 481.001 611.886C481.001 612.051 480.745 612.069 480.727 611.886C477.82 590.146 473.285 464.238 474.145 453.523Z" fill="#2C3D68"/>
<path d="M465.731 242.628L490.087 423.225C501.679 364.714 525.979 242.628 525.979 242.628H465.731Z" fill="#2C3D68"/>
<path d="M536.569 643.427L618.849 633.7C618.849 633.7 576.575 470.619 574.637 463.653C571.693 453.03 565.147 367.458 558.766 314.56C558.766 314.56 570.852 285.927 548.234 242.665H457.506C457.506 242.665 463.595 283.824 473.962 309.934C473.962 309.934 472.024 308.453 484.275 315.2C484.275 315.2 491.771 449.592 497.275 475.044C501.846 495.944 536.569 643.427 536.569 643.427Z" fill="#0764A7"/>
<path d="M470.544 308.051C478.722 311.015 486.627 314.686 494.168 319.022C494.221 319.058 494.26 319.112 494.278 319.174C494.296 319.236 494.292 319.302 494.265 319.361C494.239 319.42 494.193 319.468 494.135 319.496C494.077 319.524 494.011 319.531 493.948 319.516C485.995 316.096 477.876 312.823 470.178 308.984C470.081 308.919 470.008 308.823 469.972 308.711C469.937 308.599 469.941 308.478 469.984 308.369C470.026 308.26 470.105 308.169 470.208 308.111C470.31 308.053 470.428 308.032 470.544 308.051Z" fill="#37474F"/>
<path d="M468.019 253.453C468.019 253.178 468.531 253.123 468.531 253.453C468.522 262.331 468.967 271.205 469.866 280.038C470.231 284.134 473.522 306.789 480.635 305.125C481.824 304.851 482.464 303.68 482.61 301.888C482.58 299.543 482.267 297.21 481.677 294.94C480.873 290.205 480.251 285.451 479.849 280.66C479.016 271.746 479.108 262.769 480.123 253.873C480.137 253.823 480.167 253.78 480.209 253.749C480.25 253.718 480.3 253.701 480.352 253.701C480.403 253.701 480.454 253.718 480.495 253.749C480.536 253.78 480.566 253.823 480.58 253.873C480.381 266.24 481.108 278.605 482.756 290.863C483.634 296.75 486.614 305.619 480.452 306.514C474.29 307.41 470.122 292.6 469.354 288.522C467.391 276.94 466.942 265.151 468.019 253.453Z" fill="#37474F"/>
<path d="M480.436 305.71C481.073 307.234 481.611 308.797 482.045 310.391C482.497 311.626 482.72 312.934 482.704 314.249C482.704 314.505 482.338 314.523 482.21 314.359C481.477 313.198 480.923 311.935 480.564 310.61C480.016 309.147 479.449 307.721 478.955 306.24C478.885 306.044 478.895 305.827 478.985 305.639C479.074 305.45 479.234 305.305 479.431 305.235C479.627 305.164 479.843 305.175 480.032 305.264C480.22 305.353 480.366 305.514 480.436 305.71Z" fill="#37474F"/>
<path d="M542.328 246.962C547.386 255.408 550.763 264.752 552.275 274.48C553.694 284.271 553.378 294.236 551.342 303.918C550.122 309.579 549.673 315.379 550.007 321.161C550.428 327.067 551.232 332.954 551.836 338.842L555.676 373.436C558.217 396.42 562.788 432.13 565.805 455.041C567.286 466.286 598.718 608.064 599.577 610.844C599.589 610.892 599.581 610.943 599.556 610.986C599.53 611.029 599.488 611.06 599.44 611.072C599.391 611.084 599.34 611.077 599.297 611.051C599.254 611.025 599.223 610.984 599.211 610.935C591.769 589.176 567.177 474.057 563.666 451.859C561.837 440.541 560.667 429.131 559.387 417.74C558.107 406.349 556.754 394.683 555.456 383.145C554.158 371.608 552.86 360.308 551.598 348.898L549.678 331.583C548.899 326.083 548.501 320.535 548.49 314.98C548.941 309.492 549.741 304.039 550.885 298.652C551.689 293.661 551.983 288.6 551.763 283.549C551.317 273.436 548.927 263.503 544.723 254.294C543.681 252.027 543.114 249.668 541.871 247.51C541.596 246.651 541.98 246.358 542.328 246.962Z" fill="#2C3D68"/>
<path d="M515.557 250.82C517.002 254.66 518.684 258.426 520.439 262.138C521.847 265.548 523.903 268.652 526.492 271.28C529.142 273.514 532.27 275.109 535.634 275.943C537.581 276.494 539.559 276.928 541.558 277.241C543.6 277.465 545.623 277.837 547.61 278.357C547.692 278.382 547.764 278.433 547.814 278.502C547.865 278.571 547.893 278.655 547.893 278.741C547.893 278.826 547.865 278.91 547.814 278.979C547.764 279.048 547.692 279.099 547.61 279.124C545.455 279.445 543.269 279.5 541.101 279.289C539.009 279.182 536.929 278.901 534.884 278.448C531.156 277.625 527.701 275.863 524.846 273.328C522.074 270.48 519.969 267.051 518.684 263.29C517.064 259.299 515.839 255.159 515.027 250.93C515.013 250.859 515.027 250.786 515.066 250.726C515.105 250.666 515.167 250.624 515.237 250.61C515.308 250.595 515.381 250.609 515.441 250.648C515.501 250.688 515.543 250.75 515.557 250.82Z" fill="#37474F"/>
<path d="M484.311 315.109C484.331 315.057 484.366 315.013 484.412 314.981C484.457 314.95 484.511 314.933 484.567 314.933C484.622 314.933 484.676 314.95 484.722 314.981C484.768 315.013 484.803 315.057 484.823 315.109C485.518 318.236 486.743 331.163 487.035 334.417C487.657 340.982 488.114 347.564 488.608 354.128C489.577 367.092 491.405 414.303 491.479 418.015C491.479 418.234 491.131 418.216 491.113 418.015C490.729 414.778 488.571 382.835 488.078 376.344C487.072 363.289 486.103 350.234 485.243 337.178C485.006 333.485 484.073 318.784 484.311 315.109Z" fill="#37474F"/>
<path d="M473.961 309.825C473.961 309.825 473.815 309.697 473.961 309.697C473.97 309.739 473.97 309.782 473.961 309.825ZM470.122 309.002C477.874 312.842 485.993 316.114 493.892 319.534C493.954 319.549 494.02 319.542 494.078 319.514C494.136 319.486 494.182 319.438 494.208 319.379C494.235 319.32 494.239 319.254 494.221 319.192C494.204 319.13 494.164 319.076 494.111 319.04C486.57 314.704 478.665 311.033 470.487 308.069C470.371 308.05 470.253 308.071 470.151 308.129C470.049 308.187 469.969 308.278 469.927 308.387C469.884 308.497 469.88 308.617 469.915 308.729C469.951 308.841 470.024 308.937 470.122 309.002ZM469.354 288.505C470.122 292.582 474.162 307.429 480.452 306.497C486.742 305.564 483.634 296.733 482.756 290.845C481.108 278.587 480.381 266.222 480.58 253.855C480.566 253.806 480.536 253.762 480.495 253.731C480.454 253.7 480.403 253.683 480.352 253.683C480.3 253.683 480.25 253.7 480.209 253.731C480.167 253.762 480.137 253.806 480.123 253.855C479.108 262.751 479.016 271.728 479.849 280.642C480.251 285.433 480.873 290.187 481.677 294.923C482.267 297.193 482.58 299.526 482.61 301.871C482.427 303.699 481.824 304.833 480.635 305.107C473.522 306.771 470.231 284.116 469.866 280.021C468.967 271.187 468.522 262.314 468.531 253.435C468.531 253.142 468.037 253.197 468.019 253.435C466.942 265.133 467.391 276.922 469.354 288.505ZM478.953 306.241C479.447 307.722 480.013 309.148 480.562 310.611C480.92 311.935 481.475 313.199 482.208 314.359C482.336 314.524 482.683 314.505 482.701 314.249C482.718 312.934 482.495 311.627 482.043 310.391C481.608 308.798 481.071 307.234 480.434 305.711C480.364 305.514 480.218 305.354 480.03 305.265C479.841 305.175 479.625 305.165 479.428 305.235C479.232 305.305 479.072 305.451 478.982 305.64C478.893 305.828 478.883 306.044 478.953 306.241ZM515.047 250.948C515.858 255.178 517.083 259.318 518.704 263.309C519.989 267.07 522.094 270.498 524.866 273.347C527.72 275.882 531.176 277.644 534.904 278.466C536.949 278.919 539.029 279.201 541.121 279.308C543.289 279.518 545.475 279.463 547.63 279.143C547.712 279.117 547.783 279.066 547.834 278.997C547.885 278.928 547.912 278.845 547.912 278.759C547.912 278.673 547.885 278.59 547.834 278.521C547.783 278.452 547.712 278.401 547.63 278.375C545.642 277.856 543.62 277.483 541.578 277.26C539.579 276.947 537.6 276.513 535.654 275.961C532.289 275.128 529.162 273.533 526.511 271.299C523.922 268.671 521.867 265.566 520.459 262.157C518.631 258.5 517.022 254.678 515.577 250.838C515.562 250.768 515.521 250.706 515.461 250.667C515.401 250.628 515.327 250.614 515.257 250.628C515.187 250.643 515.125 250.685 515.086 250.745C515.046 250.805 515.032 250.878 515.047 250.948ZM485.243 337.105C486.102 350.16 487.071 363.216 488.077 376.271C488.571 382.762 490.728 414.669 491.112 417.941C491.112 418.161 491.496 418.179 491.478 417.941C491.478 414.285 489.649 367.019 488.607 354.055C488.114 347.491 487.656 340.908 487.035 334.344C486.742 331.09 485.517 318.162 484.822 315.036C484.802 314.984 484.767 314.939 484.722 314.908C484.676 314.877 484.622 314.86 484.566 314.86C484.511 314.86 484.457 314.877 484.411 314.908C484.365 314.939 484.33 314.984 484.31 315.036C484.073 318.784 485.005 333.485 485.243 337.105Z" fill="#2C3D68"/>
<path d="M448.145 129.191C446.316 150.419 444.744 172.269 446.152 193.534C447.249 210.1 453.758 223.941 470.799 228.549C486.597 232.809 509.288 233.248 523.093 223.064C529.529 218.346 531.943 211.471 531.778 203.682C531.541 192.839 524.867 133.305 522.91 114.746C521.722 103.428 520.588 91.9631 517.425 80.9741C510.751 57.9172 499.451 57.7526 497.897 57.2041C496.581 56.2899 488.023 52.1393 475.572 55.6865C472.317 56.6016 469.293 58.1935 466.697 60.3582C464.1 62.5229 461.99 65.2115 460.505 68.248C451.034 86.3863 449.9 109.333 448.145 129.191Z" fill="#263238"/>
<path d="M501.297 60.5684C514.681 67.352 517.442 82.2905 520.295 95.6749C524.281 114.325 527.938 133.049 530.699 151.918C532.034 161.061 533.149 170.112 533.99 179.236C534.813 187.976 536.202 197.319 535.343 206.096C533.899 220.595 520.386 226.794 507.422 228.439C507.302 228.443 507.184 228.402 507.092 228.325C506.999 228.247 506.938 228.139 506.92 228.02C506.902 227.9 506.929 227.779 506.994 227.678C507.06 227.576 507.16 227.503 507.276 227.47C514.59 226.245 522.215 224.453 527.865 219.187C535.178 212.422 534.575 203.28 534.045 194.174C533.131 178.687 531.32 163.255 528.98 147.914C526.64 132.573 523.732 117.269 520.606 102.056C517.625 87.5748 515.724 68.5771 501.206 60.7878C501.078 60.7147 501.151 60.4953 501.297 60.5684Z" fill="#263238"/>
<path d="M453.794 80.8639C456.738 69.8931 462.936 59.1783 474.657 56.3259C459.389 60.6594 455.165 77.0789 452.715 90.8107C450.119 105.268 448.071 119.804 446.571 134.419C445.109 148.48 443.938 162.651 443.756 176.785C443.554 192.034 445.858 206.406 454.452 219.26C454.635 219.516 454.269 219.827 454.068 219.571C445.529 209.13 443.097 195.033 442.75 181.905C442.673 164.525 443.742 147.16 445.95 129.921C447.76 113.648 449.57 96.7166 453.794 80.8639Z" fill="#263238"/>
<path d="M486.963 150.712C484.239 164.224 467.033 227.05 451.838 239.099C441.38 247.401 397.716 267.075 372.648 274.553C366.029 276.51 354.363 225.496 363.505 222.57C375.08 218.913 420.188 201.653 427.502 197.685C434.541 193.9 453.649 161.445 472.207 140.107C481.734 129.136 489.834 136.505 486.963 150.712Z" fill="#EB9481"/>
<path d="M377.054 272.944C371.184 275.285 338.656 286.018 330.391 286.603C322.127 287.188 298.229 287.152 297.132 280.88C296.035 274.608 303.038 274.041 303.038 274.041C303.038 274.041 292.945 272.432 292.433 265.996C291.921 259.56 302.8 259.085 302.8 259.085C302.8 259.085 292.561 256.671 292.506 250.235C292.451 243.799 303.476 245.115 303.476 245.115C303.476 245.115 294.005 243.287 296.163 238.021C298.777 231.603 315.873 236.851 324.943 235.516C327.009 235.205 366.266 226.374 366.266 226.374L377.054 272.944Z" fill="#EB9481"/>
<path d="M302.561 245.024C315.141 248.845 321.303 248.352 333.773 244.914C334.011 244.914 334.175 245.207 333.919 245.298C322.016 249.76 314.373 251.497 302.342 245.627C301.757 245.335 301.958 244.823 302.561 245.024Z" fill="#263238"/>
<path d="M301.832 258.773C315.234 261.589 321.945 261.114 335.256 258.481C335.439 258.481 335.53 258.755 335.256 258.81C322.457 262.467 314.74 264.039 301.722 259.468C301.21 259.249 301.21 258.627 301.832 258.773Z" fill="#263238"/>
<path d="M303.714 273.894C316.897 275.723 324.248 275.467 336.864 271.262C336.925 271.237 336.992 271.238 337.052 271.264C337.112 271.29 337.16 271.338 337.184 271.399C337.208 271.459 337.207 271.527 337.182 271.587C337.156 271.647 337.108 271.694 337.047 271.719C324.595 277.204 315.416 277.606 303.696 274.297C302.91 274.077 302.891 273.766 303.714 273.894Z" fill="#263238"/>
<path d="M376.58 226.83C376.58 226.83 362.263 218.694 355.187 216.5C348.111 214.305 318.746 215.86 318.709 222.223C318.709 230.451 335.823 232.883 344.307 232.992C344.307 232.992 344.216 251.99 356.138 256.397C368.059 260.803 376.58 226.83 376.58 226.83Z" fill="#EB9481"/>
<path d="M319.439 224.49C324.815 232.004 336.042 231.401 344.325 232.132C344.447 232.135 344.568 232.167 344.675 232.227C344.782 232.286 344.873 232.371 344.94 232.474C345.007 232.577 345.047 232.694 345.058 232.817C345.069 232.939 345.049 233.062 345.001 233.175C345.495 241.147 348.512 252.246 355.716 256.616C355.751 256.645 355.775 256.686 355.783 256.731C355.792 256.776 355.785 256.822 355.764 256.863C355.742 256.903 355.708 256.935 355.666 256.953C355.624 256.971 355.577 256.975 355.533 256.963C347.177 253.306 343.337 242.664 343.356 233.906C334.835 233.303 323.553 233.394 319.366 224.526L319.439 224.49Z" fill="#263238"/>
<path d="M366.905 219.955L379.704 276.418C379.704 276.418 432.73 257.804 453.373 239.849C468.988 226.336 483.561 176.108 487.364 154.313C491.167 132.518 481.44 127.563 468.97 142.355C456.5 157.147 428.323 195.124 427.135 196.349C425.946 197.575 366.905 219.955 366.905 219.955Z" fill="#FF8B13"/>
<path d="M390.95 266.252C389.122 260.2 387.622 253.983 386.123 247.821C384.624 241.66 383.307 235.534 382.064 229.372C381.351 225.715 380.729 222.205 379.979 218.639C379.979 218.529 380.162 218.493 380.181 218.639C381.607 224.819 383.271 230.963 384.752 237.125C386.233 243.287 387.604 249.394 388.957 255.538C389.743 259.085 390.585 262.632 391.225 266.216C391.243 266.344 390.987 266.399 390.95 266.252Z" fill="#263238"/>
<path opacity="0.1" d="M487.345 154.387C483.542 176.182 468.951 226.41 453.336 239.922C439.293 252.063 410.33 264.552 393.216 271.299L478.769 134.493C485.9 131.878 490.051 138.863 487.345 154.387Z" fill="black"/>
<path d="M458.381 213.739L457.102 242.5H548.323C548.323 242.5 535.524 166.601 510.438 140.472C497.894 127.399 483.504 128.679 474.508 138.168C472.241 140.582 450.263 171.666 447.63 185.708C445.418 198.233 458.381 213.739 458.381 213.739Z" fill="#EBEBEB"/>
<path d="M481.989 143.16L477.473 161.701C475.992 167.881 474.584 174.079 473.304 180.296C472.024 186.513 470.598 192.766 472.225 198.8C473.713 204.867 476.413 210.57 480.161 215.567L480.343 215.786V216.042C480.435 220.303 480.343 224.545 480.343 228.842C480.343 233.138 480.343 237.362 480.161 241.641C479.831 237.374 479.545 233.108 479.301 228.842C479.118 224.581 478.826 220.339 478.698 216.042L478.862 216.518C474.865 211.382 471.959 205.483 470.323 199.184C469.551 195.982 469.396 192.662 469.866 189.402C470.305 186.202 470.909 183.057 471.585 179.949C472.902 173.695 474.602 167.552 476.303 161.408C478.003 155.264 479.996 149.212 481.989 143.16Z" fill="#263238"/>
<path d="M470.088 168.027C470.061 168.429 470.187 168.826 470.442 169.138C470.696 169.451 471.06 169.655 471.459 169.709C471.653 169.714 471.846 169.68 472.027 169.608C472.208 169.537 472.372 169.43 472.511 169.293C472.649 169.157 472.758 168.993 472.832 168.814C472.906 168.634 472.942 168.441 472.94 168.247C472.971 167.844 472.846 167.444 472.591 167.131C472.336 166.818 471.97 166.615 471.569 166.564C471.374 166.559 471.181 166.594 471 166.665C470.82 166.737 470.655 166.844 470.517 166.981C470.379 167.117 470.269 167.28 470.196 167.46C470.122 167.64 470.085 167.833 470.088 168.027Z" fill="#263238"/>
<path d="M465.79 186.092C465.763 186.492 465.89 186.887 466.145 187.196C466.4 187.505 466.763 187.706 467.161 187.756C467.355 187.761 467.548 187.727 467.729 187.655C467.91 187.584 468.074 187.476 468.213 187.34C468.351 187.203 468.46 187.04 468.534 186.86C468.608 186.681 468.644 186.488 468.642 186.293C468.668 185.894 468.541 185.499 468.286 185.189C468.031 184.88 467.668 184.68 467.271 184.629C467.076 184.622 466.881 184.654 466.699 184.725C466.517 184.796 466.352 184.903 466.213 185.04C466.074 185.177 465.965 185.341 465.892 185.522C465.819 185.703 465.784 185.897 465.79 186.092Z" fill="#263238"/>
<path d="M467.067 203.829C467.04 204.228 467.168 204.623 467.423 204.933C467.677 205.242 468.041 205.442 468.438 205.493C468.633 205.497 468.826 205.463 469.007 205.392C469.187 205.32 469.352 205.213 469.49 205.076C469.628 204.94 469.738 204.777 469.811 204.597C469.885 204.417 469.922 204.224 469.919 204.03C469.946 203.63 469.819 203.235 469.564 202.926C469.309 202.616 468.946 202.416 468.548 202.366C468.353 202.358 468.159 202.391 467.977 202.461C467.795 202.532 467.629 202.639 467.49 202.776C467.352 202.913 467.242 203.077 467.17 203.258C467.097 203.439 467.062 203.634 467.067 203.829Z" fill="#263238"/>
<path d="M473.705 217.835C473.674 218.237 473.799 218.637 474.054 218.95C474.309 219.263 474.675 219.466 475.076 219.517C475.271 219.522 475.464 219.487 475.645 219.416C475.825 219.344 475.99 219.237 476.128 219.1C476.266 218.964 476.376 218.801 476.449 218.621C476.523 218.441 476.56 218.248 476.557 218.054C476.584 217.652 476.458 217.255 476.203 216.943C475.949 216.63 475.585 216.426 475.186 216.372C474.992 216.367 474.798 216.401 474.618 216.473C474.437 216.544 474.273 216.652 474.134 216.788C473.996 216.925 473.887 217.088 473.813 217.268C473.739 217.447 473.702 217.64 473.705 217.835Z" fill="#263238"/>
<path d="M473.687 234.016C473.661 234.416 473.788 234.811 474.043 235.12C474.298 235.429 474.661 235.629 475.058 235.68C475.253 235.685 475.446 235.65 475.627 235.579C475.807 235.507 475.972 235.4 476.11 235.263C476.248 235.127 476.358 234.964 476.431 234.784C476.505 234.604 476.542 234.411 476.539 234.217C476.566 233.817 476.439 233.422 476.184 233.113C475.929 232.804 475.566 232.603 475.168 232.553C474.973 232.546 474.779 232.578 474.597 232.649C474.415 232.719 474.249 232.826 474.111 232.963C473.972 233.101 473.862 233.265 473.79 233.446C473.717 233.627 473.682 233.821 473.687 234.016Z" fill="#263238"/>
<path d="M496.618 131.549C496.618 131.549 492.431 187.353 492.431 195.435C492.431 203.517 502.908 279.252 502.908 279.252L564.819 277.058C564.819 277.058 532.986 177.535 522.582 157.312C511.063 134.84 496.618 131.549 496.618 131.549Z" fill="#FF8B13"/>
<path d="M475.883 136.175C476.395 135.754 463.084 174.573 462.608 191.687C462.133 208.801 462.608 278.1 462.608 278.1L445.731 273.255L457.434 214.159C457.434 214.159 445.457 199.952 446.792 186.732C448.127 173.512 472.555 138.918 475.883 136.175Z" fill="#FF8B13"/>
<path d="M492.046 327.871C497.531 331.528 506.673 315.273 509.782 311.781C512.89 308.288 514.225 308.398 514.06 311.067L521.137 282.909C517.48 285.762 509.672 291.905 505.521 295.928C499.963 301.322 486.597 324.178 492.046 327.871Z" fill="#EB9481"/>
<path d="M517.883 141.935C540.976 160.549 585.536 200.062 590.93 221.382C594.897 237.344 572.535 294.52 565.679 307.722C562.698 313.481 520.113 289.785 521.137 282.91C521.85 278.156 544.176 234.327 544.45 229.134C544.724 223.942 511.794 174.738 503.621 159.104C491.37 135.7 498.263 126.101 517.883 141.935Z" fill="#EB9481"/>
<path d="M495.922 344.034C499.579 348.002 506.893 343.193 506.893 343.193C506.893 343.193 500.347 351.293 505.466 354.438C510.586 357.583 517.607 350.672 517.607 350.672C517.607 350.672 511.976 358.443 517.315 361.204C522.654 363.965 529.566 357.931 529.566 357.931C529.566 357.931 529.182 360.929 533.844 361.167C540.518 361.569 550.026 350.727 553.683 343.906C557.34 337.086 565.586 309.367 566.775 305.106L523.129 281.336L521.1 282.872L514.024 311.031C513.896 312.859 508.904 323.592 507.094 326.701C503.035 333.74 491.844 339.591 495.922 344.034Z" fill="#EB9481"/>
<path d="M507.166 342.791C516.948 335.386 519.965 330.449 524.189 319.131C524.28 318.912 524.628 318.985 524.555 319.223C521.41 330.687 518.539 337.416 507.495 343.285C506.965 343.559 506.69 343.157 507.166 342.791Z" fill="#263238"/>
<path d="M517.152 350.873C526.642 342.28 529.951 336.959 535.272 325.439C535.272 325.275 535.619 325.439 535.565 325.549C531.286 337.288 528.251 343.944 517.664 351.294C517.189 351.641 516.731 351.294 517.152 350.873Z" fill="#263238"/>
<path d="M529.619 357.767C538.213 348.789 542.089 343.139 545.819 331.254C545.834 331.196 545.871 331.146 545.922 331.115C545.974 331.084 546.035 331.075 546.094 331.09C546.152 331.104 546.202 331.141 546.233 331.193C546.264 331.244 546.273 331.306 546.258 331.364C543.625 343.816 538.944 350.947 529.93 357.986C529.308 358.48 529.089 358.334 529.619 357.767Z" fill="#263238"/>
<path d="M518.743 279.563L572.682 303.68C572.682 303.68 598.701 238.166 591.643 218.035C584.969 198.983 542.421 160.932 520.333 143.269C494.936 122.9 490.2 139.411 503.786 161.243C516.987 182.453 541.525 227.379 542.184 229.957C543.098 233.266 518.743 279.563 518.743 279.563Z" fill="#FF8B13"/>
<path d="M511.244 176.529C517.625 186.421 523.751 196.514 529.748 206.644C532.765 211.745 535.764 216.883 538.744 222.003C539.494 223.283 542.931 228.768 543.078 230.03C543.315 232.334 522.434 273.913 518.924 279.399C519.143 279.399 521.282 280.66 521.648 280.806C522.014 280.953 521.739 281.136 521.648 281.062C520.397 280.727 519.174 280.293 517.991 279.764C517.991 279.764 541.761 231.31 541.761 230.652C541.651 229.317 538.726 224.581 537.994 223.338C532.107 213.501 526.286 203.627 520.533 193.717L519.088 191.157C517.936 190.005 516.857 188.743 515.834 187.5C514.499 185.866 513.277 184.144 512.177 182.344C512.16 182.32 512.153 182.29 512.158 182.26C512.163 182.231 512.18 182.205 512.204 182.188C512.228 182.171 512.258 182.165 512.287 182.17C512.317 182.175 512.342 182.192 512.359 182.216C513.731 183.788 515.047 185.416 516.364 187.043L517.735 188.707C515.468 184.721 513.237 180.71 511.043 176.676C510.933 176.529 511.244 176.365 511.244 176.529Z" fill="#263238"/>
<path d="M528.578 270.421C534.686 272.505 540.646 275.065 546.607 277.533C552.568 280.002 558.382 282.598 564.197 285.286C567.561 286.822 570.871 288.468 574.253 290.003C574.363 290.003 574.253 290.241 574.253 290.205C568.329 287.663 562.295 285.341 556.334 282.891C550.374 280.441 544.449 277.735 538.672 275.175C535.271 273.694 531.851 272.249 528.542 270.604C528.526 270.574 528.521 270.539 528.527 270.505C528.534 270.472 528.552 270.442 528.578 270.421Z" fill="#263238"/>
<path d="M495.612 133.378C495.063 135.207 485.61 146.178 477.327 145.227C474.657 144.898 475.791 130.233 475.791 130.233L475.626 129.136L473.341 113.704L492.009 103.574L494.789 102.203C494.789 102.203 495.136 106.463 495.52 111.784V112.534C495.52 112.845 495.52 113.119 495.52 113.393C495.52 114.198 495.648 115.002 495.685 115.807C495.721 116.611 495.776 117.032 495.794 117.635C495.813 118.239 495.794 118.915 495.794 119.555C496.062 124.161 496.001 128.781 495.612 133.378Z" fill="#EB9481"/>
<path d="M495.501 111.821C493.652 115.97 490.924 119.667 487.504 122.657C484.085 125.647 480.057 127.857 475.699 129.136L473.413 113.704L492.082 103.574L494.788 102.203C494.788 102.203 495.117 106.5 495.501 111.821Z" fill="#263238"/>
<path d="M452.24 90.519C448.857 117.672 464.747 122.773 470.525 123.431C475.845 124.09 494.02 125.662 500.2 98.9848C506.381 72.3076 494.806 62.1779 482.739 60.0386C470.671 57.8993 455.623 63.3664 452.24 90.519Z" fill="#EB9481"/>
<path d="M499.305 98.0334C492.723 97.3386 493.966 87.0626 493.966 87.0626C493.966 87.0626 486.652 85.5084 487.42 73.404C485.693 75.6604 483.463 77.483 480.908 78.7272C478.353 79.9714 475.543 80.6029 472.701 80.5716C470.525 80.5716 478.351 75.909 478.351 75.909C478.351 75.909 468.843 82.7109 453.21 77.902C452.094 77.5546 455.404 59.2152 468.605 54.9183C481.807 50.6214 493.765 56.9662 500.603 65.7611C500.603 65.7611 509.892 73.0749 509.929 81.9247C509.965 90.7744 501.865 98.3077 499.305 98.0334Z" fill="#263238"/>
<path d="M493.287 98.8202C493.287 98.8202 499.577 90.5007 503.38 92.768C507.184 95.0353 502.21 107.249 497.602 108.767C497.027 109.006 496.408 109.126 495.785 109.119C495.161 109.111 494.546 108.977 493.976 108.723C493.406 108.47 492.894 108.103 492.471 107.646C492.047 107.188 491.722 106.649 491.514 106.061L493.287 98.8202Z" fill="#EB9481"/>
<path d="M501.866 96.2422C501.866 96.2422 501.958 96.2422 501.866 96.3519C500.38 97.0319 499.052 98.0138 497.966 99.2352C496.88 100.457 496.06 101.891 495.558 103.446C495.755 103.134 496.017 102.868 496.326 102.667C496.636 102.466 496.986 102.334 497.351 102.282C497.717 102.23 498.089 102.258 498.442 102.364C498.796 102.471 499.122 102.653 499.398 102.898C499.489 102.898 499.398 103.081 499.398 103.062C498.845 102.86 498.243 102.835 497.675 102.993C497.108 103.15 496.604 103.481 496.235 103.94C495.613 104.7 495.079 105.528 494.644 106.408C494.48 106.683 493.968 106.518 494.096 106.189C494.114 102.057 497.496 96.4799 501.866 96.2422Z" fill="#263238"/>
<path d="M456.609 85.7466C457.251 85.7342 457.892 85.6853 458.528 85.6003C459.177 85.6322 459.819 85.4525 460.357 85.0883C460.514 84.9375 460.615 84.7382 460.645 84.5226C460.675 84.307 460.631 84.0876 460.521 83.8998C460.253 83.5582 459.897 83.2949 459.492 83.1373C459.087 82.9797 458.647 82.9336 458.218 83.0039C457.321 83.0202 456.463 83.3651 455.804 83.9729C455.665 84.1262 455.573 84.3169 455.541 84.5215C455.509 84.7262 455.537 84.9357 455.623 85.1243C455.709 85.3129 455.847 85.4724 456.023 85.583C456.198 85.6935 456.401 85.7504 456.609 85.7466Z" fill="#263238"/>
<path d="M475.04 87.5749C474.4 87.4103 473.833 87.1543 473.212 86.9349C472.544 86.7973 471.94 86.4439 471.493 85.9293C471.389 85.7398 471.349 85.5219 471.379 85.3078C471.408 85.0937 471.506 84.8949 471.658 84.7408C472.011 84.4869 472.426 84.3312 472.86 84.2894C473.293 84.2477 473.73 84.3214 474.126 84.5031C474.974 84.7562 475.702 85.3084 476.174 86.0572C476.269 86.2324 476.312 86.4312 476.298 86.6301C476.284 86.8291 476.213 87.0197 476.094 87.1795C475.974 87.3393 475.812 87.4615 475.625 87.5315C475.438 87.6016 475.235 87.6167 475.04 87.5749Z" fill="#263238"/>
<path d="M470.286 92.292C470.286 92.292 470.433 92.4017 470.415 92.4748C470.067 94.3033 469.976 96.5157 471.566 97.3934C471.566 97.3934 471.566 97.5214 471.566 97.5031C469.519 96.8814 469.665 93.9925 470.286 92.292Z" fill="#263238"/>
<path d="M472.26 90.6101C475.295 90.8478 474.582 96.8818 471.785 96.6623C468.987 96.4429 469.719 90.409 472.26 90.6101Z" fill="#263238"/>
<path d="M473.414 91.0671C473.889 91.4694 474.346 92.1276 474.968 92.2739C475.589 92.4202 476.321 91.8533 476.796 91.3048H476.888C476.76 92.4567 476.175 93.5904 474.913 93.6269C473.651 93.6635 473.084 92.5299 472.92 91.3231C472.993 91.2317 473.212 90.9025 473.414 91.0671Z" fill="#263238"/>
<path d="M460.047 90.1897C460.047 90.1897 459.883 90.1897 459.883 90.3543C459.736 92.1827 459.261 94.3586 457.487 94.7974C459.553 94.8888 460.175 91.9999 460.047 90.1897Z" fill="#263238"/>
<path d="M458.547 88.0506C455.567 87.5021 454.671 93.536 457.432 94.0297C460.193 94.5233 461.052 88.526 458.547 88.0506Z" fill="#263238"/>
<path d="M457.23 88.2694C456.7 88.5071 456.151 89.0191 455.584 88.9825C455.017 88.946 454.524 88.1963 454.195 87.5198C454.195 87.5198 454.103 87.5198 454.085 87.5198C453.884 88.6534 454.085 89.9151 455.164 90.299C456.242 90.683 456.992 89.7688 457.468 88.6717C457.559 88.5071 457.449 88.1597 457.23 88.2694Z" fill="#263238"/>
<path d="M468.513 108.108C468.038 108.511 467.544 109.078 466.849 109.096C466.155 109.026 465.483 108.815 464.874 108.474C464.874 108.474 464.746 108.474 464.783 108.474C465.022 108.864 465.363 109.18 465.769 109.39C466.175 109.599 466.631 109.694 467.087 109.663C467.479 109.592 467.841 109.407 468.127 109.13C468.414 108.853 468.612 108.498 468.696 108.108C468.732 108.09 468.586 108.035 468.513 108.108Z" fill="#263238"/>
<path d="M461.567 100.374C461.567 100.374 460.835 103.117 460.652 104.415C460.652 104.543 460.963 104.653 461.402 104.726C462.504 105.072 463.679 105.111 464.8 104.837C465.922 104.563 466.947 103.987 467.765 103.172C467.781 103.147 467.789 103.117 467.788 103.087C467.787 103.058 467.777 103.029 467.759 103.005C467.741 102.981 467.716 102.963 467.688 102.954C467.66 102.944 467.629 102.944 467.601 102.952C465.776 103.887 463.698 104.207 461.676 103.867C461.676 103.483 463.103 99.2041 462.901 99.1676C461.869 99.1271 460.836 99.2255 459.83 99.4601C461.201 93.7005 463.487 88.2151 464.803 82.4737C464.811 82.4509 464.815 82.4267 464.814 82.4024C464.813 82.3781 464.808 82.3542 464.797 82.3322C464.787 82.3101 464.773 82.2902 464.755 82.2737C464.737 82.2572 464.716 82.2444 464.693 82.236C464.671 82.2276 464.646 82.2238 464.622 82.2248C464.598 82.2257 464.574 82.2315 464.552 82.2416C464.53 82.2518 464.51 82.2663 464.493 82.2841C464.477 82.302 464.464 82.3229 464.456 82.3457C461.828 88.1525 459.776 94.2033 458.33 100.411C458.221 101.142 461.018 100.502 461.567 100.374Z" fill="#263238"/>
<path d="M461.6 104.25C462.189 105.418 463.071 106.414 464.159 107.139C464.761 107.514 465.463 107.693 466.171 107.651C467.743 107.541 467.999 106.188 467.999 104.982C467.967 104.331 467.857 103.686 467.67 103.062C465.827 104.1 463.698 104.517 461.6 104.25Z" fill="#263238"/>
<path d="M464.161 107.139C464.762 107.514 465.465 107.693 466.172 107.651C467.745 107.542 468.001 106.189 468.001 104.982C467.211 104.853 466.401 104.996 465.703 105.388C465.005 105.78 464.462 106.398 464.161 107.139Z" fill="#FF9BBC"/>
<path d="M475.663 132.409L481.294 144.641L496.014 128.094L500.658 132.939C500.658 132.939 486.725 158.775 486.579 157.642L480.91 147.146L473.853 154.99L473.523 136.176L475.663 132.409Z" fill="#EBEBEB"/>
<path d="M473.156 145.701C473.156 142.593 473.156 139.466 473.376 136.358C473.376 136.248 473.54 136.193 473.577 136.358C474.345 139.32 474.089 151.205 474.253 154.039C474.546 153.71 480.818 147.109 480.891 147.219C482.079 148.864 486.248 156.507 486.541 157.202C488.735 153.107 497.219 138.168 499.87 134.255C499.888 134.238 499.91 134.226 499.935 134.223C499.959 134.22 499.984 134.225 500.005 134.238C500.026 134.251 500.042 134.27 500.051 134.293C500.06 134.316 500.06 134.341 500.053 134.365C498.225 138.68 486.943 158.775 486.76 158.738C484.593 155.135 482.609 151.425 480.818 147.621C478.57 150.567 476.126 153.359 473.504 155.977C473.202 152.561 473.087 149.13 473.156 145.701Z" fill="#263238"/>
<path d="M254.252 308.818C251.802 306.843 252.131 308.727 253.503 314.139C255.075 320.374 269.959 334.782 263.358 339.042C254.051 345.003 236.096 315.656 233.207 306.77C230.299 297.508 229.48 287.716 230.811 278.1C236.681 283.768 254.252 308.818 254.252 308.818Z" fill="#AD6359"/>
<path d="M336.399 351.704L205.317 362.227L211.693 441.638L342.774 431.114L336.399 351.704Z" fill="#FFC727"/>
<path opacity="0.1" d="M336.389 351.711L205.308 362.235L208.31 399.635L339.391 389.111L336.389 351.711Z" fill="black"/>
<path d="M338.575 339.763L201.278 350.786L204.255 387.857L341.551 376.835L338.575 339.763Z" fill="#FFC727"/>
<path d="M297.129 321.819L298.83 342.974L288.883 343.76L287.914 331.729L249.992 334.782L250.961 346.814L241.014 347.6L239.313 326.463L297.129 321.819Z" fill="#263238"/>
<path d="M231.346 376.773L222.397 377.491L223.818 395.188L232.767 394.47L231.346 376.773Z" fill="#263238"/>
<path d="M321.986 369.504L313.037 370.223L314.458 387.92L323.407 387.202L321.986 369.504Z" fill="#263238"/>
<path d="M273.104 258.024C282.978 272.908 296.161 290.826 297.24 310.921C297.421 313.155 296.841 315.385 295.594 317.248C296.252 326.262 292.193 329.261 292.193 329.261C290.218 337.836 285.647 340.341 285.647 340.341C285.647 340.341 285.775 347.655 280.162 347.655C274.548 347.655 273.433 338.878 268.588 330.358C257.507 310.866 234.633 283.366 230.885 278.064L273.104 258.024Z" fill="#AD6359"/>
<path d="M271.238 301.76C274.547 307.431 277.467 313.32 279.978 319.387C282.325 326.194 284.159 333.168 285.463 340.25C285.475 340.286 285.498 340.318 285.529 340.341C285.561 340.363 285.598 340.375 285.637 340.375C285.675 340.375 285.713 340.363 285.744 340.341C285.775 340.318 285.798 340.286 285.81 340.25C284.675 326.327 279.742 312.982 271.548 301.669C271.311 301.358 271.091 301.504 271.238 301.76Z" fill="#263238"/>
<path d="M282.044 293.368C284.787 299.182 289.559 309.44 291.954 329.334H292.082C292.244 316.629 288.863 304.13 282.318 293.24C282.117 292.892 281.861 292.984 282.044 293.368Z" fill="#263238"/>
<path d="M287.932 288.961C292.229 299.036 293.674 305.929 295.539 317.248C295.539 317.248 295.667 317.248 295.648 317.248C294.88 304.138 293.125 299.475 288.335 288.76C288.17 288.394 287.768 288.559 287.932 288.961Z" fill="#263238"/>
<path d="M274.366 259.926C271.294 254.02 251.291 215.823 244.123 204.651C241.728 200.994 230.007 162.066 220.737 137.382C215.105 122.389 202.361 118.878 200.624 141.441C199.472 156.965 203.805 206.827 208.139 223.722C211.576 236.979 227.191 271.463 230.739 278.101C234.176 284.354 277.419 265.777 274.366 259.926Z" fill="#AD6359"/>
<path d="M226.001 278.009L274.529 258.024C274.529 258.024 248.784 210.959 244.085 201.488C239.386 192.016 230.609 161.646 221.558 138.68C212.507 115.715 201.445 125.735 200.366 138.991C199.287 153.344 202.707 206.095 206.345 223.1C209.984 240.105 226.001 278.009 226.001 278.009Z" fill="#FFC727"/>
<path d="M274.53 258.024L262.864 262.833L226.002 278.009C226.002 278.009 209.967 240.16 206.346 223.155C202.726 206.15 199.289 153.363 200.367 139.046C201.062 129.775 206.712 122.096 213.167 126.155C215.928 127.984 218.853 131.823 221.578 138.735C230.72 161.7 239.405 192.089 244.104 201.543C248.803 210.996 274.53 258.024 274.53 258.024Z" fill="#9FC5EF"/>
<path opacity="0.1" d="M262.864 262.833L226.002 278.009C226.002 278.009 209.967 240.16 206.346 223.155C202.726 206.15 199.289 153.363 200.367 139.046C201.062 129.775 206.712 122.096 213.167 126.155L262.864 262.833Z" fill="black"/>
<path d="M223.094 266.545C228.58 263.674 234.285 261.205 239.935 258.682C245.584 256.159 251.234 253.837 256.939 251.551C260.23 250.235 263.558 249.01 266.849 247.675C266.959 247.675 267.032 247.821 266.849 247.858C261.163 250.308 255.55 252.977 249.9 255.482C244.25 257.987 238.618 260.383 232.968 262.796C229.695 264.168 226.422 265.594 223.113 266.837C223.074 266.839 223.036 266.826 223.007 266.801C222.977 266.775 222.96 266.739 222.957 266.7C222.955 266.661 222.968 266.623 222.994 266.594C223.019 266.565 223.056 266.547 223.094 266.545Z" fill="#263238"/>
<path d="M173.436 518.305L173.454 519.146L175.1 649.405L254.692 647.815L238.346 250.673H171.132L173.436 518.305Z" fill="#37474F"/>
<path d="M188.591 590.402C188.444 578.504 188.255 566.607 188.024 554.71C187.573 530.904 187.134 507.097 186.707 483.29C185.83 435.933 185.062 388.576 184.403 341.219C184.001 314.505 184.019 287.773 183.325 261.059C183.325 261.059 183.325 261.059 183.215 261.059C182.776 284.829 183.05 308.599 183.087 332.497C183.123 356.395 183.233 380.037 183.453 403.917C183.928 451.292 184.586 498.649 185.702 546.007C186.012 559.373 186.342 572.72 186.799 586.086C187.256 599.453 187.567 612.8 188.499 626.13C188.499 626.173 188.516 626.215 188.547 626.246C188.578 626.277 188.62 626.294 188.664 626.294C188.707 626.294 188.749 626.277 188.78 626.246C188.811 626.215 188.828 626.173 188.828 626.13C189.048 614.172 188.755 602.268 188.591 590.402Z" fill="#263238"/>
<path d="M171.11 251.478L172.884 454.272L226.769 250.691H171.129L171.11 251.478Z" fill="#263238"/>
<path d="M229.257 250.619C228.965 251.99 224.266 273.803 219.402 292.527C215.855 306.222 212.216 318.235 210.113 319.478C208.011 320.722 196.199 326.006 192.341 327.597C192.341 327.597 166.377 457.198 152.681 497.369C140.028 534.45 87.698 633.571 87.698 633.571L11.7803 595.174C11.7803 595.174 71.0773 494.608 77.294 476.525C86.9666 448.549 123.17 311.963 123.17 311.963C123.17 311.963 122.896 269.196 137.304 250.527L229.257 250.619Z" fill="#37474F"/>
<path d="M142.643 300.151C144.709 299.621 146.94 299.456 149.061 299.127C150.78 298.853 152.48 298.542 154.162 298.176C157.416 297.588 160.5 296.29 163.195 294.373C166.139 292.088 167.62 288.614 169.046 285.231C169.887 283.256 170.765 281.282 171.643 279.325C172.063 278.374 172.502 277.497 172.941 276.473C173.541 275.373 174.072 274.237 174.532 273.072C174.532 272.889 174.861 273.072 174.806 273.072C174.515 273.874 174.271 274.692 174.074 275.522C173.782 276.473 173.508 277.35 173.215 278.393C172.685 280.093 172.173 281.793 171.624 283.494C170.767 286.604 169.54 289.6 167.967 292.417C164.822 297.409 159.227 299.42 153.632 300.133C152.023 300.334 150.396 300.444 148.787 300.535C146.749 300.718 144.699 300.718 142.661 300.535C142.613 300.484 142.584 300.417 142.58 300.347C142.577 300.276 142.599 300.207 142.643 300.151Z" fill="#263238"/>
<path d="M216.237 316.497C208.007 319.495 200.054 323.202 192.467 327.578C192.413 327.614 192.374 327.668 192.356 327.73C192.339 327.792 192.343 327.858 192.369 327.917C192.396 327.976 192.442 328.024 192.5 328.052C192.558 328.08 192.624 328.087 192.686 328.072C200.695 324.634 208.868 321.325 216.694 317.448C216.806 317.38 216.888 317.272 216.925 317.146C216.962 317.02 216.951 316.885 216.895 316.767C216.838 316.648 216.739 316.555 216.617 316.506C216.496 316.456 216.36 316.453 216.237 316.497Z" fill="#263238"/>
<path d="M218.688 261.589C218.688 261.315 218.176 261.26 218.176 261.589C218.19 270.522 217.751 279.451 216.86 288.339C216.494 292.472 213.203 315.291 205.998 313.627C204.81 313.334 204.17 312.164 204.005 310.354C204.034 307.99 204.353 305.638 204.956 303.351C205.761 298.585 206.37 293.788 206.785 288.961C207.62 279.979 207.522 270.935 206.492 261.973C206.478 261.923 206.448 261.88 206.407 261.849C206.365 261.817 206.315 261.801 206.264 261.801C206.212 261.801 206.162 261.817 206.12 261.849C206.079 261.88 206.049 261.923 206.035 261.973C206.238 274.432 205.504 286.888 203.841 299.237C202.945 305.18 199.965 314.102 206.163 315.017C212.361 315.931 216.585 300.992 217.353 296.897C219.322 285.235 219.771 273.366 218.688 261.589Z" fill="#263238"/>
<path d="M206.145 314.304C205.5 315.843 204.962 317.426 204.536 319.04C204.069 320.284 203.839 321.605 203.86 322.934C203.882 322.981 203.917 323.02 203.961 323.047C204.005 323.075 204.055 323.089 204.107 323.089C204.158 323.089 204.209 323.075 204.252 323.047C204.296 323.02 204.331 322.981 204.353 322.934C205.103 321.768 205.664 320.49 206.017 319.149C206.566 317.687 207.133 316.242 207.645 314.761C207.657 314.58 207.608 314.4 207.504 314.25C207.401 314.1 207.25 313.99 207.077 313.937C206.903 313.884 206.716 313.891 206.547 313.958C206.378 314.025 206.236 314.147 206.145 314.304Z" fill="#263238"/>
<path d="M32.1855 582.686C42.9917 562.335 54.1271 542.185 65.3173 522.036C70.8026 512.107 76.5806 502.288 81.7734 492.232C86.7303 482.264 90.7519 471.858 93.7864 461.148C100.479 439.426 106.811 417.594 112.784 395.652C118.757 373.711 124.37 351.684 129.624 329.572C130.941 324.086 132.385 318.51 133.446 312.915C134.406 307.275 134.406 301.513 133.446 295.873C132.636 290.623 132.593 285.283 133.318 280.021C134.141 274.767 135.363 269.583 136.975 264.515C137.816 261.846 138.803 259.194 139.644 256.543C139.674 256.494 139.719 256.456 139.772 256.435C139.826 256.415 139.885 256.413 139.939 256.43C139.994 256.446 140.042 256.481 140.074 256.528C140.107 256.575 140.123 256.632 140.12 256.689C136.847 267.386 133.482 278.229 134.195 289.602C134.524 295.087 136.024 300.408 135.878 305.893C135.53 311.344 134.611 316.743 133.135 322.002C127.954 344.236 122.408 366.391 116.496 388.467C110.584 410.542 104.318 432.484 97.6993 454.291C94.4812 464.933 91.4642 475.721 86.8931 485.869C82.3219 496.017 76.5074 505.634 71.0586 515.343C59.777 535.456 48.404 555.423 36.775 575.28C35.3122 577.804 33.8129 580.309 32.3318 582.814C32.405 583.088 32.1855 582.85 32.1855 582.686Z" fill="#263238"/>
<path d="M238.216 256.341C236.534 258.17 129.057 260.199 128.508 259.523C126.917 257.694 154.436 146.707 179.193 126.192C184.514 121.785 203.804 122.681 206.456 124.144C212.617 127.545 218.231 134.438 222.546 146.908C231.176 171.885 239.679 254.659 238.216 256.341Z" fill="#9FC5EF"/>
<path d="M235.875 218.95C234.534 207.613 232.931 196.307 231.066 185.032C231.083 185.015 231.092 184.992 231.092 184.968C231.092 184.944 231.083 184.921 231.066 184.904C230.901 181.631 230.664 178.358 230.261 175.103C230.261 175.012 230.097 175.012 230.115 175.103C230.115 177.608 230.371 180.095 230.591 182.582C229.457 175.963 228.238 169.356 226.934 162.761C228.762 174.774 230.444 186.805 232.017 198.855C232.821 204.962 233.553 211.087 234.284 217.14C235.015 223.192 235.473 229.098 236.112 235.077C236.844 241.824 237.374 248.626 238.471 255.336C238.471 255.647 239.001 255.556 239.001 255.245C239.075 243.159 237.264 230.999 235.875 218.95Z" fill="#263238"/>
<path d="M208.905 140.874C202.871 142.703 191.699 134.072 186.963 126.758C186.652 126.265 187.42 105.292 187.128 101.16C187.128 100.319 213.75 105.768 213.75 105.768C212.602 111.082 212.111 116.516 212.287 121.95C212.415 122.516 214.738 139.082 208.905 140.874Z" fill="#AD6359"/>
<path d="M212.362 121.913C212.362 121.913 212.362 122.279 212.453 122.736C197.35 121.84 190.347 113.685 187.221 107.651C187.221 104.726 187.221 102.294 187.221 101.142C187.221 100.283 213.825 105.731 213.825 105.731C212.683 111.046 212.191 116.48 212.362 121.913Z" fill="#263238"/>
<path d="M212.565 123.285L206.86 139.064L186.747 120.048L181.499 126.558C181.499 126.558 201.502 157.184 201.612 155.813L207.555 142.173L217.136 151.187L215.563 127.783L212.565 123.285Z" fill="#EBEBEB"/>
<path d="M217.059 139.521C216.657 135.663 216.383 131.769 215.816 127.947C215.816 127.801 215.578 127.746 215.542 127.947C214.902 131.714 216.474 146.433 216.584 149.98C216.182 149.596 207.716 142.063 207.643 142.191C206.326 144.367 201.975 154.314 201.682 155.21C198.5 150.346 186.414 132.683 182.703 128.112C182.593 127.984 182.392 128.112 182.483 128.258C185.244 133.286 201.28 157.056 201.499 157.056C203.823 152.366 205.898 147.557 207.716 142.648C209.16 144.294 217.736 152.814 217.754 152.247C217.743 147.996 217.511 143.749 217.059 139.521Z" fill="#263238"/>
<path d="M215.141 55.3748C215.141 55.3748 223.734 59.0317 225.325 67.6437C226.916 76.2558 224.923 85.5078 224.173 85.9283C223.424 86.3489 215.141 55.3748 215.141 55.3748Z" fill="#263238"/>
<path d="M181.532 66.4559C178.515 75.7079 182.903 102.641 189.394 108.748C198.829 117.598 214.517 118.732 222.124 107.359C229.438 96.3878 223.148 61.3362 215.871 55.7594C205.137 47.5496 185.993 52.8339 181.532 66.4559Z" fill="#AD6359"/>
<path opacity="0.2" d="M183 87.3265C184.021 96.468 186.815 106.356 190.463 109.636C199.281 117.627 214.19 118.855 221.619 108.905C224.263 105.345 225.2 98.8933 224.965 91.8972C224.965 92.2237 223.727 97.3075 220.581 97.7895C219.667 97.9271 218.729 97.7922 217.903 97.4039C217.076 97.0157 216.403 96.3942 215.98 95.6285L213.872 95.1932C210.829 97.1195 210.652 93.934 207 93.5C204.519 93.3633 198.585 96.7107 196.421 95.5736C194.257 94.4364 192.403 92.8545 190.998 90.9489C189.007 88.1038 189.107 87 189.107 87L183 87.3265Z" fill="#263238"/>
<path d="M184.368 92.1826C187.696 92.6032 189.67 82.4735 190.054 78.652C190.402 75.2694 189.67 64.902 189.689 64.1706C189.707 63.4392 205.029 70.7896 212.581 67.0779C220.132 63.3661 224.21 55.3026 223.734 51.9382C223.259 48.5738 211.904 41.8634 203.274 42.9239C194.644 43.9844 184.989 56.8568 184.989 56.8568C186.117 55.0243 187.095 53.1043 187.915 51.1154C186.476 51.719 185.206 52.6663 184.218 53.8745C183.23 55.0827 182.553 56.5147 182.247 58.0453C182.247 58.0453 182.466 52.9073 182.046 52.889C181.625 52.8707 178.06 57.8624 179.577 60.8977C179.577 60.8977 175.372 66.0539 175.737 70.8628C176.103 75.6716 180.455 91.7072 184.368 92.1826Z" fill="#263238"/>
<path d="M217.94 64.4262C215.809 66.1091 213.436 67.4592 210.901 68.4305C208.019 69.204 204.99 69.248 202.087 68.5585C199.166 67.9746 196.361 66.912 193.786 65.4136C191.501 64.1336 189.398 62.4514 187.021 61.3727C186.417 61.0984 185.942 61.9761 186.344 62.3966C190.767 66.7747 196.477 69.62 202.636 70.515C205.499 70.928 208.421 70.5889 211.114 69.531C213.807 68.4731 216.178 66.7328 217.995 64.481C217.995 64.481 217.977 64.4079 217.94 64.4262Z" fill="#263238"/>
<path d="M187.239 89.7691C187.239 89.7691 181.168 81.0839 177.219 83.2598C173.269 85.4356 177.859 97.9971 182.485 99.7159C183.063 99.9765 183.688 100.118 184.322 100.131C184.956 100.145 185.586 100.031 186.175 99.7952C186.764 99.5596 187.3 99.2077 187.749 98.7606C188.199 98.3134 188.554 97.7801 188.793 97.1926L187.239 89.7691Z" fill="#AD6359"/>
<path d="M178.627 86.8247C178.536 86.8247 178.536 86.8247 178.627 86.9527C181.882 88.2509 183.582 91.2679 184.789 94.3763C184.597 94.0536 184.338 93.776 184.03 93.5624C183.721 93.3488 183.37 93.2041 183.001 93.1382C182.631 93.0722 182.252 93.0866 181.888 93.1804C181.525 93.2741 181.186 93.445 180.894 93.6814C180.894 93.6814 180.894 93.8643 180.986 93.846C181.555 93.6612 182.167 93.6588 182.738 93.8391C183.308 94.0194 183.808 94.3734 184.167 94.8517C184.773 95.6514 185.289 96.5161 185.703 97.4298C185.85 97.7223 186.38 97.5578 186.27 97.2287C186.288 93.0598 183.07 87.2453 178.627 86.8247Z" fill="#263238"/>
<path d="M206.584 82.4001C206.584 82.4001 206.438 82.5099 206.456 82.6013C206.785 84.4297 206.84 86.697 205.213 87.5747C207.297 87.081 207.188 84.1372 206.584 82.4001Z" fill="#263238"/>
<path d="M204.608 80.6632C201.518 80.8643 202.14 87.0079 205.01 86.8251C207.881 86.6422 207.186 80.4986 204.608 80.6632Z" fill="#263238"/>
<path d="M217.059 81.1934C217.059 81.1934 217.224 81.1934 217.224 81.3579C217.352 83.1864 217.827 85.4354 219.619 85.8925V86.0022C217.48 85.9108 216.858 83.0218 217.059 81.1934Z" fill="#263238"/>
<path d="M218.561 79.0352C221.596 78.4867 222.474 84.5206 219.658 85.124C216.842 85.7274 216.02 79.4923 218.561 79.0352Z" fill="#263238"/>
<path d="M201.902 78.1033C202.707 77.7925 203.42 77.3902 204.188 77.0246C205.05 76.7512 205.801 76.2059 206.327 75.4704C206.445 75.207 206.473 74.9123 206.407 74.6315C206.341 74.3507 206.184 74.0994 205.962 73.9162C205.463 73.6237 204.895 73.4695 204.316 73.4695C203.738 73.4695 203.17 73.6237 202.67 73.9162C201.57 74.3493 200.67 75.1773 200.147 76.2383C200.045 76.4882 200.017 76.7621 200.067 77.0274C200.116 77.2927 200.241 77.5382 200.426 77.7348C200.611 77.9313 200.848 78.0705 201.11 78.1358C201.372 78.2012 201.647 78.1899 201.902 78.1033Z" fill="#263238"/>
<path d="M220.626 75.708C219.785 75.6186 218.949 75.4843 218.121 75.3057C217.218 75.2995 216.342 74.9905 215.635 74.4281C215.461 74.1992 215.367 73.9199 215.367 73.6327C215.367 73.3455 215.461 73.0662 215.635 72.8373C216.028 72.4158 216.527 72.107 217.08 71.9431C217.633 71.7791 218.22 71.7659 218.78 71.9048C219.955 72.0164 221.049 72.5566 221.851 73.4224C222.035 73.6352 222.149 73.8983 222.18 74.1774C222.21 74.4564 222.156 74.7381 222.023 74.9855C221.89 75.2329 221.686 75.4344 221.437 75.5633C221.187 75.6923 220.905 75.7427 220.626 75.708Z" fill="#263238"/>
<path d="M207.243 94.2484C207.799 94.9534 208.496 95.5352 209.289 95.9569C210.083 96.3787 210.955 96.6312 211.85 96.6986C212.639 96.7654 213.433 96.7223 214.209 96.5706H214.648L215.05 96.4609C215.151 96.4294 215.24 96.3662 215.302 96.2806C215.365 96.195 215.398 96.0915 215.398 95.9855C215.398 95.9855 215.398 95.8575 215.398 95.7843V95.6197C215.288 94.157 214.922 91.9628 214.922 91.9628C215.489 92.164 218.341 93.1148 218.232 92.3651C217.387 85.7699 215.88 79.2766 213.734 72.9834C213.722 72.9468 213.698 72.915 213.667 72.8924C213.636 72.8698 213.598 72.8577 213.56 72.8577C213.521 72.8577 213.484 72.8698 213.453 72.8924C213.421 72.915 213.398 72.9468 213.386 72.9834C214.118 79.0722 215.928 84.9964 216.769 91.1218C215.757 90.7617 214.697 90.5522 213.624 90.5001C213.423 90.5001 214.41 94.7604 214.41 95.4369C213.222 95.6716 212 95.668 210.813 95.4263C209.627 95.1847 208.5 94.7097 207.499 94.029C207.243 93.9741 207.115 94.1021 207.243 94.2484Z" fill="#263238"/>
<path d="M213.202 96.0219C212.453 97.1151 211.44 98.0018 210.258 98.6C209.6 98.8996 208.864 98.9829 208.155 98.8377C206.601 98.5269 206.473 97.1373 206.693 95.9122C206.812 95.2812 207.009 94.6672 207.278 94.0837C208.995 95.3455 211.071 96.0247 213.202 96.0219Z" fill="#263238"/>
<path d="M210.33 98.5455C209.672 98.8451 208.936 98.9283 208.228 98.7832C206.673 98.4723 206.545 97.0827 206.765 95.8576C207.573 95.849 208.36 96.108 209.005 96.5942C209.65 97.0804 210.116 97.7666 210.33 98.5455Z" fill="#FF9BBC"/>
<path d="M169.32 160.585C177.238 197.154 186.8 242.007 196.985 249.284C212.893 260.639 257.763 268.995 274.164 269.397C280.984 269.543 289.469 216.481 282.173 216.371C266.594 216.225 233.079 216.957 229.349 214.543C225.619 212.129 206.749 178.998 191.81 153.29C173.855 122.315 164.676 139.448 169.32 160.585Z" fill="#AD6359"/>
<path d="M273.323 216.334C273.323 216.334 294.35 215.987 307.881 217.322C315.432 218.09 328.36 221.509 333.644 224.636C341.561 229.262 371.731 253.653 365.989 261.095C360.76 267.787 337.538 243.542 337.538 243.542C337.538 243.542 363.137 265.941 355.421 272.797C347.705 279.654 325.013 248.863 325.013 248.863C325.013 248.863 350.831 272.468 341.689 278.374C334.777 282.854 312.708 256.012 312.708 256.012C312.708 256.012 334.759 276.454 327.848 281.354C320.205 286.84 298.281 263.289 298.281 263.289C278.625 272.779 265.954 271.773 256.83 268.153C256.794 268.244 267.161 231.693 273.323 216.334Z" fill="#AD6359"/>
<path d="M329.146 235.241C332.254 237.746 335.399 240.287 338.288 243.067C341.177 245.846 343.938 248.753 346.553 251.788C350.024 255.698 353.036 259.993 355.53 264.588C350.502 256.744 340.372 246.614 337.502 243.816C334.631 241.019 331.907 238.112 329.054 235.314C328.963 235.259 329.073 235.168 329.146 235.241Z" fill="#263238"/>
<path d="M318.887 245.425C323.842 247.967 335.343 258.828 340.536 266.617C340.755 266.928 340.536 266.946 340.28 266.617C336.733 262.96 322.507 248.899 318.796 245.444C318.741 245.444 318.814 245.389 318.887 245.425Z" fill="#263238"/>
<path d="M308.502 252.575C314.964 257.111 320.495 262.847 324.794 269.47C325.013 269.799 324.794 269.799 324.446 269.47C319.144 263.747 315.011 259.23 308.338 252.757C308.283 252.684 308.374 252.483 308.502 252.575Z" fill="#263238"/>
<path d="M270.489 214.799C270.489 214.799 254.984 272.523 254.033 271.627C253.082 270.731 205.195 260.656 194.187 249.923C183.18 239.19 169.905 174.152 167.547 154.642C165.188 135.133 176.433 127.691 190.201 149.157C203.97 170.623 228.599 211.087 230.428 212.147C232.256 213.208 270.489 214.799 270.489 214.799Z" fill="#9FC5EF"/>
<path d="M242.695 263.929C244.03 257.895 245.859 251.935 247.577 245.992C249.296 240.05 251.234 234.253 253.063 228.439C254.196 225.056 255.403 221.729 256.518 218.346C256.518 218.236 256.738 218.346 256.701 218.346C254.873 224.252 253.319 230.249 251.563 236.192C249.808 242.134 248.016 247.949 246.078 253.818C245.017 257.201 243.993 260.62 242.787 263.948C242.896 264.167 242.659 264.094 242.695 263.929Z" fill="#263238"/>
<path d="M209.051 257.877C203.897 255.986 199.15 253.132 195.063 249.467C190.473 244.987 188.956 238.35 186.999 232.425C182.721 219.48 179.137 206.351 175.809 193.15C173.981 185.635 172.298 178.047 170.635 170.477C170.635 170.477 170.488 170.477 170.507 170.477C171.329 176.31 172.335 182.124 173.524 187.902C172.536 184.757 171.567 181.631 170.525 178.504C170.525 178.394 170.305 178.504 170.342 178.504C171.342 182.548 172.563 186.534 173.999 190.444C175.51 197.599 177.229 204.706 179.155 211.764C180.984 218.553 182.983 225.288 185.153 231.968C186.213 235.241 187.274 238.532 188.499 241.75C189.446 244.504 190.924 247.045 192.85 249.229C197.202 253.928 203.163 255.793 208.904 258.06C209.087 258.207 209.197 257.932 209.051 257.877Z" fill="#263238"/>
<path d="M247.76 213.519C243.171 213.117 232.255 212.733 231.304 211.983C230.43 211.115 229.679 210.131 229.073 209.058L225.288 203.079C220.498 195.497 215.652 187.939 210.752 180.406C209.472 177.462 208.229 174.518 206.784 171.648C206.784 171.538 206.546 171.648 206.601 171.739C207.534 174.098 208.594 176.402 209.655 178.705C206.802 174.372 203.84 170.093 200.897 165.906H200.769C205.803 174.524 210.984 183.057 216.31 191.505L224.246 204.03L228.305 210.374C228.67 211.15 229.207 211.831 229.876 212.367C230.545 212.903 231.327 213.278 232.163 213.465C234.54 213.83 244.962 213.922 247.723 213.848C247.943 213.739 247.943 213.538 247.76 213.519Z" fill="#263238"/>
<path d="M438.541 58.5932C440.788 55.2506 442.003 51.3209 442.033 47.2933C442.033 32.9764 426.309 21.3657 406.927 21.3657C387.545 21.3657 371.839 32.9764 371.839 47.3299C371.839 61.6833 387.545 73.2574 406.927 73.2574C415.542 73.3987 423.993 70.8903 431.136 66.0716L443.24 69.1617L438.541 58.5932Z" fill="#FFFEFD"/>
<path d="M438.54 58.5931C440.576 55.3893 441.702 51.6915 441.795 47.8966C441.83 44.1329 440.796 40.4365 438.815 37.2367C434.645 30.9468 428.37 26.3502 421.115 24.2729C413.953 22.0372 406.359 21.5544 398.972 22.865C391.584 24.0099 384.724 27.3921 379.316 32.5558C376.701 35.0954 374.744 38.2331 373.612 41.6981C372.503 45.1702 372.452 48.8935 373.465 52.3946C374.507 55.9033 376.39 59.1045 378.951 61.7198C381.558 64.3575 384.593 66.5338 387.928 68.1559C391.283 69.7829 394.845 70.9396 398.515 71.5934C402.193 72.3089 405.944 72.579 409.687 72.398C417.218 72.1152 424.528 69.7755 430.824 65.6327L430.989 65.5229H431.172L443.221 68.7959L442.965 69.1067L438.54 58.5931ZM438.54 58.5931L443.441 69.0336L443.623 69.4358L443.185 69.3261L431.044 66.4555H431.373C425.009 70.8421 417.552 73.3742 409.833 73.7693C402.096 74.356 394.338 72.9391 387.307 69.6553C383.783 67.9773 380.574 65.7076 377.817 62.9448C375.021 60.1494 372.944 56.7174 371.765 52.9431C370.633 49.1064 370.672 45.0194 371.875 41.2044C373.111 37.4493 375.238 34.0491 378.073 31.2942C383.76 25.9217 390.959 22.4242 398.698 21.2742C402.508 20.6286 406.381 20.4384 410.236 20.7074C414.077 21.0203 417.865 21.8 421.517 23.0295C425.185 24.2458 428.64 26.0288 431.757 28.3138C434.913 30.5678 437.555 33.4657 439.509 36.8161C441.454 40.1531 442.397 43.9795 442.225 47.838C442.053 51.6965 440.774 55.4239 438.54 58.5748V58.5931Z" fill="#263238"/>
<path d="M394.293 47.3288C394.293 48.0521 394.079 48.7591 393.677 49.3605C393.275 49.9618 392.704 50.4306 392.036 50.7073C391.368 50.9841 390.632 51.0566 389.923 50.9155C389.214 50.7743 388.562 50.4261 388.051 49.9146C387.539 49.4032 387.191 48.7516 387.05 48.0422C386.909 47.3329 386.981 46.5976 387.258 45.9294C387.535 45.2611 388.003 44.69 388.605 44.2882C389.206 43.8863 389.913 43.6719 390.636 43.6719C391.606 43.6719 392.536 44.0572 393.222 44.743C393.908 45.4288 394.293 46.3589 394.293 47.3288Z" fill="#FF8B13"/>
<path d="M406.928 50.9316C408.937 50.9316 410.566 49.3025 410.566 47.2929C410.566 45.2834 408.937 43.6543 406.928 43.6543C404.918 43.6543 403.289 45.2834 403.289 47.2929C403.289 49.3025 404.918 50.9316 406.928 50.9316Z" fill="#FF8B13"/>
<path d="M426.839 47.3288C426.839 48.0521 426.625 48.7591 426.223 49.3605C425.821 49.9618 425.25 50.4306 424.582 50.7073C423.914 50.9841 423.178 51.0566 422.469 50.9155C421.759 50.7743 421.108 50.4261 420.596 49.9146C420.085 49.4032 419.737 48.7516 419.596 48.0422C419.455 47.3329 419.527 46.5976 419.804 45.9294C420.081 45.2611 420.549 44.69 421.151 44.2882C421.752 43.8863 422.459 43.6719 423.182 43.6719C424.152 43.6719 425.082 44.0572 425.768 44.743C426.454 45.4288 426.839 46.3589 426.839 47.3288Z" fill="#FF8B13"/>
<path d="M247.084 37.9862C244.839 34.6427 243.624 30.7137 243.592 26.6864C243.592 12.3695 259.316 0.758789 278.698 0.758789C298.08 0.758789 313.786 12.3695 313.786 26.6864C313.786 41.0032 298.08 52.6139 278.698 52.6139C270.085 52.7747 261.63 50.2923 254.471 45.5012L242.385 48.573L247.084 37.9862Z" fill="#FF8B13"/>
<path d="M247.083 37.9857C244.849 34.8348 243.57 31.1074 243.398 27.2489C243.227 23.3904 244.169 19.564 246.114 16.227C248.065 12.8804 250.701 9.98317 253.848 7.72466C256.965 5.43996 260.42 3.65698 264.088 2.44041C267.747 1.21263 271.541 0.432906 275.388 0.118276C279.242 -0.150738 283.115 0.0395344 286.925 0.685094C294.664 1.85403 301.857 5.37077 307.532 10.7599C310.379 13.5092 312.512 16.9107 313.749 20.6702C314.958 24.485 314.99 28.5757 313.84 32.4089C312.675 36.1853 310.604 39.6191 307.806 42.4106C305.05 45.1734 301.84 47.4431 298.317 49.121C291.284 52.3978 283.526 53.8083 275.79 53.2168C268.065 52.8231 260.602 50.291 254.232 45.9029H254.58L242.439 48.7736L242 48.8833L242.183 48.4628L247.083 37.9857ZM247.083 37.9857L242.585 48.5908L242.329 48.2982L254.379 45.0253H254.562L254.726 45.1532C261.022 49.2961 268.332 51.6358 275.863 51.9186C279.599 52.0476 283.336 51.7346 286.998 50.986C290.673 50.3399 294.237 49.1764 297.585 47.5303C300.924 45.9213 303.96 43.7504 306.563 41.1124C309.119 38.4935 311.001 35.2936 312.048 31.7872C313.061 28.2861 313.011 24.5628 311.902 21.0907C310.749 17.6354 308.794 14.5025 306.197 11.9484C300.784 6.7972 293.926 3.42245 286.541 2.27586C279.148 0.965156 271.548 1.44798 264.38 3.68377C257.159 5.76847 250.916 10.3581 246.772 16.6293C244.821 19.8147 243.795 23.4805 243.81 27.2161C243.899 31.0371 245.031 34.7611 247.083 37.9857Z" fill="#263238"/>
<path d="M294.952 30.3251C296.962 30.3251 298.591 28.696 298.591 26.6865C298.591 24.6769 296.962 23.0479 294.952 23.0479C292.943 23.0479 291.313 24.6769 291.313 26.6865C291.313 28.696 292.943 30.3251 294.952 30.3251Z" fill="#263238"/>
<path d="M275.06 26.6857C275.06 27.409 275.274 28.116 275.676 28.7174C276.078 29.3188 276.649 29.7875 277.317 30.0643C277.985 30.3411 278.721 30.4135 279.43 30.2724C280.139 30.1313 280.791 29.783 281.302 29.2716C281.814 28.7601 282.162 28.1085 282.303 27.3992C282.444 26.6898 282.372 25.9545 282.095 25.2863C281.818 24.6181 281.35 24.0469 280.748 23.6451C280.147 23.2433 279.44 23.0288 278.716 23.0288C277.747 23.0288 276.816 23.4141 276.131 24.0999C275.445 24.7857 275.06 25.7159 275.06 26.6857Z" fill="#263238"/>
<path d="M258.786 26.6857C258.786 27.409 259.001 28.116 259.402 28.7174C259.804 29.3188 260.375 29.7875 261.044 30.0643C261.712 30.3411 262.447 30.4135 263.156 30.2724C263.866 30.1313 264.517 29.783 265.029 29.2716C265.54 28.7601 265.889 28.1085 266.03 27.3992C266.171 26.6898 266.098 25.9545 265.822 25.2863C265.545 24.6181 265.076 24.0469 264.475 23.6451C263.873 23.2433 263.166 23.0288 262.443 23.0288C261.473 23.0288 260.543 23.4141 259.857 24.0999C259.171 24.7857 258.786 25.7159 258.786 26.6857Z" fill="#263238"/>
</svg>
