<svg width="265" height="222" viewBox="0 0 265 222" fill="none" xmlns="http://www.w3.org/2000/svg">
<path fill-rule="evenodd" clip-rule="evenodd" d="M121.097 246.874C129.477 241.603 137.744 236.402 144.519 229.845L144.517 229.839C144.166 230.011 143.752 230.209 143.295 230.429L143.295 230.429L143.294 230.429L143.293 230.43C142.069 231.017 140.531 231.756 139.025 232.545C132.05 236.202 125.396 240.395 118.74 244.59L118.74 244.59L118.74 244.59L118.74 244.59L118.74 244.59C115.041 246.921 111.341 249.253 107.586 251.493L107.273 251.679C99.1259 256.532 90.975 261.387 81.9683 264.54C79.312 265.472 76.6026 266.405 73.8365 266.839C62.4748 268.61 53.461 264.623 47.0105 255.137C42.2457 248.13 37.8497 240.89 33.4793 233.622C24.1684 218.131 15.1557 202.487 7.55641 186.067L7.53691 186.025C5.76312 182.188 5.66355 181.973 9.31623 179.733C14.1326 176.781 19.0249 173.957 23.9177 171.132C26.0394 169.908 28.1611 168.683 30.2768 167.448C30.8156 167.132 31.3563 166.82 31.897 166.508C33.6437 165.499 35.3902 164.491 37.0704 163.388C40.867 160.894 40.9019 159.033 37.3268 156.024C37.1134 155.844 36.8776 155.694 36.6421 155.544C36.3991 155.389 36.1566 155.234 35.9395 155.048C31.4838 151.192 28.8822 146.366 28.0256 140.496C27.5104 136.955 28.6479 134.241 31.2266 131.943C37.268 126.55 45.483 127.34 51.0948 134.143C52.7728 136.177 54.098 138.515 55.4136 140.837C55.6798 141.307 55.9456 141.776 56.2139 142.242C58.4624 146.143 59.6206 146.695 63.2912 144.58C69.8135 140.812 76.2639 136.912 82.6698 132.95C84.3176 131.94 85.9801 130.771 87.1283 128.677C84.8351 128.72 83.1489 129.546 81.4923 130.357L81.4887 130.359C77.261 132.427 73.052 134.536 68.8528 136.656C68.1099 137.031 67.3618 137.52 66.6153 138.007C65.0079 139.058 63.4076 140.103 61.8809 140.002C59.8691 139.865 59.0866 137.989 58.2974 136.096C57.9247 135.203 57.5504 134.305 57.0445 133.586C52.5126 127.156 46.5146 123.301 38.5923 123.366C28.0785 123.445 19.5876 132.098 23.7715 146.226C24.9712 150.281 27.5241 153.585 30.4298 156.599C31.904 158.133 32.1086 159.241 29.9505 160.506C25.358 163.194 20.804 165.949 16.2491 168.705L16.248 168.705L16.2468 168.706C13.2302 170.531 10.2132 172.356 7.18435 174.162C-1.19867 179.155 -1.74217 181.277 3.11052 189.942C5.89666 194.917 8.66313 199.903 11.4294 204.889L11.4295 204.889C17.1646 215.226 22.899 225.561 28.8064 235.798C29.0823 236.276 29.3578 236.754 29.6333 237.232C34.2447 245.232 38.8658 253.25 44.9901 260.285C51.2329 267.464 58.6826 272.122 68.4399 271.838C75.8564 271.623 82.9407 269.787 89.5502 266.277C96.5498 262.56 103.404 258.57 109.927 254.106C113.59 251.596 117.355 249.228 121.097 246.874ZM292.751 163.54C293 162.764 293.249 161.988 293.502 161.214L293.501 161.208L294.718 160.918C299.814 170.405 303.001 180.461 302.944 191.41C302.903 199.966 300.377 207.741 295.085 214.528C290.985 219.792 286.053 224.121 280.074 227.141C268.222 233.132 255.696 236.057 242.386 234.969C238.368 234.646 238.367 234.476 238.334 230.617L238.334 230.581C238.329 230.02 238.341 229.459 238.353 228.899L238.353 228.898C238.373 227.948 238.393 226.998 238.333 226.054C237.403 211.345 227.637 196.769 211.637 193.604C205.656 192.42 200.173 192.97 196.25 197.962C192.35 202.919 192.875 208.429 195.489 213.948C198.496 220.3 203.13 225.057 209.005 228.787C215.428 232.862 222.268 235.959 229.598 237.915C231.807 238.507 232.484 239.392 231.359 241.426C227.923 247.646 223.736 252.981 216.83 255.833C207.129 259.836 197.384 259.185 187.436 257.149C185.242 256.702 183.122 255.977 180.947 255.234L180.947 255.234C177.89 254.19 174.726 253.109 171.095 252.707C177.796 257.373 184.689 259.14 191.66 260.851C208.511 264.992 227.546 259.001 235.794 241.948C236.976 239.502 238.502 239.446 240.74 239.533C255.499 240.104 269.408 237.137 282.864 230.732C301.127 222.033 311.816 199.965 306.492 179.47C306.211 178.387 305.95 177.297 305.689 176.206L305.689 176.206L305.689 176.205L305.689 176.205L305.689 176.205C304.722 172.166 303.754 168.117 301.729 164.401C301.301 163.612 301.029 162.618 302.415 161.77C303.341 161.764 304.248 162.163 305.183 162.575C306.389 163.106 307.643 163.658 309.051 163.389C309.787 160.957 308.284 159.579 306.92 158.428C303.327 155.404 299.699 152.396 295.842 149.736C292.269 147.27 289.978 148.378 289.125 152.734C288.354 156.689 287.768 160.672 287.182 164.658L287.182 164.658L287.182 164.659L287.182 164.659L287.182 164.659L287.13 165.012C286.971 166.117 287.041 167.271 287.136 168.39C287.154 168.603 287.162 168.829 287.17 169.059L287.17 169.06C287.209 170.195 287.253 171.435 288.564 171.749C290.074 172.108 290.383 170.938 290.664 169.876C290.731 169.627 290.795 169.383 290.873 169.167C291.544 167.307 292.148 165.424 292.751 163.542L292.751 163.541L292.751 163.541L292.751 163.541L292.751 163.54ZM214.665 199.098C224.225 203.21 230.2 209.948 233.275 220.64L233.279 220.632C234.326 223.222 234.631 226.776 234.428 230.363C234.247 233.56 233.608 234.274 230.654 233.54C218.866 230.612 208.422 225.36 201.225 215.122C197.582 209.939 197.251 204.381 199.96 200.952C202.571 197.646 209.316 196.799 214.665 199.098ZM162.021 61.1172C160.61 61.6309 159.251 62.0562 157.945 62.4648C155.115 63.3504 152.534 64.158 150.21 65.6202C144.849 68.993 141.679 73.6672 142.44 80.1822C143.276 87.3595 149.832 92.3621 157.419 91.7363C161.167 91.4297 164.863 90.6618 168.517 89.6781C174.595 88.0509 176.518 89.2552 177.372 95.4213C178.625 104.511 179.736 113.619 180.846 122.726C180.967 123.715 181.088 124.704 181.208 125.693L181.235 125.913C181.639 129.229 181.652 129.332 185.242 128.805C187.304 128.499 189.367 128.204 191.43 127.908L191.431 127.908L191.431 127.908L191.432 127.908C199.064 126.815 206.697 125.721 214.245 124.1C219.519 122.965 220.804 123.89 221.824 129.257L221.856 129.42C222.762 134.165 223.663 138.88 226.397 143.107C228.994 147.122 232.675 148.565 237.006 148.138C241.174 147.73 243.389 144.726 244.715 140.87C246.516 135.637 245.992 130.456 244.744 125.275C244.615 124.742 244.49 124.243 244.373 123.775C242.9 117.876 242.657 116.905 251.556 116.173C255.085 115.884 258.594 115.389 262.102 114.893C267.732 114.098 273.362 113.303 279.078 113.362C280.195 113.376 281.309 113.519 282.475 113.935C275.557 116.675 268.297 117.878 261.002 118.936C259.62 119.138 258.244 119.375 256.868 119.612C255.277 119.887 253.687 120.161 252.088 120.38C249.673 120.705 248.941 121.841 249.534 124.233C250.591 128.443 251.406 132.722 250.846 137.095C250.367 140.841 249.381 144.27 247.03 147.522C241.934 154.547 229.617 156.822 222.071 146.161C219.503 142.531 218.502 138.338 217.498 134.135L217.496 134.125C217.405 133.744 217.314 133.363 217.222 132.982C216.283 129.087 216.255 129.015 212.398 129.574C209.411 130.005 206.439 130.53 203.466 131.054C198.462 131.937 193.458 132.82 188.388 133.259C187.902 133.301 187.417 133.346 186.931 133.392L186.93 133.392C185.727 133.505 184.523 133.619 183.314 133.666C178.765 133.847 177.503 133.029 176.779 128.576C175.729 122.113 174.809 115.631 173.889 109.148C173.565 106.865 173.241 104.581 172.911 102.298C172.868 101.992 172.865 101.679 172.862 101.366L172.862 101.366L172.862 101.366C172.859 101.111 172.857 100.855 172.833 100.603L172.832 100.595C172.543 97.762 172.401 96.3682 171.645 95.8183C170.913 95.2858 169.605 95.5446 167.031 96.0542L166.885 96.0831C161.306 97.1844 155.666 97.3712 150.227 95.6019C138.974 91.9434 134.482 80.3111 140.359 70.0562C143.754 64.1369 153.196 57.4846 162.023 61.103L162.021 61.1172ZM166.223 46.0351L166.228 46.0649C166.941 49.9699 167.663 53.9252 168.394 57.9554L168.401 57.9537C169.45 56.5559 169.412 55.6653 169.377 54.8328C169.373 54.7381 169.369 54.6442 169.367 54.5504C169.152 46.4592 168.238 38.4239 167.324 30.3961L167.324 30.3959L167.324 30.3958C167.237 29.6272 167.149 28.8587 167.063 28.0903C166.921 26.8386 166.768 25.7949 166.64 24.9169C166.332 22.8094 166.163 21.6561 166.623 20.8717C167.179 19.9236 168.654 19.5145 171.912 18.6109L171.913 18.6108C172.663 18.4026 173.509 18.1681 174.459 17.8947C174.68 17.8312 174.912 17.8051 175.144 17.7791L175.144 17.779C175.289 17.7628 175.434 17.7465 175.576 17.7211C180.858 16.7665 186.138 15.8034 191.417 14.8403L191.425 14.8388L191.433 14.8373C204.847 12.3904 218.259 9.94381 231.697 7.63792C237.424 6.65499 243.209 5.75609 249.119 6.27623C259.262 7.16888 266.503 11.8471 270.245 21.5489C272.493 27.3611 274.579 33.2134 275.992 39.2926C278.585 50.4284 280.548 61.6844 282.512 72.9425L282.512 72.9431C283.075 76.1744 283.639 79.4058 284.218 82.6346C284.267 82.907 284.278 83.2019 284.289 83.5026L284.289 83.5029C284.329 84.5752 284.372 85.7223 286.146 86.1914C286.116 84.9851 286.114 83.784 286.111 82.5887L286.111 82.5876L286.111 82.5866C286.105 80.0208 286.099 77.4816 285.831 74.9742C283.857 56.5679 280.575 38.3905 275.176 20.6673C271.837 9.70943 264.304 3.15026 252.929 1.5656C248.11 0.899263 243.161 0.739587 238.284 1.45809L237.358 1.59412L237.354 1.59464L237.353 1.59484C229.845 2.69749 222.342 3.79943 214.86 5.06221C203.724 6.9434 192.599 8.90867 181.494 10.989C176.321 11.9604 171.159 13.0893 166.095 14.512C161.802 15.72 161.026 17.2442 161.806 21.6343C163.24 29.6942 164.71 37.7472 166.221 46.0263L166.223 46.0351ZM8.13412 109.345L8.12461 109.336C7.89835 108.549 7.68063 107.831 7.47616 107.156C7.06204 105.788 6.70232 104.601 6.43631 103.395C5.08531 97.2981 3.98218 91.1767 6.02736 84.9949C9.27481 75.1811 16.8125 69.8142 25.9101 66.3729C33.3557 63.5543 41.1766 62.6935 49.1681 62.7292C61.8406 62.7871 74.2825 64.608 86.6626 67.0772C86.7889 67.1024 86.9198 67.1257 87.0529 67.1494C88.0519 67.327 89.1723 67.5263 89.3588 68.7097C89.5493 69.8989 88.6333 70.1981 87.7597 70.4834C87.5501 70.5518 87.3429 70.6195 87.1541 70.6985C86.8339 70.8326 86.507 70.9531 86.1805 71.0736L86.1801 71.0737C85.6215 71.2797 85.0638 71.4854 84.5413 71.7584C83.5444 72.2798 82.4132 72.9874 82.7838 74.2759C83.1534 75.5378 84.5446 75.6877 85.6281 75.584C91.8504 74.9951 97.8247 73.2636 103.553 70.8853C106.662 69.5953 106.928 66.9502 104.151 64.6636C103.304 63.965 102.464 63.2536 101.624 62.5416C98.4629 59.8629 95.2924 57.1762 91.6594 55.1372C91.4888 55.0409 91.3168 54.938 91.1431 54.8341C89.9228 54.1044 88.6168 53.3233 87.0887 54.3793C86.9377 55.9353 87.8608 56.9071 88.768 57.8623C89.5181 58.652 90.2574 59.4304 90.3699 60.5181C89.54 61.5233 88.6169 61.3605 87.7115 61.2008C87.5316 61.169 87.3524 61.1374 87.1747 61.1151C84.9827 60.8352 82.7917 60.5415 80.6006 60.2478L80.5989 60.2475C76.0744 59.641 71.5494 59.0344 67.0137 58.5495C55.5423 57.328 44.0709 57.0858 32.74 59.781C22.8659 62.131 14.1901 66.2692 7.21197 74.2116C-1.54227 84.1708 0.334521 101.339 8.12461 109.336L8.12793 109.347L8.13412 109.345ZM91.4214 69.5853C91.9158 69.6253 92.0162 69.2961 92.12 68.956C92.169 68.7953 92.2188 68.6322 92.3112 68.5045C92.1648 68.4613 92.0187 68.4126 91.8723 68.3637C91.535 68.2512 91.1966 68.1383 90.8513 68.0926C90.2906 68.021 90.2086 68.3776 90.126 68.7367C90.0897 68.8948 90.0532 69.0533 89.9758 69.1761C90.092 69.2349 90.2004 69.3185 90.3094 69.4026C90.6126 69.6365 90.9207 69.8741 91.417 69.5933L91.4214 69.5853ZM145.829 212.729C146.878 214.231 147.983 215.765 150.798 216.927L150.793 216.908C150.5 216.219 150.27 215.637 150.071 215.13C149.706 214.205 149.44 213.532 149.07 212.923C148.2 211.496 147.333 210.067 146.467 208.638C143.433 203.631 140.399 198.627 137.188 193.738C133.5 188.127 134.106 187.819 137.802 185.944C138.145 185.77 138.514 185.582 138.908 185.376C144.646 182.378 148.505 177.56 151.144 171.764C154.187 165.087 152.814 157.936 147.624 152.434C142.431 146.925 136.485 145.724 129.077 148.485C125.848 149.689 123.005 151.486 120.259 153.483L120.19 153.533C116.585 156.157 116.391 156.298 113.855 152.715C111.381 149.226 109.031 145.653 106.68 142.08C105.105 139.686 103.529 137.291 101.917 134.921C101.687 134.585 101.465 134.24 101.24 133.892C100.09 132.11 98.8886 130.248 96.4924 129.097C96.5372 129.478 96.5584 129.796 96.5766 130.067C96.6089 130.552 96.6313 130.887 96.7607 131.173C101.09 140.585 106.567 149.348 112.04 158.104C112.653 159.085 113.265 160.065 113.876 161.046C115.704 163.974 117.82 163.916 120.223 161.005C123.188 157.416 126.78 154.793 131.022 153.057C137.155 150.548 142.809 152.578 145.831 158.422C148.829 164.227 147.905 169.737 143.991 174.786C141.057 178.575 137.08 181.12 133.012 183.531C128.343 186.302 128.154 187.02 131.091 191.333C135.972 198.488 140.874 205.622 145.829 212.729Z" fill="#FF8B13"/>
</svg>

