<svg width="393" height="154" viewBox="0 0 393 154" fill="none" xmlns="http://www.w3.org/2000/svg">
<path d="M613.645 329.486C614.14 285.994 616.053 117.975 616.548 74.4828C615.997 74.6807 615.446 74.8964 614.887 75.0853C609.897 76.7684 609.847 76.5637 609.996 71.239C610.145 65.9322 609.772 60.6282 610.31 55.3169C610.489 53.5346 609.79 52.0176 607.637 50.768C607.576 56.1558 607.53 60.9667 607.467 65.7774C607.431 68.884 607.396 71.9906 607.272 75.0874C607.115 78.7519 603.677 79.3608 601.573 79.2924C599.513 79.2246 600.731 76.3445 601.031 74.8565C602.678 66.8947 604.537 58.9885 606.334 51.055C606.8 49.0097 607.194 47.0168 609.948 46.7374C612.117 46.5224 611.35 44.0014 610.865 43.8628C607.153 42.7908 609.155 40.2037 609.449 38.4316C610.143 34.2228 610.873 29.8902 616.019 26.9039C610.262 26.9093 608.512 29.9165 607.684 33.4846C607.181 35.6627 606.53 37.7503 605.693 39.7914C605.384 40.5336 604.619 40.8711 603.846 40.4717C602.826 39.9363 603.452 39.2954 603.822 38.6516C604.444 37.5845 606.008 37.0075 605.391 34.4971C600.055 38.5998 595.442 42.9415 591.058 47.3657C585.622 41.6135 593.83 38.4757 593.801 32.5187C584.227 42.9736 578.482 54.3154 574.678 66.7624L574.858 51.0251C576.353 50.1722 576.687 52.7415 578.3 51.5969C578.301 49.2179 576.415 47.8382 574.865 46.4535C573.027 44.8169 572.897 43.0399 574.251 41.3953C578.959 35.661 580.688 27.5314 588.276 24.4486C587.676 22.7551 586.487 23.8779 585.84 23.2669C586.114 21.7076 588.157 20.9763 587.642 18.0409C576.917 28.5715 570.954 41.2158 565.412 54.8946C564.456 51.8477 564.919 49.2697 562.454 47.4928C561.518 50.4915 563.652 53.3122 562.69 55.485C561.519 58.1348 557.883 58.2177 555.486 59.7706C552.457 61.7246 552.768 56.9611 550.585 56.8386C549.616 58.0437 550.258 59.1518 550.715 60.1867C551.413 61.7393 550.872 62.6653 549.484 63.4218C547.695 64.4045 547.348 63.0424 546.52 61.9499C544.76 59.6307 544.287 56.8734 543.38 54.2443C543.08 53.3887 542.651 51.4397 541.821 52.0516C539.172 54.0188 539.601 51.3428 540.075 50.8156C542.395 48.2587 539.396 48.3311 538.654 48.2339C533.745 47.5566 532.01 44.5719 532.009 39.9646C532.01 38.3578 531.692 36.7297 531.401 35.1373C530.442 30.0132 530.521 24.67 528.011 19.83C528.136 33.6887 531.448 47.273 531.583 61.1319C528.161 50.1651 526.532 38.6772 521.663 28.1555C520.628 31.3129 522.675 34.0349 522.631 37.168C520.438 36.3264 519.566 33.7243 516.621 33.6553C518.441 37.7329 523.004 39.3561 524.054 43.4338C522.579 44.8462 520.636 43.0132 518.807 45.1939C526.739 45.2842 525.509 51.6085 526.889 56.2137C527.528 58.3338 527.99 60.5139 528.469 62.6766C528.68 63.6377 529.162 64.7351 527.545 65.4357C524.796 62.1643 525.496 57.4318 523.273 53.7846C521.373 55.1744 524.026 58.3205 520.91 58.5425C519.096 58.6728 517.351 58.0936 516.434 56.2811C515.976 55.3704 515.59 54.3629 515.442 53.3581C515.187 51.6153 514.415 50.2838 512.904 49.4232C509.793 47.6479 509.02 44.9049 509.306 41.5171C509.531 38.8476 509.482 36.1129 507.115 33.4938C506.219 38.4104 507.891 43.0367 505.98 47.0097C498.576 45.5583 496.675 38.506 491.921 34.2884C492.504 35.8752 493.079 37.453 493.962 39.8422C490.429 37.92 487.679 36.2997 484.821 34.9089C482.138 33.6 479.856 31.2837 476.325 30.6754C476.588 31.646 476.577 31.8501 476.665 31.9132C479.765 33.8837 482.891 35.819 485.973 37.816C486.684 38.2768 487.92 39.2319 487.82 39.426C485.936 43.3549 489.284 42.1236 490.75 42.3356C496.631 43.1837 498.242 44.6224 499.765 50.6674C497.458 53.6239 494.204 46.6182 492.016 51.5202C490.184 50.1056 492.079 46.0436 488.25 45.9912C487.599 48.7712 489.987 51.9232 487.262 54.2979C485.225 56.0679 482.767 57.6289 480.003 56.399C477.047 55.0782 476.151 52.1563 475.708 49.1152C475.372 46.7944 476.604 44.2962 475.19 41.8211C473.439 43.337 475.005 45.6628 472.723 47.1815C472.559 43.7619 469.446 42.9542 467.95 40.7178C467.507 40.0647 465.805 39.6281 466.164 40.7153C466.668 42.2301 463.176 42.9094 465.493 43.6992C468.533 44.737 468.696 48.2808 471.424 49.4482C472.243 49.7948 472.928 50.9744 472.216 52.1026C472.009 52.4376 471.51 52.7515 471.13 52.7738C469.475 52.8614 469.912 51.7479 469.818 50.6727C469.653 48.8244 468.008 48.8766 466.767 49.1199C464.835 49.4974 466.335 50.5798 466.457 51.4423C466.859 54.2431 467.328 58.0568 465.069 59.2295C462.586 60.5151 463.01 61.4165 464.208 63.3121C461.651 62.6527 461.331 60.4475 459.927 59.5261C456.635 57.3492 458.64 61.4999 457.362 61.8316C455.082 59.3555 453.469 52.6526 455.286 51.5015C458.44 49.5045 457.097 48.6281 454.998 47.2816C453.602 46.3868 453.567 44.7974 453.593 43.2886C453.645 40.333 453.785 37.3697 453.747 34.422C453.67 28.0029 454.257 21.5203 452.192 14.1465C450.397 24.2017 453.237 33.3776 450.805 42.7064C447.012 37.1772 448.602 30.3154 445.731 23.8024C444.567 26.692 445.208 28.5901 445.329 30.3936C445.532 33.5207 445.356 35.0011 441.374 33.7041C437.091 32.306 432.759 30.6499 428.134 30.5263C427.295 30.499 425.902 29.3379 425.712 31.2C425.543 32.9025 426.807 32.9524 428.117 32.8519C431.428 32.5789 434.389 33.527 437.092 35.3332C434.165 35.291 431.39 36.6442 428.428 35.0659C426.028 33.7869 423.742 36.424 424.463 39.1575C425.209 41.9623 425.965 44.7672 426.587 47.5973C426.999 49.4484 426.55 50.8548 424.242 50.8285C422.066 50.8037 418.783 50.9794 418.819 48.6274C418.846 46.2486 417.965 44.4099 417.537 42.3277C417.21 40.7439 417.189 38.7107 415.31 38.3431C412.715 37.8431 415.248 41.4139 413.141 41.603C412.992 41.5125 412.86 41.4489 412.746 41.3588C410.414 39.5568 413.139 32.4417 406.36 35.2141C406.102 35.3177 405.456 34.5558 405.027 34.1603C402.971 32.2283 402.077 29.9189 402.19 27.0263C402.275 24.9855 402.956 22.6763 401.12 20.7734C398.738 22.6105 400.121 25.3871 399.143 27.4354C394.825 25.2202 390.486 23.422 386.632 20.8837C383.305 18.6886 383.946 20.5957 382.896 22.7941C382.189 24.2686 384.756 27.1829 381.645 26.961C376.882 26.6316 377.685 28.3807 379.421 31.2057C380.385 32.7701 380.993 34.5525 382.149 37.0779C378.74 34.3759 376.683 31.6627 374.913 28.6598C372.666 24.8437 370.401 21.0362 368.064 17.2812C367.5 16.3782 365.926 14.7624 365.548 16.1607C364.892 18.5767 362.233 21.467 365.733 24.0013C366.777 24.7589 367.506 25.9656 368.316 27.0135C376.196 37.1788 381.691 48.542 385.07 60.9465C385.401 62.1664 385.626 63.3763 384.397 64.1168C383.284 64.7877 382.686 63.7511 381.826 63.1732C380.614 62.3516 379.142 60.4351 377.885 61.2553C375.515 62.8084 374.661 60.9167 373.478 59.9179C372.646 59.216 372.503 57.8029 370.91 57.9268C368.183 58.1354 367.994 56.127 367.707 54.1264C367.543 52.9705 368.145 51.4238 366.182 50.5759C364.853 53.1174 365.273 55.7942 365.324 58.3426C365.407 61.9477 363.86 62.6491 360.624 61.8222C357.907 61.1255 357.204 59.2355 356.991 56.9339C356.644 53.2548 356.536 49.5606 356.171 45.8813C355.695 41.0822 355.901 36.1843 354.358 31.0713C350.68 36.4178 346.665 30.1758 342.79 31.8095C343.87 33.3043 345.285 33.2849 346.51 33.6806C353.057 35.8057 353.562 36.5128 353.926 43.3701C354.18 48.2377 354.523 53.0975 354.91 57.9577C355.003 59.1305 355.66 60.4607 353.757 60.6077C352.278 60.7241 350.669 60.7057 350.07 58.9324C349.796 58.1214 349.578 57.0537 349.878 56.3203C351.98 51.151 346.91 47.5336 347.986 41.5448C345.063 45.7726 345.368 45.4299 342.557 42.9566C337.478 38.478 333.512 33.435 331.677 26.8272C331.609 26.569 331.071 26.4474 330.139 25.8953C333.255 39.6727 336.856 52.7632 337.567 67.179C335.759 63.6785 335.568 60.2409 332.549 58.1648C331.653 62.2913 334.91 65.1958 334.946 69.0134C331.919 68.4285 331.884 66.0934 331.313 64.2227C329.001 56.7484 326.778 49.2485 324.449 41.7829C323.834 39.8051 323.101 37.4177 321.136 36.7562C318.634 35.911 318.329 33.9989 317.669 32.1094C315.331 25.4161 313.037 18.7054 310.708 12.0032C310.425 11.1922 310.164 10.0441 309.091 10.2804C308.036 10.5081 307.369 11.5924 307.578 12.6778C307.829 13.9589 308.318 15.2428 308.933 16.395C312.7 23.4686 315.391 30.965 317.808 38.5736C318.175 39.7407 319.214 40.9155 317.864 42.1962C315.991 40.4882 314.242 38.7195 312.314 37.1795C309.719 35.1082 307.175 33.2949 303.387 35.0539C300.48 36.4056 297.911 35.9592 297.509 31.6846C297.296 29.3742 296.074 27.1942 294.726 25.217C294.23 24.5012 293.738 23.377 292.807 23.6416C287.696 25.1103 282.758 24.6103 277.834 22.7965C276.452 22.2837 274.928 22.506 273.481 22.9511C269.638 24.1147 265.178 24.3835 264.12 29.5113C264.045 29.8833 264.182 30.3021 264.205 30.622C265.772 31.2523 266.301 29.0657 267.693 29.481C267.628 32.8802 265.983 35.9597 266.668 39.5006C270.631 37.1666 274.507 34.6452 280.411 34.9344C276.421 38.1735 272.085 39.1716 269.806 42.7942C269.247 43.6845 267.609 44.6423 268.685 45.7021C269.796 46.7889 270.52 45.288 271.405 44.508C275.809 40.6344 280.943 38.7399 286.86 39.4464C287.814 39.5638 288.603 40.2119 288.805 41.0664C289.709 44.7874 290.303 48.5403 289.878 52.5213C287.463 51.7482 289.028 49.4402 287.392 48.6936C286.751 49.0769 286.179 49.5941 285.504 49.8084C280.933 51.2743 277.158 55.7676 271.288 51.6972C268.085 49.4769 270.689 53.8209 269.836 54.8942C267.81 54.2142 265.952 53.474 264.286 55.3193C263.771 53.1296 264.785 51.1172 263.17 49.2079C260.541 52.578 259.223 56.4334 256.318 59.1434C254.858 58.461 255.499 56.4798 253.773 55.821C252.889 56.5744 252.888 59.0067 250.985 58.3459C248.994 57.6486 250.958 56.0819 250.582 54.9502C250.316 54.1571 250.434 53.1198 249.269 52.9024C247.081 59.4288 247.114 59.6334 249.373 65.598C249.647 66.3201 250.46 67.2082 249.681 68.0338C249.233 68.4992 248.626 68.2437 248.181 67.7238C244.611 63.5641 243.816 51.0116 246.991 46.3872C251.011 40.5474 255.066 34.7346 259.7 29.3456C260.488 28.4314 261.885 27.6838 261.098 25.4201C254.348 31.7969 249.688 39.4671 244.57 46.9455C242.506 44.1169 243.791 40.767 241.103 38.4017C240.511 42.2832 241.702 45.6612 241.972 49.082C242.165 51.5698 241.54 53.6755 239.615 54.8964C237.958 55.9517 237.043 57.1219 236.633 58.9548C236.456 59.734 236.148 61.1153 235.127 60.7309C233.295 60.0442 233.103 60.5658 233.376 62.2112C233.633 63.741 232.866 65.0638 231.397 65.1625C229.698 65.2763 230.503 63.6787 230.407 62.7899C230.27 61.6077 229.297 61.6676 228.567 61.2332C223.446 58.2188 221.9 53.3542 224.235 47.948C224.562 47.1883 225.261 46.3795 224.28 45.5161C222.318 45.3873 222.808 48.1892 221.072 48.3825C220.387 45.6494 220.979 42.5935 218.733 40.2066C217.753 41.6513 219.416 43.1793 217.892 44.1562C216.669 43.5919 217.739 41.3138 215.766 41.3446C214.605 43.1246 216.352 45.0619 215.447 46.8803C212.744 45.7843 211.869 42.5963 208.533 41.1824C210.088 45.2037 211.921 48.154 210.687 52.4365C208.633 59.5859 209.242 59.7615 205.817 62.2969C209.825 56.7322 209.147 51.0253 207.181 44.993C206.13 41.7675 206.806 37.5319 208.575 35.2173C211.062 31.97 209.032 31.5563 207.204 29.7866C206.546 32.3979 207.093 34.8898 205.043 37.0413C202.845 33.5365 202.136 29.0099 197.295 27.783C199.495 31.8028 204.186 33.8181 200.622 40.0004C198.692 43.3518 196.574 47.5621 195.942 52.5705C194.602 50.6644 195.19 48.6915 193.734 47.6895C191.479 50.7265 195.659 54.1563 192.58 58.116C192.192 51.7733 191.891 46.3902 191.519 41.0064C191.062 34.583 186.58 30.4928 181.261 31.5597C179.71 31.8705 177.672 36.064 178.807 36.6273C186.071 40.2608 184.572 46.085 182.997 52.2989C182.272 50.746 183.356 48.7609 180.742 47.657C180.935 53.1986 182.222 59.0012 174.408 61.7174C177.036 58.5072 177.076 55.7912 175.904 53.0881C175.361 51.8302 175.151 50.0613 173.242 49.933C170.785 49.7807 171.891 52.1014 171.163 53.1673C170.317 54.4182 170.75 56.0299 170.857 57.5047C170.972 59.0329 170.933 60.8789 169.101 60.9824C167.26 61.0946 166.99 59.1829 166.874 57.7079C166.489 52.7057 167.543 47.924 170.121 43.7012C172.04 40.545 171.584 37.8766 170.06 35.0008C169.51 39.0869 168.274 42.7569 166.165 46.2216C163.11 51.238 162.843 51.3237 159.022 46.7351C157.757 45.2205 155.961 43.6554 154.219 44.4167C152.699 45.083 151.677 47.1042 152.687 49.2906C153.291 50.5936 153.085 52.3933 151.598 52.5007C150.173 52.5998 148.97 51.0593 149.041 49.4267C149.151 46.7737 149.553 44.1417 149.83 41.4994C149.999 39.8768 150.505 38.1604 148.32 36.6708C148.133 38.3287 147.899 39.4801 147.895 40.6252C147.903 44.5135 147.897 48.9254 145.734 51.7592C143.13 55.1562 139.292 57.5005 139.871 62.5493C137.926 61.7016 138.034 65.449 136.401 64.3208C135.103 63.4183 136.244 61.8422 136.735 60.676C137.417 59.0415 138.424 57.535 139 55.8726C139.458 54.564 140.972 52.8324 138.133 52.0456C136.405 51.5643 134.834 50.5521 134.35 53.4317C134.103 54.8936 132.837 55.8113 131.492 55.8404C129.67 55.8818 130.045 53.9509 129.465 52.8701C128.599 51.2535 128.794 48.921 126.567 47.9369C125.632 50.0657 127.764 51.5902 126.499 53.9371C122.351 48.5103 117.209 44.173 116.521 37.0012C116.339 35.0994 116.025 33.1695 115.462 31.3433C115.095 30.1496 115.468 27.7214 113.267 28.3622C111.581 28.849 112.623 30.6185 112.962 31.8386C113.362 33.2812 113.796 34.7154 114.477 37.0667C109.46 32.8373 106.974 29.0924 107.017 25.832C105.281 27.5522 103.281 27.6952 101.015 26.2608C101.791 29.6164 102.968 32.6835 103.127 35.8101C103.38 40.7665 106.102 46.3723 100.441 50.3026C100.931 51.551 103.226 51.1954 103.02 52.9064C102.864 54.2096 100.955 52.5278 100.502 54.2359C104.606 56.5641 103.157 60.3115 102.868 63.9657C102.629 67.0788 102.912 67.0998 97.3546 70.472C97.2978 68.474 98.5335 66.3664 97.029 64.1211C95.8518 65.75 96.5891 67.8001 94.88 68.7661C93.2756 67.5316 94.9019 65.2864 93.2888 64.0341C90.4308 61.8178 90.5274 61.0999 93.4758 59.2603C94.4646 58.6413 96.143 58.8202 96.3783 56.79C93.4247 56.7564 90.6755 58.971 87.4838 56.5467C87.7671 58.0768 87.8826 58.7972 88.0337 59.5091C88.252 60.5325 88.6352 61.8329 87.1916 62.0118C85.9339 62.1661 85.7193 60.8143 85.4298 59.8345C84.749 57.4832 85.2845 55.5097 87.0905 53.7992C87.9131 53.0185 89.0181 51.5131 86.8978 51.3114C82.9046 50.9197 83.731 48.2393 83.847 45.8261C83.9938 43.0225 84.3087 40.2298 84.4289 37.4348C84.6698 31.8094 86.2907 26.1642 84.1526 20.5384C81.7036 29.006 83.3968 37.9735 81.2087 46.8347C79.8835 44.3783 79.958 41.7249 78.4455 40.1808C75.9697 40.9072 79.8291 43.7208 76.057 44.104C70.337 44.6869 73.9716 40.0677 72.4292 38.0439C71.3358 39.3009 70.4218 40.3469 69.3552 41.5864C68.6916 36.9539 64.2793 38.4216 62.0456 36.5231C61.7215 36.2442 60.9215 37.3803 61.1826 37.7472C63.5511 41.0144 59.2947 45.875 63.8182 48.6252C64.433 49.005 64.4745 50.0175 63.9192 50.6237C62.8267 51.8097 62.5696 50.3154 61.9549 49.9267C60.8574 49.2217 59.4322 47.7763 58.6419 48.0602C53.9178 49.7198 55.9265 46.5202 56.1149 44.738C57.0099 36.0397 56.6064 27.1934 59.4819 18.5531C56.9506 18.7107 56.763 20.4308 56.3063 21.7039C55.3932 24.2235 55.1509 26.8661 55.0849 29.5552C54.9469 35.4658 54.2081 41.3164 53.2305 47.1642C52.6993 50.3184 49.1885 47.9615 48.3664 50.2513C48.3481 50.3044 47.4992 49.5135 47.5855 48.9286C48.1975 44.8876 47.3448 41.327 44.4429 38.3023C44.0234 37.8626 44.1051 36.8959 44.0427 36.1673C43.5685 30.4272 42.9882 24.6859 42.6822 18.9389C42.0929 7.77353 36.6305 2.04769 25.5584 1.18484C24.666 1.11254 23.732 0.800082 23.2253 1.80631C22.6642 2.92733 23.1066 3.68693 24.1603 4.35584C24.9594 4.86206 27.069 5.22341 25.433 6.75829C22.0269 9.9597 25.6448 9.91211 27.1422 10.444C28.86 11.0495 30.8604 10.9036 32.402 12.9984C29.1528 14.0711 25.7136 13.1886 22.0307 15.8453C25.5591 15.8855 27.9629 16.046 30.3524 15.9134C36.1492 15.5799 42.0087 19.8367 41.1644 26.4051C40.9222 28.2577 41.5809 30.2181 41.6476 32.1364C41.6867 33.3619 42.444 35.1992 40.7238 35.588C39.0568 35.9685 38.2695 34.4326 37.7738 32.909C36.8849 30.2002 36.9196 27.1468 34.9498 24.5944C33.4872 26.442 34.6193 27.9995 34.9657 29.4238C35.5913 31.9609 35.4951 33.4068 32.2788 33.1483C28.0639 32.8073 26.6774 35.7388 26.0719 39.2029C25.6746 41.4709 25.4627 43.7766 24.4386 45.9487C21.5496 44.1226 21.261 41.5006 21.7198 38.4875C17.0197 41.1593 17.2232 45.8133 15.7611 50.7146C13.4887 43.6758 12.7129 37.2398 10.0765 31.0934C8.57947 32.8518 9.51869 34.2562 9.79546 35.5821C11.0282 41.4995 12.1544 47.4511 13.7064 53.2922C14.5379 56.391 12.5219 57.9038 10.8275 59.1273C9.24021 60.2721 5.93206 60.3055 5.24341 58.6465C3.84861 55.3105 2.54955 56.7694 0.536606 58.7882C2.13538 51.1987 3.63515 44.5401 3.65969 37.7227C1.41142 39.437 2.13558 41.8598 1.44016 43.9026C0.872687 45.5828 0.913886 45.8496 0.438075 45.6932C-2.64621 44.7083 -3.02499 46.9055 -3.47311 48.9777C-3.80955 50.5628 -3.91669 52.2039 -4.29724 53.7797C-4.68694 55.3821 -3.46018 57.9438 -5.67622 58.3802C-7.56435 58.7581 -6.92768 55.6584 -8.42232 54.8779C-8.6245 54.7691 -8.93499 54.8543 -9.17375 54.8516C-10.2965 56.3657 -7.84193 59.0568 -10.7248 59.8052C-13.3327 60.4768 -14.1811 58.088 -15.4639 56.5643C-16.5111 55.3273 -17.4331 53.9675 -18.534 52.7832C-20.3514 50.8361 -20.2861 48.9727 -18.8287 46.8144C-15.86 42.4095 -12.9699 37.9328 -10.168 33.4196C-9.14098 31.7713 -7.65534 30.2347 -7.66424 27.9087C-9.77193 28.1511 -10.197 29.753 -10.9443 30.9163C-14.0596 35.7633 -17.1046 40.6466 -20.1321 45.5478C-21.3846 47.5842 -22.5185 47.74 -24.1597 45.8482C-25.3905 44.4227 -26.5728 42.616 -29.3473 42.3892C-28.3855 44.9212 -26.5411 46.043 -25.2674 47.5933C-24.3166 48.7492 -23.0473 49.9089 -24.3031 51.4481C-27.9713 55.9248 -29.7348 62.4472 -36.6852 63.1138C-36.7736 64.6663 -34.2577 63.532 -34.9308 65.1666C-35.9222 67.57 -42.2595 67.9861 -43.8819 65.9968C-47.8768 61.0955 -46.5955 54.9849 -47.877 49.4664C-48.3911 47.2324 -46.6398 43.3375 -49.9097 43.1138C-53.0469 42.9006 -52.8371 46.9953 -53.5804 49.3571C-56.085 57.2737 -58.3517 65.2729 -60.7065 73.2355C-60.7899 67.3579 -59.9914 61.6944 -59.1841 56.04C-58.5596 51.6795 -56.8365 47.154 -57.479 43.001C-59.0526 32.8365 -57.7128 23.9124 -50.2338 16.4341C-49.8759 16.0742 -49.7368 15.4988 -49.3025 14.6427C-53.3553 14.8273 -54.366 20.4795 -58.6299 19.0106C-57.8118 20.9551 -57.4082 22.7973 -58.467 24.9069C-59.7341 27.4402 -60.2177 30.3021 -60.0021 33.1097C-59.6005 38.2364 -62.0926 41.1731 -66.4563 43.032C-68.7289 39.109 -68.5055 34.2469 -71.9541 31.0828C-72.5143 30.5704 -73.3037 29.221 -73.8865 30.688C-75.3976 34.4613 -78.5627 32.8008 -80.565 32.3341C-83.3348 31.6901 -80.7935 29.8725 -80.4601 28.5536C-80.3953 28.3058 -80.4435 27.8792 -80.6014 27.762C-85.4428 24.1915 -81.2489 23.2627 -78.9381 21.4958C-75.86 19.1429 -70.3697 18.5396 -71.8638 12.2731C-75.7738 14.6787 -77.7332 19.7607 -83.1428 20.2584C-81.7356 15.5163 -80.3065 11.1827 -77.496 7.47739C-75.2243 4.47613 -72.2862 2.76077 -68.3807 3.0893C-65.5444 3.32576 -64.0269 5.20725 -63.7987 7.68659C-63.4997 10.9479 -66.5759 8.47167 -67.6585 9.569C-67.8463 9.75328 -67.9205 10.0543 -68.1285 10.4602C-66.1845 11.3879 -64.0785 12.0687 -62.359 13.2956C-60.4465 14.6578 -60.9782 17.8565 -58.5863 19.0644C-58.4745 14.6892 -59.595 10.5574 -61.2745 6.59679C-63.979 0.218808 -69.9742 -1.44734 -75.767 2.41932C-78.1643 4.01656 -80.3814 6.10409 -81.1455 8.7408C-84.2854 19.6329 -91.6594 26.4376 -100.924 32.3065C-105.022 34.9053 -107.84 34.5714 -110.882 32.2553C-121.027 24.5232 -132.233 23.0108 -144.371 25.6245C-156.597 28.255 -167.026 34.5812 -177.187 41.4962C-181.858 44.6744 -181.714 44.4984 -184.647 39.5826C-187.26 35.1942 -183.519 33.7276 -181.365 31.7548C-178.666 29.2821 -178.148 32.6702 -176.835 33.8747C-176.564 34.1264 -176.104 34.1582 -174.668 34.6806C-179.795 27.4406 -173.84 24.8629 -170.351 21.3962C-166.898 17.9645 -163.183 14.8021 -159.625 11.4782C-158.91 10.8116 -157.707 9.99975 -158.526 8.93403C-159.494 7.68021 -160.663 8.65227 -161.609 9.32505C-162.197 9.75333 -162.725 10.2888 -163.209 10.8515C-167.099 15.3434 -171.914 18.8129 -176.188 22.8744C-178.709 25.2691 -180.624 25.6823 -183.676 23.3573C-189.077 19.2566 -191.851 19.7754 -196.628 24.5591L-199.996 320.393C-197.795 320.515 -195.596 320.727 -193.394 320.752C73.386 323.798 340.175 326.835 606.954 329.863C609.156 329.888 611.36 329.727 613.563 329.654L613.645 329.486ZM-170.564 41.5894C-171.81 43.83 -173.012 46.1066 -174.328 48.311C-174.896 49.2543 -175.021 50.8863 -176.532 50.736C-177.724 50.6159 -178.597 49.5851 -179.062 48.479C-179.665 47.0695 -178.56 46.3098 -177.64 45.5835C-166.822 36.9182 -155.218 29.8331 -141.304 27.4082C-131.193 25.6414 -121.618 26.7446 -113.237 33.1872C-111.527 34.5028 -108.318 35.4448 -109.164 38.2847C-110.148 41.5759 -113.728 41.3576 -116.477 42.0276C-117.018 42.1634 -117.66 41.8632 -118.227 41.9366C-123.453 42.6228 -128.746 42.9709 -133.687 45.0629C-129.183 46.3925 -124.952 42.9875 -119.78 44.7419C-123.291 48.5724 -127.222 50.5072 -131.699 51.4772C-135.264 52.2444 -139.31 53.4056 -140.366 56.8202C-141.744 61.3142 -145.988 62.7838 -148.062 66.3022C-148.82 67.5897 -150.244 67.6445 -151.629 67.2914C-155.474 66.3155 -159.328 65.3662 -163.173 64.3814C-164.205 64.1211 -165.208 63.7013 -165.211 62.4141C-165.217 61.402 -164.354 60.9591 -163.658 60.4078C-162.248 59.2698 -160.004 59.4551 -158.48 56.9425C-163.153 57.9368 -166.74 59.9643 -170.728 60.6735C-173.963 61.2492 -175.129 59.567 -174.659 57.14C-174.086 54.1904 -173.944 51.0673 -172.232 48.3259C-171.052 46.4308 -169.888 44.349 -170.564 41.5983L-170.564 41.5894ZM590.513 57.9056C590.637 51.7285 595.49 44.9394 600.17 43.2528C602.728 42.332 604.349 42.892 604.049 45.8713C603.181 54.5256 600.91 62.9065 598.807 71.3158C598.158 73.9272 596.043 74.0097 593.887 73.8786C591.359 73.7256 590.486 71.9135 590.792 69.9197C591.479 65.5066 591.148 61.1885 590.504 57.9055L590.513 57.9056ZM-13.1412 77.0616C-15.7633 74.3242 -16.4466 73.7394 -17.8851 75.0191C-19.4219 76.3864 -21.8843 77.4947 -22.1051 79.8002C-22.3966 82.8684 -24.8445 84.252 -26.6478 85.7229C-27.9512 86.7911 -28.8835 84.0019 -29.9953 82.995C-31.7548 81.4037 -33.5515 79.954 -35.7971 79.1029C-36.8979 78.6909 -38.2448 78.1429 -37.7679 76.657C-36.6954 73.3402 -36.0156 69.5574 -32.5467 67.8303C-27.3789 65.2615 -21.8701 63.8151 -16.0325 63.7839C-13.9805 63.7717 -12.9981 64.4931 -13.0217 66.5612C-13.0672 69.7831 -13.095 73.0052 -13.1413 77.0705L-13.1412 77.0616ZM-70.9552 46.6648C-72.7977 45.3655 -74.6982 46.0541 -76.5111 46.0334C-78.0144 46.0163 -80.2476 47.9616 -80.7527 44.9376C-81.2909 41.7179 -83.0951 37.8269 -80.0608 35.4291C-78.0348 33.8188 -74.5568 32.8464 -71.9958 35.5209C-69.5748 38.0519 -67.7865 47.2335 -69.2279 48.7617C-69.4248 48.9725 -69.6575 49.2096 -69.9149 49.2865C-72.4264 50.0391 -74.7688 51.4772 -77.5341 51.2149C-78.3734 51.1344 -79.5523 51.3606 -79.743 50.2488C-79.9746 48.8347 -78.6202 48.7347 -77.6973 48.4611C-75.5231 47.8112 -73.0012 48.4791 -70.9465 46.6738L-70.9552 46.6648ZM-118.265 49.1445C-124.071 60.3791 -132.158 67.6284 -144.687 68.9594C-138.132 59.4999 -128.583 54.2646 -118.265 49.1445ZM-50.9318 48.9966C-50.7191 48.9547 -50.4975 48.9128 -50.2847 48.8709C-49.5107 54.6854 -48.657 60.4919 -47.9892 66.3141C-47.4586 70.9806 -48.9949 73.0759 -53.4754 74.321C-57.1486 75.3444 -58.6286 74.0581 -57.5703 70.4394C-55.472 63.255 -53.1622 56.1352 -50.9405 48.9877L-50.9318 48.9966ZM106.359 33.0772C110.423 37.3402 112.583 41.8389 115.065 46.0572C116.028 47.6838 117.203 50.1384 114.298 51.2327C111.163 52.4221 106.212 50.6702 106.079 48.3695C105.815 43.5905 105.481 38.7664 106.35 33.0771L106.359 33.0772ZM-71.9692 81.3542C-73.2297 80.9759 -73.5194 80.7862 -73.7851 80.8187C-77.0174 81.1902 -78.1085 79.1449 -78.0346 76.5359C-77.9256 73.1727 -75.274 74.8718 -73.6638 74.828C-72.0625 74.784 -70.4473 75.0776 -68.8585 75.3532C-67.4549 75.5911 -66.3036 76.2256 -66.5002 77.9633C-66.7956 80.6053 -66.96 83.382 -69.3585 85.0858C-70.6158 85.9858 -71.7159 88.6187 -73.5794 86.8398C-75.3469 85.1596 -75.4181 82.8685 -71.9692 81.3542ZM-68.4048 53.3695C-66.5738 58.7877 -70.9503 69.5414 -75.1173 71.2073C-76.4056 71.7252 -77.6064 71.5518 -78.1048 70.2767C-79.1786 67.4859 -80.3198 64.4014 -76.6996 62.5961C-72.9726 60.7299 -70.4107 57.8829 -68.4136 53.3694L-68.4048 53.3695ZM337.232 43.7926C337.028 43.089 336.71 42.242 337.397 41.7527C338.316 41.0885 339.041 41.878 339.671 42.4444C343.488 45.8612 343.182 50.9799 344.831 55.2863C345.381 56.7307 346.479 58.9536 343.634 59.4805C341.321 59.9069 340.047 58.3389 339.61 56.3099C338.711 52.154 338.016 47.9649 337.232 43.7837L337.232 43.7926ZM-92.4536 54.2586C-91.5701 48.1168 -89.7697 43.0151 -88.1456 37.8671C-87.8703 36.9914 -87.2432 36.2884 -86.2265 36.3266C-85.1126 36.3659 -84.8217 37.2214 -84.735 38.1545C-84.4748 40.936 -84.2058 43.7176 -83.9898 46.4987C-83.8975 47.7159 -84.0936 49.4003 -85.3233 49.4307C-88.4729 49.528 -89.4528 52.473 -92.4536 54.2586ZM-26.1881 62.4343C-27.5662 62.2944 -29.4689 62.397 -28.2606 60.3601C-26.7007 57.7413 -24.6928 55.3851 -22.7992 52.9743C-22.0274 51.9889 -20.9308 52.0013 -20.1723 52.9687C-18.5771 55.0109 -16.0265 57.0462 -16.2847 59.5288C-16.5029 61.6036 -19.7315 60.8567 -21.5785 61.5014C-23.0702 62.0171 -24.7079 62.1494 -26.1881 62.4343ZM-101.351 72.0893C-104.075 69.768 -106.579 69.0914 -108.853 72.2968C-109.006 72.5082 -109.531 75.1831 -110.719 73.0745C-111.482 71.7343 -114.125 70.852 -113.136 69.4074C-111.193 66.5622 -108.565 64.1242 -105.069 63.0987C-104.448 62.9194 -103.581 62.9115 -103.256 63.8473C-102.373 66.3696 -100.338 68.621 -101.351 72.0893ZM-189.886 22.7184C-187.171 22.7671 -181.971 25.9244 -182.582 27.4976C-183.538 29.9546 -185.611 31.7686 -187.985 32.8778C-189.15 33.4238 -193.655 27.5402 -193.59 25.7211C-193.513 23.5471 -192.299 22.5933 -189.886 22.7184ZM307.701 50.7801C309.875 50.9203 311.503 50.9122 313.101 51.1612C314.611 51.3914 316.16 52.0038 315.97 53.9014C315.691 56.6857 315.217 59.4588 314.638 62.1953C314.451 63.0986 313.717 64.626 312.556 63.2812C311.273 61.8019 309.007 61.1458 309.048 58.3588C309.075 55.9889 309.308 53.3817 307.692 50.78L307.701 50.7801ZM-104.181 55.0484C-108.583 56.392 -108.574 56.3832 -109.084 52.214C-109.124 51.8673 -109.499 51.3837 -109.817 51.2913C-112.576 50.4787 -110.342 49.2436 -109.995 48.3598C-109.367 46.7602 -108.323 47.4822 -107.116 47.9132C-104.641 48.8024 -104.82 52.0939 -102.079 52.9063C-100.598 53.3403 -98.8385 54.9671 -99.126 56.9169C-99.413 58.8222 -101.596 58.6642 -103.035 59.2337C-103.701 59.5013 -104.395 59.8485 -105.255 59.1995C-104.958 58.0489 -104.635 56.8186 -104.172 55.0485L-104.181 55.0484ZM358.797 79.3161C358.51 75.762 358.125 72.3221 357.987 68.8762C357.918 67.1532 357.017 64.0182 359.613 64.3939C361.696 64.6929 363.407 67.5086 365.289 69.2079C362.17 71.2407 365.224 72.5982 365.824 74.2296C366.245 75.3618 366.672 76.716 365.548 77.4844C363.801 78.6718 363.859 76.7017 363.276 75.8784C361.857 73.8826 360.712 74.2868 359.971 76.3822C359.633 77.3283 359.762 78.4394 358.788 79.3249L358.797 79.3161ZM572.748 48.3734C571.639 53.3054 572.714 58.28 571.564 63.034C571.174 64.6274 572.84 67.4339 569.929 67.5605C566.85 67.6941 567.159 64.5551 566.82 62.545C566.472 60.4726 567.196 58.2261 568.372 56.6682C570.312 54.0893 571.398 51.1988 572.747 48.3823L572.748 48.3734ZM-103.461 37.5951C-101.854 34.7638 -97.8629 31.4182 -92.5949 28.593C-91.6517 28.0889 -90.6377 26.8132 -89.4832 27.9538C-88.635 28.7979 -89.3816 29.8991 -89.6578 30.8546C-90.7166 34.5178 -97.1911 37.6665 -103.461 37.5862L-103.461 37.5951ZM-59.4567 85.4293C-58.5664 81.7998 -50.5844 75.1972 -48.0745 75.3589C-47.8006 75.3798 -47.4294 75.4107 -47.2723 75.59C-44.075 79.0796 -50.8545 80.2808 -49.1255 83.7803C-48.5981 84.8427 -51.2402 85.4074 -51.7638 84.7889C-54.3295 81.7592 -56.5811 83.7665 -59.4656 85.4292L-59.4567 85.4293ZM-37.4988 82.5367C-35.0543 85.3431 -32.6603 87.1369 -31.4445 89.8849C-30.3495 92.3653 -32.2659 92.8938 -33.7616 93.7557C-35.7291 94.8873 -36.4674 93.7071 -36.8024 92.061C-37.3799 89.1782 -37.8775 86.2786 -38.3309 83.3706C-38.5782 81.7876 -38.0589 80.462 -36.2188 81.1931C-33.0403 82.4543 -30.3739 84.4021 -28.6448 88.674C-32.0868 86.4777 -32.479 82.0879 -37.4987 82.5278L-37.4988 82.5367ZM105.769 62.4097C105.772 57.4562 106.253 57.1687 110.656 59.6512C111.79 60.2855 113.02 60.9565 113.814 61.9331C114.468 62.7306 115.405 64.3569 114.344 65.0462C112.179 66.4419 109.666 68.1354 107.305 68.1174C105.218 68.1025 106.244 64.9983 105.785 63.2887C105.709 63.0126 105.783 62.7028 105.778 62.4098L105.769 62.4097ZM78.3884 51.4009C77.1172 51.2 76.508 51.8855 75.8126 52.3747C72.5228 54.6809 71.9423 54.3991 71.37 50.2913C71.2063 49.1265 70.9983 47.979 70.8612 46.8145C70.756 45.9522 71.0978 45.4501 72.0447 45.3987C76.1067 45.1787 82.3505 53.7541 81.0574 57.7963C80.8283 58.5038 80.5717 59.291 79.6962 59.281C78.5112 59.2675 78.3635 58.2627 78.3468 57.3926C78.3076 55.4036 78.3744 53.4159 78.3974 51.3922L78.3884 51.4009ZM-94.8467 63.2506C-88.8516 69.5773 -88.6959 71.4433 -93.211 75.724C-95.0617 77.4783 -96.1825 77.2614 -96.9236 74.7762C-98.1247 70.7323 -96.0521 67.3559 -94.8467 63.2506Z" fill="#FD7702"/>
</svg>
