<svg width="393" height="161" viewBox="0 0 393 161" fill="none" xmlns="http://www.w3.org/2000/svg">
<path opacity="0.5" d="M-193.228 160.677C-193.397 138.495 -192.277 61.2695 -192.447 39.0874C-191.907 39.1875 -191.368 39.2965 -190.82 39.3919C-185.933 40.242 -185.881 40.1375 -185.989 37.422C-186.096 34.7155 -185.691 32.0097 -186.181 29.3017C-186.344 28.3929 -185.647 27.618 -183.524 26.977C-183.503 29.7249 -183.493 32.1786 -183.465 34.6321C-183.453 36.2165 -183.441 37.801 -183.342 39.3802C-183.215 41.249 -179.843 41.5537 -177.776 41.5153C-175.753 41.4773 -176.928 40.0104 -177.212 39.252C-178.771 35.1939 -180.539 31.1646 -182.246 27.1212C-182.688 26.0788 -183.061 25.063 -185.763 24.9252C-187.891 24.8192 -187.12 23.5321 -186.642 23.4606C-182.99 22.9075 -184.937 21.5914 -185.213 20.6881C-185.864 18.5426 -186.549 16.334 -191.581 14.8196C-185.927 14.8127 -184.23 16.3435 -183.443 18.162C-182.966 19.272 -182.341 20.3357 -181.534 21.3753C-181.236 21.7533 -180.488 21.9242 -179.725 21.7192C-178.72 21.4444 -179.33 21.1186 -179.689 20.7908C-180.292 20.2476 -181.823 19.956 -181.199 18.6745C-175.989 20.7581 -171.491 22.9647 -167.218 25.2138C-161.838 22.2709 -169.876 20.6843 -169.803 17.646C-160.478 22.9622 -154.919 28.7373 -151.275 35.0793L-151.337 27.053C-152.799 26.6205 -153.145 27.9315 -154.721 27.3505C-154.705 26.137 -152.843 25.4302 -151.311 24.7213C-149.493 23.8835 -149.353 22.977 -150.67 22.1404C-155.252 19.2236 -156.891 15.0802 -164.32 13.5206C-163.718 12.6559 -162.559 13.2265 -161.918 12.9138C-162.176 12.1189 -164.177 11.7494 -163.65 10.2514C-153.196 15.6043 -147.432 22.0433 -142.089 29.0107C-141.129 27.455 -141.564 26.141 -139.131 25.2305C-138.233 26.7584 -140.35 28.2006 -139.421 29.3072C-138.29 30.6568 -134.72 30.6929 -132.378 31.4809C-129.418 32.4724 -129.688 30.0434 -127.543 29.9772C-126.601 30.5903 -127.239 31.1565 -127.695 31.6851C-128.393 32.4782 -127.868 32.9495 -126.51 33.3331C-124.761 33.8313 -124.41 33.1359 -123.589 32.5774C-121.844 31.3915 -121.36 29.9844 -120.449 28.6419C-120.148 28.205 -119.713 27.2102 -118.903 27.521C-116.316 28.5199 -116.717 27.1557 -117.18 26.8876C-119.439 25.5874 -116.494 25.6193 -115.765 25.5684C-110.939 25.2147 -109.214 23.6895 -109.18 21.3396C-109.168 20.5201 -108.845 19.6892 -108.547 18.8765C-107.568 16.2614 -107.606 13.5363 -105.106 11.0635C-105.33 18.1322 -108.682 25.0662 -108.915 32.135C-105.475 26.5358 -103.791 20.6738 -98.9339 15.2992C-97.9402 16.9078 -99.9706 18.2995 -99.9497 19.8975C-97.7904 19.4645 -96.9147 18.1359 -94.0229 18.0957C-95.8395 20.1785 -100.332 21.0141 -101.393 23.0956C-99.9546 23.8136 -98.0336 22.8754 -96.2534 23.9845C-104.043 24.0439 -102.881 27.2675 -104.27 29.6186C-104.913 30.701 -105.382 31.8138 -105.869 32.9176C-106.083 33.4082 -106.565 33.9687 -104.981 34.3233C-102.258 32.6501 -102.911 30.2376 -100.701 28.3736C-98.8461 29.0793 -101.474 30.6884 -98.4162 30.7963C-96.6353 30.8597 -94.9179 30.5614 -94.0043 29.6354C-93.5476 29.1702 -93.1607 28.6556 -93.0083 28.1429C-92.7458 27.2536 -91.978 26.5732 -90.4876 26.1317C-87.42 25.221 -86.6403 23.8207 -86.8967 22.0932C-87.0982 20.7321 -87.0306 19.3372 -84.6872 17.9974C-83.843 20.5035 -85.5186 22.8659 -83.6706 24.8891C-76.3896 24.1364 -74.4716 20.5362 -69.7721 18.3771C-70.3565 19.1874 -70.9323 19.9931 -71.8175 21.2131C-68.3337 20.2268 -65.6216 19.3957 -62.8044 18.6816C-60.1606 18.0095 -57.9028 16.8243 -54.4312 16.5081C-54.6967 17.0036 -54.6872 17.1076 -54.7738 17.14C-57.8319 18.1502 -60.9162 19.1426 -63.9569 20.1663C-64.6586 20.4025 -65.8794 20.8917 -65.7831 20.9906C-63.9614 22.9913 -67.2404 22.3689 -68.6813 22.4795C-74.4621 22.922 -76.0545 23.6584 -77.5943 26.7442C-75.3508 28.2482 -72.1038 24.6696 -69.9917 27.1661C-68.182 26.4415 -70.013 24.3729 -66.2526 24.3397C-65.6339 25.7566 -68.0013 27.3682 -65.3431 28.5748C-63.3561 29.4741 -60.953 30.2662 -58.2307 29.6342C-55.3177 28.9556 -54.4172 27.4638 -53.96 25.912C-53.613 24.7278 -54.8038 23.4556 -53.3978 22.1909C-51.6897 22.9611 -53.2439 24.15 -51.0147 24.9207C-50.8282 23.1763 -47.7656 22.7591 -46.2805 21.616C-45.8401 21.2821 -44.1656 21.0566 -44.5261 21.6117C-45.0327 22.3851 -41.6082 22.7257 -43.8892 23.1325C-46.8815 23.6669 -47.0674 25.4746 -49.7552 26.0746C-50.5616 26.2528 -51.2431 26.8556 -50.5526 27.4298C-50.3515 27.6003 -49.864 27.7596 -49.4904 27.7703C-47.866 27.8122 -48.2872 27.245 -48.1872 26.6965C-48.012 25.7535 -46.3964 25.7774 -45.1796 25.8994C-43.2848 26.0886 -44.7657 26.6432 -44.8926 27.0833C-45.3073 28.5125 -45.7961 30.4584 -43.5856 31.0528C-41.1575 31.7043 -41.5796 32.1647 -42.7707 33.1336C-40.2547 32.793 -39.9245 31.6677 -38.5385 31.1954C-35.2902 30.0795 -37.2889 32.1999 -36.037 32.3669C-33.7799 31.1002 -32.1471 27.6788 -33.9233 27.0947C-37.0055 26.0815 -35.6802 25.6323 -33.6097 24.9419C-32.2323 24.4832 -32.1864 23.6725 -32.2009 22.903C-32.2298 21.3956 -32.3455 19.8844 -32.2875 18.381C-32.1648 15.1069 -32.6938 11.8015 -30.612 8.03711C-28.9228 13.1626 -31.7792 17.8474 -29.4587 22.6014C-25.6936 19.7749 -27.2054 16.2778 -24.3387 12.9511C-23.2158 14.4229 -23.8598 15.3921 -23.9917 16.3122C-24.214 17.9074 -24.052 18.6622 -20.1314 17.994C-15.916 17.2737 -11.6495 16.4218 -7.10772 16.3509C-6.28276 16.3356 -4.90639 15.741 -4.73413 16.6904C-4.57987 17.5585 -5.82161 17.5861 -7.10737 17.537C-10.3566 17.4033 -13.271 17.8919 -15.939 18.8177C-13.0644 18.7912 -10.3494 19.4768 -7.42877 18.6667C-5.06276 18.0104 -2.83787 19.3516 -3.56545 20.747C-4.31881 22.1788 -5.08087 23.6107 -5.71254 25.0551C-6.13091 26 -5.69987 26.7165 -3.43321 26.6992C-1.29682 26.6829 1.92597 26.767 1.90813 25.5674C1.89888 24.3542 2.77758 23.4149 3.21241 22.3522C3.54496 21.5438 3.58049 20.5068 5.42894 20.3162C7.98036 20.0568 5.46695 21.8823 7.53469 21.9752C7.68199 21.9288 7.812 21.8961 7.92456 21.85C10.2277 20.927 7.60327 17.3026 14.2406 18.7052C14.4929 18.7576 15.1326 18.3679 15.5566 18.1655C17.5901 17.1766 18.4843 15.9973 18.3949 14.5221C18.3261 13.4814 17.6745 12.3047 19.4909 11.3311C21.8169 12.2641 20.4381 13.6826 21.3841 14.7257C25.6398 13.5886 29.9144 12.6641 33.7172 11.363C37.0003 10.2378 36.3563 11.2115 37.3723 12.3311C38.0555 13.0819 35.5134 14.5726 38.5697 14.4542C43.2495 14.2782 42.4487 15.1717 40.7227 16.6154C39.7647 17.415 39.155 18.3251 38.0011 19.6151C41.369 18.2312 43.4081 16.8439 45.1681 15.3094C47.4026 13.3592 49.6546 11.4134 51.9763 9.49432C52.5373 9.03279 54.0943 8.20602 54.4558 8.91856C55.0818 10.1497 57.6725 11.6194 54.217 12.9179C53.1865 13.306 52.4616 13.9228 51.658 14.4586C43.8464 19.6565 38.367 25.4614 34.9587 31.7938C34.6247 32.4166 34.3949 33.034 35.5963 33.4097C36.6845 33.75 37.2798 33.2203 38.1286 32.9241C39.3239 32.503 40.7842 31.523 42.012 31.9392C44.3282 32.7274 45.1807 31.7611 46.3493 31.2497C47.1716 30.8903 47.3224 30.1693 48.8862 30.2298C51.562 30.3317 51.7626 29.307 52.0588 28.2861C52.228 27.6963 51.6488 26.9084 53.5822 26.4727C54.8688 27.7667 54.4362 29.1327 54.368 30.4325C54.2604 32.2714 55.7743 32.6265 58.9585 32.1993C61.6307 31.8394 62.3355 30.8743 62.5611 29.7C62.9289 27.8229 63.0622 25.9386 63.4474 24.0614C63.9498 21.6129 63.7831 19.1151 65.3352 16.5047C68.9081 19.2254 72.8962 16.035 76.6892 16.8618C75.6181 17.626 74.2285 17.6185 73.0228 17.8223C66.5782 18.9173 66.0772 19.2787 65.6696 22.7768C65.3846 25.2599 65.0127 27.7391 64.5973 30.2187C64.4977 30.817 63.8428 31.4966 65.7106 31.5683C67.1614 31.6252 68.742 31.6131 69.3431 30.7076C69.6178 30.2936 69.8395 29.7486 69.55 29.3751C67.5237 26.7421 72.5295 24.8885 71.5161 21.8359C74.3552 23.9873 74.0586 23.813 76.8368 22.5468C81.8566 20.254 85.7886 17.6752 87.6389 14.3019C87.7073 14.1701 88.2367 14.1072 89.1551 13.824C85.9953 20.8562 82.3638 27.5389 81.5601 34.8927C83.3616 33.1043 83.574 31.3506 86.5536 30.2866C87.4034 32.3898 84.1839 33.8767 84.1206 35.8239C87.0972 35.5205 87.149 34.3294 87.7236 33.3743C90.0481 29.5583 92.2857 25.7293 94.6276 21.9177C95.2453 20.9079 95.9829 19.689 97.917 19.3483C100.38 18.913 100.694 17.9373 101.356 16.9724C103.7 13.5546 106.002 10.1281 108.338 6.70582C108.622 6.29168 108.886 5.70565 109.938 5.8244C110.973 5.93874 111.619 6.49065 111.407 7.0446C111.151 7.69846 110.661 8.35412 110.049 8.94279C106.298 12.5569 103.6 16.3849 101.172 20.2696C100.803 20.8655 99.7744 21.4664 101.091 22.1174C102.943 21.2431 104.673 20.338 106.578 19.5493C109.14 18.4885 111.652 17.5594 115.358 18.4502C118.204 19.1347 120.729 18.9027 121.156 16.7218C121.381 15.5431 122.597 14.4291 123.936 13.4184C124.428 13.0525 124.919 12.4783 125.831 12.6117C130.84 13.3522 135.693 13.0888 140.54 12.1555C141.902 11.8916 143.397 12.0024 144.814 12.227C148.579 12.814 152.957 12.9436 153.959 15.5572C154.03 15.7468 153.892 15.9606 153.867 16.1238C152.324 16.4479 151.82 15.3336 150.45 15.5477C150.489 17.2813 152.082 18.8492 151.383 20.6563C147.509 19.4726 143.722 18.1931 137.921 18.3505C141.816 19.9959 146.067 20.4977 148.278 22.3415C148.82 22.7946 150.422 23.2804 149.358 23.8227C148.259 24.3789 147.558 23.6146 146.696 23.2183C142.399 21.25 137.372 20.2924 131.555 20.6627C130.618 20.7242 129.839 21.0561 129.634 21.4922C128.719 23.3916 128.108 25.3067 128.497 27.3365C130.874 26.9381 129.354 25.7635 130.966 25.38C131.593 25.5744 132.151 25.8373 132.812 25.9454C137.29 26.6854 140.964 28.9708 146.758 26.8848C149.92 25.747 147.331 27.967 148.16 28.513C150.155 28.1628 151.985 27.7821 153.607 28.7204C154.129 27.6028 153.148 26.5781 154.747 25.6016C157.305 27.316 158.571 29.2802 161.404 30.6575C162.843 30.307 162.227 29.2976 163.927 28.9587C164.79 29.3414 164.773 30.582 166.647 30.2417C168.607 29.8827 166.69 29.087 167.068 28.5091C167.334 28.1042 167.225 27.5753 168.371 27.4625C170.472 30.7875 170.438 30.8919 168.177 33.9379C167.902 34.3067 167.098 34.761 167.857 35.1807C168.293 35.4174 168.891 35.286 169.332 35.0201C172.868 32.8925 173.74 26.4889 170.656 24.1357C166.751 21.1639 162.812 18.206 158.3 15.4652C157.533 15.0002 156.166 14.6213 156.956 13.4654C163.538 16.7065 168.058 20.6107 173.029 24.4164C175.076 22.9702 173.839 21.2638 176.496 20.0529C177.049 22.0316 175.855 23.7565 175.565 25.5017C175.357 26.7709 175.956 27.8438 177.837 28.4632C179.456 28.9987 180.347 29.594 180.736 30.5282C180.904 30.9253 181.196 31.6293 182.202 31.4315C184.006 31.0782 184.19 31.3439 183.91 32.1836C183.647 32.9642 184.39 33.6376 185.832 33.6855C187.5 33.7407 186.721 32.9272 186.822 32.4737C186.965 31.8705 187.92 31.8994 188.639 31.6767C193.691 30.1306 195.244 27.6469 192.991 24.8934C192.675 24.5065 191.995 24.0952 192.964 23.6532C194.892 23.5841 194.39 25.014 196.093 25.1097C196.786 23.7146 196.227 22.1569 198.45 20.9357C199.402 21.6709 197.758 22.4531 199.247 22.9488C200.452 22.6589 199.418 21.4988 201.355 21.5112C202.482 22.4171 200.753 23.4081 201.628 24.3341C204.29 23.7705 205.172 22.143 208.458 21.4163C206.902 23.4699 205.081 24.9778 206.262 27.1599C208.226 30.8029 207.627 30.8935 210.972 32.1809C207.077 29.3494 207.785 26.4375 209.759 23.3576C210.814 21.7107 210.181 19.5515 208.461 18.374C206.043 16.7219 208.039 16.5075 209.847 15.6018C210.474 16.9325 209.919 18.2044 211.916 19.2983C214.1 17.507 214.829 15.1971 219.592 14.5632C217.402 16.6171 212.781 17.6529 216.236 20.8001C218.107 22.5062 220.156 24.65 220.74 27.2034C222.07 26.229 221.506 25.2237 222.944 24.7103C225.136 26.2554 221.007 28.0118 224.001 30.0262C224.428 26.7905 224.763 24.0445 225.168 21.2979C225.664 18.0209 230.094 15.9273 235.31 16.4625C236.831 16.6184 238.801 18.7538 237.683 19.043C230.523 20.9085 231.953 23.8765 233.454 27.0431C234.177 26.2499 233.127 25.2392 235.702 24.6718C235.472 27.4985 234.166 30.4602 241.819 31.8325C239.262 30.1995 239.243 28.8144 240.413 27.4337C240.955 26.7912 241.174 25.8886 243.05 25.82C245.464 25.7382 244.361 26.9237 245.069 27.4661C245.89 28.1027 245.453 28.9255 245.337 29.6779C245.213 30.4575 245.238 31.399 247.036 31.4486C248.843 31.5027 249.122 30.5273 249.246 29.7748C249.661 27.2228 248.661 24.7858 246.161 22.6363C244.299 21.0298 244.766 19.668 246.283 18.1987C246.794 20.2819 247.981 22.1516 250.027 23.9152C252.99 26.4686 253.251 26.5118 257.037 24.165C258.291 23.3904 260.065 22.5891 261.77 22.9745C263.258 23.3118 264.247 24.3409 263.24 25.4578C262.637 26.1234 262.826 27.0409 264.286 27.0932C265.684 27.1414 266.877 26.3536 266.818 25.521C266.73 24.1681 266.355 22.8264 266.102 21.4792C265.948 20.6519 265.463 19.7773 267.62 19.0139C267.791 19.8591 268.013 20.446 268.009 21.03C267.972 23.0132 267.946 25.2634 270.05 26.7052C272.581 28.4334 276.334 29.6226 275.728 32.1986C277.644 31.763 277.511 33.6745 279.122 33.0963C280.404 32.6338 279.295 31.8319 278.821 31.2379C278.164 30.4054 277.185 29.6387 276.631 28.7918C276.192 28.1251 274.718 27.2445 277.511 26.8384C279.211 26.59 280.762 26.0711 281.216 27.539C281.448 28.2843 282.685 28.7502 284.005 28.7627C285.794 28.7808 285.439 27.7966 286.017 27.2444C286.879 26.4184 286.705 25.229 288.898 24.7234C289.801 25.8075 287.697 26.5887 288.922 27.7836C293.035 25.0087 298.116 22.7879 298.844 19.1289C299.036 18.1586 299.358 17.1737 299.924 16.2413C300.293 15.6319 299.945 14.3941 302.102 14.7172C303.754 14.9626 302.718 15.8669 302.376 16.4897C301.973 17.2262 301.536 17.9584 300.85 19.1588C305.807 16.9933 308.276 15.079 308.258 13.4162C309.949 14.2906 311.913 14.3601 314.148 13.6248C313.362 15.3375 312.184 16.9039 312.005 18.4988C311.721 21.0272 309.007 23.8909 314.537 25.886C314.047 26.5236 311.796 26.3461 311.985 27.2184C312.129 27.8828 314.016 27.0218 314.448 27.8922C310.401 29.0866 311.797 30.9955 312.054 32.8587C312.266 34.4462 311.988 34.4573 317.42 36.1679C317.491 35.1488 316.293 34.0759 317.787 32.9282C318.931 33.757 318.192 34.8039 319.863 35.2937C321.447 34.6614 319.867 33.519 321.46 32.8775C324.283 31.7423 324.193 31.3763 321.311 30.443C320.345 30.129 318.695 30.223 318.479 29.188C321.38 29.1658 324.063 30.2908 327.215 29.0489C326.926 29.8298 326.807 30.1974 326.653 30.5608C326.431 31.0831 326.046 31.747 327.462 31.8358C328.696 31.9124 328.917 31.2226 329.208 30.7224C329.894 29.522 329.382 28.5163 327.621 27.6469C326.819 27.2501 325.745 26.4841 327.829 26.3777C331.753 26.1712 330.961 24.8055 330.864 23.5749C330.741 22.1452 330.452 20.7213 330.354 19.296C330.158 16.4273 328.608 13.5507 330.749 10.6777C333.092 14.9924 331.364 19.569 333.448 24.0848C334.767 22.8298 334.713 21.4766 336.21 20.6865C338.636 21.0528 334.825 22.4943 338.526 22.6834C344.139 22.9711 340.604 20.6213 342.133 19.5865C343.198 20.2257 344.088 20.7577 345.126 21.3881C345.811 19.0242 350.133 19.7654 352.341 18.7933C352.661 18.6505 353.438 19.2286 353.179 19.4162C350.83 21.0866 354.974 23.5585 350.512 24.9688C349.905 25.1636 349.857 25.68 350.398 25.9883C351.462 26.5913 351.726 25.8288 352.332 25.6295C353.415 25.2681 354.825 24.5285 355.599 24.672C360.226 25.5104 358.277 23.8819 358.105 22.9733C357.289 18.5383 357.75 14.0257 354.989 9.62365C357.474 9.69978 357.645 10.5767 358.085 11.2253C358.963 12.5089 359.182 13.8563 359.227 15.2277C359.319 18.2421 360.002 21.2249 360.919 24.2058C361.418 25.8137 364.883 24.6057 365.673 25.7722C365.691 25.7992 366.53 25.3944 366.45 25.0962C365.878 23.0362 366.742 21.2187 369.613 19.6712C370.028 19.4462 369.955 18.9533 370.022 18.5815C370.529 15.6531 371.141 12.7238 371.483 9.79213C372.143 4.09641 377.549 1.16682 388.428 0.708101C389.305 0.669723 390.224 0.508788 390.715 1.02115C391.257 1.59196 390.817 1.98013 389.778 2.32307C388.989 2.58261 386.915 2.77046 388.511 3.55056C391.832 5.17766 388.28 5.15947 386.805 5.4333C385.114 5.74499 383.151 5.67394 381.622 6.74497C384.804 7.2866 388.188 6.83071 391.785 8.17955C388.32 8.20597 385.958 8.29189 383.613 8.22829C377.923 8.06796 372.138 10.2489 372.919 13.5976C373.144 14.5421 372.483 15.5431 372.403 16.5216C372.356 17.1467 371.599 18.0851 373.285 18.2805C374.919 18.4717 375.704 17.6871 376.201 16.9091C377.094 15.5261 377.082 13.9688 379.035 12.6636C380.458 13.6035 379.335 14.3998 378.984 15.1268C378.352 16.4219 378.435 17.1592 381.596 17.0219C385.737 16.8409 387.077 18.3337 387.647 20.0995C388.02 21.2557 388.212 22.4313 389.201 23.5374C392.052 22.6012 392.354 21.2634 391.925 19.7274C396.522 21.0822 396.288 23.4562 397.688 25.9536C399.97 22.3597 400.779 19.0758 403.413 15.9365C404.87 16.8308 403.938 17.5487 403.656 18.2254C402.403 21.2456 401.253 24.283 399.687 27.2648C398.848 28.8467 400.816 29.6149 402.471 30.2361C404.021 30.8173 407.27 30.8288 407.958 29.9815C409.352 28.2776 410.617 29.0195 412.579 30.0458C411.064 26.1776 409.64 22.784 409.666 19.3069C411.861 20.1775 411.132 21.4144 411.8 22.4551C412.345 23.3111 412.303 23.4473 412.771 23.3667C415.807 22.8592 416.163 23.9792 416.588 25.0353C416.907 25.8433 417 26.6801 417.362 27.4832C417.733 28.2998 416.51 29.6084 418.683 29.8272C420.534 30.0168 419.932 28.4369 421.405 28.0363C421.604 27.9805 421.909 28.0234 422.143 28.0216C423.235 28.792 420.805 30.1687 423.63 30.5455C426.186 30.8837 427.037 29.6639 428.307 28.8846C429.345 28.2519 430.26 27.5568 431.35 26.9509C433.149 25.9548 433.098 25.0045 431.683 23.9061C428.8 21.6645 425.994 19.3861 423.276 17.0889C422.279 16.2499 420.831 15.4687 420.857 14.2823C422.925 14.4024 423.331 15.2187 424.056 15.8108C427.08 18.2777 430.035 20.7632 432.972 23.2579C434.187 24.2945 435.299 24.372 436.925 23.4044C438.144 22.6752 439.318 21.7518 442.044 21.6314C441.081 22.9245 439.262 23.4997 438 24.2925C437.058 24.8837 435.803 25.4773 437.025 26.2603C440.594 28.5374 442.278 31.8611 449.099 32.1894C449.174 32.981 446.712 32.4068 447.361 33.2393C448.317 34.4635 454.537 34.665 456.145 33.6477C460.103 31.1411 458.89 28.0266 460.188 25.2099C460.709 24.0696 459.018 22.086 462.231 21.9664C465.313 21.8523 465.077 23.9412 465.79 25.1445C468.191 29.178 470.359 33.2541 472.613 37.3114C472.738 34.3134 471.995 31.4262 471.244 28.5436C470.662 26.3206 469.003 24.0154 469.664 21.8961C471.284 16.7092 470.033 12.1598 462.743 8.35823C462.395 8.17528 462.262 7.88202 461.842 7.44609C465.82 7.53345 466.772 10.4146 470.969 9.65819C470.152 10.6514 469.742 11.5916 470.766 12.6658C471.992 13.9558 472.446 15.4146 472.214 16.847C471.782 19.4624 474.208 20.956 478.48 21.8968C480.74 19.8921 480.556 17.4126 483.965 15.793C484.519 15.5308 485.304 14.8412 485.866 15.5884C487.322 17.5104 490.442 16.6581 492.412 16.4168C495.137 16.0836 492.654 15.1609 492.337 14.4887C492.275 14.3625 492.325 14.1448 492.481 14.0847C497.261 12.2555 493.15 11.7889 490.893 10.8916C487.888 9.69667 482.501 9.39821 484.014 6.19952C487.836 7.41988 489.723 10.0086 495.031 10.2534C493.684 7.83706 492.312 5.62919 489.58 3.74408C487.371 2.21715 484.498 1.3472 480.66 1.52133C477.874 1.64671 476.37 2.60889 476.128 3.87383C475.81 5.53773 478.849 4.26958 479.904 4.82743C480.087 4.92111 480.158 5.07449 480.359 5.28121C478.443 5.75759 476.37 6.10842 474.673 6.73706C472.785 7.43507 473.284 9.06558 470.926 9.68568C470.848 7.45436 471.979 5.34512 473.657 3.32224C476.359 0.0646869 482.258 -0.795199 487.919 1.16719C490.261 1.9778 492.423 3.03879 493.154 4.38232C496.158 9.9324 503.35 13.3907 512.405 16.3684C516.41 17.687 519.179 17.5119 522.184 16.3255C532.202 12.3648 543.217 11.5745 555.117 12.8872C567.104 14.2083 577.298 17.4173 587.226 20.9271C591.789 22.5402 591.65 22.4508 594.566 19.9386C597.163 17.6959 593.501 16.9542 591.4 15.9516C588.768 14.695 588.234 16.4239 586.936 17.0405C586.668 17.1693 586.216 17.1863 584.803 17.4551C589.89 13.7538 584.061 12.4492 580.66 10.6869C577.295 8.9424 573.669 7.33573 570.2 5.64638C569.502 5.30763 568.327 4.89557 569.139 4.35063C570.098 3.70951 571.24 4.20333 572.163 4.54488C572.738 4.76233 573.252 5.03456 573.723 5.32071C577.51 7.60524 582.214 9.36667 586.381 11.431C588.839 12.6482 590.717 12.8557 593.73 11.6647C599.064 9.56412 601.784 9.82406 606.441 12.2559L605.818 154.669C603.656 154.736 601.495 154.847 599.332 154.864C337.338 156.866 75.3342 158.864 -186.66 160.858C-188.823 160.874 -190.986 160.796 -193.149 160.763L-193.228 160.677ZM580.722 20.9858C581.929 22.1265 583.093 23.2856 584.369 24.4077C584.92 24.8879 585.031 25.7201 586.515 25.6408C587.687 25.5776 588.552 25.0504 589.016 24.4854C589.619 23.7656 588.539 23.3799 587.642 23.011C577.082 18.6096 565.738 15.0155 552.093 13.8021C542.177 12.918 532.766 13.4968 524.489 16.7969C522.8 17.4707 519.643 17.9566 520.453 19.4036C521.395 21.0806 524.911 20.9632 527.606 21.3003C528.137 21.3687 528.769 21.2145 529.326 21.251C534.452 21.5922 539.647 21.7608 544.484 22.8195C540.051 23.5052 535.921 21.7756 530.83 22.6792C534.25 24.6269 538.096 25.6072 542.486 26.0943C545.98 26.4797 549.945 27.0651 550.957 28.8049C552.277 31.0947 556.434 31.8371 558.445 33.6281C559.18 34.2835 560.578 34.309 561.941 34.1266C565.723 33.6224 569.515 33.1317 573.298 32.623C574.313 32.4885 575.301 32.2727 575.314 31.6162C575.327 31.1 574.483 30.8755 573.803 30.5955C572.427 30.0174 570.221 30.1157 568.744 28.8368C573.325 29.336 576.833 30.3641 580.744 30.7191C583.916 31.0073 585.073 30.1474 584.629 28.9103C584.088 27.4069 583.972 25.8142 582.311 24.4189C581.166 23.4543 580.037 22.3944 580.722 20.9903L580.722 20.9858ZM-166.76 30.5887C-166.836 27.4383 -171.553 23.9838 -176.136 23.1314C-178.641 22.6661 -180.237 22.9545 -179.965 24.4735C-179.175 28.8861 -177.006 33.1568 -175.002 37.4423C-174.384 38.7731 -172.308 38.8116 -170.189 38.7411C-167.706 38.6588 -166.836 37.7332 -167.122 36.7167C-167.764 34.4671 -167.408 32.2641 -166.752 30.5886L-166.76 30.5887ZM425.877 39.3429C428.472 37.9423 429.147 37.6429 430.55 38.2931C432.05 38.988 434.46 39.5491 434.66 40.7246C434.923 42.289 437.317 42.9906 439.077 43.7377C440.349 44.2803 441.285 42.8562 442.384 42.3408C444.124 41.5262 445.899 40.7838 448.11 40.3459C449.194 40.1339 450.52 39.8521 450.063 39.095C449.034 37.4052 448.394 35.477 445 34.6019C439.944 33.3004 434.545 32.572 428.813 32.5659C426.798 32.5632 425.828 32.9327 425.836 33.9875C425.858 35.6307 425.861 37.2741 425.877 39.3474L425.877 39.3429ZM482.871 23.7421C484.69 23.0763 486.551 23.4243 488.331 23.4107C489.808 23.3995 491.987 24.3879 492.505 22.8447C493.057 21.2016 494.857 19.214 491.894 17.9962C489.917 17.1782 486.508 16.6881 483.974 18.0566C481.578 19.3515 479.755 24.0375 481.16 24.8145C481.351 24.9217 481.578 25.0422 481.83 25.081C484.291 25.4607 486.581 26.1902 489.298 26.0518C490.123 26.0092 491.279 26.1227 491.474 25.5553C491.712 24.8336 490.383 24.7849 489.478 24.6469C487.348 24.3191 484.867 24.664 482.862 23.7467L482.871 23.7421ZM529.31 24.9272C534.93 30.6475 542.818 34.3313 555.112 34.9891C548.744 30.1754 539.405 27.5213 529.31 24.9272ZM463.191 24.9651C462.983 24.9441 462.765 24.9231 462.557 24.9021C461.754 27.869 460.874 30.8319 460.176 33.8026C459.621 36.1836 461.114 37.2497 465.505 37.8772C469.104 38.393 470.567 37.7344 469.554 35.8905C467.546 32.2298 465.33 28.6023 463.2 24.9605L463.191 24.9651ZM308.851 17.1104C304.829 19.2915 302.675 21.5896 300.208 23.7453C299.25 24.5765 298.078 25.8304 300.922 26.3837C303.993 26.985 308.867 26.0832 309.014 24.9095C309.308 22.4716 309.672 20.0106 308.859 17.1103L308.851 17.1104ZM483.614 41.4333C484.854 41.2382 485.14 41.1409 485.401 41.1571C488.572 41.3411 489.659 40.2961 489.605 38.9655C489.522 37.2503 486.906 38.1214 485.325 38.1018C483.753 38.0821 482.165 38.2345 480.603 38.3777C479.223 38.5014 478.088 38.827 478.268 39.713C478.539 41.06 478.68 42.4759 481.023 43.3409C482.251 43.7978 483.312 45.1388 485.155 44.2284C486.903 43.3685 486.99 42.1998 483.614 41.4333ZM480.318 27.166C478.48 29.9326 482.699 35.41 486.779 36.2526C488.04 36.5147 489.221 36.4242 489.72 35.773C490.794 34.3478 491.938 32.7726 488.396 31.858C484.75 30.9124 482.255 29.4647 480.326 27.166L480.318 27.166ZM82.0597 22.9642C82.2654 22.605 82.5834 22.1725 81.9128 21.9241C81.0156 21.5869 80.2979 21.9907 79.6748 22.2807C75.9014 24.0298 76.1646 26.64 74.5138 28.8392C73.9636 29.5768 72.8692 30.7124 75.6591 30.9764C77.9276 31.19 79.1894 30.3881 79.6332 29.3525C80.5463 27.2313 81.2595 25.0936 82.0596 22.9597L82.0597 22.9642ZM503.927 27.579C503.104 24.448 501.373 21.849 499.816 19.226C499.552 18.7798 498.941 18.4223 497.942 18.4435C496.848 18.4654 496.556 18.9023 496.464 19.3783C496.189 20.7975 495.904 22.2166 495.672 23.6354C495.572 24.2564 495.753 25.1152 496.96 25.1286C500.052 25.173 500.993 26.6733 503.927 27.579ZM438.796 31.8605C440.15 31.7868 442.018 31.8359 440.846 30.7991C439.333 29.466 437.379 28.2676 435.537 27.0412C434.786 26.5399 433.709 26.5481 432.957 27.0428C431.376 28.0871 428.856 29.1294 429.092 30.3952C429.291 31.4531 432.467 31.0667 434.276 31.3924C435.737 31.6529 437.344 31.7176 438.796 31.8605ZM512.533 36.6584C515.225 35.4698 517.689 35.1205 519.899 36.7516C520.047 36.8591 520.544 38.2225 521.726 37.1451C522.485 36.4602 525.087 36.0058 524.126 35.2706C522.239 33.8227 519.676 32.5837 516.25 32.0666C515.642 31.9762 514.79 31.9736 514.464 32.4514C513.579 33.7394 511.564 34.8911 512.533 36.6584ZM599.833 11.3284C597.167 11.3578 592.038 12.9769 592.626 13.7782C593.547 15.0298 595.569 15.9515 597.892 16.5133C599.032 16.7898 603.5 13.7813 603.449 12.8536C603.388 11.7449 602.204 11.2605 599.833 11.3284ZM111.008 26.4784C108.872 26.5535 107.274 26.5521 105.703 26.6818C104.218 26.8018 102.692 27.1168 102.865 28.0843C103.119 29.5039 103.564 30.9175 104.113 32.3122C104.29 32.7726 104.999 33.5504 106.149 32.8626C107.42 32.1059 109.65 31.7675 109.63 30.3461C109.621 29.1374 109.411 27.808 111.016 26.4783L111.008 26.4784ZM515.437 27.9621C519.75 28.64 519.741 28.6355 520.272 26.5082C520.314 26.3313 520.686 26.084 520.998 26.0364C523.714 25.6173 521.529 24.9911 521.195 24.5409C520.59 23.7261 519.559 24.0961 518.371 24.318C515.934 24.7757 516.086 26.4541 513.388 26.8731C511.931 27.097 510.191 27.9297 510.459 28.9236C510.727 29.8949 512.872 29.8106 514.281 30.0987C514.933 30.2341 515.612 30.41 516.461 30.0775C516.178 29.4912 515.87 28.8642 515.429 27.9622L515.437 27.9621ZM60.6245 41.1188C60.932 39.3056 61.3356 37.5505 61.4958 35.7927C61.576 34.9138 62.4844 33.3133 59.9325 33.5093C57.884 33.6653 56.1841 35.1043 54.3234 35.9741C57.371 37.0057 54.3626 37.7032 53.761 38.5363C53.3399 39.1145 52.9109 39.8059 54.0082 40.1959C55.7151 40.7986 55.6727 39.7939 56.2513 39.3729C57.6592 38.3526 58.7811 38.5569 59.4928 39.6244C59.8178 40.1063 59.6832 40.6732 60.6333 41.1232L60.6245 41.1188ZM-149.245 25.697C-148.192 28.2106 -149.285 30.7497 -148.189 33.1724C-147.818 33.9845 -149.475 35.4187 -146.617 35.4784C-143.594 35.5413 -143.876 33.9408 -143.527 32.915C-143.171 31.8575 -143.866 30.7129 -145.009 29.9203C-146.895 28.6082 -147.94 27.1358 -149.245 25.7015L-149.245 25.697ZM514.857 19.0615C513.3 17.6201 509.405 15.9205 504.252 14.4884C503.33 14.2329 502.344 13.584 501.202 14.1676C500.362 14.5996 501.088 15.1599 501.352 15.6469C502.365 17.5134 508.7 19.1085 514.857 19.057L514.857 19.0615ZM471.297 43.5327C470.449 41.6831 462.659 38.329 460.193 38.4157C459.924 38.4268 459.56 38.4431 459.404 38.5349C456.239 40.3201 462.887 40.9213 461.164 42.7091C460.638 43.2519 463.229 43.5354 463.747 43.2191C466.289 41.6695 468.485 42.6895 471.306 43.5327L471.297 43.5327ZM449.756 42.0944C447.335 43.5299 444.971 44.4488 443.757 45.8524C442.664 47.1193 444.542 47.3857 446.004 47.8228C447.928 48.3966 448.662 47.7934 449.003 46.9533C449.591 45.482 450.101 44.0022 450.567 42.5183C450.821 41.7105 450.321 41.0352 448.509 41.4112C445.378 42.0599 442.746 43.0578 441.017 45.2395C444.413 44.1135 444.83 41.8739 449.756 42.0899L449.756 42.0944ZM309.217 32.07C309.249 29.5436 308.779 29.3978 304.438 30.6713C303.32 30.9968 302.107 31.341 301.32 31.8405C300.672 32.2483 299.74 33.0794 300.776 33.4291C302.892 34.1374 305.348 34.9969 307.667 34.9838C309.716 34.9726 308.732 33.3911 309.194 32.5184C309.271 32.3774 309.2 32.2195 309.208 32.0701L309.217 32.07ZM336.184 26.4091C337.434 26.3045 338.027 26.6531 338.706 26.9014C341.92 28.0721 342.492 27.9274 343.084 25.8313C343.253 25.2369 343.466 24.6513 343.609 24.0571C343.719 23.6172 343.387 23.3617 342.457 23.3371C338.47 23.2316 332.276 27.6159 333.516 29.6754C333.736 30.0359 333.983 30.437 334.842 30.4304C336.006 30.4215 336.158 29.9088 336.181 29.4649C336.234 28.4504 336.183 27.4367 336.175 26.4046L336.184 26.4091ZM506.211 32.1613C500.278 35.3982 500.111 36.3502 504.514 38.5259C506.318 39.4175 507.421 39.305 508.167 38.0362C509.375 35.9717 507.365 34.2531 506.211 32.1613Z" fill="#FD7702"/>
</svg>
