<svg width="393" height="155" viewBox="0 0 393 155" fill="none" xmlns="http://www.w3.org/2000/svg">
<path opacity="0.7" d="M623.394 154.165C623.193 129.459 625.663 58.5776 625.462 33.8713C624.91 33.9917 624.358 34.1223 623.798 34.2378C618.795 35.2668 618.74 35.1512 618.805 32.1252C618.87 29.1093 618.408 26.1027 618.865 23.0786C619.018 22.0638 618.288 21.2126 616.098 20.5345C616.123 23.5951 616.154 26.3278 616.168 29.0607C616.182 30.8254 616.196 32.5902 616.121 34.3506C616.022 36.4339 612.566 36.8301 610.444 36.8222C608.366 36.8138 609.548 35.1604 609.826 34.311C611.358 29.7654 613.105 25.2483 614.789 20.7166C615.225 19.5482 615.591 18.4107 618.362 18.2117C620.545 18.0578 619.731 16.6374 619.24 16.5658C615.482 16.0114 617.458 14.5129 617.726 13.5022C618.358 11.1019 619.024 8.63074 624.164 6.85941C618.36 6.94692 616.644 8.68034 615.867 10.7188C615.396 11.963 614.772 13.1581 613.961 14.3295C613.662 14.7555 612.897 14.9584 612.11 14.7429C611.073 14.4538 611.695 14.0807 612.057 13.7096C612.667 13.0945 614.234 12.744 613.571 11.3274C608.259 13.7355 603.679 16.2687 599.33 18.8454C593.758 15.6585 601.982 13.7562 601.856 10.3738C592.374 16.4513 586.765 22.9765 583.131 30.1007L583.059 21.161C584.553 20.6547 584.93 22.1089 586.538 21.4353C586.501 20.0842 584.578 19.3284 582.993 18.5647C581.113 17.6623 580.954 16.6551 582.292 15.7013C586.946 12.3758 588.558 7.73372 596.158 5.8718C595.526 4.91888 594.345 5.5739 593.683 5.2364C593.934 4.34689 595.981 3.90165 595.415 2.24224C584.774 8.37966 578.966 15.6476 573.6 23.4969C572.587 21.7807 573.012 20.3099 570.498 19.3369C569.603 21.0536 571.8 22.6241 570.865 23.8721C569.727 25.3941 566.064 25.4945 563.672 26.4115C560.65 27.5655 560.887 24.8558 558.684 24.8183C557.727 25.5169 558.392 26.1367 558.869 26.7178C559.598 27.5892 559.068 28.123 557.68 28.573C555.893 29.1573 555.521 28.3888 554.669 27.7806C552.857 26.4893 552.336 24.9304 551.379 23.4506C551.063 22.9691 550.6 21.8686 549.773 22.2283C547.134 23.3843 547.523 21.8583 547.993 21.5519C550.291 20.0659 547.269 20.151 546.519 20.1067C541.559 19.794 539.762 18.1244 539.688 15.508C539.662 14.5955 539.316 13.6756 538.997 12.7756C537.948 9.87967 537.941 6.84417 535.333 4.13237C535.682 12.0008 539.24 19.6666 539.598 27.535C535.972 21.3572 534.145 14.8572 529.068 8.95343C528.075 10.7617 530.183 12.2774 530.189 14.0574C527.965 13.6115 527.043 12.1466 524.074 12.1506C525.974 14.4395 530.6 15.2945 531.724 17.5948C530.26 18.4185 528.272 17.406 526.463 18.6712C534.461 18.6062 533.322 22.2158 534.788 24.8108C535.466 26.0054 535.967 27.2367 536.485 28.4578C536.712 29.0005 537.216 29.6167 535.597 30.0383C532.774 28.2207 533.403 25.523 531.103 23.4843C529.211 24.3015 531.936 26.0492 528.798 26.2209C526.971 26.3215 525.203 26.0182 524.25 25.0023C523.773 24.4919 523.367 23.9254 523.202 23.3569C522.918 22.3709 522.118 21.6261 520.581 21.1596C517.417 20.197 516.593 18.6506 516.827 16.7225C517.01 15.2032 516.918 13.6509 514.489 12.1982C513.665 15.0035 515.425 17.6062 513.562 19.8904C506.075 19.1748 504.046 15.1976 499.185 12.8722C499.799 13.7648 500.403 14.6524 501.333 15.9962C497.74 14.9564 494.942 14.0766 492.038 13.3287C489.313 12.6247 486.975 11.3428 483.406 11.0491C483.687 11.5964 483.679 11.7125 483.768 11.747C486.925 12.8206 490.107 13.8738 493.246 14.9627C493.97 15.214 495.232 15.7382 495.135 15.85C493.298 18.1088 496.654 17.3604 498.135 17.4593C504.076 17.8548 505.723 18.6482 507.356 22.0587C505.078 23.7715 501.685 19.8408 499.559 22.6566C497.689 21.8801 499.534 19.5456 495.673 19.5719C495.062 21.1602 497.519 22.9152 494.811 24.3037C492.786 25.3387 490.333 26.2613 487.528 25.6033C484.526 24.8966 483.577 23.2504 483.081 21.5299C482.705 20.2169 483.906 18.7801 482.441 17.3953C480.701 18.2817 482.316 19.5797 480.041 20.4755C479.82 18.536 476.669 18.1229 475.125 16.8748C474.668 16.5105 472.945 16.2875 473.324 16.8996C473.857 17.7524 470.348 18.1894 472.696 18.604C475.777 19.1487 475.998 21.1589 478.768 21.7818C479.598 21.9666 480.308 22.6265 479.609 23.2776C479.405 23.4709 478.908 23.6564 478.524 23.6747C476.858 23.7487 477.28 23.1099 477.168 22.5007C476.973 21.4535 475.315 21.5073 474.068 21.6637C472.126 21.9064 473.655 22.499 473.793 22.987C474.243 24.5717 474.777 26.7306 472.518 27.4297C470.037 28.1961 470.478 28.7018 471.717 29.7608C469.128 29.4238 468.771 28.1762 467.34 27.6735C463.987 26.4855 466.074 28.8133 464.792 29.0203C462.453 27.6476 460.72 23.8648 462.533 23.1844C465.68 22.0041 464.312 21.5261 462.175 20.7922C460.753 20.3045 460.692 19.4024 460.694 18.5452C460.698 16.866 460.792 15.1811 460.707 13.5077C460.526 9.8635 461.013 6.17351 458.812 2.01626C457.165 7.75282 460.176 12.9221 457.874 18.2555C453.962 15.1711 455.454 11.251 452.456 7.59444C451.328 9.25248 452.005 10.321 452.156 11.3434C452.411 13.1163 452.258 13.9596 448.222 13.2814C443.882 12.5502 439.488 11.6733 434.825 11.6708C433.978 11.6676 432.555 11.0287 432.394 12.0889C432.251 13.0583 433.526 13.0681 434.845 12.9918C438.178 12.7882 441.178 13.2832 443.932 14.2693C440.981 14.2883 438.205 15.0974 435.194 14.2445C432.754 13.5534 430.493 15.0845 431.263 16.6262C432.061 18.2081 432.867 19.7899 433.54 21.388C433.985 22.4332 433.555 23.2384 431.228 23.2573C429.034 23.2752 425.728 23.4231 425.726 22.0868C425.715 20.7355 424.797 19.7043 424.333 18.5281C423.978 17.6334 423.924 16.4792 422.023 16.298C419.399 16.052 422.01 18.0427 419.889 18.181C419.737 18.1318 419.603 18.0976 419.487 18.0481C417.107 17.059 419.74 12.9784 412.95 14.6522C412.692 14.7148 412.029 14.2916 411.59 14.0733C409.486 13.0063 408.548 11.7079 408.615 10.0635C408.668 8.90335 409.317 7.582 407.436 6.52829C405.064 7.60648 406.504 9.16298 405.55 10.3406C401.163 9.14588 396.759 8.18831 392.833 6.80329C389.444 5.60552 390.122 6.6791 389.098 7.94299C388.409 8.79067 391.044 10.4081 387.904 10.3277C383.097 10.2104 383.935 11.1919 385.731 12.7708C386.728 13.6451 387.369 14.6484 388.575 16.0656C385.095 14.5811 382.978 13.0705 381.145 11.3911C378.819 9.25689 376.474 7.12786 374.059 5.02967C373.475 4.52513 371.863 3.6306 371.504 4.43022C370.882 5.81186 368.247 7.49224 371.816 8.88015C372.881 9.29507 373.635 9.96966 374.469 10.5529C382.576 16.2101 388.298 22.5826 391.904 29.5775C392.257 30.2654 392.504 30.9492 391.277 31.3877C390.165 31.785 389.545 31.2052 388.669 30.8896C387.435 30.4407 385.919 29.374 384.666 29.8581C382.302 30.7749 381.41 29.7132 380.202 29.1633C379.352 28.7769 379.185 27.9765 377.581 28.0702C374.836 28.2287 374.612 27.0909 374.291 25.9589C374.107 25.3049 374.689 24.4178 372.697 23.965C371.398 25.4278 371.865 26.9418 371.957 28.3882C372.098 30.4343 370.55 30.8553 367.275 30.4332C364.525 30.0773 363.786 29.0143 363.534 27.7104C363.125 25.6261 362.956 23.5299 362.529 21.4458C361.972 18.7274 362.101 15.9429 360.464 13.0618C356.842 16.152 352.694 12.6661 348.815 13.6507C349.927 14.4837 351.353 14.452 352.595 14.6587C359.229 15.7696 359.749 16.1637 360.226 20.0526C360.561 22.8131 360.985 25.5679 361.453 28.3223C361.565 28.987 362.249 29.7328 360.333 29.8441C358.844 29.9319 357.222 29.9451 356.589 28.9468C356.3 28.4902 356.064 27.8871 356.354 27.4662C358.39 24.4998 353.22 22.5198 354.209 19.1031C351.331 21.5469 351.632 21.3477 348.759 19.9844C343.568 17.5155 339.488 14.7098 337.531 10.9842C337.459 10.8385 336.915 10.7774 335.967 10.4775C339.329 18.2559 343.17 25.6371 344.119 33.8132C342.24 31.8519 341.992 29.9024 338.915 28.7677C338.079 31.1243 341.409 32.7259 341.506 34.8934C338.446 34.6056 338.372 33.28 337.767 32.2261C335.316 28.0154 332.954 23.7888 330.486 19.5833C329.835 18.4692 329.057 17.1241 327.066 16.7773C324.53 16.334 324.191 15.2526 323.496 14.1893C321.031 10.4224 318.611 6.64514 316.155 2.87318C315.857 2.41674 315.575 1.76856 314.498 1.91851C313.438 2.06327 312.783 2.68881 313.011 3.30213C313.284 4.02602 313.799 4.74795 314.437 5.39324C318.348 9.35507 321.182 13.5727 323.74 17.8582C324.129 18.5156 325.195 19.1675 323.855 19.9146C321.939 18.9721 320.148 17.9933 318.179 17.147C315.531 16.0088 312.937 15.0163 309.147 16.0707C306.238 16.881 303.641 16.6651 303.167 14.2436C302.916 12.9346 301.648 11.7145 300.257 10.6114C299.746 10.2122 299.233 9.58102 298.298 9.74494C293.169 10.6539 288.183 10.4423 283.191 9.48449C281.789 9.21351 280.257 9.36211 278.805 9.63611C274.95 10.3532 270.458 10.5713 269.474 13.4988C269.405 13.7112 269.549 13.947 269.578 14.1283C271.167 14.4633 271.666 13.2138 273.076 13.4292C273.065 15.3606 271.457 17.1334 272.204 19.1343C276.161 17.7507 280.027 16.262 285.984 16.3397C282.014 18.2376 277.659 18.8681 275.42 20.9587C274.871 21.4724 273.235 22.0404 274.337 22.6265C275.474 23.2273 276.18 22.3644 277.059 21.9085C281.437 19.6441 286.581 18.493 292.558 18.8075C293.521 18.8601 294.327 19.2167 294.544 19.699C295.516 21.7988 296.175 23.9214 295.81 26.1884C293.363 25.7847 294.904 24.4511 293.242 24.0511C292.602 24.2782 292.034 24.5803 291.357 24.7118C286.773 25.6114 283.04 28.2184 277.057 25.9929C273.792 24.779 276.487 27.2077 275.645 27.8297C273.591 27.4733 271.707 27.0801 270.057 28.1525C269.503 26.9165 270.492 25.7588 268.834 24.6982C266.238 26.6506 264.972 28.8594 262.087 30.441C260.603 30.0748 261.218 28.9403 259.468 28.5915C258.589 29.0323 258.627 30.4136 256.698 30.0662C254.68 29.6994 256.634 28.7809 256.237 28.1438C255.956 27.6973 256.059 27.1065 254.881 27.0001C252.78 30.7385 252.817 30.8541 255.189 34.2082C255.478 34.6143 256.311 35.1068 255.539 35.587C255.095 35.8579 254.479 35.7217 254.022 35.433C250.356 33.1231 249.353 26.0063 252.479 23.3336C256.437 19.9583 260.431 16.5978 265.016 13.4695C265.796 12.9388 267.193 12.4938 266.362 11.2197C259.66 14.94 255.086 19.3641 250.048 23.6861C247.922 22.11 249.163 20.1888 246.416 18.885C245.881 21.0979 247.136 22.9988 247.463 24.9375C247.698 26.3475 247.101 27.5524 245.181 28.274C243.528 28.8975 242.624 29.5755 242.24 30.6224C242.074 31.0675 241.786 31.8565 240.75 31.6531C238.893 31.29 238.708 31.589 239.01 32.5194C239.293 33.3844 238.541 34.1469 237.062 34.2245C235.351 34.314 236.137 33.395 236.026 32.8916C235.869 32.2222 234.888 32.2705 234.146 32.0345C228.935 30.3978 227.298 27.6579 229.565 24.5535C229.882 24.1173 230.574 23.6477 229.571 23.1718C227.592 23.1274 228.131 24.7114 226.384 24.8466C225.649 23.3045 226.197 21.5605 223.895 20.2379C222.929 21.0727 224.63 21.9161 223.11 22.4932C221.868 22.1906 222.91 20.8812 220.922 20.9276C219.78 21.9555 221.572 23.0301 220.689 24.076C217.947 23.4932 217.014 21.6956 213.628 20.9415C215.261 23.2024 217.155 24.851 215.981 27.3011C214.025 31.3913 214.641 31.4821 211.23 32.9721C215.18 29.7532 214.405 26.5223 212.327 23.1254C211.215 21.3091 211.828 18.8938 213.574 17.5535C216.029 15.6729 213.976 15.4677 212.105 14.4895C211.484 15.9821 212.075 17.3892 210.043 18.6411C207.771 16.6829 206.984 14.1227 202.083 13.4969C204.367 15.7475 209.128 16.8232 205.635 20.3863C203.742 22.3178 201.675 24.7398 201.119 27.5933C199.737 26.5305 200.299 25.4015 198.814 24.8539C196.59 26.6116 200.859 28.4981 197.819 30.7919C197.326 27.1956 196.936 24.143 196.474 21.091C195.91 17.45 191.326 15.1929 185.982 15.8767C184.423 16.076 182.436 18.4873 183.589 18.7905C190.97 20.7475 189.553 24.077 188.066 27.6288C187.31 26.7576 188.37 25.6144 185.717 25.0259C186.001 28.17 187.392 31.4464 179.559 33.1035C182.157 31.2419 182.153 29.6989 180.928 28.181C180.361 27.4746 180.121 26.4731 178.194 26.4283C175.715 26.3778 176.867 27.6795 176.15 28.2955C175.317 29.0183 175.78 29.9272 175.911 30.7632C176.052 31.6293 176.043 32.6782 174.198 32.7638C172.344 32.8545 172.041 31.7729 171.9 30.937C171.431 28.1019 172.417 25.371 174.947 22.9351C176.831 21.1146 176.329 19.6059 174.746 17.9951C174.257 20.3236 173.07 22.4259 171 24.4244C168.001 27.3179 167.734 27.3705 163.808 24.8207C162.508 23.9791 160.673 23.1166 158.929 23.5745C157.408 23.9752 156.41 25.138 157.463 26.3648C158.093 27.0959 157.914 28.121 156.417 28.2037C154.982 28.281 153.744 27.4237 153.79 26.4955C153.858 24.9873 154.221 23.4867 154.458 21.9822C154.602 21.0582 155.084 20.0761 152.858 19.2622C152.696 20.2064 152.478 20.8637 152.493 21.5141C152.564 23.7221 152.629 26.2276 150.493 27.8687C147.924 29.8359 144.092 31.2235 144.757 34.0822C142.783 33.6293 142.952 35.7558 141.288 35.139C139.965 34.6456 141.09 33.7338 141.566 33.0643C142.227 32.1261 143.218 31.2558 143.772 30.3033C144.212 29.5535 145.711 28.5479 142.836 28.1427C141.087 27.8947 139.486 27.3429 139.045 28.9853C138.82 29.8192 137.558 30.3589 136.203 30.3951C134.367 30.4453 134.714 29.3432 134.112 28.738C133.213 27.8326 133.372 26.5052 131.111 25.979C130.203 27.2016 132.376 28.0361 131.139 29.3874C126.87 26.3664 121.617 23.9786 120.808 19.916C120.594 18.8386 120.247 17.7472 119.65 16.7184C119.261 16.0459 119.597 14.6615 117.389 15.0576C115.698 15.3588 116.776 16.3484 117.138 17.0363C117.564 17.8497 118.025 18.6578 118.749 19.9831C113.624 17.6548 111.057 15.5646 111.048 13.7124C109.326 14.7147 107.312 14.8252 105.005 14.0439C105.841 15.9381 107.076 17.6627 107.287 19.4359C107.622 22.2469 110.456 25.3905 104.813 27.7054C105.327 28.4072 107.634 28.1716 107.455 29.1463C107.318 29.8886 105.367 28.9615 104.938 29.9382C109.112 31.2002 107.712 33.3496 107.479 35.429C107.289 37.2004 107.574 37.2082 102.026 39.2047C101.937 38.0709 103.149 36.8559 101.596 35.6028C100.435 36.5451 101.212 37.6986 99.5043 38.2722C97.8671 37.5946 99.4704 36.2958 97.8241 35.6083C94.9075 34.3915 94.9933 33.9824 97.9358 32.8945C98.9226 32.5285 100.617 32.6055 100.822 31.4491C97.844 31.4733 95.1083 32.7713 91.8519 31.4413C92.1621 32.3061 92.2902 32.7135 92.454 33.1156C92.6905 33.6935 93.0977 34.4264 91.6453 34.5492C90.38 34.6553 90.142 33.8907 89.8343 33.3386C89.1102 32.0132 89.6183 30.8847 91.4113 29.8868C92.2279 29.4314 93.3176 28.5603 91.1769 28.4768C87.1453 28.3129 87.9353 26.7787 88.0133 25.4065C88.1163 23.8122 88.3887 22.2217 88.4649 20.6327C88.6173 17.4345 90.1604 14.2049 87.9144 11.0414C85.582 15.886 87.4332 20.9537 85.3701 26.0179C83.9947 24.6424 84.027 23.1345 82.4775 22.2798C79.9935 22.7286 83.9292 24.2698 80.133 24.5427C74.3763 24.9576 77.9658 22.2812 76.3784 21.1545C75.2965 21.8843 74.392 22.4917 73.3368 23.2113C72.5932 20.5902 68.169 21.4884 65.8868 20.443C65.5556 20.2894 64.7674 20.9463 65.0366 21.1508C67.4767 22.9715 63.2643 25.7942 67.8684 27.2897C68.4943 27.4964 68.5524 28.0707 68.0024 28.4231C66.9202 29.1127 66.637 28.2678 66.0111 28.0561C64.8934 27.6719 63.4335 26.8719 62.6414 27.0448C57.906 28.0564 59.8794 26.21 60.0405 25.1951C60.8028 20.2423 60.2537 15.2245 63.0133 10.2756C60.4642 10.4022 60.3027 11.3818 59.8628 12.1115C58.9829 13.5557 58.7812 15.06 58.758 16.588C58.7139 19.9467 58.0633 23.28 57.172 26.6152C56.6873 28.4143 53.1103 27.1273 52.3185 28.4397C52.3009 28.4701 51.4324 28.0334 51.51 27.7C52.0619 25.3961 51.145 23.3866 48.1711 21.7115C47.7411 21.4679 47.808 20.9177 47.7333 20.5049C47.163 17.2521 46.4856 14.0002 46.0846 10.741C45.3109 4.40892 39.7124 1.23734 28.5373 0.909648C27.6365 0.881672 26.6901 0.717922 26.1954 1.29678C25.6479 1.94162 26.106 2.3665 27.179 2.73092C27.9926 3.00669 30.1251 3.18097 28.5006 4.0766C25.1186 5.94458 28.7648 5.86451 30.2829 6.14464C32.0242 6.46329 34.0384 6.35111 35.6261 7.51814C32.368 8.17492 28.8869 7.72418 25.2171 9.28691C28.7746 9.258 31.2003 9.31392 33.6069 9.20359C39.445 8.92923 45.4201 11.2607 44.6748 15.0032C44.4605 16.0588 45.156 17.1625 45.254 18.2509C45.3132 18.9462 46.1062 19.9785 44.3784 20.2245C42.704 20.4651 41.8857 19.6044 41.3616 18.7464C40.4219 17.2211 40.4077 15.4867 38.381 14.066C36.9364 15.1367 38.1026 16.0046 38.4747 16.8084C39.1462 18.24 39.0726 19.0625 35.8261 18.9628C31.5719 18.831 30.2213 20.5161 29.6667 22.4922C29.3028 23.786 29.1263 25.0985 28.1288 26.347C25.1872 25.3524 24.8541 23.8675 25.2682 22.1498C20.5731 23.7359 20.8532 26.3759 19.4583 29.1808C17.0543 25.2168 16.1686 21.5732 13.4121 18.1214C11.9314 19.1419 12.9007 19.9257 13.2011 20.6746C14.539 24.0169 15.77 27.3803 17.4285 30.6747C18.3165 32.4222 16.3086 33.3109 14.6203 34.0306C13.0387 34.704 9.70445 34.7714 8.98355 33.8394C7.52385 31.9654 6.23781 32.8129 4.24116 33.9889C5.73066 29.6554 7.13534 25.8521 7.05037 21.9802C4.81159 22.9867 5.58058 24.352 4.91243 25.5222C4.36743 26.4847 4.41326 26.6356 3.9311 26.5538C0.806145 26.0396 0.459674 27.293 0.0412996 28.4763C-0.272338 29.3815 -0.353931 30.315 -0.712189 31.2154C-1.07924 32.1311 0.198621 33.5679 -2.02823 33.8482C-3.92547 34.0905 -3.33356 32.3209 -4.85279 31.8996C-5.05835 31.8407 -5.36996 31.8937 -5.61069 31.8956C-6.71813 32.7719 -4.20048 34.2642 -7.09455 34.7315C-9.71259 35.1511 -10.6063 33.807 -11.9239 32.9605C-12.9994 32.2734 -13.9507 31.5146 -15.0795 30.8582C-16.9429 29.7792 -16.907 28.72 -15.4727 27.4729C-12.5509 24.9279 -9.7097 22.3433 -6.95783 19.7392C-5.94908 18.7881 -4.47621 17.8937 -4.52261 16.5729C-6.64337 16.7414 -7.04609 17.6574 -7.78071 18.329C-10.8431 21.1272 -13.834 23.945 -16.8069 26.7728C-18.0368 27.9476 -19.1772 28.0526 -20.8621 27.0024C-22.1257 26.2109 -23.3466 25.2022 -26.1471 25.1141C-25.1369 26.5379 -23.2595 27.1479 -21.9507 28.0096C-20.9736 28.6522 -19.6755 29.2921 -20.9165 30.1846C-24.5423 32.7807 -26.215 36.5105 -33.2105 36.991C-33.2747 37.8739 -30.7568 37.1929 -31.409 38.131C-32.3697 39.5104 -38.7513 39.8396 -40.4188 38.7337C-44.5247 36.0089 -43.3314 32.5199 -44.7121 29.4048C-45.2662 28.1437 -43.5635 25.9061 -46.8633 25.827C-50.0293 25.7519 -49.7518 28.0742 -50.4631 29.4263C-52.8604 33.9588 -55.0167 38.5347 -57.2623 43.0911C-57.441 39.7545 -56.7271 36.5266 -56.0043 33.3036C-55.445 30.8182 -53.7808 28.2229 -54.4954 25.8739C-56.2452 20.1247 -55.0382 15.0371 -47.6194 10.6807C-47.2644 10.471 -47.1334 10.1422 -46.7094 9.64964C-50.7919 9.81392 -51.7197 13.0385 -56.0416 12.2669C-55.1856 13.3592 -54.7492 14.3994 -55.7825 15.613C-57.019 17.0702 -57.4605 18.7025 -57.1979 20.2938C-56.7106 23.1993 -59.1755 24.9035 -63.5444 26.0231C-65.8984 23.8286 -65.7515 21.0642 -69.2788 19.3179C-69.8517 19.0351 -70.6692 18.2804 -71.233 19.122C-72.6956 21.287 -75.9128 20.3904 -77.9388 20.1547C-80.7412 19.8296 -78.2087 18.7602 -77.8939 18.0063C-77.8326 17.8646 -77.888 17.623 -78.049 17.5588C-82.9868 15.6021 -78.7742 15.0132 -76.4732 13.9759C-73.4082 12.5946 -67.8834 12.1715 -69.4904 8.6347C-73.3932 10.0581 -75.2866 12.9729 -80.7316 13.3348C-79.3894 10.6212 -78.0186 8.13926 -75.2451 5.99385C-73.0034 4.25616 -70.0692 3.23895 -66.1271 3.36827C-63.2641 3.46097 -61.7042 4.50721 -61.4342 5.91185C-61.0803 7.75955 -64.2211 6.39841 -65.2948 7.03744C-65.4812 7.14484 -65.5511 7.31686 -65.7543 7.55046C-63.7797 8.04874 -61.6458 8.40454 -59.8927 9.07606C-57.9428 9.82162 -58.4273 11.6459 -55.9967 12.2968C-55.9545 9.8105 -57.1505 7.48053 -58.9073 5.25597C-61.7362 1.67362 -67.8064 0.815314 -73.5835 3.09607C-75.9744 4.03827 -78.1758 5.25626 -78.9036 6.76482C-81.8935 12.9964 -89.2174 16.9688 -98.4623 20.4375C-102.551 21.9734 -105.397 21.8251 -108.501 20.5544C-118.852 16.3121 -130.173 15.6175 -142.366 17.2798C-154.648 18.9528 -165.059 22.6983 -175.191 26.7742C-179.848 28.6475 -179.706 28.5455 -182.742 25.7969C-185.446 23.343 -181.699 22.4553 -179.56 21.3034C-176.879 19.8596 -176.301 21.7761 -174.959 22.4409C-174.681 22.5798 -174.217 22.5912 -172.762 22.8668C-178.046 18.8304 -172.085 17.2793 -168.624 15.2594C-165.198 13.26 -161.504 11.4096 -157.971 9.46981C-157.261 9.08082 -156.061 8.60212 -156.904 8.00892C-157.899 7.31107 -159.063 7.88023 -160.005 8.27616C-160.591 8.528 -161.115 8.83985 -161.594 9.16645C-165.442 11.7744 -170.24 13.8153 -174.483 16.1844C-176.986 17.5813 -178.91 17.844 -182.024 16.5684C-187.534 14.3189 -190.323 14.6542 -195.061 17.4408L-196.941 160.928C-194.721 160.966 -192.5 161.054 -190.28 161.036C78.6957 158.854 347.68 156.668 616.655 154.477C618.875 154.459 621.094 154.335 623.314 154.262L623.394 154.165ZM-168.513 26.73C-169.733 28.0207 -170.908 29.3312 -172.199 30.6023C-172.757 31.1464 -172.856 32.075 -174.381 32.0118C-175.586 31.9611 -176.482 31.3885 -176.968 30.7672C-177.599 29.9756 -176.497 29.5279 -175.582 29.102C-164.817 24.0225 -153.232 19.8288 -139.246 18.2478C-129.082 17.0962 -119.413 17.5823 -110.86 21.1182C-109.115 21.8402 -105.865 22.3281 -106.673 23.9533C-107.611 25.8367 -111.223 25.7652 -113.984 26.186C-114.527 26.2711 -115.179 26.11 -115.749 26.16C-121.006 26.6263 -126.336 26.9016 -131.284 28.162C-126.722 28.8511 -122.511 26.8554 -117.27 27.7759C-120.747 30.0026 -124.679 31.159 -129.177 31.7755C-132.757 32.2634 -136.817 32.9822 -137.827 34.9368C-139.143 37.5091 -143.398 38.4059 -145.432 40.4344C-146.175 41.1766 -147.61 41.2286 -149.012 41.0484C-152.903 40.5506 -156.804 40.0679 -160.696 39.5651C-161.74 39.4324 -162.758 39.2087 -162.782 38.4777C-162.805 37.9031 -161.942 37.6389 -161.249 37.3156C-159.846 36.6487 -157.58 36.721 -156.085 35.2718C-160.779 35.9049 -164.362 37.1089 -168.371 37.5701C-171.623 37.9445 -172.825 37.0063 -172.39 35.6211C-171.86 33.9377 -171.768 32.162 -170.086 30.5801C-168.927 29.4866 -167.787 28.2873 -168.513 26.7351L-168.513 26.73ZM598.951 24.8389C598.976 21.3292 603.759 17.4026 608.45 16.3761C611.013 15.8158 612.656 16.11 612.403 17.8063C611.667 22.7337 609.512 27.5264 607.527 32.3329C606.915 33.8254 604.785 33.9032 602.609 33.8604C600.058 33.8105 599.15 32.7943 599.426 31.6575C600.047 29.1413 599.644 26.694 598.942 24.839L598.951 24.8389ZM-9.25266 44.5666C-11.9399 43.0505 -12.6381 42.7284 -14.0676 43.4763C-15.5947 44.2753 -18.0592 44.9408 -18.2446 46.2533C-18.489 48 -20.9344 48.8216 -22.7285 49.6833C-24.0253 50.309 -25.0099 48.7387 -26.1468 48.1832C-27.9462 47.3053 -29.7806 46.5084 -32.058 46.058C-33.1743 45.8401 -34.5408 45.5487 -34.0841 44.6979C-33.0563 42.7986 -32.4319 40.6404 -28.9628 39.6088C-23.7948 38.0742 -18.2649 37.172 -12.3809 37.0687C-10.3126 37.0318 -9.31069 37.427 -9.30114 38.6018C-9.29518 40.4322 -9.27139 42.2624 -9.25262 44.5717L-9.25266 44.5666ZM-68.0211 28.1521C-69.8993 27.4413 -71.804 27.8601 -73.6318 27.875C-75.1475 27.8873 -77.3674 29.0248 -77.9252 27.3149C-78.5196 25.4944 -80.4009 23.3111 -77.3807 21.905C-75.3643 20.9608 -71.874 20.3576 -69.2494 21.8389C-66.7681 23.2407 -64.8177 28.4286 -66.2461 29.3176C-66.4412 29.4402 -66.672 29.5782 -66.9302 29.6257C-69.4498 30.0899 -71.7879 30.9409 -74.5797 30.8325C-75.427 30.7991 -76.6117 30.9449 -76.8219 30.3163C-77.0781 29.5166 -75.7144 29.44 -74.7885 29.2711C-72.6072 28.8701 -70.0543 29.2124 -68.0121 28.1571L-68.0211 28.1521ZM-115.672 30.2538C-121.343 36.719 -129.378 40.9544 -141.988 41.8939C-135.532 36.4258 -125.99 33.3127 -115.672 30.2538ZM-47.799 29.1828C-47.5852 29.1559 -47.3625 29.1288 -47.1487 29.1019C-46.2749 32.3925 -45.3209 35.6775 -44.554 38.9741C-43.9441 41.6164 -45.459 42.8288 -49.9555 43.6015C-53.6418 44.2366 -55.1544 43.5278 -54.1458 41.4573C-52.1463 37.3466 -49.9324 33.2694 -47.8079 29.1778L-47.799 29.1828ZM110.502 17.8365C114.667 20.1978 116.917 22.7209 119.486 25.0801C120.483 25.9897 121.707 27.3664 118.797 28.0305C115.655 28.7519 110.636 27.8296 110.465 26.525C110.122 23.8149 109.708 21.0802 110.493 17.8366L110.502 17.8365ZM-68.485 47.8668C-69.7617 47.6704 -70.0567 47.5669 -70.324 47.5893C-73.5765 47.8476 -74.7092 46.7021 -74.6767 45.2194C-74.6209 43.3079 -71.9206 44.2339 -70.2982 44.1854C-68.6847 44.137 -67.0518 44.28 -65.4458 44.4132C-64.0271 44.5277 -62.8563 44.8712 -63.0265 45.8609C-63.2818 47.3656 -63.4028 48.9449 -65.7932 49.9476C-67.0461 50.4772 -68.1127 51.9885 -70.0199 51.0056C-71.8286 50.0773 -71.9372 48.7773 -68.485 47.8668ZM-65.3422 31.9223C-63.4093 34.9723 -67.648 41.1434 -71.8217 42.1506C-73.112 42.4636 -74.3253 42.3827 -74.8482 41.6659C-75.9756 40.0968 -77.1756 38.3618 -73.5553 37.2836C-69.8283 36.1692 -67.2917 34.5148 -65.3511 31.9223L-65.3422 31.9223ZM343.405 20.5372C343.188 20.1406 342.854 19.6643 343.538 19.3764C344.453 18.9857 345.197 19.4234 345.841 19.7359C349.744 21.6203 349.518 24.5316 351.25 26.953C351.827 27.7652 352.97 29.0115 350.11 29.3524C347.785 29.6284 346.477 28.7567 346.004 27.6108C345.03 25.2639 344.262 22.8952 343.405 20.5322L343.405 20.5372ZM-89.5703 32.7797C-88.7784 29.2789 -87.0457 26.3553 -85.4914 23.408C-85.228 22.9066 -84.6071 22.4982 -83.5816 22.505C-82.4581 22.511 -82.1511 22.9926 -82.0487 23.5212C-81.7416 25.097 -81.4257 26.6727 -81.1632 28.2488C-81.0506 28.9387 -81.2211 29.8982 -82.4602 29.9335C-85.6337 30.0349 -86.574 31.7217 -89.5703 32.7797ZM-22.6399 36.4512C-24.0314 36.3919 -25.9477 36.4781 -24.7625 35.3037C-23.2322 33.7936 -21.246 32.4261 -19.376 31.0293C-18.6138 30.4583 -17.5082 30.4494 -16.7281 30.9876C-15.0871 32.1239 -12.4833 33.2424 -12.7036 34.656C-12.8902 35.8375 -16.1568 35.4606 -18.0082 35.8539C-19.5036 36.1686 -21.1524 36.2677 -22.6399 36.4512ZM-98.2519 43.036C-101.035 41.7577 -103.57 41.4102 -105.811 43.2639C-105.962 43.3861 -106.449 44.9129 -107.68 43.7329C-108.471 42.9829 -111.149 42.5206 -110.175 41.6858C-108.263 40.0415 -105.653 38.6185 -102.145 37.9849C-101.522 37.8739 -100.648 37.8567 -100.305 38.3834C-99.3749 39.8029 -97.2872 41.0515 -98.2519 43.036ZM-188.294 16.2966C-185.557 16.2845 -180.264 18.0013 -180.854 18.9036C-181.779 20.3129 -183.839 21.3735 -186.214 22.0382C-187.38 22.3654 -192.016 19.0902 -191.98 18.0562C-191.937 16.8204 -190.729 16.261 -188.294 16.2966ZM313.749 24.9383C315.943 24.986 317.583 24.9575 319.198 25.0755C320.723 25.1841 322.295 25.5092 322.135 26.5896C321.898 28.1748 321.465 29.7566 320.925 31.3192C320.751 31.8349 320.036 32.713 318.844 31.9664C317.526 31.1451 315.232 30.8057 315.228 29.2224C315.217 27.8762 315.41 26.3921 313.74 24.9384L313.749 24.9383ZM-101.38 33.4001C-105.795 34.2277 -105.787 34.2226 -106.368 31.8624C-106.414 31.6661 -106.799 31.3969 -107.121 31.3491C-109.915 30.9281 -107.683 30.1939 -107.348 29.687C-106.74 28.7694 -105.676 29.1641 -104.453 29.3912C-101.943 29.8599 -102.071 31.7317 -99.2944 32.1528C-97.7946 32.3776 -95.9951 33.2757 -96.2535 34.3871C-96.5122 35.4734 -98.715 35.4156 -100.157 35.7601C-100.824 35.9219 -101.518 36.1292 -102.395 35.7733C-102.115 35.1155 -101.808 34.4121 -101.371 33.4001L-101.38 33.4001ZM365.715 40.3946C365.369 38.3804 364.925 36.4326 364.731 34.4777C364.633 33.5002 363.674 31.7331 366.297 31.9084C368.402 32.0476 370.172 33.6216 372.096 34.559C368.985 35.7592 372.085 36.4853 372.717 37.4029C373.159 38.0397 373.611 38.8025 372.491 39.2554C370.749 39.9553 370.776 38.8356 370.175 38.3766C368.712 37.2641 367.564 37.5104 366.851 38.7112C366.526 39.2534 366.674 39.8825 365.706 40.3997L365.715 40.3946ZM580.889 19.6861C579.851 22.5032 581.015 25.3125 579.931 28.0291C579.564 28.9397 581.289 30.509 578.356 30.6236C575.255 30.7446 575.516 28.9574 575.142 27.8209C574.758 26.6491 575.452 25.3627 576.612 24.4608C578.526 22.9678 579.574 21.3104 580.889 19.6912L580.889 19.6861ZM-100.934 23.478C-99.3603 21.8466 -95.3906 19.8881 -90.1257 18.2066C-89.183 17.9064 -88.1814 17.1671 -86.9993 17.7979C-86.1306 18.2649 -86.8655 18.9011 -87.1285 19.4479C-88.1369 21.5436 -94.6128 23.4267 -100.934 23.473L-100.934 23.478ZM-55.8062 49.9975C-54.9671 47.9233 -47.0272 44.0568 -44.4944 44.1118C-44.218 44.1197 -43.8434 44.1317 -43.6821 44.2313C-40.4029 46.1661 -47.2176 46.9476 -45.4184 48.9097C-44.8697 49.5052 -47.5239 49.8647 -48.0617 49.5211C-50.6968 47.8382 -52.9342 49.0111 -55.8152 49.9976L-55.8062 49.9975ZM-33.7181 48.033C-31.2089 49.5909 -28.7667 50.5745 -27.4969 52.1172C-26.3532 53.5097 -28.2765 53.838 -29.7703 54.3493C-31.7354 55.0208 -32.4987 54.3614 -32.8629 53.4315C-33.4914 51.8029 -34.0397 50.1635 -34.5435 48.5187C-34.8183 47.6234 -34.3161 46.863 -32.4494 47.2512C-29.2251 47.9208 -26.5059 48.9879 -24.6942 51.3885C-28.1992 50.1917 -28.6651 47.7045 -33.7182 48.0279L-33.7181 48.033ZM110.379 34.5028C110.302 31.6897 110.782 31.5194 115.26 32.8647C116.413 33.2083 117.665 33.5712 118.48 34.1142C119.153 34.5575 120.123 35.4674 119.065 35.8743C116.905 36.6987 114.399 37.6973 112.019 37.7217C109.914 37.7438 110.899 35.9659 110.409 35.0017C110.328 34.8461 110.398 34.669 110.387 34.5027L110.379 34.5028ZM82.6006 28.6524C81.3158 28.557 80.7128 28.9552 80.0197 29.2432C76.7405 30.6011 76.1508 30.4495 75.5078 28.1251C75.3241 27.4661 75.0959 26.8175 74.9389 26.1582C74.819 25.67 75.1555 25.3799 76.1092 25.3368C80.2004 25.1523 86.6324 29.9307 85.394 32.2452C85.1743 32.6503 84.9283 33.1011 84.0457 33.1083C82.8509 33.118 82.6858 32.5495 82.6551 32.0556C82.5835 30.9267 82.6188 29.7969 82.6095 28.6473L82.6006 28.6524ZM-91.8379 37.9213C-85.6927 41.4263 -85.5058 42.4836 -89.9883 44.9808C-91.8257 46.0042 -92.959 45.8974 -93.7461 44.497C-95.0218 42.2181 -92.9869 40.2703 -91.8379 37.9213Z" fill="#FD7702"/>
</svg>
