<svg width="307" height="236" viewBox="0 0 307 236" fill="none" xmlns="http://www.w3.org/2000/svg">
<path d="M263.151 220.013C262.568 218.915 263.257 217.91 263.366 216.857C264.336 207.305 261.591 199.284 252.604 194.017C249.861 192.406 247.063 190.738 244.058 189.696C239.405 188.075 236.404 184.641 233.214 181.464C230.02 178.294 229.891 174.289 231.24 170.248C232.227 167.295 233.797 164.594 235.689 162.085C238.24 158.712 241.027 155.503 243.484 152.066C248.647 144.849 253.086 137.24 254.792 128.542C256.784 118.378 255.174 109.014 246.811 101.605C240.576 96.0753 232.954 94.5207 224.683 94.7846C213.578 95.1395 203.592 99.0139 193.769 103.441C187.776 106.139 182.044 109.442 175.232 110.045C168.22 110.667 162.561 108.562 158.538 102.834C155.876 99.0393 153.966 94.9359 152.281 90.6844C147.988 79.848 145.065 68.5402 139.908 57.995C134.46 46.8545 124.183 40.3134 113.169 41.0065C103.52 41.6142 95.6199 45.9569 89.1878 52.2752C81.6538 59.6716 75.7596 68.3461 70.5506 77.4248C67.5494 82.656 64.6389 88.0157 59.7981 92.0076C53.9035 96.8704 47.3337 98.2623 40.5574 94.1997C34.7539 90.7154 29.4894 86.583 23.7648 83.0329C16.9864 78.8253 10.1298 75.2282 1.69864 75.3275C-11.3419 75.4805 -20.8431 82.1201 -29.2144 90.643C-32.6925 94.1811 -35.616 98.2178 -38.7873 102.028C-39.7074 104.118 -40.6336 106.205 -41.5369 108.268C-41.4442 108.41 -41.385 108.587 -41.2862 108.731C-41.2055 108.85 -40.9799 109.043 -40.9778 109.037C-40.138 108.338 -39.1167 107.745 -38.5091 106.89C-32.1212 97.8801 -23.8355 90.8377 -14.0516 85.348C-6.5438 81.1378 1.35204 79.1095 9.88761 82.2724C14.3201 83.9117 18.5437 85.9541 22.3124 88.8101C26.4759 91.961 30.5845 95.2249 35.0413 97.9678C42.6622 102.658 50.8377 104.317 59.2812 99.9185C64.394 97.2567 68.1402 93.0399 71.1885 88.4344C76.2404 80.8059 80.9762 72.9874 86.4501 65.6169C90.4231 60.2682 94.7496 55.2334 100.817 51.8777C113.891 44.6505 125.143 46.9293 132.111 58.3568C135.651 64.1614 138.449 70.3038 140.292 76.8188C142.818 85.7446 145.532 94.608 150.21 102.784C156.75 114.214 168.474 119.975 182.866 115.002C190.864 112.24 198.275 108.313 206.265 105.535C214.815 102.562 223.288 100.443 232.407 101.91C239.258 103.012 244.29 106.215 246.907 112.684C248.539 116.722 248.799 120.744 248.369 124.925C247.361 134.654 242.302 142.661 236.556 150.4C233.171 154.967 229.464 159.321 226.754 164.34C221.982 173.183 223.713 181.76 231.632 188.255C235.13 191.12 239.013 193.377 243.248 195.01C247.183 196.524 250.55 198.86 253.748 201.337C258.755 205.213 259.943 210.77 259.555 216.571C259.116 223.059 258.286 229.527 257.626 236C259.471 230.674 261.318 225.343 263.165 220.011L263.151 220.013Z" fill="#FF8B13"/>
<path d="M114.38 160.79C112.566 163.183 112.162 165.711 112.59 168.064C113.048 170.587 111.805 171.619 109.967 172.815C106.162 175.281 101.868 176.817 97.5329 177.725C82.0061 180.967 66.5626 180.65 51.3748 175.655C48.8891 174.839 46.3439 173.835 43.0078 174.079C44.3518 176.409 46.3023 177.129 48.0863 177.991C51.8208 179.805 55.8943 180.616 59.9142 181.625C77.9505 186.161 95.3267 184.171 112.114 176.8C113.94 176.001 115.04 175.672 116.479 177.345C118.947 180.213 122.206 181.109 127.07 180.1C118.376 175.655 115.504 168.79 114.38 160.784V160.79Z" fill="#FF8B13"/>
<path d="M100.52 149.673C100.455 147.564 98.2661 145.835 95.834 145.971C93.4969 146.107 91.9092 147.666 91.9389 149.803C91.9746 152.247 93.6277 153.772 96.2621 153.783C98.6348 153.795 100.591 151.907 100.52 149.667V149.673Z" fill="#FF8B13"/>
<path d="M60.3486 155.717C62.5548 155.586 64.1663 153.993 64.2139 151.89C64.2615 149.639 62.3526 147.819 60.0096 147.887C57.8331 147.95 56.2156 149.571 56.1859 151.72C56.1562 154.061 58.0234 155.853 60.3486 155.717Z" fill="#FF8B13"/>
</svg>
