<svg width="38" height="8" viewBox="0 0 38 8" fill="none" xmlns="http://www.w3.org/2000/svg">
<path d="M5.69373 0.84082V2.03465H2.11117C1.47143 2.03465 1.19419 2.36975 1.19419 2.85146C1.19419 3.27035 1.40745 3.66828 2.23912 3.66828H3.88114C5.77905 3.66828 6.22686 4.71549 6.22686 5.69986C6.22686 6.85178 5.58712 7.71047 4.00908 7.71047H0.106631V6.51667H4.05171C4.71278 6.51667 5.01136 6.16062 5.01136 5.65796C5.01136 5.21814 4.77676 4.79925 3.92377 4.79925H2.30309C0.447826 4.79925 0 3.77299 0 2.80957C0 1.67859 0.61843 0.84082 2.17514 0.84082H5.71508H5.69373Z" fill="#161616"/>
<path d="M8.27414 7.70774H6.93066L9.38301 1.61305C9.63891 0.963779 10.1081 0.733398 10.8544 0.733398C11.6008 0.733398 12.0486 0.984723 12.3045 1.61305L14.6716 7.70774H13.3068L11.1743 2.17851C11.1103 2.01096 11.0037 1.94813 10.8331 1.94813C10.6625 1.94813 10.5559 2.01096 10.4706 2.17851L8.2528 7.70774H8.27414Z" fill="#161616"/>
<path d="M16.5905 7.70774H15.2471L17.6994 1.61305C17.9553 0.963779 18.4245 0.733398 19.1709 0.733398C19.9172 0.733398 20.365 0.984723 20.6209 1.61305L22.988 7.70774H21.6232L19.4907 2.17851C19.4268 2.01096 19.3201 1.94813 19.1495 1.94813C18.9789 1.94813 18.8723 2.01096 18.787 2.17851L16.5692 7.70774H16.5905Z" fill="#161616"/>
<path d="M27.7861 0.836362C29.3641 0.836362 30.0252 1.79981 30.0252 2.8889C30.0252 3.74761 29.62 4.64818 28.5538 4.96234L30.1744 7.70601H28.8096L27.2103 5.04614H25.3977C25.2911 5.04614 25.2271 5.08803 25.2271 5.2137V7.68508H24.0115V4.96234C24.0115 4.18741 24.3528 3.87328 25.0991 3.87328H27.8287C28.5324 3.87328 28.8096 3.41249 28.8096 2.90984C28.8096 2.40718 28.5111 2.00922 27.8287 2.00922H23.9902V0.81543H27.7861V0.836362Z" fill="#161616"/>
<path d="M32.6268 0.84082V3.75204H33.3092C34.5034 3.75204 34.7166 3.64735 35.1005 2.89336L36.1667 0.84082H37.4889L36.4013 2.97712C36.0814 3.5845 35.7616 3.98245 35.1858 4.23378C35.8469 4.40133 36.1667 4.75736 36.5719 5.55323L37.7021 7.71047H36.3373L35.2711 5.67889C34.8873 4.94585 34.6313 4.84114 33.3305 4.84114H32.6481V7.71047H31.4326V0.84082H32.6481H32.6268Z" fill="#161616"/>
</svg>
