<svg width="210" height="319" viewBox="0 0 210 319" fill="none" xmlns="http://www.w3.org/2000/svg">
<g clip-path="url(#clip0_2439_1814)">
<path d="M178.358 0.0153997C176.903 0.0153997 175.442 0.00513324 173.981 0C175.437 0.420926 176.898 0.461992 178.358 0.0153997Z" fill="#FF8B13"/>
<path d="M138.452 252.047C134.379 248.269 126.412 247.617 121.572 252.396C124.211 252.155 127.075 251.708 129.945 251.678C134.364 251.637 138.113 255.107 138.391 259.475C138.596 262.694 137.882 265.717 135.5 268.16C133.17 270.552 130.475 272.426 127.6 274.094C123.043 276.738 118.188 278.755 113.441 280.994C99.8573 287.395 86.2533 293.75 72.6853 300.192C71.0498 300.967 69.9234 300.967 68.9205 299.34C67.5781 297.168 66.1071 295.079 64.7493 292.918C61.653 288 58.5876 283.057 55.5068 278.124C58.3202 286.419 62.1571 294.176 66.4877 301.706C67.0843 302.743 67.5163 303.883 68.2004 304.853C69.2702 306.367 68.5964 307.512 67.398 308.277C63.6075 310.7 59.9043 313.287 55.7022 315.022C54.0152 315.72 52.786 315.309 51.7779 313.928C51.1607 313.081 50.5641 312.209 50.0292 311.305C41.1828 296.316 32.3106 281.337 23.5259 266.312C20.8771 261.78 18.3621 257.16 15.991 252.478C14.5149 249.558 14.8801 248.29 17.1431 246.077C17.894 245.343 18.7169 244.666 19.581 244.075C27.3834 238.706 28.7926 237.304 34.872 247.191C38.8014 253.582 42.5612 260.081 47.3496 265.897L47.4679 265.953L47.3444 265.845C45.2717 258.53 40.9565 252.34 37.2173 245.867C35.7463 243.326 35.7258 243.48 38.4157 242.207C45.7294 238.742 51.6956 233.947 53.7324 225.637C55.3782 218.917 54.1593 212.573 51.0579 206.459C47.7096 199.863 42.448 194.966 36.9653 190.248C34.8051 188.39 32.4083 186.783 30.8088 184.35C28.3554 180.618 28.9984 177.205 32.6964 174.617C36.7956 171.753 41.3679 171.229 46.0586 172.502C53.6655 174.566 59.1945 179.545 63.7206 185.757C67.3723 190.767 69.8308 196.429 72.3665 202.034C73.0659 203.584 73.6266 205.211 75.0975 206.479C75.8484 204.78 75.3187 203.518 75.0307 202.209C73.1019 193.456 68.2673 186.29 62.6508 179.55C58.3922 174.438 53.0689 170.844 46.6141 169.217C40.3187 167.626 34.3216 168.437 29.1989 172.775C24.7191 176.568 24.1431 181.47 27.3679 186.403C28.7 188.441 30.4076 190.125 32.1923 191.737C33.8639 193.246 35.6177 194.673 37.2945 196.177C42.9675 201.259 47.7713 206.921 49.7669 214.518C51.0579 219.425 50.1938 223.881 47.8999 228.383C44.8602 234.337 39.0637 236.853 34.2393 240.605C29.7133 235.498 28.1754 235.631 23.0784 237.802C20.3474 238.963 17.7706 240.672 15.4355 242.525C10.4517 246.478 9.94765 249.47 13.0799 255.014C18.2386 264.146 23.4282 273.263 28.7 282.333C33.8279 291.157 39.0277 299.945 44.2996 308.682C45.9969 311.495 47.6684 314.334 49.9521 316.788C51.9528 318.938 54.0564 319.529 56.8029 318.502C61.7867 316.639 66.2408 313.892 70.4737 310.736C72.0064 309.596 73.0351 308.184 72.9168 306.182C72.8242 304.565 73.7654 303.821 75.113 303.22C78.6721 301.639 82.2055 300.002 85.7184 298.318C99.8161 291.573 113.904 284.808 127.991 278.037C132.388 275.922 136.251 273.099 139.306 269.274C143.431 264.105 143.025 256.262 138.463 252.037L138.452 252.047Z" fill="#FF8B13"/>
<path d="M185.168 132.966C187.601 128.829 190.178 124.763 192.338 120.487C194.946 115.328 194.149 112.711 189.35 109.4C185.739 106.91 181.753 105.118 177.536 103.897C174.913 103.137 172.269 103.332 170.515 105.586C168.916 107.639 167.635 107.156 166.041 105.837C165.351 105.267 164.518 104.867 163.793 104.338C154.345 97.4289 151.984 88.4201 156.88 77.8148C157.883 75.6383 159.123 73.5953 160.496 71.6036C163.623 67.0658 168.108 63.9602 172.069 60.2899C178.873 53.9812 177.86 46.3532 169.677 42.0156C162.049 37.9706 154.659 39.3874 147.844 43.6633C138.061 49.7976 132.62 59.1914 129.59 70.0995C129.4 70.7823 129.204 71.5368 129.662 72.2658C130.917 71.3828 131.683 70.1714 132.193 68.7495C133.257 65.7619 134.795 63.0003 136.415 60.295C140.504 53.4678 145.647 47.8213 153.27 44.6695C159.282 42.1798 164.75 43.0268 169.97 46.4661C173.853 49.0276 174.208 53.1906 170.824 56.3784C168.201 58.8475 165.377 61.1061 162.667 63.4879C158.773 66.9015 155.615 70.926 153.563 75.6588C147.957 88.5895 149.171 98.2348 160.249 106.371C160.733 106.725 161.18 107.141 161.607 107.557C163.099 109.015 165.706 109.651 166.257 111.576C166.812 113.511 164.863 115.405 164.415 117.454C164.328 117.849 164.472 118.029 164.868 117.967C167.553 115.631 169.78 112.808 171.744 109.795C173.231 107.516 175.098 106.956 177.541 107.885C180.483 109.009 183.559 109.887 186.331 111.33C190.78 113.64 191.294 115.195 188.98 119.563C185.683 125.785 182.19 131.914 178.6 137.971C171.719 149.598 164.708 161.148 157.765 172.734C156.376 175.054 155.152 177.482 153.63 179.71C151.598 182.682 149.479 183.318 146.229 181.901C144.038 180.947 141.888 179.787 139.938 178.406C135.87 175.521 135.484 173.18 137.994 168.853C141.991 161.974 145.992 155.096 149.958 148.197C150.472 147.298 150.832 146.292 151.125 145.296C151.218 144.988 150.94 144.347 150.662 144.213C150.348 144.059 149.711 144.157 149.438 144.403C148.893 144.891 148.456 145.517 148.055 146.138C144.12 152.165 140.021 158.099 136.364 164.294C134.955 166.687 133.705 166.897 131.339 166.106C123.213 163.401 115.112 160.634 107.078 157.662C99.6152 154.901 92.1523 152.129 84.9723 148.684C78.322 145.497 71.8878 142.037 66.7548 136.462C61.6424 130.913 62.1104 120.457 70.3499 118.08C70.8951 117.921 71.5277 117.854 71.9598 116.668C68.1795 115.939 65.5101 117.279 63.3705 119.912C59.8576 124.235 59.9554 129.019 61.7452 133.931C63.9311 139.937 68.7041 143.592 73.9142 146.713C85.4454 153.612 97.9899 158.289 110.524 162.95C116.717 165.254 122.976 167.385 129.199 169.613C131.092 170.29 132.753 171.045 132.517 173.663C132.368 175.326 133.268 176.886 134.461 178.098C137.989 181.681 142.021 184.427 146.995 185.705C150.508 186.609 153.146 185.567 155.271 182.738C156.711 180.818 158.166 178.924 159.385 176.84C167.949 162.2 176.584 147.606 185.179 132.992L185.168 132.966Z" fill="#FF8B13"/>
<path d="M121.869 209.138C120.429 200.761 113.666 196.757 105.056 198.605C95.3917 200.679 87.2654 205.822 80.1934 212.952C85.5475 211.243 90.053 208.276 94.7848 205.766C98.5291 203.779 102.443 202.203 106.697 201.988C110.585 201.793 114.35 202.701 116.541 206.243C118.747 209.811 117.837 213.43 115.713 216.849C114.355 219.04 112.658 220.919 110.832 222.711C109.844 223.681 108.949 224.872 109.906 226.273C110.724 227.469 112.077 227.089 113.229 226.812C116.15 226.104 119.051 225.175 122.09 225.488C128.766 226.171 134.512 229.784 132.572 238.798C132.295 240.102 131.667 241.478 132.094 243.028C134.321 242.176 135.175 240.626 135.782 238.906C137.51 234.03 135.149 227.823 130.577 224.774C127.064 222.428 123.119 221.776 118.84 221.679C118.912 219.651 119.966 218.666 120.465 217.444C121.55 214.77 122.368 212.023 121.869 209.138Z" fill="#FF8B13"/>
<path d="M82.3844 118.075C79.1904 115.359 76.449 112.407 74.8083 108.609C71.9333 101.936 75.1581 95.7552 82.2352 94.2153C84.1743 93.7943 86.0876 93.7173 88.0471 94.0305C89.3793 94.2461 90.7268 94.3744 92.0743 94.4873C92.6709 94.5387 93.2933 94.4155 93.6687 93.8713C94.2139 93.086 93.7613 92.4032 93.2573 91.8694C91.4057 89.8931 89.6621 87.8244 88.3763 85.4374C84.7452 78.718 88.366 71.4339 95.9421 70.1455C98.6577 69.6835 101.337 69.9453 103.971 70.6588C108.054 71.7625 111.825 73.5848 115.492 75.6535C117.081 76.5467 118.598 77.7376 120.748 77.7581C120.265 76.1514 119.143 75.597 118.151 74.981C112.303 71.357 106.512 68.1076 99.2698 67.2914C88.2426 66.0492 81.7878 76.1925 84.0508 83.0607C84.7966 85.3245 85.7995 87.4856 86.8899 90.2935C78.7481 91.1969 71.9847 93.3888 71.1258 102.48C70.5188 108.891 75.441 115.508 82.3792 118.075H82.3844Z" fill="#FF8B13"/>
<path d="M0 65.5208C14.8332 76.9011 29.1109 89.0618 47.7502 96.1713C33.3953 82.3167 16.4071 74.3294 0 65.5208Z" fill="#FF8B13"/>
<path d="M162.055 286.599C160.409 285.464 158.578 284.556 156.207 284.638C159.926 290.649 180.283 305.094 194.663 311.839C191.901 309.092 188.692 306.849 185.807 304.298C178.364 297.722 170.186 292.199 162.055 286.599Z" fill="#FF8B13"/>
<path d="M163.232 248.32C179.233 251.236 194.519 253.454 210 252.781C198.942 248.264 170.068 245.204 163.232 248.32Z" fill="#FF8B13"/>
<path d="M59.832 66.532C59.5028 66.2908 59.0914 66.0803 58.9422 65.7569C55.4911 58.2778 49.1648 53.2883 43.1832 48.114C40.1795 45.5165 36.8827 43.2374 34.1053 40.3422C32.6189 38.7971 30.9834 37.3957 28.9209 36.6001C34.2133 43.7199 40.1898 50.1518 46.4492 56.3374C50.4764 60.3157 54.7762 63.9089 59.8269 66.532H59.832Z" fill="#FF8B13"/>
<path d="M59.9452 66.6195C59.9092 67.2971 60.1766 67.6564 60.907 67.5383L61.0304 67.6461L60.9224 67.5229C61.0201 66.7889 60.7064 66.4809 59.9709 66.6092C59.9246 66.5836 59.8783 66.5579 59.832 66.5322C59.868 66.5579 59.9092 66.5887 59.94 66.6195H59.9452Z" fill="#FF8B13"/>
<path d="M10.9238 110.683C18.4639 115.503 25.9782 120.369 36.347 120.6C31.2141 115.646 22.347 112.233 10.9238 110.683Z" fill="#FF8B13"/>
<path d="M167.691 269.361C174.784 274.459 182.643 276.343 191.33 277.677C184.993 272.703 174.985 269.218 167.691 269.361Z" fill="#FF8B13"/>
<path d="M181.723 218.502C175.412 218.337 169.091 218.265 163.284 221.848C170.099 223.471 175.87 220.837 181.723 218.502Z" fill="#FF8B13"/>
<path d="M73.5488 36.1636C74.6495 41.4508 76.6657 46.2709 80.7751 50.6804C79.9522 44.577 77.2057 40.1367 73.5488 36.1636Z" fill="#FF8B13"/>
<path d="M137.942 297.512C138.57 303.118 142.072 306.105 145.585 309.37C144.022 302.502 142.546 300.161 137.942 297.512Z" fill="#FF8B13"/>
<path d="M177.813 122.448C179.253 122.377 179.886 121.427 179.927 119.979C179.618 118.675 178.775 117.87 177.376 118.142C176.049 118.398 175.272 119.363 175.493 120.76C175.689 121.986 176.676 122.5 177.808 122.443L177.813 122.448Z" fill="#FF8B13"/>
<path d="M24.5343 252.643C24.5394 253.823 25.3829 254.485 26.571 254.444C27.7385 254.403 28.4329 253.726 28.6232 252.55C28.5357 251.39 27.934 250.579 26.7613 250.507C25.3572 250.425 24.524 251.292 24.5343 252.643Z" fill="#FF8B13"/>
</g>
<defs>
<clipPath id="clip0_2439_1814">
<rect width="210" height="319" fill="white"/>
</clipPath>
</defs>
</svg>

