<svg width="34" height="34" viewBox="0 0 34 34" fill="none" xmlns="http://www.w3.org/2000/svg">
<path d="M26.9876 6.95559C25.6888 5.64365 24.1418 4.60345 22.4368 3.89566C20.7318 3.18787 18.9029 2.82666 17.0568 2.83309C9.3218 2.83309 3.01763 9.13726 3.01763 16.8723C3.01763 19.3514 3.6693 21.7598 4.88763 23.8848L2.9043 31.1664L10.3418 29.2114C12.396 30.3306 14.7051 30.9256 17.0568 30.9256C24.7918 30.9256 31.096 24.6214 31.096 16.8864C31.096 13.1323 29.6368 9.60476 26.9876 6.95559ZM17.0568 28.5456C14.9601 28.5456 12.906 27.9789 11.1068 26.9164L10.6818 26.6614L6.2618 27.8231L7.43763 23.5164L7.1543 23.0773C5.98944 21.2171 5.37091 19.067 5.3693 16.8723C5.3693 10.4406 10.611 5.19893 17.0426 5.19893C20.1593 5.19893 23.0918 6.41726 25.2876 8.62726C26.3749 9.70954 27.2365 10.9969 27.8226 12.4146C28.4087 13.8324 28.7075 15.3523 28.7018 16.8864C28.7301 23.3181 23.4885 28.5456 17.0568 28.5456ZM23.4601 19.8189C23.106 19.6489 21.3776 18.7989 21.066 18.6714C20.7401 18.5581 20.5135 18.5014 20.2726 18.8414C20.0318 19.1956 19.366 19.9889 19.1676 20.2156C18.9693 20.4564 18.7568 20.4848 18.4026 20.3006C18.0485 20.1306 16.9151 19.7481 15.5835 18.5581C14.5351 17.6231 13.841 16.4756 13.6285 16.1214C13.4301 15.7673 13.6001 15.5831 13.7843 15.3989C13.9401 15.2431 14.1385 14.9881 14.3085 14.7898C14.4785 14.5914 14.5493 14.4356 14.6626 14.2089C14.776 13.9681 14.7193 13.7698 14.6343 13.5998C14.5493 13.4298 13.841 11.7014 13.5576 10.9931C13.2743 10.3131 12.9768 10.3981 12.7643 10.3839H12.0843C11.8435 10.3839 11.4751 10.4689 11.1493 10.8231C10.8376 11.1773 9.93096 12.0273 9.93096 13.7556C9.93096 15.4839 11.1918 17.1556 11.3618 17.3823C11.5318 17.6231 13.841 21.1648 17.3543 22.6806C18.1901 23.0489 18.8418 23.2614 19.3518 23.4173C20.1876 23.6864 20.9526 23.6439 21.5618 23.5589C22.2418 23.4598 23.6443 22.7089 23.9276 21.8873C24.2251 21.0656 24.2251 20.3714 24.126 20.2156C24.0268 20.0598 23.8143 19.9889 23.4601 19.8189Z" fill="#2C3D68"/>
</svg>
