<svg width="204" height="100" viewBox="0 0 102 50" fill="none" xmlns="http://www.w3.org/2000/svg">
<path d="M82.3905 25.785C82.9289 25.6054 83.4601 25.418 83.9831 25.239L84.4361 23.093C83.9363 24.1542 83.2419 25.0599 82.391 25.7855L82.3905 25.785ZM101.618 15.9824L101.438 16.0138L100.813 16.1229C99.2522 16.5207 96.0592 17.3482 92.0158 18.3939L91.9767 18.5658L91.1181 22.6242C97.777 20.0099 102.211 17.6997 101.992 16.5758C101.953 16.3653 101.828 16.162 101.618 15.9824ZM86.317 19.8766L86.2856 20.0325L85.2787 24.7855C86.8637 24.2313 88.3858 23.6776 89.8142 23.131L90.712 18.8931L90.7511 18.7212C89.3458 19.0881 87.8628 19.4705 86.317 19.876V19.8766ZM69.8691 24.2941C69.4944 24.3955 69.1196 24.4891 68.7526 24.5905C67.7144 26.5651 65.1694 27.8213 61.8673 27.8213C60.6339 27.8213 59.5097 27.6571 58.526 27.3376H58.5183C58.4946 27.3376 58.4792 27.3298 58.456 27.3221H58.4483C56.0284 28.0009 54.1239 28.5629 52.9837 28.9452C52.89 28.9766 52.804 28.9998 52.7263 29.0312C52.5703 29.078 52.4298 29.1249 52.3124 29.1717C52.2893 29.1794 52.2733 29.1871 52.2502 29.1948C52.2188 29.2025 52.1879 29.2185 52.1565 29.2339C52.1251 29.2417 52.1019 29.2494 52.0782 29.2653C52.0237 29.2808 51.9845 29.3045 51.9454 29.3199C51.8594 29.359 51.8203 29.3899 51.8126 29.4136C51.8049 29.4058 51.7895 29.3981 51.758 29.3899C51.7266 29.3821 51.6798 29.3821 51.6175 29.3744C49.1585 29.1794 24.2955 31.2477 9.93954 32.473C9.5648 32.5044 9.19777 32.5352 8.83901 32.5667C6.38776 32.7771 4.29581 32.9567 2.75 33.0895L0.322442 33.511L0.150502 33.5424C0.0176885 33.7765 -0.0291543 34.0107 0.0176885 34.2212C0.236472 35.3842 3.88966 36.0944 9.39286 36.3985C9.73619 36.4217 10.0878 36.4376 10.4465 36.4531H10.4543C21.68 36.9528 39.65 35.9148 52.5692 33.6746C59.6651 32.4493 68.1508 30.2565 76.0661 27.8213C73.1702 27.6962 70.9294 26.3618 69.868 24.2935L69.8691 24.2941Z" fill="#743B19"/>
<path d="M10.2112 31.4043C10.7133 35.3227 10.1341 39.6361 8.3882 43.2041C7.54558 44.9462 6.36404 46.5742 4.97032 47.929C4.69423 48.1797 4.26878 48.588 3.9734 48.815L3.45207 49.2375L0.84375 44.9693C1.10497 44.8437 1.46869 44.6911 1.71558 44.5517L2.14488 44.3214C2.34492 44.2046 2.57032 44.0586 2.77092 43.9374C4.56197 42.76 6.01354 41.1253 7.09864 39.2708C7.74342 38.1716 8.2653 37.0042 8.68303 35.7937C9.16193 34.3883 9.52565 32.9101 9.68546 31.428L10.2107 31.4048L10.2112 31.4043Z" fill="#743B19"/>
<path d="M7.34942 29.7062C9.64471 32.2378 11.4661 35.3358 12.2822 38.6784C12.6923 40.3842 12.8074 42.1742 12.5457 43.9175C12.3732 45.0959 12.0304 46.2397 11.5427 47.3345L7.78974 45.2243C9.32784 43.2056 9.85027 40.6024 9.59897 38.025C9.53615 37.3402 9.42593 36.657 9.27603 35.9815C8.97018 34.6019 8.5023 33.2466 7.9209 31.948C7.62607 31.2957 7.30147 30.6439 6.93555 30.0296L7.34942 29.7051V29.7062Z" fill="#F58720"/>
<path d="M58.5191 27.3369C56.0679 28.0157 54.1319 28.5777 52.9845 28.9446C52.8908 28.976 52.8048 28.9991 52.7266 29.0305C52.5701 29.0774 52.4295 29.1242 52.3127 29.171C52.2896 29.1788 52.2736 29.1865 52.2504 29.1947C52.219 29.2024 52.1882 29.2179 52.1568 29.2338C52.1253 29.2416 52.1016 29.2493 52.0785 29.2652C52.0239 29.2807 51.9848 29.3044 51.9457 29.3198C51.8597 29.3589 51.8206 29.3903 51.8129 29.4135C51.8046 29.4057 51.7892 29.398 51.7578 29.3903C51.7263 29.3826 51.6795 29.3826 51.6172 29.3749C49.1583 29.203 24.2715 31.3572 9.93156 32.6371C9.58767 32.6685 9.25206 32.6916 8.92471 32.723C6.44976 32.9418 4.34238 33.1368 2.78114 33.2773L0.181641 33.7302C0.228483 33.6596 0.267611 33.582 0.322169 33.5114C0.32768 33.5063 0.333007 33.5012 0.338151 33.496C0.345866 33.4883 0.361297 33.4723 0.369563 33.4569C0.400424 33.4255 0.424121 33.3946 0.455533 33.3632V33.3555L1.88396 32.2393L10.5179 25.9568C11.8758 27.1507 13.9132 27.8223 16.4113 27.8223C20.7594 27.8223 23.7959 25.6372 23.7959 22.5073C23.7959 22.4213 23.7959 22.3354 23.7882 22.2577C24.2015 25.5904 27.0821 27.8377 31.0791 27.8377C34.6232 27.8377 37.5038 26.0973 38.9482 23.1629L38.0268 27.4945H44.6542L46.4496 19.0346C46.8007 18.7927 47.2305 18.6445 47.6439 18.6445C47.9877 18.6445 48.2528 18.7228 48.3542 18.8473C48.4556 18.9646 48.4711 19.2374 48.4088 19.5497L46.707 27.4945H53.3344L54.2636 23.132C54.7474 25.1458 56.2464 26.613 58.448 27.3231H58.4557C58.4789 27.3309 58.4949 27.3386 58.518 27.3386L58.5191 27.3369Z" fill="#F58720"/>
<path d="M101.595 16.1236C101.587 16.1159 101.58 16.1082 101.564 16.1005C101.525 16.0691 101.478 16.0382 101.439 16.0145C101.384 15.9831 101.33 15.9523 101.275 15.9209L101.267 15.9132L99.5264 15.3512L78.1997 9.20918L69.277 6.64174L46.1934 0L27.2006 13.8218L23.6328 16.4206C23.9998 16.9903 24.2572 17.6305 24.3823 18.3324C25.6939 15.2967 28.7773 13.3534 32.5241 13.3534C36.6303 13.3534 39.55 15.7027 39.8151 19.1131L40.9707 13.6967H47.5673L47.5441 13.7903C48.2391 13.5562 48.9803 13.4311 49.7375 13.4311C51.5329 13.4311 53.0628 14.1022 54.0542 15.3198C54.6009 15.9986 54.9365 16.7947 55.061 17.6613C55.5917 15.0939 58.3395 13.3689 62.0946 13.3689C66.3645 13.3689 69.2841 15.2652 69.8385 18.3401C71.1424 15.2967 74.2335 13.3529 77.9804 13.3529C82.102 13.3529 85.0371 15.7176 85.2713 19.1594L86.4264 13.6961H93.007L92.0156 18.3941L91.9764 18.566C96.0589 17.528 99.2834 16.7087 100.852 16.3104L101.656 16.1699C101.633 16.1545 101.617 16.1385 101.594 16.1231L101.595 16.1236Z" fill="#F58720"/>
<path d="M22.634 22.5055C22.634 25.2526 19.5506 26.6498 16.4127 26.6498C14.4376 26.6498 12.6967 26.1815 11.4947 25.2372C10.6659 24.587 10.0961 23.7028 9.8894 22.5948C9.84256 22.3436 10.052 22.1155 10.3077 22.1155H13.3613C13.558 22.1155 13.7112 22.2615 13.757 22.4532C13.8336 22.7772 13.9785 23.0598 14.1719 23.294C14.6795 23.9182 15.5535 24.2306 16.4904 24.2306C17.5986 24.2306 18.5823 23.8796 18.5823 23.138C18.5823 22.4747 17.4741 22.2014 16.0848 21.905C16.0225 21.8896 15.9597 21.8819 15.8974 21.8659C13.6181 21.413 10.683 20.8593 10.683 18.58C10.683 15.8952 13.5553 14.5371 16.6392 14.5371C19.3015 14.5371 21.6117 15.3724 22.6813 17.1045C22.9293 17.4935 23.1101 17.9321 23.2143 18.4191C23.2683 18.6726 23.0561 18.9073 22.7965 18.9073H19.7688C19.5804 18.9073 19.4271 18.7772 19.3654 18.5993C18.9934 17.5211 17.9309 17.0032 16.5929 17.0032C15.6092 17.0032 14.7037 17.3541 14.7037 17.9866C14.7037 18.6891 16.0385 18.9541 17.5997 19.2588C18.1304 19.3679 18.6848 19.4775 19.2232 19.618C21.0027 20.0709 22.6345 20.8042 22.6345 22.5055H22.634Z" fill="white"/>
<path d="M19.2221 19.6199C18.6837 19.4795 18.1293 19.3704 17.5986 19.2607C16.0374 18.9566 14.7026 18.691 14.7026 17.9886C14.7026 17.3566 15.6081 17.0051 16.5918 17.0051C17.9298 17.0051 18.9923 17.523 19.3649 18.6012C19.4266 18.7792 19.5798 18.9092 19.7683 18.9092H22.796C23.0555 18.9092 23.2677 18.6745 23.2137 18.4211C23.1095 17.934 22.9288 17.4955 22.6813 17.1065C21.6117 15.3738 19.3015 14.5391 16.6392 14.5391C13.5558 14.5391 10.683 15.8972 10.683 18.582C10.683 20.8607 13.6181 21.415 15.8974 21.8678C15.9597 21.8833 16.0225 21.891 16.0848 21.907C17.4741 22.2034 18.5829 22.4766 18.5829 23.14C18.5829 23.8816 17.5992 24.2325 16.4909 24.2325C15.5541 24.2325 14.68 23.9201 14.1725 23.2959C13.9791 23.0618 13.8341 22.7797 13.7575 22.4552C13.7123 22.2634 13.5591 22.1174 13.3618 22.1174H10.3077C10.052 22.1174 9.84256 22.3455 9.8894 22.5967C10.0961 23.7047 10.6664 24.589 11.4947 25.2391C12.6967 26.1835 14.4376 26.6518 16.4127 26.6518C19.5506 26.6518 22.6345 25.2545 22.6345 22.5075C22.6345 20.8062 21.0033 20.0723 19.2232 19.6199H19.2221Z" fill="#2C3D68"/>
<path d="M38.1457 21.0875C38.3496 21.0875 38.5276 20.9415 38.5612 20.7404C38.6246 20.3635 38.6615 20.0087 38.6615 19.612C38.6615 16.5135 36.132 14.5234 32.5256 14.5234C28.7242 14.5234 25.7263 16.7162 25.0313 20.1663C24.9454 20.5955 24.9062 21.0247 24.9062 21.4148C24.9062 24.5601 27.3729 26.667 31.0812 26.667C34.1536 26.667 36.6346 25.2345 37.8988 22.6505C38.0382 22.3657 37.8398 22.0313 37.5224 22.0313H34.4434C34.2864 22.0313 34.1464 22.1255 34.0731 22.2638C33.4515 23.4351 32.5064 23.9591 31.3546 23.9591C29.8325 23.9591 28.911 23.1007 28.911 21.5398C28.911 21.3993 28.911 21.2357 28.9265 21.0869H38.1451L38.1457 21.0875ZM32.3151 17.1465C33.4845 17.1465 34.4335 17.7289 34.714 18.6727C34.7923 18.936 34.5763 19.1994 34.3013 19.1994H30.1648C29.8275 19.1994 29.6203 18.8154 29.8099 18.5371C30.4442 17.6071 31.3502 17.1465 32.3146 17.1465H32.3151Z" fill="white"/>
<path d="M38.1457 21.0875C38.3496 21.0875 38.5276 20.9415 38.5612 20.7404C38.6246 20.3635 38.6615 20.0087 38.6615 19.612C38.6615 16.5135 36.132 14.5234 32.5256 14.5234C28.7242 14.5234 25.7263 16.7162 25.0313 20.1663C24.9454 20.5955 24.9062 21.0247 24.9062 21.4148C24.9062 24.5601 27.3729 26.667 31.0812 26.667C34.1536 26.667 36.6346 25.2345 37.8988 22.6505C38.0382 22.3657 37.8398 22.0313 37.5224 22.0313H34.4434C34.2864 22.0313 34.1464 22.1255 34.0731 22.2638C33.4515 23.4351 32.5064 23.9591 31.3546 23.9591C29.8325 23.9591 28.911 23.1007 28.911 21.5398C28.911 21.3993 28.911 21.2357 28.9265 21.0869H38.1451L38.1457 21.0875ZM32.3151 17.1465C33.4845 17.1465 34.4335 17.7289 34.714 18.6727C34.7923 18.936 34.5763 19.1994 34.3013 19.1994H30.1648C29.8275 19.1994 29.6203 18.8154 29.8099 18.5371C30.4442 17.6071 31.3502 17.1465 32.3146 17.1465H32.3151Z" fill="#2C3D68"/>
<path d="M53.8431 19.4463L52.4615 25.9873C52.4202 26.1823 52.2482 26.3222 52.0488 26.3222H48.6821C48.4132 26.3222 48.2132 26.0749 48.2694 25.8121L49.5573 19.7979C49.8383 18.3775 49.1203 17.4723 47.6444 17.4723C46.836 17.4723 46.0551 17.8045 45.4913 18.3059C45.423 18.3665 45.3783 18.4497 45.3596 18.5389L43.7736 25.9884C43.7322 26.1834 43.5597 26.3222 43.3608 26.3222H40.0002C39.7319 26.3222 39.5318 26.0749 39.5875 25.8126L41.8436 15.1996C41.885 15.0046 42.0575 14.8652 42.2564 14.8652H45.6098C45.8782 14.8652 46.0782 15.112 46.0226 15.3742L45.8567 16.1605C46.9032 15.177 48.238 14.5996 49.7364 14.5996C52.6555 14.5996 54.4201 16.7379 53.8426 19.4463H53.8431Z" fill="white"/>
<path d="M49.7364 14.6021C48.2374 14.6021 46.9027 15.1795 45.8567 16.163L46.0226 15.3762C46.0777 15.1139 45.8776 14.8671 45.6098 14.8671H42.2564C42.0569 14.8671 41.885 15.0065 41.8436 15.2016L39.5875 25.8146C39.5318 26.0768 39.7319 26.3242 40.0002 26.3242H43.3608C43.5603 26.3242 43.7322 26.1848 43.7736 25.9903L45.3591 18.5409C45.3783 18.4516 45.4224 18.3684 45.4908 18.3078C46.0551 17.8065 46.836 17.4742 47.6444 17.4742C49.1197 17.4742 49.8378 18.3794 49.5567 19.7998L48.2688 25.814C48.2126 26.0768 48.4126 26.3242 48.6816 26.3242H52.0482C52.2477 26.3242 52.4202 26.1848 52.461 25.9892L53.8426 19.4483C54.4201 16.7404 52.6561 14.6016 49.7364 14.6016V14.6021Z" fill="#2C3D68"/>
<path d="M68.0901 22.5061C68.0901 23.5127 67.6762 24.3402 66.9967 24.9799C66.9576 25.019 66.919 25.0504 66.8799 25.089C65.6934 26.127 63.7966 26.6498 61.8683 26.6498C61.6186 26.6498 61.3685 26.6421 61.1265 26.6261C61.0797 26.6261 61.0406 26.6184 60.9937 26.6107H60.986C58.0702 26.398 55.8046 25.0658 55.3445 22.5959C55.2976 22.3441 55.5076 22.1155 55.7638 22.1155H58.8163C59.0136 22.1155 59.1679 22.2615 59.2131 22.4538C59.4936 23.64 60.6515 24.2306 61.9537 24.2306C63.062 24.2306 64.0462 23.8796 64.0462 23.138C64.0462 22.4433 62.836 22.1783 61.353 21.8659C59.0737 21.413 56.138 20.8593 56.138 18.58C56.138 15.8952 59.0191 14.5371 62.0948 14.5371C65.3451 14.5371 68.0736 15.7861 68.6583 18.3745C68.7195 18.645 68.526 18.9073 68.2483 18.9073H65.2244C65.036 18.9073 64.8828 18.7772 64.821 18.5993C64.4485 17.5211 63.3866 17.0032 62.0557 17.0032C61.0648 17.0032 60.1665 17.3541 60.1665 17.9866C60.1665 18.6891 61.5013 18.9541 63.0625 19.2588C65.3187 19.7117 68.0901 20.2891 68.0901 22.5055V22.5061Z" fill="#2C3D68"/>
<path d="M77.9827 14.5234C74.1812 14.5234 71.1833 16.7162 70.4884 20.1663C70.4101 20.5955 70.3633 21.0247 70.3633 21.4148C70.3633 22.3514 70.5821 23.1943 70.9877 23.9122C70.9954 23.9436 71.0114 23.9668 71.0268 23.9905C71.9945 25.6527 73.9696 26.6675 76.546 26.6675C79.6117 26.6675 82.0982 25.2351 83.3569 22.6505C83.4958 22.3657 83.2974 22.0318 82.9805 22.0318H79.8999C79.7429 22.0318 79.6029 22.126 79.5296 22.2649C78.9091 23.4356 77.9706 23.9596 76.8111 23.9596C75.8742 23.9596 75.1638 23.6318 74.75 23.0153C74.7345 22.9921 74.7186 22.9607 74.6954 22.9293C74.4849 22.5624 74.3675 22.0941 74.3675 21.5404C74.3675 21.3999 74.3675 21.2362 74.3912 21.0875H83.9538C83.9852 20.9233 84.016 20.7674 84.0397 20.6115C84.0474 20.5646 84.0552 20.5178 84.0552 20.471C84.0943 20.19 84.1174 19.909 84.1174 19.6126C84.1174 16.514 81.5962 14.524 77.9816 14.524L77.9827 14.5234ZM75.6229 19.1983C75.2856 19.1983 75.0779 18.8137 75.2685 18.5355C75.9045 17.606 76.816 17.1454 77.7799 17.1454C78.9487 17.1454 79.8917 17.7272 80.176 18.6699C80.2554 18.9338 80.0393 19.1977 79.7638 19.1977H75.6229V19.1983Z" fill="white"/>
<path d="M77.9827 14.5234C74.1812 14.5234 71.1833 16.7162 70.4884 20.1663C70.4101 20.5955 70.3633 21.0247 70.3633 21.4148C70.3633 22.3514 70.5821 23.1943 70.9877 23.9122C70.9954 23.9436 71.0114 23.9668 71.0268 23.9905C71.9945 25.6527 73.9696 26.6675 76.546 26.6675C79.6117 26.6675 82.0982 25.2351 83.3569 22.6505C83.4958 22.3657 83.2974 22.0318 82.9805 22.0318H79.8999C79.7429 22.0318 79.6029 22.126 79.5296 22.2649C78.9091 23.4356 77.9706 23.9596 76.8111 23.9596C75.8742 23.9596 75.1638 23.6318 74.75 23.0153C74.7345 22.9921 74.7186 22.9607 74.6954 22.9293C74.4849 22.5624 74.3675 22.0941 74.3675 21.5404C74.3675 21.3999 74.3675 21.2362 74.3912 21.0875H83.9538C83.9852 20.9233 84.016 20.7674 84.0397 20.6115C84.0474 20.5646 84.0552 20.5178 84.0552 20.471C84.0943 20.19 84.1174 19.909 84.1174 19.6126C84.1174 16.514 81.5962 14.524 77.9816 14.524L77.9827 14.5234ZM75.6229 19.1983C75.2856 19.1983 75.0779 18.8137 75.2685 18.5355C75.9045 17.606 76.816 17.1454 77.7799 17.1454C78.9487 17.1454 79.8917 17.7272 80.176 18.6699C80.2554 18.9338 80.0393 19.1977 79.7638 19.1977H75.6229V19.1983Z" fill="#2C3D68"/>
<path d="M91.0435 14.8691C91.3113 14.8691 91.5119 15.116 91.4562 15.3782L90.7514 18.7247L90.7123 18.8966L89.8145 23.1345L89.2139 25.9912C89.1725 26.1863 89.0006 26.3262 88.8011 26.3262H85.473C85.2047 26.3262 85.0041 26.0788 85.0603 25.816L85.2796 24.7885L86.2865 20.0354L86.3179 19.8795L87.3087 15.2036C87.3501 15.0085 87.522 14.8691 87.7215 14.8691H91.0435Z" fill="white"/>
<path d="M91.0435 14.8691C91.3113 14.8691 91.5119 15.116 91.4562 15.3782L90.7514 18.7247L90.7123 18.8966L89.8145 23.1345L89.2139 25.9912C89.1725 26.1863 89.0006 26.3262 88.8011 26.3262H85.473C85.2047 26.3262 85.0041 26.0788 85.0603 25.816L85.2796 24.7885L86.2865 20.0354L86.3179 19.8795L87.3087 15.2036C87.3501 15.0085 87.522 14.8691 87.7215 14.8691H91.0435Z" fill="#2C3D68"/>
<path d="M94.2137 10.4472H93.877V10.2461H94.7863V10.4472H94.4528V11.5706H94.2137V10.4472ZM94.9725 10.2461H95.3252L95.5076 11.1651L95.69 10.2461H96.0427V11.5706H95.8251L95.8317 10.4786L95.6179 11.5706H95.3941L95.177 10.4885L95.1836 11.5706H94.9725V10.2461Z" fill="#2C3D68"/>
</svg>
