<svg width="24" height="24" viewBox="0 0 24 24" fill="none" xmlns="http://www.w3.org/2000/svg">
<path d="M19.86 17.0127V10.3685C19.86 6.75247 19.86 4.94398 18.7361 3.8211C17.6123 2.69822 15.8048 2.69727 12.1887 2.69727H11.2298C7.6138 2.69727 5.80531 2.69727 4.68243 3.8211C3.55955 4.94494 3.55859 6.75247 3.55859 10.3685V19.4781" stroke="white" stroke-width="2" stroke-linecap="round" stroke-linejoin="round"/>
<path d="M19.86 17.0801H5.95585C5.32006 17.0801 4.71031 17.3326 4.26074 17.7822C3.81116 18.2318 3.55859 18.8415 3.55859 19.4773C3.55859 20.1131 3.81116 20.7229 4.26074 21.1725C4.71031 21.622 5.32006 21.8746 5.95585 21.8746H19.86" stroke="white" stroke-width="2" stroke-linecap="round" stroke-linejoin="round"/>
<path d="M19.8615 17.0802C19.2257 17.0802 18.6159 17.3328 18.1663 17.7823C17.7168 18.2319 17.4642 18.8417 17.4642 19.4774C17.4642 20.1132 17.7168 20.723 18.1663 21.1726C18.6159 21.6221 19.2257 21.8747 19.8615 21.8747M14.5491 10.2125C14.4293 10.7284 13.8568 11.0918 12.7128 11.8196C11.6063 12.5235 11.0539 12.8754 10.608 12.7344C10.4194 12.6732 10.2511 12.5618 10.1209 12.4122C9.79297 12.0421 9.79297 11.3239 9.79297 9.88841C9.79297 8.45293 9.79297 7.73471 10.12 7.36553C10.2561 7.2121 10.4239 7.10087 10.608 7.04238C11.0539 6.90142 11.6063 7.25334 12.7128 7.95717C13.8568 8.68498 14.4293 9.04841 14.5501 9.5643C14.6 9.77621 14.6 10.0006 14.5501 10.2125" stroke="white" stroke-width="2" stroke-linecap="round" stroke-linejoin="round"/>
</svg>
