<svg width="27" height="24" viewBox="0 0 27 24" fill="none" xmlns="http://www.w3.org/2000/svg">
<path d="M16.5914 13.2453C19.2393 13.2453 21.3859 11.0987 21.3859 8.45077C21.3859 5.80283 19.2393 3.65625 16.5914 3.65625C13.9435 3.65625 11.7969 5.80283 11.7969 8.45077C11.7969 11.0987 13.9435 13.2453 16.5914 13.2453Z" stroke="white" stroke-width="2" stroke-linecap="round" stroke-linejoin="round"/>
<path d="M24.2643 20.9154C24.2643 18.8808 23.4561 16.9296 22.0175 15.491C20.5789 14.0524 18.6276 13.2441 16.5931 13.2441C14.5586 13.2441 12.6074 14.0524 11.1687 15.491C9.73009 16.9296 8.92188 18.8808 8.92188 20.9154" stroke="white" stroke-width="2" stroke-linecap="round" stroke-linejoin="round"/>
<path d="M5.375 7.68359V14.0124" stroke="white" stroke-width="2" stroke-linecap="round"/>
<path d="M8.53906 10.8477L2.2103 10.8477" stroke="white" stroke-width="2" stroke-linecap="round"/>
</svg>
