<svg width="48" height="32" viewBox="0 0 48 32" fill="none" xmlns="http://www.w3.org/2000/svg">
<path d="M1.17969 19.5886L1.23529 19.5199C1.56057 19.1176 2.0111 19.0388 2.40559 18.9988C5.02162 18.7326 7.63755 18.4614 10.2533 18.1902C11.1996 18.0921 12.1459 17.994 13.0922 17.8962L13.0923 17.8961C13.3883 17.8657 13.6815 17.8378 13.9735 17.8101C14.4098 17.7686 14.8436 17.7273 15.2804 17.6782L1.17969 19.5886ZM1.17969 19.5886L1.17969 19.6771M1.17969 19.5886L1.17969 19.6771M1.17969 19.6771L1.17969 19.6781L1.17969 19.6791L1.17969 19.6801L1.17969 19.6811L1.17969 19.6821L1.17969 19.6832L1.17969 19.6842L1.17969 19.6852L1.17969 19.6862L1.17969 19.6872L1.17969 19.6882L1.17969 19.6893L1.17969 19.6903L1.17969 19.6913L1.17969 19.6923L1.17969 19.6933L1.17969 19.6943L1.17969 19.6953L1.17969 19.6964L1.17969 19.6974L1.17969 19.6984L1.17969 19.6994L1.17969 19.7004L1.17969 19.7014L1.17969 19.7024L1.17969 19.7035L1.17969 19.7045L1.17969 19.7055L1.17969 19.7065L1.17969 19.7075L1.17969 19.7085L1.17969 19.7095L1.17969 19.7106L1.17969 19.7116L1.17969 19.7126L1.17969 19.7136L1.17969 19.7146L1.17969 19.7156L1.17969 19.7167L1.17969 19.7177L1.17969 19.7187L1.17969 19.7197L1.17969 19.7207L1.17969 19.7217L1.17969 19.7227L1.17969 19.7238L1.17969 19.7248L1.17969 19.7258L1.17969 19.7268L1.17969 19.7278L1.17969 19.7288L1.17969 19.7298L1.17969 19.7309L1.17969 19.7319L1.17969 19.7329L1.17969 19.7339L1.17969 19.7349L1.17969 19.7359L1.17969 19.7369L1.17969 19.738L1.17969 19.739L1.17969 19.74L1.17969 19.741L1.17969 19.742L1.17969 19.743L1.17969 19.7441L1.17969 19.7451L1.17969 19.7461L1.17969 19.7471L1.17969 19.7481L1.17969 19.7491L1.17969 19.7501L1.17969 19.7512L1.17969 19.7522L1.17969 19.7532L1.17969 19.7542L1.17969 19.7552L1.17969 19.7562L1.17969 19.7572L1.17969 19.7583L1.17969 19.7593L1.17969 19.7603L1.17969 19.7613L1.17969 19.7623L1.17969 19.7633L1.17969 19.7644L1.17969 19.7654L1.17969 19.7664L1.17969 19.7674L1.17969 19.7684L1.17969 19.7694L1.17969 19.7704L1.17969 19.7715L1.17969 19.7725L1.17969 19.7735L1.17969 19.7745L1.17969 19.7755L1.17969 19.7765L1.17969 19.7775L1.17969 19.7786L1.17969 19.7796L1.17969 19.7806L1.17969 19.7816L1.17969 19.7826L1.17969 19.7836L1.17969 19.7846L1.17969 19.7857L1.17969 19.7867L1.17969 19.7877L1.17969 19.7887L1.17969 19.7897L1.17969 19.7907L1.17969 19.7918L1.17969 19.7928L1.17969 19.7938L1.17969 19.7948L1.17969 19.7958L1.17969 19.7968L1.17969 19.7978L1.17969 19.7989L1.17969 19.7999L1.17969 19.8009L1.17969 19.8019L1.17969 19.8029L1.17969 19.8039L1.17969 19.8049L1.17969 19.806L1.17969 19.807L1.17969 19.808L1.17969 19.809L1.17969 19.81L1.17969 19.811L1.17969 19.812L1.17969 19.8131L1.17969 19.8141L1.17969 19.8151L1.17969 19.8161L1.17969 19.8171L1.17969 19.8181L1.17969 19.8192L1.17969 19.8202L1.17969 19.8212L1.17969 19.8222L1.17969 19.8232L1.17969 19.8242L1.17969 19.8252L1.17969 19.8263L1.17969 19.8273L1.17969 19.8283L1.17969 19.8293L1.17969 19.8303L1.17969 19.8313L1.17969 19.8323L1.17969 19.8334L1.17969 19.8344L1.17969 19.8354L1.17969 19.8364L1.17969 19.8374L1.17969 19.8384L1.17969 19.8394L1.17969 19.8405L1.17969 19.8415L1.17969 19.8425L1.17969 19.8435L1.17969 19.8445L1.17969 19.8455L1.17969 19.8466L1.17969 19.8476L1.17969 19.8486L1.17969 19.8496L1.17969 19.8506L1.17969 19.8516L1.17969 19.8526L1.17969 19.8537L1.17969 19.8547L1.17969 19.8557L1.17969 19.8567L1.17969 19.8577L1.17969 19.8587L1.17969 19.8597L1.17969 19.8608L1.17969 19.8618L1.17969 19.8628L1.17969 19.8638L1.17969 19.8648L1.17969 19.8658L1.17969 19.8668L1.17969 19.8679L1.17969 19.8689L1.17969 19.8699L1.17969 19.8709L1.17969 19.8719L1.17969 19.8729L1.17969 19.874L1.17969 19.875L1.17969 19.876L1.17969 19.877L1.17969 19.878L1.17969 19.879L1.17969 19.88L1.17969 19.8811L1.17969 19.8821L1.17969 19.8831L1.17969 19.8841L1.17969 19.8851L1.17969 19.8861L1.17969 19.8871L1.17969 19.8882L1.17969 19.8892L1.17969 19.8902L1.17969 19.8912L1.17969 19.8922L1.17969 19.8932L1.17969 19.8943L1.17969 19.8953L1.17969 19.8963L1.17969 19.8973L1.17969 19.8983L1.17969 19.8993L1.17969 19.9003L1.17969 19.9014L1.17969 19.9024L1.17969 19.9034L1.17969 19.9044L1.17969 19.9054L1.17969 19.9064L1.17969 19.9074L1.17969 19.9085L1.17969 19.9095L1.17969 19.9105L1.17969 19.9115L1.17969 19.9125L1.17969 19.9135L1.17969 19.9145L1.17969 19.9156L1.17969 19.9166L1.17969 19.9176L1.17969 19.9186L1.17969 19.9196L1.17969 19.9206L1.17969 19.9217L1.17969 19.9227L1.17969 19.9237L1.17969 19.9247L1.17969 19.9257L1.17969 19.9267L1.17969 19.9277L1.17969 19.9288L1.17969 19.9298L1.17969 19.9308L1.17969 19.9318L1.17969 19.9328L1.17969 19.9338L1.17969 19.9348L1.17969 19.9359L1.17969 19.9369L1.17969 19.9379L1.17969 19.9389L1.17969 19.9399L1.17969 19.9409L1.17969 19.9419L1.17969 19.943L1.17969 19.944L1.17969 19.945L1.17969 19.946L1.17969 19.947L1.17969 19.948L1.17969 19.9491L1.17969 19.9501L1.17969 19.9511L1.17969 19.9521L1.17969 19.9531L1.17969 19.9541L1.17969 19.9551L1.17969 19.9562L1.17969 19.9572L1.17969 19.9582L1.17969 19.9592L1.17969 19.9602L1.17969 19.9612L1.17969 19.9622L1.17969 19.9633L1.17969 19.9643L1.17969 19.9653L1.17969 19.9663L1.17969 19.9673L1.17969 19.9683L1.17969 19.9693L1.17969 19.9704L1.17969 19.9714L1.17969 19.9724L1.17969 19.9734L1.17969 19.9744L1.17969 19.9754L1.17969 19.9765L1.17969 19.9775L1.17969 19.9785L1.17969 19.9795L1.17969 19.9805L1.17969 19.9815L1.17969 19.9825L1.17969 19.9836L1.17969 19.9846L1.17969 19.9856L1.17969 19.9866L1.17969 19.9876L1.17969 19.9886L1.17969 19.9896L1.17969 19.9907L1.17969 19.9917L1.17969 19.9927L1.17969 19.9937L1.17969 19.9947L1.17969 19.9957L1.17969 19.9967L1.17969 19.9978L1.17969 19.9988L1.17969 19.9998L1.17969 20.0008L1.17969 20.0018L1.17969 20.0028L1.17969 20.0039L1.17969 20.0049L1.17969 20.0059L1.17969 20.0069L1.17969 20.0079L1.17969 20.0089L1.17969 20.0099L1.17969 20.011L1.17969 20.012L1.17969 20.013L1.17969 20.014L1.17969 20.015L1.17969 20.016L1.17969 20.017L1.17969 20.0181L1.17969 20.0191L1.17969 20.0201L1.17969 20.0211L1.17969 20.0221L1.17969 20.0231L1.17969 20.0242L1.17969 20.0252L1.17969 20.0262L1.17969 20.0272L1.17969 20.0282L1.17969 20.0292L1.17969 20.0302L1.17969 20.0313L1.17969 20.0323L1.17969 20.0333L1.17969 20.0343L1.17969 20.0353L1.17969 20.0363L1.17969 20.0373L1.17969 20.0384L1.17969 20.0394L1.17969 20.0404L1.17969 20.0414L1.17969 20.0424L1.17969 20.0434L1.17969 20.0444L1.17969 20.0455L1.17969 20.0465L1.17969 20.0475L1.17969 20.0485L1.17969 20.0495L1.17969 20.0505L1.17969 20.0516L1.17969 20.0526L1.17969 20.0536L1.17969 20.0546L1.17969 20.0556L1.17969 20.0566L1.17969 20.0576L1.17969 20.0587L1.17969 20.0597L1.17969 20.0607L1.17969 20.0617L1.17969 20.0627L1.17969 20.0637L1.17969 20.0647L1.17969 20.0658L1.17969 20.0668L1.17969 20.0678L1.17969 20.0688L1.17969 20.0698L1.17969 20.0708L1.17969 20.0718L1.17969 20.0729L1.17969 20.0739L1.17969 20.0749L1.17969 20.0759L1.17969 20.0769L1.17969 20.0779L1.17969 20.079L1.17969 20.08L1.17969 20.081L1.17969 20.082L1.17969 20.083L1.17969 20.084L1.17969 20.085L1.17969 20.0861L1.17969 20.0871L1.17969 20.0881L1.17969 20.0891L1.17969 20.0901L1.17969 20.0911L1.17969 20.0921L1.17969 20.0932L1.17969 20.0942L1.17969 20.0952L1.17969 20.0962L1.17969 20.0972L1.17969 20.0982L1.17969 20.0992L1.17969 20.1003L1.17969 20.1013L1.17969 20.1023L1.17969 20.1033L1.17969 20.1043L1.17969 20.1053L1.17969 20.1064L1.17969 20.1074L1.17969 20.1084L1.17969 20.1094L1.17969 20.1104L1.17969 20.1114L1.17969 20.1124L1.17969 20.1135L1.17969 20.1145L1.17969 20.1155L1.17969 20.1165L1.17969 20.1175L1.17969 20.1185L1.17969 20.1195L1.17969 20.1206L1.17969 20.1216L1.17969 20.1226L1.17969 20.1236L1.17969 20.1246L1.17969 20.1256L1.17969 20.1266L1.17969 20.1277L1.17969 20.1287L1.17969 20.1297L1.17969 20.1307L1.17969 20.1317L1.17969 20.1327L1.17969 20.1338L1.17969 20.1348L1.17969 20.1358L1.17969 20.1368L1.17969 20.1378L1.17969 20.1388L1.17969 20.1398L1.17969 20.1409L1.17969 20.1419L1.17969 20.1429L1.17969 20.1439L1.17969 20.1449L1.17969 20.1459L1.17969 20.1469L1.17969 20.148L1.17969 20.149L1.17969 20.15L1.17969 20.151L1.17969 20.152L1.17969 20.153L1.17969 20.1541L1.17969 20.1551L1.17969 20.1561L1.17969 20.1571L1.17969 20.1581L1.17969 20.1591L1.17969 20.1601L1.17969 20.1612L1.17969 20.1622L1.17969 20.1632L1.17969 20.1642L1.17969 20.1652L1.17969 20.1662L1.17969 20.1672L1.17969 20.1683L1.17969 20.1693L1.17969 20.1703L1.17969 20.1713L1.17969 20.1723L1.17969 20.1733L1.17969 20.1743L1.17969 20.1754L1.17969 20.1764L1.17969 20.1774L1.17969 20.1784L1.17969 20.1794L1.17969 20.1804L1.17969 20.1815L1.17969 20.1825L1.17969 20.1835L1.17969 20.1845L1.17969 20.1855L1.17969 20.1865L1.17969 20.1875L1.17969 20.1886L1.17969 20.1896L1.17969 20.1906L1.17969 20.1916L1.17969 20.1926L1.17969 20.1936L1.17969 20.1946L1.17969 20.1957L1.17969 20.1967L1.17969 20.3052M1.17969 19.6771L1.17969 20.3052M13.6302 23.0141C13.8505 22.8743 14.1708 22.7901 14.4287 22.8247L14.4616 22.5769C14.4616 22.5769 14.4617 22.5769 14.4617 22.5769C15.0137 22.65 15.5626 22.7429 16.1064 22.8349L16.1648 22.8448C16.7293 22.9403 17.2885 23.0341 17.8497 23.1055C23.9066 23.871 29.8525 23.6001 35.6034 21.4486L35.6035 21.4486C39.0631 20.1548 42.1063 18.2233 44.7349 15.6611L44.7352 15.6608C44.7911 15.6065 44.8519 15.5463 44.9138 15.485C44.9902 15.4093 45.0683 15.3319 45.1411 15.2617L45.1416 15.2613C45.3513 15.0602 45.5884 14.9254 45.8378 14.8955C46.0954 14.8646 46.3373 14.9497 46.5318 15.1339C46.7276 15.3182 46.8357 15.5554 46.8147 15.8182C46.7944 16.0731 46.6561 16.3116 46.4442 16.518L46.2698 16.3389L46.4442 16.518C46.3553 16.6046 46.2662 16.692 46.1767 16.7798C45.7261 17.222 45.2647 17.6747 44.7672 18.081C44.3291 18.4388 43.8787 18.7809 43.4304 19.119C43.3846 19.1536 43.3388 19.1881 43.293 19.2226C42.89 19.5264 42.49 19.828 42.0982 20.1395L42.098 20.1397C41.9401 20.2649 41.8064 20.4514 41.7746 20.5965C41.061 23.8746 39.1324 26.3029 36.3546 28.1012L13.6149 24.1688C13.4338 24.0621 13.2904 23.8919 13.2481 23.6343L13.248 23.6336C13.2275 23.5067 13.2317 23.3513 13.259 23.2137C13.2728 23.144 13.2942 23.07 13.3271 23.0021C13.3584 22.9374 13.4104 22.8571 13.4967 22.8027M13.6302 23.0141L13.4971 22.8024C13.497 22.8025 13.4968 22.8026 13.4967 22.8027M13.6302 23.0141C13.5054 23.0926 13.4641 23.4043 13.4948 23.5937L13.4967 22.8027M13.6302 23.0141L13.4963 22.803C13.4964 22.8029 13.4966 22.8028 13.4967 22.8027M16.3115 18.0564L16.3119 18.0568C16.4891 18.2383 16.6718 18.4141 16.8576 18.593C16.9029 18.6366 16.9483 18.6803 16.9939 18.7244C17.225 18.9476 17.4583 19.1771 17.6786 19.4204M16.3115 18.0564L20.4451 17.9767C19.9286 18.3423 19.3954 18.6774 18.8553 19.0168C18.6082 19.1721 18.3596 19.3284 18.1105 19.4888L18.1103 19.489C17.9907 19.5662 17.9257 19.5733 17.8883 19.568C17.8493 19.5624 17.7829 19.5353 17.6786 19.4204M16.3115 18.0564C16.0315 17.7708 15.7019 17.6306 15.2806 17.6782L16.3115 18.0564ZM17.6786 19.4204L17.4933 19.5882L17.6785 19.4202C17.6785 19.4202 17.6786 19.4203 17.6786 19.4204ZM21.5833 17.7219L21.5841 17.7221C21.9315 17.8087 22.2817 17.8943 22.6326 17.98C23.1089 18.0963 23.5865 18.213 24.0605 18.3331C24.3451 18.405 24.586 18.5313 24.7384 18.7324C24.897 18.9416 24.9321 19.1948 24.8733 19.4551L24.8732 19.4554C24.8137 19.7172 24.6622 19.9261 24.4238 20.0391C24.1949 20.1476 23.9187 20.1522 23.6291 20.0845C22.9864 19.9342 22.3409 19.7786 21.7016 19.6042L21.7013 19.6041C21.5858 19.5724 21.5044 19.5685 21.4373 19.5812C21.3714 19.5937 21.2981 19.6261 21.2054 19.7014L21.2053 19.7015C20.2804 20.4518 19.2449 21.0132 18.1243 21.4222L18.1241 21.4223C17.8983 21.5045 17.6745 21.5376 17.4533 21.4916C17.2306 21.4453 17.0384 21.3247 16.8666 21.1481L16.8664 21.148C16.3711 20.6382 15.8688 20.1379 15.3468 19.6649C15.3041 19.6263 15.2363 19.5847 15.1589 19.5553C15.0799 19.5252 15.0134 19.5165 14.9733 19.5205L14.9728 19.5206C11.7329 19.8415 8.49492 20.178 5.25559 20.5146C4.88493 20.5532 4.51426 20.5917 4.14356 20.6302C4.36362 20.8147 4.56642 20.9842 4.77782 21.1477L21.5833 17.7219ZM21.5833 17.7219C21.3716 17.6699 21.1733 17.6678 20.979 17.7162M21.5833 17.7219L20.979 17.7162M1.17969 20.3052L1.25901 20.3793M1.17969 20.3052L1.25901 20.3793M1.25901 20.3793C1.46575 20.5725 1.67248 20.7734 1.8813 20.9764C2.34048 21.4226 2.8097 21.8786 3.31113 22.2835C6.84599 25.1443 10.8889 27.0095 15.2885 28.1438M1.25901 20.3793L26.7561 29.267C22.8859 29.4143 19.0534 29.1152 15.2885 28.1438M20.979 17.7162C20.7877 17.7639 20.6137 17.8571 20.4452 17.9766L20.979 17.7162ZM15.2885 28.1438L15.3509 27.9018L15.2885 28.1438ZM26.9349 29.2646C26.9308 29.2763 26.9268 29.2879 26.9227 29.2995C26.8335 29.5555 26.7487 29.7988 26.6825 30.0414C26.6825 30.0414 26.6825 30.0414 26.6825 30.0413L26.9349 29.2646ZM28.9025 29.1832C28.9767 28.9609 29.0462 28.7492 29.0989 28.5387L29.0989 28.5386C29.174 28.2387 29.1363 27.9468 28.9611 27.7244C28.787 27.5034 28.5124 27.396 28.2055 27.3897L28.2053 27.3897C27.9592 27.3849 27.714 27.3994 27.4801 27.4144L27.4961 27.6639L27.4801 27.4144C24.1115 27.6303 20.7702 27.467 17.4654 26.7954C12.7995 25.847 8.53249 24.0484 4.77793 21.1478L28.9025 29.1832Z" fill="url(#paint0_linear_5624_6941)" stroke="url(#paint1_linear_5624_6941)" stroke-width="0.5"/>
<path d="M24.135 10.1219C24.1211 14.3983 27.5621 17.934 31.7616 17.9564L24.135 10.1219ZM24.135 10.1219L24.3134 10.297L24.3145 10.2959L24.3853 10.2238M24.135 10.1219L24.1374 10.1219L24.385 10.1227C24.3849 10.1564 24.385 10.1901 24.3853 10.2238M24.3853 10.2238C24.4259 14.3211 27.7386 17.6849 31.7629 17.7064H31.763C35.8699 17.7292 39.2447 14.3304 39.2536 10.1461C39.2626 5.97562 35.9227 2.576 31.8305 2.5703M24.3853 10.2238L24.3858 10.2233L24.3862 10.1215C24.3996 5.93856 27.7327 2.56575 31.8305 2.5703M31.8305 2.5703L31.8309 2.3203L31.8305 2.5703ZM22.586 10.1487L22.5869 10.3978H22.5913C22.7397 15.4594 26.8307 19.5385 31.8313 19.5302C36.9143 19.5217 41.0585 15.2845 41.0526 10.1227C41.0467 4.95371 36.8949 0.73791 31.8049 0.750026C26.7042 0.76214 22.567 4.987 22.586 10.1487Z" fill="url(#paint2_linear_5624_6941)" stroke="url(#paint3_linear_5624_6941)" stroke-width="0.5"/>
<path d="M31.0199 12.7744C30.9804 12.7264 30.9436 12.6812 30.9073 12.6354C30.7155 12.392 30.524 12.1473 30.3322 11.9024C29.9129 11.3667 29.4923 10.8295 29.0653 10.2993L29.0651 10.2991C28.7313 9.8855 28.1854 9.81738 27.7918 10.1326L27.7914 10.1329C27.3932 10.4531 27.3657 10.9899 27.6522 11.4126L27.6525 11.413C27.7072 11.4934 27.7678 11.5694 27.8216 11.6368C27.8309 11.6485 27.84 11.6599 27.8488 11.6711C28.6419 12.679 29.4339 13.687 30.2258 14.6962L30.226 14.6963C30.5028 15.0485 30.8166 15.316 31.183 15.2923C31.5499 15.2685 31.826 14.9621 32.0546 14.5747L31.0199 12.7744Z" fill="url(#paint4_linear_5624_6941)" stroke="url(#paint5_linear_5624_6941)" stroke-width="0.5"/>
<defs>
<linearGradient id="paint0_linear_5624_6941" x1="10.11" y1="28.9084" x2="10.1324" y2="15.8456" gradientUnits="userSpaceOnUse">
<stop stop-color="#F8BF3B"/>
<stop offset="0.305" stop-color="#FF8B13"/>
<stop offset="1" stop-color="#EF5F3D"/>
</linearGradient>
<linearGradient id="paint1_linear_5624_6941" x1="10.11" y1="28.9084" x2="10.1324" y2="15.8456" gradientUnits="userSpaceOnUse">
<stop stop-color="#F8BF3B"/>
<stop offset="0.305" stop-color="#FF8B13"/>
<stop offset="1" stop-color="#EF5F3D"/>
</linearGradient>
<linearGradient id="paint2_linear_5624_6941" x1="25.2053" y1="4.51542" x2="40.0022" y2="4.58652" gradientUnits="userSpaceOnUse">
<stop stop-color="#F8BF3B"/>
<stop offset="0.305" stop-color="#FF8B13"/>
<stop offset="1" stop-color="#EF5F3D"/>
</linearGradient>
<linearGradient id="paint3_linear_5624_6941" x1="25.2053" y1="4.51542" x2="40.0022" y2="4.58652" gradientUnits="userSpaceOnUse">
<stop stop-color="#F8BF3B"/>
<stop offset="0.305" stop-color="#FF8B13"/>
<stop offset="1" stop-color="#EF5F3D"/>
</linearGradient>
<linearGradient id="paint4_linear_5624_6941" x1="28.7957" y1="8.26291" x2="35.5703" y2="8.29536" gradientUnits="userSpaceOnUse">
<stop stop-color="#F8BF3B"/>
<stop offset="0.305" stop-color="#FF8B13"/>
<stop offset="1" stop-color="#EF5F3D"/>
</linearGradient>
<linearGradient id="paint5_linear_5624_6941" x1="28.7957" y1="8.26291" x2="35.5703" y2="8.29536" gradientUnits="userSpaceOnUse">
<stop stop-color="#F8BF3B"/>
<stop offset="0.305" stop-color="#FF8B13"/>
<stop offset="1" stop-color="#EF5F3D"/>
</linearGradient>
</defs>
</svg>
