<svg width="132" height="132" viewBox="0 0 132 132" fill="none" xmlns="http://www.w3.org/2000/svg">
<g filter="url(#filter0_d_6574_15169)">
<rect x="30" y="28" width="72" height="72" rx="6" fill="white" shape-rendering="crispEdges"/>
<path d="M43.4297 67.6769C43.6864 67.3594 44.0433 67.2866 44.4308 67.2474C47.9935 66.8848 51.5563 66.513 55.1179 66.1447C55.8481 66.0696 56.5795 66.0084 57.3085 65.9264C57.6454 65.8883 57.9009 65.9946 58.133 66.2313C58.5805 66.6897 59.0646 67.1146 59.4933 67.588C59.7394 67.8594 59.9562 67.8859 60.2459 67.6989C61.0291 67.1943 61.8312 66.7174 62.5897 66.1805C62.8959 65.9634 63.1715 65.8779 63.5236 65.9645C64.3481 66.1701 65.1749 66.3664 65.9993 66.5754C66.5069 66.7035 66.7213 66.9934 66.6294 67.3998C66.5399 67.7935 66.1995 67.961 65.686 67.8409C65.0441 67.6908 64.4022 67.5361 63.7674 67.3629C63.4895 67.2866 63.281 67.3178 63.0478 67.5072C62.1468 68.2381 61.1363 68.7866 60.0386 69.1872C59.6452 69.3304 59.3378 69.2738 59.0457 68.9736C58.5487 68.4621 58.0423 67.9575 57.5146 67.4795C57.3757 67.3536 57.1307 67.2532 56.9481 67.2716C53.3112 67.6319 49.6766 68.0118 46.0408 68.3894C45.9136 68.4021 45.7876 68.4355 45.5697 68.4771C45.9595 68.7981 46.2846 69.0822 46.625 69.3454C50.4139 72.2725 54.7174 74.0853 59.4156 75.0402C62.7451 75.7169 66.1088 75.8808 69.4961 75.6638C69.7305 75.6487 69.966 75.6349 70.2004 75.6395C70.708 75.6499 70.9789 75.9882 70.8564 76.4778C70.7763 76.7976 70.6597 77.1082 70.5361 77.4962C70.8022 77.45 71.0131 77.4246 71.2168 77.375C74.1471 76.6706 76.8807 75.5645 79.155 73.5507C80.4093 72.4399 81.3386 71.1074 81.8804 69.5267C81.9157 69.4228 81.9345 69.3142 81.9522 69.2473C80.5989 69.8315 79.2669 70.4631 77.8912 70.9862C74.7866 72.1674 71.5466 72.7471 68.2323 72.9595C64.1761 73.2182 60.1658 72.8487 56.1849 72.0947C55.8658 72.0346 55.5525 71.9446 55.4948 71.5936C55.4641 71.4042 55.5054 71.0924 55.6302 71.0139C55.8505 70.8742 56.1708 70.7899 56.4287 70.8245C57.5618 70.9746 58.6842 71.209 59.8184 71.3534C65.9027 72.1224 71.8917 71.8522 77.691 69.6826C81.1831 68.3766 84.2559 66.4264 86.9094 63.84C87.0449 63.7083 87.178 63.5732 87.3146 63.4416C87.6832 63.0883 88.0719 63.0421 88.3604 63.3157C88.6596 63.5975 88.6384 63.9797 88.2698 64.3388C87.728 64.8665 87.1944 65.4092 86.6091 65.8872C85.7411 66.5962 84.8212 67.2451 83.9426 67.9436C83.7577 68.0903 83.5787 68.3224 83.5304 68.5429C82.8332 71.746 80.9511 74.1223 78.2187 75.8912C75.6287 77.569 72.7503 78.5146 69.701 78.988C69.1333 79.0758 68.7718 78.6636 68.9237 78.107C69.0179 77.7618 69.1475 77.4258 69.2841 77.017C69.0768 77.017 68.9119 77.0113 68.747 77.017C64.8957 77.1637 61.088 76.8658 57.3509 75.9016C52.9802 74.7747 48.9711 72.9237 45.4684 70.089C44.7476 69.5071 44.1069 68.8293 43.4297 68.1965C43.4297 68.0233 43.4297 67.8501 43.4297 67.6769Z" fill="url(#paint0_linear_6574_15169)"/>
<path d="M64.8354 58.1478C64.8169 53.121 68.8455 49.0118 73.8048 49C78.7526 48.9882 82.7962 53.0881 82.802 58.123C82.8078 63.1509 78.7711 67.272 73.8302 67.2802C68.8906 67.2884 64.855 63.191 64.8365 58.1478H64.8354ZM66.1344 58.1219C66.1205 62.3983 69.5614 65.934 73.761 65.9564C78.0101 65.9799 81.4938 62.4655 81.503 58.1466C81.5122 53.8418 78.0644 50.3262 73.8302 50.3203C69.5903 50.3156 66.1494 53.8042 66.1355 58.1207L66.1344 58.1219Z" fill="url(#paint1_linear_6574_15169)"/>
<path d="M73.055 61.209C74.25 59.1821 75.4139 57.2081 76.5779 55.2342C76.6517 55.1094 76.7187 54.9727 76.8169 54.8703C77.0582 54.6159 77.3515 54.5794 77.6401 54.7678C77.9115 54.9456 78.005 55.2165 77.8884 55.5345C77.8434 55.657 77.7741 55.7713 77.7083 55.8831C76.4197 58.0714 75.1311 60.2609 73.8401 62.448C73.3887 63.2136 72.9707 63.2383 72.4234 62.5423C71.6313 61.5329 70.8392 60.5247 70.0459 59.5166C69.9824 59.4365 69.9177 59.3576 69.86 59.2728C69.6325 58.9371 69.6706 58.552 69.9489 58.3282C70.2283 58.1044 70.6186 58.1433 70.8715 58.4566C71.4927 59.228 72.0989 60.0124 72.712 60.7909C72.8102 60.9146 72.9129 61.0359 73.055 61.2078V61.209Z" fill="url(#paint2_linear_6574_15169)"/>
<path d="M43.4297 67.6769C43.6864 67.3594 44.0433 67.2866 44.4308 67.2474C47.9935 66.8848 51.5563 66.513 55.1179 66.1447C55.8481 66.0696 56.5795 66.0084 57.3085 65.9264C57.6454 65.8883 57.9009 65.9946 58.133 66.2313C58.5805 66.6897 59.0646 67.1146 59.4933 67.588C59.7394 67.8594 59.9562 67.8859 60.2459 67.6989C61.0291 67.1943 61.8312 66.7174 62.5897 66.1805C62.8959 65.9634 63.1715 65.8779 63.5236 65.9645C64.3481 66.1701 65.1749 66.3664 65.9993 66.5754C66.5069 66.7035 66.7213 66.9934 66.6294 67.3998C66.5399 67.7935 66.1995 67.961 65.686 67.8409C65.0441 67.6908 64.4022 67.5361 63.7674 67.3629C63.4895 67.2866 63.281 67.3178 63.0478 67.5072C62.1468 68.2381 61.1363 68.7866 60.0386 69.1872C59.6452 69.3304 59.3378 69.2738 59.0457 68.9736C58.5487 68.4621 58.0423 67.9575 57.5146 67.4795C57.3757 67.3536 57.1307 67.2532 56.9481 67.2716C53.3112 67.6319 49.6766 68.0118 46.0408 68.3894C45.9136 68.4021 45.7876 68.4355 45.5697 68.4771C45.9595 68.7981 46.2846 69.0822 46.625 69.3454C50.4139 72.2725 54.7174 74.0853 59.4156 75.0402C62.7451 75.7169 66.1088 75.8808 69.4961 75.6638C69.7305 75.6487 69.966 75.6349 70.2004 75.6395C70.708 75.6499 70.9789 75.9882 70.8564 76.4778C70.7763 76.7976 70.6597 77.1082 70.5361 77.4962C70.8022 77.45 71.0131 77.4246 71.2168 77.375C74.1471 76.6706 76.8807 75.5645 79.155 73.5507C80.4093 72.4399 81.3386 71.1074 81.8804 69.5267C81.9157 69.4228 81.9345 69.3142 81.9522 69.2473C80.5989 69.8315 79.2669 70.4631 77.8912 70.9862C74.7866 72.1674 71.5466 72.7471 68.2323 72.9595C64.1761 73.2182 60.1658 72.8487 56.1849 72.0947C55.8658 72.0346 55.5525 71.9446 55.4948 71.5936C55.4641 71.4042 55.5054 71.0924 55.6302 71.0139C55.8505 70.8742 56.1708 70.7899 56.4287 70.8245C57.5618 70.9746 58.6842 71.209 59.8184 71.3534C65.9027 72.1224 71.8917 71.8522 77.691 69.6826C81.1831 68.3766 84.2559 66.4264 86.9094 63.84C87.0449 63.7083 87.178 63.5732 87.3146 63.4416C87.6832 63.0883 88.0719 63.0421 88.3604 63.3157C88.6596 63.5975 88.6384 63.9797 88.2698 64.3388C87.728 64.8665 87.1944 65.4092 86.6091 65.8872C85.7411 66.5962 84.8212 67.2451 83.9426 67.9436C83.7577 68.0903 83.5787 68.3224 83.5304 68.5429C82.8332 71.746 80.9511 74.1223 78.2187 75.8912C75.6287 77.569 72.7503 78.5146 69.701 78.988C69.1333 79.0758 68.7718 78.6636 68.9237 78.107C69.0179 77.7618 69.1475 77.4258 69.2841 77.017C69.0768 77.017 68.9119 77.0113 68.747 77.017C64.8957 77.1637 61.088 76.8658 57.3509 75.9016C52.9802 74.7747 48.9711 72.9237 45.4684 70.089C44.7476 69.5071 44.1069 68.8293 43.4297 68.1965C43.4297 68.0233 43.4297 67.8501 43.4297 67.6769Z" stroke="url(#paint3_linear_6574_15169)" stroke-width="0.3"/>
<path d="M64.8354 58.1478C64.8169 53.121 68.8455 49.0118 73.8048 49C78.7526 48.9882 82.7962 53.0881 82.802 58.123C82.8078 63.1509 78.7711 67.272 73.8302 67.2802C68.8906 67.2884 64.855 63.191 64.8365 58.1478H64.8354ZM66.1344 58.1219C66.1205 62.3983 69.5614 65.934 73.761 65.9564C78.0101 65.9799 81.4938 62.4655 81.503 58.1466C81.5122 53.8418 78.0644 50.3262 73.8302 50.3203C69.5903 50.3156 66.1494 53.8042 66.1355 58.1207L66.1344 58.1219Z" stroke="url(#paint4_linear_6574_15169)" stroke-width="0.3"/>
<path d="M73.055 61.209C74.25 59.1821 75.4139 57.2081 76.5779 55.2342C76.6517 55.1094 76.7187 54.9727 76.8169 54.8703C77.0582 54.6159 77.3515 54.5794 77.6401 54.7678C77.9115 54.9456 78.005 55.2165 77.8884 55.5345C77.8434 55.657 77.7741 55.7713 77.7083 55.8831C76.4197 58.0714 75.1311 60.2609 73.8401 62.448C73.3887 63.2136 72.9707 63.2383 72.4234 62.5423C71.6313 61.5329 70.8392 60.5247 70.0459 59.5166C69.9824 59.4365 69.9177 59.3576 69.86 59.2728C69.6325 58.9371 69.6706 58.552 69.9489 58.3282C70.2283 58.1044 70.6186 58.1433 70.8715 58.4566C71.4927 59.228 72.0989 60.0124 72.712 60.7909C72.8102 60.9146 72.9129 61.0359 73.055 61.2078V61.209Z" stroke="url(#paint5_linear_6574_15169)" stroke-width="0.3"/>
</g>
<defs>
<filter id="filter0_d_6574_15169" x="0" y="0" width="132" height="132" filterUnits="userSpaceOnUse" color-interpolation-filters="sRGB">
<feFlood flood-opacity="0" result="BackgroundImageFix"/>
<feColorMatrix in="SourceAlpha" type="matrix" values="0 0 0 0 0 0 0 0 0 0 0 0 0 0 0 0 0 0 127 0" result="hardAlpha"/>
<feOffset dy="2"/>
<feGaussianBlur stdDeviation="15"/>
<feComposite in2="hardAlpha" operator="out"/>
<feColorMatrix type="matrix" values="0 0 0 0 1 0 0 0 0 0.545098 0 0 0 0 0.0745098 0 0 0 0.12 0"/>
<feBlend mode="normal" in2="BackgroundImageFix" result="effect1_dropShadow_6574_15169"/>
<feBlend mode="normal" in="SourceGraphic" in2="effect1_dropShadow_6574_15169" result="shape"/>
</filter>
<linearGradient id="paint0_linear_6574_15169" x1="49.3822" y1="54.7692" x2="86.5553" y2="55.0426" gradientUnits="userSpaceOnUse">
<stop stop-color="#F8BF3B"/>
<stop offset="0.305" stop-color="#FF8B13"/>
<stop offset="1" stop-color="#EF5F3D"/>
</linearGradient>
<linearGradient id="paint1_linear_6574_15169" x1="49.3822" y1="54.7692" x2="86.5553" y2="55.0426" gradientUnits="userSpaceOnUse">
<stop stop-color="#F8BF3B"/>
<stop offset="0.305" stop-color="#FF8B13"/>
<stop offset="1" stop-color="#EF5F3D"/>
</linearGradient>
<linearGradient id="paint2_linear_6574_15169" x1="49.3822" y1="54.7692" x2="86.5553" y2="55.0426" gradientUnits="userSpaceOnUse">
<stop stop-color="#F8BF3B"/>
<stop offset="0.305" stop-color="#FF8B13"/>
<stop offset="1" stop-color="#EF5F3D"/>
</linearGradient>
<linearGradient id="paint3_linear_6574_15169" x1="49.3822" y1="54.7692" x2="86.5553" y2="55.0426" gradientUnits="userSpaceOnUse">
<stop stop-color="#F8BF3B"/>
<stop offset="0.305" stop-color="#FF8B13"/>
<stop offset="1" stop-color="#EF5F3D"/>
</linearGradient>
<linearGradient id="paint4_linear_6574_15169" x1="49.3822" y1="54.7692" x2="86.5553" y2="55.0426" gradientUnits="userSpaceOnUse">
<stop stop-color="#F8BF3B"/>
<stop offset="0.305" stop-color="#FF8B13"/>
<stop offset="1" stop-color="#EF5F3D"/>
</linearGradient>
<linearGradient id="paint5_linear_6574_15169" x1="49.3822" y1="54.7692" x2="86.5553" y2="55.0426" gradientUnits="userSpaceOnUse">
<stop stop-color="#F8BF3B"/>
<stop offset="0.305" stop-color="#FF8B13"/>
<stop offset="1" stop-color="#EF5F3D"/>
</linearGradient>
</defs>
</svg>
