<svg width="55" height="70" viewBox="0 0 55 70" fill="none" xmlns="http://www.w3.org/2000/svg">
<path fill-rule="evenodd" clip-rule="evenodd" d="M32.5135 0H45.8429L46.3662 0.341797C46.6416 0.519531 46.9996 0.875 47.1511 1.12109C47.4127 1.55859 47.4265 1.81836 47.4265 8.13477C47.4265 14.5879 47.4265 14.7109 47.1373 15.1758C46.972 15.4492 46.5727 15.791 46.2422 15.9551C45.9117 16.1328 45.4711 16.2695 45.2645 16.2695C45.0442 16.2695 44.6724 16.1875 44.4383 16.0781C44.1905 15.9824 43.7911 15.6953 43.1577 15.0254L43.1302 11.334C43.1026 9.31055 43.0476 7.65625 42.9925 7.65625C42.9374 7.65625 41.2161 9.33789 35.4052 15.1074L36.1212 16.0645C36.5068 16.584 37.0851 17.5137 37.4018 18.1152C37.7185 18.7168 38.1592 19.6738 38.3795 20.2344C38.5998 20.7949 38.9028 21.7109 39.0405 22.2715C39.1919 22.8184 39.371 23.2969 39.4398 23.3105C39.5224 23.3379 40.1696 23.5156 40.8857 23.7207C41.6017 23.9121 42.8823 24.4043 43.7085 24.8008C44.5485 25.1973 45.6914 25.8262 46.256 26.209C46.8206 26.5918 47.7156 27.2617 48.2389 27.6992C48.7759 28.1504 49.6297 28.998 50.1529 29.5996C50.6762 30.2012 51.4198 31.1582 51.7916 31.7188C52.1634 32.2793 52.7417 33.3047 53.0722 33.9746C53.4027 34.6445 53.8571 35.7656 54.0912 36.4355C54.3115 37.1055 54.6007 38.2266 54.7384 38.8965C54.9312 39.8262 55 40.7559 55 42.6562C55 44.584 54.9449 45.459 54.7521 46.3477C54.6144 46.9902 54.2977 48.125 54.0499 48.877C53.7882 49.6289 53.3201 50.7637 53.0033 51.4062C52.6866 52.0488 52.067 53.0879 51.6401 53.7305C51.2132 54.3594 50.3182 55.4668 49.6297 56.1777C48.9549 56.8887 47.7982 57.9004 47.0822 58.4336C46.3662 58.9668 45.1544 59.7188 44.397 60.1152C43.6397 60.498 42.4692 61.0039 41.7807 61.2363C41.106 61.4824 39.9218 61.8105 39.1644 61.9746C38.0215 62.2207 37.3467 62.2617 35.1711 62.2617C33.0367 62.2617 32.3207 62.207 31.2466 61.9746C30.5306 61.8105 29.4427 61.5234 28.8368 61.3184C28.2309 61.1133 27.2395 60.7168 26.6336 60.4297C26.0277 60.1426 24.9124 59.5 22.778 58.0918L19.4043 61.4551L22.0757 64.1211C24.5681 66.6094 24.7471 66.8281 24.8435 67.4023C24.9261 67.8809 24.8848 68.1543 24.6507 68.6738C24.4579 69.1113 24.1825 69.4258 23.8108 69.6582C23.4665 69.877 23.0534 70 22.7091 70C22.4062 70 21.9931 69.918 21.7865 69.8086C21.5662 69.6992 20.2581 68.4688 16.3061 64.5312L13.7586 67.0332C12.354 68.4141 11.0459 69.6445 10.8393 69.7676C10.619 69.9043 10.1784 70 9.83411 70C9.3797 70 9.06299 69.8906 8.64989 69.6309C8.34694 69.4121 8.00269 69.043 7.89253 68.8105C7.79614 68.5645 7.69975 68.1133 7.69975 67.8125C7.69975 67.5117 7.7686 67.1016 7.85122 66.8965C7.93384 66.6777 9.14561 65.3652 13.1389 61.3867L10.5777 58.8164C9.15938 57.4082 7.93384 56.123 7.85122 55.959C7.7686 55.7812 7.69975 55.3574 7.69975 54.9883C7.69975 54.5918 7.79614 54.1816 7.97515 53.8945C8.12662 53.6621 8.4571 53.334 8.70497 53.1836C8.98037 53.0059 9.39347 52.9102 9.80657 52.9102C10.1646 52.9102 10.5915 52.9785 10.7705 53.0605C10.9357 53.1426 12.2301 54.3594 16.2372 58.3105L19.6522 54.8926L18.9361 53.9355C18.5506 53.4023 17.9722 52.4863 17.6555 51.8848C17.3388 51.2832 16.8982 50.2988 16.6641 49.6973C16.43 49.0957 16.127 48.1797 16.0031 47.6738C15.7553 46.7715 15.7415 46.7441 15.2044 46.6074C14.9015 46.5391 14.1579 46.3066 13.552 46.1152C12.9462 45.9238 11.8859 45.5 11.2111 45.1719C10.5364 44.8574 9.50363 44.2832 8.93906 43.9141C8.37448 43.5312 7.42435 42.8203 6.846 42.3281C6.25389 41.8359 5.35883 40.9473 4.86311 40.373C4.35362 39.7852 3.63757 38.8418 3.26578 38.2812C2.88022 37.7207 2.31564 36.6953 1.98516 36.0254C1.65468 35.3555 1.1865 34.2344 0.966175 33.5645C0.732084 32.8945 0.415372 31.5684 0.250131 30.625C0.00226955 29.1758 -0.039041 28.5879 0.0298094 26.7285C0.0711197 25.5254 0.208821 24.0762 0.332751 23.5156C0.456682 22.9551 0.773394 21.8477 1.03503 21.0547C1.31043 20.2617 1.84746 19.0039 2.23302 18.252C2.61859 17.5 3.30709 16.3926 3.7615 15.791C4.21592 15.1895 5.01458 14.2461 5.55162 13.6855C6.08865 13.1387 7.02501 12.3047 7.6309 11.8398C8.23678 11.375 8.98037 10.8418 9.28331 10.6504C9.58625 10.4453 10.3298 10.0488 10.9357 9.74805C11.5416 9.43359 12.6019 8.99609 13.2766 8.76367C13.9651 8.51758 15.1081 8.20312 15.8241 8.05273C16.5401 7.90234 17.9722 7.75195 18.9912 7.69727C20.0928 7.65625 21.3872 7.68359 22.1583 7.7793C22.8744 7.875 24.0862 8.09375 24.8435 8.28516C25.6009 8.47656 26.7438 8.8457 27.391 9.10547C28.0382 9.37891 29.0572 9.87109 29.663 10.2129C30.2689 10.5547 31.1089 11.0742 32.2794 11.9219L39.8529 4.375H36.3691C33.7252 4.375 32.7888 4.33398 32.4584 4.18359C32.2105 4.08789 31.8112 3.80078 31.5909 3.56836C31.2191 3.1582 31.1777 3.04883 31.1777 1.20312L32.5135 0ZM15.0667 12.7695C14.4609 12.9609 13.4694 13.3711 12.8635 13.6719C12.2576 13.9863 11.3901 14.5059 10.9357 14.8203C10.4813 15.1484 9.71018 15.7637 9.22823 16.2148C8.74628 16.6523 7.96138 17.541 7.47943 18.1836C6.99747 18.8262 6.32274 19.8926 5.99226 20.5762C5.64801 21.2461 5.22113 22.3262 5.04212 22.9688C4.84934 23.6113 4.61525 24.6504 4.53263 25.293C4.42247 26.0039 4.38116 27.0977 4.43624 28.1641C4.49132 29.3672 4.61525 30.2695 4.87688 31.2402C5.06966 31.9922 5.49653 33.1543 5.82702 33.8379C6.14373 34.5078 6.73584 35.5469 7.14895 36.1484C7.56205 36.75 8.33317 37.666 8.87021 38.1992C9.39347 38.7324 10.2334 39.457 10.7292 39.7988C11.2249 40.1543 12.0236 40.6602 12.5193 40.9199C13.015 41.1934 13.8137 41.5625 14.3094 41.7539C14.8051 41.9453 15.2458 42.0547 15.3146 42C15.3697 41.9453 15.411 41.5898 15.411 41.2207C15.411 40.8379 15.5074 39.9492 15.6313 39.2383C15.7415 38.5273 16.0582 37.2969 16.3336 36.5039C16.5952 35.7109 17.0496 34.5762 17.3388 33.9746C17.628 33.373 18.2476 32.293 18.7296 31.582C19.2804 30.7617 20.1754 29.6953 21.1807 28.6973C22.1996 27.6992 23.2599 26.7969 24.0862 26.2637C24.8022 25.7852 25.89 25.1562 26.4959 24.8691C27.1018 24.582 28.1483 24.1582 28.8368 23.9258C29.5116 23.6934 30.7096 23.3926 31.4807 23.2422C32.2656 23.0918 33.202 22.9688 33.5875 22.9688C33.9593 22.9688 34.3724 22.9414 34.4826 22.9004C34.6616 22.8457 34.6203 22.6543 34.2622 21.7656C34.0282 21.1914 33.6564 20.3711 33.4223 19.9609C33.1882 19.5508 32.6925 18.8125 32.3344 18.3203C31.9764 17.8281 31.164 16.9258 30.5306 16.3242C29.8971 15.709 28.947 14.9297 28.4237 14.5879C27.8867 14.2598 27.088 13.7949 26.6336 13.5625C26.1792 13.3438 25.3117 12.9883 24.7058 12.7969C24.0999 12.5918 23.0809 12.332 22.4337 12.2227C21.7865 12.1133 20.5748 12.0312 19.7486 12.0449C18.9086 12.0449 17.7657 12.1406 17.2011 12.2363C16.6365 12.3457 15.6726 12.5781 15.0667 12.7695ZM31.4118 27.7266C30.7922 27.8906 29.9522 28.1504 29.5529 28.3145C29.1673 28.4648 28.5201 28.752 28.1483 28.9434C27.7628 29.1348 27.0605 29.5586 26.5648 29.873C26.069 30.2012 25.2291 30.8574 24.7058 31.3359C24.1688 31.8145 23.3701 32.7031 22.9157 33.3047C22.4613 33.8926 21.8416 34.877 21.5111 35.4785C21.1944 36.0801 20.7538 37.1191 20.5335 37.8027C20.3131 38.4727 20.0515 39.457 19.9689 39.9902C19.8863 40.5098 19.8037 41.3438 19.7899 41.8359L19.7486 42.7246C21.3459 42.6836 22.2134 42.5879 22.7091 42.5059C23.2049 42.4102 24.0724 42.1914 24.637 42.0137C25.2015 41.8223 26.1379 41.4531 26.7025 41.166C27.267 40.8789 28.1346 40.3867 28.6303 40.0449C29.126 39.7168 29.9522 39.0469 30.4755 38.5547C30.9987 38.0625 31.7974 37.1738 32.2518 36.5723C32.7062 35.9707 33.3121 34.9863 33.6288 34.3848C33.9318 33.7832 34.3173 32.8945 34.4826 32.4023C34.6478 31.9102 34.8957 31.0215 35.0058 30.4199C35.1298 29.8184 35.2537 28.8613 35.2675 28.3008L35.3088 27.2754C34.6616 27.248 34.0419 27.2754 33.5187 27.3438C32.9816 27.3984 32.0453 27.5762 31.4118 27.7266ZM39.6464 29.0527C39.6464 29.3535 39.55 30.1465 39.426 30.8301C39.3159 31.5 38.9716 32.7988 38.6687 33.7012C38.3657 34.6035 37.8287 35.875 37.4707 36.5312C37.1127 37.1875 36.4379 38.2676 35.9697 38.9238C35.5016 39.5801 34.4826 40.7422 33.6977 41.5078C32.8715 42.3145 31.701 43.2578 30.9023 43.7773C30.145 44.2832 29.0021 44.9258 28.3549 45.2266C27.7077 45.5273 26.7162 45.9375 26.1517 46.1289C25.5871 46.3066 24.4304 46.5938 23.6042 46.7441C22.7642 46.8945 21.7315 47.0586 21.2908 47.0996C20.5197 47.168 20.5059 47.168 20.5748 47.5371C20.6161 47.7422 20.9328 48.5078 21.2771 49.2188C21.6213 49.9297 22.2272 50.9688 22.6128 51.5293C23.0121 52.0898 23.9209 53.1016 24.6507 53.7852C25.4494 54.5371 26.4546 55.3027 27.1982 55.7539C27.8729 56.1504 28.9195 56.6562 29.5253 56.8887C30.1312 57.1211 31.0951 57.4355 31.6597 57.5996C32.5272 57.832 33.0918 57.873 35.1711 57.873C37.3881 57.873 37.7874 57.8457 38.9578 57.5312C39.6739 57.3398 40.7617 56.9707 41.3676 56.7109C41.9735 56.4512 43.02 55.877 43.7085 55.4395C44.3833 55.002 45.4849 54.1133 46.1321 53.4707C46.7793 52.8145 47.6743 51.7344 48.115 51.0645C48.5694 50.3809 49.1339 49.3418 49.3956 48.7402C49.6572 48.1387 50.029 47.0586 50.2218 46.3477C50.5385 45.1855 50.5798 44.7891 50.5798 42.5879C50.5798 40.332 50.5385 40.0039 50.208 38.7598C50.0015 38.0078 49.5608 36.832 49.2441 36.1621C48.9136 35.4785 48.4041 34.5625 48.0874 34.1113C47.7845 33.6602 47.2061 32.9082 46.793 32.4434C46.3799 31.9785 45.6088 31.2266 45.0855 30.7891C44.5485 30.3516 43.6535 29.7227 43.0889 29.3945C42.5243 29.0664 41.5466 28.5879 40.9132 28.3555C39.7841 27.918 39.7841 27.918 39.7152 28.2051C39.6739 28.3691 39.6464 28.752 39.6464 29.0527Z" fill="white"/>
</svg>
