<svg width="1440" height="281" viewBox="0 0 1440 281" fill="none" xmlns="http://www.w3.org/2000/svg">
<path d="M319.375 66.5824C223.406 37.8012 53.4071 2.55571 -12.4047 0C-104.874 0 -138.475 169.499 -42.007 171.858C54.4614 174.217 319.375 260.03 437.336 278.608C555.297 297.186 649.267 201.642 735.738 195.449C822.21 189.256 897.686 297.186 1006.65 278.608C1093.82 263.746 1348.54 219.827 1465 209.014V29.1315C1368.53 21.4643 1076.13 97.5458 1006.65 102.559C937.173 107.572 842.029 37.931 772.545 17.682C670.87 -11.9482 554.798 77.4933 521.309 90.1736C487.82 102.854 439.336 102.559 319.375 66.5824Z" fill="#2C3D68"/>
</svg>
