<svg width="20" height="20" viewBox="0 0 20 20" fill="none" xmlns="http://www.w3.org/2000/svg">
<path d="M3.33333 13.7493V16.666C3.33333 17.108 3.50893 17.532 3.82149 17.8445C4.13405 18.1571 4.55797 18.3327 5 18.3327H15C15.442 18.3327 15.866 18.1571 16.1785 17.8445C16.4911 17.532 16.6667 17.108 16.6667 16.666V13.7493M2.5 11.666V10.8327C2.5 10.3907 2.67559 9.96673 2.98816 9.65417C3.30072 9.34161 3.72464 9.16602 4.16667 9.16602H15.8333C16.2754 9.16602 16.6993 9.34161 17.0118 9.65417C17.3244 9.96673 17.5 10.3907 17.5 10.8327V11.666M10 6.66602V9.16602M10 6.66602C11.0517 6.66602 11.6667 5.85935 11.6667 4.47852C11.6667 3.09768 10 1.66602 10 1.66602C10 1.66602 8.33333 3.09768 8.33333 4.47852C8.33333 5.85935 8.94833 6.66602 10 6.66602Z" stroke="#FF8B13" stroke-linecap="round" stroke-linejoin="round"/>
<path d="M2.5 11.666C2.5 12.3291 2.76339 12.9649 3.23223 13.4338C3.70107 13.9026 4.33696 14.166 5 14.166C5.66304 14.166 6.29893 13.9026 6.76777 13.4338C7.23661 12.9649 7.5 12.3291 7.5 11.666C7.5 12.3291 7.76339 12.9649 8.23223 13.4338C8.70107 13.9026 9.33696 14.166 10 14.166C10.663 14.166 11.2989 13.9026 11.7678 13.4338C12.2366 12.9649 12.5 12.3291 12.5 11.666C12.5 12.3291 12.7634 12.9649 13.2322 13.4338C13.7011 13.9026 14.337 14.166 15 14.166C15.663 14.166 16.2989 13.9026 16.7678 13.4338C17.2366 12.9649 17.5 12.3291 17.5 11.666" stroke="#FF8B13" stroke-linecap="round" stroke-linejoin="round"/>
</svg>
