<svg width="38" height="146" viewBox="0 0 38 146" fill="none" xmlns="http://www.w3.org/2000/svg">
<path d="M36.6884 4.31066C36.6479 4.19247 36.51 4.02056 36.3802 3.9346C36.2261 3.82716 35.8693 3.78418 35.1313 3.77344C34.4905 3.77344 34.0931 3.81641 34.0931 3.88088C34.0931 3.9346 34.1499 4.00981 34.2148 4.04205C34.2797 4.07428 34.3932 4.26768 34.4581 4.47182C34.5635 4.79415 34.5797 5.92231 34.5797 12.3689C34.5797 18.8155 34.5635 19.9437 34.4581 20.266C34.3932 20.4702 34.2797 20.6636 34.2148 20.6958C34.1499 20.728 34.0931 20.7925 34.0931 20.857C34.0931 20.9214 34.5149 20.9644 36.2829 20.9644L36.7695 20.3197V12.4226C36.7695 7.3728 36.7371 4.45033 36.6884 4.31066Z" fill="#EE5253"/>
<path d="M2.94179 4.50405L2.67415 4.13875L2.40651 3.77344H1.34406C0.760117 3.77344 0.281609 3.79493 0.281609 3.82716C0.281609 3.85939 0.370823 4.02056 0.687126 4.52554V20.2123L0.484364 20.5346C0.370819 20.7173 0.281609 20.8785 0.281609 20.9107C0.281609 20.9429 0.735786 20.9644 1.2954 20.9644C1.98477 20.9644 2.38218 20.9214 2.52816 20.814C2.65792 20.7388 2.78769 20.5776 2.83635 20.4702C2.88501 20.3412 2.92557 17.3973 2.94179 4.50405Z" fill="#EE5253"/>
<path d="M32.9009 20.266C33.0307 20.2123 33.0388 19.7503 33.0388 12.4764C33.0388 5.18095 33.0307 4.74043 32.9009 4.74043C32.8198 4.75117 32.2845 4.85862 30.6463 5.23467L30.63 12.9384C30.6138 19.0197 30.63 20.6528 30.7111 20.7065C30.7598 20.7388 31.2464 20.6636 31.7817 20.5346C32.317 20.4164 32.8198 20.2875 32.9009 20.266Z" fill="#EE5253"/>
<path d="M36.6873 0.645592C36.6018 0.462674 36.3988 0.247477 36.2278 0.161398H36.2384C36.0674 0.075319 35.6827 0.0107599 35.3834 0C35.0307 0 34.6994 0.075319 34.4963 0.193678C34.3253 0.290516 34.1116 0.505714 34.0154 0.667111C33.8978 0.893069 33.8551 1.32346 33.8551 3.92735L36.8477 3.87355V2.42097C36.8477 1.34498 36.8049 0.882309 36.6873 0.645592Z" fill="#C7D2E5"/>
<path d="M3.14424 0.75319C3.05873 0.581033 2.85567 0.333556 2.69535 0.215197C2.48159 0.0537994 2.24646 0 1.73344 0C1.16699 0 1.00667 0.0430397 0.739471 0.268997C0.557777 0.419635 0.376083 0.720911 0.311954 0.936108C0.258514 1.16207 0.205074 1.91526 0.205074 3.87355H3.30455V2.47477C3.30455 1.44182 3.2618 0.989907 3.14424 0.75319Z" fill="#C7D2E5"/>
<path d="M36.6767 144.436C36.8156 144.156 36.837 52.067 36.837 37.6057V21.0893H33.8444V37.6272C33.8444 53.993 33.8444 144.167 34.0581 144.49C34.1757 144.662 34.3788 144.866 34.5177 144.942C34.646 145.017 35.0093 145.071 35.3193 145.082C35.6186 145.082 36.0247 145.006 36.1957 144.92C36.3774 144.834 36.5911 144.608 36.6767 144.436Z" fill="#C7D2E5"/>
<path d="M3.14424 43.8922C3.28318 43.6124 3.30455 51.9701 3.30455 37.5519V21.0893H0.205074V37.4981C0.205074 50.8619 0.226456 43.5263 0.344021 43.8169C0.429523 43.9998 0.632591 44.2688 0.803596 44.4086C1.04942 44.6023 1.25249 44.6561 1.75482 44.6561C2.23577 44.6561 2.47091 44.5916 2.69535 44.4302C2.85567 44.3118 3.05873 44.0643 3.14424 43.8922Z" fill="#C7D2E5"/>
<rect y="3.77344" width="2.31558" height="4.40257" fill="white"/>
<rect y="12.5781" width="2.31558" height="4.40257" fill="white"/>
<rect x="34.7344" y="8.17383" width="2.31558" height="4.40257" fill="white"/>
<rect x="34.7344" y="16.9805" width="2.31558" height="4.40257" fill="white"/>
<rect x="18.5273" y="3.77344" width="2.31558" height="4.40257" fill="white"/>
<rect x="18.5273" y="12.5781" width="2.31558" height="4.40257" fill="white"/>
<rect x="16.2109" y="8.17383" width="2.31558" height="4.40257" fill="white"/>
<rect x="16.2109" y="16.9805" width="2.31558" height="4.40257" fill="white"/>
<rect x="9.26172" y="3.77344" width="2.31558" height="4.40257" fill="white"/>
<rect x="9.26172" y="12.5781" width="2.31558" height="4.40257" fill="white"/>
<rect x="6.94531" y="8.17383" width="2.31558" height="4.40257" fill="white"/>
<rect x="6.94531" y="16.9805" width="2.31558" height="4.40257" fill="white"/>
<rect x="27.7891" y="3.77344" width="2.31558" height="4.40257" fill="white"/>
<rect x="27.7891" y="12.5781" width="2.31558" height="4.40257" fill="white"/>
<rect x="25.4727" y="8.17383" width="2.31558" height="4.40257" fill="white"/>
<rect x="25.4727" y="16.9805" width="2.31558" height="4.40257" fill="white"/>
<rect x="4.63281" y="3.77344" width="2.31558" height="4.40257" fill="white"/>
<rect x="4.63281" y="12.5781" width="2.31558" height="4.40257" fill="white"/>
<rect x="2.31641" y="8.17383" width="2.31558" height="4.40257" fill="white"/>
<rect x="2.31641" y="16.9805" width="2.31558" height="4.40257" fill="white"/>
<rect x="23.1562" y="3.77344" width="2.31558" height="4.40257" fill="white"/>
<rect x="23.1562" y="12.5781" width="2.31558" height="4.40257" fill="white"/>
<rect x="20.8398" y="8.17383" width="2.31558" height="4.40257" fill="white"/>
<rect x="20.8398" y="16.9805" width="2.31558" height="4.40257" fill="white"/>
<rect x="13.8945" y="3.77344" width="2.31558" height="4.40257" fill="white"/>
<rect x="13.8945" y="12.5781" width="2.31558" height="4.40257" fill="white"/>
<rect x="11.5781" y="8.17383" width="2.31558" height="4.40257" fill="white"/>
<rect x="11.5781" y="16.9805" width="2.31558" height="4.40257" fill="white"/>
<rect x="32.418" y="3.77344" width="2.31558" height="4.40257" fill="white"/>
<rect x="32.418" y="12.5781" width="2.31558" height="4.40257" fill="white"/>
<rect x="30.1016" y="8.17383" width="2.31558" height="4.40257" fill="white"/>
<rect x="30.1016" y="16.9805" width="2.31558" height="4.40257" fill="white"/>
<rect x="2.31641" y="3.77344" width="2.31558" height="4.40257" fill="#252525"/>
<rect x="2.31641" y="12.5781" width="2.31558" height="4.40257" fill="#252525"/>
<rect y="8.17383" width="2.31558" height="4.40257" fill="#252525"/>
<rect y="16.9805" width="2.31558" height="4.40257" fill="#252525"/>
<rect x="20.8398" y="3.77344" width="2.31558" height="4.40257" fill="#252525"/>
<rect x="20.8398" y="12.5781" width="2.31558" height="4.40257" fill="#252525"/>
<rect x="18.5273" y="8.17383" width="2.31558" height="4.40257" fill="#252525"/>
<rect x="18.5273" y="16.9805" width="2.31558" height="4.40257" fill="#252525"/>
<rect x="11.5781" y="3.77344" width="2.31558" height="4.40257" fill="#252525"/>
<rect x="11.5781" y="12.5781" width="2.31558" height="4.40257" fill="#252525"/>
<rect x="9.26172" y="8.17383" width="2.31558" height="4.40257" fill="#252525"/>
<rect x="9.26172" y="16.9805" width="2.31558" height="4.40257" fill="#252525"/>
<rect x="30.1016" y="3.77344" width="2.31558" height="4.40257" fill="#252525"/>
<rect x="30.1016" y="12.5781" width="2.31558" height="4.40257" fill="#252525"/>
<rect x="27.7891" y="8.17383" width="2.31558" height="4.40257" fill="#252525"/>
<rect x="27.7891" y="16.9805" width="2.31558" height="4.40257" fill="#252525"/>
<rect x="6.94531" y="3.77344" width="2.31558" height="4.40257" fill="#252525"/>
<rect x="6.94531" y="12.5781" width="2.31558" height="4.40257" fill="#252525"/>
<rect x="4.63281" y="8.17383" width="2.31558" height="4.40257" fill="#252525"/>
<rect x="4.63281" y="16.9805" width="2.31558" height="4.40257" fill="#252525"/>
<rect x="25.4727" y="3.77344" width="2.31558" height="4.40257" fill="#252525"/>
<rect x="25.4727" y="12.5781" width="2.31558" height="4.40257" fill="#252525"/>
<rect x="23.1562" y="8.17383" width="2.31558" height="4.40257" fill="#252525"/>
<rect x="23.1562" y="16.9805" width="2.31558" height="4.40257" fill="#252525"/>
<rect x="16.2109" y="3.77344" width="2.31558" height="4.40257" fill="#252525"/>
<rect x="16.2109" y="12.5781" width="2.31558" height="4.40257" fill="#252525"/>
<rect x="13.8945" y="8.17383" width="2.31558" height="4.40257" fill="#252525"/>
<rect x="13.8945" y="16.9805" width="2.31558" height="4.40257" fill="#252525"/>
<rect x="34.7344" y="3.77344" width="2.31558" height="4.40257" fill="#252525"/>
<rect x="34.7344" y="12.5781" width="2.31558" height="4.40257" fill="#252525"/>
<rect x="32.418" y="8.17383" width="2.31558" height="4.40257" fill="#252525"/>
<rect x="32.418" y="16.9805" width="2.31558" height="4.40257" fill="#252525"/>
</svg>
