<svg width="18" height="18" viewBox="0 0 18 18" fill="none" xmlns="http://www.w3.org/2000/svg">
<path d="M9.0013 4.83268V3.16602C9.0013 2.945 9.0891 2.73304 9.24538 2.57676C9.40166 2.42048 9.61362 2.33268 9.83464 2.33268C10.0556 2.33268 10.2676 2.24488 10.4239 2.0886C10.5802 1.93232 10.668 1.72036 10.668 1.49935V0.666016M7.33464 12.3327L6.08464 11.0827M6.08464 11.0827L4.83464 9.83268M6.08464 11.0827L4.83464 12.3327M6.08464 11.0827L7.33464 9.83268M13.168 11.916V10.2493M0.667969 11.0827C0.667969 8.34352 0.667969 6.97352 1.42464 6.05102C1.56305 5.88239 1.71768 5.72776 1.8863 5.58935C2.80964 4.83268 4.17797 4.83268 6.91797 4.83268H11.0846C13.8246 4.83268 15.1938 4.83268 16.1163 5.58935C16.2849 5.72776 16.4396 5.88239 16.578 6.05102C17.3346 6.97435 17.3346 8.34268 17.3346 11.0827C17.3346 13.8227 17.3346 15.1918 16.578 16.1143C16.4396 16.283 16.2849 16.4376 16.1163 16.576C15.193 17.3327 13.8246 17.3327 11.0846 17.3327H6.91797C4.1788 17.3327 2.8088 17.3327 1.8863 16.576C1.71768 16.4376 1.56305 16.283 1.42464 16.1143C0.667969 15.191 0.667969 13.8227 0.667969 11.0827Z" stroke="#FF8B13" stroke-linecap="round" stroke-linejoin="round"/>
</svg>
