<svg width="60" height="60" viewBox="0 0 60 60" fill="none" xmlns="http://www.w3.org/2000/svg">
<path fill-rule="evenodd" clip-rule="evenodd" d="M34.9805 0C35.4141 0 35.8359 0.0703125 36.0938 0.1875C36.3164 0.304688 36.6914 0.527344 36.9141 0.703125C37.1367 0.878906 37.4648 1.30078 37.6523 1.65234C37.9688 2.28516 37.9688 2.29687 37.9688 7.03125H57.7148L58.3477 7.34766C58.6992 7.53516 59.1328 7.86328 59.3086 8.08594C59.4844 8.30859 59.7188 8.76562 59.8359 9.08203C59.9688 9.47266 60.0156 9.86328 59.9766 10.2539C59.9414 10.582 59.8008 11.0508 59.6719 11.3086C59.543 11.5664 59.2617 11.9414 59.0391 12.1406C58.8281 12.3516 58.4648 12.6094 58.2422 12.7266C57.8789 12.9258 57.4688 12.9609 52.043 13.0664L60 23.6719V25.6992C60 27.293 59.9531 27.9023 59.7773 28.5938C59.6602 29.0742 59.4141 29.7656 59.2383 30.1172C59.0625 30.4688 58.6992 31.0312 58.4414 31.3477C58.1836 31.6758 57.7148 32.1445 57.4102 32.4023C57.1055 32.6602 56.5195 33.0469 56.1094 33.2461C55.6992 33.457 55.0078 33.7148 54.5508 33.8086C53.8711 33.9727 53.0391 33.9961 49.6289 33.9609C45.5977 33.9141 45.5156 33.9141 44.7656 33.6328C44.3438 33.4688 43.6992 33.1523 43.3125 32.9297C42.9375 32.707 42.3398 32.2031 41.9648 31.8164C41.6016 31.4297 41.1445 30.8203 40.9336 30.4688C40.7344 30.1172 40.4531 29.4492 40.3125 29.0039C40.1016 28.3359 40.043 27.8086 39.9844 26.1914C39.9492 25.1016 39.9609 24.0586 40.0078 23.8828C40.043 23.6953 41.8125 21.2461 43.9219 18.4336C46.0312 15.6094 47.8008 13.2305 47.8477 13.1602C47.918 13.043 46.8984 13.0078 37.9688 13.0078V35.9766H38.6367C39.0117 35.9766 39.5039 36.0234 39.7266 36.0938C39.9492 36.1523 40.3945 36.375 40.7227 36.5859C41.1328 36.8672 41.3906 37.1484 41.625 37.6172C41.9531 38.2383 41.9648 38.3203 41.9531 39.9961C41.9531 40.9453 41.9883 41.7422 42.0352 41.7656C42.0938 41.8008 43.4297 42.0352 45.0234 42.293C47.168 42.6445 48.082 42.8438 48.4805 43.0547C48.7969 43.207 49.1836 43.4883 49.3594 43.6758C49.5234 43.8516 49.7812 44.2266 49.9102 44.5078C50.0742 44.8242 50.2031 44.9766 50.2969 44.918C50.3789 44.8711 51.5273 44.0508 52.8516 43.0898C54.6914 41.7656 55.4062 41.3086 55.8984 41.168C56.2969 41.0508 56.7305 41.0156 57.0352 41.0625C57.3164 41.0977 57.8086 41.25 58.1484 41.3906C58.4766 41.543 58.9219 41.8594 59.1445 42.0938C59.3555 42.3398 59.6367 42.7734 59.7656 43.0664C59.9062 43.3945 60 43.8516 60 44.2617C60 44.7422 59.918 45.1172 59.7188 45.5273C59.5664 45.8438 59.2031 46.3359 58.9219 46.5938C58.6523 46.8633 55.1719 49.6875 51.2109 52.8633C47.25 56.0508 43.7109 58.8164 43.3594 59.0391C43.0078 59.25 42.3047 59.5547 41.8008 59.707C41.1211 59.9297 40.6523 60 39.8672 60C39.0586 60 38.6367 59.9297 37.8516 59.6602C37.3008 59.4727 34.1953 58.3594 25.0195 55.0312L19.8047 54.9609L19.5352 55.2773C19.3945 55.4531 19.0664 55.6875 18.8086 55.8047C18.4453 55.957 18.0352 56.0156 17.0508 56.0156C15.7734 56.0156 15.7617 56.0156 15.4102 56.3672C15.2109 56.5664 14.9297 56.7773 14.7656 56.8359C14.5781 56.918 12.1055 56.9414 1.23047 56.8945L0.832031 56.6016C0.609375 56.4375 0.328125 56.0977 0.210938 55.8398C0.0234375 55.4062 0 54.8672 0 48.9844C0 42.8555 0.0117188 42.5742 0.234375 42.0938C0.398438 41.7656 0.632812 41.5078 1.46484 41.0156H7.93359C11.9883 41.0156 14.5195 41.0625 14.707 41.1328C14.8711 41.2031 15.1758 41.4023 15.375 41.5898C15.75 41.9062 15.8203 41.9297 17.168 41.9766C18.3516 42.0117 18.6445 42.0586 19.0078 42.2812C19.2539 42.4219 19.5 42.6445 19.5703 42.7734C19.6758 42.9961 19.8047 43.0078 21.8789 43.0078C23.6016 43.0078 24.1992 42.9727 24.6094 42.832C24.9023 42.7266 25.6406 42.2695 26.25 41.8125C26.8594 41.3672 27.5039 40.9102 27.6914 40.8047C28.0078 40.6055 28.0078 40.582 28.0078 39.4922C28.0078 38.625 28.0664 38.2617 28.2539 37.8516C28.3828 37.5586 28.6641 37.1484 28.8633 36.9375C29.0742 36.7148 29.4492 36.4336 29.707 36.3047C30 36.1523 30.5273 36.0352 31.9922 35.918V13.0078H26.9766C22.8984 12.9961 21.9961 13.0195 22.1016 13.1484C22.1719 13.2305 23.9766 15.6328 30 23.6719V25.6875C30 27.293 29.9531 27.9023 29.7773 28.5938C29.6602 29.0742 29.4141 29.7656 29.2383 30.1172C29.0625 30.4688 28.6992 31.0195 28.4414 31.3477C28.1836 31.6641 27.7148 32.1445 27.4102 32.4023C27.1055 32.6602 26.5195 33.0469 26.1094 33.2461C25.6992 33.457 24.9961 33.7148 24.5508 33.8086C23.8711 33.9727 23.0391 33.9961 19.6289 33.9609C15.5977 33.9141 15.5156 33.9141 14.7656 33.6328C14.3438 33.4688 13.6992 33.1523 13.3125 32.9297C12.9375 32.707 12.3398 32.2031 11.9648 31.8164C11.6016 31.4297 11.1445 30.8203 10.9336 30.4688C10.7344 30.1172 10.4531 29.4492 10.3125 29.0039C10.1016 28.3359 10.043 27.8086 9.98438 26.1914C9.94922 25.0898 9.96094 24.0586 10.0078 23.8711C10.043 23.6953 11.8477 21.1992 17.9414 13.0664L15.0938 13.0078C12.4805 12.9492 12.1992 12.9258 11.7188 12.6914C11.4258 12.5508 11.0156 12.2344 10.793 11.9883C10.5703 11.7422 10.3125 11.3555 10.2188 11.1328C10.125 10.9102 10.043 10.4297 10.0312 10.0781C10.0312 9.72656 10.1133 9.19922 10.2188 8.90625C10.3359 8.57812 10.6289 8.17969 10.9805 7.85156C11.2969 7.55859 11.7656 7.25391 12.0234 7.18359C12.3633 7.06641 14.8359 7.03125 31.9922 7.03125L32.0156 4.59375C32.0508 2.35547 32.0742 2.13281 32.3086 1.69922C32.4492 1.44141 32.7305 1.06641 32.9531 0.867188C33.1641 0.65625 33.5508 0.386719 33.8086 0.257812C34.1211 0.09375 34.5117 0.0078125 34.9805 0ZM34.0078 2.67188L33.9844 6.03516H35.9766C35.9648 3.1875 35.918 2.57812 35.8242 2.44922C35.7422 2.34375 35.5664 2.20312 35.4141 2.13281C35.2734 2.05078 35.0508 1.99219 34.9102 1.99219C34.7812 1.99219 34.5234 2.14453 34.3359 2.33203L34.0078 2.67188ZM33.8672 8.34375C33.7148 8.44922 33.457 8.74219 33.3164 8.98828C33.1523 9.26953 33.0586 9.63281 33.0586 10.0195C33.0469 10.4414 33.1172 10.7109 33.3164 11.0039C33.457 11.2266 33.7617 11.5312 33.9844 11.6836C34.2891 11.8828 34.5586 11.9531 34.9805 11.9531C35.3672 11.9414 35.7305 11.8477 36.0234 11.6836C36.2695 11.543 36.5625 11.2617 36.6797 11.0742C36.7969 10.875 36.9258 10.5586 36.9727 10.3711C37.0195 10.1719 36.9844 9.78516 36.9141 9.49219C36.832 9.1875 36.6094 8.80078 36.4102 8.60156C36.2109 8.39062 35.8242 8.16797 35.5664 8.09766C35.3086 8.02734 35.0273 7.96875 34.9219 7.98047C34.8281 7.98047 34.6172 8.02734 34.4531 8.07422C34.3008 8.12109 34.0312 8.25 33.8672 8.34375ZM12.0703 9.66797C11.9883 9.87891 12 10.0664 12.1289 10.3711C12.2344 10.5938 12.4453 10.8281 12.5977 10.8984C12.7852 10.9688 16.207 11.0156 22.0078 11.0156H31.1133V9.02344C13.9102 9.02344 12.6914 9.04688 12.457 9.19922C12.3164 9.29297 12.1406 9.50391 12.0703 9.66797ZM38.9648 11.0156H57.3281C57.8555 10.4648 58.0078 10.207 58.0078 10.0781C58.0078 9.94922 57.9492 9.72656 57.8789 9.57422C57.7969 9.43359 57.6562 9.24609 57.5508 9.17578C57.4102 9.05859 55.2188 9.02344 48.1641 9.02344H38.9648V11.0156ZM13.1602 22.9102C13.1719 22.9336 16.2891 22.9453 20.0625 22.9336L26.9414 22.9102C21.7734 16.0078 20.2031 13.9336 20.1211 13.8516C20.0039 13.7461 19.2656 14.6602 16.5586 18.2812C14.6719 20.7891 13.1484 22.875 13.1602 22.9102ZM43.1602 22.9102C43.1719 22.9336 46.2891 22.9453 50.0625 22.9336L56.9414 22.9102C51.7734 16.0078 50.2031 13.9336 50.1211 13.8516C50.0039 13.7461 49.2656 14.6602 46.5586 18.2812C44.6719 20.7891 43.1484 22.875 43.1602 22.9102ZM33.9844 35.9766H35.9766V13.8867H33.9844V35.9766ZM11.9414 26.0039C11.9531 26.4961 12.0117 27.2461 12.082 27.6797C12.1406 28.1133 12.3164 28.7461 12.4805 29.0859C12.6328 29.4258 12.9961 29.9648 13.2891 30.293C13.5703 30.6094 14.0859 31.043 14.4375 31.2539C14.7773 31.4648 15.4102 31.7109 15.8203 31.8164C16.4648 31.9805 17.1797 32.0039 20.3906 31.9687L24.1992 31.9336C25.4297 31.3359 26.0625 30.9141 26.4023 30.5977C26.7422 30.2812 27.1641 29.7656 27.3281 29.4492C27.5039 29.1445 27.7266 28.5703 27.832 28.1836C27.9375 27.75 28.0195 26.9883 28.0195 26.2148L28.0078 24.9609C15.6914 24.9609 12.0703 24.9961 12.0117 25.0312C11.9648 25.0781 11.9297 25.5117 11.9414 26.0039ZM41.9414 26.0039C41.9531 26.4961 42.0117 27.2461 42.082 27.6797C42.1406 28.1133 42.3164 28.7461 42.4805 29.0859C42.6328 29.4258 42.9961 29.9648 43.2891 30.293C43.5703 30.6094 44.0859 31.043 44.4375 31.2539C44.7773 31.4648 45.4102 31.7109 45.8203 31.8164C46.4648 31.9805 47.1797 32.0039 50.3906 31.9687L54.1992 31.9336C55.4297 31.3359 56.0625 30.9141 56.4023 30.5977C56.7422 30.2812 57.1641 29.7656 57.3281 29.4492C57.5039 29.1445 57.7266 28.5703 57.832 28.1836C57.9375 27.75 58.0195 26.9883 58.0195 26.2148L58.0078 24.9609C45.6914 24.9609 42.0703 24.9961 42.0117 25.0312C41.9648 25.0781 41.9297 25.5117 41.9414 26.0039ZM30.1875 38.4609C30.0703 38.625 30 38.9648 30 39.375L30.0117 40.0195C31.1367 40.043 33.2578 40.3477 35.4492 40.7109C37.6406 41.0742 39.5625 41.3906 39.7031 41.4258C39.9609 41.4844 39.9609 41.4727 39.9609 40.043C39.9609 39.1055 39.9141 38.543 39.8203 38.4258C39.7383 38.3203 39.5508 38.1797 39.4102 38.0977C39.2227 38.0039 37.9453 37.9688 35.0156 37.9688C32.7422 37.9805 30.7734 38.0273 30.6328 38.0859C30.4922 38.1328 30.293 38.3086 30.1875 38.4609ZM29.1211 42.3047C28.9336 42.375 28.1953 42.8672 27.4805 43.3945C26.7773 43.9219 25.875 44.4727 25.4883 44.6367C24.832 44.918 24.6445 44.9414 22.418 44.9648L20.0391 45V52.9688L25.3711 53.0391C36.4453 57.0352 38.9766 57.8906 39.4336 57.9492C39.8672 57.9961 40.3945 57.9844 40.7812 57.8906C41.1445 57.8203 41.6719 57.6562 41.9531 57.5273C42.2695 57.3984 45.6914 54.7266 50.0977 51.1758C55.1836 47.0859 57.7734 44.9414 57.8789 44.707C57.9961 44.4492 58.0195 44.2383 57.9375 43.957C57.8789 43.7344 57.6914 43.4414 57.5039 43.3125C57.3047 43.1602 57 43.0664 56.7422 43.0664C56.3789 43.0664 56.0977 43.207 55.2539 43.8164C54.6797 44.2383 51.75 46.3711 48.75 48.5625C45.7617 50.7422 43.1484 52.6289 42.9492 52.7461C42.7617 52.875 42.375 52.9688 42.1055 52.9688C41.8359 52.9688 41.4492 52.8867 41.25 52.793C41.0625 52.6992 39.9375 51.7969 38.7656 50.8008L36.6211 48.9844C33.2578 48.9727 32.5898 48.9258 32.4609 48.832C32.3555 48.75 32.2031 48.5742 32.1328 48.4219C32.0625 48.2812 31.9922 48.0586 31.9922 47.9297C31.9922 47.8008 32.1562 47.5312 32.3438 47.3438L32.6836 46.9922H47.4609C48.0117 46.5352 48.1992 46.2539 48.2227 46.0547C48.2578 45.8555 48.2109 45.5391 48.1055 45.3516C48.0117 45.1523 47.7656 44.918 47.5547 44.8242C47.3438 44.7305 43.6172 44.0742 39.2578 43.3711C34.9102 42.668 31.1719 42.0703 30.9375 42.0469C30.7148 42.0117 30.293 42.0234 30 42.082C29.7188 42.1289 29.3203 42.2227 29.1211 42.3047ZM1.99219 54.9609H13.9453V43.0078H1.99219V54.9609ZM16.0547 54.0234L17.9883 53.9648V44.0039L16.0664 43.9336L16.0547 54.0234ZM40.9805 50.0625L42.0117 50.9531C43.957 49.5586 44.4961 49.125 44.4727 49.0664C44.4375 49.0195 43.418 48.9844 42.1875 48.9844C40.9688 48.9844 39.9609 49.0195 39.9609 49.0664C39.9609 49.125 40.418 49.5586 40.9805 50.0625Z" fill="white"/>
</svg>
