<svg width="157" height="140" viewBox="0 0 157 140" fill="none" xmlns="http://www.w3.org/2000/svg">
<path opacity="0.25" fill-rule="evenodd" clip-rule="evenodd" d="M102.984 3.01928C104.509 2.10453 106.704 1.06781 107.863 0.640919C109.144 0.153049 111.949 -0.090886 114.876 0.0310815C118.84 0.153049 120.487 0.518951 123.719 2.10453C126.036 3.20224 128.659 5.09273 130.061 6.67831C131.403 8.08094 133.171 10.8252 134.025 12.6547C135.367 15.46 135.611 16.8626 135.611 21.4974C135.611 26.437 135.428 27.4128 133.72 30.9498C132.562 33.3282 130.671 35.8895 129.146 37.2921C127.683 38.5728 124.939 40.3413 123.109 41.2561C120.243 42.5977 118.962 42.8417 114.266 42.8417C109.571 42.7807 108.29 42.5367 105.302 41.1341C103.35 40.2194 100.545 38.2679 99.0205 36.7433C97.4959 35.2187 95.5444 32.4134 94.6296 30.462C93.166 27.4738 92.9221 26.2541 92.9221 21.4974C92.9221 16.8626 93.166 15.46 94.5077 12.6547C95.3615 10.8252 97.008 8.26389 98.1667 6.92224C99.3254 5.64159 101.46 3.87306 102.984 3.01928ZM25.8373 46.4373C24.1298 46.8032 20.8367 48.0839 18.5193 49.1816C15.5921 50.6452 12.9088 52.5967 9.92057 55.5849C7.11532 58.4511 4.98089 61.2564 3.70023 63.8787C2.60252 66.0741 1.32186 69.9161 0.77301 72.4164C0.0412049 76.1364 -0.0807626 80.7712 0.0412049 96.9319L0.224156 116.813C2.60252 119.313 4.12712 120.289 5.10286 120.716C6.4445 121.203 7.48122 121.203 9.18877 120.716C10.7134 120.228 11.933 119.313 12.7258 118.032C13.8235 116.142 13.8845 114.8 13.9455 93.4558C13.9455 75.6485 14.1894 69.977 14.9212 66.6229C15.4091 64.2446 16.5678 61.0124 17.4826 59.3049C18.3973 57.6583 20.6537 54.7311 22.4832 52.8406C24.3127 50.9501 27.4839 48.5718 29.4964 47.535L29.4964 47.535L29.4964 47.535C31.6039 46.4277 32.4769 45.969 32.4219 45.7789C32.383 45.6445 31.8799 45.6445 31.0209 45.6445C29.8623 45.7055 27.4839 46.0104 25.8373 46.4373ZM133.167 51.8702C131.521 50.4066 128.776 48.5161 127.069 47.7233L124.02 46.2597H126.154C127.313 46.1987 129.935 46.6256 131.947 47.1745C133.96 47.7233 137.497 49.1259 139.814 50.3456C142.498 51.8092 145.303 54.0047 147.62 56.444C149.572 58.5174 151.95 61.8106 152.926 63.7011C153.902 65.6525 155.121 68.7627 155.67 70.5922C156.524 73.3975 156.646 77.3614 156.646 116.94L154.572 119.074C152.804 120.904 152.072 121.209 149.816 121.209C148.047 121.148 146.705 120.721 145.547 119.806C144.632 119.074 143.656 117.794 143.351 116.94C142.985 116.086 142.742 105.17 142.681 91.8146C142.62 69.8604 142.559 67.9089 141.4 64.4939C140.729 62.4814 139.265 59.4322 138.229 57.6637C137.131 55.9561 134.875 53.3338 133.167 51.8702ZM99.9357 50.8979C101.094 50.1661 103.595 49.1294 105.424 48.5196C107.376 47.9097 110.852 47.4829 113.657 47.4219C116.462 47.4219 119.938 47.8488 121.89 48.3976C123.719 48.9465 126.342 50.0442 127.683 50.776C129.025 51.5688 131.647 53.7642 133.477 55.7766C135.672 58.033 137.441 60.6553 138.355 62.9727C139.819 66.5708 139.88 66.8757 140.49 116.821L142.319 119.505C143.722 121.456 145.003 122.432 147.32 123.347C148.805 123.929 149.581 124.233 150.066 124.791C150.597 125.401 150.78 126.314 151.162 128.225C151.711 131.153 151.711 132.25 151.04 133.653C150.613 134.629 149.516 135.787 148.601 136.214C147.625 136.702 145.674 137.068 141.405 137.068V157.619C141.405 176.22 141.283 178.476 140.246 180.671C139.636 182.013 138.173 184.025 136.953 185.062C135.672 186.16 133.66 187.319 132.44 187.684C131.159 187.989 129.452 188.294 128.598 188.294C127.744 188.294 126.098 187.989 124.939 187.623C123.78 187.197 121.89 186.16 120.731 185.306C119.573 184.452 117.987 182.318 117.194 180.671C115.853 177.683 115.792 177.195 115.792 137.068H112.742L112.559 158.229C112.437 176.463 112.254 179.696 111.401 181.281C110.852 182.257 109.388 184.025 108.108 185.123C106.766 186.221 104.632 187.38 103.29 187.745C101.948 188.111 99.7528 188.294 98.4112 188.111C97.0695 187.928 95.24 187.38 94.2643 186.953C93.4204 186.546 93.009 186.348 92.9644 186.088C92.9221 185.84 93.2115 185.535 93.7764 184.94C94.4472 184.269 95.301 182.867 95.6669 181.891C96.0938 180.671 96.3377 174.39 96.2767 146.825H98.899C100.546 146.886 102.07 146.459 103.168 145.606C104.083 144.935 105.119 143.349 105.485 142.069C105.912 140.666 106.095 135.056 105.729 113.589L103.839 109.625C102.863 107.43 100.79 104.32 99.3259 102.734C97.6184 100.844 95.118 99.0751 92.8007 97.9774C90.1783 96.7577 87.8 96.1479 85.2997 96.0259C83.2872 95.9649 81.6406 95.721 81.6406 95.4161C81.6406 95.1721 82.3724 94.7453 83.3482 94.5013C84.2629 94.1964 86.1534 92.9157 87.617 91.5741C89.0806 90.2934 90.8492 87.9761 91.52 86.4515C92.3738 84.622 92.8007 82.5485 92.8007 80.0482C92.8007 77.6698 92.3128 75.4134 91.52 73.6449C90.7882 72.1203 89.8124 70.4737 89.2636 69.9859C88.7147 69.498 88.2878 68.4003 88.3488 67.5465C88.3488 66.6927 89.2026 64.3144 90.1783 62.1799C91.2151 60.1065 93.2885 56.9963 94.8741 55.2888C96.5207 53.5812 98.7771 51.6298 99.9357 50.8979ZM71.5839 68.0903C70.2423 68.7002 68.4128 69.9808 67.498 70.9566C66.5832 71.9323 65.4245 73.7618 64.9367 75.0425C64.3878 76.2622 63.9609 78.5186 63.9609 80.0431C63.9609 81.5677 64.3878 83.8241 64.9367 85.1048C65.4245 86.3245 66.5832 88.154 67.498 89.0687C68.4128 90.0445 70.2423 91.3861 71.5839 92.0569C73.2305 92.9107 75.121 93.2766 77.3774 93.2156C79.5118 93.2156 81.7072 92.6668 83.4147 91.813C84.9393 91.0202 86.8298 89.4346 87.6836 88.2759C88.5374 87.1173 89.5741 84.7999 90.001 83.0923C90.5499 80.9579 90.6108 79.2504 90.1839 77.2989C89.818 75.5913 88.7203 73.5179 87.3177 71.8713C86.037 70.3467 83.9026 68.6392 82.561 68.0294C81.2193 67.4805 78.719 66.9316 77.0724 66.9316C75.3649 66.9316 72.9255 67.4805 71.5839 68.0903ZM89.4367 101.939C88.3389 100.902 86.7534 99.5606 85.8996 99.0118L84.375 97.9141L86.5094 98.341C87.6681 98.5849 89.9855 99.3777 91.6321 100.109C93.4616 100.841 95.9009 102.732 97.7914 104.744C99.8649 106.98 101.268 109.216 101.999 111.452C102.975 114.197 103.219 117.185 103.341 127.918C103.585 140.237 103.524 141.152 102.365 142.676C101.45 143.957 100.597 144.384 99.194 144.384C98.0354 144.445 96.8157 144.018 96.2668 143.408C95.535 142.554 95.2911 139.383 95.0472 126.15L95.0458 126.08C94.7422 110.049 94.7398 109.923 93.0957 106.879C92.2419 105.171 90.5953 102.976 89.4367 101.939ZM63.6444 99.8602C61.9369 100.47 59.2536 102.178 57.607 103.641C55.7165 105.349 54.009 107.666 52.7893 110.227L50.8988 114.191C50.4719 141.024 50.4719 141.695 51.6916 143.342C52.6063 144.5 53.5211 144.988 54.7408 144.988C55.7165 144.988 56.9972 144.561 57.485 144.073C58.3388 143.281 58.4608 141.024 58.4608 128.34C58.4608 118.521 58.7047 112.545 59.1926 110.532C59.6195 108.825 60.7782 106.263 61.8149 104.8C62.8516 103.336 64.7421 101.385 66.0837 100.409C67.4254 99.4333 68.0962 98.6405 67.6083 98.6405C67.1205 98.7015 65.3519 99.2504 63.6444 99.8602ZM70.7785 100.654C69.6808 101.081 67.7293 102.24 66.5096 103.277C65.29 104.252 63.5824 106.448 62.7286 108.155C61.265 111.022 61.204 111.753 60.7162 127.609C60.4722 136.696 60.1673 152.308 60.1063 162.431L59.9844 180.787C62.7286 184.385 64.1923 185.483 65.6559 185.971C67.4854 186.52 68.4001 186.459 70.3516 185.788C71.8762 185.239 73.3398 184.08 74.1936 182.8C75.5352 180.726 75.5962 180.177 75.5352 167.98C75.5352 155.784 75.5962 155.357 76.7549 155.357C77.9136 155.357 77.9746 155.784 77.9746 167.554C77.9746 177.067 78.1575 180.238 78.8893 181.885C79.3772 183.043 80.4139 184.446 81.2067 184.934C81.9385 185.422 83.5241 186.032 84.6828 186.215C86.1464 186.52 87.549 186.276 89.1956 185.483C90.4762 184.812 92.0618 183.47 92.6717 182.495C93.7694 180.787 93.7694 179.445 93.5254 162.065C93.4035 151.82 93.0376 136.086 92.7936 126.999C92.3667 111.814 92.1838 110.351 90.9641 108.094C90.2323 106.753 88.7687 104.801 87.61 103.704C86.5123 102.606 84.5608 101.325 83.3411 100.837C81.9385 100.228 79.3162 99.8616 76.9379 99.9226C74.6205 99.9226 71.8762 100.289 70.7785 100.654ZM34.069 48.5151C32.2395 49.125 29.7392 50.1617 28.5805 50.8935C27.4218 51.6253 25.1654 53.5768 23.5188 55.2843C21.9333 56.9919 19.9818 59.8581 19.128 61.5656C18.3352 63.3342 17.3595 66.1394 17.0546 67.847C16.7496 69.4935 16.4447 81.1414 16.4447 93.5821C16.3837 107.425 16.1398 116.817 15.7739 117.549C15.408 118.341 15.1641 129.867 15.1641 148.467C15.1641 175.91 15.286 178.41 16.3228 180.667C16.9326 182.009 18.3962 184.021 19.6159 185.058C20.8965 186.155 22.909 187.314 24.1897 187.68C25.4093 187.985 27.1169 188.29 27.9706 188.29C28.8244 188.29 30.532 187.985 31.8126 187.68C33.0933 187.314 35.1667 185.972 36.6913 184.448C38.1549 182.984 39.6185 180.85 40.0454 179.447C40.5333 177.74 40.7772 170.909 40.7772 157.005V137.064H43.8264C43.8264 176.032 43.9484 178.167 44.9241 180.484C45.595 181.948 47.0586 184.021 48.2782 185.058C49.5589 186.155 51.6933 187.375 53.1569 187.741C54.5596 188.107 56.9379 188.229 58.4625 188.046C59.9871 187.802 61.3288 187.497 61.5117 187.375C61.6947 187.192 61.2068 186.46 60.475 185.668C59.7432 184.936 58.8284 183.472 58.4625 182.496C57.9747 181.277 57.7917 175.178 57.7917 164.018L57.8527 147.431C54.0107 147.431 52.2422 146.943 51.1445 146.211C50.0468 145.479 49.071 144.077 48.6441 142.674C48.2173 141.271 48.0953 135.661 48.2173 127.306C48.4002 115.719 48.5832 113.829 49.7418 110.84C50.5346 108.889 52.3641 106.023 54.3156 103.949C56.511 101.449 58.7674 99.7415 61.5117 98.4608C64.5609 96.9972 66.6343 96.4483 70.6593 96.1434C73.5255 95.9605 75.294 95.7165 74.6232 95.6555C73.9524 95.6555 72.0009 94.9237 70.3544 94.1919C68.6468 93.3991 66.5124 91.8136 65.5366 90.6549C64.5609 89.4962 63.2193 87.3618 62.5484 85.8372C61.6337 83.7027 61.3897 82.1781 61.6337 79.129C61.8166 76.3847 62.3655 74.3112 63.4632 72.4207C64.317 70.8961 65.7196 69.0666 66.6343 68.2738C67.4881 67.542 68.2199 66.6273 68.2199 66.3224C68.2199 65.9565 67.4881 64.2489 66.6343 62.4804C65.7196 60.7728 64.134 58.2115 63.0973 56.8699C61.9996 55.5282 59.6212 53.4548 57.7917 52.2351C55.9622 50.9545 52.791 49.4299 50.6566 48.6981C48.0343 47.8443 45.412 47.4174 42.1189 47.4784C39.4356 47.4784 35.9595 47.9663 34.069 48.5151ZM36.8158 0.460055C35.7791 0.764974 33.4617 1.92367 31.6322 3.02137C29.8027 4.11908 27.1804 6.49745 25.7168 8.26597C24.0702 10.2784 22.7286 12.7178 22.1187 14.9132C21.4479 17.2306 21.204 19.9139 21.3869 22.7191C21.5699 25.8903 22.1187 28.0247 23.5214 30.9519C24.6191 33.2693 26.5096 35.8916 28.0951 37.2942C29.4978 38.6359 32.242 40.4044 34.0715 41.2582C36.8768 42.5998 38.2794 42.8438 42.9142 42.8438C47.7319 42.8438 48.8296 42.5998 52.0617 41.0142C54.0742 40.0385 56.8795 38.087 58.2821 36.6234C59.7457 35.1598 61.6362 32.4155 62.551 30.4641C64.0146 27.4759 64.2585 26.2562 64.2585 21.4994C64.2585 16.8037 64.0146 15.523 62.6729 12.6568C61.7582 10.8273 59.9896 8.08302 58.709 6.61941C57.3064 5.09482 54.745 3.20432 52.3667 2.04563C49.0735 0.460055 47.6099 0.155136 43.524 0.033169C40.8407 -0.0278148 37.8525 0.155136 36.8158 0.460055Z" fill="url(#paint0_linear_5574_7364)"/>
<defs>
<linearGradient id="paint0_linear_5574_7364" x1="41" y1="23" x2="41.0001" y2="140" gradientUnits="userSpaceOnUse">
<stop stop-color="#FF8B13"/>
<stop offset="1" stop-color="#FF8B13" stop-opacity="0"/>
</linearGradient>
</defs>
</svg>
