<svg width="83" height="69" viewBox="0 0 83 69" fill="none" xmlns="http://www.w3.org/2000/svg">
<g clip-path="url(#clip0_5491_33592)">
<path fill-rule="evenodd" clip-rule="evenodd" d="M35.7227 13.8551C35.7227 13.8551 37.4588 7.54605 41.6519 5.08043C42.3811 4.65258 43.1188 4.18846 43.7106 3.62282C43.9349 3.40768 44.1425 3.18287 44.3472 2.95565C44.3613 2.93873 44.3753 2.88313 44.3921 2.90247C44.7679 3.29649 44.4762 4.6695 44.4706 5.15537C44.4033 10.1712 41.4275 13.1638 35.7227 13.8576V13.8551Z" fill="#207773"/>
<mask id="mask0_5491_33592" style="mask-type:luminance" maskUnits="userSpaceOnUse" x="35" y="2" width="10" height="12">
<path d="M35.7227 13.8551C35.7227 13.8551 37.4588 7.54605 41.6519 5.08043C42.3811 4.65258 43.1188 4.18846 43.7106 3.62282C43.9349 3.40768 44.1425 3.18287 44.3472 2.95565C44.3613 2.93873 44.3753 2.88313 44.3921 2.90247C44.7679 3.29649 44.4762 4.6695 44.4706 5.15537C44.4033 10.1712 41.4275 13.1638 35.7227 13.8576V13.8551Z" fill="white"/>
</mask>
<g mask="url(#mask0_5491_33592)">
<path fill-rule="evenodd" clip-rule="evenodd" d="M44.4005 1.70256C44.4454 1.89836 44.4819 2.09416 44.5043 2.29237C44.5183 2.41082 44.5127 2.5341 44.5127 2.65497C44.4959 4.3954 43.9097 6.1866 43.0655 7.81826C42.555 8.8021 41.9268 9.77868 40.9928 10.5836C40.3561 11.1323 39.6072 11.6086 38.8696 12.0823C38.8696 12.0823 38.7546 12.1549 38.6705 12.2056C38.0029 12.6286 37.3719 13.0928 36.6595 13.4771C36.48 13.5738 36.2976 13.6608 36.1069 13.743H36.1013C35.919 13.7938 35.7395 13.8421 35.5572 13.8832L35.5039 13.876L35.5263 13.8469C35.5852 13.8228 35.5909 13.8179 35.6217 13.8034C35.7507 13.743 35.8713 13.6729 35.9863 13.598C35.9863 13.598 36.163 13.5134 36.3005 13.4384C36.9203 13.1048 37.47 12.7036 38.031 12.3144C39.1501 11.5433 40.4431 10.8592 41.349 9.87295C42.4428 8.68123 43.116 7.30339 43.6096 5.94971C44.0443 4.75558 44.3501 3.53485 44.3024 2.31896C44.2968 2.12075 44.3024 1.92495 44.2771 1.73157L44.2883 1.69531C44.2883 1.69531 44.3248 1.67355 44.3304 1.67597L44.3781 1.6808C44.3781 1.6808 44.3949 1.70014 44.4033 1.70981L44.4005 1.70256Z" fill="#11534B"/>
<path fill-rule="evenodd" clip-rule="evenodd" d="M43.167 2.61932C43.2062 2.67008 43.2483 2.72084 43.2904 2.77402C43.31 2.79819 43.3381 2.83204 43.3381 2.83204C43.3773 2.88038 43.4166 2.92873 43.4559 2.97707L43.4895 3.02058C43.5316 3.07376 43.5709 3.12694 43.6129 3.18254C43.6129 3.18254 43.6746 3.27681 43.7223 3.34208C43.77 3.4146 43.8177 3.4847 43.8626 3.55722L43.9102 3.63215C44.0393 3.84004 44.1739 4.04792 44.3001 4.25823C44.3141 4.28482 44.3225 4.30657 44.3225 4.30657C44.2244 4.36459 44.1711 4.37909 44.115 4.3936C44.0729 4.34283 44.0533 4.31383 44.0224 4.27273V4.2679C43.9775 4.20746 43.9187 4.12528 43.9187 4.12528C43.8401 4.00441 43.7588 3.88597 43.6802 3.7651L43.6578 3.73368C43.6185 3.67325 43.5765 3.61282 43.54 3.54997L43.5064 3.50404C43.4727 3.44844 43.439 3.39043 43.4026 3.33483L43.3801 3.29615C43.3465 3.23572 43.31 3.17529 43.2764 3.11486C43.2764 3.11486 43.1922 2.95532 43.1277 2.83445C43.0969 2.77886 43.066 2.72326 43.0352 2.66766V2.62415L43.066 2.59273L43.1193 2.58789C43.1333 2.59514 43.1473 2.60481 43.1642 2.61206L43.167 2.61932Z" fill="#11534B"/>
<path fill-rule="evenodd" clip-rule="evenodd" d="M42.5358 3.18893C42.5695 3.22519 42.6031 3.26145 42.6368 3.30013C42.7153 3.38232 42.7883 3.46692 42.8584 3.55394L42.8696 3.56603C42.9537 3.67481 43.0379 3.78842 43.1192 3.90203C43.2903 4.14134 43.4446 4.38549 43.596 4.63205L43.6016 4.64172C43.7307 4.86652 43.8513 5.09133 43.9606 5.32097V5.33064L43.941 5.37173L43.8849 5.39349L43.8316 5.3814C43.8008 5.33306 43.7559 5.26296 43.7559 5.26296C43.7419 5.24362 43.7307 5.22186 43.7194 5.20252C43.6241 5.04782 43.5315 4.89311 43.4334 4.74082C43.4334 4.74082 43.3997 4.68523 43.3688 4.6393C43.1641 4.3033 42.9453 3.97455 42.7069 3.65063C42.7069 3.65063 42.5891 3.47417 42.5106 3.3654C42.4825 3.3243 42.4573 3.28563 42.4265 3.24695C42.4265 3.24695 42.4068 3.20344 42.4489 3.18168C42.4489 3.18168 42.5078 3.16718 42.533 3.19377L42.5358 3.18893Z" fill="#11534B"/>
<path fill-rule="evenodd" clip-rule="evenodd" d="M41.2608 4.08611C41.3506 4.24323 41.4347 4.39311 41.5245 4.54298C41.5245 4.54298 41.5609 4.61066 41.5834 4.65901C41.6703 4.83547 41.7629 5.00951 41.8498 5.18597L41.8639 5.21256C41.9284 5.34068 41.9929 5.46879 42.0546 5.59449L42.0602 5.61141C42.1163 5.72502 42.1668 5.83622 42.2229 5.95225L42.2425 5.99576C42.3126 6.15046 42.3799 6.30517 42.4472 6.45988L42.4528 6.47438C42.6464 6.93366 42.8259 7.39536 42.9689 7.85464L42.9745 7.86915L42.9381 7.89574L42.8764 7.91266L42.8287 7.90782C42.8203 7.89332 42.8175 7.87882 42.809 7.86431C42.5622 7.26725 42.2761 6.67985 41.9816 6.09728C41.9816 6.09728 41.948 6.0296 41.9227 5.98126C41.8162 5.7637 41.7124 5.54856 41.6086 5.33343L41.5946 5.30442C41.4908 5.08686 41.3927 4.86931 41.2945 4.65175L41.2861 4.63483C41.2272 4.46804 41.1683 4.30367 41.1094 4.13446L41.115 4.08853L41.1599 4.05469H41.2188C41.2188 4.05469 41.2468 4.07644 41.258 4.08853L41.2608 4.08611Z" fill="#11534B"/>
<path fill-rule="evenodd" clip-rule="evenodd" d="M42.0194 4.29724C42.0279 4.30933 42.0363 4.32625 42.0475 4.33834L42.0755 4.37943C42.1989 4.56798 42.3252 4.75652 42.4486 4.94749C42.4486 4.94749 42.4766 4.99342 42.499 5.02968C42.6954 5.35117 42.8833 5.67751 43.0432 6.01834C43.1245 6.19239 43.1918 6.36885 43.2535 6.54773C43.3012 6.68551 43.3349 6.82571 43.3657 6.96833L43.3545 6.99492C43.3545 6.99492 43.3461 7.00943 43.3349 7.03602C43.3349 7.03602 43.3208 7.09161 43.2647 7.03843C43.2647 7.03843 43.2535 7.02635 43.2227 7.00459C43.2171 6.9925 43.2143 6.98042 43.2115 6.96591C43.06 6.48246 42.844 6.01351 42.5916 5.55423C42.499 5.38743 42.4093 5.21822 42.3139 5.05385C42.3139 5.05385 42.2242 4.88948 42.1541 4.75894C42.0783 4.61632 42.0054 4.47612 41.9297 4.33592V4.30691L41.9549 4.28516H41.9914C41.9914 4.28516 42.0082 4.29483 42.0194 4.30208V4.29724Z" fill="#11534B"/>
<path fill-rule="evenodd" clip-rule="evenodd" d="M42.4424 3.86407L42.4985 3.92692C42.5742 4.01394 42.6444 4.09855 42.7173 4.18557L42.7453 4.21699L42.765 4.24116C43.0426 4.61584 43.3063 4.99777 43.4942 5.40629C43.5867 5.60209 43.6485 5.80272 43.6877 6.01303C43.6877 6.01303 43.6877 6.08071 43.6877 6.15565L43.6597 6.19191L43.626 6.17498C43.6092 6.12906 43.6064 6.12422 43.5924 6.10247C43.5811 6.07829 43.5643 6.04445 43.5643 6.04445C43.5587 6.03237 43.5559 6.0227 43.5531 6.01061C43.4998 5.83898 43.4353 5.66977 43.3568 5.50298C43.1604 5.0993 42.908 4.69803 42.6331 4.31368C42.6331 4.31368 42.6079 4.27501 42.5883 4.24358L42.563 4.20974C42.4957 4.1058 42.4284 4.00185 42.3611 3.90033L42.3555 3.87132L42.3779 3.84957C42.3779 3.84957 42.4228 3.8399 42.4424 3.86407Z" fill="#11534B"/>
<path fill-rule="evenodd" clip-rule="evenodd" d="M45.2871 3.37508C45.217 3.54429 45.1384 3.7135 45.0515 3.88271C45.0515 3.88271 44.9814 4.00599 44.9337 4.08817C44.771 4.35891 44.5859 4.62481 44.3868 4.88587C44.3447 4.93905 44.2858 5.01641 44.2858 5.01641C44.2409 5.06717 44.2044 5.0986 44.2044 5.0986C44.1876 5.10826 44.154 5.13244 44.154 5.13244C44.1371 5.14211 44.1035 5.16628 44.1035 5.16628L44.0586 5.17595V5.13002C44.067 5.09376 44.0642 5.09376 44.0642 5.09376L44.0726 5.06717C44.081 5.04058 44.081 5.03333 44.081 5.03333C44.1035 5.00432 44.1343 4.95839 44.1343 4.95839C44.1512 4.93906 44.1652 4.9173 44.1792 4.89796C44.541 4.41451 44.886 3.91171 45.1889 3.38716L45.2057 3.35816L45.2618 3.33398C45.2702 3.34849 45.2787 3.36299 45.2871 3.37508Z" fill="#11534B"/>
<path fill-rule="evenodd" clip-rule="evenodd" d="M45.3292 4.44092C45.3039 4.48202 45.2787 4.52553 45.2478 4.56904C45.1805 4.6754 45.1048 4.78418 45.0235 4.88812L45.0178 4.89537C44.7766 5.17819 44.4906 5.44651 44.168 5.69065C44.168 5.69065 44.0839 5.75109 44.0194 5.7946L43.91 5.86228L43.8314 5.88645C43.8146 5.89129 43.7753 5.90338 43.7753 5.90338H43.7305L43.7473 5.85745C43.7585 5.84294 43.7781 5.81635 43.7781 5.81635C43.7894 5.80427 43.8118 5.77042 43.8118 5.77042C44.2017 5.4876 44.5635 5.1927 44.8776 4.85186C44.8776 4.85186 44.9646 4.76242 45.0291 4.68749C45.1076 4.59805 45.1861 4.50619 45.2562 4.4095L45.3151 4.39258C45.3208 4.40708 45.3264 4.42159 45.332 4.43609L45.3292 4.44092Z" fill="#11534B"/>
<path fill-rule="evenodd" clip-rule="evenodd" d="M45.2072 2.89483C45.21 2.92142 45.2072 2.93834 45.2016 2.95285C45.1539 3.0858 45.0978 3.21391 45.0277 3.34203V3.34686C44.8678 3.60551 44.6659 3.85691 44.4275 4.08171C44.3602 4.14456 44.3265 4.17357 44.3265 4.17357L44.262 4.17841L44.2143 4.15182L44.2031 4.13248C44.2031 4.08655 44.2171 4.09138 44.2284 4.07688C44.5004 3.79648 44.7416 3.50882 44.9464 3.18974C44.952 3.18249 44.9576 3.17282 44.9632 3.16315C45.0193 3.07855 45.0698 2.99152 45.1147 2.90692C45.1147 2.90692 45.1399 2.87066 45.1792 2.87791C45.1792 2.87791 45.196 2.88516 45.2072 2.89483Z" fill="#11534B"/>
<path fill-rule="evenodd" clip-rule="evenodd" d="M45.5446 4.60899C45.3651 4.91598 45.1687 5.21572 44.9275 5.51063C44.6022 5.90948 44.1955 6.27449 43.6878 6.58874C43.6261 6.62741 43.5644 6.64675 43.5644 6.64675C43.5336 6.65159 43.5055 6.65642 43.4747 6.66367C43.4747 6.66367 43.3961 6.68301 43.4466 6.62016C43.4466 6.62016 43.4831 6.55248 43.5728 6.48963C44.3329 5.95783 45.0032 5.27374 45.48 4.58723L45.5277 4.57031C45.5277 4.57031 45.5389 4.59449 45.5418 4.60415L45.5446 4.60899Z" fill="#11534B"/>
<path fill-rule="evenodd" clip-rule="evenodd" d="M40.3209 4.84793C40.4107 4.94704 40.5004 5.04856 40.5902 5.14767L40.607 5.16459C41.2128 5.91878 41.7878 6.68506 42.245 7.49001C42.3516 7.67856 42.4497 7.86952 42.5395 8.06532C42.5395 8.06532 42.5413 8.07016 42.5451 8.07982C42.5619 8.1185 42.5787 8.15718 42.5956 8.19585V8.2297C42.59 8.28529 42.59 8.27079 42.5956 8.31188L42.5759 8.34089L42.5367 8.3288C42.5367 8.3288 42.4862 8.27804 42.4441 8.2442C42.4357 8.22486 42.4245 8.20552 42.4133 8.1886C41.8804 7.17093 41.21 6.19677 40.4612 5.2492L40.4023 5.16942C40.3378 5.07999 40.2732 4.99296 40.2087 4.90353L40.2031 4.86485L40.2312 4.83342L40.2789 4.82617C40.2929 4.83101 40.3125 4.83584 40.3209 4.84793Z" fill="#11534B"/>
<path fill-rule="evenodd" clip-rule="evenodd" d="M39.4974 4.97395C39.5563 5.03196 39.6124 5.08756 39.6713 5.14557C39.8143 5.28819 39.9517 5.43565 40.0864 5.5831L40.092 5.58794C40.4426 6.00371 40.7623 6.43398 41.0484 6.86426L41.0624 6.88359C41.2531 7.1785 41.4326 7.47824 41.6009 7.7804L41.6121 7.80216C41.7692 8.09465 41.9179 8.38714 42.0609 8.68446L42.0721 8.70622C42.1086 8.78841 42.1479 8.87059 42.1843 8.9552L42.2011 8.98662L42.2124 9.0108L42.1955 9.06639L42.1759 9.09782C42.1282 9.08573 42.131 9.08331 42.0918 9.06398L42.0777 9.05914C42.0273 8.96245 41.9712 8.86818 41.9179 8.7739C41.9179 8.7739 41.7524 8.47658 41.6206 8.24935C41.2756 7.65229 40.911 7.05522 40.5155 6.48474C40.3304 6.21159 40.1341 5.94327 39.9265 5.68221C39.9265 5.68221 39.8171 5.53234 39.7161 5.40422C39.6152 5.27611 39.5142 5.14799 39.4076 5.02229C39.4076 5.02229 39.388 4.98603 39.4245 4.9667C39.4245 4.9667 39.4749 4.94977 39.5002 4.97395H39.4974Z" fill="#11534B"/>
<path fill-rule="evenodd" clip-rule="evenodd" d="M38.9889 5.78347C39.5779 6.5981 40.3155 7.36195 40.8961 8.19591C41.0279 8.38446 41.1542 8.57543 41.2607 8.77364C41.2635 8.7809 41.2663 8.78573 41.2691 8.79056C41.4262 9.09031 41.5468 9.3973 41.6282 9.71638L41.6197 9.75506C41.616 9.76795 41.6132 9.78084 41.6113 9.79373L41.5889 9.82274L41.5524 9.80824C41.5524 9.80824 41.544 9.79132 41.4963 9.75022C41.4655 9.65837 41.429 9.56651 41.3897 9.47707C41.2944 9.2571 41.1822 9.04438 41.0532 8.83166C40.568 8.02671 39.9145 7.28944 39.3086 6.49415C39.1488 6.28627 39.0141 6.06871 38.8795 5.85116L38.8711 5.83424V5.79556L38.9019 5.76655L38.9524 5.76172C38.9524 5.76172 38.9777 5.77622 38.9889 5.78347Z" fill="#11534B"/>
<path fill-rule="evenodd" clip-rule="evenodd" d="M38.5029 6.11104C38.66 6.33101 38.8114 6.55582 38.9601 6.78062L38.9685 6.79271C39.0162 6.86281 39.0611 6.93533 39.1059 7.00543L39.1172 7.02719C39.406 7.50581 39.6977 7.97959 40.0035 8.44854L40.0147 8.46305C40.183 8.72895 40.3512 8.99485 40.5027 9.26558C40.5756 9.40095 40.6429 9.5339 40.7074 9.66927L40.7159 9.68377C40.8084 9.88924 40.8926 10.102 40.9599 10.3147C40.9599 10.3147 40.9683 10.4186 40.9823 10.5177L40.9571 10.5443L40.9206 10.5298C40.9206 10.5298 40.8505 10.4283 40.814 10.3316C40.5027 9.56049 39.953 8.84014 39.4565 8.04486C39.2714 7.74995 39.1003 7.45263 38.9264 7.1553L38.9012 7.11179C38.7273 6.79271 38.5562 6.47605 38.3711 6.16422V6.12071L38.4076 6.08928L38.4637 6.08203C38.4777 6.08928 38.4917 6.09895 38.5057 6.10862L38.5029 6.11104Z" fill="#11534B"/>
<path fill-rule="evenodd" clip-rule="evenodd" d="M38.254 6.94456C38.3578 7.13794 38.4728 7.32165 38.5962 7.50295C38.5962 7.50295 38.7224 7.70842 38.829 7.87521C38.9075 7.99849 38.9889 8.12177 39.0702 8.24747L39.0786 8.26197C39.2665 8.56172 39.4404 8.86629 39.5835 9.18296C39.7265 9.50204 39.8247 9.84287 39.9144 10.1837L39.92 10.2055C39.9901 10.4762 40.0491 10.7518 40.1108 11.0249V11.0974L40.1192 11.17L40.0939 11.1965L40.0575 11.182L40.0238 11.1144L39.9901 11.0539C39.805 10.4424 39.6171 9.83079 39.3451 9.25547C39.073 8.685 38.7252 8.14836 38.4111 7.59239L38.4027 7.5803C38.3017 7.3845 38.2091 7.1887 38.125 6.98565V6.94698C38.125 6.94698 38.1643 6.92039 38.1671 6.91797H38.2176C38.2176 6.91797 38.24 6.93489 38.254 6.94456Z" fill="#11534B"/>
<path fill-rule="evenodd" clip-rule="evenodd" d="M37.6395 8.09644C37.8976 8.67658 38.2454 9.15762 38.5483 9.69426C38.7278 10.0085 38.8876 10.3324 39.0111 10.6636C39.0896 10.8811 39.1485 11.1011 39.2046 11.3211L39.2102 11.3453L39.2186 11.3767C39.227 11.4129 39.2326 11.4516 39.241 11.4855L39.2495 11.5338C39.2298 11.6112 39.2354 11.6112 39.2242 11.6885L39.2018 11.7175L39.1653 11.703L39.098 11.6184L39.0587 11.5773C39.0475 11.5483 39.0363 11.5169 39.0251 11.4879L39.0026 11.425C38.9269 11.1954 38.8484 10.9657 38.7614 10.7385C38.7614 10.7385 38.6997 10.5717 38.6436 10.4364C38.4164 9.89489 38.0855 9.38726 37.8134 8.85546C37.8134 8.85546 37.7798 8.78536 37.7573 8.73702C37.6648 8.5388 37.589 8.33575 37.5273 8.13028L37.533 8.09644C37.533 8.09644 37.5666 8.07468 37.5694 8.07227H37.6115C37.6115 8.07227 37.6311 8.08919 37.6423 8.09644H37.6395Z" fill="#11534B"/>
<path fill-rule="evenodd" clip-rule="evenodd" d="M37.1138 8.38326C37.2821 9.08427 37.571 9.75144 37.8458 10.421L37.8599 10.45C37.9636 10.7111 38.0674 10.9746 38.16 11.2381C38.2076 11.3783 38.2441 11.5209 38.2722 11.6635V11.6804C38.2806 11.7022 38.2862 11.7263 38.289 11.7505C38.3254 11.9342 38.3563 12.1204 38.404 12.3017L38.3843 12.3428L38.3591 12.3693L38.2834 12.3331C38.16 11.9512 38.0814 11.5596 37.9356 11.1873C37.6832 10.5612 37.4111 9.93998 37.2063 9.28974V9.2849C37.1222 8.98516 37.0577 8.68058 37.0156 8.37117L37.0549 8.33008C37.0549 8.33008 37.1026 8.33975 37.111 8.37842L37.1138 8.38326Z" fill="#11534B"/>
<path fill-rule="evenodd" clip-rule="evenodd" d="M36.6183 9.69456C36.666 9.8541 36.7249 10.0064 36.7894 10.1563C36.7894 10.1563 36.8455 10.3061 36.8988 10.427C36.9633 10.5841 37.0362 10.7388 37.1035 10.8935L37.1119 10.908C37.2269 11.1739 37.3419 11.4398 37.4233 11.713V11.7251C37.499 12.0031 37.5523 12.2883 37.5859 12.559V12.6025L37.5887 12.6461C37.5859 12.692 37.5887 12.692 37.5831 12.7379V12.7742C37.5831 12.8 37.5831 12.8257 37.5831 12.8515L37.5551 12.8854L37.5186 12.8612L37.5074 12.8298C37.4981 12.8056 37.4878 12.7814 37.4765 12.7572L37.4597 12.7113L37.4261 12.6315C37.4261 12.6315 37.4064 12.5518 37.3868 12.4696C37.3868 12.4696 37.3447 12.2931 37.3139 12.165C37.283 12.0369 37.2494 11.9112 37.2101 11.7855C37.2101 11.7855 37.1821 11.6864 37.1512 11.5994C36.9941 11.1328 36.7698 10.6856 36.6155 10.2215V10.207C36.5678 10.0451 36.5342 9.88311 36.5117 9.71873L36.5229 9.68731C36.5229 9.68731 36.5538 9.67039 36.5594 9.66797L36.5987 9.67522L36.6239 9.69939L36.6183 9.69456Z" fill="#11534B"/>
<path fill-rule="evenodd" clip-rule="evenodd" d="M36.3158 10.5578C36.3411 10.669 36.3691 10.7826 36.3943 10.8914C36.3943 10.8914 36.4084 10.9615 36.4196 11.0195L36.4252 11.0316C36.4981 11.532 36.5626 12.0372 36.6608 12.5303C36.7085 12.7745 36.7618 13.0162 36.8375 13.2531L36.8094 13.2604L36.7113 13.2869L36.6832 13.2942C36.5486 12.9727 36.4561 12.6391 36.3831 12.2959V12.291C36.3439 12.0783 36.3158 11.8656 36.285 11.6529V11.6432C36.2653 11.4595 36.2485 11.2758 36.2317 11.0921L36.2261 11.0606C36.2261 11.0099 36.2205 10.9446 36.2205 10.9446C36.2205 10.9228 36.2205 10.8987 36.2205 10.8769C36.2205 10.8455 36.2176 10.8141 36.2205 10.7826V10.7488V10.7053C36.2205 10.6642 36.2176 10.6207 36.2148 10.5772C36.2148 10.5772 36.2205 10.5385 36.2625 10.5312L36.299 10.5385C36.299 10.5385 36.313 10.553 36.3186 10.5627L36.3158 10.5578Z" fill="#11534B"/>
<path fill-rule="evenodd" clip-rule="evenodd" d="M45.589 5.71568L45.6002 5.7471L45.5777 5.78578C45.5216 5.83654 45.4431 5.90181 45.4431 5.90181C45.387 5.95257 45.3281 5.9985 45.272 6.04926L45.2636 6.05409C45.2103 6.09519 45.1542 6.13386 45.1037 6.17254L45.0925 6.17979C45.0252 6.22572 44.9579 6.27407 44.8906 6.31758L44.8794 6.32725C44.7447 6.41669 44.6073 6.50612 44.4727 6.59315C44.2876 6.70918 44.0968 6.8252 43.9061 6.9364C43.9061 6.9364 43.7603 7.01617 43.6341 7.08627L43.6228 7.0911C43.5611 7.12253 43.4994 7.15154 43.4349 7.18296L43.3872 7.19505C43.3115 7.20713 43.3087 7.20955 43.3087 7.20955L43.2666 7.2168L43.2218 7.22647L43.1797 7.22164L43.2049 7.17571C43.219 7.16362 43.247 7.1322 43.247 7.1322C43.2694 7.10803 43.275 7.10319 43.3031 7.06935C43.3031 7.06935 43.4433 6.98233 43.5583 6.91464C44.094 6.60282 44.6045 6.26681 45.1178 5.93323C45.1879 5.89455 45.2608 5.85346 45.3337 5.80995C45.3337 5.80995 45.3562 5.80028 45.4235 5.75919C45.4684 5.7326 45.4964 5.71568 45.4964 5.71568L45.5469 5.70117C45.5469 5.70117 45.589 5.70842 45.5918 5.71084L45.589 5.71568Z" fill="#11534B"/>
<path fill-rule="evenodd" clip-rule="evenodd" d="M45.8461 5.97451L45.8573 5.99869L45.8405 6.02769C45.6863 6.15581 45.5292 6.28392 45.3721 6.41204C45.3721 6.41204 45.2964 6.47005 45.2431 6.51115C44.7102 6.92208 44.0988 7.28709 43.493 7.63518C43.378 7.70045 43.263 7.7633 43.1452 7.82615L43.1311 7.83581C43.0526 7.87691 42.9741 7.918 42.8927 7.95668L42.8422 7.94217L42.8086 7.90833V7.86724C42.8787 7.82373 42.9516 7.78263 43.0218 7.73912C43.0218 7.73912 43.2181 7.62068 43.3555 7.53849C43.9333 7.19282 44.483 6.83023 45.0412 6.45313C45.0412 6.45313 45.1898 6.35886 45.2964 6.28876C45.4563 6.18723 45.6161 6.08329 45.7676 5.97693L45.8097 5.96484C45.8097 5.96484 45.8433 5.9721 45.8433 5.97451H45.8461Z" fill="#11534B"/>
<path fill-rule="evenodd" clip-rule="evenodd" d="M45.6491 6.96475L45.6575 6.99375L45.6351 7.02034C45.2565 7.24757 44.8666 7.46512 44.4683 7.67784L44.4515 7.68751C43.8653 7.99209 43.2623 8.287 42.6509 8.61333L42.5948 8.64234L42.519 8.68101C42.4826 8.67859 42.4798 8.67618 42.4433 8.67859H42.3984C42.404 8.65603 42.4106 8.63589 42.4181 8.61816L42.4265 8.58432C42.477 8.5529 42.5499 8.50939 42.5499 8.50939C42.7406 8.40061 42.937 8.29425 43.1333 8.18789L43.1585 8.1758C43.5428 7.97759 43.9298 7.78662 44.3197 7.59324C44.3197 7.59324 44.5946 7.46029 44.8021 7.35876C45.0657 7.23065 45.3238 7.10011 45.579 6.96233L45.6183 6.95508C45.6183 6.95508 45.6463 6.96475 45.6491 6.96716V6.96475Z" fill="#11534B"/>
<path fill-rule="evenodd" clip-rule="evenodd" d="M45.6635 7.46687C45.0044 7.82705 44.334 8.17755 43.6609 8.52081L43.5796 8.5619L43.2093 8.74803L43.1897 8.7577C43.0831 8.80846 42.9765 8.86164 42.8672 8.91482L42.8111 8.94141L42.7746 8.96075C42.654 9.01877 42.5334 9.07678 42.4128 9.13479C42.4128 9.13479 42.3006 9.18797 42.1856 9.24357L42.1267 9.26774L42.0538 9.27741L42.0117 9.27016C42.0257 9.22907 42.0313 9.22907 42.0622 9.19039L42.0678 9.18072C42.1379 9.14446 42.2109 9.10579 42.281 9.06953L42.3258 9.04536C42.4408 8.98492 42.5558 8.92691 42.6736 8.86889L42.6933 8.85923C42.9513 8.72869 43.2093 8.60058 43.4674 8.47488C43.4674 8.47488 43.5964 8.41203 43.6946 8.3661C44.3453 8.05911 44.9932 7.7497 45.6298 7.42578L45.6803 7.43062C45.6775 7.4427 45.6719 7.45479 45.6691 7.46929L45.6635 7.46687Z" fill="#11534B"/>
<path fill-rule="evenodd" clip-rule="evenodd" d="M45.9649 7.96177L45.9706 7.99319L45.9453 8.0222C45.5723 8.22042 45.188 8.40655 44.8038 8.58301C44.6439 8.65794 44.4812 8.73046 44.3186 8.80298L44.2989 8.81023C44.0942 8.89967 43.8866 8.98428 43.6791 9.07372L43.6286 9.09547L43.5613 9.12448C43.0705 9.32028 42.5824 9.53058 42.114 9.71188C41.9065 9.79165 41.6933 9.85933 41.469 9.89559C41.469 9.89559 41.4746 9.89559 41.4381 9.869L41.4297 9.82549L41.4437 9.79165C41.4437 9.79165 41.4549 9.78923 41.4633 9.78681C41.9794 9.66353 42.4226 9.39521 42.933 9.18491C43.0985 9.11723 43.2612 9.04713 43.4267 8.98186C43.4267 8.98186 43.5697 8.92384 43.6763 8.88033C43.8277 8.8199 43.9736 8.76189 44.1222 8.69904L44.1699 8.6797C44.1699 8.6797 44.4364 8.57334 44.6187 8.50082C45.0478 8.32678 45.4713 8.1479 45.8864 7.95452L45.9341 7.94727C45.9341 7.94727 45.9678 7.96177 45.9678 7.96419L45.9649 7.96177Z" fill="#11534B"/>
<path fill-rule="evenodd" clip-rule="evenodd" d="M45.9265 8.90372C45.5535 9.06568 45.1777 9.22038 44.7934 9.36542L44.7794 9.37025C44.5578 9.44761 44.3335 9.52496 44.1091 9.59748L44.0782 9.60956C43.262 9.87546 42.4403 10.1486 41.6241 10.3734H41.6185C41.5147 10.4024 41.4109 10.4266 41.3043 10.4508C41.2707 10.458 41.237 10.4653 41.2062 10.4701C41.0491 10.5015 40.8948 10.5233 40.7378 10.5378L40.7322 10.504C40.7284 10.4782 40.7266 10.4524 40.7266 10.4266C40.7266 10.4266 40.7462 10.4218 40.7546 10.4218C41.0267 10.3758 41.2903 10.3082 41.5512 10.2284C41.5512 10.2284 41.7447 10.1752 41.9074 10.1244C42.8554 9.83679 43.809 9.54671 44.6812 9.25664C44.6812 9.25664 44.9477 9.16962 45.1216 9.11402C45.3824 9.02942 45.6405 8.93998 45.8957 8.8457L45.949 8.85537C45.9434 8.86988 45.935 8.88438 45.9294 8.89888L45.9265 8.90372Z" fill="#11534B"/>
<path fill-rule="evenodd" clip-rule="evenodd" d="M43.928 10.571L43.9196 10.6073L43.8804 10.6339C43.5073 10.7378 43.1287 10.8249 42.7528 10.8974H42.7416C42.0825 11.0134 41.415 11.0883 40.7475 11.156L40.7138 11.1609C40.6269 11.1705 40.5371 11.1778 40.4502 11.1875H40.4389C40.3324 11.1971 40.1865 11.2092 40.1865 11.2092L40.15 11.1971L40.0883 11.1826L40.0547 11.1633L40.0827 11.1367L40.1416 11.1101L40.1753 11.0883C40.2426 11.0787 40.3127 11.0714 40.3828 11.0618L40.4305 11.0545C40.5119 11.0473 40.596 11.0376 40.6801 11.0279C40.6801 11.0279 40.8176 11.0134 40.9185 11.0013C41.7235 10.9167 42.5144 10.8249 43.339 10.6581C43.5073 10.6218 43.6756 10.5856 43.8439 10.5469H43.8972C43.8972 10.5469 43.9168 10.5662 43.928 10.5759V10.571Z" fill="#11534B"/>
<path fill-rule="evenodd" clip-rule="evenodd" d="M44.2704 11.0681L44.262 11.1019L44.2255 11.1237C42.8764 11.45 41.4712 11.566 40.038 11.6627C39.8782 11.6748 39.7183 11.6821 39.5612 11.6893L39.4855 11.6724L39.4098 11.6627L39.3789 11.641L39.4098 11.6168L39.4883 11.595L39.5584 11.5684C39.7127 11.5564 39.8641 11.5443 40.0212 11.5322H40.0436C40.9636 11.4669 41.8891 11.4017 42.8119 11.276C43.2831 11.2155 43.7515 11.1358 44.2087 11.0391H44.2535C44.2535 11.0391 44.2704 11.0584 44.2788 11.0681H44.2704Z" fill="#11534B"/>
<path fill-rule="evenodd" clip-rule="evenodd" d="M43.2719 11.6779L43.2606 11.7093C43.2074 11.7383 43.1625 11.7432 43.1176 11.7504C42.6043 11.8568 42.0799 11.9438 41.5498 12.0091C40.9523 12.0816 40.3549 12.1154 39.7519 12.1251H39.7407C39.421 12.1251 39.104 12.1227 38.7871 12.1034H38.7646C38.7478 12.0163 38.7646 12.0332 38.7871 11.9946C39.3733 12.0018 39.9679 11.9922 40.5625 11.9535C41.4824 11.893 42.3828 11.7867 43.2017 11.6465L43.2466 11.6513L43.2719 11.6755V11.6779Z" fill="#11534B"/>
<path fill-rule="evenodd" clip-rule="evenodd" d="M42.7615 12.1891L42.7503 12.2229L42.7083 12.2422C42.2735 12.3123 41.8388 12.3728 41.4012 12.4211C40.5626 12.5154 39.7408 12.5492 38.9219 12.5299C38.6386 12.5227 38.3553 12.5033 38.0888 12.4743L38.0664 12.4332L38.0776 12.3873L38.1197 12.3534C38.1449 12.3534 38.1702 12.3534 38.1926 12.3559C38.445 12.3679 38.6947 12.3776 38.9471 12.38C39.7408 12.3897 40.543 12.3631 41.362 12.2882C41.8107 12.2543 42.2567 12.206 42.7026 12.1504L42.7475 12.1576C42.7475 12.1576 42.7615 12.1746 42.7672 12.1866L42.7615 12.1891Z" fill="#11534B"/>
<path fill-rule="evenodd" clip-rule="evenodd" d="M40.9802 12.7526L40.9662 12.784L40.9269 12.8009C40.8512 12.813 40.7783 12.8251 40.7025 12.8372C40.3604 12.8904 40.0182 12.9387 39.6732 12.9798C39.0618 13.0499 38.4335 13.0813 37.8165 13.0572C37.8165 13.0572 37.637 13.0451 37.55 13.0354C37.4827 13.0282 37.4154 13.0185 37.3481 13.0112L37.3228 13.0064C37.3088 12.9847 37.3004 12.975 37.292 12.9677L37.2695 12.9411L37.3228 12.9145L37.3593 12.8904C37.7996 12.9242 38.2484 12.9291 38.6999 12.9121C39.4516 12.8831 40.1949 12.8009 40.9213 12.7188L40.9634 12.726C40.9634 12.726 40.9774 12.7429 40.9858 12.7526H40.9802Z" fill="#11534B"/>
<path fill-rule="evenodd" clip-rule="evenodd" d="M40.8913 13.3829L40.8717 13.424C40.7987 13.4554 40.7455 13.4554 40.6894 13.4626C39.5534 13.5956 38.4091 13.6754 37.29 13.5448C37.1694 13.5303 37.0516 13.511 36.9338 13.4892C36.903 13.4844 36.7487 13.453 36.6758 13.4336C36.6758 13.4336 36.6758 13.3998 36.6842 13.3805C36.6982 13.3394 36.7122 13.3273 36.7403 13.291C36.7571 13.2934 36.7739 13.2958 36.7908 13.2983C36.9506 13.3249 37.1105 13.3514 37.2732 13.3708C37.2732 13.3708 37.3405 13.3805 37.4078 13.3877C38.4961 13.5255 39.646 13.4578 40.7763 13.3394C40.7875 13.3394 40.81 13.3369 40.81 13.3369L40.8633 13.3466C40.8633 13.3466 40.8801 13.3684 40.8885 13.3805L40.8913 13.3829Z" fill="#11534B"/>
</g>
<path fill-rule="evenodd" clip-rule="evenodd" d="M35.1845 24.2796C35.1565 24.2772 35.1509 24.2772 35.1228 24.2675C34.9658 24.2264 34.8816 24.0524 34.7666 23.9074C33.9953 22.9284 32.9351 22.1282 31.7768 21.4804C30.1528 20.5667 28.3802 19.8391 26.9218 18.6788C26.8825 18.6474 26.8432 18.6159 26.8068 18.5845C26.675 18.4782 26.6048 18.2558 26.7815 18.1397C26.9162 18.0527 27.1013 18.0914 27.2331 18.1977C28.9159 19.5708 31.1149 20.3346 33.0025 21.565C33.9533 22.1838 34.7863 22.9308 35.4285 23.7962C35.5267 23.9315 35.5632 24.1491 35.3668 24.2434C35.3136 24.2699 35.249 24.2796 35.1873 24.2772L35.1845 24.2796Z" fill="black"/>
<path fill-rule="evenodd" clip-rule="evenodd" d="M35.6702 43.6273C35.645 43.6128 35.6141 43.5983 35.5917 43.5789C35.5019 43.5016 35.4963 43.3928 35.5244 43.2163C35.7011 42.1092 35.802 40.9924 35.8974 39.8757C36.1498 36.9338 36.3293 33.9848 36.2704 31.0188C36.2536 30.2767 36.2199 29.5442 36.1049 28.7997C35.1626 22.7517 31.5641 17.2016 30.201 11.1874C29.8588 9.68388 29.6597 8.14891 29.6484 6.61636V6.56802L29.6625 6.48583C29.7017 6.42056 29.7045 6.39639 29.7747 6.35288C29.9542 6.23685 30.2655 6.33596 30.2683 6.58977C30.2683 6.61153 30.2683 6.63812 30.2683 6.65987C30.2879 8.74115 30.6722 10.8369 31.2836 12.8771C31.9623 15.1566 32.9075 17.3757 33.8219 19.5899C35.0644 22.6018 36.2564 25.6572 36.7332 28.8215C36.9239 30.0809 36.9099 31.3548 36.8959 32.6262C36.8594 35.5391 36.6827 38.4567 36.3826 41.3526C36.3153 42.0222 36.2396 42.6918 36.1274 43.3565C36.0965 43.5378 35.9956 43.6273 35.8637 43.6466C35.7992 43.6563 35.7347 43.6394 35.6758 43.6224L35.6702 43.6273Z" fill="black"/>
<path fill-rule="evenodd" clip-rule="evenodd" d="M30.2527 10.4687C31.6074 9.40507 31.8599 7.90878 32.7658 6.55269C33.509 5.43832 34.9647 4.05081 34.7179 2.58352C34.5328 1.46674 33.6885 1.63353 32.8808 1.18633C32.4488 0.947024 32.2048 0.434562 31.7364 0.161409C31.0016 -0.264031 30.3958 0.2581 30.1826 0.50708C29.8236 0.922851 29.3945 3.3788 29.4955 5.86618C29.5572 7.31413 30.2555 10.4687 30.2555 10.4687H30.2527Z" fill="#FCD97D"/>
<path fill-rule="evenodd" clip-rule="evenodd" d="M30.3796 10.5093C30.5619 8.83659 29.6419 7.58686 29.2913 6.00354C28.9997 4.70063 29.0165 2.73055 27.7656 1.83374C26.8148 1.14965 26.3408 1.83374 25.4432 2.04888C24.9608 2.16491 24.4139 1.95702 23.881 2.07305C23.048 2.25676 23.0031 3.03754 23.034 3.35904C23.0873 3.89809 24.5794 5.96003 26.4726 7.68838C27.5777 8.69397 30.3796 10.5069 30.3796 10.5069V10.5093Z" fill="#FCD97D"/>
<path fill-rule="evenodd" clip-rule="evenodd" d="M30.399 10.4566C29.5408 8.97966 28.0402 8.45028 26.8033 7.34075C25.7824 6.42702 24.61 4.79294 23.0534 4.73976C21.8698 4.69867 21.895 5.52054 21.2948 6.19255C20.9723 6.55272 20.4029 6.68083 20.0411 7.07002C19.4745 7.67675 19.9093 8.34634 20.1281 8.59532C20.4955 9.01109 22.9496 9.89098 25.5272 10.2777C27.0305 10.5001 30.399 10.4566 30.399 10.4566Z" fill="#FCD97D"/>
<path fill-rule="evenodd" clip-rule="evenodd" d="M28.3145 19.395C28.2472 17.8359 27.1954 16.9028 26.6344 15.5443C26.1717 14.4251 25.9052 12.6315 24.587 12.0948C23.5857 11.6839 23.2323 12.4091 22.4077 12.8031C21.9645 13.0134 21.4148 12.9457 20.9268 13.1681C20.1611 13.5186 20.2312 14.239 20.3041 14.5242C20.4304 15.0028 22.1441 16.545 24.1943 17.6981C25.3891 18.3677 28.3145 19.395 28.3145 19.395Z" fill="#FCD97D"/>
<path fill-rule="evenodd" clip-rule="evenodd" d="M28.3173 19.3889C27.1197 20.4597 25.4649 20.7667 23.9195 20.832C20.8174 20.9625 19.4796 20.977 19.1738 20.1382C19.0084 19.6886 18.5596 19.3695 18.3717 18.8788C18.0744 18.1126 18.655 17.6436 18.9214 17.4889C19.3674 17.2303 21.7458 17.2786 24.0821 17.8322C25.4424 18.1561 28.3201 19.3889 28.3201 19.3889H28.3173Z" fill="#FCD97D"/>
<path fill-rule="evenodd" clip-rule="evenodd" d="M38.9147 26.1381C39.9076 25.1833 41.4951 23.4985 43.1947 23.2398C43.8595 23.1383 44.9281 23.2519 44.9112 24.1245C44.9056 24.5065 44.7402 24.8642 44.7682 25.2534C44.8019 25.6982 45.1833 26.3194 44.8916 26.74C44.3419 27.5353 43.0489 26.8609 42.2608 26.9745C39.5738 27.3613 38.8839 27.997 37.2852 29.0099C37.2852 29.0099 37.5572 27.4435 38.9147 26.1406V26.1381Z" fill="#FCD97D"/>
<path fill-rule="evenodd" clip-rule="evenodd" d="M37.5846 25.1903C37.8511 23.8656 38.1849 21.6151 39.4414 20.4959C39.9322 20.0584 40.883 19.5894 41.3738 20.3291C41.5898 20.653 41.6627 21.0398 41.9124 21.3492C42.1984 21.7045 42.8744 22.0212 42.8772 22.5288C42.8828 23.4861 41.4243 23.6045 40.8381 24.117C38.8412 25.8623 38.6392 26.7615 37.9072 28.456C37.9072 28.456 37.2228 26.9984 37.5875 25.1903H37.5846Z" fill="#FCD97D"/>
<path fill-rule="evenodd" clip-rule="evenodd" d="M33.0381 3.0291C33.0017 3.0146 33.0297 3.00977 32.9905 3.00977C32.9147 3.00977 32.8586 3.0702 32.7941 3.11613C32.5782 3.266 32.3874 3.51014 32.2051 3.7978C31.9499 4.19665 31.7283 4.69944 31.5404 5.23849C31.3721 5.72195 31.2375 6.23683 31.1365 6.73479C30.9486 7.66786 30.8785 8.53566 30.8673 9.02395C30.8645 9.09888 30.929 9.16173 31.0131 9.16656C31.1001 9.1714 31.173 9.1158 31.1786 9.04087C31.2403 8.56708 31.4366 7.73312 31.6694 6.82664C31.7956 6.34561 31.9303 5.84523 32.0761 5.36903C32.2332 4.84689 32.4015 4.35861 32.5866 3.9525C32.7128 3.67452 32.8446 3.44488 32.9792 3.26116C33.0185 3.20798 33.0718 3.16931 33.0858 3.11371C33.0942 3.07987 33.083 3.10404 33.0718 3.06778C33.0858 3.05811 33.0886 3.04361 33.0774 3.03152C33.069 3.01943 33.0494 3.01943 33.0353 3.02669L33.0381 3.0291Z" fill="#FF8B13"/>
<path fill-rule="evenodd" clip-rule="evenodd" d="M31.4905 3.21876C31.4456 3.21876 31.4484 3.20426 31.4064 3.21876C31.3699 3.23326 31.3531 3.27436 31.3306 3.30337C31.0642 3.62003 30.8735 4.06722 30.75 4.5531C30.5593 5.32421 30.5509 6.18717 30.5004 6.74073C30.4948 6.80116 30.5453 6.85676 30.6182 6.86159C30.6883 6.86643 30.7529 6.82292 30.7585 6.76007C30.8258 6.21376 30.9211 5.37497 31.0866 4.60869C31.1876 4.14941 31.3026 3.71914 31.5073 3.39764C31.5242 3.36863 31.555 3.34446 31.5634 3.31303C31.569 3.27436 31.5494 3.28161 31.5382 3.24535C31.5494 3.23326 31.5466 3.21876 31.5354 3.20909C31.5214 3.19942 31.5017 3.20184 31.4933 3.21393L31.4905 3.21876Z" fill="#FF8B13"/>
<path fill-rule="evenodd" clip-rule="evenodd" d="M22.8906 7.10591C22.8962 7.13734 22.8906 7.147 22.9074 7.17601C23.0027 7.31863 23.2075 7.37906 23.3926 7.45158C23.8161 7.61354 24.3294 7.67397 24.7024 7.84076C25.6757 8.23478 26.5395 8.76658 27.4623 9.21861C27.869 9.41683 28.2869 9.5812 28.7132 9.74799C28.7861 9.78183 28.8787 9.75766 28.9179 9.69723C28.9572 9.63438 28.9292 9.55703 28.8562 9.52319C28.5477 9.34914 28.2616 9.15576 27.9559 8.98172C27.4959 8.71823 27.0191 8.47651 26.5423 8.23478C26.0094 7.96404 25.4597 7.71506 24.8875 7.49509C24.7585 7.44916 24.6183 7.4129 24.4696 7.3839C24.1667 7.32105 23.8358 7.27512 23.5272 7.21227C23.3393 7.17359 23.1794 7.09624 23.0056 7.06482C22.9691 7.05757 22.9579 7.06965 22.9242 7.06965C22.913 7.05998 22.8934 7.0624 22.8821 7.07449C22.8709 7.08657 22.8737 7.10108 22.8849 7.11075L22.8906 7.10591Z" fill="#FF8B13"/>
<path fill-rule="evenodd" clip-rule="evenodd" d="M25.1099 6.55596C25.1183 6.52937 25.1576 6.52937 25.1463 6.51729C25.1183 6.47861 25.208 6.56322 25.1716 6.56563C25.1435 6.56563 25.1239 6.57772 25.1015 6.60431C25.0931 6.6164 25.1099 6.63332 25.1267 6.6454C25.1884 6.69375 25.2726 6.74693 25.2922 6.76143C25.5839 6.9524 25.8616 7.15303 26.1476 7.344C26.5796 7.63407 27.0143 7.91931 27.4574 8.19488C27.5865 8.27465 27.7127 8.35442 27.8473 8.42452C28.0577 8.53088 28.2708 8.61065 28.4868 8.7025C28.5289 8.72909 28.5906 8.72184 28.6214 8.68558C28.6551 8.64932 28.6439 8.59614 28.6018 8.56955C28.4167 8.40276 28.254 8.23114 28.0577 8.07401C27.8669 7.92173 27.6538 7.78877 27.449 7.64857C27.1405 7.43827 26.832 7.2328 26.5094 7.037C26.1869 6.8412 25.8531 6.66232 25.5138 6.48345C25.4717 6.46653 25.2613 6.3505 25.1548 6.35775C25.1211 6.35775 25.0931 6.35533 25.0734 6.36742C25.0566 6.37709 25.0257 6.37225 25.0229 6.38917C25.0061 6.4496 24.9668 6.39884 25.0033 6.45927C25.0061 6.46894 24.9949 6.47619 25.0033 6.48828C25.0145 6.51245 25.0089 6.53421 25.0538 6.56805C25.0566 6.58255 25.0762 6.58981 25.0902 6.58739C25.1071 6.58497 25.1155 6.57047 25.1127 6.55596H25.1099Z" fill="#FF8B13"/>
<path fill-rule="evenodd" clip-rule="evenodd" d="M25.9186 4.44046C26.0336 4.5855 26.1233 4.72812 26.2383 4.8659C26.4038 5.06653 26.5889 5.25025 26.7488 5.45088C26.8497 5.58383 26.9451 5.72162 27.0433 5.86182C27.1078 5.95367 27.1779 6.0407 27.2424 6.13497C27.2789 6.20507 27.377 6.2365 27.4612 6.20507C27.5425 6.17365 27.5818 6.08904 27.5425 6.01652C27.4836 5.87874 27.4247 5.74337 27.3434 5.61767C27.2228 5.42671 27.0741 5.25266 26.9114 5.08587C26.7796 4.94809 26.645 4.8103 26.4851 4.69669C26.3225 4.58066 26.1458 4.49847 25.9606 4.40178C25.9494 4.39211 25.9298 4.39211 25.9186 4.40178C25.9074 4.41145 25.9074 4.42837 25.9186 4.43804V4.44046Z" fill="#FF8B13"/>
<path fill-rule="evenodd" clip-rule="evenodd" d="M24.156 13.2266C24.1112 13.2702 24.0943 13.2508 24.0747 13.3064C24.0467 13.3886 24.0971 13.478 24.1168 13.5651C24.2177 14.1065 24.3804 14.6915 24.6132 15.2789C24.7591 15.6463 24.9358 16.0138 25.1293 16.3715C25.4602 16.9807 25.8361 17.5753 26.2876 18.0733C26.6214 18.4407 27 18.7453 27.3787 19.0039C27.4264 19.0426 27.4993 19.0402 27.5442 18.9991C27.5862 18.958 27.5862 18.8952 27.5386 18.8565C27.23 18.5592 26.9636 18.2038 26.6859 17.8291C26.4279 17.4859 26.1698 17.1257 25.9342 16.7462C25.6005 16.2096 25.3088 15.6439 25.0507 15.0855C24.8684 14.6939 24.703 14.3096 24.5627 13.9373C24.4758 13.7101 24.4842 13.4539 24.3299 13.2774C24.2879 13.2315 24.271 13.2484 24.2149 13.2194C24.2149 13.2049 24.1981 13.1952 24.1785 13.1976C24.1616 13.2001 24.1532 13.2146 24.156 13.2266Z" fill="#FF8B13"/>
<path fill-rule="evenodd" clip-rule="evenodd" d="M23.3535 14.5565C23.2918 14.5976 23.3142 14.5396 23.2862 14.6025C23.2693 14.6387 23.3002 14.6798 23.3114 14.7185C23.4236 15.1222 23.6648 15.5186 23.9509 15.9006C24.1725 16.1979 24.4221 16.4904 24.6857 16.7635C24.9606 17.0463 25.2523 17.3002 25.4935 17.5564C25.53 17.5975 25.5945 17.6071 25.6421 17.5781C25.6898 17.5491 25.7039 17.4911 25.6674 17.45C25.4795 17.1817 25.2747 16.8965 25.0335 16.6161C24.6998 16.2269 24.3323 15.8377 24.0322 15.4364C23.8331 15.1681 23.6592 14.8974 23.5358 14.6218C23.5246 14.5952 23.5274 14.5614 23.4993 14.5469C23.4208 14.4985 23.5105 14.5469 23.4152 14.5469C23.4124 14.5324 23.3956 14.5251 23.3787 14.5275C23.3619 14.53 23.3535 14.5445 23.3563 14.559L23.3535 14.5565Z" fill="#FF8B13"/>
<path fill-rule="evenodd" clip-rule="evenodd" d="M22.4527 18.6485C22.5004 18.6751 22.5228 18.7041 22.5789 18.7234C22.7416 18.7814 22.9183 18.7911 23.0838 18.8322C23.5802 18.9506 24.0598 19.1271 24.5591 19.2552C24.8732 19.335 25.193 19.3857 25.5239 19.4075C25.5772 19.4147 25.6249 19.3833 25.6305 19.3374C25.6389 19.2915 25.6024 19.2504 25.5492 19.2431C25.1845 19.1803 24.848 19.0618 24.5058 18.9506C24.1524 18.837 23.799 18.7234 23.4372 18.6436C23.1483 18.5808 22.8454 18.4744 22.5565 18.5445C22.5088 18.5566 22.4948 18.576 22.4527 18.6001C22.4359 18.6001 22.4247 18.6098 22.4219 18.6243C22.4219 18.6388 22.4331 18.6509 22.4499 18.6509L22.4527 18.6485Z" fill="#FF8B13"/>
<path fill-rule="evenodd" clip-rule="evenodd" d="M24.8994 20.7859C23.9654 20.6046 22.9529 20.9406 21.43 19.8407C20.1931 18.9463 19.7555 20.0075 18.3055 18.7892C18.2858 18.7723 18.6308 20.2275 19.677 20.7061C21.4917 21.5377 24.8994 20.7859 24.8994 20.7859Z" fill="#FF8B13"/>
<path fill-rule="evenodd" clip-rule="evenodd" d="M49.9283 47.6976C49.9592 47.6831 49.9957 47.6686 50.0237 47.6492C50.1303 47.5719 50.1387 47.4631 50.105 47.2866C49.8947 46.1795 49.7741 45.0627 49.6591 43.946C49.359 41.0041 49.143 38.0551 49.2131 35.0891C49.2328 34.347 49.2748 33.6145 49.4123 32.87C50.5398 26.822 54.8394 21.2719 56.4718 15.2577C56.8813 13.7542 57.1197 12.2192 57.1337 10.6867V10.6383L57.1169 10.5561C57.0692 10.4909 57.0664 10.4667 56.9823 10.4232C56.7691 10.3072 56.3933 10.4063 56.3905 10.6601C56.3905 10.6818 56.3905 10.7084 56.3905 10.7302C56.3652 12.8115 55.908 14.9072 55.176 16.9474C54.3626 19.2269 53.2351 21.446 52.1413 23.6602C50.6548 26.6721 49.2328 29.7276 48.6606 32.8918C48.4334 34.1512 48.4474 35.4251 48.4671 36.6966C48.5119 39.6094 48.7195 42.527 49.0813 45.4229C49.1626 46.0925 49.2524 46.7621 49.3842 47.4268C49.4207 47.6081 49.5413 47.6976 49.7012 47.7169C49.7769 47.7266 49.8526 47.7097 49.9283 47.6927V47.6976Z" fill="black"/>
<path fill-rule="evenodd" clip-rule="evenodd" d="M52.8913 5.89031C52.0976 5.35368 50.6952 5.08778 50.3502 6.24324C49.9043 7.7347 51.9601 9.88849 51.9601 9.88849C51.9601 9.88849 51.5422 9.74345 51.3319 9.67335C50.8242 9.50414 50.3138 9.36636 49.7837 9.25758C48.8357 9.06178 45.7252 8.83939 45.9664 10.5194C46.1543 11.8151 47.9101 12.2308 49.0909 12.3783C49.4836 12.4266 49.8734 12.4991 50.2689 12.5136C50.4624 12.5209 50.8523 12.5064 50.8523 12.5064C50.8523 12.5064 49.2704 13.321 48.5748 13.7682C47.6156 14.387 45.5317 16.2943 47.8035 16.8551C48.8525 17.1161 50.2829 16.4804 51.2057 16.0598C51.5366 15.9075 51.876 15.7673 52.2013 15.6078C52.3724 15.5232 52.7062 15.3419 52.7062 15.3419C52.7062 15.3419 49.7248 18.9146 52.5015 19.3207C54.2993 19.5842 55.7185 17.6068 56.6945 16.4973C56.7871 16.391 56.7226 16.7656 56.731 16.8986C56.7562 17.3095 56.7506 17.718 56.8095 18.1241C56.9329 18.9726 57.6482 20.7807 58.9776 20.0749C59.9677 19.5479 60.1219 18.3586 60.1107 17.4207C60.1079 17.1451 60.0771 16.8889 60.0125 16.6206C59.9789 16.4683 59.7741 16.0695 59.9116 16.1613C61.1176 16.9808 63.3895 18.8203 64.8619 17.034C65.7482 15.9607 64.6348 15.0204 63.6896 14.4571C63.3334 14.2468 62.0376 13.744 62.0376 13.744C62.0376 13.744 67.1085 12.2357 65.8212 10.6475C64.918 9.53556 62.9491 10.1786 61.8104 10.6088C61.3027 10.7998 60.8175 11.0488 60.3463 11.3026C60.3239 11.3147 60.2622 11.363 60.2762 11.3413C60.7165 10.5774 64.6628 7.86039 62.6125 6.68802C61.342 5.96042 59.6115 7.46154 58.8794 8.26166C58.6298 8.53481 58.296 9.01102 58.0829 9.30834C57.9763 9.46063 58.8374 7.49297 58.8542 6.38344C58.8794 4.81463 56.8179 3.86464 55.6175 5.3005C54.7396 6.35443 54.5882 7.9595 54.7761 9.09562C54.7761 9.09562 54.2376 6.79438 52.8885 5.88548L52.8913 5.89031Z" fill="#FF8B13"/>
<path d="M59.2671 13.6477C59.6643 12.584 58.5555 11.3249 56.7905 10.8353C55.0255 10.3457 53.2727 10.8111 52.8754 11.8748C52.4782 12.9385 53.5871 14.1977 55.3521 14.6872C57.1171 15.1768 58.8699 14.7114 59.2671 13.6477Z" fill="white"/>
<path fill-rule="evenodd" clip-rule="evenodd" d="M56.2518 11.339C56.263 11.3729 56.235 11.3559 56.2658 11.3801C56.3079 11.4188 56.3752 11.426 56.4369 11.4285C56.493 11.4285 56.5211 11.4019 56.5743 11.3922C56.6108 11.4019 56.6501 11.3849 56.6613 11.3535C56.6725 11.3221 56.6529 11.2883 56.6164 11.2786C56.5744 11.2399 56.5491 11.2061 56.493 11.1867C56.4341 11.1674 56.3612 11.1553 56.3023 11.1795C56.2658 11.1964 56.2995 11.1867 56.2742 11.2157C56.235 11.2109 56.1985 11.2327 56.1929 11.2665C56.1845 11.3003 56.2125 11.3318 56.2518 11.339Z" fill="black"/>
<path fill-rule="evenodd" clip-rule="evenodd" d="M55.1406 11.4654C55.1602 11.5501 55.0873 11.5017 55.163 11.5573C55.2528 11.625 55.3986 11.5621 55.5164 11.5742C55.5669 11.5839 55.6174 11.5597 55.6286 11.5162C55.6426 11.4727 55.6118 11.4292 55.5613 11.4195C55.4463 11.3784 55.3313 11.2745 55.2163 11.3132C55.1238 11.3422 55.2107 11.3204 55.1602 11.3929C55.135 11.3881 55.1125 11.4026 55.1097 11.4244C55.1069 11.4461 55.1209 11.4654 55.1462 11.4679L55.1406 11.4654Z" fill="black"/>
<path fill-rule="evenodd" clip-rule="evenodd" d="M55.9679 12.0759C56.0155 12.1436 55.9735 12.1557 56.0548 12.1943C56.1389 12.2378 56.2539 12.233 56.3465 12.2113C56.397 12.1992 56.3886 12.1798 56.4306 12.1508C56.4755 12.1581 56.5176 12.1339 56.526 12.0952C56.5344 12.0565 56.5036 12.0203 56.4615 12.013C56.4306 11.9719 56.4419 11.9574 56.3942 11.9309C56.3044 11.8801 56.1782 11.8607 56.0772 11.8922C55.9931 11.9212 56.0324 11.9381 55.9735 11.9985C55.9482 11.9985 55.9286 12.013 55.9258 12.0324C55.9258 12.0541 55.9426 12.0711 55.965 12.0735L55.9679 12.0759Z" fill="black"/>
<path fill-rule="evenodd" clip-rule="evenodd" d="M54.5577 12.2189C54.5829 12.2576 54.5577 12.2576 54.5998 12.2842C54.6531 12.3204 54.726 12.3277 54.7961 12.3301C54.9279 12.3349 55.0457 12.2938 55.1747 12.2745C55.2084 12.2745 55.2392 12.2527 55.2421 12.2237C55.2421 12.1947 55.2196 12.1681 55.1832 12.1657C55.0569 12.1319 54.9504 12.0763 54.8185 12.0642C54.7512 12.0594 54.6783 12.0545 54.6194 12.0835C54.5717 12.1053 54.597 12.1077 54.5633 12.1416C54.5381 12.1416 54.5184 12.1561 54.5156 12.1754C54.5156 12.1972 54.5325 12.2141 54.5549 12.2165L54.5577 12.2189Z" fill="black"/>
<path fill-rule="evenodd" clip-rule="evenodd" d="M53.8769 11.5211C53.9078 11.5791 53.8461 11.5549 53.9106 11.5864C53.9863 11.6226 54.0789 11.5719 54.1686 11.5767C54.2191 11.584 54.264 11.5574 54.2724 11.5139C54.2808 11.4728 54.2471 11.4317 54.1995 11.4244C54.1125 11.4002 54.0284 11.3737 53.9358 11.3737C53.9246 11.3737 53.9106 11.3712 53.9021 11.3761C53.8461 11.4147 53.8965 11.3833 53.8741 11.4438C53.8489 11.4438 53.832 11.4631 53.832 11.4824C53.832 11.5042 53.8545 11.5187 53.8797 11.5187L53.8769 11.5211Z" fill="black"/>
<path fill-rule="evenodd" clip-rule="evenodd" d="M53.3364 12.7372C53.3757 12.7879 53.3589 12.8049 53.4206 12.8339C53.5328 12.8846 53.673 12.8387 53.7992 12.8387C53.8721 12.8387 53.9339 12.7904 53.9367 12.7251C53.9367 12.6622 53.8806 12.6091 53.8048 12.6066C53.6842 12.6018 53.5608 12.551 53.4458 12.5825C53.3813 12.5994 53.3981 12.6236 53.3449 12.6622C53.3196 12.6598 53.3 12.6743 53.2972 12.6937C53.2944 12.7154 53.3112 12.7323 53.3364 12.7372Z" fill="black"/>
<path fill-rule="evenodd" clip-rule="evenodd" d="M53.8923 13.5307C53.8194 13.608 53.8446 13.4944 53.8362 13.5935C53.8306 13.6685 53.9231 13.7216 53.9876 13.7724C54.0549 13.828 54.1363 13.8788 54.2288 13.9005C54.2765 13.9126 54.3102 13.9054 54.3579 13.9054C54.3999 13.9271 54.4532 13.9126 54.4785 13.8764C54.5009 13.8401 54.4869 13.7942 54.4448 13.7724C54.4112 13.7337 54.3971 13.6975 54.3579 13.6636C54.2849 13.6008 54.198 13.5549 54.1223 13.4968C54.0998 13.4799 54.0802 13.4582 54.0521 13.4557C53.94 13.4412 54.0746 13.4509 53.9652 13.4848C53.9512 13.4678 53.9231 13.463 53.9035 13.4751C53.8839 13.4872 53.8783 13.5113 53.8923 13.5283V13.5307Z" fill="black"/>
<path fill-rule="evenodd" clip-rule="evenodd" d="M54.7343 13.1468C54.7343 13.1686 54.7231 13.1613 54.7343 13.1807C54.768 13.229 54.8437 13.2387 54.9054 13.258C54.9783 13.2822 55.0513 13.2919 55.1298 13.2991C55.1747 13.3136 55.2252 13.2943 55.242 13.2556C55.2588 13.2169 55.2364 13.1734 55.1915 13.1589C55.1607 13.1348 55.1466 13.1106 55.1158 13.0888C55.0513 13.0453 54.9868 12.9897 54.9054 12.9728C54.883 12.968 54.8746 12.9776 54.8521 12.98C54.7988 12.9535 54.7287 12.968 54.6951 13.0139C54.6642 13.0598 54.681 13.1203 54.7343 13.1493V13.1468Z" fill="black"/>
<path fill-rule="evenodd" clip-rule="evenodd" d="M56.3894 12.8351C56.3501 12.9826 56.2969 12.8061 56.3642 12.9487C56.3838 12.9874 56.4455 12.9995 56.4904 13.014C56.6306 13.0575 56.7821 13.0527 56.9195 13.0454C56.9812 13.0527 57.0373 13.014 57.0457 12.9608C57.0541 12.9077 57.0093 12.8593 56.9476 12.8521C56.8746 12.8255 56.8213 12.782 56.7456 12.7505C56.6783 12.7239 56.6082 12.6732 56.5381 12.6828C56.4062 12.6998 56.5296 12.6974 56.4315 12.7699C56.409 12.7602 56.3838 12.7699 56.3726 12.7868C56.3614 12.8061 56.3726 12.8279 56.3922 12.8376L56.3894 12.8351Z" fill="black"/>
<path fill-rule="evenodd" clip-rule="evenodd" d="M57.3197 11.8032C57.3197 11.8757 57.2692 11.837 57.3225 11.895C57.4067 11.9869 57.5777 11.9555 57.7068 11.9917C57.7488 12.0086 57.7993 11.9917 57.8218 11.9579C57.8414 11.9216 57.8218 11.8781 57.7825 11.8588C57.6675 11.7935 57.5721 11.6606 57.4347 11.6726C57.3506 11.6799 57.4207 11.6847 57.3562 11.7355C57.3337 11.7282 57.3085 11.7355 57.3001 11.7548C57.2917 11.7742 57.3001 11.7959 57.3225 11.8032H57.3197Z" fill="black"/>
<path fill-rule="evenodd" clip-rule="evenodd" d="M58.6583 12.7238C58.5769 12.8253 58.6078 12.6851 58.5938 12.806C58.5938 12.8302 58.6134 12.8495 58.6302 12.8688C58.6723 12.9196 58.7312 12.9583 58.7929 12.9945C58.8602 13.0308 58.9219 13.0477 58.9948 13.0792C59.0257 13.1082 59.079 13.1082 59.1098 13.0792C59.1407 13.0501 59.1435 13.0066 59.1098 12.9776C59.0846 12.9269 59.0706 12.8809 59.0369 12.835C58.9948 12.7746 58.9499 12.7141 58.8882 12.6634C58.8686 12.6489 58.8518 12.632 58.8265 12.6295C58.6863 12.6199 58.8518 12.6223 58.7228 12.6706C58.7059 12.6537 58.6779 12.6513 58.6611 12.6658C58.6414 12.6779 58.6386 12.7021 58.6555 12.719L58.6583 12.7238Z" fill="black"/>
<path fill-rule="evenodd" clip-rule="evenodd" d="M57.8237 13.0951C57.8237 13.1531 57.8013 13.1047 57.8209 13.1603C57.8293 13.1845 57.8405 13.199 57.8658 13.2159C57.9135 13.2498 57.9808 13.2667 58.0397 13.2812C58.1098 13.2981 58.1715 13.2957 58.2416 13.3029C58.2837 13.3199 58.3342 13.3054 58.3538 13.2691C58.3734 13.2328 58.3566 13.1917 58.3145 13.1724C58.2641 13.1289 58.2276 13.0854 58.1687 13.0491C58.1154 13.0153 58.0593 12.9814 57.9948 12.9718C57.964 12.9669 57.9443 12.9669 57.9163 12.979C57.8546 13.0032 57.9107 12.9839 57.8602 13.025C57.8377 13.0153 57.8125 13.025 57.8013 13.0443C57.7901 13.0636 57.8013 13.0854 57.8237 13.0951Z" fill="black"/>
<path fill-rule="evenodd" clip-rule="evenodd" d="M56.1007 13.9025C56.1343 13.9387 56.1147 13.9484 56.1652 13.9702C56.2633 14.0113 56.3839 13.9943 56.4961 13.9895C56.5747 13.9847 56.642 13.9629 56.7205 13.9533C56.771 13.9557 56.8131 13.9242 56.8187 13.8807C56.8215 13.8372 56.785 13.801 56.7345 13.7961C56.628 13.7744 56.527 13.7429 56.4176 13.7381C56.3194 13.7333 56.2044 13.7139 56.1287 13.7647C56.0782 13.7985 56.1231 13.7744 56.1007 13.8276C56.0782 13.8276 56.0586 13.8469 56.0586 13.8662C56.0586 13.8856 56.081 13.9025 56.1035 13.9025H56.1007Z" fill="black"/>
<path fill-rule="evenodd" clip-rule="evenodd" d="M56.8038 14.5153C56.8318 14.5733 56.787 14.5467 56.8403 14.5854C56.8851 14.6168 56.944 14.6095 57.0001 14.612C57.0927 14.6168 57.188 14.6095 57.275 14.583C57.3395 14.5636 57.3872 14.5346 57.4461 14.5056C57.491 14.4984 57.5218 14.4597 57.5134 14.421C57.505 14.3823 57.4601 14.3557 57.4152 14.363C57.3507 14.3557 57.3002 14.3364 57.2385 14.334C57.1544 14.3291 57.073 14.334 56.9889 14.3412C56.9384 14.3461 56.8851 14.3412 56.8459 14.3678C56.7898 14.4041 56.8374 14.3823 56.8066 14.4379C56.7814 14.4379 56.7617 14.4524 56.7617 14.4742C56.7617 14.4959 56.7814 14.5129 56.8038 14.5129V14.5153Z" fill="black"/>
<path fill-rule="evenodd" clip-rule="evenodd" d="M58.2253 13.9959C58.273 14.0636 58.1888 14.0032 58.2646 14.0491C58.2814 14.0588 58.2954 14.0612 58.3179 14.0588C58.4104 14.0491 58.4805 13.9911 58.5619 13.95C58.6124 13.9331 58.6376 13.8847 58.618 13.8412C58.5983 13.7977 58.5394 13.7759 58.4889 13.7929C58.4048 13.8098 58.3151 13.7953 58.2365 13.8291C58.2197 13.8364 58.2085 13.846 58.2001 13.8605C58.1664 13.9331 58.2001 13.846 58.2001 13.9234C58.1776 13.9282 58.1636 13.95 58.1692 13.9693C58.1748 13.9887 58.2001 14.0007 58.2225 13.9959H58.2253Z" fill="black"/>
<path fill-rule="evenodd" clip-rule="evenodd" d="M55.0657 14.2318C55.0713 14.2559 55.0573 14.2438 55.0741 14.2632C55.105 14.2994 55.1667 14.3043 55.2172 14.3164C55.3434 14.3478 55.478 14.3502 55.607 14.3599C55.6575 14.3647 55.7024 14.3333 55.708 14.2898C55.7136 14.2463 55.6772 14.2076 55.6267 14.2027C55.5033 14.1882 55.3855 14.1592 55.2621 14.1423C55.2144 14.1351 55.1639 14.1181 55.119 14.1326C55.0938 14.1399 55.1134 14.1399 55.0938 14.1568C55.0713 14.152 55.0461 14.1617 55.0405 14.1834C55.0349 14.2052 55.0461 14.2245 55.0713 14.2293L55.0657 14.2318Z" fill="black"/>
<mask id="mask1_5491_33592" style="mask-type:luminance" maskUnits="userSpaceOnUse" x="-7" y="28" width="97" height="36">
<path d="M89.4068 28.5098H-6.23047V63.9476H89.4068V28.5098Z" fill="white"/>
</mask>
<g mask="url(#mask1_5491_33592)">
<path d="M42.0741 4.23621C42.0741 -4.53245 29.9409 -6.96724 25.3444 -0.44325C21.7686 -2.00118 16.9153 0.93306 18.4496 4.23621C13.7247 3.45015 6.18793 7.93096 9.25335 14.7444C3.76127 15.6213 3.63286 22.6305 7.719 24.092C4.14322 25.5534 5.03881 31.2005 10.1457 31.0047C6.05952 33.4367 7.84741 41.5186 14.7421 41.7144C10.656 44.2457 14.2318 49.1153 18.4463 47.0693C14.617 51.062 18.8283 56.6921 26.2367 55.3356C26.7503 63.8148 42.0741 65.2593 42.0741 55.3356V4.23621Z" fill="#EF5F3D"/>
<mask id="mask2_5491_33592" style="mask-type:luminance" maskUnits="userSpaceOnUse" x="4" y="-5" width="39" height="68">
<path d="M42.0741 4.23621C42.0741 -4.53245 29.9409 -6.96724 25.3444 -0.44325C21.7686 -2.00118 16.9153 0.93306 18.4496 4.23621C13.7247 3.45015 6.18793 7.93096 9.25335 14.7444C3.76127 15.6213 3.63286 22.6305 7.719 24.092C4.14322 25.5534 5.03881 31.2005 10.1457 31.0047C6.05952 33.4367 7.84741 41.5186 14.7421 41.7144C10.656 44.2457 14.2318 49.1153 18.4463 47.0693C14.617 51.062 18.8283 56.6921 26.2367 55.3356C26.7503 63.8148 42.0741 65.2593 42.0741 55.3356V4.23621Z" fill="white"/>
</mask>
<g mask="url(#mask2_5491_33592)">
<path fill-rule="evenodd" clip-rule="evenodd" d="M26.2061 59.2606C26.1633 59.2294 26.16 59.1953 26.1337 59.1584C26.0876 59.0932 26.0546 59.0166 26.0448 58.9229C26.0151 58.6902 26.0579 58.4178 26.0316 58.256C25.8703 57.5665 25.9493 56.8315 26.1699 56.0993C26.4794 55.0778 27.1116 54.0845 27.9545 53.2786C28.7151 52.555 29.6436 52.0016 30.6709 51.732C31.3459 51.5561 32.0472 51.5249 32.8045 51.6072C32.9066 51.6185 33.0086 51.6327 33.114 51.6299C33.2556 51.6242 33.3346 51.5845 33.4762 51.5646C33.5486 51.5902 33.6309 51.5589 33.6606 51.4937C33.6902 51.4312 33.654 51.3575 33.5816 51.3348C33.4861 51.2298 33.4367 51.1588 33.3181 51.0794C33.2194 51.0141 33.1041 50.9829 32.9922 50.946C32.1262 50.6736 31.2273 50.7161 30.4009 50.9006C29.1826 51.173 28.0829 51.8512 27.2268 52.7253C26.4728 53.4915 25.8999 54.4194 25.6068 55.3786C25.294 56.3916 25.2908 57.4303 25.6398 58.344C25.7155 58.5171 25.732 58.8548 25.8505 59.0762C25.8999 59.167 25.9526 59.2606 26.0448 59.2918C26.0974 59.3088 26.1337 59.306 26.1929 59.2947C26.2028 59.2975 26.2193 59.2918 26.2226 59.2805C26.2259 59.2691 26.2193 59.2578 26.2061 59.2549V59.2606Z" fill="#FEEAE5"/>
<path fill-rule="evenodd" clip-rule="evenodd" d="M32.1989 55.5637C32.2713 55.6744 32.3964 55.7425 32.5545 55.7935C32.864 55.8929 33.2755 55.873 33.5324 55.89C33.7365 55.8957 33.9407 55.9014 34.1514 55.89C34.9712 55.8389 35.8043 55.6346 36.555 55.3225C37.5329 54.9195 38.3626 54.2895 38.8664 53.4325C39.6632 52.0591 39.8805 50.7111 39.6632 49.5022C39.4064 48.0919 38.5602 46.8716 37.3716 46.026C35.745 44.8654 33.4533 44.3574 31.188 45.1009C30.3978 45.3591 29.6306 45.7848 28.8865 46.3665C28.8371 46.4006 28.8305 46.463 28.8667 46.5056C28.9062 46.5481 28.9787 46.5538 29.0281 46.5226C29.8084 46.0544 30.5954 45.7621 31.3658 45.5691C33.4468 45.0498 35.4355 45.4783 36.8579 46.5453C37.872 47.3087 38.58 48.3842 38.7973 49.6186C38.9849 50.6941 38.8071 51.8916 38.1091 53.1147C37.7864 53.6936 37.2761 54.1391 36.6768 54.4853C35.9327 54.9167 35.0404 55.1664 34.1678 55.331C33.9407 55.3736 33.7168 55.4246 33.4896 55.4587C33.2854 55.4984 32.9924 55.575 32.7125 55.6006C32.5248 55.6176 32.3569 55.6233 32.2285 55.5438C32.2186 55.5353 32.2054 55.5353 32.1923 55.5438C32.1824 55.5523 32.1824 55.5637 32.1923 55.5722L32.1989 55.5637Z" fill="#FEEAE5"/>
<path fill-rule="evenodd" clip-rule="evenodd" d="M12.4945 41.6615C12.4945 41.6615 12.5011 41.6757 12.4879 41.7041C12.4747 41.7041 12.4616 41.7098 12.4616 41.7211C12.4583 41.7325 12.4682 41.7438 12.4813 41.7438C12.4813 41.775 12.4747 41.7836 12.4682 41.7836L12.4813 41.7977C12.4813 41.7977 12.511 41.8091 12.5241 41.8148C12.6954 41.8744 12.86 41.9283 13.0411 41.9652C13.4889 42.056 13.963 42.0673 14.4437 42.0531C15.9649 42.0106 17.5684 41.5736 19.027 40.8868C19.9687 40.4441 20.8413 39.8794 21.6052 39.2466C24.203 37.0927 25.474 34.0734 23.4359 31.2952C23.0012 30.7021 22.3328 30.2197 21.5788 29.8593C20.8446 29.5103 20.0313 29.2747 19.274 29.1556C15.8991 28.6306 14.1145 30.4666 13.7424 32.3026C13.5086 33.4604 13.8346 34.6239 14.6709 35.1971C15.2372 35.5859 16.0374 35.7391 17.0251 35.4071C17.4104 35.2766 17.8187 35.0694 18.2599 34.78C18.3126 34.7516 18.3257 34.6892 18.2895 34.6466C18.2533 34.6012 18.1841 34.5899 18.1348 34.6182C17.6804 34.8396 17.2688 34.9786 16.8934 35.0694C16.0802 35.2624 15.4677 35.1489 15.0331 34.8225C14.3614 34.3203 14.1276 33.3583 14.3351 32.3963C14.6775 30.8156 16.2415 29.2549 19.1489 29.7345C19.8337 29.848 20.568 30.0693 21.2298 30.3928C21.8752 30.7078 22.4481 31.1193 22.8136 31.6301C24.6245 34.1358 23.3832 36.8146 21.0454 38.7443C20.3276 39.3374 19.5045 39.8539 18.6352 40.2881C17.2853 40.9634 15.82 41.4118 14.3976 41.5622C13.9498 41.6105 13.5119 41.6218 13.0806 41.6303C12.9028 41.6332 12.7349 41.6502 12.5571 41.653C12.5439 41.653 12.5241 41.6473 12.511 41.653L12.4912 41.6644L12.4945 41.6615Z" fill="#FEEAE5"/>
<path fill-rule="evenodd" clip-rule="evenodd" d="M42.4711 29.2176C42.5435 29.1637 42.5007 29.2545 42.5303 29.175C42.5336 29.1609 42.5205 29.1495 42.5172 29.1353C42.4513 28.9509 42.3822 28.7806 42.2933 28.6245C42.0167 28.1506 41.6249 27.8158 41.1573 27.5575C40.5581 27.2255 39.8073 27.0552 38.8986 26.9417C37.7857 26.8169 36.7715 26.8765 35.8727 27.0865C33.3242 27.6852 31.6647 29.4333 31.0556 31.3062C30.4563 33.1365 30.8383 35.1173 32.3496 36.2666C33.232 36.9391 34.5062 37.3166 36.1591 37.2172C36.2414 37.2172 36.3073 37.1576 36.304 37.0867C36.304 37.0158 36.2349 36.959 36.1525 36.9618C34.6544 36.9249 33.5678 36.4879 32.8138 35.8409C31.5659 34.7739 31.2696 33.0855 31.8096 31.4963C32.3759 29.8419 33.8411 28.3209 36.09 27.7647C36.9 27.5632 37.8054 27.4781 38.8163 27.5604C39.6295 27.6171 40.2979 27.7448 40.861 27.9945C41.2824 28.1818 41.638 28.4429 41.9673 28.8005C42.0858 28.9282 42.2077 29.0559 42.3229 29.2091C42.3328 29.2204 42.3328 29.2375 42.3492 29.2431C42.4348 29.2772 42.3295 29.2431 42.425 29.2318C42.4316 29.2431 42.4447 29.246 42.4546 29.2431C42.4678 29.2375 42.4744 29.2261 42.4678 29.2148L42.4711 29.2176Z" fill="#FEEAE5"/>
<path fill-rule="evenodd" clip-rule="evenodd" d="M37.6842 32.1093C37.6842 32.1093 37.6809 32.1178 37.6842 32.1235C37.6875 32.1377 37.6842 32.1235 37.6842 32.1093C37.7073 32.0753 37.8752 32.115 37.9279 32.115C38.1649 32.1093 38.4086 32.1576 38.6654 32.2115C38.9058 32.2626 39.1527 32.3307 39.3997 32.4158C40.1833 32.6825 40.9538 33.0912 41.4905 33.409C42.172 33.7666 42.6034 34.4107 42.8734 35.1287C43.0742 35.6679 43.1763 36.2496 43.2092 36.8143C43.229 37.1775 43.229 37.5294 43.1993 37.8643C43.1763 38.114 43.1532 38.3495 43.094 38.568C43.0709 38.6163 43.1006 38.673 43.1565 38.6901C43.2125 38.7099 43.2751 38.6844 43.2981 38.6361C43.4331 38.4262 43.5549 38.1991 43.6537 37.9437C43.7854 37.5975 43.8645 37.2201 43.9073 36.8257C43.9501 36.4057 43.927 35.9743 43.8612 35.5515C43.7525 34.879 43.499 34.2348 43.1137 33.7041C42.8207 33.3012 42.4453 32.9663 41.991 32.7223C41.3851 32.4215 40.5126 32.0299 39.64 31.8142C39.347 31.7404 39.0572 31.6808 38.7741 31.6609C38.4481 31.6382 38.1419 31.6609 37.862 31.7234C37.7534 31.7546 37.4965 31.817 37.4406 31.8965C37.4208 31.9249 37.3846 31.9419 37.3978 31.9674C37.4208 32.0128 37.3615 31.9873 37.4109 32.01C37.4801 32.0412 37.3714 32.044 37.4537 32.0554C37.4932 32.0611 37.4537 32.0667 37.4965 32.0781C37.5262 32.0866 37.5459 32.115 37.6085 32.1207C37.6217 32.1263 37.6348 32.1207 37.6414 32.1121C37.648 32.1008 37.6414 32.0894 37.6315 32.0838C37.6118 32.0611 37.6217 32.0299 37.6052 32.0299C37.592 32.0299 37.6348 32.0185 37.6282 32.0242C37.6085 32.0412 37.671 32.0185 37.6513 32.027C37.6118 32.0412 37.7237 32.0412 37.6809 32.0469C37.6513 32.0526 37.727 32.0554 37.6974 32.0667C37.6875 32.0696 37.6875 32.0951 37.6875 32.1121L37.6842 32.1093Z" fill="#FEEAE5"/>
<path fill-rule="evenodd" clip-rule="evenodd" d="M29.3985 38.6669C29.0626 38.5137 28.7334 38.4058 28.3876 38.3604C28.2987 38.3491 28.2065 38.3462 28.1143 38.3434C27.0739 38.315 26.0565 38.6641 25.174 39.2742C24.0809 40.0347 23.2083 41.2039 22.6914 42.4553C21.6048 45.0859 22.1382 48.1138 25.5033 49.0559C26.1058 49.195 26.7742 49.3482 27.4328 49.3794C27.66 49.3908 27.8872 49.3936 28.1045 49.3596C28.3284 49.3283 28.5424 49.2659 28.7498 49.1808C28.8058 49.1638 28.8354 49.1127 28.8157 49.0673C28.7959 49.019 28.7399 48.9935 28.6807 49.0105C28.4798 49.0446 28.2823 49.0446 28.0781 49.0389C27.8806 49.0361 27.6797 49.0219 27.4789 48.9935C26.8631 48.9027 26.2573 48.6927 25.7107 48.5082C24.5517 48.1705 23.7977 47.5491 23.3664 46.7772C22.7013 45.591 22.7968 44.0643 23.3631 42.6596C23.7516 41.6976 24.3706 40.7981 25.1247 40.0943C25.4671 39.7708 25.8359 39.487 26.231 39.26C26.8895 38.8826 27.604 38.6783 28.3679 38.6527C28.7004 38.6414 29.0297 38.6414 29.382 38.7038C29.3952 38.7066 29.4083 38.7038 29.4116 38.6924C29.4149 38.6811 29.4116 38.6697 29.3985 38.6669Z" fill="#FEEAE5"/>
<path fill-rule="evenodd" clip-rule="evenodd" d="M21.3095 30.2453C21.2864 30.1829 21.2864 30.1346 21.2568 30.075C21.158 29.8736 21.0296 29.7033 20.9341 29.516C20.6411 28.9399 20.5357 28.3582 20.5917 27.7651C20.6279 27.3735 20.7201 26.9819 20.8782 26.596C21.3523 25.4098 22.3532 24.3002 23.4431 23.5425C23.6538 23.3893 23.9139 23.1594 24.1971 22.9949C24.3222 22.9211 24.4539 22.8558 24.5889 22.853C24.984 22.8444 25.2507 22.9381 25.4285 23.1169C25.8796 23.5681 25.9159 24.3712 26.1299 25.1147C26.3801 25.9887 26.8114 26.7889 27.898 27.1436C28.4117 27.3111 28.9747 27.3395 29.5311 27.2685C30.058 27.2004 30.5749 27.0443 31.0227 26.84C31.8952 26.4456 32.5604 25.7787 33.0575 24.9955C33.749 23.9029 34.1178 22.5749 34.3186 21.505C34.9673 18.0231 32.1685 15.5826 28.7969 14.6717C26.3439 14.0077 23.588 14.1496 21.7244 15.2818C21.3753 15.4947 21.0494 15.7387 20.7794 16.0253C20.3908 16.434 20.1044 16.9221 19.9134 17.4754C19.8772 17.5606 19.9266 17.6542 20.0221 17.6854C20.1209 17.7166 20.2295 17.6741 20.2657 17.5889C20.516 17.115 20.8617 16.7263 21.2469 16.3829C21.5136 16.1502 21.7968 15.9402 22.1096 15.7614C23.8448 14.7682 26.3406 14.6632 28.573 15.2847C31.5792 16.1218 34.1178 18.2813 33.5119 21.3887C33.3209 22.3876 32.9752 23.6248 32.32 24.6436C31.9018 25.2963 31.3553 25.8581 30.6276 26.1816C30.2588 26.3462 29.8341 26.4739 29.406 26.5279C29.001 26.5789 28.5862 26.5619 28.2108 26.437C27.2494 26.1192 27.065 25.2821 26.8839 24.5017C26.7127 23.7667 26.548 23.0573 26.1101 22.6146C25.7776 22.2797 25.3034 22.0612 24.5692 22.0754C24.3321 22.0811 24.0983 22.1435 23.8711 22.2514C23.4925 22.4301 23.1402 22.7395 22.8603 22.9381C21.4412 23.9881 20.1768 25.5999 19.9299 27.2231C19.9035 27.4076 19.8838 27.592 19.8871 27.7736C19.9002 28.4973 20.1077 29.2237 20.6674 29.8338C20.7794 29.9559 20.9012 30.0722 21.0494 30.1715C21.1021 30.2056 21.1449 30.2425 21.2107 30.2595C21.237 30.268 21.2436 30.2623 21.27 30.2652C21.2799 30.2737 21.293 30.2737 21.3062 30.2652C21.3161 30.2567 21.3161 30.2453 21.3062 30.2368L21.3095 30.2453Z" fill="#FEEAE5"/>
</g>
<path d="M43.5625 4.23621C43.5625 -4.53245 55.6958 -6.96724 60.2923 -0.44325C63.8681 -2.00118 68.7214 0.93306 67.187 4.23621C71.9119 3.45015 79.4487 7.93096 76.3833 14.7444C81.8754 15.6213 82.0038 22.6305 77.9176 24.092C81.4934 25.5534 80.5978 31.2005 75.491 31.0047C79.5771 33.4367 77.7892 41.5186 70.8945 41.7144C74.9806 44.2457 71.4049 49.1153 67.1903 47.0693C71.0196 51.062 66.8084 56.6921 59.4 55.3356C58.8863 63.8148 43.5625 65.2593 43.5625 55.3356V4.23621Z" fill="#EF5F3D"/>
<mask id="mask3_5491_33592" style="mask-type:luminance" maskUnits="userSpaceOnUse" x="43" y="-5" width="38" height="68">
<path d="M43.5625 4.23621C43.5625 -4.53245 55.6958 -6.96724 60.2923 -0.44325C63.8681 -2.00118 68.7214 0.93306 67.187 4.23621C71.9119 3.45015 79.4487 7.93096 76.3833 14.7444C81.8754 15.6213 82.0038 22.6305 77.9176 24.092C81.4934 25.5534 80.5978 31.2005 75.491 31.0047C79.5771 33.4367 77.7892 41.5186 70.8945 41.7144C74.9806 44.2457 71.4049 49.1153 67.1903 47.0693C71.0196 51.062 66.8084 56.6921 59.4 55.3356C58.8863 63.8148 43.5625 65.2593 43.5625 55.3356V4.23621Z" fill="white"/>
</mask>
<g mask="url(#mask3_5491_33592)">
<path fill-rule="evenodd" clip-rule="evenodd" d="M59.4501 59.2952C59.4995 59.3009 59.539 59.298 59.5851 59.281C59.674 59.2469 59.7234 59.1618 59.7662 59.0738C59.8782 58.8496 59.8847 58.5091 59.9539 58.336C60.2239 57.6039 60.2601 56.798 60.0955 55.9864C59.9341 55.1861 59.5687 54.3887 59.0583 53.6679C58.841 53.3614 58.5907 53.072 58.324 52.8024C57.4745 51.9539 56.4012 51.287 55.2125 51.0146C54.4058 50.8302 53.5333 50.7933 52.6805 51.0373C52.5685 51.0685 52.4566 51.0997 52.3545 51.1565C52.2426 51.2189 52.1767 51.287 52.078 51.3693C52.022 51.3864 51.9989 51.4403 52.0187 51.4857C52.0417 51.5311 52.101 51.5538 52.157 51.5368C52.2854 51.5368 52.3809 51.5623 52.506 51.5566C52.6146 51.5538 52.7167 51.5339 52.8221 51.5197C53.5926 51.4147 54.3202 51.4431 55.015 51.6219C56.0686 51.8915 57.0202 52.4619 57.7906 53.2054C58.6434 54.0255 59.2756 55.0442 59.5752 56.0828C59.786 56.8235 59.8485 57.5727 59.6707 58.2679C59.6345 58.4268 59.6707 58.6992 59.6345 58.9291C59.6213 59.0256 59.5818 59.1079 59.5291 59.1732C59.5028 59.2072 59.4863 59.2413 59.4435 59.264C59.4337 59.264 59.4304 59.2753 59.4337 59.2838C59.4337 59.2923 59.4435 59.2952 59.4567 59.2952H59.4501Z" fill="#FEEAE5"/>
<path fill-rule="evenodd" clip-rule="evenodd" d="M53.4114 55.54C53.2863 55.6251 53.1118 55.6336 52.9241 55.6251C52.6442 55.6109 52.3446 55.5428 52.1405 55.5116C51.9495 55.4861 51.7585 55.452 51.5675 55.418C50.8234 55.2931 50.0694 55.1086 49.3911 54.8022C48.5614 54.4304 47.8436 53.8969 47.4254 53.1534C46.7142 51.9105 46.5298 50.6931 46.7241 49.6006C46.9447 48.3434 47.6724 47.2509 48.7128 46.4734C50.1616 45.3922 52.1898 44.9552 54.3004 45.5028C55.0709 45.7043 55.8578 46.0165 56.6316 46.4961C56.6678 46.5216 56.7205 46.5159 56.7501 46.4847C56.7765 46.4535 56.7732 46.4081 56.7369 46.3825C55.9895 45.8178 55.2191 45.4092 54.4321 45.1595C52.1898 44.45 49.9377 44.9438 48.3408 46.0931C47.1785 46.9274 46.3487 48.1278 46.0952 49.5154C45.8779 50.7073 46.0952 52.0354 46.8756 53.389C47.3695 54.2289 48.1794 54.8419 49.1343 55.242C49.8751 55.5513 50.695 55.7528 51.505 55.8152C51.7124 55.8323 51.9133 55.8323 52.1174 55.8323C52.3676 55.8238 52.7726 55.855 53.0821 55.7698C53.2369 55.7273 53.3587 55.6648 53.4377 55.5627C53.4443 55.557 53.4443 55.5485 53.4377 55.5428C53.4312 55.5371 53.418 55.5371 53.4147 55.5428L53.4114 55.54Z" fill="#FEEAE5"/>
<path fill-rule="evenodd" clip-rule="evenodd" d="M73.1564 41.7081C73.13 41.6571 73.1926 41.6996 73.1366 41.6713C73.1235 41.6656 73.107 41.6713 73.0905 41.6713C72.916 41.6769 72.7481 41.6713 72.5703 41.6713C72.1357 41.6741 71.6912 41.6713 71.2434 41.6258C69.8078 41.4896 68.3228 41.0413 66.9597 40.3659C66.0806 39.9289 65.2508 39.4067 64.5264 38.808C62.1558 36.8471 60.9079 34.1228 62.7484 31.5802C63.1238 31.0581 63.7099 30.6381 64.3684 30.3174C65.0401 29.9911 65.7875 29.7669 66.479 29.6534C69.4489 29.1653 71.0392 30.7658 71.3883 32.3804C71.599 33.368 71.352 34.3584 70.6606 34.8692C70.2095 35.204 69.5707 35.3204 68.7344 35.1104C68.3623 35.0167 67.9475 34.8663 67.4964 34.6365C67.4602 34.6138 67.4075 34.6251 67.3844 34.6563C67.3581 34.6904 67.3713 34.7329 67.4075 34.7556C67.8487 35.0366 68.257 35.2352 68.6422 35.3601C69.6069 35.6722 70.384 35.5275 70.9306 35.1473C71.7406 34.5825 72.0567 33.4446 71.8262 32.3152C71.4574 30.5132 69.7057 28.7141 66.3901 29.2334C65.6459 29.3497 64.8392 29.5853 64.1182 29.9315C63.3773 30.2862 62.7254 30.7601 62.2973 31.339C60.2856 34.0803 61.5532 37.0542 64.1182 39.1769C64.8755 39.804 65.7414 40.363 66.6732 40.8057C68.1154 41.4925 69.6991 41.9295 71.2104 41.9862C71.6846 42.0033 72.1521 41.9948 72.5999 41.9181C72.7777 41.8869 72.949 41.8415 73.1169 41.7904C73.1333 41.7848 73.1531 41.7904 73.163 41.7762C73.2025 41.7308 73.163 41.7904 73.163 41.7365C73.1728 41.7365 73.1794 41.728 73.1761 41.7195C73.1761 41.711 73.1663 41.7053 73.1564 41.7081Z" fill="#FEEAE5"/>
<path fill-rule="evenodd" clip-rule="evenodd" d="M43.2091 29.2317C43.265 29.2345 43.2189 29.2572 43.265 29.2345C43.2782 29.2288 43.2815 29.2118 43.2881 29.2004C43.3967 29.0444 43.512 28.9082 43.6272 28.7776C43.9532 28.4059 44.3088 28.1334 44.7368 27.9376C45.3065 27.6766 45.988 27.5432 46.8112 27.4808C47.8352 27.39 48.7571 27.4751 49.577 27.6766C51.8686 28.2384 53.3602 29.7907 53.9298 31.4735C54.4797 33.0967 54.1702 34.822 52.8893 35.9004C52.1156 36.5502 51.006 36.9787 49.4881 36.9986C49.4288 36.9986 49.3794 37.0383 49.3761 37.0894C49.3761 37.1405 49.4222 37.183 49.4815 37.1859C51.1146 37.2653 52.3625 36.8794 53.2285 36.2125C54.7036 35.0746 55.0756 33.1336 54.483 31.3344C53.8771 29.4899 52.244 27.773 49.735 27.18C48.846 26.97 47.8484 26.9075 46.7486 27.0267C45.853 27.1317 45.1155 27.2963 44.5195 27.617C44.0618 27.8639 43.6733 28.1902 43.3902 28.6499C43.298 28.8003 43.2189 28.9677 43.1498 29.1465C43.1432 29.1607 43.13 29.1721 43.1333 29.1863C43.1465 29.2317 43.1333 29.1862 43.1761 29.2203C43.1695 29.2288 43.1761 29.2373 43.1827 29.2402C43.1926 29.243 43.2025 29.2402 43.2058 29.2317H43.2091Z" fill="#FEEAE5"/>
<path fill-rule="evenodd" clip-rule="evenodd" d="M48.0299 32.1118C48.0858 32.1004 48.1056 32.0777 48.1287 32.0663C48.155 32.055 48.1385 32.0522 48.1649 32.0465C48.1846 32.0408 48.1616 32.038 48.1813 32.0295C48.234 32.0096 48.1846 32.0238 48.2044 31.9755C48.211 31.9557 48.1846 31.9415 48.1682 31.9188C48.1089 31.8478 47.8751 31.7911 47.7698 31.7684C47.4965 31.7116 47.1968 31.7003 46.8807 31.7258C46.6042 31.7514 46.3177 31.811 46.0313 31.8847C45.1719 32.1089 44.3125 32.5034 43.7133 32.8042C43.2786 33.0425 42.9132 33.366 42.63 33.752C42.248 34.2713 42.0011 34.9013 41.8859 35.5596C41.8134 35.9739 41.7904 36.4024 41.8233 36.8167C41.8529 37.2055 41.9254 37.5801 42.0439 37.9263C42.1295 38.1789 42.2415 38.4087 42.3666 38.6216C42.3797 38.6585 42.4291 38.6755 42.4719 38.6613C42.5114 38.6471 42.5345 38.6074 42.518 38.5705C42.4522 38.352 42.4127 38.1164 42.3797 37.8667C42.3369 37.5319 42.3238 37.1743 42.3369 36.8082C42.3567 36.2322 42.4555 35.6391 42.6563 35.0914C42.9263 34.3451 43.3774 33.681 44.082 33.3064C44.6286 32.9915 45.4155 32.5857 46.2091 32.3246C46.4626 32.2423 46.7128 32.177 46.9598 32.1288C47.2265 32.0777 47.48 32.038 47.7204 32.0522C47.7829 32.0522 48.0002 32.0153 47.9838 32.0777C47.9772 32.1004 48.0101 32.038 47.9969 32.0295C47.9706 32.0124 48.0562 32.0436 48.0365 32.0181C48.0332 32.0124 48.0595 32.0266 48.0496 32.0266C48.0299 32.0266 48.0365 32.0578 48.0134 32.0777C48.0035 32.0805 48.0002 32.0919 48.0068 32.0976C48.0101 32.1061 48.02 32.1061 48.0299 32.1032V32.1118Z" fill="#FEEAE5"/>
<path fill-rule="evenodd" clip-rule="evenodd" d="M56.256 38.701C56.605 38.6272 56.9375 38.6102 57.2701 38.6159C58.0472 38.6244 58.7781 38.8259 59.4498 39.2061C59.8515 39.4332 60.2302 39.7198 60.5825 40.0433C61.3464 40.7527 61.972 41.6608 62.3671 42.6342C62.9466 44.0587 63.0355 45.611 62.3605 46.8142C61.9193 47.6031 61.1455 48.2387 59.9569 48.5821C59.4037 48.7609 58.7847 48.9652 58.1657 49.0446C57.9616 49.0702 57.7607 49.0815 57.5566 49.0815C57.3491 49.0815 57.1483 49.073 56.9474 49.0333C56.9079 49.0219 56.8618 49.0418 56.8519 49.0759C56.8388 49.1099 56.8585 49.1468 56.898 49.161C57.1022 49.2376 57.3162 49.2915 57.5368 49.3199C57.7541 49.3454 57.978 49.3426 58.2019 49.3313C58.8538 49.2944 59.5157 49.1326 60.1116 48.9879C63.4207 48.0571 63.9278 45.0775 62.861 42.4866C62.3506 41.2465 61.4879 40.0944 60.4113 39.3338C59.5486 38.7266 58.5509 38.3548 57.5269 38.3889C57.1779 38.4002 56.8289 38.457 56.4865 38.5762C56.4041 38.6045 56.3284 38.6386 56.2494 38.6755C56.2395 38.6755 56.2362 38.6868 56.2395 38.6954C56.2428 38.7039 56.2527 38.7067 56.2626 38.7039L56.256 38.701Z" fill="#FEEAE5"/>
<path fill-rule="evenodd" clip-rule="evenodd" d="M64.3647 30.2704C64.3878 30.2648 64.3977 30.2676 64.4174 30.2591C64.4767 30.2364 64.5195 30.1995 64.5656 30.1626C64.7072 30.0576 64.8224 29.9384 64.9278 29.8164C65.5863 29.0474 65.7443 28.1364 65.6126 27.2425C65.3789 25.6392 64.1079 24.0529 62.702 23.0256C62.4287 22.8298 62.083 22.5262 61.7109 22.3503C61.5035 22.2509 61.2862 22.1913 61.0688 22.1857C60.3774 22.1715 59.9296 22.373 59.6201 22.688C59.1064 23.2073 59.0011 24.1125 58.7607 24.9638C58.573 25.6279 58.2932 26.2664 57.4667 26.5388C57.0749 26.6693 56.6403 26.6863 56.2122 26.6324C55.7677 26.5757 55.3331 26.4451 54.9545 26.2777C54.207 25.9429 53.6473 25.3668 53.216 24.6971C52.5574 23.6698 52.2084 22.4184 52.0141 21.411C51.405 18.2525 53.9798 16.0561 57.0321 15.2105C59.2941 14.5833 61.8228 14.6912 63.5778 15.7042C63.8939 15.8887 64.1837 16.1015 64.4504 16.3427C64.8356 16.6918 65.1747 17.0947 65.4151 17.58C65.4414 17.6424 65.5205 17.6736 65.5929 17.6509C65.6653 17.6282 65.7015 17.5601 65.6719 17.4977C65.4711 16.9557 65.1747 16.4818 64.7895 16.0817C64.5195 15.8007 64.2001 15.5624 63.8544 15.3552C62.0039 14.24 59.2875 14.1037 56.8642 14.7621C53.5419 15.6645 50.7794 18.0681 51.4215 21.4989C51.6223 22.5603 51.9878 23.8741 52.6727 24.9582C53.16 25.7272 53.8086 26.377 54.6647 26.763C55.1026 26.9616 55.6064 27.1148 56.12 27.1801C56.6567 27.2482 57.2 27.2227 57.6939 27.0609C58.741 26.7176 59.1492 25.9457 59.3896 25.1029C59.6069 24.3424 59.6563 23.5223 60.1173 23.0625C60.3181 22.8611 60.6112 22.7532 61.0491 22.7617C61.2071 22.7646 61.3586 22.8355 61.5068 22.9206C61.7932 23.0852 62.0566 23.3179 62.2706 23.474C63.3737 24.2459 64.3812 25.3753 64.8586 26.5785C65.0134 26.973 65.1089 27.3731 65.1385 27.7732C65.1846 28.3776 65.0694 28.9707 64.7533 29.5525C64.6512 29.7369 64.5195 29.9072 64.4043 30.103C64.3746 30.1569 64.3615 30.2052 64.3318 30.2591C64.3252 30.2648 64.3252 30.2761 64.3318 30.2789C64.3384 30.2846 64.3516 30.2846 64.3549 30.2789L64.3647 30.2704Z" fill="#FEEAE5"/>
</g>
</g>
</g>
<defs>
<clipPath id="clip0_5491_33592">
<rect width="81.6979" height="68.2681" fill="white" transform="translate(0.914062)"/>
</clipPath>
</defs>
</svg>
