<svg width="132" height="132" viewBox="0 0 132 132" fill="none" xmlns="http://www.w3.org/2000/svg">
<g filter="url(#filter0_d_6574_15160)">
<rect x="30" y="28" width="72" height="72" rx="6" fill="white" shape-rendering="crispEdges"/>
<path d="M78.0362 71.5095C79.9074 72 81.4254 72.9618 82.5026 74.5145C84.261 77.0452 84.4999 79.7635 83.0769 82.4803C81.6227 85.2548 79.2144 86.6568 76.0523 86.5947C73.6203 86.5475 71.6631 85.4779 70.1896 83.5603C69.9433 83.2412 69.6777 83.2072 69.3364 83.2072C63.2407 83.2116 57.145 83.2072 51.0493 83.2116C50.3356 83.2116 49.653 83.1274 49.0654 82.6753C48.3799 82.1464 48.0356 81.4418 48.0089 80.5864C47.9926 80.0545 48.0045 79.5212 48.0045 78.9879C48.0045 67.4291 48.0059 55.8718 48 44.313C48 43.2892 48.2968 42.394 49.2049 41.871C49.6753 41.6006 50.2748 41.4263 50.8178 41.4248C58.9568 41.3968 67.0972 41.3982 75.2377 41.4115C76.9753 41.4145 78.0347 42.5255 78.0347 44.2761C78.0377 53.1151 78.0362 61.9526 78.0362 70.7915C78.0362 71.0279 78.0362 71.2628 78.0362 71.5095ZM76.7097 71.3175C76.7097 71.0782 76.7097 70.8817 76.7097 70.6837C76.7097 61.9378 76.7097 53.1919 76.7097 44.4475C76.7097 43.1711 76.2675 42.7278 74.981 42.7278C67.0082 42.7278 59.034 42.7278 51.0612 42.7278C49.7702 42.7278 49.3295 43.1666 49.3295 44.4416C49.3295 56.3475 49.3295 68.2535 49.3295 80.1594C49.3295 81.4447 49.7658 81.8864 51.0478 81.8864C56.8853 81.8879 62.7228 81.8864 68.5603 81.8864C68.7517 81.8864 68.9417 81.8672 69.1642 81.8554C68.2635 79.2228 68.4594 76.7778 70.0605 74.5514C71.6645 72.3176 73.9111 71.2835 76.7111 71.319L76.7097 71.3175ZM76.2957 85.2902C79.7887 85.2888 82.6065 82.4877 82.6243 78.9967C82.6421 75.491 79.8139 72.6604 76.2927 72.6589C72.7715 72.6589 69.9551 75.4821 69.9655 78.9997C69.9774 82.4818 72.8041 85.2917 76.2957 85.2902Z" fill="url(#paint0_linear_6574_15160)"/>
<path d="M63.0183 66.388C65.8718 66.388 68.7238 66.388 71.5772 66.388C71.7419 66.388 71.9615 66.3318 72.0624 66.4146C72.2806 66.5948 72.564 66.84 72.5788 67.0749C72.5922 67.2699 72.2835 67.5181 72.0699 67.6806C71.963 67.7619 71.7493 67.7087 71.5846 67.7087C65.8792 67.7087 60.1723 67.7087 54.4669 67.7087C54.3022 67.7087 54.0825 67.7649 53.9816 67.6821C53.7635 67.5019 53.4801 67.2566 53.4653 67.0217C53.4519 66.8267 53.7606 66.5785 53.9742 66.416C54.0811 66.3348 54.2947 66.388 54.4594 66.388C57.3129 66.388 60.1649 66.388 63.0183 66.388Z" fill="url(#paint1_linear_6574_15160)"/>
<path d="M63.011 60.673C60.1397 60.673 57.2684 60.676 54.3986 60.6671C54.1686 60.6671 53.8882 60.6568 53.722 60.5297C53.5647 60.4101 53.4327 60.119 53.4608 59.9299C53.4905 59.7394 53.7012 59.5311 53.8882 59.4217C54.0455 59.3301 54.2799 59.3508 54.4788 59.3508C60.1649 59.3479 65.8525 59.3479 71.5387 59.3479C71.6307 59.3479 71.7227 59.3479 71.8147 59.3479C72.2569 59.3538 72.5729 59.5355 72.6145 60.0053C72.6501 60.4086 72.3221 60.6686 71.788 60.6686C68.8618 60.6716 65.9356 60.6701 63.0095 60.6701L63.011 60.673Z" fill="url(#paint2_linear_6574_15160)"/>
<path d="M67.0665 52.2537C68.6127 52.2537 70.1589 52.2507 71.7036 52.2537C72.3016 52.2537 72.6102 52.4753 72.6221 52.8919C72.6339 53.3203 72.2927 53.5744 71.6813 53.5744C68.5711 53.5759 65.461 53.5774 62.3508 53.5744C61.7321 53.5744 61.4086 53.3247 61.4486 52.8712C61.4917 52.3807 61.8241 52.2507 62.2633 52.2522C63.8644 52.2566 65.4654 52.2537 67.0665 52.2537Z" fill="url(#paint3_linear_6574_15160)"/>
<path d="M55.2644 53.7743C55.8491 52.8924 56.4026 52.0547 56.9575 51.2171C57.1 51.0028 57.238 50.7857 57.3864 50.5744C57.6282 50.2317 57.9458 50.0632 58.3301 50.3129C58.7337 50.5759 58.7203 50.9511 58.477 51.3219C57.8938 52.2143 57.3033 53.1007 56.7142 53.99C56.4397 54.4037 56.177 54.8247 55.8891 55.2281C55.5226 55.7422 55.0567 55.7496 54.6768 55.2413C54.3029 54.7405 53.9527 54.2235 53.5951 53.7093C53.3458 53.3518 53.3592 53.0017 53.7197 52.7417C54.0877 52.4772 54.4186 52.6058 54.6739 52.947C54.8608 53.1952 55.0359 53.4523 55.2644 53.7729V53.7743Z" fill="url(#paint4_linear_6574_15160)"/>
<path d="M77.1814 78.9798C77.7645 79.5397 78.2868 80.0287 78.7928 80.5339C79.1875 80.9269 79.2187 81.2889 78.916 81.5902C78.6133 81.8916 78.2527 81.8591 77.8595 81.4647C77.3535 80.9594 76.8623 80.4409 76.297 79.8588C75.7583 80.4113 75.2657 80.9254 74.7642 81.4292C74.3398 81.8547 73.9762 81.9005 73.6661 81.5888C73.3723 81.2918 73.4272 80.8915 73.8397 80.4881C74.3368 80.0021 74.8473 79.5293 75.4378 78.9694C74.8532 78.4154 74.3309 77.9323 73.8234 77.4345C73.4213 77.04 73.3664 76.6071 73.6928 76.3412C74.0875 76.0192 74.4362 76.1625 74.7553 76.4949C75.2375 76.9986 75.7272 77.4965 76.2732 78.0579C76.8223 77.5083 77.3164 76.9735 77.861 76.4949C78.0554 76.3235 78.3818 76.1861 78.6296 76.2127C79.1386 76.2659 79.2766 76.9056 78.8759 77.3237C78.3551 77.8658 77.8046 78.377 77.1858 78.9798H77.1814Z" fill="url(#paint5_linear_6574_15160)"/>
<path d="M78.0362 71.5095C79.9074 72 81.4254 72.9618 82.5026 74.5145C84.261 77.0452 84.4999 79.7635 83.0769 82.4803C81.6227 85.2548 79.2144 86.6568 76.0523 86.5947C73.6203 86.5475 71.6631 85.4779 70.1896 83.5603C69.9433 83.2412 69.6777 83.2072 69.3364 83.2072C63.2407 83.2116 57.145 83.2072 51.0493 83.2116C50.3356 83.2116 49.653 83.1274 49.0654 82.6753C48.3799 82.1464 48.0356 81.4418 48.0089 80.5864C47.9926 80.0545 48.0045 79.5212 48.0045 78.9879C48.0045 67.4291 48.0059 55.8718 48 44.313C48 43.2892 48.2968 42.394 49.2049 41.871C49.6753 41.6006 50.2748 41.4263 50.8178 41.4248C58.9568 41.3968 67.0972 41.3982 75.2377 41.4115C76.9753 41.4145 78.0347 42.5255 78.0347 44.2761C78.0377 53.1151 78.0362 61.9526 78.0362 70.7915C78.0362 71.0279 78.0362 71.2628 78.0362 71.5095ZM76.7097 71.3175C76.7097 71.0782 76.7097 70.8817 76.7097 70.6837C76.7097 61.9378 76.7097 53.1919 76.7097 44.4475C76.7097 43.1711 76.2675 42.7278 74.981 42.7278C67.0082 42.7278 59.034 42.7278 51.0612 42.7278C49.7702 42.7278 49.3295 43.1666 49.3295 44.4416C49.3295 56.3475 49.3295 68.2535 49.3295 80.1594C49.3295 81.4447 49.7658 81.8864 51.0478 81.8864C56.8853 81.8879 62.7228 81.8864 68.5603 81.8864C68.7517 81.8864 68.9417 81.8672 69.1642 81.8554C68.2635 79.2228 68.4594 76.7778 70.0605 74.5514C71.6645 72.3176 73.9111 71.2835 76.7111 71.319L76.7097 71.3175ZM76.2957 85.2902C79.7887 85.2888 82.6065 82.4877 82.6243 78.9967C82.6421 75.491 79.8139 72.6604 76.2927 72.6589C72.7715 72.6589 69.9551 75.4821 69.9655 78.9997C69.9774 82.4818 72.8041 85.2917 76.2957 85.2902Z" stroke="url(#paint6_linear_6574_15160)" stroke-width="0.5"/>
<path d="M63.0183 66.388C65.8718 66.388 68.7238 66.388 71.5772 66.388C71.7419 66.388 71.9615 66.3318 72.0624 66.4146C72.2806 66.5948 72.564 66.84 72.5788 67.0749C72.5922 67.2699 72.2835 67.5181 72.0699 67.6806C71.963 67.7619 71.7493 67.7087 71.5846 67.7087C65.8792 67.7087 60.1723 67.7087 54.4669 67.7087C54.3022 67.7087 54.0825 67.7649 53.9816 67.6821C53.7635 67.5019 53.4801 67.2566 53.4653 67.0217C53.4519 66.8267 53.7606 66.5785 53.9742 66.416C54.0811 66.3348 54.2947 66.388 54.4594 66.388C57.3129 66.388 60.1649 66.388 63.0183 66.388Z" stroke="url(#paint7_linear_6574_15160)" stroke-width="0.5"/>
<path d="M63.011 60.673C60.1397 60.673 57.2684 60.676 54.3986 60.6671C54.1686 60.6671 53.8882 60.6568 53.722 60.5297C53.5647 60.4101 53.4327 60.119 53.4608 59.9299C53.4905 59.7394 53.7012 59.5311 53.8882 59.4217C54.0455 59.3301 54.2799 59.3508 54.4788 59.3508C60.1649 59.3479 65.8525 59.3479 71.5387 59.3479C71.6307 59.3479 71.7227 59.3479 71.8147 59.3479C72.2569 59.3538 72.5729 59.5355 72.6145 60.0053C72.6501 60.4086 72.3221 60.6686 71.788 60.6686C68.8618 60.6716 65.9356 60.6701 63.0095 60.6701L63.011 60.673Z" stroke="url(#paint8_linear_6574_15160)" stroke-width="0.5"/>
<path d="M67.0665 52.2537C68.6127 52.2537 70.1589 52.2507 71.7036 52.2537C72.3016 52.2537 72.6102 52.4753 72.6221 52.8919C72.6339 53.3203 72.2927 53.5744 71.6813 53.5744C68.5711 53.5759 65.461 53.5774 62.3508 53.5744C61.7321 53.5744 61.4086 53.3247 61.4486 52.8712C61.4917 52.3807 61.8241 52.2507 62.2633 52.2522C63.8644 52.2566 65.4654 52.2537 67.0665 52.2537Z" stroke="url(#paint9_linear_6574_15160)" stroke-width="0.5"/>
<path d="M55.2644 53.7743C55.8491 52.8924 56.4026 52.0547 56.9575 51.2171C57.1 51.0028 57.238 50.7857 57.3864 50.5744C57.6282 50.2317 57.9458 50.0632 58.3301 50.3129C58.7337 50.5759 58.7203 50.9511 58.477 51.3219C57.8938 52.2143 57.3033 53.1007 56.7142 53.99C56.4397 54.4037 56.177 54.8247 55.8891 55.2281C55.5226 55.7422 55.0567 55.7496 54.6768 55.2413C54.3029 54.7405 53.9527 54.2235 53.5951 53.7093C53.3458 53.3518 53.3592 53.0017 53.7197 52.7417C54.0877 52.4772 54.4186 52.6058 54.6739 52.947C54.8608 53.1952 55.0359 53.4523 55.2644 53.7729V53.7743Z" stroke="url(#paint10_linear_6574_15160)" stroke-width="0.5"/>
<path d="M77.1814 78.9798C77.7645 79.5397 78.2868 80.0287 78.7928 80.5339C79.1875 80.9269 79.2187 81.2889 78.916 81.5902C78.6133 81.8916 78.2527 81.8591 77.8595 81.4647C77.3535 80.9594 76.8623 80.4409 76.297 79.8588C75.7583 80.4113 75.2657 80.9254 74.7642 81.4292C74.3398 81.8547 73.9762 81.9005 73.6661 81.5888C73.3723 81.2918 73.4272 80.8915 73.8397 80.4881C74.3368 80.0021 74.8473 79.5293 75.4378 78.9694C74.8532 78.4154 74.3309 77.9323 73.8234 77.4345C73.4213 77.04 73.3664 76.6071 73.6928 76.3412C74.0875 76.0192 74.4362 76.1625 74.7553 76.4949C75.2375 76.9986 75.7272 77.4965 76.2732 78.0579C76.8223 77.5083 77.3164 76.9735 77.861 76.4949C78.0554 76.3235 78.3818 76.1861 78.6296 76.2127C79.1386 76.2659 79.2766 76.9056 78.8759 77.3237C78.3551 77.8658 77.8046 78.377 77.1858 78.9798H77.1814Z" stroke="url(#paint11_linear_6574_15160)" stroke-width="0.5"/>
</g>
<defs>
<filter id="filter0_d_6574_15160" x="0" y="0" width="132" height="132" filterUnits="userSpaceOnUse" color-interpolation-filters="sRGB">
<feFlood flood-opacity="0" result="BackgroundImageFix"/>
<feColorMatrix in="SourceAlpha" type="matrix" values="0 0 0 0 0 0 0 0 0 0 0 0 0 0 0 0 0 0 127 0" result="hardAlpha"/>
<feOffset dy="2"/>
<feGaussianBlur stdDeviation="15"/>
<feComposite in2="hardAlpha" operator="out"/>
<feColorMatrix type="matrix" values="0 0 0 0 1 0 0 0 0 0.545098 0 0 0 0 0.0745098 0 0 0 0.12 0"/>
<feBlend mode="normal" in2="BackgroundImageFix" result="effect1_dropShadow_6574_15160"/>
<feBlend mode="normal" in="SourceGraphic" in2="effect1_dropShadow_6574_15160" result="shape"/>
</filter>
<linearGradient id="paint0_linear_6574_15160" x1="52.7478" y1="50.0936" x2="82.3986" y2="50.209" gradientUnits="userSpaceOnUse">
<stop stop-color="#F8BF3B"/>
<stop offset="0.305" stop-color="#FF8B13"/>
<stop offset="1" stop-color="#EF5F3D"/>
</linearGradient>
<linearGradient id="paint1_linear_6574_15160" x1="52.7478" y1="50.0936" x2="82.3986" y2="50.209" gradientUnits="userSpaceOnUse">
<stop stop-color="#F8BF3B"/>
<stop offset="0.305" stop-color="#FF8B13"/>
<stop offset="1" stop-color="#EF5F3D"/>
</linearGradient>
<linearGradient id="paint2_linear_6574_15160" x1="52.7478" y1="50.0936" x2="82.3986" y2="50.209" gradientUnits="userSpaceOnUse">
<stop stop-color="#F8BF3B"/>
<stop offset="0.305" stop-color="#FF8B13"/>
<stop offset="1" stop-color="#EF5F3D"/>
</linearGradient>
<linearGradient id="paint3_linear_6574_15160" x1="52.7478" y1="50.0936" x2="82.3986" y2="50.209" gradientUnits="userSpaceOnUse">
<stop stop-color="#F8BF3B"/>
<stop offset="0.305" stop-color="#FF8B13"/>
<stop offset="1" stop-color="#EF5F3D"/>
</linearGradient>
<linearGradient id="paint4_linear_6574_15160" x1="52.7478" y1="50.0936" x2="82.3986" y2="50.209" gradientUnits="userSpaceOnUse">
<stop stop-color="#F8BF3B"/>
<stop offset="0.305" stop-color="#FF8B13"/>
<stop offset="1" stop-color="#EF5F3D"/>
</linearGradient>
<linearGradient id="paint5_linear_6574_15160" x1="52.7478" y1="50.0936" x2="82.3986" y2="50.209" gradientUnits="userSpaceOnUse">
<stop stop-color="#F8BF3B"/>
<stop offset="0.305" stop-color="#FF8B13"/>
<stop offset="1" stop-color="#EF5F3D"/>
</linearGradient>
<linearGradient id="paint6_linear_6574_15160" x1="52.7478" y1="50.0936" x2="82.3986" y2="50.209" gradientUnits="userSpaceOnUse">
<stop stop-color="#F8BF3B"/>
<stop offset="0.305" stop-color="#FF8B13"/>
<stop offset="1" stop-color="#EF5F3D"/>
</linearGradient>
<linearGradient id="paint7_linear_6574_15160" x1="52.7478" y1="50.0936" x2="82.3986" y2="50.209" gradientUnits="userSpaceOnUse">
<stop stop-color="#F8BF3B"/>
<stop offset="0.305" stop-color="#FF8B13"/>
<stop offset="1" stop-color="#EF5F3D"/>
</linearGradient>
<linearGradient id="paint8_linear_6574_15160" x1="52.7478" y1="50.0936" x2="82.3986" y2="50.209" gradientUnits="userSpaceOnUse">
<stop stop-color="#F8BF3B"/>
<stop offset="0.305" stop-color="#FF8B13"/>
<stop offset="1" stop-color="#EF5F3D"/>
</linearGradient>
<linearGradient id="paint9_linear_6574_15160" x1="52.7478" y1="50.0936" x2="82.3986" y2="50.209" gradientUnits="userSpaceOnUse">
<stop stop-color="#F8BF3B"/>
<stop offset="0.305" stop-color="#FF8B13"/>
<stop offset="1" stop-color="#EF5F3D"/>
</linearGradient>
<linearGradient id="paint10_linear_6574_15160" x1="52.7478" y1="50.0936" x2="82.3986" y2="50.209" gradientUnits="userSpaceOnUse">
<stop stop-color="#F8BF3B"/>
<stop offset="0.305" stop-color="#FF8B13"/>
<stop offset="1" stop-color="#EF5F3D"/>
</linearGradient>
<linearGradient id="paint11_linear_6574_15160" x1="52.7478" y1="50.0936" x2="82.3986" y2="50.209" gradientUnits="userSpaceOnUse">
<stop stop-color="#F8BF3B"/>
<stop offset="0.305" stop-color="#FF8B13"/>
<stop offset="1" stop-color="#EF5F3D"/>
</linearGradient>
</defs>
</svg>
