<svg  viewBox="0 0 390 787" fill="none" xmlns="http://www.w3.org/2000/svg">
<g opacity="0.5">
<path d="M134.438 726.133C135.374 721.959 135.571 720.223 136.227 715.923C136.988 710.933 136.695 704.588 133.735 701.712C128.245 709.675 129.478 719.325 130.056 726.598C126.46 716.753 121.184 707.525 114.557 699.486C113.392 704.823 114.249 710.599 116.517 715.659C118.785 720.72 122.403 725.087 126.617 728.576C119.878 725.26 112.634 723.121 105.293 722.279C112.755 729.779 121.638 734.11 131.844 734.6L133.558 733.977C141.127 731.434 145.975 725.781 149.219 720.936C150.585 718.895 152.131 715.931 151.539 715.345C145.393 718.545 139.773 721.657 134.437 726.131L134.438 726.133Z" fill="#E0E0E0"/>
<path d="M128.042 729.391C122.91 710.023 120.858 690.056 121.941 670.047L122.849 670.097C121.77 690.011 123.813 709.882 128.92 729.16L128.042 729.392V729.391Z" fill="#E0E0E0"/>
<path d="M121.691 683.109C120.138 683.032 118.942 681.71 119.019 680.157L119.597 668.556C119.674 667.004 120.996 665.807 122.549 665.884C124.101 665.962 125.298 667.284 125.221 668.836L124.643 680.437C124.566 681.99 123.244 683.186 121.691 683.109Z" fill="#E0E0E0"/>
<path d="M130.952 730.969L130.316 730.319C137.76 723.03 149.298 687.937 149.415 687.584L150.278 687.866C149.803 689.318 138.552 723.525 130.952 730.968V730.969Z" fill="#E0E0E0"/>
<path d="M146.475 696.744C144.999 696.254 144.201 694.66 144.691 693.185L148.356 682.162C148.846 680.687 150.44 679.888 151.915 680.379C153.391 680.87 154.189 682.463 153.699 683.939L150.035 694.961C149.544 696.436 147.95 697.235 146.475 696.744Z" fill="#E0E0E0"/>
<path d="M484.176 692.012H-197.223V692.121H484.176V692.012Z" fill="#E0E0E0"/>
<path d="M265.828 722.848H252.539V723.23H265.828V722.848Z" fill="#EBEBEB"/>
<path d="M103.685 713.529H-39.5117V713.912H103.685V713.529Z" fill="#EBEBEB"/>
<path d="M311.403 710.664C312.112 711.449 324.214 733.102 344.081 734.973C363.948 736.843 450.08 734.973 450.08 734.973L464.216 715.929L311.403 710.664Z" fill="#E0E0E0"/>
<g opacity="0.7">
<path d="M524.24 210.111C520.13 207.006 514.135 206.654 509.691 209.257C503.793 197.337 487.354 192.076 475.63 198.357C472.571 185.512 459.916 175.639 446.713 175.797C433.509 175.956 421.095 186.131 418.346 199.046C417.909 201.098 417.62 203.346 416.152 204.846C413.768 207.281 409.786 206.465 406.387 206.199C395.694 205.365 384.935 212.872 382.027 223.196L529.28 222.66C530.57 217.675 528.351 213.216 524.241 210.111H524.24Z" fill="#F0F0F0"/>
<path d="M180.834 24.1397C177.944 21.9563 173.726 21.7088 170.601 23.5388C166.451 15.1531 154.888 11.4532 146.641 15.8708C144.489 6.83475 135.587 -0.110049 126.299 0.00132079C117.011 0.112691 108.279 7.2706 106.346 16.3562C106.039 17.7999 105.836 19.381 104.802 20.4356C103.124 22.1488 100.324 21.5741 97.9327 21.3871C90.4104 20.8 82.8428 26.0811 80.7969 33.3435L184.379 32.9668C185.286 29.4593 183.725 26.3231 180.834 24.1397Z" fill="#E6E6E6"/>
<path d="M285.649 153.896C283.524 152.291 280.425 152.11 278.129 153.455C275.08 147.293 266.583 144.574 260.523 147.82C258.942 141.18 252.4 136.077 245.576 136.159C238.751 136.242 232.334 141.501 230.914 148.176C230.688 149.238 230.539 150.399 229.78 151.175C228.548 152.434 226.489 152.011 224.732 151.875C219.205 151.443 213.643 155.324 212.141 160.661L288.254 160.383C288.921 157.806 287.774 155.502 285.65 153.896H285.649Z" fill="#E6E6E6"/>
<path d="M315.543 75.6673C313.419 74.0628 310.32 73.8813 308.024 75.226C304.974 69.0649 296.479 66.3453 290.418 69.5915C288.837 62.9519 282.295 57.8482 275.471 57.9307C268.646 58.0132 262.229 63.2723 260.809 69.9476C260.583 71.0091 260.433 72.1709 259.674 72.9463C258.441 74.2058 256.384 73.7823 254.627 73.6462C249.1 73.2145 243.539 77.0959 242.035 82.432L318.149 82.1543C318.816 79.5777 317.668 77.2733 315.545 75.6673H315.543Z" fill="#F0F0F0"/>
</g>
</g>
<path d="M339.903 723.869C341.061 718.705 341.305 716.558 342.116 711.238C343.057 705.066 342.695 697.215 339.032 693.658C332.242 703.508 333.766 715.447 334.481 724.444C330.032 712.264 323.506 700.848 315.308 690.904C313.866 697.507 314.927 704.651 317.733 710.912C320.538 717.173 325.016 722.575 330.228 726.891C321.89 722.789 312.929 720.144 303.848 719.101C313.078 728.379 324.069 733.739 336.694 734.345L338.815 733.574C348.179 730.428 354.176 723.435 358.189 717.442C359.879 714.917 361.793 711.25 361.059 710.525C353.455 714.484 346.502 718.335 339.901 723.869L339.903 723.869Z" fill="#263238"/>
<path d="M332.101 727.875C325.756 703.923 323.219 679.233 324.559 654.492L325.465 654.542C324.13 679.188 326.657 703.783 332.98 727.643L332.101 727.876V727.875Z" fill="#263238"/>
<path d="M324.134 670.648C322.213 670.553 320.733 668.917 320.829 666.996L321.544 652.644C321.639 650.722 323.274 649.243 325.195 649.338C327.116 649.434 328.596 651.069 328.5 652.99L327.785 667.342C327.69 669.262 326.054 670.743 324.134 670.648Z" fill="#3AA176"/>
<path d="M335.514 729.777L334.879 729.128C344.105 720.092 358.388 676.654 358.531 676.217L359.395 676.499C358.807 678.296 344.898 720.587 335.514 729.778V729.777Z" fill="#263238"/>
<path d="M354.791 687.514C352.966 686.908 351.978 684.936 352.585 683.111L357.118 669.475C357.725 667.649 359.696 666.662 361.521 667.269C363.347 667.876 364.334 669.847 363.727 671.672L359.195 685.308C358.588 687.134 356.616 688.121 354.791 687.514Z" fill="#3AA176"/>
<path d="M378.018 428.306C378.018 431.715 373.087 434.423 372.246 437.563C371.405 440.703 374.264 445.623 372.624 448.46C370.984 451.297 365.331 451.244 362.99 453.574C360.649 455.905 360.757 461.547 357.876 463.208C354.995 464.87 350.227 461.967 346.979 462.83C343.732 463.693 341.121 468.602 337.722 468.602C334.323 468.602 331.605 463.672 328.465 462.83C325.325 461.989 320.416 464.859 317.568 463.208C314.72 461.557 314.795 455.915 312.454 453.574C310.112 451.233 304.491 451.352 302.82 448.46C301.147 445.569 304.061 440.778 303.198 437.542C302.335 434.306 297.426 431.695 297.426 428.285C297.426 424.875 302.356 422.179 303.198 419.039C304.039 415.9 301.18 410.98 302.82 408.142C304.46 405.305 310.112 405.358 312.454 403.017C314.795 400.676 314.687 395.055 317.568 393.383C320.449 391.71 325.217 394.635 328.465 393.761C331.712 392.887 334.323 388 337.722 388C341.121 388 343.839 392.931 346.979 393.761C350.118 394.591 355.028 391.743 357.876 393.383C360.724 395.023 360.649 400.677 362.99 403.017C365.331 405.358 370.952 405.25 372.624 408.142C374.297 411.033 371.384 415.791 372.247 419.039C373.11 422.286 378.019 424.908 378.019 428.307L378.018 428.306Z" fill="#407BFF"/>
<path d="M378.018 428.306C378.018 431.715 373.087 434.423 372.246 437.563C371.405 440.703 374.264 445.623 372.624 448.46C370.984 451.297 365.331 451.244 362.99 453.574C360.649 455.905 360.757 461.547 357.876 463.208C354.995 464.87 350.227 461.967 346.979 462.83C343.732 463.693 341.121 468.602 337.722 468.602C334.323 468.602 331.605 463.672 328.465 462.83C325.325 461.989 320.416 464.859 317.568 463.208C314.72 461.557 314.795 455.915 312.454 453.574C310.112 451.233 304.491 451.352 302.82 448.46C301.147 445.569 304.061 440.778 303.198 437.542C302.335 434.306 297.426 431.695 297.426 428.285C297.426 424.875 302.356 422.179 303.198 419.039C304.039 415.9 301.18 410.98 302.82 408.142C304.46 405.305 310.112 405.358 312.454 403.017C314.795 400.676 314.687 395.055 317.568 393.383C320.449 391.71 325.217 394.635 328.465 393.761C331.712 392.887 334.323 388 337.722 388C341.121 388 343.839 392.931 346.979 393.761C350.118 394.591 355.028 391.743 357.876 393.383C360.724 395.023 360.649 400.677 362.99 403.017C365.331 405.358 370.952 405.25 372.624 408.142C374.297 411.033 371.384 415.791 372.247 419.039C373.11 422.286 378.019 424.908 378.019 428.307L378.018 428.306Z" fill="#FFEFDF"/>
<path d="M361.204 444.977C370.413 432.013 367.369 414.036 354.404 404.827C341.439 395.617 323.463 398.662 314.254 411.627C305.044 424.591 308.088 442.567 321.053 451.777C334.018 460.987 351.994 457.942 361.204 444.977Z" fill="url(#paint0_linear_6859_20175)"/>
<path d="M94.0078 394.545C94.0078 394.545 94.5729 386.539 96.0675 385.289C97.562 384.039 106.703 381.002 106.703 381.002C106.703 381.002 103.087 393.343 100.889 394.766C98.6913 396.19 94.0078 394.545 94.0078 394.545Z" fill="#407BFF"/>
<path opacity="0.6" d="M106.703 381C106.59 381.38 103.049 393.372 100.889 394.764C99.4408 395.398 97.8836 395.529 96.3809 395.144C95.5814 395.001 94.7891 394.801 94.0078 394.543C94.0078 394.543 94.5856 386.521 96.0675 385.287C97.5493 384.054 105.861 381.269 106.653 381.015L106.703 381Z" fill="white"/>
<path d="M89.3483 389.736C91.4197 389.736 96.1414 392.584 97.6986 392.726C99.2558 392.868 106.99 386.16 108.648 385.053C110.305 383.945 124.884 381.477 124.884 381.477C124.884 381.477 115.215 393.943 108.648 394.308C108.648 394.308 113.508 396.017 114.926 395.558C119.424 394.39 120.291 393.919 124.884 393.973L119.61 397.567L127.508 398.785C123.852 399.604 120.126 399.78 116.433 399.307C113.611 400.61 110.709 401.621 107.756 402.329C103.647 403.657 99.2803 402.531 95.9151 399.276C93.0769 396.38 83.7227 393.105 83.7227 393.105L86.9116 391.681C87.3759 390.515 88.3126 389.766 89.3474 389.735L89.3483 389.736Z" fill="#407BFF"/>
<path opacity="0.8" d="M89.3483 389.736C91.4197 389.736 96.1414 392.584 97.6986 392.726C99.2558 392.868 106.99 386.16 108.648 385.053C110.305 383.945 124.884 381.477 124.884 381.477C124.884 381.477 115.215 393.943 108.648 394.308C108.648 394.308 113.508 396.017 114.926 395.558C119.424 394.39 120.291 393.919 124.884 393.973L119.61 397.567L127.508 398.785C123.852 399.604 120.126 399.78 116.433 399.307C113.611 400.61 110.709 401.621 107.756 402.329C103.647 403.657 99.2803 402.531 95.9151 399.276C93.0769 396.38 83.7227 393.105 83.7227 393.105L86.9116 391.681C87.3759 390.515 88.3126 389.766 89.3474 389.735L89.3483 389.736Z" fill="white"/>
<path d="M86.8498 391.729L87.7538 392.552L87.2132 394.545L83.7227 393.105L86.8498 391.729Z" fill="#263238"/>
<path d="M90.7847 392.603C90.7847 393.132 90.4449 393.56 90.0252 393.56C89.6054 393.56 89.2656 393.131 89.2656 392.603C89.2656 392.075 89.6054 391.646 90.0252 391.646C90.4449 391.646 90.7847 392.074 90.7847 392.603Z" fill="#263238"/>
<path d="M39.7595 438.698C41.2667 437.434 47.4756 446.375 50.4083 447.493C48.3205 448.452 46.0583 448.491 43.9532 447.603C40.7189 446.082 38.1695 440.017 39.7595 438.698Z" fill="#407BFF"/>
<path opacity="0.6" d="M50.4083 447.494C48.3205 448.444 46.061 448.49 43.9532 447.622C40.7189 446.101 38.1695 440.019 39.7595 438.7C40.1156 438.388 40.7325 438.7 41.5138 439.267C44.0223 441.228 48.1743 446.633 50.4083 447.494Z" fill="white"/>
<path d="M34.864 436.978C36.3849 436.52 40.1816 437.931 41.3463 437.765C42.5111 437.6 49.5695 436.959 49.5695 436.959C51.5192 436.661 52.9147 436.581 54.4855 436.216C57.6636 434.469 60.8107 433.721 64.1932 432.91L57.9843 437.454L63.8916 436.996C61.2913 438.324 58.5648 439.163 55.7911 439.488C53.8568 441.015 51.8353 442.339 49.7466 443.445C46.872 445.257 43.5332 445.189 40.7013 443.262C38.2891 441.539 31.0391 440.715 31.0391 440.715L33.2323 439.011C33.4385 437.971 34.0726 437.18 34.8631 436.978H34.864Z" fill="#407BFF"/>
<path opacity="0.8" d="M34.864 436.978C36.3849 436.52 40.1816 437.931 41.3463 437.765C42.5111 437.6 49.5695 436.959 49.5695 436.959C51.5192 436.661 52.9147 436.581 54.4855 436.216C57.6636 434.469 60.8107 433.721 64.1932 432.91L57.9843 437.454L63.8916 436.996C61.2913 438.324 58.5648 439.163 55.7911 439.488C53.8568 441.015 51.8353 442.339 49.7466 443.445C46.872 445.257 43.5332 445.189 40.7013 443.262C38.2891 441.539 31.0391 440.715 31.0391 440.715L33.2323 439.011C33.4385 437.971 34.0726 437.18 34.8631 436.978H34.864Z" fill="white"/>
<path d="M33.1932 439.014L33.9473 439.472L33.7692 441.121L31 440.717L33.1932 439.014Z" fill="#263238"/>
<path d="M43.0564 437.839C45.7974 435.896 61.6131 444.343 68.11 444.728C63.7563 446.546 59.1891 447.273 54.6374 446.872C47.3319 446.121 40.1373 439.872 43.0564 437.839Z" fill="#407BFF"/>
<path d="M35.8688 439.226C35.8688 439.646 35.5989 439.986 35.2664 439.986C34.9339 439.986 34.6641 439.646 34.6641 439.226C34.6641 438.807 34.9339 438.467 35.2664 438.467C35.5989 438.467 35.8688 438.807 35.8688 439.226Z" fill="#263238"/>
<path opacity="0.8" d="M43.0603 437.842C45.8013 435.9 61.617 444.347 68.1139 444.732C63.7602 446.55 59.193 447.277 54.6413 446.876C47.3358 446.125 40.1412 439.876 43.0603 437.842Z" fill="white"/>
<path d="M29.6852 662.385H32.2508C32.8314 662.385 33.3683 662.709 33.7118 663.227C35.1909 665.461 36.3029 664.616 37.9119 662.516C38.9349 662.385 39.2102 663.683 39.2938 664.031L41.2117 671.744C41.378 672.389 41.0409 673.06 40.4585 673.244C40.3549 673.277 40.2477 673.293 40.1396 673.291H19.814C16.5814 673.291 15.9109 669.688 17.2428 669.355C23.231 667.892 27.4711 665.943 29.3217 664.018C29.6652 663.681 29.3127 663.429 29.6852 662.385Z" fill="#263238"/>
<path d="M26.1854 664.966C26.9949 664.944 27.8008 664.829 28.5885 664.623C28.6621 664.594 28.7012 664.503 28.6748 664.421C28.6603 664.377 28.6294 664.342 28.5885 664.327C28.2287 664.132 25.0207 662.475 24.2167 663.105C24.0658 663.213 23.985 663.407 24.0077 663.605C24.0113 663.972 24.173 664.316 24.4429 664.53C24.9671 664.876 25.5776 665.029 26.1854 664.966ZM28.0861 664.41C27.1394 664.604 25.3814 664.863 24.6528 664.261C24.4638 664.097 24.3475 663.851 24.3348 663.585C24.3202 663.502 24.3529 663.417 24.4184 663.372C24.8617 663.029 26.7551 663.761 28.0861 664.409V664.41Z" fill="#407BFF"/>
<path d="M28.5609 664.632C28.5936 664.643 28.629 664.643 28.6617 664.632C28.7044 664.591 28.7208 664.525 28.7035 664.466C28.7035 664.318 27.9495 660.828 26.1914 661.049C25.7563 661.114 25.63 661.345 25.6136 661.54C25.5046 662.466 27.5234 664.215 28.4864 664.661L28.5618 664.633L28.5609 664.632ZM26.3668 661.326C27.4806 661.326 28.1257 663.363 28.3428 664.178C27.2962 663.567 25.8308 662.113 25.9225 661.548C25.9225 661.502 25.9225 661.373 26.2487 661.335L26.3668 661.326Z" fill="#407BFF"/>
<path d="M16.8536 662.385H19.4193C19.9999 662.385 20.5368 662.709 20.8793 663.227C22.3584 665.461 23.4705 664.616 25.0795 662.516C26.1025 662.385 26.3778 663.683 26.4614 664.031L28.3793 671.744C28.5455 672.389 28.2085 673.06 27.6261 673.244C27.5225 673.277 27.4153 673.293 27.3072 673.291H6.98154C3.74898 673.291 3.07939 669.688 4.41039 669.355C10.3985 667.892 14.6386 665.943 16.4893 664.018C16.8327 663.681 16.4811 663.429 16.8536 662.385Z" fill="#263238"/>
<path d="M13.3541 664.966C14.1636 664.944 14.9694 664.829 15.7571 664.623C15.8307 664.594 15.8698 664.503 15.8434 664.421C15.8289 664.377 15.798 664.342 15.7571 664.327C15.3973 664.132 12.1893 662.475 11.3853 663.105C11.2344 663.213 11.1536 663.407 11.1754 663.605C11.179 663.972 11.3407 664.316 11.6106 664.53C12.1348 664.876 12.7444 665.029 13.3522 664.966H13.3541ZM15.2547 664.41C14.308 664.604 12.55 664.863 11.8214 664.261C11.6324 664.097 11.5161 663.851 11.5034 663.585C11.4879 663.502 11.5215 663.417 11.587 663.372C12.0303 663.029 13.9237 663.761 15.2547 664.409V664.41Z" fill="#407BFF"/>
<path d="M15.7289 664.632C15.7616 664.643 15.797 664.643 15.8297 664.632C15.8724 664.591 15.8888 664.525 15.8715 664.466C15.8715 664.318 15.1174 660.828 13.3594 661.049C12.9242 661.114 12.7979 661.345 12.7816 661.54C12.6726 662.466 14.6913 664.215 15.6544 664.661L15.7298 664.633L15.7289 664.632ZM13.5348 661.326C14.6486 661.326 15.2937 663.363 15.5108 664.178C14.4642 663.567 12.9987 662.113 13.0905 661.548C13.0905 661.502 13.0905 661.373 13.4167 661.335L13.5339 661.326H13.5348Z" fill="#407BFF"/>
<path d="M98.6916 688.176H79.2617V780.806H98.6916V688.176Z" fill="#B97964"/>
<path opacity="0.3" d="M98.6916 734.488H79.2617V780.803H98.6916V734.488Z" fill="#407BFF"/>
<path d="M98.6916 688.176H79.2617V702.217H98.6916V688.176Z" fill="#A24E3F"/>
<path d="M201.461 688.176H182.031V780.806H201.461V688.176Z" fill="#B97964"/>
<path d="M201.461 688.176H182.031V699.84H201.461V688.176Z" fill="#A24E3F"/>
<path d="M216.872 673.346H-186.523V688.175H216.872V673.346Z" fill="#B97964"/>
<path opacity="0.3" d="M201.461 733.672H182.031V780.802H201.461V733.672Z" fill="#407BFF"/>
<path d="M70.5549 525.407C78.5545 520.19 89.2679 522.447 94.4838 530.447C99.4861 538.118 97.6128 548.282 90.3963 553.703L89.9538 559.144L85.443 556.306C78.1675 558.724 69.8998 556.06 65.5162 549.336C60.3003 541.336 62.5562 530.623 70.5558 525.407H70.5549Z" fill="#FF8B13"/>
<path d="M99.6203 537.841C99.4359 537.841 99.2841 537.694 99.2796 537.508C99.1488 532.023 96.0325 526.643 91.34 523.801C91.1792 523.704 91.1274 523.494 91.2255 523.333C91.3227 523.174 91.5317 523.122 91.6934 523.219C96.5804 526.178 99.8256 531.78 99.9619 537.493C99.9665 537.681 99.8175 537.837 99.6294 537.842H99.6212L99.6203 537.841Z" fill="#FF8B13"/>
<path d="M99.3172 542.96C99.2818 542.96 99.2463 542.955 99.2118 542.943C99.0328 542.885 98.9347 542.693 98.9937 542.513C99.2436 541.745 99.3335 540.916 99.2554 540.113C99.2363 539.926 99.3735 539.758 99.5607 539.74C99.7488 539.72 99.915 539.858 99.9332 540.045C100.021 540.941 99.9205 541.867 99.6415 542.724C99.5952 542.867 99.4616 542.959 99.3181 542.959L99.3172 542.96Z" fill="#FF8B13"/>
<path d="M86.5516 538.388C86.4553 537.522 86.0383 536.71 85.4605 536.058C84.8945 535.419 84.1531 534.915 83.32 534.731C82.4342 534.535 81.4711 534.721 80.7225 535.231C80.2764 535.535 79.9103 535.951 79.6577 536.427C79.4124 536.004 79.0763 535.632 78.6729 535.353C77.927 534.837 76.9658 534.645 76.079 534.835C75.2441 535.014 74.5 535.513 73.9294 536.148C73.347 536.796 72.9246 537.605 72.8219 538.47C72.6938 539.554 72.8992 540.742 73.4588 541.679C74.0494 542.669 75.006 543.47 75.9909 544.068C77.6471 545.074 79.8285 546.333 79.8285 546.333C79.8285 546.333 81.681 544.958 83.3436 543.963C84.333 543.372 85.2952 542.578 85.8921 541.592C86.4581 540.659 86.6716 539.472 86.5516 538.388Z" fill="white"/>
<path d="M129.486 532.604L135.72 537.774L144.208 544.823C143.959 545.971 143.766 547.132 143.668 548.252C143.212 552.855 144.531 557.409 151.304 559.012C151.304 559.012 156.601 560.87 143.279 561.057C129.958 561.244 128.062 559.304 128.062 559.304C133.136 554.301 131.214 540.109 129.486 532.604Z" fill="#FFBDB7"/>
<path opacity="0.2" d="M144.202 544.821C143.953 545.968 143.759 547.13 143.662 548.25C140.497 547.613 136.266 544.24 135.824 541.006C135.658 539.789 135.63 538.615 135.713 537.771L144.201 544.821H144.202Z" fill="black"/>
<path d="M149.951 527.112C154.797 526.013 157.127 518.233 155.389 512.292C153.082 504.406 145.304 504.928 139.396 509.527C132.098 515.209 142.435 528.816 149.952 527.111L149.951 527.112Z" fill="#263238"/>
<path d="M126.912 521.807C129.079 531.772 129.84 537.697 135.725 542.244C144.579 549.085 156.313 543.007 157.173 532.701C157.947 523.424 154.273 508.686 143.789 505.864C133.461 503.084 124.744 511.841 126.912 521.807Z" fill="#FFBDB7"/>
<path d="M132.047 529.226C136.405 526.838 135.107 515.446 133.206 513.481C131.306 511.516 121.486 509.17 117.069 515.215C111.612 522.683 125.288 532.928 132.047 529.226Z" fill="#263238"/>
<path d="M128.786 513.91C134.931 515.449 133.873 510.16 144.675 511.341C152.684 512.217 159.366 506.433 159.199 499.645C158.994 491.323 147.71 486.929 141.657 494.019C135.606 501.108 130.781 506.604 120.958 505.793C113.317 505.161 112.651 516.829 121.061 517.828C126 518.415 128.786 513.91 128.786 513.91Z" fill="#263238"/>
<path d="M148.039 511.815C150.717 511.815 153.322 511.072 155.534 509.629C158.359 507.788 160.231 504.955 160.671 501.855C160.696 501.682 160.576 501.523 160.403 501.499C160.239 501.478 160.071 501.593 160.047 501.767C159.626 504.729 157.902 507.334 155.19 509.101C152.026 511.163 148.016 511.727 144.189 510.647C144.019 510.601 143.847 510.698 143.801 510.865C143.754 511.033 143.851 511.207 144.019 511.254C145.35 511.629 146.704 511.814 148.039 511.814V511.815Z" fill="#263238"/>
<path d="M125.152 530.818C126.312 532.934 128.256 534.381 130.058 534.986C132.77 535.896 134.003 533.461 133.146 530.788C132.375 528.381 130.036 525.007 127.364 525.257C124.731 525.504 123.826 528.399 125.152 530.818Z" fill="#FFBDB7"/>
<path d="M148.898 522.484C148.898 522.484 151.78 525.832 154.114 527.151C153.315 528.622 151.119 528.757 151.119 528.757L148.898 522.484Z" fill="#FF7C77"/>
<path d="M149.274 533.143C146.048 533.587 143.967 531.824 143.873 531.743C143.771 531.655 143.761 531.502 143.848 531.4C143.935 531.298 144.089 531.288 144.19 531.376C144.213 531.396 146.58 533.405 150.095 532.485C150.226 532.449 150.358 532.529 150.391 532.658C150.426 532.787 150.348 532.921 150.218 532.955C149.894 533.039 149.578 533.101 149.274 533.143Z" fill="#263238"/>
<path d="M138.715 517.655C138.638 517.638 138.563 517.601 138.498 517.544C138.299 517.366 138.28 517.059 138.459 516.858C140.222 514.876 142.445 515.236 142.539 515.253C142.792 515.271 142.98 515.549 142.934 515.813C142.888 516.078 142.638 516.254 142.373 516.209C142.281 516.194 140.569 515.946 139.184 517.503C139.062 517.64 138.881 517.691 138.714 517.654L138.715 517.655Z" fill="#263238"/>
<path d="M156.31 515.669C156.161 515.711 155.994 515.682 155.866 515.576C154.168 514.165 152.422 514.631 152.406 514.636C152.147 514.708 151.88 514.558 151.807 514.3C151.735 514.042 151.885 513.775 152.141 513.702H152.144C152.235 513.675 154.401 513.096 156.485 514.829C156.692 515 156.72 515.307 156.548 515.512C156.484 515.591 156.399 515.642 156.309 515.669H156.31Z" fill="#263238"/>
<path d="M141.205 523.662C141.405 524.704 142.136 525.436 142.836 525.298C143.537 525.16 143.942 524.203 143.741 523.162C143.54 522.121 142.81 521.388 142.109 521.526C141.409 521.665 141.003 522.621 141.204 523.662H141.205Z" fill="#263238"/>
<path d="M151.099 521.76C151.299 522.801 152.03 523.534 152.731 523.395C153.431 523.257 153.836 522.301 153.635 521.26C153.435 520.218 152.704 519.486 152.004 519.624C151.303 519.762 150.898 520.719 151.098 521.76H151.099Z" fill="#263238"/>
<path opacity="0.2" d="M131.325 531.009C131.228 531.009 131.138 530.948 131.108 530.85C130.848 530.03 130.371 529.288 129.725 528.705C129.304 528.325 128.633 527.863 127.832 527.823C127.094 527.793 126.408 528.166 126.161 528.723C126.11 528.837 125.975 528.888 125.862 528.838C125.747 528.787 125.695 528.653 125.746 528.538C126.071 527.805 126.937 527.312 127.855 527.37C128.791 527.415 129.554 527.938 130.03 528.367C130.736 529.005 131.259 529.817 131.543 530.714C131.581 530.833 131.514 530.961 131.394 530.999C131.372 531.006 131.349 531.009 131.326 531.009H131.325Z" fill="black"/>
<path d="M139.801 528.4C141.18 526.422 144.676 526.373 145.843 528.594C144.135 526.934 141.657 527.028 139.801 528.4Z" fill="#FF7C77"/>
<path d="M249.635 743.374L239.841 743.628C239.485 743.637 239.223 743.907 239.209 744.278L238.923 752.531C238.893 753.387 239.666 754.176 240.486 754.14C243.895 753.989 245.519 753.734 249.826 753.622C252.476 753.553 261.472 753.613 265.13 753.518C268.709 753.426 268.596 749.578 267.038 749.27C260.049 747.888 253.658 745.898 251.149 743.905C250.696 743.546 250.156 743.361 249.634 743.374H249.635Z" fill="#FFBDB7"/>
<path d="M168.504 640.04C168.504 640.04 234.089 632.272 238.529 651.966C244.498 678.449 250.8 744.343 250.8 744.343H239.277C239.277 744.343 218.769 689.944 216.512 667.764C203.327 672.384 150.458 680.699 145.066 665.154C140.655 652.436 143.53 640.514 143.53 640.514L168.502 640.04H168.504Z" fill="#FFBDB7"/>
<path d="M168.504 640.04C168.504 640.04 234.089 632.272 238.529 651.966C244.498 678.449 247.067 688.401 247.067 688.401L221.512 690.863C221.512 690.863 218.769 689.945 216.512 667.765C203.327 672.385 150.458 680.7 145.066 665.154C140.655 652.437 143.53 640.515 143.53 640.515L168.502 640.041L168.504 640.04Z" fill="#263238"/>
<path d="M246.287 693.931L221.676 701.042L218.035 689.127L245.735 682.512L246.287 693.931Z" fill="#263238"/>
<path opacity="0.3" d="M239.854 714.749C239.854 716.053 238.797 717.109 237.493 717.109C236.189 717.109 235.133 716.053 235.133 714.749C235.133 713.445 236.189 712.389 237.493 712.389C238.797 712.389 239.854 713.445 239.854 714.749Z" fill="#407BFF"/>
<g opacity="0.3">
<path d="M267.037 749.271C260.001 747.889 253.569 745.898 251.043 743.906C250.908 743.8 250.765 743.714 250.619 743.639C250.325 740.638 249.101 728.325 247.362 713.217C246.6 713.839 246.102 714.749 246.246 715.753C246.341 716.418 246.681 717.135 246.364 717.719C246.021 718.349 245.15 718.345 244.499 718.108C243.847 717.872 243.191 717.482 242.515 717.622C241.332 717.868 240.975 719.489 241.113 720.754C241.252 722.019 241.603 723.414 240.947 724.482C240.111 725.842 238.065 725.731 236.872 724.712C235.678 723.694 235.098 722.099 234.486 720.612C233.874 719.125 233.086 717.574 231.703 716.871C230.945 716.486 230.06 716.434 229.25 716.664C234.098 731.087 238.532 742.872 239.039 744.211C239.036 744.235 239.025 744.255 239.024 744.279L238.736 752.533C238.706 753.388 239.484 754.178 240.31 754.142C243.74 753.991 245.376 753.735 249.71 753.624C252.378 753.555 261.432 753.615 265.115 753.52C268.717 753.427 268.604 749.58 267.036 749.272L267.037 749.271Z" fill="#407BFF"/>
</g>
<g opacity="0.3">
<path d="M267.555 749.536C267.41 749.4 267.238 749.307 267.043 749.269C263.985 748.664 261.042 747.942 258.488 747.155C257.393 746.818 256.37 746.469 255.441 746.112C255.131 745.993 254.831 745.873 254.543 745.752C253.101 745.148 251.938 744.525 251.154 743.903C251.021 743.797 250.878 743.711 250.733 743.636C250.718 743.49 250.703 743.324 250.684 743.135C250.673 743.027 250.662 742.916 250.65 742.794C250.63 742.587 250.608 742.367 250.584 742.121L250.566 741.939C250.547 741.744 250.527 741.541 250.505 741.324C250.486 741.136 250.467 740.944 250.447 740.739C250.428 740.556 250.409 740.359 250.389 740.162C250.364 739.92 250.339 739.674 250.313 739.412C250.285 739.135 250.256 738.847 250.226 738.549C250.214 738.429 250.202 738.315 250.19 738.192C250.149 737.789 250.106 737.37 250.061 736.934C250.041 736.727 250.019 736.516 249.997 736.302C249.963 735.978 249.93 735.644 249.894 735.303C249.872 735.092 249.851 734.884 249.829 734.667C249.781 734.203 249.732 733.724 249.68 733.234C249.663 733.07 249.646 732.907 249.629 732.74C249.569 732.168 249.508 731.584 249.445 730.98L249.408 730.635C249.353 730.108 249.296 729.569 249.237 729.019L249.183 728.505C249.115 727.862 249.044 727.204 248.972 726.533C248.956 726.379 248.938 726.224 248.922 726.069C248.858 725.468 248.791 724.857 248.724 724.236C248.709 724.091 248.693 723.948 248.677 723.802C248.599 723.082 248.518 722.346 248.436 721.601C248.419 721.439 248.401 721.278 248.382 721.115C248.296 720.333 248.209 719.542 248.119 718.737V718.728C248.03 717.934 247.939 717.127 247.847 716.313C247.828 716.142 247.809 715.972 247.789 715.8C247.697 714.985 247.604 714.162 247.508 713.328L247.496 713.213C246.819 707.294 246.064 700.947 245.254 694.561L247.585 693.929L247.065 682.51L245.688 682.822C244.359 677.336 242.029 667.496 238.527 651.962C234.087 632.268 168.502 640.036 168.502 640.036L143.53 640.51C143.53 640.51 140.655 652.432 145.066 665.15C150.458 680.695 203.326 672.38 216.512 667.76C217.779 680.206 219.198 685.956 220.2 688.607L218.134 689.076L221.556 700.992L224.256 700.26C225.947 705.825 227.752 711.416 229.502 716.659L229.58 716.89C229.685 717.205 229.789 717.517 229.894 717.829C229.946 717.983 229.997 718.134 230.047 718.287C230.152 718.598 230.256 718.908 230.361 719.217C230.404 719.348 230.449 719.477 230.493 719.607C230.609 719.95 230.725 720.294 230.841 720.634L230.852 720.669C231.427 722.36 231.99 723.999 232.536 725.575L232.574 725.685C232.684 726.001 232.792 726.313 232.9 726.624C232.94 726.738 232.98 726.853 233.02 726.968C233.126 727.273 233.232 727.574 233.336 727.874L233.425 728.129C233.538 728.451 233.649 728.768 233.76 729.083L233.829 729.278C233.936 729.584 234.042 729.885 234.148 730.184C234.184 730.287 234.219 730.388 234.256 730.489C234.35 730.756 234.444 731.023 234.536 731.284C234.574 731.39 234.61 731.492 234.647 731.596C234.744 731.867 234.839 732.137 234.933 732.401L234.951 732.452C235.41 733.743 235.843 734.951 236.245 736.069C236.274 736.147 236.302 736.227 236.33 736.304C236.402 736.503 236.472 736.696 236.541 736.889C236.581 737 236.621 737.11 236.66 737.219C236.72 737.386 236.779 737.549 236.838 737.711C236.89 737.856 236.942 737.999 236.993 738.14L237.129 738.516C237.187 738.673 237.242 738.826 237.297 738.978C237.335 739.08 237.372 739.182 237.408 739.281C237.48 739.477 237.549 739.667 237.617 739.854L237.669 739.996C237.75 740.218 237.828 740.432 237.904 740.639L237.926 740.697C238.622 742.594 239.083 743.826 239.226 744.207L239.223 744.226C239.221 744.244 239.213 744.257 239.213 744.274L238.926 752.528C238.923 752.635 238.932 752.74 238.952 752.844C239.051 753.361 239.427 753.815 239.896 754.021C240.083 754.104 240.286 754.146 240.49 754.137C241.342 754.098 242.083 754.055 242.781 754.008C244.004 753.925 245.1 753.835 246.441 753.758C247.208 753.713 248.054 753.673 249.052 753.641C249.301 753.633 249.56 753.626 249.829 753.619C250.491 753.601 251.551 753.592 252.823 753.587C255.688 753.574 259.636 753.581 262.589 753.553C263.574 753.544 264.447 753.532 265.133 753.514C265.357 753.509 265.566 753.488 265.762 753.454C266.738 753.287 267.369 752.798 267.721 752.211C267.931 751.857 268.043 751.468 268.069 751.092C268.111 750.464 267.917 749.871 267.553 749.533L267.555 749.536Z" fill="black"/>
</g>
<path d="M264.506 743.374L254.091 743.628C253.712 743.637 253.432 743.907 253.419 744.278L253.114 752.531C253.082 753.387 253.905 754.176 254.777 754.14C258.402 753.989 260.129 753.734 264.709 753.622C267.527 753.553 277.093 753.613 280.984 753.518C284.79 753.426 284.671 749.578 283.013 749.27C275.58 747.888 268.784 745.898 266.116 743.905C265.636 743.546 265.06 743.361 264.505 743.374H264.506Z" fill="#FFBDB7"/>
<path d="M178.219 640.04C178.219 640.04 247.966 632.272 252.688 651.966C259.037 678.449 265.739 744.343 265.739 744.343H253.485C253.485 744.343 231.676 689.944 229.275 667.764C214.775 671.285 158.774 680.111 153.296 665.154C148.634 652.425 151.662 640.514 151.662 640.514L178.219 640.04Z" fill="#FFBDB7"/>
<path d="M178.022 636.024C178.022 636.024 247.967 632.273 252.689 651.967C259.038 678.45 261.769 688.402 261.769 688.402L234.593 690.864C234.593 690.864 231.676 689.946 229.276 667.766C215.254 672.386 149.292 680.244 143.559 664.698C138.868 651.98 140.094 638.531 140.094 638.531L178.023 636.025L178.022 636.024Z" fill="#263238"/>
<path d="M262.321 693.934L234.64 700.998L231 689.082L261.768 682.516L262.321 693.934Z" fill="#263238"/>
<g opacity="0.3">
<path d="M283.012 749.273C275.579 747.891 268.782 745.9 266.115 743.908C265.973 743.802 265.821 743.716 265.666 743.641C265.355 740.64 264.063 728.327 262.226 713.219C261.421 713.841 260.895 714.751 261.046 715.755C261.147 716.42 261.506 717.137 261.171 717.721C260.808 718.351 259.888 718.346 259.2 718.11C258.512 717.874 257.817 717.484 257.104 717.624C255.855 717.87 255.477 719.491 255.623 720.756C255.769 722.021 256.142 723.416 255.449 724.484C254.565 725.844 252.404 725.733 251.142 724.714C249.88 723.696 249.269 722.101 248.622 720.614C247.975 719.127 247.143 717.576 245.682 716.873C244.881 716.488 243.947 716.436 243.09 716.666C248.211 731.089 252.897 742.874 253.432 744.213C253.429 744.237 253.417 744.257 253.416 744.281L253.113 752.535C253.081 753.39 253.903 754.18 254.775 754.144C258.4 753.993 260.128 753.737 264.707 753.626C267.526 753.557 277.092 753.617 280.983 753.522C284.789 753.429 284.67 749.582 283.012 749.274V749.273Z" fill="#0764A7"/>
</g>
<path d="M169.738 589.795C169.738 589.795 200.427 589.538 201.187 588.276C201.948 587.014 201.061 583.873 202.898 582.773C204.735 581.674 213.306 577.151 213.904 576.968C214.502 576.783 215.379 580.321 213.745 581.228C213.745 581.228 217.035 582.522 215.885 584.81C215.885 584.81 218.476 586.028 217.134 588.113C217.134 588.113 218.579 589.471 217.203 591.708C217.203 591.708 218.032 594.042 216 595.655C213.967 597.267 206.009 599.062 204.536 598.892C203.063 598.721 175.602 604.221 175.602 604.221L169.74 589.795L169.738 589.795Z" fill="#FFBDB7"/>
<path opacity="0.3" d="M169.738 589.795C169.738 589.795 200.427 589.538 201.187 588.276C201.948 587.014 201.061 583.873 202.898 582.773C204.735 581.674 213.306 577.151 213.904 576.968C214.502 576.783 215.379 580.321 213.745 581.228C213.745 581.228 217.035 582.522 215.885 584.81C215.885 584.81 218.476 586.028 217.134 588.113C217.134 588.113 218.579 589.471 217.203 591.708C217.203 591.708 218.032 594.042 216 595.655C213.967 597.267 206.009 599.062 204.536 598.892C203.063 598.721 175.602 604.221 175.602 604.221L169.74 589.795L169.738 589.795Z" fill="black"/>
<path d="M372.774 504.081C355.762 511.409 338.913 519.193 322.149 527.227C305.392 535.278 288.752 543.652 272.23 552.336C255.724 561.06 239.382 570.201 223.2 579.72C207.074 589.365 191.163 599.506 175.602 610.369L177.199 613.324C192.584 602.345 208.352 592.06 224.354 582.259C240.413 572.581 256.647 563.273 273.055 554.376C289.479 545.518 306.03 536.966 322.704 528.733C339.382 520.517 356.16 512.545 373.084 505.036L392.112 496.93V496.508L372.774 504.08V504.081Z" fill="#263238"/>
<path d="M360.272 511.226L360.564 511.965C360.799 512.562 361.417 512.829 361.937 512.559C362.455 512.288 362.688 511.577 362.452 510.98L362.16 510.24C361.925 509.643 361.307 509.376 360.787 509.647C360.268 509.918 360.036 510.629 360.272 511.226Z" fill="#263238"/>
<path d="M311.151 535.12L311.443 535.86C311.678 536.457 312.296 536.724 312.815 536.453C313.335 536.182 313.567 535.471 313.331 534.874L313.039 534.135C312.804 533.538 312.186 533.271 311.666 533.541C311.147 533.812 310.915 534.523 311.151 535.12Z" fill="#263238"/>
<path d="M259.522 562.079L259.814 562.819C260.049 563.416 260.667 563.683 261.187 563.412C261.705 563.141 261.938 562.43 261.702 561.833L261.41 561.094C261.175 560.497 260.557 560.23 260.037 560.5C259.518 560.771 259.286 561.482 259.522 562.079Z" fill="#263238"/>
<path d="M208.448 586.659L211.931 595.481C212.119 595.958 212.624 596.145 213.019 595.883L224.151 588.502C224.496 588.274 224.633 587.783 224.468 587.366L220.986 578.545C220.798 578.068 220.293 577.88 219.898 578.142L208.765 585.523C208.421 585.751 208.284 586.243 208.448 586.659Z" fill="#263238"/>
<path d="M215.397 596.983C215.207 596.912 215.049 596.751 214.966 596.542L212.748 590.924C212.595 590.538 212.722 590.086 213.042 589.875L220.131 585.175C220.305 585.059 220.515 585.032 220.705 585.105C220.896 585.176 221.054 585.337 221.137 585.546L223.353 591.163C223.506 591.55 223.38 592.002 223.061 592.212L215.972 596.912C215.848 596.995 215.706 597.031 215.565 597.019C215.509 597.015 215.453 597.003 215.398 596.982L215.397 596.983ZM220.353 585.616L213.264 590.316C213.143 590.396 213.095 590.567 213.153 590.713L215.371 596.331C215.403 596.412 215.461 596.471 215.535 596.498C215.609 596.524 215.685 596.514 215.752 596.472L222.841 591.771C222.962 591.691 223.009 591.521 222.952 591.374L220.735 585.756C220.703 585.675 220.645 585.616 220.571 585.589C220.551 585.582 220.529 585.576 220.507 585.575C220.454 585.57 220.402 585.585 220.354 585.616L220.353 585.616Z" fill="#263238"/>
<path d="M209.297 584.079L209.583 584.801C209.67 585.022 209.889 585.102 210.072 584.98L217.59 579.973C217.773 579.851 217.851 579.573 217.764 579.353L217.479 578.63C217.392 578.41 217.173 578.33 216.989 578.451L209.472 583.458C209.288 583.58 209.21 583.858 209.297 584.079Z" fill="#263238"/>
<path d="M220.727 585.76C262.633 562.572 304.833 539.872 347.909 518.918C362.361 512.103 376.702 504.95 391.995 500.134L392.523 499.975L392.524 500.535C392.631 556.828 392.369 626.788 392.343 683.391L392.108 744.342L391.874 683.391C391.816 652.98 391.756 591.883 391.702 561.487C391.664 541.17 391.642 520.853 391.691 500.535L392.22 500.937C377.025 505.676 362.615 512.803 348.213 519.549C305.097 540.39 262.855 563.002 220.727 585.76Z" fill="#263238"/>
<path d="M185.133 635.151C185.133 635.151 180.492 606.987 168.088 581.534C161.595 568.211 149.811 554.873 149.811 554.873L113.041 544.094C113.041 544.094 88.654 574 122.165 575.837C122.165 575.837 126.783 624.904 130.187 638.006C131.426 642.773 139.945 644.076 139.945 644.076" fill="#EF5F3D"/>
<path opacity="0.3" d="M134.806 586.457C134.806 586.457 150.716 629.797 169.604 630.751C170.629 630.803 183.707 628.188 183.707 628.188L180.119 613.328L169.387 607.586C169.387 607.586 154.915 580.585 149.499 574.816C138.357 562.946 132.126 581.662 134.806 586.458V586.457Z" fill="black"/>
<path opacity="0.3" d="M122.158 575.838C122.158 575.838 121.143 560.925 135.587 555.904C135.587 555.904 118.925 555.902 116.789 575.212L122.158 575.838Z" fill="black"/>
<path d="M194.18 600.244C194.18 600.244 208.09 599.593 208.851 598.331C209.61 597.069 208.724 593.927 210.561 592.828C212.398 591.729 220.97 587.206 221.567 587.023C222.165 586.838 223.043 590.376 221.408 591.283C221.408 591.283 224.698 592.577 223.549 594.865C223.549 594.865 226.14 596.082 224.797 598.168C224.797 598.168 226.243 599.526 224.866 601.763C224.866 601.763 225.696 604.097 223.663 605.709C221.631 607.322 213.672 609.117 212.199 608.946C210.727 608.776 195.957 612.024 195.957 612.024L194.181 600.244H194.18Z" fill="#FFBDB7"/>
<path d="M135.668 575.37C135.668 575.37 153.446 620.382 169.313 617.036C190.171 612.638 207.89 609.561 207.89 609.561L208.849 598.33L169.389 598.176C169.389 598.176 154.917 571.176 149.502 565.407C138.359 553.537 132.988 570.573 135.668 575.37Z" fill="#FFBDB7"/>
<path opacity="0.3" d="M169.396 598.18C169.396 598.18 164.983 601.292 167.119 606.989L172.103 598.18H169.396Z" fill="black"/>
<path d="M136.458 559.148C136.458 559.148 125.919 562.592 129.703 578.574C133.486 594.556 139.929 604.725 139.929 604.725L167.717 592.781C167.717 592.781 150.688 555.902 136.458 559.148Z" fill="#263238"/>
<path d="M92.2252 603.031C92.2252 603.031 88.2686 602.784 85.5911 607.68C82.9146 612.577 71.8405 633.762 72.7745 638.521C74.3208 646.398 82.4185 644.5 82.4185 644.5L92.2252 603.031Z" fill="#FFBDB7"/>
<path opacity="0.2" d="M74.3242 634.917C74.3242 634.917 74.8739 639.317 77.5422 639.511C80.2106 639.705 84.1155 637.539 84.1155 637.539L84.2699 636.143L74.6013 633.672L74.3242 634.918V634.917Z" fill="black"/>
<path d="M76.3944 725.268L70.0974 720.151C69.7022 712.256 69.0889 700.961 68.622 696.62C68.1332 692.076 64.5345 681.367 64.5345 681.367L78.2188 675.301L66.7059 659.191C66.7059 659.191 52.0004 667.029 49.3584 670.54C46.7173 674.05 47.823 678.272 49.3584 683.961L62.8255 723.193C63.2934 724.923 63.6523 727.275 63.6705 727.492C63.9466 729.984 63.0336 733.56 60.487 738.352C59.6202 740.117 62.6956 741.911 64.6398 739.865L71.7718 732.363C74.104 729.91 74.9908 728.977 76.8641 727.006C76.9305 726.939 76.984 726.861 77.0222 726.773C77.2393 726.277 76.9577 725.604 76.3935 725.267L76.3944 725.268Z" fill="#FFBDB7"/>
<path d="M71.5591 679.858C77.0249 679.092 89.2809 674.193 97.832 673.756L107.784 673.266C129.93 672.102 82.4597 651.873 82.4597 651.873C82.4597 651.873 73.9758 654.216 60.168 662.034C66.1852 667.821 67.0574 675.127 71.5591 679.858Z" fill="#F8BF3B"/>
<path d="M124.789 652.228C124.789 652.228 124.371 657.653 124.467 663.62C124.599 671.895 122.761 676.553 108.08 676.553C81.1998 676.553 83.701 662.086 85.9733 649.332L124.79 652.228H124.789Z" fill="#F8BF3B"/>
<path d="M93.4194 721.902C93.0314 714.029 92.36 701.293 91.8567 696.62C91.367 692.076 87.7692 681.367 87.7692 681.367L101.454 675.301L89.9406 659.191C89.9406 659.191 75.2351 667.029 72.5931 670.54C69.9511 674.05 71.0577 678.272 72.5931 683.961C73.876 688.712 82.3626 713.873 85.517 723.191C85.5397 723.942 85.3207 724.329 85.1399 724.531C83.5246 726.448 80.8353 729.438 75.9084 732.071C74.174 732.998 74.8508 736.125 77.6727 736.125L94.6313 732.344C94.7249 732.355 94.8194 732.33 94.9094 732.297C95.4181 732.114 95.7125 731.445 95.5672 730.805L93.4194 721.902Z" fill="#FFBDB7"/>
<path d="M90.2841 682.997C98.5654 681.663 108.021 678.302 116.007 675.738C118.128 675.041 123.178 664.449 122.657 660.844C120.85 648.182 94.8713 653.22 94.8713 653.22C94.8713 653.22 82.9904 662.073 77.3984 665.45L90.2841 682.998V682.997Z" fill="#F8BF3B"/>
<path opacity="0.3" d="M61.4383 702.019C62.6426 702.019 63.6188 701.043 63.6188 699.839C63.6188 698.634 62.6426 697.658 61.4383 697.658C60.2341 697.658 59.2578 698.634 59.2578 699.839C59.2578 701.043 60.2341 702.019 61.4383 702.019Z" fill="#407BFF"/>
<path opacity="0.3" d="M71.7713 732.363C74.1035 729.91 74.9902 728.977 76.8636 727.006C76.9299 726.939 76.9835 726.861 77.0217 726.773C77.2388 726.278 76.9572 725.604 76.393 725.267L70.096 720.151C69.8507 715.249 69.5209 709.04 69.1947 703.995C68.7968 703.811 68.3979 703.693 68.0109 703.693C65.4634 703.693 66.9915 710.063 65.9731 711.847C64.9537 713.63 63.5527 714.012 61.2596 709.171C59.9949 706.5 58.0725 705.461 56.6016 705.064L62.8241 723.191C63.292 724.921 63.6508 727.273 63.669 727.491C63.9452 729.983 63.0321 733.559 60.4855 738.35C59.6188 740.115 62.6942 741.91 64.6384 739.864L71.7704 732.361L71.7713 732.363Z" fill="#0764A7"/>
<path opacity="0.3" d="M85.0652 731.372C81.0549 730.498 81.1121 728.601 81.1121 728.601L81.0449 728.644C79.6721 729.78 78.005 730.956 75.9172 732.072C74.1828 732.999 74.8596 736.126 77.6815 736.126L94.6402 732.345C94.7337 732.356 94.8282 732.331 94.9182 732.298C95.4269 732.115 95.7213 731.446 95.576 730.806L94.6756 727.074C93.4345 727.129 91.8274 727.34 90.3146 727.946C87.3983 729.112 89.0754 732.247 85.0652 731.372Z" fill="#0764A7"/>
<path d="M125.144 656.922C124.274 653.031 124.479 646.68 124.479 646.68C124.479 632.49 123.938 614.936 123.406 610.026C123.197 608.1 124.068 605.42 119.08 604.01C114.137 602.613 105.323 602.664 92.2357 603.033C92.2357 603.033 89.9889 608.901 86.2421 619.313C86.2421 619.313 84.2333 629.84 83.4356 636.885L81.3242 652.86C84.147 657.241 99.533 660.592 125.144 656.921L125.144 656.922Z" fill="#407BFF"/>
<path opacity="0.4" d="M125.144 656.922C124.274 653.031 124.479 646.68 124.479 646.68C124.479 632.49 123.938 614.936 123.406 610.026C123.197 608.1 124.068 605.42 119.08 604.01C114.137 602.613 105.323 602.664 92.2357 603.033C92.2357 603.033 89.9889 608.901 86.2421 619.313C86.2421 619.313 84.2333 629.84 83.4356 636.885L81.3242 652.86C84.147 657.241 99.533 660.592 125.144 656.921L125.144 656.922Z" fill="white"/>
<g opacity="0.4">
<path d="M92.6926 628.073C90.4894 626.945 89.1075 624.291 89.6626 621.879C90.2177 619.467 92.8089 617.647 95.2337 618.145C97.3833 618.587 98.9233 621.701 98.9642 624.256C99.473 621.909 102.547 619.217 104.754 619.252C107.268 619.291 109.447 621.768 109.22 624.272C108.993 626.776 106.466 628.811 103.966 628.555C106.292 629.05 107.934 631.66 107.374 633.973C106.813 636.285 104.157 637.852 101.862 637.227C99.5674 636.601 98.0747 633.903 98.7643 631.626C97.9775 633.625 96.5184 635.513 94.456 636.116C92.3937 636.719 89.7835 635.538 89.4309 633.418C89.0712 631.252 90.9736 629.439 92.6917 628.072L92.6926 628.073Z" fill="#FFD772"/>
</g>
<path d="M98.4478 629.921C99.6681 629.921 100.657 628.932 100.657 627.711C100.657 626.491 99.6681 625.502 98.4478 625.502C97.2275 625.502 96.2383 626.491 96.2383 627.711C96.2383 628.932 97.2275 629.921 98.4478 629.921Z" fill="#FFD772"/>
<path d="M81.9809 585.562C81.8329 585.562 81.6966 585.465 81.6539 585.315C81.6021 585.134 81.7066 584.946 81.8874 584.895C86.2401 583.649 90.0632 580.703 92.3755 576.811C92.4709 576.65 92.6798 576.596 92.8424 576.692C93.0041 576.788 93.0578 576.998 92.9614 577.159C90.5611 581.199 86.5926 584.257 82.0745 585.55C82.0436 585.559 82.0118 585.563 81.9809 585.563V585.562Z" fill="#263238"/>
<path d="M92.8301 575.914L98.4285 597.969C92.6384 597.617 87.1491 594.043 84.4844 588.891C88.3865 585.441 91.3102 580.896 92.8301 575.914Z" fill="#263238"/>
<path d="M112.046 592.791C110.751 595.315 111.12 595.086 110.875 597.912C110.609 600.975 110.261 605.104 110.261 605.104C109.809 605.75 106.196 607.549 103.177 608.138C98.1362 609.12 96.5708 607.658 97.6701 603.685C98.4687 600.8 97.7601 598.461 95.6786 596.616C90.9679 592.348 112.046 592.79 112.046 592.79V592.791Z" fill="#FFBDB7"/>
<path opacity="0.2" d="M112.045 592.791C110.75 595.314 110.404 595.741 109.629 598.469C106.596 602.454 102.063 603.046 97.8318 603.004C98.1417 601.307 98.0345 598.207 95.7005 596.576C90.967 592.348 112.045 592.791 112.045 592.791Z" fill="black"/>
<path d="M98.9905 565.461C98.9905 565.461 92.7598 568.496 93.3522 575.441C93.9446 582.387 105.902 571.39 105.902 571.39L98.9905 565.461Z" fill="#263238"/>
<path d="M120.913 584.966C116.171 592.921 113.864 597.839 107.054 599.678C96.8043 602.476 87.2702 592.923 89.2254 583.58C90.9388 575.158 98.4133 563.588 109.143 564.892C119.873 566.198 125.637 577.034 120.912 584.966H120.913Z" fill="#FFBDB7"/>
<path d="M105.408 575.433C105.371 575.325 105.365 575.211 105.39 575.101C105.509 574.824 105.827 574.69 106.108 574.8C107.754 575.403 108.996 576.782 109.426 578.482C109.485 578.773 109.298 579.057 109.007 579.116H109.002C108.709 579.167 108.428 578.981 108.36 578.692C107.985 577.345 106.973 576.268 105.653 575.81C105.524 575.721 105.436 575.585 105.408 575.433Z" fill="#263238"/>
<path d="M93.332 572.056C93.2393 571.993 93.1666 571.903 93.1257 571.797C93.053 571.504 93.2293 571.208 93.521 571.131C95.2081 570.658 97.0206 571.039 98.3743 572.151C98.5969 572.347 98.6178 572.686 98.4225 572.909L98.4107 572.921C98.2026 573.133 97.8665 573.148 97.6402 572.958C96.5436 572.089 95.0909 571.814 93.7526 572.221C93.5954 572.228 93.4428 572.168 93.3329 572.056H93.332Z" fill="#263238"/>
<path d="M97.4821 580.989L94.1914 581.88C94.1914 581.88 94.4176 583.162 96.6835 584.412L97.483 580.988L97.4821 580.989Z" fill="#FF7C77"/>
<path d="M105.868 567.328C105.868 567.328 111.943 563.274 113.92 563.962C115.897 564.649 121.874 567.641 124.332 574.274C126.789 580.906 125.272 592.859 124.972 594.764C124.264 599.26 123.613 605.241 123.613 605.241L109.497 603.106C108.142 598.835 112.943 588.541 111.652 586.827C108.184 582.224 108.965 578.782 108.098 576.284C107.153 573.561 107.305 567.773 107.305 567.773L98.7128 567.904L95.0078 570.19C95.0078 570.19 96.4624 567.95 98.7273 565.371C100.992 562.791 108.647 562.121 111.434 563.098C114.221 564.074 113.638 564.956 113.638 564.956L105.868 567.328Z" fill="#263238"/>
<path d="M111.255 587.205C111.255 587.205 115.179 583.217 117.068 585.689C118.957 588.159 115.354 595.962 111.679 594.532C108.004 593.102 108.592 589.136 111.256 587.206L111.255 587.205Z" fill="#FFBDB7"/>
<path d="M95.7632 586.57C95.6296 587.735 96.311 589.84 96.6808 590.573L97.4094 590.575C100.684 590.572 102.214 589.481 102.913 588.265C103.411 587.315 103.561 586.219 103.338 585.17C101.591 586.217 98.5524 586.459 96.8725 586.525C96.1984 586.584 95.7632 586.569 95.7632 586.569V586.57Z" fill="#263238"/>
<path d="M96.8876 586.551L97.192 587.733C100.293 587.715 102.478 587.287 103.45 586.348C103.466 585.961 103.428 585.573 103.336 585.197C101.606 586.243 98.5675 586.485 96.8867 586.551H96.8876Z" fill="white"/>
<path d="M97.4141 590.599C100.688 590.596 102.218 589.504 102.918 588.289C101.663 588.315 100.424 588.565 99.2575 589.025C98.4952 589.347 97.8511 589.896 97.4141 590.599Z" fill="#D5504D"/>
<path opacity="0.2" d="M112.68 592.462C112.6 592.462 112.522 592.419 112.481 592.344C112.421 592.234 112.461 592.096 112.572 592.036C113.989 591.262 115.098 589.443 114.492 587.969C114.445 587.853 114.501 587.721 114.616 587.672C114.733 587.627 114.865 587.681 114.913 587.796C115.634 589.551 114.373 591.57 112.789 592.434C112.754 592.453 112.717 592.462 112.68 592.462Z" fill="black"/>
<path d="M105.418 581.937C105.124 582.81 104.408 583.367 103.834 583.158C103.259 582.949 103.07 582.089 103.35 581.216C103.629 580.343 104.368 579.793 104.942 579.995C105.516 580.197 105.69 581.063 105.418 581.937Z" fill="#263238"/>
<path d="M96.0416 578.93C95.7391 579.803 95.0241 580.36 94.4572 580.151C93.8903 579.942 93.694 579.075 93.9738 578.202C94.2537 577.329 94.9841 576.787 95.5583 576.981C96.1325 577.174 96.3287 578.057 96.0416 578.93Z" fill="#263238"/>
<path d="M125.029 605.095C125.008 605.095 124.986 605.094 124.964 605.089C124.779 605.054 124.658 604.875 124.694 604.69C126.415 595.778 125.808 581.657 124.137 575.455C124.088 575.274 124.196 575.087 124.378 575.038C124.561 574.988 124.746 575.097 124.796 575.278C126.485 581.551 127.101 595.821 125.363 604.82C125.332 604.983 125.189 605.096 125.029 605.096V605.095Z" fill="#263238"/>
<path d="M-0.113882 503.808C9.17403 515.621 18.1703 527.696 27.0076 539.918C35.834 552.149 44.4523 564.564 52.8653 577.154C61.2529 589.767 69.3606 602.613 77.2076 615.667C84.9673 628.789 92.3809 642.181 99.2649 655.953L96.9826 657.44C90.2686 643.654 83.0122 630.214 75.4023 617.029C67.7034 603.91 59.7374 590.986 51.4871 578.289C43.2112 565.612 34.7247 553.104 26.0291 540.777C17.3236 528.46 8.45084 516.279 -0.705337 504.37L-11.1289 491.221L-10.9654 490.92L-0.113882 503.808Z" fill="#263238"/>
<path d="M6.03089 513.74L5.53664 514.155C5.13779 514.489 4.59358 514.44 4.32829 514.046C4.063 513.651 4.17293 513.055 4.57268 512.72L5.06693 512.306C5.46668 511.972 6.00999 512.021 6.27528 512.415C6.54057 512.809 6.43064 513.406 6.03089 513.74Z" fill="#263238"/>
<path d="M31.7887 549.803L31.2945 550.217C30.8947 550.552 30.3514 550.503 30.0861 550.108C29.8208 549.714 29.9307 549.117 30.3305 548.783L30.8247 548.368C31.2245 548.034 31.7678 548.083 32.0331 548.477C32.2984 548.872 32.1884 549.469 31.7887 549.803Z" fill="#263238"/>
<path d="M58.152 589.022L57.6577 589.436C57.2589 589.77 56.7147 589.721 56.4494 589.327C56.1841 588.933 56.294 588.336 56.6938 588.001L57.188 587.587C57.5869 587.253 58.1311 587.302 58.3964 587.696C58.6617 588.09 58.5517 588.687 58.152 589.022Z" fill="#263238"/>
<path d="M85.0343 626.327L79.1352 631.267C78.8163 631.534 78.3838 631.471 78.204 631.132L73.1271 621.558C72.9699 621.262 73.0626 620.859 73.3406 620.625L79.2406 615.686C79.5595 615.418 79.9919 615.481 80.1718 615.82L85.2478 625.394C85.405 625.69 85.3123 626.094 85.0343 626.326V626.327Z" fill="#263238"/>
<path d="M75.9511 630.957C75.8467 630.91 75.7594 630.829 75.7022 630.722L72.4696 624.626C72.3234 624.352 72.4088 623.981 72.6677 623.764L76.4236 620.618C76.5644 620.5 76.7388 620.447 76.9024 620.47C77.0659 620.492 77.2049 620.592 77.2849 620.743L80.5174 626.839C80.6628 627.113 80.5783 627.484 80.3203 627.7L76.5635 630.846C76.4227 630.964 76.2482 631.017 76.0847 630.994C76.0375 630.987 75.9929 630.975 75.9511 630.957ZM76.8624 620.885C76.846 620.877 76.8297 620.873 76.8115 620.87C76.7488 620.861 76.6843 620.881 76.6307 620.926L72.8739 624.072C72.7758 624.154 72.744 624.293 72.7994 624.397L76.032 630.494C76.0629 630.55 76.1129 630.587 76.1765 630.597C76.2392 630.606 76.3036 630.586 76.3572 630.54L80.114 627.395C80.2121 627.313 80.2439 627.173 80.1885 627.069L76.956 620.973C76.9342 620.933 76.9024 620.902 76.8633 620.885H76.8624Z" fill="#263238"/>
<path d="M85.4301 624.158L84.9468 624.562C84.7996 624.686 84.6115 624.658 84.5289 624.5L81.1101 618.018C81.0265 617.86 81.0792 617.632 81.2263 617.509L81.7097 617.104C81.8569 616.981 82.0449 617.009 82.1276 617.167L85.5464 623.649C85.63 623.807 85.5773 624.035 85.4301 624.158Z" fill="#263238"/>
<path d="M76.6247 620.929C55.3714 588.413 34.0119 555.936 11.3422 524.386C3.68962 514.006 -3.82756 503.343 -12.8193 494.09L-12.1116 493.765C-10.3317 537.163 -10.3354 602.759 -9.75663 646.762L-9.22242 723.26L-8.96258 799.76C-9.61672 728.775 -10.6915 601.703 -11.9235 532.032C-12.1279 520.786 -12.4595 503.865 -12.9883 492.73C-3.59952 502.256 4.03578 513.231 11.9109 523.976C34.4925 555.606 55.773 588.14 76.6256 620.928L76.6247 620.929Z" fill="#263238"/>
<path d="M76.6451 627.233C76.6451 627.233 82.4961 627.213 83.5863 628.402C84.6766 629.59 82.4507 630.177 82.4507 630.177C82.4507 630.177 84.9391 629.682 85.2925 630.709C85.7168 631.943 83.3819 632.548 83.3819 632.548C83.3819 632.548 85.4306 632.227 85.6832 633.162C85.9458 634.133 83.3592 635.002 83.3592 635.002C83.3592 635.002 84.8446 635.048 84.652 635.799C84.4594 636.548 79.0064 638.501 77.054 637.982C75.1015 637.463 72.8075 630.378 72.6776 628.726C72.6358 628.197 73.3154 624.822 74.7 623.346L76.4716 627.231L76.6451 627.233Z" fill="#FFBDB7"/>
<path opacity="0.2" d="M82.4832 630.297L82.4732 630.299L78.0941 630.954C78.035 630.963 77.9778 630.916 77.9669 630.85C77.9551 630.784 77.996 630.721 78.0523 630.714L82.4323 630.058C82.4914 630.049 82.5486 630.096 82.5595 630.161C82.5704 630.224 82.5368 630.282 82.4841 630.296L82.4832 630.297Z" fill="black"/>
<path opacity="0.2" d="M83.296 632.698H83.2933L79.1368 633.664C79.0786 633.677 79.0196 633.634 79.0041 633.57C78.9887 633.504 79.0169 633.453 79.0805 633.426L83.237 632.462C83.2951 632.448 83.3542 632.491 83.3705 632.556C83.386 632.621 83.3533 632.684 83.297 632.699L83.296 632.698Z" fill="black"/>
<path opacity="0.2" d="M83.2511 635.159L80.1829 635.964C80.1257 635.98 80.0648 635.939 80.0476 635.873C80.0303 635.809 80.063 635.744 80.1203 635.728L83.1884 634.923C83.2456 634.908 83.3065 634.949 83.3237 635.014C83.341 635.079 83.3083 635.144 83.2511 635.159Z" fill="black"/>
<path d="M120.417 604.753C120.417 604.753 124.442 604.894 125.723 612.018C127.004 619.141 129.608 633.349 124.407 637.367C119.206 641.384 96.5997 643.754 96.5997 643.754L93.1445 637.141L116.11 628.592C116.11 628.592 111.431 612.754 113.79 608.431C116.149 604.107 120.417 604.753 120.417 604.753Z" fill="#FFBDB7"/>
<path d="M102.469 633.477C102.469 633.477 94.006 637.642 93.1419 637.142C92.2788 636.643 91.7764 634.49 90.3264 634.439C88.8773 634.388 82.3141 634.51 81.8998 634.597C81.4846 634.683 82.1215 637.069 83.388 637.071C83.388 637.071 81.8607 638.915 83.2907 639.895C83.2907 639.895 82.1524 641.465 83.6305 642.262C83.6305 642.262 83.2181 643.54 84.7662 644.417C84.7662 644.417 85.0378 646.072 86.7704 646.364C88.503 646.656 93.8106 645.116 94.6283 644.532C95.446 643.949 105.268 641.044 105.268 641.044L102.467 633.477H102.469Z" fill="#FFBDB7"/>
<path d="M118.408 729.804H161.509C162.386 729.804 162.387 728.441 161.509 728.441H118.408C117.531 728.441 117.53 729.804 118.408 729.804Z" fill="#407BFF"/>
<path d="M167.752 729.804H175.308C176.185 729.804 176.187 728.441 175.308 728.441H167.752C166.875 728.441 166.873 729.804 167.752 729.804Z" fill="#407BFF"/>
<path d="M-186.525 734.472H476.432C477.309 734.472 477.311 733.109 476.432 733.109H-186.525C-187.402 733.109 -187.404 734.472 -186.525 734.472Z" fill="#407BFF"/>
<g opacity="0.3">
<path d="M358.49 733.986L337.804 733.843C331.634 733.765 325.45 733.688 319.31 734.301C318.189 734.412 316.831 734.742 316.538 735.83C316.327 736.614 316.839 737.449 317.531 737.872C318.224 738.296 319.058 738.404 319.864 738.502C324.725 739.092 329.586 739.684 334.446 740.274C335.029 740.345 335.64 740.427 336.116 740.771C336.592 741.115 336.864 741.816 336.544 742.309C336.345 742.616 335.98 742.764 335.634 742.883C328.902 745.178 321.169 742.669 314.561 745.298C314.072 745.493 313.533 745.79 313.442 746.308C313.364 746.752 313.673 747.192 314.068 747.41C314.463 747.628 314.927 747.671 315.377 747.709C325.046 748.515 334.875 748.289 344.311 746.031C345.232 745.81 346.168 745.563 346.963 745.046C347.758 744.529 348.4 743.692 348.449 742.745C348.505 741.677 347.799 740.694 346.928 740.072C346.058 739.449 345.026 739.105 344.048 738.67C343.489 738.421 342.845 737.923 343.039 737.342C343.212 736.824 343.899 736.739 344.446 736.748C348.452 736.812 352.458 736.876 356.464 736.94C357.159 736.951 357.873 736.959 358.522 736.711C359.171 736.463 359.748 735.896 359.792 735.204C359.837 734.51 359.159 733.803 358.49 733.986Z" fill="#9FC5EF"/>
</g>
<g opacity="0.3">
<path d="M296.485 782.279L189.531 781.447C99.0623 780.325 6.03603 779.139 -85.5784 780.805C-91.155 789.476 50.6204 783.827 113.066 793.807C79.4799 795.164 58.7227 791.562 25.137 792.919C62.2541 801.666 113.814 801.058 164.372 798.579C167.566 798.422 170.892 798.243 173.602 797.384C176.312 796.525 178.168 794.763 176.931 793.283C175.662 791.766 171.991 791.228 168.78 790.873C158.296 789.716 147.812 788.559 137.328 787.402C157.137 787.815 178.305 787.801 199.62 787.547C220.582 787.297 300.376 787.523 296.485 782.279Z" fill="#9FC5EF"/>
</g>
<path opacity="0.3" d="M384.069 742.623C362.049 746.889 389.893 747.874 389.893 747.874C373.563 746.263 384.069 742.623 384.069 742.623Z" fill="#407BFF"/>
<defs>
<linearGradient id="paint0_linear_6859_20175" x1="311.005" y1="435.324" x2="338.661" y2="396.791" gradientUnits="userSpaceOnUse">
<stop stop-color="#F8BF3B"/>
<stop offset="0.305" stop-color="#FF8B13"/>
<stop offset="1" stop-color="#EF5F3D"/>
</linearGradient>
</defs>
</svg>
