<svg width="32" height="32" viewBox="0 0 32 32" fill="none" xmlns="http://www.w3.org/2000/svg">
<g clip-path="url(#clip0_6035_23508)">
<path d="M11.1507 1.05323C7.95336 2.1624 5.19602 4.26764 3.28364 7.05973C1.37126 9.85182 0.404639 13.1836 0.525766 16.5656C0.646893 19.9477 1.84938 23.2018 3.9566 25.8499C6.06382 28.498 8.96471 30.4006 12.2332 31.2782C14.883 31.962 17.6592 31.992 20.3232 31.3657C22.7365 30.8237 24.9676 29.6641 26.7982 28.0007C28.7034 26.2166 30.0863 23.9469 30.7982 21.4357C31.572 18.7049 31.7097 15.8331 31.2007 13.0407H16.3207V19.2132H24.9382C24.7659 20.1977 24.3969 21.1373 23.853 21.9758C23.3092 22.8143 22.6018 23.5345 21.7732 24.0932C20.7209 24.7893 19.5347 25.2577 18.2907 25.4682C17.043 25.7002 15.7633 25.7002 14.5157 25.4682C13.2511 25.2068 12.0549 24.6849 11.0032 23.9357C9.31353 22.7397 8.04485 21.0405 7.37816 19.0807C6.7002 17.0842 6.7002 14.9197 7.37816 12.9232C7.85273 11.5238 8.63724 10.2496 9.67316 9.19573C10.8586 7.9676 12.3595 7.08972 14.0111 6.65842C15.6626 6.22712 17.4011 6.25905 19.0357 6.75073C20.3126 7.14271 21.4803 7.82757 22.4457 8.75073C23.4173 7.78406 24.3873 6.81489 25.3557 5.84323C25.8557 5.32073 26.4007 4.82323 26.8932 4.28823C25.4196 2.91692 23.6899 1.84987 21.8032 1.14823C18.3674 -0.0992977 14.6081 -0.132824 11.1507 1.05323Z" fill="white"/>
<path d="M11.1489 1.05249C14.6061 -0.134368 18.3654 -0.101725 21.8014 1.14499C23.6884 1.8514 25.4174 2.92358 26.8889 4.29999C26.3889 4.83499 25.8614 5.33499 25.3514 5.85499C24.3814 6.82332 23.4122 7.78832 22.4439 8.74999C21.4785 7.82683 20.3108 7.14197 19.0339 6.74999C17.3998 6.25659 15.6615 6.22281 14.0095 6.65235C12.3575 7.08188 10.8557 7.95814 9.66891 9.18499C8.63299 10.2388 7.84847 11.513 7.37391 12.9125L2.19141 8.89999C4.04643 5.22139 7.25828 2.40755 11.1489 1.05249Z" fill="#E33629"/>
<path d="M0.813899 12.8734C1.09245 11.4929 1.55491 10.156 2.1889 8.89844L7.3714 12.9209C6.69344 14.9175 6.69344 17.0819 7.3714 19.0784C5.64473 20.4118 3.91723 21.7518 2.1889 23.0984C0.601776 19.9392 0.117731 16.3397 0.813899 12.8734Z" fill="#F8BD00"/>
<path d="M16.3175 13.0391H31.1975C31.7065 15.8314 31.5688 18.7032 30.795 21.4341C30.0831 23.9453 28.7002 26.2149 26.795 27.9991C25.1225 26.6941 23.4425 25.3991 21.77 24.0941C22.5992 23.5348 23.3069 22.8138 23.8508 21.9744C24.3946 21.135 24.7634 20.1944 24.935 19.2091H16.3175C16.315 17.1541 16.3175 15.0966 16.3175 13.0391Z" fill="#587DBD"/>
<path d="M2.1875 23.1001C3.91583 21.7667 5.64333 20.4267 7.37 19.0801C8.03802 21.0406 9.30851 22.7398 11 23.9351C12.055 24.6807 13.2538 25.1984 14.52 25.4551C15.7676 25.6871 17.0474 25.6871 18.295 25.4551C19.539 25.2445 20.7252 24.7762 21.7775 24.0801C23.45 25.3851 25.13 26.6801 26.8025 27.9851C24.9722 29.6494 22.741 30.8098 20.3275 31.3526C17.6635 31.9788 14.8873 31.9488 12.2375 31.2651C10.1418 30.7055 8.18419 29.7191 6.4875 28.3676C4.69165 26.9418 3.22489 25.145 2.1875 23.1001Z" fill="#319F43"/>
</g>
<defs>
<clipPath id="clip0_6035_23508">
<rect width="32" height="32" fill="white"/>
</clipPath>
</defs>
</svg>
