<svg width="41" height="38" viewBox="0 0 41 38" fill="none" xmlns="http://www.w3.org/2000/svg">
<path d="M21.4339 1C21.785 1 22.1104 1.1841 22.2911 1.48505L27.6873 10.468C27.8345 10.713 28.0795 10.8833 28.3605 10.9359L38.2675 12.7912C39.0456 12.9369 39.3539 13.8859 38.8101 14.4611L31.901 21.769C31.6958 21.986 31.5984 22.2835 31.6354 22.58L32.8595 32.376C32.9341 32.9728 32.4687 33.5 31.8673 33.5H28.8084C28.6075 33.5 28.4112 33.4395 28.2452 33.3263L21.9998 29.07L15.1375 25.08C15.0464 25.027 14.9642 24.9599 14.8941 24.8813L12.4226 22.1118L5.18939 14.4611C4.64558 13.8859 4.95393 12.9369 5.73198 12.7912L15.4797 10.9658C15.8487 10.8967 16.1478 10.6268 16.2545 10.2669L18.7879 1.71593C18.9137 1.2913 19.3038 1 19.7467 1H21.4339Z" fill="#F1B323"/>
<path d="M18.1221 1.60978C18.5011 0.914844 19.4989 0.914845 19.8779 1.60979L24.6917 10.4365C24.8355 10.7002 25.0903 10.8853 25.3856 10.9406L35.2678 12.7912C36.0458 12.9369 36.3542 13.8859 35.8104 14.4611L28.9033 21.7669C28.6969 21.9851 28.5996 22.2846 28.6382 22.5825L29.932 32.5529C30.0338 33.3379 29.2265 33.9245 28.5115 33.585L19.4288 29.2736C19.1575 29.1447 18.8425 29.1447 18.5712 29.2736L9.48855 33.585C8.77345 33.9245 7.96617 33.3379 8.06803 32.5529L9.36178 22.5825C9.40043 22.2846 9.30312 21.9851 9.09675 21.7669L2.18963 14.4611C1.64582 13.8859 1.95417 12.9369 2.73222 12.7912L12.6144 10.9406C12.9097 10.8853 13.1645 10.7002 13.3083 10.4365L18.1221 1.60978Z" fill="#F8BF3B"/>
<path d="M15.956 23.096C15.716 23.096 15.528 23.032 15.392 22.904C15.256 22.768 15.188 22.576 15.188 22.328V21.392H12.224C11.976 21.392 11.776 21.34 11.624 21.236C11.48 21.132 11.408 20.968 11.408 20.744C11.408 20.616 11.44 20.476 11.504 20.324C11.576 20.172 11.7 19.972 11.876 19.724L15.164 14.96C15.276 14.792 15.4 14.664 15.536 14.576C15.672 14.488 15.828 14.444 16.004 14.444C16.212 14.444 16.384 14.508 16.52 14.636C16.656 14.756 16.724 14.948 16.724 15.212V20.12H17.312C17.544 20.12 17.716 20.176 17.828 20.288C17.948 20.392 18.008 20.548 18.008 20.756C18.008 20.964 17.948 21.124 17.828 21.236C17.716 21.34 17.544 21.392 17.312 21.392H16.724V22.328C16.724 22.576 16.656 22.768 16.52 22.904C16.384 23.032 16.196 23.096 15.956 23.096ZM15.188 20.12V16.376H15.536L12.704 20.528V20.12H15.188ZM19.6953 23.06C19.4233 23.06 19.2033 22.976 19.0353 22.808C18.8753 22.64 18.7953 22.424 18.7953 22.16C18.7953 21.904 18.8753 21.696 19.0353 21.536C19.2033 21.368 19.4233 21.284 19.6953 21.284C19.9753 21.284 20.1913 21.368 20.3433 21.536C20.5033 21.696 20.5833 21.904 20.5833 22.16C20.5833 22.424 20.5033 22.64 20.3433 22.808C20.1913 22.976 19.9753 23.06 19.6953 23.06ZM25.0839 23.12C24.3879 23.12 23.7919 22.956 23.2959 22.628C22.8079 22.292 22.4359 21.812 22.1799 21.188C21.9239 20.564 21.7959 19.808 21.7959 18.92C21.7959 18.2 21.8759 17.564 22.0359 17.012C22.2039 16.452 22.4439 15.98 22.7559 15.596C23.0679 15.212 23.4479 14.92 23.8959 14.72C24.3519 14.52 24.8639 14.42 25.4319 14.42C25.7839 14.42 26.1399 14.476 26.4999 14.588C26.8679 14.692 27.2119 14.852 27.5319 15.068C27.6599 15.148 27.7439 15.252 27.7839 15.38C27.8239 15.508 27.8279 15.636 27.7959 15.764C27.7719 15.884 27.7159 15.992 27.6279 16.088C27.5479 16.176 27.4439 16.232 27.3159 16.256C27.1879 16.272 27.0479 16.236 26.8959 16.148C26.6239 15.988 26.3679 15.876 26.1279 15.812C25.8879 15.748 25.6479 15.716 25.4079 15.716C24.9439 15.716 24.5519 15.824 24.2319 16.04C23.9119 16.256 23.6679 16.58 23.4999 17.012C23.3399 17.444 23.2599 17.984 23.2599 18.632V19.532H23.1159C23.1799 19.124 23.3119 18.776 23.5119 18.488C23.7199 18.192 23.9839 17.968 24.3039 17.816C24.6239 17.656 24.9799 17.576 25.3719 17.576C25.8599 17.576 26.2919 17.692 26.6679 17.924C27.0439 18.156 27.3399 18.476 27.5559 18.884C27.7719 19.292 27.8799 19.76 27.8799 20.288C27.8799 20.832 27.7599 21.32 27.5199 21.752C27.2879 22.176 26.9599 22.512 26.5359 22.76C26.1199 23 25.6359 23.12 25.0839 23.12ZM24.9999 21.896C25.2879 21.896 25.5399 21.832 25.7559 21.704C25.9799 21.576 26.1519 21.396 26.2719 21.164C26.3919 20.924 26.4519 20.652 26.4519 20.348C26.4519 20.036 26.3919 19.764 26.2719 19.532C26.1519 19.3 25.9799 19.12 25.7559 18.992C25.5399 18.856 25.2879 18.788 24.9999 18.788C24.7119 18.788 24.4599 18.856 24.2439 18.992C24.0279 19.12 23.8559 19.3 23.7279 19.532C23.6079 19.764 23.5479 20.036 23.5479 20.348C23.5479 20.652 23.6079 20.924 23.7279 21.164C23.8559 21.396 24.0279 21.576 24.2439 21.704C24.4599 21.832 24.7119 21.896 24.9999 21.896Z" fill="#2C3D68"/>
</svg>
