<svg width="34" height="28" viewBox="0 0 34 28" fill="none" xmlns="http://www.w3.org/2000/svg">
<path d="M7.02467 14.8174C6.90989 15.3323 6.76734 15.8684 6.59665 16.4259L6.59648 16.4259L6.59338 16.4372C6.15068 18.0508 5.29891 19.6401 4.02451 21.205L4.02447 21.2049L4.02086 21.2095C3.14467 22.318 2.69808 23.4072 2.7865 24.4619C2.87062 25.4654 3.25735 26.2668 3.9805 26.8059L3.98937 26.8125L3.99859 26.8186C4.77674 27.3343 5.64736 27.5055 6.58672 27.3364C7.63153 27.1624 8.5523 26.5183 9.35639 25.4826C10.9089 23.7062 12.0811 21.8828 12.8654 20.0115C13.6412 18.1608 14.1865 16.3439 14.4989 14.5611C14.886 12.7124 15.0809 10.9726 15.0809 9.34286C15.0809 6.54864 14.4188 4.37776 13.0244 2.90464C11.7155 1.36443 9.95404 0.600647 7.7833 0.600647C5.62557 0.600647 3.86728 1.27903 2.55371 2.6639C1.24368 3.96845 0.600647 5.67466 0.600647 7.74286C0.600647 9.89202 1.28537 11.6424 2.68168 12.9488L2.68157 12.9489L2.69008 12.9564C3.87888 14.0068 5.3297 14.6227 7.02467 14.8174ZM25.3431 14.8174C25.2283 15.3323 25.0858 15.8684 24.9151 16.4259L24.9149 16.4259L24.9118 16.4372C24.4691 18.0508 23.6173 19.6401 22.3429 21.205L22.3429 21.2049L22.3393 21.2095C21.4631 22.318 21.0165 23.4072 21.1049 24.4619C21.189 25.4654 21.5758 26.2668 22.2989 26.8059L22.3078 26.8125L22.317 26.8186C23.0952 27.3343 23.9658 27.5055 24.9051 27.3364C25.95 27.1624 26.8707 26.5183 27.6748 25.4826C29.2273 23.7062 30.3995 21.8828 31.1839 20.0115C31.9596 18.1608 32.5049 16.3439 32.8174 14.5611C33.2044 12.7124 33.3994 10.9726 33.3994 9.34286C33.3994 6.54865 32.7373 4.37777 31.3429 2.90465C30.0339 1.36443 28.2725 0.600647 26.1017 0.600647C23.944 0.600647 22.1857 1.27903 20.8721 2.6639C19.5621 3.96845 18.9191 5.67466 18.9191 7.74286C18.9191 9.89202 19.6038 11.6424 21.0001 12.9488L21 12.9489L21.0085 12.9564C22.1973 14.0068 23.6481 14.6227 25.3431 14.8174Z" stroke="url(#paint0_linear_5624_17077)" stroke-width="0.798706"/>
<defs>
<linearGradient id="paint0_linear_5624_17077" x1="5.22" y1="6" x2="31.5741" y2="6.15857" gradientUnits="userSpaceOnUse">
<stop stop-color="#F8BF3B"/>
<stop offset="0.305" stop-color="#FF8B13"/>
<stop offset="1" stop-color="#EF5F3D"/>
</linearGradient>
</defs>
</svg>
