<svg width="132" height="132" viewBox="0 0 132 132" fill="none" xmlns="http://www.w3.org/2000/svg">
<g filter="url(#filter0_d_6574_15119)">
<rect x="30" y="28" width="72" height="72" rx="6" fill="white" shape-rendering="crispEdges"/>
<path d="M86.7234 75.9095C87.1344 75.9095 87.4837 75.9095 87.833 75.9095C89.2999 75.9095 90.0442 76.6671 89.9971 78.1242C89.9757 78.7891 89.7715 79.3773 89.2704 79.8621C88.3864 80.7191 87.524 81.5973 86.6562 82.4715C86.2841 82.8464 85.8542 83 85.3088 83C73.5113 82.9881 61.7138 82.9881 49.9163 83C49.3709 83 48.9424 82.8477 48.5703 82.4715C47.6339 81.5258 46.6734 80.6025 45.7586 79.6382C45.0023 78.8395 45.0278 77.1586 45.8298 76.4009C46.1038 76.1413 46.5485 75.9942 46.9367 75.932C47.4244 75.8525 47.9349 75.9134 48.4695 75.9134V56.0604C48.3043 56.0525 48.1283 56.0379 47.9523 56.0379C46.8131 56.0352 45.6726 56.0445 44.5334 56.0352C43.0262 56.022 42.0294 55.0709 42.0146 53.5927C41.9945 51.5435 41.9958 49.4944 42.0146 47.4452C42.0267 45.9484 43.002 45.008 44.52 45.004C47.6541 44.9961 50.7868 44.9961 53.9209 45.004C55.4497 45.008 56.4196 45.9776 56.4317 47.4969C56.4411 48.5539 56.437 49.6123 56.4397 50.6693C56.4397 50.7011 56.4559 50.7329 56.4814 50.8256C56.6695 50.8336 56.879 50.8521 57.0872 50.8521C65.8017 50.8534 74.5161 50.8481 83.2292 50.8653C83.8015 50.8653 84.4222 50.9382 84.9353 51.1647C86.1497 51.7025 86.7193 52.7158 86.7207 54.0245C86.7247 58.4871 86.722 62.9483 86.722 67.4109C86.722 70.0389 86.722 72.6669 86.722 75.2935V75.9081L86.7234 75.9095ZM50.0426 55.9743V75.8724H85.2134V75.2949C85.2134 68.3036 85.2134 61.3124 85.2134 54.3199C85.2134 52.884 84.668 52.3423 83.2145 52.3423C74.5 52.3423 65.7842 52.3423 57.0698 52.3423C56.875 52.3423 56.6789 52.3423 56.4196 52.3423C56.5351 54.0166 56.4182 55.5385 54.4301 56.0207C54.4301 56.3916 54.4301 56.7214 54.4301 57.0512C54.4327 57.5373 54.2527 57.9241 53.7893 58.1374C53.3419 58.344 52.9443 58.2221 52.5762 57.9321C51.922 57.4155 51.2637 56.9042 50.6068 56.3929C50.4443 56.2657 50.275 56.1465 50.0413 55.9743H50.0426ZM67.6542 77.397C60.9024 77.397 54.1493 77.397 47.3975 77.397C46.8346 77.397 46.7003 77.5003 46.7379 78.0487C46.7567 78.307 46.8655 78.6103 47.0388 78.7984C47.7736 79.5905 48.5582 80.3376 49.3051 81.1178C49.5791 81.4039 49.872 81.5112 50.2737 81.5099C55.4671 81.4966 60.6619 81.5019 65.8554 81.5019C72.2391 81.5019 78.6228 81.5032 85.0065 81.4953C85.2255 81.4953 85.513 81.4688 85.6513 81.335C86.5527 80.4714 87.4541 79.6038 88.2763 78.6699C88.4751 78.4434 88.4267 77.956 88.3797 77.6036C88.3663 77.5069 87.9445 77.4063 87.7094 77.4049C81.0248 77.3943 74.3388 77.397 67.6542 77.397ZM52.9228 56.2935C52.9228 55.9253 52.9188 55.6683 52.9228 55.4114C52.9349 54.8219 53.1807 54.5755 53.7745 54.5504C54.6692 54.5133 54.9231 54.2537 54.9244 53.3635C54.9258 51.4482 54.9271 49.5328 54.9244 47.6174C54.9244 46.767 54.6436 46.4915 53.7785 46.4915C50.7479 46.4889 47.7172 46.4889 44.6879 46.4915C43.7852 46.4915 43.5192 46.7525 43.5178 47.6413C43.5152 49.5566 43.5152 51.472 43.5178 53.3874C43.5192 54.2669 43.804 54.549 44.6879 54.549C46.5122 54.5517 48.3379 54.5358 50.1622 54.5636C50.4684 54.5689 50.8124 54.7014 51.0676 54.8762C51.6788 55.2948 52.2484 55.7716 52.9228 56.2935Z" fill="url(#paint0_linear_6574_15119)"/>
<path d="M68.0821 61.5564C68.0726 57.319 71.5345 53.8804 75.8212 53.8711C80.1375 53.8618 83.6249 57.2939 83.6222 61.5485C83.6195 65.7739 80.1348 69.2179 75.8575 69.2192C71.5829 69.2219 68.0915 65.7806 68.0821 61.5551V61.5564ZM75.8454 57.723C73.7094 57.7257 71.9751 59.4238 71.9644 61.5246C71.9536 63.6334 73.7229 65.3818 75.8588 65.3726C78.0096 65.3633 79.7439 63.6334 79.7304 61.5101C79.7183 59.4053 77.9894 57.7204 75.8441 57.723H75.8454ZM79.6821 56.6965C77.3809 54.6831 73.4972 54.9838 71.2793 57.3164C68.8276 59.8954 69.3435 63.5844 70.926 65.2706C71.1234 65.0851 71.3196 64.8984 71.5144 64.7169C69.866 62.3525 70.3322 59.7629 71.7266 58.1257C72.4708 57.2528 73.4085 56.6607 74.5316 56.3918C76.1839 55.9958 77.7127 56.3256 79.0802 57.2687C79.3005 57.0607 79.4806 56.8899 79.6834 56.6978L79.6821 56.6965ZM80.167 58.331C81.5923 60.551 81.591 62.1803 80.257 64.6427C80.4438 64.8825 80.6117 65.0971 80.7809 65.313C82.7194 62.991 82.3849 59.4993 80.7474 57.78C80.5579 57.9601 80.3685 58.139 80.167 58.331ZM72.0047 66.3846C74.1998 68.1595 77.7275 68.1436 79.623 66.4349C79.4483 66.2256 79.2737 66.015 79.1044 65.811C76.904 67.2191 74.7586 67.2018 72.5958 65.8057C72.401 65.9965 72.2156 66.1793 72.006 66.3846H72.0047Z" fill="url(#paint1_linear_6574_15119)"/>
<path d="M62.6928 64.605C64.6649 65.3296 66.1278 66.478 67.1837 68.1232C68.288 69.8451 68.5593 71.7459 68.4398 73.7315C68.4156 74.1329 68.1671 74.3567 67.7654 74.4044C67.6163 74.4216 67.4645 74.415 67.314 74.415C62.4564 74.415 57.5974 74.415 52.7398 74.415C51.7833 74.415 51.6328 74.2335 51.5952 73.2878C51.5093 71.1168 52.013 69.1285 53.3873 67.3946C54.4002 66.1164 55.6925 65.2104 57.2871 64.6382C56.1976 63.6977 55.4453 62.585 54.9926 61.279C54.0133 58.447 55.0786 55.5938 57.6297 54.399C59.6514 53.452 61.6316 53.6294 63.3873 55.011C65.2157 56.4508 65.7584 58.3874 65.2493 60.6087C64.9121 62.0777 64.1719 63.3387 63.0528 64.3719C62.9682 64.4501 62.8581 64.5004 62.6942 64.605H62.6928ZM66.8935 72.901C66.9137 72.8295 66.9379 72.7844 66.9379 72.7394C66.9446 69.9485 65.71 67.8675 63.2651 66.4674C62.9763 66.3019 62.8272 66.4144 62.6216 66.5959C61.1372 67.9086 58.9179 67.9218 57.4483 66.5999C57.1554 66.3376 56.962 66.3668 56.6705 66.5323C54.9805 67.4993 53.8387 68.8967 53.351 70.7631C53.171 71.4479 53.1455 72.1725 53.0461 72.901H66.8935ZM63.9126 59.5027C63.926 57.2575 62.451 55.57 60.5595 55.362C58.4894 55.1342 56.6987 56.3528 56.2352 58.3039C55.8148 60.071 56.8223 62.5016 58.4357 63.6143C59.509 64.3547 60.5985 64.3706 61.641 63.5891C63.1039 62.4923 63.793 60.9836 63.9126 59.5027ZM61.7283 65.3084C60.5837 65.7813 59.4486 65.772 58.2516 65.2422C59.1477 66.3442 60.7852 66.3548 61.7283 65.3084Z" fill="url(#paint2_linear_6574_15119)"/>
<path d="M75.8127 71.9668C74.3067 71.9668 72.8008 71.9668 71.2949 71.9655C71.1109 71.9655 70.9241 71.9681 70.7455 71.931C70.3666 71.8529 70.1208 71.5708 70.1866 71.2264C70.2363 70.9694 70.4942 70.7283 70.7105 70.5349C70.8099 70.4475 71.0316 70.4806 71.1968 70.4806C74.292 70.478 77.3871 70.478 80.4822 70.4806C80.6152 70.4806 80.7522 70.478 80.8825 70.5005C81.307 70.5707 81.5381 70.8277 81.5247 71.2502C81.5126 71.6476 81.2869 71.8979 80.8785 71.9443C80.63 71.9721 80.3774 71.9668 80.1276 71.9668C78.6888 71.9681 77.2501 71.9668 75.8113 71.9668H75.8127Z" fill="url(#paint3_linear_6574_15119)"/>
<path d="M75.7686 74.4448C75.0002 74.4448 74.2318 74.454 73.4634 74.4421C72.9153 74.4342 72.5795 74.1401 72.5781 73.7056C72.5768 73.2698 72.9153 72.9652 73.458 72.9625C75.0284 72.9533 76.5988 72.9519 78.1706 72.9625C78.7214 72.9665 79.033 73.2672 79.0196 73.7242C79.0075 74.1586 78.7079 74.4302 78.176 74.4408C77.374 74.4554 76.572 74.4448 75.77 74.4448H75.7686Z" fill="url(#paint4_linear_6574_15119)"/>
<path d="M49.2349 49.2147C48.0796 49.2147 46.9243 49.2174 45.769 49.2147C45.1779 49.2121 44.8314 48.9419 44.8206 48.4875C44.8085 48.0173 45.1685 47.7285 45.7865 47.7285C48.081 47.7259 50.3741 47.7259 52.6686 47.7285C53.257 47.7285 53.6076 48.0027 53.6183 48.4544C53.6304 48.922 53.2677 49.2121 52.6511 49.2134C51.5119 49.2174 50.3741 49.2134 49.2349 49.2134V49.2147Z" fill="url(#paint5_linear_6574_15119)"/>
<path d="M49.3158 49.774C50.4361 49.774 51.5565 49.77 52.6769 49.7753C53.2666 49.778 53.6146 50.0561 53.6199 50.5038C53.6253 50.9529 53.2707 51.2562 52.6943 51.2575C50.42 51.2628 48.1457 51.2628 45.8714 51.2575C45.2816 51.2562 44.9404 50.9741 44.9337 50.5197C44.927 50.0614 45.2628 49.7793 45.8539 49.7753C47.0079 49.7687 48.1618 49.7727 49.3158 49.7727V49.774Z" fill="url(#paint6_linear_6574_15119)"/>
<path d="M49.2175 53.2945C48.0972 53.2945 46.9768 53.2985 45.8564 53.2932C45.2653 53.2905 44.9322 53.0124 44.9376 52.5487C44.9429 52.0944 45.2882 51.8109 45.8726 51.8096C48.1469 51.8056 50.4212 51.8056 52.6955 51.8096C53.2678 51.8096 53.6251 52.1156 53.6198 52.5646C53.6144 53.0163 53.2678 53.2905 52.6781 53.2932C51.5241 53.2985 50.3702 53.2945 49.2162 53.2945H49.2175Z" fill="url(#paint7_linear_6574_15119)"/>
</g>
<defs>
<filter id="filter0_d_6574_15119" x="0" y="0" width="132" height="132" filterUnits="userSpaceOnUse" color-interpolation-filters="sRGB">
<feFlood flood-opacity="0" result="BackgroundImageFix"/>
<feColorMatrix in="SourceAlpha" type="matrix" values="0 0 0 0 0 0 0 0 0 0 0 0 0 0 0 0 0 0 127 0" result="hardAlpha"/>
<feOffset dy="2"/>
<feGaussianBlur stdDeviation="15"/>
<feComposite in2="hardAlpha" operator="out"/>
<feColorMatrix type="matrix" values="0 0 0 0 1 0 0 0 0 0.545098 0 0 0 0 0.0745098 0 0 0 0.12 0"/>
<feBlend mode="normal" in2="BackgroundImageFix" result="effect1_dropShadow_6574_15119"/>
<feBlend mode="normal" in="SourceGraphic" in2="effect1_dropShadow_6574_15119" result="shape"/>
</filter>
<linearGradient id="paint0_linear_6574_15119" x1="48.3299" y1="52.3061" x2="87.8604" y2="52.5502" gradientUnits="userSpaceOnUse">
<stop stop-color="#F8BF3B"/>
<stop offset="0.305" stop-color="#FF8B13"/>
<stop offset="1" stop-color="#EF5F3D"/>
</linearGradient>
<linearGradient id="paint1_linear_6574_15119" x1="48.3299" y1="52.3061" x2="87.8604" y2="52.5502" gradientUnits="userSpaceOnUse">
<stop stop-color="#F8BF3B"/>
<stop offset="0.305" stop-color="#FF8B13"/>
<stop offset="1" stop-color="#EF5F3D"/>
</linearGradient>
<linearGradient id="paint2_linear_6574_15119" x1="48.3299" y1="52.3061" x2="87.8604" y2="52.5502" gradientUnits="userSpaceOnUse">
<stop stop-color="#F8BF3B"/>
<stop offset="0.305" stop-color="#FF8B13"/>
<stop offset="1" stop-color="#EF5F3D"/>
</linearGradient>
<linearGradient id="paint3_linear_6574_15119" x1="48.3299" y1="52.3061" x2="87.8604" y2="52.5502" gradientUnits="userSpaceOnUse">
<stop stop-color="#F8BF3B"/>
<stop offset="0.305" stop-color="#FF8B13"/>
<stop offset="1" stop-color="#EF5F3D"/>
</linearGradient>
<linearGradient id="paint4_linear_6574_15119" x1="48.3299" y1="52.3061" x2="87.8604" y2="52.5502" gradientUnits="userSpaceOnUse">
<stop stop-color="#F8BF3B"/>
<stop offset="0.305" stop-color="#FF8B13"/>
<stop offset="1" stop-color="#EF5F3D"/>
</linearGradient>
<linearGradient id="paint5_linear_6574_15119" x1="48.3299" y1="52.3061" x2="87.8604" y2="52.5502" gradientUnits="userSpaceOnUse">
<stop stop-color="#F8BF3B"/>
<stop offset="0.305" stop-color="#FF8B13"/>
<stop offset="1" stop-color="#EF5F3D"/>
</linearGradient>
<linearGradient id="paint6_linear_6574_15119" x1="48.3299" y1="52.3061" x2="87.8604" y2="52.5502" gradientUnits="userSpaceOnUse">
<stop stop-color="#F8BF3B"/>
<stop offset="0.305" stop-color="#FF8B13"/>
<stop offset="1" stop-color="#EF5F3D"/>
</linearGradient>
<linearGradient id="paint7_linear_6574_15119" x1="48.3299" y1="52.3061" x2="87.8604" y2="52.5502" gradientUnits="userSpaceOnUse">
<stop stop-color="#F8BF3B"/>
<stop offset="0.305" stop-color="#FF8B13"/>
<stop offset="1" stop-color="#EF5F3D"/>
</linearGradient>
</defs>
</svg>
