<svg width="48" height="38" viewBox="0 0 48 38" fill="none" xmlns="http://www.w3.org/2000/svg">
<g clip-path="url(#clip0_5624_6928)">
<path d="M44.7234 30.9114C45.1344 30.9114 45.4837 30.9114 45.833 30.9114C47.2999 30.9114 48.0442 31.6691 47.9971 33.1262C47.9757 33.7911 47.7715 34.3792 47.2704 34.864C46.3864 35.721 45.524 36.5992 44.6562 37.4735C44.2841 37.8483 43.8542 38.002 43.3088 38.002C31.5113 37.9901 19.7138 37.9901 7.91632 38.002C7.37091 38.002 6.94238 37.8497 6.57026 37.4735C5.63393 36.5277 4.67343 35.6045 3.75859 34.6402C3.00227 33.8414 3.0278 32.1605 3.82979 31.4029C4.10384 31.1432 4.54849 30.9962 4.93673 30.9339C5.42437 30.8545 5.93485 30.9154 6.46951 30.9154V11.0624C6.30428 11.0544 6.1283 11.0398 5.95231 11.0398C4.81314 11.0372 3.67261 11.0465 2.53343 11.0372C1.02617 11.0239 0.0293906 10.0729 0.0146135 8.59464C-0.00553707 6.54549 -0.00419369 4.49634 0.0146135 2.44719C0.0267038 0.950397 1.00199 0.00993447 2.52 0.00596068C5.65409 -0.00198689 8.78683 -0.00198689 11.9209 0.00596068C13.4497 0.00993447 14.4196 0.979538 14.4317 2.49885C14.4411 3.55588 14.437 4.61423 14.4397 5.67126C14.4397 5.70305 14.4559 5.73484 14.4814 5.82756C14.6695 5.83551 14.879 5.85405 15.0872 5.85405C23.8017 5.85538 32.5161 5.85008 41.2292 5.8673C41.8015 5.8673 42.4222 5.94015 42.9353 6.16666C44.1497 6.70444 44.7193 7.71776 44.7207 9.02646C44.7247 13.489 44.722 17.9503 44.722 22.4128C44.722 25.0408 44.722 27.6688 44.722 30.2955V30.9101L44.7234 30.9114ZM8.0426 10.9763V30.8743H43.2134V30.2968C43.2134 23.3056 43.2134 16.3144 43.2134 9.32184C43.2134 7.88598 42.668 7.34422 41.2145 7.34422C32.5 7.34422 23.7842 7.34422 15.0698 7.34422C14.875 7.34422 14.6789 7.34422 14.4196 7.34422C14.5351 9.01851 14.4182 10.5405 12.4301 11.0226C12.4301 11.3935 12.4301 11.7233 12.4301 12.0532C12.4327 12.5393 12.2527 12.9261 11.7893 13.1393C11.3419 13.346 10.9443 13.2241 10.5762 12.934C9.92198 12.4174 9.26373 11.9061 8.60682 11.3948C8.44427 11.2677 8.275 11.1485 8.04126 10.9763H8.0426ZM25.6542 32.3989C18.9024 32.3989 12.1493 32.3989 5.3975 32.3989C4.83463 32.3989 4.70029 32.5023 4.73791 33.0506C4.75671 33.3089 4.86553 33.6123 5.03882 33.8004C5.77365 34.5925 6.55817 35.3396 7.30509 36.1197C7.57914 36.4058 7.87199 36.5131 8.27366 36.5118C13.4671 36.4986 18.6619 36.5039 23.8554 36.5039C30.2391 36.5039 36.6228 36.5052 43.0065 36.4972C43.2255 36.4972 43.513 36.4708 43.6513 36.337C44.5527 35.4733 45.4541 34.6057 46.2763 33.6719C46.4751 33.4454 46.4267 32.9579 46.3797 32.6056C46.3663 32.5089 45.9445 32.4082 45.7094 32.4069C39.0248 32.3963 32.3388 32.3989 25.6542 32.3989ZM10.9228 11.2955C10.9228 10.9273 10.9188 10.6703 10.9228 10.4133C10.9349 9.82386 11.1807 9.57749 11.7745 9.55232C12.6692 9.51523 12.9231 9.25561 12.9244 8.36548C12.9258 6.45012 12.9271 4.53475 12.9244 2.61939C12.9244 1.769 12.6436 1.49348 11.7785 1.49348C8.74787 1.49083 5.71722 1.49083 2.68792 1.49348C1.78518 1.49348 1.51919 1.75443 1.51785 2.64323C1.51516 4.5586 1.51516 6.47396 1.51785 8.38933C1.51919 9.26886 1.80398 9.551 2.68792 9.551C4.51222 9.55365 6.33786 9.53775 8.16216 9.56557C8.46845 9.57087 8.81235 9.70333 9.06759 9.87817C9.67883 10.2967 10.2484 10.7736 10.9228 11.2955Z" fill="url(#paint0_linear_5624_6928)"/>
<path d="M26.0821 16.5584C26.0726 12.321 29.5345 8.88234 33.8212 8.87307C38.1375 8.86379 41.6249 12.2958 41.6222 16.5504C41.6195 20.7759 38.1348 24.2198 33.8575 24.2212C29.5829 24.2238 26.0915 20.7825 26.0821 16.557V16.5584ZM33.8454 12.725C31.7094 12.7276 29.9751 14.4258 29.9644 16.5266C29.9536 18.6353 31.7229 20.3838 33.8588 20.3745C36.0096 20.3653 37.7439 18.6353 37.7304 16.512C37.7183 14.4072 35.9894 12.7223 33.844 12.725H33.8454ZM37.6821 11.6984C35.3809 9.68504 31.4972 9.98573 29.2793 12.3183C26.8276 14.8973 27.3435 18.5863 28.926 20.2725C29.1234 20.0871 29.3196 19.9003 29.5144 19.7189C27.866 17.3545 28.3322 14.7649 29.7266 13.1277C30.4708 12.2548 31.4085 11.6627 32.5316 11.3938C34.1839 10.9977 35.7127 11.3275 37.0802 12.2707C37.3005 12.0627 37.4806 11.8918 37.6834 11.6998L37.6821 11.6984ZM38.167 13.333C39.5923 15.553 39.591 17.1823 38.257 19.6447C38.4438 19.8844 38.6117 20.099 38.7809 20.3149C40.7194 17.9929 40.3849 14.5013 38.7474 12.7819C38.5579 12.9621 38.3685 13.1409 38.167 13.333ZM30.0047 21.3865C32.1998 23.1615 35.7275 23.1456 37.623 21.4369C37.4483 21.2276 37.2737 21.017 37.1044 20.813C34.904 22.221 32.7586 22.2038 30.5958 20.8077C30.401 20.9984 30.2156 21.1812 30.006 21.3865H30.0047Z" fill="url(#paint1_linear_5624_6928)"/>
<path d="M20.6928 19.607C22.6649 20.3316 24.1278 21.48 25.1837 23.1251C26.288 24.8471 26.5593 26.7479 26.4398 28.7335C26.4156 29.1348 26.1671 29.3587 25.7654 29.4064C25.6163 29.4236 25.4645 29.417 25.314 29.417C20.4564 29.417 15.5974 29.417 10.7398 29.417C9.7833 29.417 9.63285 29.2355 9.59523 28.2897C9.50926 26.1187 10.013 24.1305 11.3873 22.3966C12.4002 21.1184 13.6925 20.2123 15.2871 19.6401C14.1976 18.6997 13.4453 17.587 12.9926 16.2809C12.0133 13.449 13.0786 10.5958 15.6297 9.40099C17.6514 8.45391 19.6316 8.6314 21.3873 10.013C23.2157 11.4528 23.7584 13.3893 23.2493 15.6107C22.9121 17.0797 22.1719 18.3407 21.0528 19.3739C20.9682 19.452 20.8581 19.5024 20.6942 19.607H20.6928ZM24.8935 27.9029C24.9137 27.8314 24.9379 27.7864 24.9379 27.7413C24.9446 24.9504 23.71 22.8695 21.2651 21.4694C20.9763 21.3038 20.8272 21.4164 20.6216 21.5979C19.1372 22.9105 16.9179 22.9238 15.4483 21.6018C15.1554 21.3396 14.962 21.3687 14.6705 21.5343C12.9805 22.5012 11.8387 23.8987 11.351 25.765C11.171 26.4499 11.1455 27.1744 11.0461 27.9029H24.8935ZM21.9126 14.5047C21.926 12.2595 20.451 10.5719 18.5595 10.364C16.4894 10.1361 14.6987 11.3548 14.2352 13.3059C13.8148 15.0729 14.8223 17.5035 16.4357 18.6162C17.509 19.3567 18.5985 19.3725 19.641 18.591C21.1039 17.4943 21.793 15.9856 21.9126 14.5047ZM19.7283 20.3104C18.5837 20.7832 17.4486 20.774 16.2516 20.2441C17.1477 21.3462 18.7852 21.3568 19.7283 20.3104Z" fill="url(#paint2_linear_5624_6928)"/>
<path d="M33.8125 26.9689C32.3065 26.9689 30.8006 26.9689 29.2947 26.9676C29.1107 26.9676 28.9239 26.9702 28.7453 26.9331C28.3664 26.855 28.1206 26.5729 28.1864 26.2285C28.2361 25.9715 28.4941 25.7304 28.7103 25.537C28.8098 25.4496 29.0314 25.4827 29.1966 25.4827C32.2918 25.4801 35.3869 25.4801 38.482 25.4827C38.615 25.4827 38.752 25.4801 38.8824 25.5026C39.3069 25.5728 39.5379 25.8298 39.5245 26.2523C39.5124 26.6497 39.2867 26.9 38.8783 26.9464C38.6298 26.9742 38.3772 26.9689 38.1274 26.9689C36.6886 26.9702 35.2499 26.9689 33.8111 26.9689H33.8125Z" fill="url(#paint3_linear_5624_6928)"/>
<path d="M33.7686 29.4467C33.0002 29.4467 32.2318 29.456 31.4634 29.4441C30.9153 29.4361 30.5795 29.1421 30.5781 28.7076C30.5768 28.2718 30.9153 27.9671 31.458 27.9645C33.0284 27.9552 34.5988 27.9539 36.1706 27.9645C36.7214 27.9685 37.033 28.2691 37.0196 28.7261C37.0075 29.1606 36.7079 29.4321 36.176 29.4427C35.374 29.4573 34.572 29.4467 33.77 29.4467H33.7686Z" fill="url(#paint4_linear_5624_6928)"/>
<path d="M7.23493 4.2167C6.07963 4.2167 4.92433 4.21935 3.76903 4.2167C3.17794 4.21405 2.83135 3.94383 2.82061 3.4895C2.80852 3.01926 3.16854 2.7305 3.78649 2.7305C6.08097 2.72785 8.3741 2.72785 10.6686 2.7305C11.257 2.7305 11.6076 3.00469 11.6183 3.45638C11.6304 3.92396 11.2677 4.21405 10.6511 4.21537C9.51194 4.21935 8.3741 4.21537 7.23493 4.21537V4.2167Z" fill="url(#paint5_linear_5624_6928)"/>
<path d="M7.31577 4.77594C8.43614 4.77594 9.55651 4.77197 10.6769 4.77727C11.2666 4.77992 11.6146 5.05808 11.6199 5.5058C11.6253 5.95483 11.2707 6.25817 10.6943 6.25949C8.42002 6.26479 6.14569 6.26479 3.87137 6.25949C3.28163 6.25817 2.94041 5.97603 2.93369 5.52169C2.92698 5.06338 3.26282 4.78124 3.8539 4.77727C5.00786 4.77065 6.16181 4.77462 7.31577 4.77462V4.77594Z" fill="url(#paint6_linear_5624_6928)"/>
<path d="M7.21754 8.29645C6.09717 8.29645 4.9768 8.30042 3.85643 8.29512C3.26535 8.29247 2.93219 8.01431 2.93756 7.5507C2.94294 7.09636 3.28818 6.8129 3.87255 6.81157C6.14688 6.8076 8.42121 6.8076 10.6955 6.81157C11.2678 6.81157 11.6251 7.11756 11.6198 7.56659C11.6144 8.01828 11.2678 8.29247 10.6781 8.29512C9.52411 8.30042 8.37016 8.29645 7.2162 8.29645H7.21754Z" fill="url(#paint7_linear_5624_6928)"/>
</g>
<defs>
<linearGradient id="paint0_linear_5624_6928" x1="6.3299" y1="7.30807" x2="45.8604" y2="7.55216" gradientUnits="userSpaceOnUse">
<stop stop-color="#F8BF3B"/>
<stop offset="0.305" stop-color="#FF8B13"/>
<stop offset="1" stop-color="#EF5F3D"/>
</linearGradient>
<linearGradient id="paint1_linear_5624_6928" x1="28.1314" y1="11.8246" x2="40.9299" y2="11.888" gradientUnits="userSpaceOnUse">
<stop stop-color="#F8BF3B"/>
<stop offset="0.305" stop-color="#FF8B13"/>
<stop offset="1" stop-color="#EF5F3D"/>
</linearGradient>
<linearGradient id="paint2_linear_5624_6928" x1="11.812" y1="12.772" x2="25.7139" y2="12.8276" gradientUnits="userSpaceOnUse">
<stop stop-color="#F8BF3B"/>
<stop offset="0.305" stop-color="#FF8B13"/>
<stop offset="1" stop-color="#EF5F3D"/>
</linearGradient>
<linearGradient id="paint3_linear_5624_6928" x1="29.6725" y1="25.7637" x2="39.0068" y2="26.1106" gradientUnits="userSpaceOnUse">
<stop stop-color="#F8BF3B"/>
<stop offset="0.305" stop-color="#FF8B13"/>
<stop offset="1" stop-color="#EF5F3D"/>
</linearGradient>
<linearGradient id="paint4_linear_5624_6928" x1="31.4276" y1="28.2442" x2="36.7308" y2="28.3561" gradientUnits="userSpaceOnUse">
<stop stop-color="#F8BF3B"/>
<stop offset="0.305" stop-color="#FF8B13"/>
<stop offset="1" stop-color="#EF5F3D"/>
</linearGradient>
<linearGradient id="paint5_linear_5624_6928" x1="3.98059" y1="3.01493" x2="11.2208" y2="3.22402" gradientUnits="userSpaceOnUse">
<stop stop-color="#F8BF3B"/>
<stop offset="0.305" stop-color="#FF8B13"/>
<stop offset="1" stop-color="#EF5F3D"/>
</linearGradient>
<linearGradient id="paint6_linear_5624_6928" x1="4.07911" y1="5.05998" x2="11.2274" y2="5.2637" gradientUnits="userSpaceOnUse">
<stop stop-color="#F8BF3B"/>
<stop offset="0.305" stop-color="#FF8B13"/>
<stop offset="1" stop-color="#EF5F3D"/>
</linearGradient>
<linearGradient id="paint7_linear_5624_6928" x1="4.08248" y1="7.09499" x2="11.2274" y2="7.29862" gradientUnits="userSpaceOnUse">
<stop stop-color="#F8BF3B"/>
<stop offset="0.305" stop-color="#FF8B13"/>
<stop offset="1" stop-color="#EF5F3D"/>
</linearGradient>
<clipPath id="clip0_5624_6928">
<rect width="48" height="38" fill="white"/>
</clipPath>
</defs>
</svg>
