<svg width="65" height="31" viewBox="0 0 65 31" fill="none" xmlns="http://www.w3.org/2000/svg">
<g clip-path="url(#clip0_6160_15292)">
<path d="M52.146 16.3292C52.4868 16.2154 52.823 16.0968 53.154 15.9834L53.4407 14.6243C53.1243 15.2964 52.6849 15.87 52.1463 16.3295L52.146 16.3292ZM64.315 10.1211L64.2013 10.141L63.8061 10.2101C62.818 10.462 60.7971 10.9861 58.238 11.6483L58.2132 11.7572L57.6698 14.3274C61.8843 12.6717 64.6907 11.2087 64.5522 10.4969C64.5274 10.3636 64.4483 10.2348 64.315 10.1211ZM54.6311 12.5873L54.6113 12.686L53.974 15.6962C54.9771 15.3452 55.9405 14.9945 56.8446 14.6484L57.4128 11.9645L57.4375 11.8556C56.5481 12.088 55.6095 12.3301 54.6311 12.587V12.5873ZM44.2211 15.385C43.9839 15.4492 43.7467 15.5085 43.5144 15.5727C42.8573 16.8233 41.2466 17.6188 39.1566 17.6188C38.376 17.6188 37.6644 17.5148 37.0419 17.3125H37.037C37.022 17.3125 37.0122 17.3076 36.9976 17.3027H36.9927C35.4611 17.7326 34.2557 18.0885 33.534 18.3306C33.4747 18.3505 33.4203 18.3652 33.3712 18.3851C33.2724 18.4147 33.1835 18.4444 33.1092 18.474C33.0946 18.4789 33.0844 18.4838 33.0698 18.4887C33.0499 18.4936 33.0304 18.5037 33.0105 18.5135C32.9906 18.5184 32.976 18.5232 32.961 18.5334C32.9264 18.5431 32.9017 18.5581 32.8769 18.5679C32.8225 18.5927 32.7977 18.6122 32.7929 18.6272C32.788 18.6223 32.7782 18.6174 32.7583 18.6122C32.7384 18.6073 32.7088 18.6073 32.6694 18.6024C31.1131 18.4789 15.3769 19.7888 6.29086 20.5648C6.05369 20.5847 5.82139 20.6042 5.59433 20.6241C4.04289 20.7574 2.71888 20.8712 1.74051 20.9553L0.204078 21.2222L0.0952544 21.2421C0.0111953 21.3904 -0.0184521 21.5387 0.0111953 21.6719C0.149666 22.4085 2.46181 22.8583 5.94486 23.0509C6.16216 23.0656 6.38469 23.0757 6.61175 23.0854H6.61664C13.7216 23.4019 25.095 22.7445 33.2717 21.3258C37.7628 20.5498 43.1335 19.1611 48.1432 17.6188C46.3103 17.5396 44.8921 16.6945 44.2204 15.3846L44.2211 15.385Z" fill="#743B19"/>
<path d="M6.4622 19.891C6.77995 22.3725 6.41337 25.1043 5.30839 27.3639C4.77509 28.4672 4.02728 29.4983 3.14518 30.3563C2.97043 30.5151 2.70116 30.7736 2.51421 30.9174L2.51247 30.9188C2.33877 31.0598 2.08066 31.0151 1.96416 30.8242L0.749668 28.8357C0.635612 28.649 0.707464 28.4037 0.905229 28.3095C0.970105 28.2785 1.03219 28.2474 1.08556 28.2171L1.35727 28.0712C1.48388 27.9972 1.62653 27.9048 1.75349 27.828C2.88707 27.0823 3.80579 26.0471 4.49257 24.8726C4.90065 24.1765 5.23096 23.4371 5.49534 22.6705C5.76531 21.8778 5.97738 21.0484 6.09213 20.2134C6.11655 20.0354 6.26304 19.8997 6.44232 19.8917L6.4622 19.8906V19.891Z" fill="#743B19"/>
<path d="M4.65245 18.8125C6.10518 20.4158 7.25794 22.3778 7.7745 24.4948C8.034 25.575 8.1069 26.7087 7.94122 27.8127C7.85228 28.4205 7.69184 29.0137 7.46896 29.5873C7.38769 29.796 7.13935 29.8825 6.94402 29.773L5.28726 28.841C5.1017 28.7367 5.04171 28.4969 5.15785 28.3186C5.95554 27.0918 6.22202 25.5796 6.07623 24.0813C6.03646 23.6476 5.9667 23.2149 5.87183 22.7871C5.67825 21.9134 5.38213 21.055 5.01415 20.2326C4.87045 19.9141 4.71524 19.5955 4.54537 19.2881C4.45818 19.13 4.50003 18.9318 4.64199 18.8205L4.65245 18.8125Z" fill="#FF8B13"/>
<path d="M37.0397 17.3097C35.4883 17.7396 34.263 18.0955 33.5368 18.3279C33.4775 18.3478 33.4231 18.3624 33.3736 18.3823C33.2745 18.412 33.1856 18.4416 33.1116 18.4713C33.097 18.4762 33.0868 18.481 33.0722 18.4863C33.0523 18.4912 33.0328 18.5009 33.0129 18.511C32.993 18.5159 32.978 18.5208 32.9634 18.5309C32.9288 18.5407 32.9041 18.5557 32.8793 18.5655C32.8249 18.5903 32.8001 18.6101 32.7953 18.6248C32.79 18.6199 32.7803 18.615 32.7604 18.6101C32.7405 18.6053 32.7108 18.6053 32.6714 18.6004C31.1151 18.4915 15.364 19.8558 6.28803 20.6664C6.07039 20.6863 5.85797 20.7009 5.65079 20.7208C4.08436 20.8593 2.75057 20.9828 1.76244 21.0718L0.117188 21.3586C0.146835 21.314 0.171599 21.2648 0.20613 21.2201C0.209618 21.2169 0.212989 21.2136 0.216245 21.2103C0.221128 21.2055 0.230894 21.1953 0.236126 21.1856C0.255658 21.1657 0.270656 21.1461 0.290538 21.1263V21.1214L1.19461 20.4144L6.65915 16.4356C7.51858 17.1918 8.80806 17.6171 10.3891 17.6171C13.1411 17.6171 15.063 16.2333 15.063 14.251C15.063 14.1966 15.063 14.1421 15.0581 14.0929C15.3197 16.2036 17.1428 17.6269 19.6726 17.6269C21.9157 17.6269 23.7388 16.5246 24.653 14.6662L24.0698 17.4095H28.2644L29.4008 12.0517C29.623 11.8985 29.895 11.8047 30.1566 11.8047C30.3743 11.8047 30.5421 11.8542 30.6062 11.9331C30.6704 12.0074 30.6802 12.1801 30.6408 12.378L29.5637 17.4095H33.7583L34.3463 14.6467C34.6526 15.922 35.6013 16.8512 36.9947 17.301H36.9996C37.0143 17.3059 37.0244 17.3107 37.039 17.3107L37.0397 17.3097Z" fill="#FF8B13"/>
<path d="M64.3004 10.2113C64.2955 10.2064 64.2907 10.2016 64.2806 10.1967C64.2558 10.1768 64.2261 10.1572 64.2014 10.1422C64.1668 10.1224 64.1323 10.1028 64.0978 10.0829L64.0929 10.078L62.9911 9.72213L49.4931 5.8323L43.8458 4.20631L29.2359 0L17.2151 8.75351L14.957 10.3994C15.1893 10.7602 15.3522 11.1656 15.4314 11.6102C16.2615 9.68759 18.213 8.45692 20.5845 8.45692C23.1833 8.45692 25.0312 9.94475 25.199 12.1046L25.9304 8.67431H30.1055L30.0908 8.73362C30.5306 8.58533 30.9998 8.50612 31.479 8.50612C32.6154 8.50612 33.5836 8.93112 34.2111 9.70224C34.5571 10.1321 34.7695 10.6363 34.8483 11.1852C35.1842 9.55918 36.9233 8.46669 39.3 8.46669C42.0024 8.46669 43.8503 9.6677 44.2012 11.6151C45.0265 9.68759 46.9829 8.45658 49.3543 8.45658C51.9629 8.45658 53.8206 9.95417 53.9688 12.1339L54.6999 8.67396H58.8648L58.2374 11.6493L58.2126 11.7581C60.7965 11.1007 62.8372 10.5819 63.8303 10.3296L64.3391 10.2406C64.3242 10.2309 64.3144 10.2207 64.2997 10.211L64.3004 10.2113Z" fill="#FF8B13"/>
<path d="M14.3243 14.2536C14.3243 15.9933 12.3728 16.8782 10.3867 16.8782C9.13667 16.8782 8.03483 16.5816 7.27411 15.9835C6.74953 15.5718 6.38888 15.0118 6.25808 14.3101C6.22843 14.151 6.36097 14.0065 6.52281 14.0065H8.45547C8.57999 14.0065 8.67696 14.099 8.70591 14.2204C8.75439 14.4256 8.84612 14.6046 8.96855 14.7529C9.28979 15.1482 9.84297 15.346 10.4359 15.346C11.1373 15.346 11.7599 15.1238 11.7599 14.6541C11.7599 14.234 11.0585 14.0609 10.1792 13.8732C10.1398 13.8635 10.1 13.8586 10.0606 13.8484C8.61801 13.5616 6.76034 13.211 6.76034 11.7675C6.76034 10.0671 8.57825 9.20703 10.5301 9.20703C12.2151 9.20703 13.6773 9.736 14.3543 10.833C14.5112 11.0794 14.6256 11.3571 14.6915 11.6656C14.7257 11.8261 14.5914 11.9747 14.4272 11.9747H12.5109C12.3916 11.9747 12.2946 11.8924 12.2556 11.7797C12.0201 11.0968 11.3477 10.7688 10.5008 10.7688C9.8782 10.7688 9.30513 10.9911 9.30513 11.3917C9.30513 11.8365 10.1499 12.0044 11.138 12.1973C11.4739 12.2664 11.8248 12.3359 12.1656 12.4248C13.2918 12.7116 14.3246 13.1761 14.3246 14.2536H14.3243Z" fill="white"/>
<path d="M12.1649 12.4209C11.8241 12.3319 11.4732 12.2629 11.1373 12.1934C10.1492 12.0008 9.30444 11.8326 9.30444 11.3878C9.30444 10.9875 9.8775 10.7649 10.5001 10.7649C11.347 10.7649 12.0194 11.0929 12.2552 11.7758C12.2943 11.8885 12.3913 11.9708 12.5105 11.9708H14.4268C14.5911 11.9708 14.7254 11.8222 14.6912 11.6617C14.6253 11.3532 14.5109 11.0755 14.3543 10.8291C13.6773 9.73175 12.2151 9.20312 10.5301 9.20312C8.5786 9.20312 6.76034 10.0632 6.76034 11.7635C6.76034 13.2067 8.61801 13.5577 10.0606 13.8445C10.1 13.8543 10.1398 13.8592 10.1792 13.8693C11.0585 14.057 11.7603 14.2301 11.7603 14.6502C11.7603 15.1199 11.1377 15.3421 10.4363 15.3421C9.84332 15.3421 9.29014 15.1443 8.9689 14.749C8.84647 14.6007 8.75474 14.422 8.70626 14.2165C8.67766 14.0951 8.58069 14.0026 8.45582 14.0026H6.52281C6.36097 14.0026 6.22843 14.1471 6.25808 14.3062C6.38888 15.0079 6.74988 15.5679 7.27411 15.9796C8.03483 16.5777 9.13667 16.8743 10.3867 16.8743C12.3728 16.8743 14.3246 15.9894 14.3246 14.2496C14.3246 13.1722 13.2922 12.7074 12.1656 12.4209H12.1649Z" fill="white"/>
<path d="M24.1411 13.3524C24.2702 13.3524 24.3828 13.26 24.4041 13.1326C24.4442 12.8939 24.4676 12.6692 24.4676 12.418C24.4676 10.4556 22.8666 9.19531 20.5841 9.19531C18.1782 9.19531 16.2807 10.584 15.8409 12.769C15.7865 13.0408 15.7617 13.3126 15.7617 13.5597C15.7617 15.5517 17.3229 16.886 19.6699 16.886C21.6145 16.886 23.1847 15.9788 23.9849 14.3423C24.0731 14.1619 23.9475 13.9501 23.7466 13.9501H21.7979C21.6985 13.9501 21.6099 14.0098 21.5635 14.0974C21.1701 14.8392 20.5719 15.171 19.8429 15.171C18.8796 15.171 18.2964 14.6274 18.2964 13.6389C18.2964 13.5499 18.2964 13.4463 18.3062 13.3521H24.1408L24.1411 13.3524ZM20.4509 10.8565C21.191 10.8565 21.7917 11.2254 21.9692 11.8231C22.0187 11.9899 21.882 12.1566 21.7079 12.1566H19.0899C18.8764 12.1566 18.7453 11.9134 18.8653 11.7372C19.2667 11.1483 19.8402 10.8565 20.4505 10.8565H20.4509Z" fill="white"/>
<path d="M24.1411 13.3524C24.2702 13.3524 24.3828 13.26 24.4041 13.1326C24.4442 12.8939 24.4676 12.6692 24.4676 12.418C24.4676 10.4556 22.8666 9.19531 20.5841 9.19531C18.1782 9.19531 16.2807 10.584 15.8409 12.769C15.7865 13.0408 15.7617 13.3126 15.7617 13.5597C15.7617 15.5517 17.3229 16.886 19.6699 16.886C21.6145 16.886 23.1847 15.9788 23.9849 14.3423C24.0731 14.1619 23.9475 13.9501 23.7466 13.9501H21.7979C21.6985 13.9501 21.6099 14.0098 21.5635 14.0974C21.1701 14.8392 20.5719 15.171 19.8429 15.171C18.8796 15.171 18.2964 14.6274 18.2964 13.6389C18.2964 13.5499 18.2964 13.4463 18.3062 13.3521H24.1408L24.1411 13.3524ZM20.4509 10.8565C21.191 10.8565 21.7917 11.2254 21.9692 11.8231C22.0187 11.9899 21.882 12.1566 21.7079 12.1566H19.0899C18.8764 12.1566 18.7453 11.9134 18.8653 11.7372C19.2667 11.1483 19.8402 10.8565 20.4505 10.8565H20.4509Z" fill="white"/>
<path d="M34.0793 12.3117L33.2048 16.4541C33.1787 16.5777 33.0699 16.6663 32.9436 16.6663H30.8128C30.6426 16.6663 30.516 16.5096 30.5516 16.3432L31.3667 12.5343C31.5446 11.6348 31.0901 11.0615 30.156 11.0615C29.6444 11.0615 29.1501 11.2719 28.7933 11.5894C28.7501 11.6278 28.7218 11.6805 28.71 11.737L27.7061 16.4548C27.68 16.5784 27.5708 16.6663 27.4449 16.6663H25.3179C25.1481 16.6663 25.0215 16.5096 25.0567 16.3435L26.4847 9.62217C26.5108 9.49865 26.62 9.41037 26.7459 9.41037H28.8683C29.0382 9.41037 29.1648 9.56669 29.1295 9.73278L29.0246 10.2307C29.6869 9.60786 30.5317 9.24219 31.4801 9.24219C33.3276 9.24219 34.4445 10.5964 34.0789 12.3117H34.0793Z" fill="white"/>
<path d="M31.4762 9.24644C30.5274 9.24644 29.6827 9.61212 29.0207 10.235L29.1256 9.73668C29.1605 9.57059 29.0339 9.41428 28.8644 9.41428H26.742C26.6157 9.41428 26.5069 9.50256 26.4807 9.62607L25.0528 16.3474C25.0176 16.5135 25.1442 16.6702 25.314 16.6702H27.441C27.5672 16.6702 27.6761 16.5819 27.7022 16.4587L28.7057 11.7409C28.7179 11.6844 28.7458 11.6317 28.7891 11.5933C29.1462 11.2758 29.6405 11.0654 30.1521 11.0654C31.0859 11.0654 31.5403 11.6387 31.3625 12.5382L30.5473 16.3471C30.5117 16.5135 30.6384 16.6702 30.8086 16.6702H32.9393C33.0656 16.6702 33.1748 16.5819 33.2006 16.458L34.075 12.3156C34.4406 10.6006 33.3241 9.24609 31.4762 9.24609V9.24644Z" fill="white"/>
<path d="M43.0945 14.25C43.0945 14.8875 42.8325 15.4116 42.4025 15.8167C42.3777 15.8414 42.3533 15.8613 42.3285 15.8858C41.5776 16.5431 40.377 16.8743 39.1566 16.8743C38.9986 16.8743 38.8403 16.8694 38.6871 16.8593C38.6575 16.8593 38.6327 16.8544 38.6031 16.8495H38.5982C36.7527 16.7148 35.3188 15.8711 35.0276 14.3069C34.998 14.1474 35.1308 14.0026 35.293 14.0026H37.225C37.3499 14.0026 37.4475 14.0951 37.4761 14.2168C37.6537 14.9681 38.3865 15.3421 39.2107 15.3421C39.9121 15.3421 40.535 15.1199 40.535 14.6502C40.535 14.2102 39.7691 14.0424 38.8305 13.8445C37.3879 13.5577 35.5299 13.2071 35.5299 11.7635C35.5299 10.0632 37.3534 9.20312 39.3 9.20312C41.3571 9.20312 43.084 9.99414 43.4541 11.6334C43.4928 11.8047 43.3704 11.9708 43.1946 11.9708H41.2808C41.1615 11.9708 41.0645 11.8885 41.0254 11.7758C40.7897 11.0929 40.1175 10.7649 39.2752 10.7649C38.6481 10.7649 38.0795 10.9872 38.0795 11.3878C38.0795 11.8326 38.9243 12.0005 39.9124 12.1934C41.3404 12.4802 43.0945 12.8459 43.0945 14.2496V14.25Z" fill="white"/>
<path d="M49.3537 9.19531C46.9477 9.19531 45.0503 10.584 44.6104 12.769C44.5609 13.0408 44.5312 13.3126 44.5312 13.5597C44.5312 14.1529 44.6697 14.6867 44.9264 15.1414C44.9313 15.1613 44.9414 15.1759 44.9512 15.1909C45.5637 16.2436 46.8138 16.8863 48.4444 16.8863C50.3847 16.8863 51.9584 15.9791 52.7551 14.3423C52.843 14.1619 52.7174 13.9505 52.5169 13.9505H50.5671C50.4677 13.9505 50.3791 14.0101 50.3327 14.0981C49.94 14.8395 49.346 15.1714 48.6121 15.1714C48.0192 15.1714 47.5696 14.9638 47.3076 14.5733C47.2979 14.5587 47.2878 14.5388 47.2731 14.5189C47.1399 14.2865 47.0656 13.9899 47.0656 13.6392C47.0656 13.5503 47.0656 13.4466 47.0806 13.3524H53.1328C53.1527 13.2484 53.1722 13.1497 53.1872 13.0509C53.1921 13.0213 53.197 12.9916 53.197 12.962C53.2218 12.784 53.2364 12.6061 53.2364 12.4183C53.2364 10.456 51.6407 9.19566 49.353 9.19566L49.3537 9.19531ZM47.8601 12.156C47.6467 12.156 47.5152 11.9124 47.6359 11.7362C48.0384 11.1476 48.6153 10.8559 49.2253 10.8559C49.9651 10.8559 50.5619 11.2243 50.7419 11.8213C50.7921 11.9885 50.6554 12.1556 50.481 12.1556H47.8601V12.156Z" fill="white"/>
<path d="M49.3537 9.19531C46.9477 9.19531 45.0503 10.584 44.6104 12.769C44.5609 13.0408 44.5312 13.3126 44.5312 13.5597C44.5312 14.1529 44.6697 14.6867 44.9264 15.1414C44.9313 15.1613 44.9414 15.1759 44.9512 15.1909C45.5637 16.2436 46.8138 16.8863 48.4444 16.8863C50.3847 16.8863 51.9584 15.9791 52.7551 14.3423C52.843 14.1619 52.7174 13.9505 52.5169 13.9505H50.5671C50.4677 13.9505 50.3791 14.0101 50.3327 14.0981C49.94 14.8395 49.346 15.1714 48.6121 15.1714C48.0192 15.1714 47.5696 14.9638 47.3076 14.5733C47.2979 14.5587 47.2878 14.5388 47.2731 14.5189C47.1399 14.2865 47.0656 13.9899 47.0656 13.6392C47.0656 13.5503 47.0656 13.4466 47.0806 13.3524H53.1328C53.1527 13.2484 53.1722 13.1497 53.1872 13.0509C53.1921 13.0213 53.197 12.9916 53.197 12.962C53.2218 12.784 53.2364 12.6061 53.2364 12.4183C53.2364 10.456 51.6407 9.19566 49.353 9.19566L49.3537 9.19531ZM47.8601 12.156C47.6467 12.156 47.5152 11.9124 47.6359 11.7362C48.0384 11.1476 48.6153 10.8559 49.2253 10.8559C49.9651 10.8559 50.5619 11.2243 50.7419 11.8213C50.7921 11.9885 50.6554 12.1556 50.481 12.1556H47.8601V12.156Z" fill="white"/>
<path d="M57.621 9.41406C57.7905 9.41406 57.9175 9.57038 57.8822 9.73647L57.4361 11.8558L57.4114 11.9647L56.8432 14.6487L56.463 16.4578C56.4368 16.5814 56.328 16.67 56.2017 16.67H54.0954C53.9255 16.67 53.7986 16.5133 53.8341 16.3469L53.973 15.6961L54.6102 12.6859L54.6301 12.5872L55.2572 9.62586C55.2834 9.50234 55.3922 9.41406 55.5185 9.41406H57.621Z" fill="white"/>
<path d="M57.621 9.41406C57.7905 9.41406 57.9175 9.57038 57.8822 9.73647L57.4361 11.8558L57.4114 11.9647L56.8432 14.6487L56.463 16.4578C56.4368 16.5814 56.328 16.67 56.2017 16.67H54.0954C53.9255 16.67 53.7986 16.5133 53.8341 16.3469L53.973 15.6961L54.6102 12.6859L54.6301 12.5872L55.2572 9.62586C55.2834 9.50234 55.3922 9.41406 55.5185 9.41406H57.621Z" fill="white"/>
</g>
<defs>
<clipPath id="clip0_6160_15292">
<rect width="64.5567" height="31" fill="white"/>
</clipPath>
</defs>
</svg>
