<svg width="113" height="55" viewBox="0 0 113 55" fill="none" xmlns="http://www.w3.org/2000/svg">
<g clip-path="url(#clip0_2704_2610)">
<path d="M90.8714 28.9469C91.4653 28.7488 92.0512 28.5421 92.6281 28.3446L93.1277 25.9772C92.5764 27.1478 91.8105 28.147 90.872 28.9475L90.8714 28.9469ZM112.078 18.1328L111.88 18.1675L111.191 18.2878C109.469 18.7266 105.947 19.6396 101.488 20.7932L101.445 20.9828L100.498 25.4599C107.842 22.5759 112.732 20.0273 112.491 18.7874C112.448 18.5552 112.31 18.331 112.078 18.1328ZM95.2022 22.4288L95.1675 22.6008L94.057 27.8444C95.8052 27.2329 97.484 26.6221 99.0595 26.0191L100.05 21.3439L100.093 21.1542C98.5428 21.559 96.9071 21.9808 95.2022 22.4282V22.4288ZM77.061 27.3022C76.6477 27.414 76.2344 27.5174 75.8296 27.6292C74.6844 29.8076 71.8775 31.1934 68.2354 31.1934C66.8751 31.1934 65.6351 31.0122 64.5502 30.6597H64.5416C64.5155 30.6597 64.4985 30.6512 64.473 30.6427H64.4645C61.7955 31.3915 59.6948 32.0115 58.4373 32.4333C58.3339 32.4679 58.2391 32.4935 58.1534 32.5281C57.9814 32.5798 57.8264 32.6314 57.6969 32.6831C57.6714 32.6916 57.6538 32.7001 57.6282 32.7086C57.5936 32.7171 57.5596 32.7348 57.5249 32.7518C57.4903 32.7603 57.4647 32.7688 57.4386 32.7864C57.3784 32.8034 57.3353 32.8296 57.2921 32.8466C57.1973 32.8898 57.1541 32.9238 57.1456 32.9499C57.1371 32.9414 57.1201 32.9329 57.0855 32.9238C57.0508 32.9153 56.9991 32.9153 56.9305 32.9068C54.2183 32.6916 26.7957 34.9733 10.9618 36.3251C10.5485 36.3597 10.1437 36.3938 9.748 36.4284C7.04439 36.6606 4.73708 36.8587 3.03213 37.0052L0.35466 37.4702L0.165019 37.5048C0.0185329 37.7632 -0.0331322 38.0215 0.0185329 38.2537C0.25984 39.5367 4.28911 40.3202 10.3589 40.6557C10.7375 40.6812 11.1253 40.6989 11.521 40.7159H11.5295C23.9109 41.2672 43.7309 40.122 57.9802 37.6507C65.8065 36.2989 75.1658 33.8799 83.896 31.1934C80.7019 31.0554 78.2305 29.5833 77.0598 27.3016L77.061 27.3022Z" fill="#743B19"/>
<path d="M11.2606 35.1471C11.8144 39.4698 11.1755 44.2283 9.24994 48.1645C8.32057 50.0864 7.0174 51.8825 5.48021 53.377C5.17569 53.6536 4.70644 54.104 4.38065 54.3544L4.37761 54.3568C4.07491 54.6024 3.62512 54.5246 3.42211 54.1921L1.30566 50.7282C1.1069 50.403 1.23211 49.9758 1.57675 49.8117C1.68981 49.7576 1.798 49.7035 1.891 49.6506L2.36449 49.3965C2.58513 49.2677 2.83373 49.1066 3.05498 48.9729C5.03041 47.674 6.63143 45.8706 7.82824 43.8248C8.53939 42.6122 9.115 41.3242 9.57573 39.9889C10.0462 38.6079 10.4157 37.1632 10.6157 35.7087C10.6583 35.3987 10.9136 35.1623 11.226 35.1483L11.2606 35.1465V35.1471Z" fill="#743B19"/>
<path d="M8.10649 33.2715C10.6381 36.0644 12.647 39.4821 13.5471 43.1696C13.9994 45.0514 14.1264 47.0262 13.8377 48.9493C13.6827 50.0081 13.4031 51.0413 13.0147 52.0406C12.8731 52.404 12.4403 52.5548 12.0999 52.3639L9.21274 50.7405C8.88937 50.5587 8.78483 50.1412 8.98723 49.8306C10.3773 47.6935 10.8417 45.0593 10.5876 42.4494C10.5183 41.6939 10.3968 40.9402 10.2315 40.195C9.89411 38.6731 9.37806 37.1779 8.73681 35.7453C8.48638 35.1903 8.2159 34.6354 7.91989 34.0999C7.76793 33.8246 7.84087 33.4794 8.08826 33.2855L8.10649 33.2715Z" fill="#FF8B13"/>
<path d="M64.5424 30.6577C61.8388 31.4066 59.7035 32.0265 58.438 32.4313C58.3347 32.466 58.2399 32.4915 58.1536 32.5261C57.9809 32.5778 57.8259 32.6295 57.6971 32.6811C57.6716 32.6896 57.6539 32.6981 57.6284 32.7073C57.5938 32.7158 57.5597 32.7328 57.5251 32.7504C57.4904 32.7589 57.4643 32.7674 57.4388 32.7851C57.3786 32.8021 57.3354 32.8282 57.2923 32.8452C57.1975 32.8884 57.1543 32.923 57.1458 32.9486C57.1367 32.94 57.1196 32.9315 57.085 32.923C57.0504 32.9145 56.9987 32.9145 56.93 32.906C54.2179 32.7164 26.7691 35.0929 10.9529 36.5048C10.5736 36.5395 10.2034 36.565 9.84237 36.5997C7.11263 36.841 4.7883 37.0561 3.06633 37.2111L0.199219 37.7107C0.250884 37.6329 0.29404 37.5472 0.354214 37.4694C0.360293 37.4638 0.366168 37.4581 0.371841 37.4524C0.380351 37.4439 0.39737 37.4263 0.406487 37.4093C0.440526 37.3746 0.466662 37.3406 0.501308 37.3059V37.2974L2.07679 36.066L11.5996 29.1352C13.0973 30.4523 15.3444 31.1932 18.0997 31.1932C22.8954 31.1932 26.2445 28.7826 26.2445 25.3297C26.2445 25.2349 26.2445 25.1401 26.236 25.0544C26.6919 28.731 29.869 31.2102 34.2776 31.2102C38.1865 31.2102 41.3636 29.2902 42.9567 26.053L41.9404 30.8316H49.2501L51.2304 21.4987C51.6176 21.2319 52.0917 21.0684 52.5476 21.0684C52.9269 21.0684 53.2192 21.1547 53.3311 21.292C53.4429 21.4215 53.4599 21.7224 53.3912 22.067L51.5143 30.8316H58.824L59.8488 26.0189C60.3825 28.2405 62.0357 29.8591 64.464 30.6425H64.4725C64.498 30.651 64.5157 30.6596 64.5412 30.6596L64.5424 30.6577Z" fill="#FF8B13"/>
<path d="M112.053 18.2875C112.044 18.279 112.036 18.2705 112.018 18.2619C111.975 18.2273 111.923 18.1933 111.88 18.1671C111.82 18.1325 111.76 18.0984 111.7 18.0638L111.691 18.0553L109.771 17.4353L86.2489 10.6595L76.4076 7.82711L50.9476 0.5L29.9995 15.7481L26.0645 18.6151C26.4693 19.2436 26.7531 19.9498 26.8911 20.7242C28.3377 17.3752 31.7385 15.2314 35.8711 15.2314C40.4 15.2314 43.6203 17.8231 43.9126 21.5854L45.1873 15.6101H52.4629L52.4374 15.7134C53.2039 15.4551 54.0214 15.3171 54.8565 15.3171C56.8368 15.3171 58.5242 16.0574 59.6176 17.4007C60.2206 18.1495 60.5908 19.0278 60.7281 19.9839C61.3135 17.1515 64.3441 15.2484 68.4858 15.2484C73.1952 15.2484 76.4155 17.3405 77.027 20.7327C78.4651 17.3752 81.8744 15.2308 86.007 15.2308C90.5529 15.2308 93.7902 17.8395 94.0485 21.6365L95.3225 15.6095H102.581L101.487 20.7922L101.444 20.9819C105.947 19.8368 109.503 18.933 111.234 18.4935L112.12 18.3385C112.094 18.3215 112.077 18.3039 112.052 18.2869L112.053 18.2875Z" fill="#FF8B13"/>
<path d="M24.9623 25.3278C24.9623 28.3583 21.5615 29.8997 18.1005 29.8997C15.9221 29.8997 14.002 29.3831 12.6763 28.3413C11.7621 27.6241 11.1336 26.6486 10.9057 25.4263C10.854 25.1491 11.085 24.8975 11.367 24.8975H14.735C14.952 24.8975 15.121 25.0586 15.1714 25.2701C15.2559 25.6275 15.4158 25.9393 15.6291 26.1976C16.1889 26.8862 17.1529 27.2309 18.1862 27.2309C19.4086 27.2309 20.4935 26.8437 20.4935 26.0256C20.4935 25.2938 19.2712 24.9923 17.7389 24.6653C17.6702 24.6483 17.6009 24.6398 17.5322 24.6222C15.0183 24.1225 11.781 23.5117 11.781 20.9972C11.781 18.0354 14.949 16.5371 18.3504 16.5371C21.2868 16.5371 23.8348 17.4585 25.0146 19.3695C25.2881 19.7986 25.4874 20.2824 25.6023 20.8197C25.6619 21.0993 25.4279 21.3582 25.1416 21.3582H21.8022C21.5943 21.3582 21.4253 21.2148 21.3573 21.0185C20.947 19.829 19.7751 19.2577 18.2993 19.2577C17.2143 19.2577 16.2157 19.6448 16.2157 20.3426C16.2157 21.1175 17.6878 21.4099 19.4098 21.746C19.9951 21.8664 20.6066 21.9873 21.2005 22.1423C23.1631 22.6419 24.9629 23.4509 24.9629 25.3278H24.9623Z" fill="white"/>
<path d="M21.2002 22.1443C20.6064 21.9893 19.9949 21.8689 19.4096 21.748C17.6876 21.4125 16.2154 21.1195 16.2154 20.3445C16.2154 19.6474 17.2141 19.2596 18.2991 19.2596C19.7749 19.2596 20.9467 19.8309 21.3576 21.0204C21.4257 21.2167 21.5947 21.3602 21.8026 21.3602H25.142C25.4282 21.3602 25.6623 21.1013 25.6027 20.8217C25.4878 20.2844 25.2884 19.8006 25.0155 19.3714C23.8357 17.4599 21.2877 16.5391 18.3513 16.5391C14.9505 16.5391 11.782 18.0373 11.782 20.9991C11.782 23.513 15.0192 24.1245 17.5332 24.6241C17.6019 24.6411 17.6712 24.6496 17.7399 24.6673C19.2722 24.9943 20.4951 25.2957 20.4951 26.0275C20.4951 26.8456 19.4102 27.2328 18.1878 27.2328C17.1545 27.2328 16.1905 26.8882 15.6307 26.1995C15.4174 25.9412 15.2575 25.63 15.173 25.272C15.1232 25.0605 14.9542 24.8994 14.7366 24.8994H11.368C11.086 24.8994 10.855 25.1511 10.9067 25.4282C11.1346 26.6505 11.7637 27.6261 12.6773 28.3433C14.0029 29.3851 15.9231 29.9017 18.1015 29.9017C21.5625 29.9017 24.9639 28.3603 24.9639 25.3298C24.9639 23.4529 23.1647 22.6433 21.2014 22.1443H21.2002Z" fill="white"/>
<path d="M42.0702 23.7629C42.2951 23.7629 42.4914 23.6018 42.5285 23.38C42.5984 22.9642 42.6391 22.5728 42.6391 22.1352C42.6391 18.7169 39.8492 16.5215 35.8716 16.5215C31.6788 16.5215 28.3722 18.9406 27.6058 22.7466C27.5109 23.2201 27.4678 23.6936 27.4678 24.1239C27.4678 27.5939 30.1884 29.9182 34.2785 29.9182C37.6671 29.9182 40.4035 28.3379 41.7979 25.4872C41.9516 25.173 41.7328 24.8041 41.3827 24.8041H37.9868C37.8136 24.8041 37.6592 24.908 37.5783 25.0606C36.8927 26.3528 35.8503 26.9308 34.5799 26.9308C32.9011 26.9308 31.8848 25.9838 31.8848 24.2619C31.8848 24.1069 31.8848 23.9264 31.9019 23.7623H42.0696L42.0702 23.7629ZM35.6394 19.4153C36.9292 19.4153 37.9759 20.0577 38.2852 21.0989C38.3716 21.3894 38.1333 21.6799 37.83 21.6799H33.2676C32.8957 21.6799 32.6671 21.2563 32.8762 20.9494C33.5758 19.9234 34.5751 19.4153 35.6388 19.4153H35.6394Z" fill="white"/>
<path d="M42.0702 23.7629C42.2951 23.7629 42.4914 23.6018 42.5285 23.38C42.5984 22.9642 42.6391 22.5728 42.6391 22.1352C42.6391 18.7169 39.8492 16.5215 35.8716 16.5215C31.6788 16.5215 28.3722 18.9406 27.6058 22.7466C27.5109 23.2201 27.4678 23.6936 27.4678 24.1239C27.4678 27.5939 30.1884 29.9182 34.2785 29.9182C37.6671 29.9182 40.4035 28.3379 41.7979 25.4872C41.9516 25.173 41.7328 24.8041 41.3827 24.8041H37.9868C37.8136 24.8041 37.6592 24.908 37.5783 25.0606C36.8927 26.3528 35.8503 26.9308 34.5799 26.9308C32.9011 26.9308 31.8848 25.9838 31.8848 24.2619C31.8848 24.1069 31.8848 23.9264 31.9019 23.7623H42.0696L42.0702 23.7629ZM35.6394 19.4153C36.9292 19.4153 37.9759 20.0577 38.2852 21.0989C38.3716 21.3894 38.1333 21.6799 37.83 21.6799H33.2676C32.8957 21.6799 32.6671 21.2563 32.8762 20.9494C33.5758 19.9234 34.5751 19.4153 35.6388 19.4153H35.6394Z" fill="white"/>
<path d="M59.3849 21.9523L57.8611 29.1682C57.8155 29.3834 57.6259 29.5378 57.4058 29.5378H53.6926C53.396 29.5378 53.1754 29.2649 53.2374 28.9749L54.6578 22.3401C54.9678 20.7732 54.1758 19.7746 52.5481 19.7746C51.6564 19.7746 50.7951 20.1411 50.1733 20.6942C50.0979 20.761 50.0487 20.8528 50.028 20.9513L48.2787 29.1694C48.2331 29.3846 48.0429 29.5378 47.8235 29.5378H44.1169C43.8209 29.5378 43.6003 29.2649 43.6617 28.9756L46.1501 17.2674C46.1957 17.0522 46.3859 16.8984 46.6054 16.8984H50.304C50.6 16.8984 50.8206 17.1707 50.7592 17.46L50.5763 18.3274C51.7306 17.2425 53.2027 16.6055 54.8554 16.6055C58.075 16.6055 60.0213 18.9644 59.3843 21.9523H59.3849Z" fill="white"/>
<path d="M54.8564 16.608C53.2031 16.608 51.7309 17.245 50.5773 18.3299L50.7602 17.462C50.821 17.1727 50.6004 16.9004 50.305 16.9004H46.6063C46.3863 16.9004 46.1967 17.0542 46.1511 17.2693L43.6626 28.9775C43.6013 29.2668 43.8219 29.5397 44.1179 29.5397H47.8244C48.0445 29.5397 48.2341 29.386 48.2797 29.1714L50.0284 20.9532C50.0497 20.8548 50.0983 20.763 50.1737 20.6961C50.7961 20.143 51.6574 19.7765 52.5491 19.7765C54.1762 19.7765 54.9682 20.7752 54.6582 22.3421L53.2377 28.9769C53.1757 29.2668 53.3964 29.5397 53.693 29.5397H57.4062C57.6262 29.5397 57.8165 29.386 57.8615 29.1702L59.3853 21.9543C60.0223 18.9669 58.0766 16.6074 54.8564 16.6074V16.608Z" fill="white"/>
<path d="M75.0982 25.3284C75.0982 26.4389 74.6418 27.3518 73.8923 28.0575C73.8492 28.1006 73.8066 28.1353 73.7635 28.1778C72.4548 29.3229 70.3627 29.8997 68.2359 29.8997C67.9606 29.8997 67.6846 29.8912 67.4178 29.8736C67.3661 29.8736 67.3229 29.8651 67.2713 29.8566H67.2628C64.0468 29.622 61.548 28.1523 61.0405 25.4275C60.9888 25.1497 61.2204 24.8975 61.503 24.8975H64.8698C65.0874 24.8975 65.2575 25.0586 65.3074 25.2707C65.6168 26.5793 66.8938 27.2309 68.3301 27.2309C69.5525 27.2309 70.638 26.8437 70.638 26.0256C70.638 25.2591 69.3032 24.9668 67.6676 24.6222C65.1536 24.1225 61.9157 23.5117 61.9157 20.9972C61.9157 18.0354 65.0934 16.5371 68.4857 16.5371C72.0707 16.5371 75.08 17.915 75.7249 20.7705C75.7924 21.0689 75.579 21.3582 75.2727 21.3582H71.9376C71.7297 21.3582 71.5607 21.2148 71.4926 21.0185C71.0817 19.829 69.9105 19.2577 68.4426 19.2577C67.3497 19.2577 66.3589 19.6448 66.3589 20.3426C66.3589 21.1175 67.8311 21.4099 69.5531 21.746C72.0415 22.2456 75.0982 22.8826 75.0982 25.3278V25.3284Z" fill="white"/>
<path d="M86.0083 16.5215C81.8155 16.5215 78.5089 18.9406 77.7425 22.7466C77.6562 23.2201 77.6045 23.6936 77.6045 24.1239C77.6045 25.1572 77.8458 26.0871 78.2932 26.8791C78.3017 26.9138 78.3193 26.9393 78.3363 26.9654C79.4037 28.7992 81.5821 29.9188 84.4237 29.9188C87.805 29.9188 90.5475 28.3385 91.9358 25.4872C92.089 25.173 91.8702 24.8047 91.5207 24.8047H88.1229C87.9497 24.8047 87.7953 24.9086 87.7145 25.0618C87.03 26.3534 85.9949 26.9314 84.7161 26.9314C83.6827 26.9314 82.8993 26.5697 82.4428 25.8896C82.4258 25.8641 82.4081 25.8294 82.3826 25.7948C82.1504 25.39 82.021 24.8734 82.021 24.2625C82.021 24.1075 82.021 23.927 82.0471 23.7629H92.5941C92.6287 23.5818 92.6628 23.4098 92.6889 23.2378C92.6974 23.1861 92.7059 23.1344 92.7059 23.0828C92.7491 22.7728 92.7746 22.4628 92.7746 22.1358C92.7746 18.7175 89.9938 16.5221 86.0071 16.5221L86.0083 16.5215ZM83.4056 21.6787C83.0336 21.6787 82.8044 21.2545 83.0147 20.9475C83.7162 19.9222 84.7215 19.414 85.7846 19.414C87.0738 19.414 88.1138 20.0559 88.4274 21.0958C88.515 21.387 88.2767 21.6781 87.9728 21.6781H83.4056V21.6787Z" fill="white"/>
<path d="M86.0083 16.5215C81.8155 16.5215 78.5089 18.9406 77.7425 22.7466C77.6562 23.2201 77.6045 23.6936 77.6045 24.1239C77.6045 25.1572 77.8458 26.0871 78.2932 26.8791C78.3017 26.9138 78.3193 26.9393 78.3363 26.9654C79.4037 28.7992 81.5821 29.9188 84.4237 29.9188C87.805 29.9188 90.5475 28.3385 91.9358 25.4872C92.089 25.173 91.8702 24.8047 91.5207 24.8047H88.1229C87.9497 24.8047 87.7953 24.9086 87.7145 25.0618C87.03 26.3534 85.9949 26.9314 84.7161 26.9314C83.6827 26.9314 82.8993 26.5697 82.4428 25.8896C82.4258 25.8641 82.4081 25.8294 82.3826 25.7948C82.1504 25.39 82.021 24.8734 82.021 24.2625C82.021 24.1075 82.021 23.927 82.0471 23.7629H92.5941C92.6287 23.5818 92.6628 23.4098 92.6889 23.2378C92.6974 23.1861 92.7059 23.1344 92.7059 23.0828C92.7491 22.7728 92.7746 22.4628 92.7746 22.1358C92.7746 18.7175 89.9938 16.5221 86.0071 16.5221L86.0083 16.5215ZM83.4056 21.6787C83.0336 21.6787 82.8044 21.2545 83.0147 20.9475C83.7162 19.9222 84.7215 19.414 85.7846 19.414C87.0738 19.414 88.1138 20.0559 88.4274 21.0958C88.515 21.387 88.2767 21.6781 87.9728 21.6781H83.4056V21.6787Z" fill="white"/>
<path d="M100.415 16.9004C100.711 16.9004 100.932 17.1727 100.871 17.462L100.093 21.1538L100.05 21.3435L99.0598 26.0187L98.3973 29.1702C98.3517 29.3854 98.1621 29.5397 97.9421 29.5397H94.2714C93.9754 29.5397 93.7541 29.2668 93.8161 28.9769L94.058 27.8433L95.1685 22.5998L95.2032 22.4278L96.2961 17.2693C96.3417 17.0542 96.5313 16.9004 96.7513 16.9004H100.415Z" fill="white"/>
<path d="M100.415 16.9004C100.711 16.9004 100.932 17.1727 100.871 17.462L100.093 21.1538L100.05 21.3435L99.0598 26.0187L98.3973 29.1702C98.3517 29.3854 98.1621 29.5397 97.9421 29.5397H94.2714C93.9754 29.5397 93.7541 29.2668 93.8161 28.9769L94.058 27.8433L95.1685 22.5998L95.2032 22.4278L96.2961 17.2693C96.3417 17.0542 96.5313 16.9004 96.7513 16.9004H100.415Z" fill="white"/>
</g>
<defs>
<clipPath id="clip0_2704_2610">
<rect width="112.5" height="54" fill="white" transform="translate(0 0.5)"/>
</clipPath>
</defs>
</svg>
