<svg width="360" height="392" viewBox="0 0 360 392" fill="none" xmlns="http://www.w3.org/2000/svg">
<path opacity="0.25" d="M-2 1H165.583C190.942 1 211.5 21.5579 211.5 46.9174V46.9174C211.5 72.2769 190.942 92.8349 165.583 92.8349H145.935C118.081 92.8349 95.5 115.416 95.5 143.27V143.27C95.5 171.125 118.081 193.705 145.935 193.705H232.583C259.323 193.705 281 215.383 281 242.123V242.123C281 268.863 259.323 290.54 232.583 290.54H202.23C174.489 290.54 152 313.029 152 340.77V340.77C152 368.511 174.489 391 202.23 391H361" stroke="#DEDEDE" stroke-width="2" stroke-linejoin="round" stroke-dasharray="6 6"/>
</svg>
