<svg  viewBox="0 0 533 428" fill="none" xmlns="http://www.w3.org/2000/svg">
<g clip-path="url(#clip0_9076_23932)">
<path d="M499.518 122.323C499.185 120.345 498.66 118.409 497.959 116.575C496.877 113.756 495.354 111.051 493.886 108.431C493.131 107.081 492.351 105.69 491.626 104.292C490.381 101.872 488.877 98.6405 488.297 95.1734C488.085 93.8907 488.001 92.6563 488.043 91.4159C487.838 90.9016 487.934 90.3146 488.291 89.885C488.865 89.2073 489.252 88.3905 489.439 87.4647C489.65 86.4421 489.65 85.2985 489.439 84.0581C489.306 83.2533 489.088 82.4425 488.792 81.6377C485.934 73.9229 478.677 68.5982 471.257 63.9996C458.35 56.0004 444.67 49.0601 430.584 43.3784C430.149 43.4086 429.714 43.2513 429.4 42.9306C427.424 40.9217 424.953 39.1488 422.252 37.8055C414.892 34.1387 405.816 33.0677 396.009 34.7136C394.432 34.9798 392.837 35.3126 391.253 35.712C380.625 38.3985 370.769 43.6809 362.05 48.3763C361.838 48.5639 361.578 48.691 361.3 48.7333C361.095 48.7696 360.883 48.7575 360.678 48.7091L360.448 48.6426C357.941 48.0314 355.246 47.9649 352.436 48.4308C349.983 48.8423 347.535 49.6531 345.155 50.833C341.01 52.8903 336.991 56.0488 332.508 60.7684C330.604 62.7713 328.725 64.9435 326.9 67.0492C325.19 69.0278 323.426 71.0669 321.631 72.9729C321.42 73.4147 321.009 73.7293 320.519 73.808L320.429 73.8201C314.44 74.8245 308.652 78.4429 304.549 83.7374C300.712 88.6869 298.21 95.1371 297.316 102.386C296.627 107.947 296.983 114.778 298.403 123.31C298.615 123.727 298.627 124.217 298.422 124.647C295.231 131.315 294.113 136.634 294.905 141.39C294.941 141.601 294.977 141.819 295.026 142.031C295.624 144.911 297.05 147.87 299.268 150.829C301.129 153.31 303.352 155.573 305.564 157.769C305.648 157.787 305.733 157.818 305.812 157.848C306.38 158.09 306.742 158.653 306.73 159.27C306.712 160.226 306.778 161.182 306.936 162.114C307.062 162.864 307.244 163.596 307.473 164.298C309.244 169.611 313.993 174.088 319.873 175.988C323.559 177.18 327.77 177.428 332.042 176.714C333.879 176.406 335.722 175.922 337.529 175.28C339.318 174.639 341.094 173.84 342.816 173.06C345.886 171.674 349.052 170.246 352.406 169.683C353.669 169.472 354.871 169.393 356.068 169.447C356.219 169.447 356.364 169.465 356.515 169.508C359.681 170.452 362.89 170.772 366.05 170.458C366.576 170.403 367.107 170.331 367.633 170.246C372.836 169.375 377.531 166.773 380.848 162.918C381.078 162.652 381.392 162.477 381.742 162.416C381.791 162.41 381.845 162.404 381.899 162.398C388.498 161.987 394.679 165.357 398.752 167.929C406.408 172.751 412.988 179.171 419.351 185.379C421.17 187.152 423.049 188.985 424.922 190.752C428.421 194.044 432.282 197.451 436.518 200.458C437.05 198.854 437.648 197.275 438.277 195.708C439.159 193.518 440.083 191.351 441.008 189.179C441.908 187.061 442.839 184.95 443.944 182.935C444.512 181.9 445.135 180.895 445.812 179.933C443.739 176.551 442.005 173.06 440.839 169.792C440.694 169.393 440.73 168.951 440.923 168.576C441.123 168.201 441.467 167.929 441.878 167.82C444.494 167.142 446.748 166.029 448.573 164.498C448.785 164.322 449.032 164.213 449.292 164.165C449.624 164.111 449.975 164.165 450.283 164.34C450.452 164.437 450.597 164.558 450.712 164.703C455.788 165.411 461.117 165.339 466.187 164.492C474.985 163.015 482.683 159.367 488.454 153.945C488.526 153.879 488.593 153.812 488.659 153.739C488.726 153.673 488.877 153.516 488.889 153.503C497.155 145.444 501.318 133.197 499.5 122.299L499.518 122.323Z" fill="#F8BF3B"/>
<mask id="mask0_9076_23932" style="mask-type:luminance" maskUnits="userSpaceOnUse" x="294" y="33" width="206" height="168">
<path d="M499.518 122.323C499.185 120.345 498.66 118.409 497.959 116.575C496.877 113.756 495.354 111.051 493.886 108.431C493.131 107.081 492.351 105.69 491.626 104.292C490.381 101.872 488.877 98.6405 488.297 95.1734C488.085 93.8907 488.001 92.6563 488.043 91.4159C487.838 90.9016 487.934 90.3146 488.291 89.885C488.865 89.2073 489.252 88.3905 489.439 87.4647C489.65 86.4421 489.65 85.2985 489.439 84.0581C489.306 83.2533 489.088 82.4425 488.792 81.6377C485.934 73.9229 478.677 68.5982 471.257 63.9996C458.35 56.0004 444.67 49.0601 430.584 43.3784C430.149 43.4086 429.714 43.2513 429.4 42.9306C427.424 40.9217 424.953 39.1488 422.252 37.8055C414.892 34.1387 405.816 33.0677 396.009 34.7136C394.432 34.9798 392.837 35.3126 391.253 35.712C380.625 38.3985 370.769 43.6809 362.05 48.3763C361.838 48.5639 361.578 48.691 361.3 48.7333C361.095 48.7696 360.883 48.7575 360.678 48.7091L360.448 48.6426C357.941 48.0314 355.246 47.9649 352.436 48.4308C349.983 48.8423 347.535 49.6531 345.155 50.833C341.01 52.8903 336.991 56.0488 332.508 60.7684C330.604 62.7713 328.725 64.9435 326.9 67.0492C325.19 69.0278 323.426 71.0669 321.631 72.9729C321.42 73.4147 321.009 73.7293 320.519 73.808L320.429 73.8201C314.44 74.8245 308.652 78.4429 304.549 83.7374C300.712 88.6869 298.21 95.1371 297.316 102.386C296.627 107.947 296.983 114.778 298.403 123.31C298.615 123.727 298.627 124.217 298.422 124.647C295.231 131.315 294.113 136.634 294.905 141.39C294.941 141.601 294.977 141.819 295.026 142.031C295.624 144.911 297.05 147.87 299.268 150.829C301.129 153.31 303.352 155.573 305.564 157.769C305.648 157.787 305.733 157.818 305.812 157.848C306.38 158.09 306.742 158.653 306.73 159.27C306.712 160.226 306.778 161.182 306.936 162.114C307.062 162.864 307.244 163.596 307.473 164.298C309.244 169.611 313.993 174.088 319.873 175.988C323.559 177.18 327.77 177.428 332.042 176.714C333.879 176.406 335.722 175.922 337.529 175.28C339.318 174.639 341.094 173.84 342.816 173.06C345.886 171.674 349.052 170.246 352.406 169.683C353.669 169.472 354.871 169.393 356.068 169.447C356.219 169.447 356.364 169.465 356.515 169.508C359.681 170.452 362.89 170.772 366.05 170.458C366.576 170.403 367.107 170.331 367.633 170.246C372.836 169.375 377.531 166.773 380.848 162.918C381.078 162.652 381.392 162.477 381.742 162.416C381.791 162.41 381.845 162.404 381.899 162.398C388.498 161.987 394.679 165.357 398.752 167.929C406.408 172.751 412.988 179.171 419.351 185.379C421.17 187.152 423.049 188.985 424.922 190.752C428.421 194.044 432.282 197.451 436.518 200.458C437.05 198.854 437.648 197.275 438.277 195.708C439.159 193.518 440.083 191.351 441.008 189.179C441.908 187.061 442.839 184.95 443.944 182.935C444.512 181.9 445.135 180.895 445.812 179.933C443.739 176.551 442.005 173.06 440.839 169.792C440.694 169.393 440.73 168.951 440.923 168.576C441.123 168.201 441.467 167.929 441.878 167.82C444.494 167.142 446.748 166.029 448.573 164.498C448.785 164.322 449.032 164.213 449.292 164.165C449.624 164.111 449.975 164.165 450.283 164.34C450.452 164.437 450.597 164.558 450.712 164.703C455.788 165.411 461.117 165.339 466.187 164.492C474.985 163.015 482.683 159.367 488.454 153.945C488.526 153.879 488.593 153.812 488.659 153.739C488.726 153.673 488.877 153.516 488.889 153.503C497.155 145.444 501.318 133.197 499.5 122.299L499.518 122.323Z" fill="white"/>
</mask>
<g mask="url(#mask0_9076_23932)">
<path d="M404.691 164.177C410.124 164.032 415.459 165.466 420.698 166.894C425.937 168.328 431.267 169.78 436.699 169.671C442.131 169.563 447.781 167.681 451.225 163.475C454.669 159.27 455.189 152.499 451.461 148.542" stroke="black" stroke-width="0.88" stroke-linecap="round" stroke-linejoin="round"/>
<path d="M449.553 165.69C463.445 167.922 478.986 164.431 489.246 154.786C499.507 145.141 504.063 129.312 499.011 116.164C497.343 111.819 494.757 107.904 492.63 103.766C490.503 99.6268 488.872 95.4759 489.204 90.835" stroke="black" stroke-width="0.88" stroke-linecap="round" stroke-linejoin="round"/>
<path d="M451.799 87.41C459.594 86.7807 467.516 87.8759 474.845 90.6048C477.178 91.4701 479.48 92.5108 481.945 92.8496C484.411 93.1885 487.136 92.7165 488.882 90.9376C491.281 88.487 491.051 84.4571 489.861 81.2381C486.846 73.0755 479.256 67.6116 471.866 63.0312C458.687 54.8625 444.802 47.8436 430.408 42.0771" stroke="black" stroke-width="0.88" stroke-linecap="round" stroke-linejoin="round"/>
<path d="M470.973 89.334C475.492 94.8402 476.979 103.886 473.795 110.27" stroke="black" stroke-width="0.88" stroke-linecap="round" stroke-linejoin="round"/>
<path d="M419.877 152.299C417.243 147.573 416.33 141.91 417.357 136.597C418.385 131.284 421.333 126.365 425.539 122.965C433.727 116.339 445.866 116.133 455.407 120.58C461.444 123.394 466.755 127.878 473.197 129.554C477.203 130.595 481.572 130.528 485.197 132.537C488.793 134.528 491.131 138.4 491.802 142.454C492.472 146.508 491.729 150.835 489.632 154.423" stroke="black" stroke-width="0.88" stroke-linecap="round" stroke-linejoin="round"/>
<path d="M401.355 135.417C407.489 136.585 414.081 135.109 419.133 131.424" stroke="black" stroke-width="0.88" stroke-linecap="round" stroke-linejoin="round"/>
<path d="M441.781 169.036C444.386 176.509 449.202 184.133 454.785 189.73" stroke="black" stroke-width="0.88" stroke-linecap="round" stroke-linejoin="round"/>
<path d="M379.465 163.881C386.063 162.434 392.438 165.29 398.161 168.897C407.907 175.044 415.775 183.685 424.162 191.587C432.555 199.49 441.957 206.926 453.13 209.74" stroke="black" stroke-width="0.88" stroke-linecap="round" stroke-linejoin="round"/>
<path d="M455.329 190.117C453.462 196.386 452.792 203.005 453.378 209.522" stroke="black" stroke-width="0.88" stroke-linecap="round" stroke-linejoin="round"/>
<path d="M361.869 162.712C366.202 166.058 372.323 166.918 377.411 164.891C382.498 162.864 386.348 158.023 387.193 152.607" stroke="black" stroke-width="0.88" stroke-linecap="round" stroke-linejoin="round"/>
<path d="M353.82 138.654C350.479 140.161 347.264 142.091 344.799 144.808C342.333 147.525 340.684 151.107 340.823 154.774C341.022 159.887 344.623 164.316 348.871 167.16C353.923 170.542 360.129 172.206 366.171 171.595C372.214 170.99 377.797 168.243 381.749 163.626" stroke="black" stroke-width="0.88" stroke-linecap="round" stroke-linejoin="round"/>
<path d="M327.589 144.01C321.812 143.677 315.552 144.07 311.026 147.677C306.138 151.567 304.452 158.743 306.428 164.673C308.398 170.603 313.607 175.165 319.552 177.084C325.498 179.002 332.055 178.463 337.934 176.363C344.055 174.179 349.632 170.288 356.122 170.597" stroke="black" stroke-width="0.88" stroke-linecap="round" stroke-linejoin="round"/>
<path d="M308.392 107.111C304.102 112.236 300.446 117.888 297.539 123.908C294.772 129.626 292.645 136.052 293.932 142.273C294.633 145.649 296.313 148.765 298.379 151.524C300.446 154.284 302.905 156.722 305.346 159.154" stroke="black" stroke-width="0.88" stroke-linecap="round" stroke-linejoin="round"/>
<path d="M339.705 79.6769C335.372 74.2432 327.964 71.6898 321.082 72.5853C314.199 73.4808 307.933 77.5531 303.673 83.0472C299.419 88.5414 297.063 95.3485 296.211 102.253C295.359 109.15 296.211 117.095 297.377 123.951" stroke="black" stroke-width="0.88" stroke-linecap="round" stroke-linejoin="round"/>
<path d="M320.508 72.5312C324.309 68.5255 327.898 63.9874 331.705 59.9878C335.511 55.9822 339.729 52.273 344.672 49.8164C349.615 47.3598 355.367 46.2403 360.733 47.5413C366.31 48.8967 371.078 52.7994 374.142 57.6583C377.205 62.5171 378.661 68.2654 379.048 73.9955" stroke="black" stroke-width="0.88" stroke-linecap="round" stroke-linejoin="round"/>
<path d="M405.259 57.3978C395.808 54.1122 384.95 55.1469 376.291 60.157" stroke="black" stroke-width="0.88" stroke-linecap="round" stroke-linejoin="round"/>
<path d="M422.494 74.1829C426.736 72.2406 430.518 69.1789 432.978 65.2156C435.443 61.2523 436.525 56.3693 435.6 51.7949C434.253 45.1147 428.869 39.8324 422.772 36.7949C413.062 31.9542 401.508 31.9602 390.994 34.6166C380.48 37.2789 370.776 42.3979 361.229 47.5472" stroke="black" stroke-width="0.88" stroke-linecap="round" stroke-linejoin="round"/>
<path d="M434.451 62.2687C443.128 61.3127 452.15 64.084 458.803 69.7475" stroke="black" stroke-width="0.88" stroke-linecap="round" stroke-linejoin="round"/>
<path d="M374.141 131.938C378.014 132.652 382.02 131.194 385.235 128.919C388.449 126.643 391.03 123.606 393.694 120.702C396.359 117.797 399.217 114.953 402.752 113.229C407.906 110.718 413.883 110.851 419.563 110.082C425.508 109.284 431.309 107.438 436.627 104.661C438.548 103.656 440.434 102.513 441.896 100.903C443.358 99.2998 444.355 97.176 444.216 95.0098" stroke="black" stroke-width="0.88" stroke-linecap="round" stroke-linejoin="round"/>
<path d="M393.863 85.1895C398.371 87.997 401.815 92.4746 403.374 97.5573C404.933 102.64 404.595 108.279 402.444 113.138" stroke="black" stroke-width="0.88" stroke-linecap="round" stroke-linejoin="round"/>
<path d="M376.817 102.168C364.587 100.062 351.377 105.339 343.957 115.298C336.537 125.258 335.25 139.441 340.755 150.581" stroke="black" stroke-width="0.88" stroke-linecap="round" stroke-linejoin="round"/>
<path d="M339.838 122.293C335.155 116.545 327.323 113.544 320.006 114.7" stroke="black" stroke-width="0.88" stroke-linecap="round" stroke-linejoin="round"/>
<path d="M350.139 108.14C349.795 101.236 346.665 94.5078 341.613 89.8003" stroke="black" stroke-width="0.88" stroke-linecap="round" stroke-linejoin="round"/>
</g>
<path d="M510.435 21.2323L488.76 15.7744L485.902 21.559L510.381 21.317" stroke="black" stroke-width="0.78" stroke-linecap="round" stroke-linejoin="round"/>
<path d="M502.605 23.9552C493.444 27.0714 480.785 30.5324 480.785 30.5324L484.139 24.0883C484.139 24.0883 484.157 24.058 484.175 24.0217C484.35 24.0036 484.532 23.9854 484.532 23.9854L510.249 21.3594C510.249 21.3594 507.082 22.4425 502.611 23.9612L502.605 23.9552Z" stroke="black" stroke-width="0.78" stroke-linecap="round" stroke-linejoin="round"/>
<path d="M485.902 21.5591L487.322 23.689" stroke="black" stroke-width="0.78" stroke-linecap="round" stroke-linejoin="round"/>
<path d="M488.176 28.7231L489.004 31.5731" stroke="black" stroke-width="0.78" stroke-linecap="round" stroke-linejoin="round"/>
<path d="M510.443 21.293L489.004 31.5733" stroke="black" stroke-width="0.78" stroke-linecap="round" stroke-linejoin="round"/>
<path d="M402.646 22.1866C408.573 20.6052 412.098 14.5119 410.518 8.57674C408.939 2.64163 402.854 -0.887733 396.927 0.693697C391 2.27513 387.476 8.36849 389.055 14.3036C390.634 20.2387 396.719 23.7681 402.646 22.1866Z" fill="#FF6400"/>
<path d="M395.344 10.0689C395.544 10.6437 395.235 11.2669 394.661 11.4605C394.087 11.6542 393.465 11.3516 393.272 10.7768C393.072 10.202 393.38 9.57874 393.954 9.38512C394.529 9.19149 395.151 9.49403 395.344 10.0689Z" fill="black"/>
<path d="M404.522 6.91017C404.721 7.485 404.413 8.10823 403.839 8.30186C403.265 8.50153 402.643 8.19294 402.449 7.61811C402.25 7.04329 402.558 6.42005 403.132 6.22642C403.706 6.0328 404.329 6.33534 404.522 6.91017Z" fill="black"/>
<path d="M395.754 14.4917C396.993 16.1436 399.198 16.8939 401.259 16.186C403.319 15.478 404.6 13.5357 404.564 11.4663" stroke="black" stroke-width="0.78" stroke-linecap="round" stroke-linejoin="round"/>
<path d="M400.62 11.3696C400.656 11.8537 400.288 12.2712 399.804 12.3075C399.321 12.3438 398.904 11.9747 398.868 11.4906C398.831 11.0066 399.2 10.5891 399.683 10.5528C400.167 10.5165 400.584 10.8856 400.62 11.3696Z" fill="black"/>
<path d="M500.2 51.3234C500.127 49.49 501.559 47.941 503.39 47.8684C505.221 47.7958 506.768 49.2298 506.841 51.0632C506.913 52.8966 505.481 54.4456 503.65 54.5182C501.819 54.5908 500.272 53.1568 500.2 51.3234Z" fill="#FF6400"/>
<path d="M312.973 30.2905L312.314 26.8718C312.314 26.8718 312.302 26.8052 312.29 26.7326C313.958 23.6165 314.042 19.7379 312.163 16.4402C309.263 11.3333 302.779 9.55434 297.679 12.4587C297.673 12.4587 297.661 12.4648 297.655 12.4708C292.573 15.3813 290.803 21.8678 293.703 26.9626C295.6 30.2966 299.027 32.2147 302.598 32.3357C302.628 32.3599 302.652 32.3841 302.652 32.3841L305.347 34.7863" stroke="black" stroke-width="0.78" stroke-linecap="round" stroke-linejoin="round"/>
<path d="M305.819 34.5976L312.619 30.7212C313.045 30.4787 313.589 30.6282 313.831 31.0542L313.861 31.1068C314.103 31.5327 313.953 32.0773 313.528 32.3198L306.728 36.1962C306.302 36.4386 305.758 36.2891 305.516 35.8632L305.486 35.8106C305.244 35.3847 305.393 34.84 305.819 34.5976Z" stroke="black" stroke-width="0.78" stroke-linecap="round" stroke-linejoin="round"/>
<path d="M306.702 36.1532L313.502 32.2769C313.928 32.0344 314.471 32.1839 314.714 32.6098L314.743 32.6624C314.986 33.0884 314.836 33.633 314.411 33.8755L307.61 37.7518C307.185 37.9943 306.641 37.8448 306.399 37.4189L306.369 37.3663C306.127 36.9403 306.276 36.3957 306.702 36.1532Z" stroke="black" stroke-width="0.78" stroke-linecap="round" stroke-linejoin="round"/>
<path d="M314.423 33.9107L307.627 37.7841C307.201 38.0271 307.052 38.5702 307.295 38.9971L307.322 39.0445C307.564 39.4714 308.107 39.6205 308.533 39.3774L315.328 35.5041C315.755 35.261 315.904 34.7179 315.661 34.291L315.634 34.2437C315.391 33.8168 314.849 33.6677 314.423 33.9107Z" stroke="black" stroke-width="0.78" stroke-linecap="round" stroke-linejoin="round"/>
<path d="M299.141 31.5005C299.268 31.4098 299.383 31.313 299.486 31.2101C299.83 30.8713 300.144 30.5022 300.452 30.127C301.226 29.171 301.739 28.1484 302.102 26.9443C302.815 24.53 302.44 21.6256 300.597 19.6772C299.063 18.0556 298.337 20.0887 298.458 21.668C298.64 24.1125 299.939 26.7022 302.162 27.8458C303.891 28.7353 306.35 28.6022 307.492 26.9745C308.845 25.0504 308.344 22.0371 307.262 19.9737C306.803 19.0964 305.685 17.0633 304.422 17.2145C302.815 17.4082 303.746 20.4275 304.12 21.3352C305.014 23.5074 308.302 26.8112 310.676 25.4255C311.208 25.1169 313.111 23.7918 313.547 21.0871" stroke="black" stroke-width="0.78" stroke-linecap="round" stroke-linejoin="round"/>
<path d="M285.248 107.995C288.142 106.682 291.2 105.339 294.421 103.99" stroke="black" stroke-width="0.78" stroke-linecap="round" stroke-linejoin="round"/>
<path d="M510.848 51.4141C521.942 51.8195 528.716 53.8707 529.749 57.713C533.127 70.2442 474.14 97.0918 397.998 117.665C321.855 138.249 257.393 144.766 254.016 132.235C252.958 128.32 257.992 123.007 267.732 116.926" stroke="black" stroke-width="0.83" stroke-linecap="round" stroke-linejoin="round"/>
<path d="M464.684 56.0308C476.442 54.0885 487.035 52.7331 496.081 52.001" stroke="black" stroke-width="0.78" stroke-linecap="round" stroke-linejoin="round"/>
<path d="M491.808 99.1915C517.827 107.015 533.58 114.397 532.716 119.413C531.03 129.198 466.659 126.227 388.945 112.782C311.226 99.3307 249.598 80.5005 251.284 70.7164C252.396 64.2904 280.572 63.3646 321.812 67.3037" stroke="black" stroke-width="0.83" stroke-linecap="round" stroke-linejoin="round"/>
<path d="M479.668 21.8858C474.115 21.2021 468.229 21.2808 462.857 23.0173C458.362 24.4695 450.41 29.3162 452.235 35.1795C452.283 35.3368 452.343 35.4881 452.404 35.6454C453.624 38.568 457.262 39.76 460.096 38.5256C463.842 36.8919 464.459 32.1783 462.247 29.0379C457.812 22.7451 437.255 22.854 430.645 35.119" stroke="black" stroke-width="1.1" stroke-linecap="round" stroke-linejoin="round" stroke-dasharray="5.55 5.55 5.55 5.55 5.55 5.55"/>
<path d="M270.204 51.4142L270.119 48.3403" stroke="black" stroke-width="0.78" stroke-linecap="round" stroke-linejoin="round"/>
<path d="M266.416 49.9618L268.531 47.729" stroke="black" stroke-width="0.78" stroke-linecap="round" stroke-linejoin="round"/>
<path d="M264.766 46.2466L267.835 46.168" stroke="black" stroke-width="0.78" stroke-linecap="round" stroke-linejoin="round"/>
<path d="M266.217 42.4526L268.446 44.5704" stroke="black" stroke-width="0.78" stroke-linecap="round" stroke-linejoin="round"/>
<path d="M269.926 40.8008L270.004 43.8746" stroke="black" stroke-width="0.78" stroke-linecap="round" stroke-linejoin="round"/>
<path d="M273.715 42.2588L271.6 44.4855" stroke="black" stroke-width="0.78" stroke-linecap="round" stroke-linejoin="round"/>
<path d="M275.365 45.9683L272.295 46.053" stroke="black" stroke-width="0.78" stroke-linecap="round" stroke-linejoin="round"/>
<path d="M273.907 49.7618L271.684 47.644" stroke="black" stroke-width="0.78" stroke-linecap="round" stroke-linejoin="round"/>
<path d="M360.829 21.9043L359.898 34.5687" stroke="black" stroke-width="0.78" stroke-linecap="round" stroke-linejoin="round"/>
<path d="M345.826 21.3232L349.645 36.0086" stroke="black" stroke-width="0.78" stroke-linecap="round" stroke-linejoin="round"/>
<path d="M331.867 28.7598L341.499 39.736" stroke="black" stroke-width="0.78" stroke-linecap="round" stroke-linejoin="round"/>
<path d="M282.741 106.997C282.487 105.787 281.864 104.649 280.674 104.032C279.707 103.524 278.777 103.403 277.931 103.584C276.432 103.905 275.248 105.103 274.39 106.495C273.042 105.563 271.483 104.952 269.979 105.26C269.133 105.436 268.329 105.92 267.646 106.779C266.806 107.826 266.692 109.121 266.951 110.331C267.205 111.547 267.828 112.715 268.51 113.605C269.103 114.367 270.275 115.371 271.634 116.43C272.994 117.489 274.529 118.59 275.822 119.498C276.287 119.819 276.716 120.121 277.097 120.388C277.157 120.43 277.236 120.448 277.314 120.43C277.387 120.412 277.453 120.369 277.496 120.303C277.731 119.91 278.003 119.462 278.299 118.984C279.115 117.628 280.076 116.001 280.892 114.482C281.707 112.963 282.378 111.572 282.608 110.634C282.88 109.538 282.982 108.219 282.728 107.003L282.741 106.997Z" fill="#FF6400"/>
<path d="M503.064 93.4126L513.995 92.9951" stroke="black" stroke-width="4.37" stroke-linejoin="round"/>
<path d="M508.322 87.731L508.745 98.6769" stroke="black" stroke-width="4.37" stroke-linejoin="round"/>
<path d="M294.965 174.24C291.339 175.571 290.414 176.576 289.363 180.297C288.034 176.666 287.031 175.741 283.314 174.688C286.94 173.357 287.864 172.352 288.916 168.631C290.245 172.261 291.248 173.187 294.965 174.24Z" fill="black"/>
<path d="M506.467 169.248C506.527 170.869 505.264 172.231 503.651 172.297C502.038 172.364 500.672 171.093 500.606 169.477C500.545 167.856 501.808 166.494 503.421 166.428C505.041 166.367 506.4 167.632 506.467 169.248Z" stroke="black" stroke-width="0.78" stroke-linecap="round" stroke-linejoin="round"/>
<path d="M271.225 155.887C271.273 157.103 270.325 158.126 269.11 158.174C267.896 158.223 266.874 157.273 266.826 156.057C266.778 154.84 267.726 153.818 268.941 153.769C270.155 153.721 271.177 154.671 271.225 155.887Z" stroke="black" stroke-width="0.78" stroke-linecap="round" stroke-linejoin="round"/>
<path d="M447.407 5.44564C447.498 7.79941 445.667 9.77803 443.323 9.86879C440.972 9.95956 438.996 8.12616 438.906 5.77843C438.815 3.43071 440.646 1.44604 442.99 1.35528C445.341 1.26452 447.317 3.09792 447.407 5.44564Z" stroke="black" stroke-width="1.04" stroke-miterlimit="10"/>
<path d="M266.831 180.4C266.861 181.144 266.281 181.767 265.538 181.797C264.794 181.828 264.172 181.247 264.142 180.502C264.112 179.758 264.692 179.135 265.435 179.105C266.178 179.074 266.8 179.655 266.831 180.4Z" fill="black"/>
<path d="M471.221 1.29503C471.252 2.03928 470.671 2.66252 469.928 2.69277C469.185 2.72303 468.563 2.14215 468.532 1.39789C468.502 0.653643 469.082 0.0304078 469.825 0.000153619C470.569 -0.0301005 471.191 0.550779 471.221 1.29503Z" fill="black"/>
<path d="M519.38 148.143C519.41 148.887 518.83 149.51 518.086 149.54C517.343 149.571 516.721 148.99 516.691 148.246C516.66 147.501 517.24 146.878 517.984 146.848C518.727 146.818 519.349 147.398 519.38 148.143Z" fill="black"/>
</g>
<g clip-path="url(#clip1_9076_23932)">
<path d="M252.072 222.319C251.756 221.407 251.396 220.515 251 219.644C246.734 210.33 245.303 202.029 244.81 191.661C244.697 189.313 244.458 186.661 244.062 183.905C243.01 176.565 240.839 168.481 236.966 163.425C236.759 163.159 236.553 162.9 236.339 162.65C235.106 161.214 233.751 159.809 232.32 158.482C229.166 155.548 225.159 153.966 221.031 153.966H137.567C133.439 153.966 129.432 155.552 126.278 158.482C124.846 159.813 123.496 161.214 122.259 162.65C122.044 162.9 121.838 163.155 121.632 163.425C117.758 168.481 115.587 176.569 114.532 183.905C114.135 186.661 113.897 189.313 113.788 191.657C113.29 202.025 111.859 210.322 107.597 219.639C107.201 220.507 106.841 221.399 106.526 222.315C104.302 228.715 104.116 236.064 106.768 242.412C107.1 243.207 107.48 243.99 107.9 244.748C111.677 251.532 118.959 254.571 125.922 254.785C132.068 254.974 135.015 254.926 139.467 259.825C139.5 259.857 139.532 259.894 139.564 259.926C141.922 262.504 144.497 264.49 147.748 265.523C151.31 266.657 154.355 265.555 157.541 264.03C157.622 264.006 157.703 263.977 157.784 263.953C158.807 263.606 159.85 263.138 160.679 262.488C160.95 262.359 161.225 262.23 161.5 262.097L179.295 261.391L193.859 260.81C194.983 261.177 196.055 261.625 197.086 262.097C197.361 262.226 197.635 262.355 197.906 262.488C198.982 263.005 200.021 263.538 201.044 264.03C204.226 265.555 207.275 266.661 210.837 265.523C214.088 264.486 216.664 262.504 219.021 259.926C219.053 259.894 219.086 259.857 219.118 259.825C223.57 254.926 226.517 254.97 232.663 254.785C239.626 254.571 246.908 251.532 250.685 244.748C251.105 243.99 251.485 243.211 251.817 242.412C254.469 236.064 254.283 228.719 252.06 222.315L252.072 222.319Z" fill="black"/>
<path d="M146.568 156.016C149.662 150.947 152.848 145.773 157.449 142.016C162.887 137.577 170.158 135.443 177.14 136.234C178.095 136.343 179.101 136.532 179.793 137.194C181.135 138.477 180.581 140.741 179.631 142.339C177.686 145.612 174.597 148.017 171.581 150.346C168.847 152.452 165.944 154.631 162.528 155.112C160.85 155.346 158.707 154.817 158.343 153.162C158.201 152.525 158.371 151.863 158.569 151.242C161.557 141.726 171.346 134.797 181.329 135.128C183.784 135.209 186.659 136.04 187.419 138.368C187.9 139.849 187.346 141.443 186.796 142.9C185.971 145.087 185.142 147.275 184.317 149.458C184.006 150.277 183.691 151.129 183.751 152.004C183.873 153.776 185.498 155.1 187.18 155.673C189.918 156.605 192.999 156.104 195.59 154.825C198.057 153.61 200.362 151.229 200.014 148.51C199.779 146.698 198.421 145.233 196.961 144.131C190.787 139.466 181.507 139.446 175.313 144.083C174.067 145.015 172.838 146.484 173.332 147.957C173.74 149.167 175.119 149.728 176.364 150.015C182.458 151.403 188.798 149.74 194.749 147.84C197.584 146.936 200.463 145.943 202.796 144.095C204.094 143.07 205.266 141.544 204.979 139.914C204.575 137.61 201.631 136.774 199.302 137.025C196.148 137.359 193.12 138.8 190.876 141.04C189.942 141.972 189.113 143.098 188.923 144.401C188.559 146.92 190.637 149.119 192.756 150.531C195.979 152.682 199.715 154.054 203.564 154.502C206.617 154.857 209.868 154.591 212.476 152.965C215.08 151.338 216.834 148.11 216.042 145.144C215.512 143.158 213.939 141.564 212.12 140.604C210.296 139.644 208.234 139.244 206.188 138.99C195.926 137.727 184.552 140.447 178.046 148.469C177.407 149.256 176.805 150.37 177.359 151.221C177.779 151.863 178.661 152 179.429 151.964C182.267 151.839 184.867 150.257 186.921 148.296C188.975 146.334 190.609 143.986 192.469 141.835C199.832 133.324 208.109 111.589 261.554 113.574" stroke="black" stroke-width="1.5" stroke-linecap="round" stroke-linejoin="round"/>
<path d="M187.103 163.058C191.672 157.727 192.226 150.152 192.566 143.142C192.736 139.607 192.873 135.895 191.288 132.727C189.372 128.893 184.883 126.512 180.626 127.069C177.371 127.497 174.492 129.438 172.203 131.787C168.39 135.697 165.912 140.879 165.257 146.294C165.176 146.964 165.132 147.682 165.471 148.264C166.235 149.571 168.184 149.256 169.62 148.772C179.356 145.483 189.711 141.754 195.789 133.481C196.375 132.682 196.937 131.791 196.981 130.802C197.07 128.917 195.324 127.473 193.613 126.674C188.882 124.462 183.262 124.72 178.337 126.456C173.412 128.195 169.086 131.294 165.103 134.668C160.312 138.728 155.84 143.332 153.018 148.937C152.318 150.326 151.728 151.992 152.407 153.389C153.296 155.205 155.739 155.491 157.764 155.414C162.924 155.213 168.366 154.083 172.106 150.527C175.846 146.972 177.043 140.423 173.501 136.67C170.388 133.377 164.848 133.461 160.922 135.737C156.996 138.013 154.368 141.96 152.128 145.899C149.791 150.011 147.692 154.325 146.73 158.954C146.403 160.515 146.289 162.355 147.413 163.485C148.659 164.736 150.733 164.45 152.431 163.962C154.663 163.316 156.839 162.472 158.921 161.439C160.708 160.556 162.487 159.478 163.595 157.824C165.176 155.459 165.071 152.198 163.672 149.72C162.273 147.243 159.742 145.527 157.008 144.716C153.284 143.611 149.108 144.115 145.756 146.08C142.404 148.042 139.925 151.435 139.076 155.221C138.579 157.436 138.785 160.112 140.604 161.476C141.437 162.101 142.484 162.355 143.511 162.537C152.205 164.083 161.133 161.577 169.227 158.05C171.71 156.968 174.286 155.669 175.709 153.364C177.787 149.995 176.732 145.56 174.868 142.069C171.031 134.894 150.046 149.975 138.158 129.728C124.754 106.904 103.793 113.655 99.7539 117.227" stroke="black" stroke-width="1.5" stroke-linecap="round" stroke-linejoin="round"/>
<path d="M225.583 197.88C228.405 198.102 231.244 198.477 233.908 199.474C236.573 200.471 239.072 202.133 240.713 204.538C242.355 206.944 243.046 210.14 242.141 212.94C241.162 215.971 238.481 218.134 235.59 219.203C232.699 220.269 227.924 220.277 224.863 220.398" fill="#FFC098"/>
<path d="M235.998 209.623C232.719 209.627 229.435 209.635 226.156 209.639" stroke="black" stroke-width="1.5" stroke-linecap="round" stroke-linejoin="round"/>
<path d="M136.168 197.88C133.346 198.102 130.507 198.477 127.843 199.474C125.178 200.471 122.679 202.133 121.038 204.538C119.396 206.944 118.705 210.14 119.61 212.94C120.589 215.971 123.27 218.134 126.161 219.203C129.052 220.269 133.827 220.277 136.888 220.398" fill="#FFC098"/>
<path d="M125.748 209.623C129.027 209.627 132.31 209.635 135.59 209.639" stroke="black" stroke-width="1.5" stroke-linecap="round" stroke-linejoin="round"/>
<path d="M200.495 254.454L160.223 255.318L160.437 282.763H200.875L200.495 254.454Z" fill="#FFC098"/>
<path d="M200.651 266.27C200.465 266.242 200.279 266.218 200.093 266.189C196.487 265.661 192.884 265.112 189.322 264.474C187.543 264.155 185.78 263.804 184.017 263.457C182.286 263.114 180.556 262.767 178.837 262.396C177.103 262.025 175.38 261.625 173.69 261.181C172.093 260.762 170.544 260.277 168.963 259.833C166.82 259.236 164.621 258.667 162.619 257.892L200.534 257.38L200.651 266.27Z" fill="black"/>
<path d="M224.823 183.962C222.72 177.9 219.49 172.255 215.519 167.38H145.807C141.476 172.384 137.975 178.667 135.909 186.448C133.337 210.019 132.565 239.946 154.54 254.494C164.172 260.563 176.217 261.976 187.393 260.802C218.248 258.3 228.559 228.259 226.149 200.939C225.878 195.071 225.365 189.535 224.827 183.962H224.823Z" fill="#FFC098"/>
<path d="M226.15 200.939C225.879 195.071 225.366 189.535 224.828 183.962C219.297 171.008 207.413 161.863 193.451 159.817L190.354 159.365C182.247 158.179 173.991 158.437 165.973 160.128C152.528 162.965 141.441 172.416 136.529 185.229L135.849 187.004C133.33 210.491 132.736 240.063 154.542 254.498C164.173 260.568 176.219 261.98 187.394 260.806C218.25 258.304 228.56 228.263 226.15 200.943V200.939Z" stroke="black" stroke-width="1.5" stroke-linecap="round" stroke-linejoin="round"/>
<path d="M180.537 204.559C182.085 207.892 178.434 210.212 176.801 212.585C175.794 214.046 175.786 216.084 177.342 217.206C178.883 218.316 181.507 218.11 182.534 216.395" stroke="black" stroke-width="1.5" stroke-linecap="round" stroke-linejoin="round"/>
<path d="M188.433 220.297C187.317 221.512 186.489 222.694 185.114 223.465C183.816 224.195 182.397 224.522 180.549 224.708L180.808 225.119C181.62 226.516 183.614 227.884 185.227 227.839C186.844 227.795 188.397 226.81 189.129 225.37C189.861 223.929 189.347 221.621 188.429 220.293L188.433 220.297Z" fill="black"/>
<path d="M197.031 204.938C197.031 205.996 196.169 206.855 195.11 206.855C194.051 206.855 193.189 205.996 193.189 204.938C193.189 203.881 194.051 203.021 195.11 203.021C196.169 203.021 197.031 203.881 197.031 204.938Z" fill="black"/>
<path d="M165.503 207.01C165.795 205.993 165.205 204.931 164.185 204.64C163.165 204.349 162.102 204.937 161.81 205.955C161.518 206.973 162.108 208.034 163.128 208.326C164.147 208.617 165.211 208.028 165.503 207.01Z" fill="black"/>
<path d="M157.429 226.605C163.055 226.605 167.615 223.877 167.615 220.512C167.615 217.146 163.055 214.418 157.429 214.418C151.804 214.418 147.244 217.146 147.244 220.512C147.244 223.877 151.804 226.605 157.429 226.605Z" fill="#F48547"/>
<path d="M204.365 226.847C209.99 226.847 214.55 224.119 214.55 220.754C214.55 217.388 209.99 214.66 204.365 214.66C198.74 214.66 194.18 217.388 194.18 220.754C194.18 224.119 198.74 226.847 204.365 226.847Z" fill="#F48547"/>
<path d="M205.048 198.118L191.539 195.523" stroke="black" stroke-width="10" stroke-linecap="round" stroke-linejoin="round"/>
<path d="M154.203 198.118L167.716 195.523" stroke="black" stroke-width="10" stroke-linecap="round" stroke-linejoin="round"/>
<path d="M137.81 156.205C132.618 161.839 128.615 168.973 127.54 176.27C126.998 179.942 126.751 187.65 126.598 197.88C133.285 197.327 135.643 197.056 139.104 195.111C140.204 194.494 141.295 193.739 142.278 192.952C144.724 190.999 146.273 188.667 147.284 185.709C148.654 181.701 149.208 177.395 148.404 173.199C149.265 173.421 150.146 173.562 151.068 173.562C153.147 173.562 155.273 173.336 157.319 172.981C158.755 172.73 160.162 172.428 161.541 172.057C166.308 174.688 172.296 176.814 178.951 178.037C190.483 180.156 201.113 179.022 207.405 175.575C214.028 190.858 225.539 196.73 228.459 196.048C226.134 183.554 229.381 169.252 216.409 156.205H137.81Z" fill="black"/>
<path d="M86.6552 93.6554C86.4571 89.9508 87.2455 85.0678 89.5907 79.1962C90.7552 76.2826 91.8752 72.8605 91.1272 69.7047C90.646 67.6749 88.8225 64.8137 86.4813 66.5288C85.4503 67.2834 84.864 68.482 84.3181 69.6321L78.5159 81.8273C77.3878 84.1962 76.5629 86.7022 76.102 89.2849C75.5763 92.2389 65.2374 120.084 63.0175 127.844C61.6954 132.461 60.45 141.557 60.5268 146.359L80.1292 152.945C88.8952 151.02 96.3796 140.382 98.0697 138.845C101.365 135.846 104.381 132.545 107.843 129.737C110.944 127.219 114.365 125.12 117.502 122.646C118.885 121.553 120.252 120.338 120.798 118.607C121.097 117.654 121.081 116.613 120.616 115.73C119.528 113.663 116.831 113.659 114.741 114.317C110.39 115.689 106.969 119.031 102.902 121.093C101.733 121.686 100.459 122.178 99.1533 122.073C97.3055 121.924 95.7892 120.625 94.4104 119.386C93.7635 118.805 93.1125 118.219 92.4656 117.638C91.9035 117.134 91.7499 116.29 92.1542 115.657C92.1542 115.653 92.1583 115.649 92.1623 115.645C92.5949 114.987 93.3066 114.575 94.002 114.212C96.3027 113.006 98.7126 112.013 101.118 111.024C102.004 110.661 102.91 110.29 103.868 110.217C104.863 110.14 105.849 110.391 106.812 110.657C111.401 111.928 116.018 113.675 120.765 113.3C122.354 113.175 124.513 112.614 125.039 110.879C125.29 110.048 125.084 109.111 124.631 108.389C124 107.384 122.989 106.989 121.914 106.605C121.267 106.375 120.624 106.129 119.977 105.895C118.376 105.318 116.77 104.769 115.169 104.192C114.449 103.934 113.726 103.696 113.002 103.45C111.53 102.949 110.091 102.356 108.595 101.928C108.36 101.86 107.091 101.432 105.073 101.141C105.421 100.919 105.776 100.709 106.148 100.54C107.026 100.136 107.984 99.9386 108.93 99.7449C112.181 99.075 115.428 98.4011 118.679 97.7312C122.269 96.9887 126.07 96.1412 128.711 93.6029C129.438 92.9048 130.069 92.0654 130.32 91.0888C130.502 90.3786 130.437 89.5351 129.899 89.0347C129.394 88.5666 128.638 88.5263 127.946 88.5182C121.339 88.4536 111.801 89.297 104.224 90.318C105.174 89.7167 106.193 89.2204 107.204 88.7321C109.549 87.5941 111.898 86.4601 114.243 85.3221C117.292 83.8451 121.74 82.0372 121.598 77.9371C121.546 76.3996 120.539 74.4908 118.715 75.0477C112.448 76.9646 106.803 78.9823 100.868 81.7587C99.218 82.5295 96.889 83.5384 95.3768 84.5513" fill="#FFC098"/>
<path d="M89.6309 98.5825C91.6323 99.4138 93.6096 100.483 94.9803 102.162C96.634 104.188 97.2243 106.851 97.7662 109.41" stroke="black" stroke-width="1.5" stroke-linecap="round" stroke-linejoin="round"/>
<path d="M97.0781 105.834C99.6457 104.616 101.591 103.554 103.924 101.928C104.417 101.585 104.906 101.234 105.42 100.927" stroke="black" stroke-width="1.5" stroke-linecap="round" stroke-linejoin="round"/>
<path d="M104.644 90.0596C104.13 90.3622 103.633 90.6931 103.164 91.0604C101.814 92.1257 100.738 93.4897 99.6746 94.8416C98.2069 96.7101 96.0517 99.4663 94.584 101.339" stroke="black" stroke-width="1.5" stroke-linecap="round" stroke-linejoin="round"/>
<path d="M88.4507 104.381C89.6597 110.931 88.107 117.622 87.4116 124.244C87.2377 125.899 87.1245 127.61 87.6218 129.196" stroke="black" stroke-width="1.5" stroke-linecap="round" stroke-linejoin="round"/>
<path d="M86.6465 93.5464C86.7314 95.3341 87.0468 96.8515 87.532 98.0782" stroke="black" stroke-width="1.5" stroke-linecap="round" stroke-linejoin="round"/>
<path d="M73.3849 226.427C87.2254 194.45 94.5076 178.518 104.103 156.149C76.1951 141.984 68.7269 138.014 44.503 126.339C43.9935 127.562 15.2733 207.251 15.2733 207.251C6.79428 227.553 11.5008 250.967 27.1851 266.419C55.6142 294.425 84.6013 321.273 114.15 347.488L147.241 274.248C114.001 254.054 104.341 249.127 73.3849 226.431V226.427Z" fill="#3AA176"/>
<path d="M274.45 93.6554C274.648 89.9508 273.859 85.0678 271.514 79.1962C270.35 76.2826 269.23 72.8605 269.978 69.7047C270.459 67.6749 272.282 64.8137 274.623 66.5288C275.654 67.2834 276.241 68.482 276.787 69.6321L282.589 81.8273C283.717 84.1962 284.542 86.7022 285.003 89.2849C285.528 92.2389 295.867 120.084 298.087 127.844C299.409 132.461 300.655 141.557 300.578 146.359L280.976 152.945C272.21 151.02 264.725 140.382 263.035 138.845C259.74 135.846 256.723 132.545 253.262 129.737C250.161 127.219 246.74 125.12 243.603 122.646C242.22 121.553 240.853 120.338 240.307 118.607C240.008 117.654 240.024 116.613 240.489 115.73C241.577 113.663 244.274 113.659 246.364 114.317C250.715 115.689 254.136 119.031 258.203 121.093C259.372 121.686 260.645 122.178 261.951 122.073C263.799 121.924 265.316 120.625 266.694 119.386C267.341 118.805 267.992 118.219 268.639 117.638C269.201 117.134 269.355 116.29 268.951 115.657C268.951 115.653 268.947 115.649 268.942 115.645C268.51 114.987 267.798 114.575 267.099 114.212C264.798 113.006 262.388 112.013 259.982 111.024C259.097 110.661 258.191 110.29 257.233 110.217C256.238 110.14 255.252 110.391 254.289 110.657C249.7 111.928 245.082 113.675 240.335 113.3C238.746 113.175 236.587 112.614 236.062 110.879C235.811 110.048 236.017 109.111 236.47 108.389C237.101 107.384 238.112 106.989 239.187 106.605C239.834 106.375 240.477 106.129 241.124 105.895C242.725 105.318 244.33 104.769 245.932 104.192C246.651 103.934 247.375 103.696 248.099 103.45C249.571 102.949 251.01 102.356 252.506 101.928C252.741 101.86 254.01 101.432 256.028 101.141C255.68 100.919 255.324 100.709 254.952 100.54C254.075 100.136 253.117 99.9386 252.17 99.7449C248.92 99.075 245.673 98.4011 242.422 97.7312C238.831 96.9887 235.031 96.1412 232.39 93.6029C231.662 92.9048 231.032 92.0654 230.781 91.0888C230.599 90.3786 230.664 89.5351 231.201 89.0347C231.707 88.5666 232.463 88.5263 233.154 88.5182C239.761 88.4536 249.3 89.297 256.877 90.318C255.927 89.7167 254.908 89.2204 253.897 88.7321C251.552 87.5941 249.203 86.4601 246.857 85.3221C243.809 83.8451 239.361 82.0372 239.503 77.9371C239.555 76.3996 240.562 74.4908 242.385 75.0477C248.653 76.9646 254.297 78.9823 260.233 81.7587C261.883 82.5295 264.212 83.5384 265.724 84.5513" fill="#FFC098"/>
<path d="M271.473 98.5825C269.472 99.4138 267.494 100.483 266.124 102.162C264.47 104.188 263.88 106.851 263.338 109.41" stroke="black" stroke-width="1.5" stroke-linecap="round" stroke-linejoin="round"/>
<path d="M264.021 105.834C261.454 104.616 259.509 103.554 257.176 101.928C256.682 101.585 256.193 101.234 255.68 100.927" stroke="black" stroke-width="1.5" stroke-linecap="round" stroke-linejoin="round"/>
<path d="M256.461 90.0596C256.974 90.3622 257.472 90.6931 257.941 91.0604C259.291 92.1257 260.367 93.4897 261.43 94.8416C262.898 96.7101 265.053 99.4663 266.521 101.339" stroke="black" stroke-width="1.5" stroke-linecap="round" stroke-linejoin="round"/>
<path d="M272.65 104.381C271.441 110.931 272.993 117.622 273.689 124.244C273.863 125.899 273.976 127.61 273.479 129.196" stroke="black" stroke-width="1.5" stroke-linecap="round" stroke-linejoin="round"/>
<path d="M274.458 93.5464C274.373 95.3341 274.057 96.8515 273.572 98.0782" stroke="black" stroke-width="1.5" stroke-linecap="round" stroke-linejoin="round"/>
<path d="M287.716 226.427C273.875 194.45 266.593 178.518 256.998 156.149C284.906 141.984 292.374 138.014 316.598 126.339C317.107 127.562 345.828 207.251 345.828 207.251C354.307 227.553 349.6 250.967 333.916 266.419C305.487 294.425 276.5 321.273 246.951 347.488L213.859 274.248C247.1 254.054 256.76 249.127 287.716 226.431V226.427Z" fill="#3AA176"/>
<path d="M274.842 428H86.2662V427.831C86.1409 417.54 87.4186 406.77 89.691 395.898C100.976 341.826 136.623 285.386 143.933 274.203C144.786 272.9 145.251 272.21 145.251 272.21C156.217 276.484 168.388 278.655 180.558 278.699C192.709 278.76 204.875 276.697 215.881 272.521C215.881 272.521 216.338 273.11 217.143 274.163C224.384 285.237 260.08 341.709 271.405 395.817C273.2 406.439 274.345 417.125 274.838 427.835C274.838 427.895 274.846 427.944 274.846 428.004L274.842 428Z" fill="#3AA176"/>
<mask id="mask1_9076_23932" style="mask-type:luminance" maskUnits="userSpaceOnUse" x="11" y="126" width="339" height="302">
<path d="M333.92 266.415C307.585 292.359 280.774 317.311 253.473 341.681C260.88 358.747 267.548 377.419 271.401 395.817C273.192 406.434 274.337 417.12 274.83 427.835C274.83 427.891 274.842 427.944 274.842 428H86.2622V427.835C86.1369 417.544 87.4186 406.769 89.687 395.898C93.5322 377.472 100.208 358.771 107.627 341.681C80.3306 317.311 53.5188 292.359 27.1842 266.415C11.4999 250.967 6.78934 227.553 15.2683 207.251C15.2683 207.251 43.9885 127.562 44.5021 126.339C68.726 138.018 76.1942 141.984 104.102 156.149C94.5067 178.518 87.2245 194.45 73.384 226.431C103.592 248.57 113.519 253.8 144.855 272.799C145.114 272.408 145.247 272.21 145.247 272.21C156.213 276.483 168.383 278.655 180.554 278.699C192.7 278.759 204.871 276.697 215.877 272.521C215.877 272.521 215.966 272.638 216.14 272.864C247.561 253.812 257.48 248.594 287.716 226.431C273.876 194.45 266.597 178.518 256.998 156.149C284.906 141.984 292.374 138.018 316.602 126.339C317.112 127.562 345.832 207.251 345.832 207.251C354.311 227.553 349.604 250.967 333.92 266.415Z" fill="white"/>
</mask>
<g mask="url(#mask1_9076_23932)">
<path d="M90.6736 227.291C74.1887 243.28 58.371 259.74 49.1925 281.266C46.4672 287.658 42.0438 299.268 48.8164 304.764C59.7821 313.663 85.0412 297.698 93.5525 291.649C111.275 279.058 126.296 262.755 132.883 241.714C134.088 237.868 139.239 218.711 131.035 217.529C126.227 216.835 118.832 228.001 116.709 230.531C104.902 244.607 95.0971 259.062 88.2678 276.032C79.2147 298.538 72.1145 323.562 79.4573 347.714C86.145 369.724 109.184 374.227 129.345 366.068C156.391 355.115 175.508 326.661 189.256 302.331C196.881 288.836 211.563 258.905 199.17 243.885C186.813 228.909 163.798 265.229 160.285 271.193C146.937 293.84 140.12 324.09 139.582 350.164C139.283 364.788 141.341 389.013 153.516 399.259C169.718 412.891 197.739 390.438 208.874 378.86C226.41 360.62 245.123 335.83 249.676 310.475C251.318 301.334 253.934 284.159 239.778 287.896C227.749 291.072 214.737 308.554 208.971 319.474C203.731 329.401 199.679 340.099 197.771 351.164C195.074 366.806 197.52 385.886 210.006 397.177C232.787 417.778 268.91 377.432 272.048 352.072C272.376 349.421 269.181 347.847 267.224 349.671C262.635 353.945 258.749 361.164 256.683 365.466C250.877 377.557 251.94 392.379 255.773 404.861C257.342 409.978 261.349 418.029 266.638 424.562" stroke="#13CA7E" stroke-width="3" stroke-miterlimit="10"/>
<path d="M237.468 210.301C235.103 226.185 227.805 242.621 237.222 256.415C244.411 266.939 256.403 274.679 269.718 268.683C283.417 262.512 292.499 249.187 297.351 235.41C301.261 224.308 306.307 201.915 297.982 191.576C288.658 180.003 267.596 225.563 265.311 232.545C257.556 256.229 256.448 290.712 283.721 302.117C313.12 314.409 338.634 266.104 344.63 245.152C346.854 237.387 353.857 200.321 336.087 205.265C324.377 208.521 318.898 239.034 317.406 247.541C314.317 265.135 315.053 284.433 319.824 301.628C320.532 304.175 322.764 311.322 326.019 318.856" stroke="#13CA7E" stroke-width="3" stroke-miterlimit="10"/>
<path d="M260.176 139.894C264.838 157.961 267.656 175.168 288.811 177.573C300.618 178.917 314.005 174.567 320.402 164.268C328.076 151.904 331.578 130.673 325.412 117.146C321.275 108.07 315.918 106.085 307.758 113.288C288.512 130.281 296.845 162.678 314.058 177.844C325.731 188.126 343.927 182.585 349.373 167.711" stroke="#13CA7E" stroke-width="3" stroke-miterlimit="10"/>
<path d="M57.1538 116.218C38.8413 130.499 8.17622 149.232 1.58145 174.038C-3.84479 194.446 14.3626 201.314 32.3557 199.853C54.6186 198.046 76.5621 189.26 90.9444 171.895C92.3718 170.172 114.287 138.881 103.236 136.351C98.9989 135.382 83.2135 154.458 81.3131 156.367C73.0767 164.644 65.4387 172.941 58.9006 182.658C51.7114 193.34 46.6208 207.113 57.7442 217.472C72.2518 230.991 92.8731 212.485 102.759 201.778C108.27 195.806 122.281 181.27 118.755 172.521C106.588 170.322 92.6548 190.903 89.6384 200.895C87.8351 206.875 87.2811 216.883 90.3743 224.115" stroke="#13CA7E" stroke-width="3" stroke-miterlimit="10"/>
</g>
<path d="M253.343 341.794C240.946 313.206 222.896 283.602 216.062 272.795" stroke="black" stroke-width="1.5" stroke-linecap="round" stroke-linejoin="round"/>
<path d="M107.574 341.794C119.971 313.206 138.021 283.602 144.854 272.795" stroke="black" stroke-width="1.5" stroke-linecap="round" stroke-linejoin="round"/>
</g>
<defs>
<clipPath id="clip0_9076_23932">
<rect width="282" height="210" fill="white" transform="translate(251)"/>
</clipPath>
<clipPath id="clip1_9076_23932">
<rect width="350" height="362" fill="white" transform="translate(0 66)"/>
</clipPath>
</defs>
</svg>
