<svg width="126" height="126" viewBox="0 0 126 126" fill="none" xmlns="http://www.w3.org/2000/svg">
<path fill-rule="evenodd" clip-rule="evenodd" d="M63.0105 0C63.3932 0 64.0219 0.3 64.4592 0.681818C64.8692 1.06364 65.2519 1.63636 65.3339 1.99091C65.4159 2.31818 65.4433 9.32727 65.3339 32.5091L64.6506 33.1091C64.0765 33.6 63.5025 33.7364 61.097 33.9C59.4843 33.9818 57.0242 34.3909 55.4934 34.7727C53.99 35.1818 51.8852 35.8909 50.8465 36.3818C49.8078 36.8727 48.0584 37.8273 47.0196 38.5091C45.9809 39.2182 44.3135 40.5 43.3568 41.3727C42.4001 42.2455 40.842 43.9909 39.8853 45.2727C38.9285 46.5545 37.6712 48.5727 37.0698 49.7727C36.4684 50.9727 35.6484 52.9364 35.2657 54.1364C34.8557 55.3364 34.3363 57.5455 34.1176 59.0455C33.8443 60.9 33.7623 62.7545 33.8716 64.7727C33.9536 66.4364 34.2543 68.7545 34.5823 69.9545C34.883 71.1545 35.539 73.1182 36.0037 74.3182C36.4958 75.5182 37.5891 77.5364 38.4092 78.8182C39.2566 80.1 40.7326 81.9818 41.7167 83.0182C42.6734 84.0273 44.3408 85.5273 45.3796 86.3182C46.4183 87.1364 48.2224 88.2818 49.3431 88.8818C50.4638 89.4818 52.3226 90.3 53.4433 90.6818C54.564 91.0636 56.5321 91.5546 57.8169 91.7727C59.1016 92.0182 61.261 92.1818 62.6004 92.1818C63.9398 92.1818 66.0993 92.0182 67.384 91.8C68.6688 91.5546 70.6915 91.0636 71.8943 90.6545C73.097 90.2455 74.8191 89.5636 75.7211 89.1273C76.6232 88.6636 78.2086 87.7364 79.2746 87.0273C80.3407 86.3455 82.0901 84.9273 83.2108 83.8636C84.3042 82.8273 85.8077 81.1636 86.5184 80.1818C87.2291 79.2 88.2404 77.6182 88.7871 76.6364C89.3065 75.6545 90.1265 73.8273 90.5639 72.5455C91.0013 71.2636 91.5206 69.5455 91.6846 68.7273C91.8486 67.9091 92.0946 66 92.2313 64.5C92.45 62.2909 92.614 61.6636 93.0787 61.2273C93.6254 60.6818 94.0081 60.6818 109.042 60.6818C124.076 60.6818 124.459 60.6818 125.06 61.2273C125.388 61.5273 125.771 62.0455 125.908 62.3727C126.072 62.8091 126.017 63.3 125.744 63.9545C125.525 64.4727 125.088 65.0182 124.787 65.1818C124.486 65.3455 121.972 65.4545 118.965 65.4545C114.263 65.4273 113.662 65.4818 113.279 65.9182C113.006 66.2182 112.76 67.1727 112.65 68.3182C112.541 69.3818 112.213 71.4545 111.912 72.9545C111.612 74.4545 110.983 76.8545 110.518 78.2727C110.054 79.6909 109.179 82.0364 108.55 83.4546C107.921 84.8727 106.746 87.1636 105.953 88.5C105.133 89.8364 103.794 91.8818 102.947 93C102.127 94.1182 100.705 95.8364 99.803 96.8182C98.8737 97.8 97.1516 99.4909 95.9488 100.582C94.7461 101.7 92.286 103.582 90.4819 104.782C88.6778 105.982 85.9717 107.564 84.4682 108.3C82.9648 109.009 80.2587 110.1 78.4546 110.7C76.6505 111.327 74.6551 111.818 73.999 111.818C73.0697 111.818 72.7416 111.682 72.3043 111.055C71.9763 110.645 71.7303 109.936 71.7576 109.5C71.7576 109.064 71.9489 108.409 72.1676 108.055C72.4683 107.618 73.5343 107.155 76.2132 106.309C78.1813 105.682 81.2974 104.427 83.1015 103.527C84.9056 102.6 87.3657 101.155 88.5685 100.309C89.7712 99.4364 91.63 97.9636 92.696 97.0364C93.7894 96.0818 95.5388 94.3364 96.6049 93.1364C97.6983 91.9364 99.3657 89.7818 100.322 88.3636C101.252 86.9455 102.619 84.6 103.329 83.1818C104.04 81.7636 105.106 79.1727 105.68 77.4545C106.254 75.7364 106.91 73.2818 107.183 72C107.429 70.7182 107.648 68.7545 107.703 65.5909L102.646 65.5091C98.737 65.4546 97.5069 65.5091 97.2882 65.7818C97.1242 65.9727 96.8236 67.1182 96.6322 68.3182C96.4409 69.5182 96.0035 71.5091 95.6482 72.7364C95.2928 73.9909 94.5001 76.0636 93.8714 77.3727C93.27 78.7091 92.122 80.7545 91.3019 81.9546C90.5092 83.1545 88.9511 85.1182 87.8304 86.2909C86.737 87.4636 84.7963 89.2364 83.5115 90.1909C82.2268 91.1455 80.0127 92.5091 78.5913 93.2455C77.1699 93.9818 75.0104 94.9091 73.8077 95.2909C72.605 95.7 70.5822 96.2182 69.2975 96.4364C68.0127 96.6545 66.6733 96.9273 65.6073 97.2273L65.4706 110.727C65.3886 118.145 65.2519 124.418 65.1426 124.636C65.0332 124.855 64.6232 125.264 64.2405 125.509C63.8578 125.782 63.2838 126 62.9558 126C62.6004 126 62.0538 125.782 61.7531 125.509C61.4251 125.264 61.015 124.773 60.851 124.418C60.6597 124.036 60.5503 121.991 60.5503 118.827C60.5777 115.118 60.4957 113.782 60.2223 113.536C60.031 113.345 58.8283 113.073 57.5435 112.909C56.2588 112.745 54.0447 112.364 52.6233 112.036C51.2019 111.736 48.7964 111.055 47.293 110.536C45.7896 110.018 43.2748 108.982 41.6894 108.218C40.1039 107.482 37.7805 106.173 36.4958 105.355C35.211 104.509 33.4889 103.309 32.6689 102.682C31.8488 102.055 30.1268 100.555 28.8694 99.3818C27.612 98.2091 25.6985 96.1091 24.6051 94.7727C23.4844 93.4091 21.9537 91.2818 21.1336 90C20.3409 88.7182 19.0835 86.4546 18.3455 84.9546C17.6074 83.4546 16.5414 80.7545 15.94 78.9545C15.3387 77.1545 14.7646 75.1364 14.6826 74.4545C14.5459 73.3909 14.628 73.1182 15.2567 72.4636C15.7487 71.9727 16.2407 71.7273 16.8694 71.7273C17.3614 71.7 18.0448 71.9182 18.3728 72.1909C18.7828 72.5182 19.2202 73.5 19.6849 75.1364C20.0949 76.4727 20.8329 78.6818 21.3796 80.0455C21.899 81.3818 22.8284 83.4273 23.4571 84.5455C24.0584 85.6636 25.3158 87.6818 26.2179 89.0182C27.1473 90.3545 29.0607 92.7 30.4821 94.1727C31.9035 95.6727 34.1996 97.7455 35.539 98.8091C36.8784 99.8455 39.1199 101.345 40.4593 102.136C41.7987 102.955 43.9035 104.018 45.1062 104.536C46.3089 105.027 48.277 105.791 49.4798 106.173C50.6825 106.555 52.4593 107.073 53.4433 107.291C54.4274 107.509 56.2588 107.809 57.5435 107.973C59.3749 108.218 59.949 108.218 60.2223 107.945C60.4957 107.673 60.5777 106.309 60.5503 102.464C60.5503 97.4455 60.5503 97.3636 59.949 97.1182C59.5936 96.9818 58.3909 96.7364 57.2702 96.5455C56.1494 96.3818 53.9353 95.8091 52.3499 95.2909C50.7645 94.7727 48.3864 93.7636 47.047 93.0546C45.7349 92.3455 43.6301 91.0091 42.4001 90.1091C41.1973 89.1818 39.2839 87.4636 38.1632 86.2909C37.0698 85.0909 35.5117 83.1545 34.6917 81.9546C33.899 80.7545 32.8329 78.8455 32.2862 77.7273C31.7668 76.6091 31.0288 74.7 30.6188 73.5C30.2361 72.3 29.7167 70.1455 29.4707 68.7273C29.1974 67.1182 28.8694 66 28.596 65.7818C28.268 65.5091 25.2338 65.4545 15.0926 65.4545C5.2248 65.4545 1.88996 65.3727 1.34326 65.1C0.933239 64.9364 0.441214 64.4455 0.249871 64.0091C0.0311925 63.6 -0.0508116 63.0545 0.0311927 62.7818C0.113197 62.5364 0.331875 62.0455 0.495883 61.7182C0.687226 61.3636 1.09725 60.9818 1.42527 60.8182C1.78062 60.6545 4.35008 60.5455 7.30224 60.5455C11.2658 60.5727 12.6598 60.4909 12.9059 60.2182C13.0972 60.0273 13.3706 58.6909 13.5346 57.2727C13.6986 55.8545 14.0813 53.5091 14.3819 52.0909C14.6826 50.6727 15.3933 48.0818 15.9674 46.3636C16.5414 44.6455 17.7168 41.8091 18.5915 40.0909C19.4662 38.3727 20.8603 35.9182 21.7077 34.6364C22.5277 33.3545 24.1131 31.2818 25.1792 30C26.2726 28.7182 27.858 27 28.7327 26.1545C29.6347 25.3091 31.0835 24.0273 31.9855 23.2909C32.8876 22.5545 34.6643 21.2455 35.9491 20.4C37.2338 19.5545 39.6119 18.1909 41.2793 17.3455C42.9468 16.5273 45.7896 15.3545 47.6483 14.7545C50.7098 13.7182 51.0652 13.6636 51.8579 13.9909C52.3773 14.2091 52.9239 14.7 53.1153 15.1636C53.334 15.6 53.416 16.2818 53.334 16.6909C53.252 17.1273 52.9239 17.6727 52.5959 17.9182C52.2952 18.1909 50.7918 18.8182 49.2611 19.3091C47.7303 19.8 44.9969 20.9455 43.1928 21.8182C41.3887 22.7182 38.7645 24.3 37.3431 25.3091C35.9217 26.3182 33.7076 28.1182 32.4229 29.3455C31.1381 30.5727 29.3887 32.4 28.5413 33.4364C27.694 34.4727 26.3819 36.2455 25.6439 37.3636C24.8785 38.4818 23.7578 40.4182 23.1291 41.6455C22.5277 42.9 21.6257 44.8636 21.161 46.0091C20.6963 47.1818 19.9856 49.4727 19.5482 51.1364C19.1382 52.8 18.6462 55.4182 18.4822 57C18.2088 59.3182 18.2088 59.9182 18.5095 60.2182C18.7828 60.4909 20.0949 60.5727 23.7031 60.5455C28.0493 60.5455 28.596 60.4909 28.8147 60.0545C28.924 59.8091 29.1974 58.6091 29.3887 57.4091C29.5801 56.2091 30.1268 54 30.6188 52.5C31.1108 51 31.9035 48.9818 32.3955 48C32.8876 47.0182 33.9263 45.2455 34.719 44.0455C35.5117 42.8455 37.0698 40.9091 38.1632 39.7091C39.2839 38.5364 41.2247 36.7636 42.5094 35.8091C43.7941 34.8545 46.3089 33.3273 48.113 32.4545C49.9991 31.5273 52.5139 30.5455 53.99 30.1364C55.4114 29.7818 57.2702 29.4 58.0902 29.2909C58.9103 29.1818 59.8123 29.0182 60.0583 28.8818C60.523 28.6636 60.5503 27.7364 60.5503 15.4091C60.5503 6.21818 60.6323 1.99091 60.851 1.55455C61.015 1.22727 61.4251 0.736363 61.7531 0.490909C62.0538 0.218182 62.6278 0 63.0105 0ZM101.935 9.92727C102.4 10.0091 103.056 10.3909 103.384 10.7727C103.985 11.4273 104.013 11.6455 104.013 16.6909C104.013 21.3 104.095 22.0091 104.505 22.4455C104.915 22.8818 105.516 22.9364 110.081 22.9091C112.978 22.9091 115.466 23.0182 115.767 23.1818C116.067 23.3182 116.477 23.8636 116.696 24.3273C116.887 24.8182 116.997 25.4727 116.942 25.7727C116.887 26.0727 112.705 30.4636 98.409 44.7273H92.122C88.6778 44.7273 85.6436 44.8364 85.425 44.9727C85.2063 45.1091 80.3407 49.9091 74.6277 55.6364C65.8533 64.3909 64.1039 66.0546 63.2838 66.1909C62.4638 66.3546 62.2178 66.2455 61.4251 65.5091C60.8237 64.9091 60.5503 64.3909 60.5503 63.8182C60.5503 63.1091 61.9717 61.5545 82.1721 41.0455V28.2273L86.737 23.6182C89.2518 21.1091 93.4887 16.9364 96.1949 14.4C100.814 10.0091 101.115 9.76364 101.935 9.92727ZM86.737 30.6273C86.7917 37.2273 86.9284 39.3273 87.065 39.5455C87.2564 39.8727 88.1584 39.9818 91.63 40.0364L95.9488 40.1182C104.423 31.6364 106.91 28.9909 106.937 28.7727C106.992 28.5545 106.828 28.1727 106.609 27.9545C106.309 27.6545 105.543 27.5455 103.466 27.5455C100.787 27.5455 100.705 27.5182 99.9124 26.7273C99.1197 25.9364 99.0923 25.8545 99.0923 23.2364C99.0923 21.4636 98.983 20.4818 98.7643 20.2364C98.573 20.0455 98.1356 19.9091 97.8076 19.9091C97.4249 19.9091 95.5662 21.6 91.9853 25.2818L86.737 30.6273ZM62.5184 42.8455C63.3385 42.8182 63.7212 42.9818 64.3772 43.6091C64.9239 44.1545 65.1973 44.7 65.1973 45.2455C65.1973 45.7091 64.9239 46.3909 64.5686 46.7727C64.0492 47.3727 63.6118 47.5091 61.6984 47.7273C60.4683 47.8636 58.7462 48.2182 57.8715 48.5455C57.0242 48.8455 55.7668 49.4182 55.0834 49.8C54.4 50.2091 53.0059 51.3545 51.9946 52.3909C50.7098 53.7 49.8898 54.8455 49.2338 56.2364C48.7144 57.3273 48.1677 58.8545 48.0037 59.6455C47.8397 60.4364 47.703 61.9364 47.703 62.9727C47.703 64.0364 47.8397 65.5364 48.0037 66.3273C48.1677 67.1182 48.7417 68.6727 49.2884 69.7909C49.9991 71.2909 50.7918 72.3818 52.1859 73.7727C53.6073 75.1909 54.6734 75.9818 56.1768 76.6909C57.2975 77.2091 58.8556 77.7818 59.6483 77.9454C60.441 78.1091 62.0538 78.2455 63.2018 78.2455C64.3772 78.2455 66.0446 78.0818 66.892 77.8364C67.7667 77.6182 69.2428 77.0455 70.1722 76.5818C71.2109 76.0636 72.605 75 73.6984 73.9091C74.9831 72.6273 75.7758 71.5364 76.4592 70.0636C77.0059 68.9455 77.6346 67.1455 77.8806 66.0546C78.1266 64.9636 78.3179 63.7091 78.3179 63.2455C78.3179 62.8091 78.4546 62.1545 78.6186 61.8273C78.81 61.4727 79.138 61.0636 79.384 60.8727C79.63 60.6818 80.2587 60.5455 80.7781 60.5182C81.3521 60.5182 81.9535 60.7364 82.3361 61.0636C82.6915 61.3636 83.0468 61.9636 83.1288 62.3727C83.2382 62.7818 83.2382 63.8455 83.1288 64.7455C83.0468 65.6455 82.7735 67.1182 82.5548 68.0182C82.3088 68.9182 81.5981 70.7727 80.9421 72.1091C80.0947 73.8545 79.1653 75.1636 77.8532 76.5818C76.8419 77.7 75.2018 79.1182 74.2177 79.7727C73.2337 80.4273 71.6756 81.2727 70.7189 81.6545C69.7895 82.0364 68.0674 82.5546 66.892 82.8C65.3886 83.1 63.9672 83.1818 61.9171 83.1C59.6483 82.9909 58.5276 82.7727 56.5868 82.1182C55.2201 81.6273 53.4433 80.8636 52.6506 80.3727C51.8306 79.8818 50.2998 78.6818 49.2611 77.7C48.2224 76.7455 46.8283 75.1364 46.1723 74.1545C45.5162 73.2 44.6962 71.6455 44.3135 70.7455C43.9581 69.8455 43.4388 68.0727 43.1654 66.7909C42.8374 65.1 42.7554 63.7909 42.8648 61.8818C42.9468 60.4636 43.2748 58.4455 43.6028 57.3818C43.9308 56.3455 44.6142 54.6818 45.1335 53.7C45.6256 52.7455 46.637 51.1909 47.375 50.2909C48.0857 49.3909 49.4251 48.0818 50.2998 47.3455C51.2019 46.6364 52.9239 45.5727 54.1267 44.9727C55.3294 44.4 56.8601 43.7727 57.5435 43.6091C58.2269 43.4182 59.3749 43.1727 60.1403 43.0636C60.8784 42.9545 61.9717 42.8455 62.5184 42.8455Z" fill="url(#paint0_linear_6446_25809)"/>
<defs>
<linearGradient id="paint0_linear_6446_25809" x1="16.6162" y1="24.2308" x2="120.387" y2="24.7381" gradientUnits="userSpaceOnUse">
<stop stop-color="#F8BF3B"/>
<stop offset="0.305" stop-color="#FF8B13"/>
<stop offset="1" stop-color="#EF5F3D"/>
</linearGradient>
</defs>
</svg>
