<svg width="360" height="526" viewBox="0 0 360 526" fill="none" xmlns="http://www.w3.org/2000/svg">
<path fill-rule="evenodd" clip-rule="evenodd" d="M98.7201 145H-2V45H219.75C273.184 45 316.5 88.3164 316.5 141.75C316.5 185.081 288.015 221.759 248.748 234.079C295.304 241.075 331 281.244 331 329.75C331 374.899 300.074 412.825 258.25 423.5H361V523.5H200.5C146.1 523.5 102 479.4 102 425C102 383.026 128.254 347.184 165.237 333H133.75C80.0403 333 36.5 289.46 36.5 235.75C36.5 194.39 62.3197 159.06 98.7201 145Z" fill="#2C3D68"/>
<path opacity="0.25" d="M-2 83H165.583C190.942 83 211.5 103.558 211.5 128.917V128.917C211.5 154.277 190.942 174.835 165.583 174.835H145.935C118.081 174.835 95.5 197.416 95.5 225.27V225.27C95.5 253.125 118.081 275.705 145.935 275.705H232.583C259.323 275.705 281 297.383 281 324.123V324.123C281 350.863 259.323 372.54 232.583 372.54H202.23C174.489 372.54 152 395.029 152 422.77V422.77C152 450.511 174.489 473 202.23 473H361" stroke="#DEDEDE" stroke-width="2" stroke-linejoin="round" stroke-dasharray="6 6"/>
<path d="M4.09612 4.3842C4.14418 4.2696 4.30759 4.1029 4.46139 4.01956C4.64402 3.91537 5.06696 3.8737 5.94168 3.86328C6.70104 3.86328 7.17204 3.90495 7.17204 3.96746C7.17204 4.01956 7.10476 4.09248 7.02786 4.12374C6.95096 4.15499 6.81639 4.34252 6.73949 4.54047C6.61453 4.85302 6.59531 5.94695 6.59531 12.1979C6.59531 18.4489 6.61453 19.5429 6.73949 19.8554C6.81639 20.0534 6.95096 20.2409 7.02786 20.2722C7.10476 20.3034 7.17204 20.3659 7.17204 20.4284C7.17204 20.4909 6.67221 20.5326 4.57674 20.5326L4 19.9075V12.25C4 7.35342 4.03845 4.51964 4.09612 4.3842Z" fill="#EE5253"/>
<path d="M46.4093 4.57173L46.7265 4.2175L47.0437 3.86328H48.3029C48.995 3.86328 49.5621 3.88412 49.5621 3.91537C49.5621 3.94663 49.4564 4.1029 49.0815 4.59256V19.8033L49.3218 20.1159C49.4564 20.293 49.5621 20.4493 49.5621 20.4805C49.5621 20.5118 49.0238 20.5326 48.3606 20.5326C47.5435 20.5326 47.0725 20.4909 46.8995 20.3868C46.7457 20.3138 46.5919 20.1575 46.5342 20.0534C46.4766 19.9283 46.4285 17.0737 46.4093 4.57173Z" fill="#EE5253"/>
<path d="M8.58505 19.8554C8.43125 19.8033 8.42164 19.3553 8.42164 12.3021C8.42164 5.22808 8.43125 4.80093 8.58505 4.80093C8.68117 4.81135 9.31558 4.91553 11.2573 5.28017L11.2765 12.7501C11.2957 18.6469 11.2765 20.2305 11.1804 20.2826C11.1227 20.3138 10.5459 20.2409 9.91154 20.1159C9.27713 20.0013 8.68117 19.8763 8.58505 19.8554Z" fill="#EE5253"/>
<path d="M4.43125 0.628911C4.53208 0.45072 4.77155 0.241083 4.97321 0.157228H4.96061C5.16227 0.073373 5.61601 0.0104819 5.96891 0C6.38484 0 6.77556 0.073373 7.01503 0.188673C7.2167 0.28301 7.46877 0.492647 7.58221 0.649875C7.72085 0.869994 7.77126 1.28927 7.77126 3.82588L4.24219 3.77347V2.35842C4.24219 1.31023 4.2926 0.859512 4.43125 0.628911Z" fill="#C7D2E5"/>
<path d="M47.2974 0.73373C47.3983 0.56602 47.6377 0.324938 47.8268 0.209637C48.0789 0.0524093 48.3562 0 48.9611 0C49.6291 0 49.8182 0.0419275 50.1333 0.262046C50.3476 0.408792 50.5618 0.702284 50.6374 0.911921C50.7005 1.13204 50.7635 1.86577 50.7635 3.77347H47.1084V2.41083C47.1084 1.40457 47.1588 0.964331 47.2974 0.73373Z" fill="#C7D2E5"/>
<path d="M4.44385 146.505C4.28 146.233 4.25479 50.7217 4.25479 36.6341V20.5444H7.78387V36.655C7.78387 52.5979 7.78387 146.243 7.53179 146.558C7.39315 146.725 7.15368 146.924 6.98983 146.998C6.83858 147.071 6.41005 147.124 6.04454 147.134C5.69163 147.134 5.21268 147.061 5.01102 146.977C4.79676 146.893 4.54468 146.673 4.44385 146.505Z" fill="#C7D2E5"/>
<path d="M47.2974 44.8004C47.1336 44.5279 47.1084 50.6274 47.1084 36.5817V20.5444H50.7635V36.5293C50.7635 49.5477 50.7383 44.444 50.5996 44.727C50.4988 44.9052 50.2593 45.1673 50.0577 45.3035C49.7678 45.4922 49.5283 45.5446 48.9359 45.5446C48.3688 45.5446 48.0915 45.4817 47.8268 45.3245C47.6377 45.2092 47.3983 44.9681 47.2974 44.8004Z" fill="#C7D2E5"/>
<path d="M6.50107 4.60022C6.5495 4.43293 6.69479 4.2029 6.81102 4.07743C6.9563 3.92059 7.12096 3.85786 7.31468 3.87877C7.47934 3.88923 7.70211 3.96242 7.82802 4.02515C7.94425 4.09834 8.09922 4.26563 8.16702 4.40156C8.2542 4.61068 8.27357 6.32542 8.1864 20.0643L7.92488 20.3153C7.76991 20.4616 7.52776 20.5662 7.36311 20.5662C7.19845 20.5662 6.97568 20.4616 6.84008 20.3362C6.70448 20.2002 6.5495 19.9702 6.50107 19.8134C6.43327 19.6147 6.39453 17.0949 6.39453 12.2016C6.39453 7.29781 6.42359 4.78842 6.50107 4.60022Z" fill="#FF6B6B"/>
<path d="M49.1959 4.62113L49.4671 4.22381C49.7189 3.85786 49.7673 3.83695 50.1257 3.87877C50.3678 3.91014 50.6003 4.03561 50.9974 4.46429V19.9598L50.6875 20.263C50.4647 20.4721 50.271 20.5662 50.0579 20.5662C49.8061 20.5557 49.6802 20.4721 49.1959 19.782V4.62113Z" fill="#FF6B6B"/>
<path d="M43.5878 5.23802C44.4692 5.09164 45.4475 4.90344 45.7671 4.83025C46.0867 4.75706 46.3967 4.69432 46.4451 4.68387C46.5129 4.67341 46.542 7.26644 46.542 19.8343L46.0577 19.9388C45.7962 19.9911 45.0504 20.1375 44.4111 20.2525C43.7718 20.3675 42.5708 20.5453 41.7475 20.6603C40.9242 20.7753 39.2873 20.9635 38.1154 21.0785C36.9434 21.1935 35.1128 21.3504 34.0474 21.4236C32.9335 21.4968 30.0665 21.549 27.3158 21.549C24.5456 21.549 21.698 21.4968 20.5842 21.4236C19.5187 21.3504 17.9109 21.2144 17.0004 21.1308C16.0997 21.0472 14.4628 20.859 13.3683 20.7126C12.2738 20.5766 11.3149 20.4303 11.2374 20.4094C11.1115 20.3675 11.0921 19.4265 11.0921 5.23802L11.8186 5.36349C12.2157 5.43668 13.3489 5.58306 14.3368 5.70853C15.3248 5.82355 16.9811 5.99084 18.0174 6.08494C19.0538 6.16859 20.9522 6.2836 22.2307 6.34633C23.5093 6.39861 25.7951 6.45089 27.3158 6.45089C28.8364 6.45089 31.1223 6.39861 32.4008 6.34633C33.6793 6.2836 35.5777 6.16859 36.6141 6.08494C37.6505 5.99084 39.2873 5.834 40.2462 5.71899C41.2051 5.59352 42.7064 5.3844 43.5878 5.23802Z" fill="#FF6B6B"/>
<path d="M17.3357 9.5009C17.4981 9.3623 17.7869 9.18104 17.9855 9.09575C18.184 9.01045 18.5902 8.94648 18.888 8.94648C19.1858 8.93582 19.6551 8.99979 19.9259 9.07442C20.1966 9.14906 20.5666 9.30899 20.7381 9.42627C20.9096 9.54355 21.1081 9.75679 21.1803 9.90606C21.2977 10.13 21.2886 10.2153 21.1352 10.5778C21.045 10.8123 20.8825 11.0362 20.7832 11.0789C20.6569 11.1322 20.4313 11.0576 20.0612 10.8443C19.6551 10.6097 19.3934 10.5351 18.9963 10.5351C18.5541 10.5351 18.4548 10.5778 18.3014 10.8017C18.166 10.9936 18.1389 11.1322 18.1931 11.3028C18.2382 11.4414 18.527 11.7506 18.8519 11.9958C19.1678 12.241 19.6461 12.6142 19.8988 12.8168C20.2147 13.0727 20.4674 13.3925 20.6479 13.755C20.8735 14.2242 20.9186 14.4374 20.9186 15.0345C20.9186 15.4503 20.8554 15.9301 20.7742 16.154C20.702 16.3779 20.5305 16.6977 20.3952 16.8577C20.2598 17.0283 19.989 17.2628 19.7905 17.3801C19.5739 17.5187 19.1858 17.6253 18.7977 17.6573C18.2923 17.7 18.0306 17.6573 17.4981 17.4547C17.0559 17.2842 16.6859 17.0603 16.4332 16.7937C16.1895 16.5485 16.0271 16.2819 16 16.0793C15.9729 15.8768 16.018 15.6422 16.1083 15.4396C16.1985 15.269 16.3881 15.0558 16.5234 14.9918C16.74 14.8745 16.8032 14.8852 16.9927 15.0665C17.1101 15.1837 17.3357 15.4076 17.5072 15.5782C17.6696 15.7382 17.9765 15.9194 18.184 15.9727C18.4638 16.0474 18.6624 16.0474 18.906 15.9407C19.1407 15.8554 19.2761 15.7168 19.3392 15.5143C19.4114 15.2797 19.3934 15.1411 19.2941 14.9279C19.2219 14.7679 18.7707 14.3414 18.3014 13.9789C17.8321 13.6164 17.2906 13.1153 17.101 12.8594C16.9115 12.6035 16.713 12.209 16.6588 11.9745C16.6137 11.7399 16.5956 11.3134 16.6227 11.0149C16.6588 10.727 16.7671 10.3112 16.8664 10.1086C16.9657 9.90606 17.1732 9.62885 17.3357 9.5009Z" fill="white"/>
<path d="M37.8224 9.60752C37.9578 9.44759 38.3549 9.37296 40.0336 9.1917C41.1617 9.06376 42.1725 8.95714 42.2808 8.94648C42.3981 8.94648 42.5696 9.03178 42.6689 9.14906C42.7952 9.29832 42.8494 9.51156 42.8494 9.8101C42.8554 10.1157 42.8042 10.3254 42.6959 10.4392C42.5967 10.5458 42.2898 10.6417 41.8566 10.6844C41.4866 10.7164 41.1707 10.759 41.1527 10.7803C41.1346 10.791 41.2339 12.2624 41.3602 14.0536C41.5949 17.2095 41.5949 17.3161 41.4324 17.4974C41.3422 17.604 41.0895 17.7213 40.8639 17.7533C40.548 17.7959 40.4126 17.7639 40.2592 17.6147C40.0697 17.4228 40.0426 17.2095 39.5552 10.9296L38.7881 11.0042C38.1203 11.0682 38.0029 11.0576 37.8585 10.887C37.7593 10.7697 37.6871 10.5138 37.678 10.2472C37.669 9.93804 37.7051 9.73547 37.8224 9.60752Z" fill="white"/>
<path d="M21.6316 10.2153C21.6226 10.002 21.6857 9.7248 21.776 9.59686C21.8843 9.41561 22.0106 9.3623 22.2994 9.37296C22.507 9.37296 23.5629 9.43693 24.6459 9.5009C26.2073 9.60752 26.6314 9.66083 26.6946 9.78878C26.7488 9.87407 26.8119 10.066 26.839 10.2153C26.8661 10.3645 26.8661 10.5884 26.839 10.7164C26.8119 10.855 26.7127 11.0362 26.6224 11.1322C26.4961 11.2815 26.3517 11.3028 25.025 11.1642L24.9618 11.9958C24.9257 12.4543 24.8535 13.8617 24.7994 15.1198C24.7452 16.3779 24.682 17.5081 24.664 17.6253C24.6459 17.7426 24.5015 17.9025 24.3301 17.9878C24.1405 18.0838 23.9149 18.1158 23.7164 18.0625C23.5449 18.0305 23.3463 17.9345 23.2832 17.8599C23.211 17.7746 23.1658 17.4547 23.1749 16.9536C23.1749 16.5378 23.211 15.3543 23.2651 14.3414C23.3102 13.3392 23.3734 12.1984 23.4456 11.1215L22.6514 11.0469C22.0377 10.9936 21.8392 10.9403 21.7489 10.7803C21.6857 10.6737 21.6316 10.4178 21.6316 10.2153Z" fill="white"/>
<path d="M28.2018 10.0766C28.2379 9.97003 28.4184 9.82076 28.5899 9.73547C28.7613 9.65017 28.987 9.5862 29.0862 9.5862C29.1855 9.57554 29.4111 9.61818 29.5826 9.67149C29.7541 9.73547 29.9436 9.84209 30.0068 9.91672C30.07 9.99135 30.5393 11.7612 31.0627 13.8403C31.9291 17.3161 32.0013 17.6467 31.884 17.8706C31.8028 17.9985 31.5771 18.1584 31.3605 18.2331C31.1169 18.3077 30.9003 18.3184 30.7559 18.2544C30.5754 18.1798 30.5032 18.0092 30.1512 16.5591H28.0213L27.8498 17.2522C27.7596 17.636 27.6242 18.0198 27.552 18.1051C27.4617 18.2011 27.2812 18.2544 27.0737 18.2331C26.8932 18.2224 26.6495 18.1371 26.5322 18.0518C26.4239 17.9665 26.2975 17.8066 26.2524 17.7106C26.1892 17.572 26.4419 16.5058 27.1459 13.8936C27.6783 11.8998 28.1567 10.1833 28.2018 10.0766Z" fill="white"/>
<path d="M32.6331 9.86341C32.7414 9.73547 32.958 9.67149 33.4182 9.65017C33.7702 9.62885 34.42 9.60752 34.8622 9.59686C35.3947 9.5862 35.846 9.62885 36.1709 9.74613C36.5048 9.86341 36.7665 10.0447 36.9831 10.3112C37.1546 10.5245 37.3531 10.887 37.4073 11.1215C37.4705 11.3561 37.5246 11.8359 37.5246 12.1877C37.5246 12.6355 37.4614 12.9874 37.317 13.3605C37.1997 13.6697 36.9741 14.0003 36.7936 14.1495C36.6221 14.2988 36.4777 14.4267 36.4597 14.4481C36.4506 14.4694 36.7033 14.9918 37.0192 15.6209C37.3351 16.2606 37.6329 16.879 37.6961 17.0069C37.7683 17.1989 37.7683 17.3161 37.669 17.54C37.6058 17.7106 37.3892 17.9239 37.1997 18.0412C36.938 18.1904 36.7846 18.2117 36.6221 18.1478C36.4597 18.0731 36.1979 17.6253 34.8622 14.8106L34.1854 14.7999L34.2485 16.2819C34.3117 17.5187 34.3027 17.7853 34.1854 17.9345C34.1132 18.0412 33.9056 18.1584 33.7341 18.2117C33.5536 18.2651 33.2919 18.2544 33.1204 18.2011C32.967 18.1478 32.8136 18.0625 32.7865 17.9985C32.7594 17.9345 32.6782 16.1327 32.606 13.9683C32.4796 10.2792 32.4796 10.0447 32.6331 9.86341Z" fill="white"/>
<path d="M34.0763 13.3369L34.0497 12.2645L34.0231 11.1816H34.6972C35.3182 11.1816 35.3803 11.2027 35.6286 11.497C35.8415 11.7494 35.8948 11.8965 35.8948 12.2855C35.8948 12.6325 35.8415 12.8322 35.6819 13.053C35.4778 13.3158 35.4158 13.3369 34.0763 13.3369Z" fill="#FF6B6B"/>
<path d="M28.4614 14.9349C28.4525 14.9243 28.5855 14.2936 28.7718 13.5261C28.9492 12.7586 29.1266 12.1383 29.171 12.1383C29.2153 12.1383 29.375 12.7166 29.5169 13.421C29.6589 14.1253 29.7742 14.7877 29.7742 14.8928C29.7742 15.061 29.7032 15.0715 29.1355 15.0085C28.7807 14.9769 28.4791 14.9349 28.4614 14.9349Z" fill="#FF6B6B"/>
<g filter="url(#filter0_d_6209_14828)">
<circle cx="78.5" cy="86" r="21" fill="#FF8B13"/>
<path d="M83.967 94.6782H81.0903C80.8995 94.6782 80.7166 94.6024 80.5817 94.4675C80.4469 94.3327 80.3711 94.1497 80.3711 93.959C80.3711 93.7683 80.4469 93.5853 80.5817 93.4505C80.7166 93.3156 80.8995 93.2398 81.0903 93.2398H83.967C84.2517 93.2646 84.535 93.1788 84.7582 93.0002C84.9814 92.8217 85.1273 92.5641 85.1656 92.2809V80.3234C85.1273 80.0402 84.9814 79.7826 84.7582 79.604C84.535 79.4255 84.2517 79.3397 83.967 79.3645H81.0903C80.8995 79.3645 80.7166 79.2887 80.5817 79.1538C80.4469 79.019 80.3711 78.836 80.3711 78.6453C80.3711 78.4546 80.4469 78.2716 80.5817 78.1368C80.7166 78.0019 80.8995 77.9261 81.0903 77.9261H83.967C84.2995 77.912 84.6315 77.9635 84.9441 78.0778C85.2567 78.1922 85.5436 78.367 85.7885 78.5923C86.0335 78.8177 86.2316 79.0891 86.3715 79.391C86.5114 79.693 86.5904 80.0196 86.604 80.3521V92.2521C86.5904 92.5847 86.5114 92.9113 86.3715 93.2132C86.2316 93.5152 86.0335 93.7866 85.7885 94.012C85.5436 94.2373 85.2567 94.4121 84.9441 94.5264C84.6315 94.6408 84.2995 94.6923 83.967 94.6782Z" fill="white"/>
<path d="M77.2537 90.8436C77.1592 90.844 77.0656 90.8256 76.9783 90.7894C76.891 90.7532 76.8119 90.6999 76.7455 90.6326C76.6108 90.4978 76.5352 90.315 76.5352 90.1244C76.5352 89.9338 76.6108 89.7511 76.7455 89.6162L80.0729 86.2888L76.7455 82.9614C76.6184 82.8251 76.5493 82.6448 76.5526 82.4584C76.5559 82.2721 76.6313 82.0944 76.7631 81.9626C76.8949 81.8308 77.0726 81.7554 77.259 81.7521C77.4453 81.7488 77.6256 81.8179 77.7619 81.945L81.5975 85.7806C81.7322 85.9154 81.8079 86.0982 81.8079 86.2888C81.8079 86.4794 81.7322 86.6622 81.5975 86.797L77.7619 90.6326C77.6955 90.6999 77.6164 90.7532 77.5291 90.7894C77.4418 90.8256 77.3482 90.844 77.2537 90.8436Z" fill="white"/>
<path d="M81.0913 87.0067H70.5434C70.3527 87.0067 70.1697 86.9309 70.0349 86.7961C69.9 86.6612 69.8242 86.4783 69.8242 86.2875C69.8242 86.0968 69.9 85.9139 70.0349 85.779C70.1697 85.6441 70.3527 85.5684 70.5434 85.5684H81.0913C81.2821 85.5684 81.465 85.6441 81.5999 85.779C81.7347 85.9139 81.8105 86.0968 81.8105 86.2875C81.8105 86.4783 81.7347 86.6612 81.5999 86.7961C81.465 86.9309 81.2821 87.0067 81.0913 87.0067Z" fill="white"/>
</g>
<path d="M54.1513 131.16C53.6819 131.16 53.2126 131.123 52.7433 131.048C52.2739 130.984 51.8313 130.883 51.4153 130.744C50.9993 130.595 50.6259 130.413 50.2953 130.2C50.1033 130.072 49.9699 129.917 49.8953 129.736C49.8206 129.555 49.7939 129.379 49.8153 129.208C49.8473 129.027 49.9166 128.872 50.0233 128.744C50.1406 128.605 50.2846 128.52 50.4553 128.488C50.6259 128.456 50.8126 128.504 51.0153 128.632C51.4846 128.909 51.9806 129.112 52.5033 129.24C53.0259 129.368 53.5753 129.432 54.1513 129.432C54.9939 129.432 55.6073 129.293 55.9913 129.016C56.3753 128.728 56.5673 128.36 56.5673 127.912C56.5673 127.539 56.4286 127.245 56.1513 127.032C55.8846 126.819 55.4206 126.643 54.7593 126.504L52.9993 126.136C51.9859 125.923 51.2286 125.565 50.7273 125.064C50.2366 124.552 49.9913 123.88 49.9913 123.048C49.9913 122.525 50.0979 122.051 50.3113 121.624C50.5246 121.197 50.8233 120.829 51.2073 120.52C51.6019 120.211 52.0659 119.976 52.5993 119.816C53.1433 119.645 53.7406 119.56 54.3913 119.56C55.0313 119.56 55.6393 119.64 56.2153 119.8C56.7913 119.96 57.3086 120.195 57.7673 120.504C57.9379 120.621 58.0499 120.765 58.1033 120.936C58.1673 121.107 58.1833 121.277 58.1513 121.448C58.1193 121.608 58.0446 121.747 57.9273 121.864C57.8099 121.981 57.6606 122.051 57.4792 122.072C57.3086 122.093 57.1113 122.04 56.8873 121.912C56.4926 121.688 56.0926 121.528 55.6873 121.432C55.2819 121.336 54.8446 121.288 54.3753 121.288C53.8846 121.288 53.4633 121.357 53.1113 121.496C52.7593 121.635 52.4873 121.832 52.2953 122.088C52.1139 122.333 52.0233 122.627 52.0233 122.968C52.0233 123.352 52.1513 123.661 52.4073 123.896C52.6633 124.12 53.1006 124.296 53.7193 124.424L55.4633 124.792C56.5193 125.016 57.3033 125.368 57.8153 125.848C58.3379 126.328 58.5993 126.968 58.5993 127.768C58.5993 128.28 58.4926 128.744 58.2793 129.16C58.0766 129.576 57.7779 129.933 57.3833 130.232C56.9993 130.531 56.5353 130.76 55.9913 130.92C55.4473 131.08 54.8339 131.16 54.1513 131.16ZM61.157 131.112C60.837 131.112 60.5917 131.016 60.421 130.824C60.2503 130.632 60.165 130.365 60.165 130.024V124.152C60.165 123.8 60.2503 123.533 60.421 123.352C60.5917 123.16 60.837 123.064 61.157 123.064C61.477 123.064 61.7223 123.16 61.893 123.352C62.0743 123.533 62.165 123.8 62.165 124.152V130.024C62.165 130.365 62.0797 130.632 61.909 130.824C61.7383 131.016 61.4877 131.112 61.157 131.112ZM61.157 121.576C60.7837 121.576 60.4903 121.485 60.277 121.304C60.0743 121.112 59.973 120.851 59.973 120.52C59.973 120.179 60.0743 119.917 60.277 119.736C60.4903 119.555 60.7837 119.464 61.157 119.464C61.541 119.464 61.8343 119.555 62.037 119.736C62.2397 119.917 62.341 120.179 62.341 120.52C62.341 120.851 62.2397 121.112 62.037 121.304C61.8343 121.485 61.541 121.576 61.157 121.576ZM67.8911 134.04C67.3151 134.04 66.7551 133.987 66.2111 133.88C65.6778 133.773 65.1925 133.608 64.7551 133.384C64.5525 133.277 64.4138 133.149 64.3391 133C64.2751 132.851 64.2538 132.696 64.2751 132.536C64.3071 132.387 64.3711 132.253 64.4671 132.136C64.5738 132.019 64.7018 131.939 64.8511 131.896C65.0005 131.853 65.1551 131.875 65.3151 131.96C65.7845 132.195 66.2271 132.344 66.6431 132.408C67.0698 132.483 67.4325 132.52 67.7311 132.52C68.4458 132.52 68.9791 132.344 69.3311 131.992C69.6938 131.651 69.8751 131.139 69.8751 130.456V129.016H70.0191C69.8591 129.56 69.5231 129.997 69.0111 130.328C68.5098 130.648 67.9391 130.808 67.2991 130.808C66.5951 130.808 65.9818 130.648 65.4591 130.328C64.9365 129.997 64.5311 129.539 64.2431 128.952C63.9551 128.365 63.8111 127.683 63.8111 126.904C63.8111 126.317 63.8911 125.789 64.0511 125.32C64.2218 124.84 64.4565 124.429 64.7551 124.088C65.0645 123.747 65.4325 123.485 65.8591 123.304C66.2965 123.112 66.7765 123.016 67.2991 123.016C67.9605 123.016 68.5365 123.181 69.0271 123.512C69.5285 123.832 69.8538 124.259 70.0031 124.792L69.8431 125.192V124.056C69.8431 123.725 69.9285 123.475 70.0991 123.304C70.2805 123.133 70.5258 123.048 70.8351 123.048C71.1551 123.048 71.4005 123.133 71.5711 123.304C71.7418 123.475 71.8271 123.725 71.8271 124.056V130.216C71.8271 131.485 71.4911 132.44 70.8191 133.08C70.1471 133.72 69.1711 134.04 67.8911 134.04ZM67.8431 129.288C68.2591 129.288 68.6165 129.192 68.9151 129C69.2138 128.808 69.4431 128.536 69.6031 128.184C69.7738 127.821 69.8591 127.395 69.8591 126.904C69.8591 126.168 69.6778 125.592 69.3151 125.176C68.9525 124.749 68.4618 124.536 67.8431 124.536C67.4271 124.536 67.0698 124.632 66.7711 124.824C66.4725 125.016 66.2378 125.288 66.0671 125.64C65.9071 125.992 65.8271 126.413 65.8271 126.904C65.8271 127.64 66.0085 128.221 66.3711 128.648C66.7338 129.075 67.2245 129.288 67.8431 129.288ZM74.8914 131.128C74.5714 131.128 74.326 131.043 74.1554 130.872C73.9847 130.691 73.8994 130.435 73.8994 130.104V124.056C73.8994 123.725 73.9847 123.475 74.1554 123.304C74.326 123.133 74.566 123.048 74.8754 123.048C75.1847 123.048 75.4247 123.133 75.5954 123.304C75.766 123.475 75.8514 123.725 75.8514 124.056V125.144L75.6754 124.744C75.91 124.179 76.2727 123.752 76.7634 123.464C77.2647 123.165 77.83 123.016 78.4594 123.016C79.0887 123.016 79.606 123.133 80.0114 123.368C80.4167 123.603 80.7207 123.96 80.9234 124.44C81.126 124.909 81.2274 125.507 81.2274 126.232V130.104C81.2274 130.435 81.142 130.691 80.9714 130.872C80.8007 131.043 80.5554 131.128 80.2354 131.128C79.9154 131.128 79.6647 131.043 79.4834 130.872C79.3127 130.691 79.2274 130.435 79.2274 130.104V126.328C79.2274 125.72 79.11 125.277 78.8754 125C78.6514 124.723 78.2994 124.584 77.8194 124.584C77.2327 124.584 76.7634 124.771 76.4114 125.144C76.07 125.507 75.8994 125.992 75.8994 126.6V130.104C75.8994 130.787 75.5634 131.128 74.8914 131.128ZM92.4825 131.16C91.7038 131.16 91.0158 131.059 90.4185 130.856C89.8318 130.653 89.3358 130.355 88.9305 129.96C88.5252 129.555 88.2212 129.053 88.0185 128.456C87.8158 127.859 87.7145 127.165 87.7145 126.376V120.632C87.7145 120.28 87.7998 120.019 87.9705 119.848C88.1518 119.677 88.4078 119.592 88.7385 119.592C89.0692 119.592 89.3198 119.677 89.4905 119.848C89.6718 120.019 89.7625 120.28 89.7625 120.632V126.36C89.7625 127.373 89.9918 128.136 90.4505 128.648C90.9198 129.149 91.5972 129.4 92.4825 129.4C93.3678 129.4 94.0398 129.149 94.4985 128.648C94.9572 128.136 95.1865 127.373 95.1865 126.36V120.632C95.1865 120.28 95.2718 120.019 95.4425 119.848C95.6238 119.677 95.8798 119.592 96.2105 119.592C96.5305 119.592 96.7758 119.677 96.9465 119.848C97.1278 120.019 97.2185 120.28 97.2185 120.632V126.376C97.2185 127.421 97.0372 128.301 96.6745 129.016C96.3225 129.731 95.7945 130.269 95.0905 130.632C94.3865 130.984 93.5172 131.16 92.4825 131.16ZM100.407 134.008C100.087 134.008 99.8417 133.923 99.671 133.752C99.5003 133.581 99.415 133.331 99.415 133V124.056C99.415 123.725 99.5003 123.475 99.671 123.304C99.8417 123.133 100.082 123.048 100.391 123.048C100.711 123.048 100.956 123.133 101.127 123.304C101.298 123.475 101.383 123.725 101.383 124.056V125.304L101.207 124.824C101.367 124.28 101.692 123.843 102.183 123.512C102.684 123.181 103.266 123.016 103.927 123.016C104.61 123.016 105.207 123.181 105.719 123.512C106.242 123.843 106.647 124.312 106.935 124.92C107.223 125.517 107.367 126.237 107.367 127.08C107.367 127.912 107.223 128.637 106.935 129.256C106.647 129.864 106.247 130.333 105.735 130.664C105.223 130.995 104.62 131.16 103.927 131.16C103.276 131.16 102.706 131 102.215 130.68C101.724 130.349 101.394 129.923 101.223 129.4H101.415V133C101.415 133.331 101.324 133.581 101.143 133.752C100.972 133.923 100.727 134.008 100.407 134.008ZM103.367 129.64C103.762 129.64 104.108 129.544 104.407 129.352C104.706 129.16 104.935 128.877 105.095 128.504C105.266 128.12 105.351 127.645 105.351 127.08C105.351 126.227 105.17 125.592 104.807 125.176C104.444 124.749 103.964 124.536 103.367 124.536C102.972 124.536 102.626 124.632 102.327 124.824C102.028 125.005 101.794 125.288 101.623 125.672C101.463 126.045 101.383 126.515 101.383 127.08C101.383 127.923 101.564 128.563 101.927 129C102.29 129.427 102.77 129.64 103.367 129.64Z" fill="white"/>
<g filter="url(#filter1_d_6209_14828)">
<circle cx="202" cy="130" r="21" fill="#FF8B13"/>
<g clip-path="url(#clip0_6209_14828)">
<path d="M200.065 136.861L198.421 140.971M203.352 136.861L204.996 140.971M196.777 140.971H206.64M195.133 129.464H200.065M197.599 126.998V131.929M191.845 122.066H211.571C212.065 122.066 212.393 122.395 212.393 122.888V136.039C212.393 136.532 212.065 136.861 211.571 136.861H191.845C191.352 136.861 191.023 136.532 191.023 136.039V122.888C191.023 122.395 191.352 122.066 191.845 122.066Z" stroke="white" stroke-width="2" stroke-linecap="round" stroke-linejoin="round"/>
<path d="M207.956 128.724C207.847 128.724 207.742 128.681 207.665 128.604C207.588 128.527 207.545 128.422 207.545 128.313C207.545 128.204 207.588 128.1 207.665 128.023C207.742 127.946 207.847 127.902 207.956 127.902M207.956 128.724C208.065 128.724 208.169 128.681 208.246 128.604C208.323 128.527 208.367 128.422 208.367 128.313C208.367 128.204 208.323 128.1 208.246 128.023C208.169 127.946 208.065 127.902 207.956 127.902M204.997 131.026C204.888 131.026 204.783 130.982 204.706 130.905C204.629 130.828 204.586 130.724 204.586 130.615C204.586 130.506 204.629 130.401 204.706 130.324C204.783 130.247 204.888 130.204 204.997 130.204M204.997 131.026C205.106 131.026 205.21 130.982 205.287 130.905C205.365 130.828 205.408 130.724 205.408 130.615C205.408 130.506 205.365 130.401 205.287 130.324C205.21 130.247 205.106 130.204 204.997 130.204" stroke="white" stroke-width="2" stroke-linecap="round" stroke-linejoin="round"/>
</g>
</g>
<path d="M233.288 125.128C232.957 125.128 232.696 125.037 232.504 124.856C232.323 124.664 232.232 124.392 232.232 124.04V114.808C232.232 114.456 232.323 114.189 232.504 114.008C232.696 113.816 232.968 113.72 233.32 113.72H238.904C239.181 113.72 239.389 113.789 239.528 113.928C239.667 114.067 239.736 114.264 239.736 114.52C239.736 114.787 239.667 114.995 239.528 115.144C239.389 115.283 239.181 115.352 238.904 115.352H234.28V118.536H238.568C238.835 118.536 239.037 118.605 239.176 118.744C239.325 118.883 239.4 119.08 239.4 119.336C239.4 119.603 239.325 119.811 239.176 119.96C239.037 120.099 238.835 120.168 238.568 120.168H234.28V124.04C234.28 124.765 233.949 125.128 233.288 125.128ZM242.24 125.128C241.91 125.128 241.654 125.037 241.472 124.856C241.302 124.664 241.216 124.403 241.216 124.072V114.76C241.216 114.419 241.307 114.163 241.488 113.992C241.67 113.811 241.926 113.72 242.256 113.72H246.112C247.35 113.72 248.304 114.019 248.976 114.616C249.648 115.203 249.984 116.029 249.984 117.096C249.984 117.789 249.83 118.387 249.52 118.888C249.222 119.389 248.784 119.773 248.208 120.04C247.632 120.307 246.934 120.44 246.112 120.44L246.256 120.2H246.784C247.222 120.2 247.6 120.307 247.92 120.52C248.251 120.733 248.539 121.069 248.784 121.528L249.984 123.752C250.112 123.976 250.171 124.195 250.16 124.408C250.15 124.621 250.07 124.797 249.92 124.936C249.771 125.064 249.552 125.128 249.264 125.128C248.976 125.128 248.742 125.069 248.56 124.952C248.379 124.824 248.219 124.632 248.08 124.376L246.464 121.4C246.272 121.037 246.043 120.797 245.776 120.68C245.52 120.552 245.19 120.488 244.784 120.488H243.264V124.072C243.264 124.403 243.179 124.664 243.008 124.856C242.838 125.037 242.582 125.128 242.24 125.128ZM243.264 118.968H245.76C246.496 118.968 247.051 118.819 247.424 118.52C247.808 118.211 248 117.752 248 117.144C248 116.547 247.808 116.099 247.424 115.8C247.051 115.491 246.496 115.336 245.76 115.336H243.264V118.968ZM253.273 125C252.921 125 252.649 124.909 252.457 124.728C252.276 124.536 252.185 124.264 252.185 123.912V114.808C252.185 114.456 252.276 114.189 252.457 114.008C252.649 113.816 252.921 113.72 253.273 113.72H258.985C259.252 113.72 259.454 113.789 259.593 113.928C259.742 114.067 259.817 114.264 259.817 114.52C259.817 114.787 259.742 114.995 259.593 115.144C259.454 115.283 259.252 115.352 258.985 115.352H254.153V118.456H258.633C258.91 118.456 259.118 118.525 259.257 118.664C259.396 118.803 259.465 119.005 259.465 119.272C259.465 119.539 259.396 119.741 259.257 119.88C259.118 120.019 258.91 120.088 258.633 120.088H254.153V123.368H258.985C259.252 123.368 259.454 123.437 259.593 123.576C259.742 123.715 259.817 123.917 259.817 124.184C259.817 124.451 259.742 124.653 259.593 124.792C259.454 124.931 259.252 125 258.985 125H253.273ZM262.82 125C262.468 125 262.196 124.909 262.004 124.728C261.823 124.536 261.732 124.264 261.732 123.912V114.808C261.732 114.456 261.823 114.189 262.004 114.008C262.196 113.816 262.468 113.72 262.82 113.72H268.532C268.799 113.72 269.001 113.789 269.14 113.928C269.289 114.067 269.364 114.264 269.364 114.52C269.364 114.787 269.289 114.995 269.14 115.144C269.001 115.283 268.799 115.352 268.532 115.352H263.7V118.456H268.18C268.457 118.456 268.665 118.525 268.804 118.664C268.943 118.803 269.012 119.005 269.012 119.272C269.012 119.539 268.943 119.741 268.804 119.88C268.665 120.019 268.457 120.088 268.18 120.088H263.7V123.368H268.532C268.799 123.368 269.001 123.437 269.14 123.576C269.289 123.715 269.364 123.917 269.364 124.184C269.364 124.451 269.289 124.653 269.14 124.792C269.001 124.931 268.799 125 268.532 125H262.82ZM234.616 147.16C234.051 147.16 233.544 147.053 233.096 146.84C232.659 146.616 232.312 146.317 232.056 145.944C231.811 145.571 231.688 145.149 231.688 144.68C231.688 144.104 231.837 143.651 232.136 143.32C232.435 142.979 232.92 142.733 233.592 142.584C234.264 142.435 235.165 142.36 236.296 142.36H237.096V143.512H236.312C235.651 143.512 235.123 143.544 234.728 143.608C234.333 143.672 234.051 143.784 233.88 143.944C233.72 144.093 233.64 144.307 233.64 144.584C233.64 144.936 233.763 145.224 234.008 145.448C234.253 145.672 234.595 145.784 235.032 145.784C235.384 145.784 235.693 145.704 235.96 145.544C236.237 145.373 236.456 145.144 236.616 144.856C236.776 144.568 236.856 144.237 236.856 143.864V142.024C236.856 141.491 236.739 141.107 236.504 140.872C236.269 140.637 235.875 140.52 235.32 140.52C235.011 140.52 234.675 140.557 234.312 140.632C233.96 140.707 233.587 140.835 233.192 141.016C232.989 141.112 232.808 141.139 232.648 141.096C232.499 141.053 232.381 140.968 232.296 140.84C232.211 140.701 232.168 140.552 232.168 140.392C232.168 140.232 232.211 140.077 232.296 139.928C232.381 139.768 232.525 139.651 232.728 139.576C233.219 139.373 233.688 139.229 234.136 139.144C234.595 139.059 235.011 139.016 235.384 139.016C236.152 139.016 236.781 139.133 237.272 139.368C237.773 139.603 238.147 139.96 238.392 140.44C238.637 140.909 238.76 141.517 238.76 142.264V146.104C238.76 146.435 238.68 146.691 238.52 146.872C238.36 147.043 238.131 147.128 237.832 147.128C237.533 147.128 237.299 147.043 237.128 146.872C236.968 146.691 236.888 146.435 236.888 146.104V145.336H237.016C236.941 145.709 236.792 146.035 236.568 146.312C236.355 146.579 236.083 146.787 235.752 146.936C235.421 147.085 235.043 147.16 234.616 147.16ZM244.406 147.16C243.585 147.16 242.87 146.995 242.262 146.664C241.654 146.323 241.185 145.843 240.854 145.224C240.523 144.605 240.358 143.88 240.358 143.048C240.358 142.419 240.449 141.859 240.63 141.368C240.822 140.867 241.094 140.445 241.446 140.104C241.798 139.752 242.225 139.485 242.726 139.304C243.227 139.112 243.787 139.016 244.406 139.016C244.758 139.016 245.137 139.064 245.542 139.16C245.958 139.256 246.347 139.416 246.71 139.64C246.881 139.747 246.993 139.875 247.046 140.024C247.099 140.173 247.11 140.328 247.078 140.488C247.046 140.637 246.977 140.771 246.87 140.888C246.774 140.995 246.651 141.064 246.502 141.096C246.353 141.117 246.187 141.08 246.006 140.984C245.771 140.845 245.531 140.744 245.286 140.68C245.041 140.605 244.806 140.568 244.582 140.568C244.23 140.568 243.921 140.627 243.654 140.744C243.387 140.851 243.158 141.011 242.966 141.224C242.785 141.427 242.646 141.683 242.55 141.992C242.454 142.301 242.406 142.659 242.406 143.064C242.406 143.853 242.593 144.477 242.966 144.936C243.35 145.384 243.889 145.608 244.582 145.608C244.806 145.608 245.035 145.576 245.27 145.512C245.515 145.448 245.761 145.347 246.006 145.208C246.187 145.112 246.347 145.08 246.486 145.112C246.635 145.144 246.758 145.219 246.854 145.336C246.95 145.443 247.009 145.576 247.03 145.736C247.051 145.885 247.03 146.035 246.966 146.184C246.913 146.333 246.806 146.456 246.646 146.552C246.294 146.765 245.921 146.92 245.526 147.016C245.131 147.112 244.758 147.16 244.406 147.16ZM251.952 147.16C251.259 147.16 250.677 147.043 250.208 146.808C249.749 146.573 249.408 146.232 249.184 145.784C248.96 145.325 248.848 144.76 248.848 144.088V140.68H248.016C247.76 140.68 247.563 140.616 247.424 140.488C247.285 140.349 247.216 140.163 247.216 139.928C247.216 139.683 247.285 139.496 247.424 139.368C247.563 139.24 247.76 139.176 248.016 139.176H248.848V137.72C248.848 137.389 248.933 137.139 249.104 136.968C249.285 136.797 249.536 136.712 249.856 136.712C250.176 136.712 250.421 136.797 250.592 136.968C250.763 137.139 250.848 137.389 250.848 137.72V139.176H252.544C252.8 139.176 252.997 139.24 253.136 139.368C253.275 139.496 253.344 139.683 253.344 139.928C253.344 140.163 253.275 140.349 253.136 140.488C252.997 140.616 252.8 140.68 252.544 140.68H250.848V143.976C250.848 144.488 250.96 144.872 251.184 145.128C251.408 145.384 251.771 145.512 252.272 145.512C252.453 145.512 252.613 145.496 252.752 145.464C252.891 145.432 253.013 145.411 253.12 145.4C253.248 145.389 253.355 145.432 253.44 145.528C253.525 145.613 253.568 145.795 253.568 146.072C253.568 146.285 253.531 146.477 253.456 146.648C253.392 146.808 253.269 146.92 253.088 146.984C252.949 147.027 252.768 147.064 252.544 147.096C252.32 147.139 252.123 147.16 251.952 147.16ZM255.704 147.112C255.384 147.112 255.139 147.016 254.968 146.824C254.797 146.632 254.712 146.365 254.712 146.024V140.152C254.712 139.8 254.797 139.533 254.968 139.352C255.139 139.16 255.384 139.064 255.704 139.064C256.024 139.064 256.269 139.16 256.44 139.352C256.621 139.533 256.712 139.8 256.712 140.152V146.024C256.712 146.365 256.627 146.632 256.456 146.824C256.285 147.016 256.035 147.112 255.704 147.112ZM255.704 137.576C255.331 137.576 255.037 137.485 254.824 137.304C254.621 137.112 254.52 136.851 254.52 136.52C254.52 136.179 254.621 135.917 254.824 135.736C255.037 135.555 255.331 135.464 255.704 135.464C256.088 135.464 256.381 135.555 256.584 135.736C256.787 135.917 256.888 136.179 256.888 136.52C256.888 136.851 256.787 137.112 256.584 137.304C256.381 137.485 256.088 137.576 255.704 137.576ZM261.958 147.128C261.691 147.128 261.457 147.059 261.254 146.92C261.062 146.781 260.902 146.568 260.774 146.28L258.23 140.376C258.134 140.141 258.097 139.923 258.118 139.72C258.15 139.517 258.246 139.357 258.406 139.24C258.577 139.112 258.806 139.048 259.094 139.048C259.339 139.048 259.537 139.107 259.686 139.224C259.835 139.331 259.969 139.539 260.086 139.848L262.246 145.24H261.766L263.99 139.832C264.107 139.533 264.241 139.331 264.39 139.224C264.55 139.107 264.763 139.048 265.03 139.048C265.265 139.048 265.451 139.112 265.59 139.24C265.729 139.357 265.814 139.517 265.846 139.72C265.878 139.912 265.841 140.125 265.734 140.36L263.142 146.28C263.025 146.568 262.865 146.781 262.662 146.92C262.47 147.059 262.235 147.128 261.958 147.128ZM268.22 147.112C267.9 147.112 267.654 147.016 267.484 146.824C267.313 146.632 267.228 146.365 267.228 146.024V140.152C267.228 139.8 267.313 139.533 267.484 139.352C267.654 139.16 267.9 139.064 268.22 139.064C268.54 139.064 268.785 139.16 268.956 139.352C269.137 139.533 269.228 139.8 269.228 140.152V146.024C269.228 146.365 269.142 146.632 268.972 146.824C268.801 147.016 268.55 147.112 268.22 147.112ZM268.22 137.576C267.846 137.576 267.553 137.485 267.34 137.304C267.137 137.112 267.036 136.851 267.036 136.52C267.036 136.179 267.137 135.917 267.34 135.736C267.553 135.555 267.846 135.464 268.22 135.464C268.604 135.464 268.897 135.555 269.1 135.736C269.302 135.917 269.404 136.179 269.404 136.52C269.404 136.851 269.302 137.112 269.1 137.304C268.897 137.485 268.604 137.576 268.22 137.576ZM274.89 147.16C274.196 147.16 273.615 147.043 273.146 146.808C272.687 146.573 272.346 146.232 272.122 145.784C271.898 145.325 271.786 144.76 271.786 144.088V140.68H270.954C270.698 140.68 270.5 140.616 270.362 140.488C270.223 140.349 270.154 140.163 270.154 139.928C270.154 139.683 270.223 139.496 270.362 139.368C270.5 139.24 270.698 139.176 270.954 139.176H271.786V137.72C271.786 137.389 271.871 137.139 272.042 136.968C272.223 136.797 272.474 136.712 272.794 136.712C273.114 136.712 273.359 136.797 273.53 136.968C273.7 137.139 273.786 137.389 273.786 137.72V139.176H275.482C275.738 139.176 275.935 139.24 276.074 139.368C276.212 139.496 276.282 139.683 276.282 139.928C276.282 140.163 276.212 140.349 276.074 140.488C275.935 140.616 275.738 140.68 275.482 140.68H273.786V143.976C273.786 144.488 273.898 144.872 274.122 145.128C274.346 145.384 274.708 145.512 275.21 145.512C275.391 145.512 275.551 145.496 275.69 145.464C275.828 145.432 275.951 145.411 276.058 145.4C276.186 145.389 276.292 145.432 276.378 145.528C276.463 145.613 276.506 145.795 276.506 146.072C276.506 146.285 276.468 146.477 276.394 146.648C276.33 146.808 276.207 146.92 276.026 146.984C275.887 147.027 275.706 147.064 275.482 147.096C275.258 147.139 275.06 147.16 274.89 147.16ZM278.641 147.112C278.321 147.112 278.076 147.016 277.905 146.824C277.735 146.632 277.649 146.365 277.649 146.024V140.152C277.649 139.8 277.735 139.533 277.905 139.352C278.076 139.16 278.321 139.064 278.641 139.064C278.961 139.064 279.207 139.16 279.377 139.352C279.559 139.533 279.649 139.8 279.649 140.152V146.024C279.649 146.365 279.564 146.632 279.393 146.824C279.223 147.016 278.972 147.112 278.641 147.112ZM278.641 137.576C278.268 137.576 277.975 137.485 277.761 137.304C277.559 137.112 277.457 136.851 277.457 136.52C277.457 136.179 277.559 135.917 277.761 135.736C277.975 135.555 278.268 135.464 278.641 135.464C279.025 135.464 279.319 135.555 279.521 135.736C279.724 135.917 279.825 136.179 279.825 136.52C279.825 136.851 279.724 137.112 279.521 137.304C279.319 137.485 279.025 137.576 278.641 137.576ZM285.584 147.16C284.698 147.16 283.936 146.995 283.296 146.664C282.656 146.333 282.16 145.864 281.808 145.256C281.466 144.648 281.296 143.928 281.296 143.096C281.296 142.285 281.461 141.576 281.792 140.968C282.133 140.36 282.597 139.885 283.184 139.544C283.781 139.192 284.458 139.016 285.216 139.016C285.77 139.016 286.266 139.107 286.704 139.288C287.152 139.469 287.53 139.731 287.84 140.072C288.16 140.413 288.4 140.829 288.56 141.32C288.73 141.8 288.816 142.344 288.816 142.952C288.816 143.144 288.746 143.293 288.608 143.4C288.48 143.496 288.293 143.544 288.048 143.544H282.912V142.392H287.408L287.152 142.632C287.152 142.141 287.077 141.731 286.928 141.4C286.789 141.069 286.581 140.819 286.304 140.648C286.037 140.467 285.701 140.376 285.296 140.376C284.848 140.376 284.464 140.483 284.144 140.696C283.834 140.899 283.594 141.192 283.424 141.576C283.264 141.949 283.184 142.397 283.184 142.92V143.032C283.184 143.907 283.386 144.563 283.792 145C284.208 145.427 284.816 145.64 285.616 145.64C285.893 145.64 286.202 145.608 286.544 145.544C286.896 145.469 287.226 145.347 287.536 145.176C287.76 145.048 287.957 144.995 288.128 145.016C288.298 145.027 288.432 145.085 288.528 145.192C288.634 145.299 288.698 145.432 288.72 145.592C288.741 145.741 288.709 145.896 288.624 146.056C288.549 146.216 288.416 146.355 288.224 146.472C287.85 146.707 287.418 146.883 286.928 147C286.448 147.107 286 147.16 285.584 147.16ZM293.263 147.16C292.805 147.16 292.319 147.112 291.807 147.016C291.295 146.92 290.837 146.755 290.431 146.52C290.261 146.413 290.138 146.291 290.063 146.152C289.999 146.003 289.973 145.859 289.983 145.72C290.005 145.571 290.058 145.443 290.143 145.336C290.239 145.229 290.357 145.16 290.495 145.128C290.645 145.096 290.805 145.123 290.975 145.208C291.402 145.411 291.802 145.555 292.175 145.64C292.549 145.715 292.917 145.752 293.279 145.752C293.791 145.752 294.17 145.667 294.415 145.496C294.671 145.315 294.799 145.08 294.799 144.792C294.799 144.547 294.714 144.36 294.543 144.232C294.383 144.093 294.138 143.992 293.807 143.928L292.207 143.624C291.546 143.496 291.039 143.256 290.687 142.904C290.346 142.541 290.175 142.077 290.175 141.512C290.175 141 290.314 140.557 290.591 140.184C290.879 139.811 291.274 139.523 291.775 139.32C292.277 139.117 292.853 139.016 293.503 139.016C293.973 139.016 294.41 139.069 294.815 139.176C295.231 139.272 295.631 139.427 296.015 139.64C296.175 139.725 296.282 139.837 296.335 139.976C296.399 140.115 296.415 140.259 296.383 140.408C296.351 140.547 296.287 140.675 296.191 140.792C296.095 140.899 295.973 140.968 295.823 141C295.685 141.021 295.525 140.989 295.343 140.904C295.013 140.733 294.693 140.611 294.383 140.536C294.085 140.461 293.797 140.424 293.519 140.424C292.997 140.424 292.607 140.515 292.351 140.696C292.106 140.877 291.983 141.117 291.983 141.416C291.983 141.64 292.058 141.827 292.207 141.976C292.357 142.125 292.586 142.227 292.895 142.28L294.495 142.584C295.189 142.712 295.711 142.947 296.063 143.288C296.426 143.629 296.607 144.088 296.607 144.664C296.607 145.443 296.303 146.056 295.695 146.504C295.087 146.941 294.277 147.16 293.263 147.16Z" fill="white"/>
<g filter="url(#filter2_d_6209_14828)">
<circle cx="108" cy="225" r="21" fill="#FF8B13"/>
<path d="M110.591 226.245C113.239 226.245 115.386 224.099 115.386 221.451C115.386 218.803 113.239 216.656 110.591 216.656C107.943 216.656 105.797 218.803 105.797 221.451C105.797 224.099 107.943 226.245 110.591 226.245Z" stroke="white" stroke-width="2" stroke-linecap="round" stroke-linejoin="round"/>
<path d="M118.264 233.915C118.264 231.881 117.456 229.93 116.017 228.491C114.579 227.052 112.628 226.244 110.593 226.244C108.559 226.244 106.607 227.052 105.169 228.491C103.73 229.93 102.922 231.881 102.922 233.915" stroke="white" stroke-width="2" stroke-linecap="round" stroke-linejoin="round"/>
<path d="M99.375 220.684V227.012" stroke="white" stroke-width="2" stroke-linecap="round"/>
<path d="M102.539 223.848L96.2103 223.848" stroke="white" stroke-width="2" stroke-linecap="round"/>
</g>
<path d="M139.32 230C138.968 230 138.696 229.909 138.504 229.728C138.323 229.536 138.232 229.264 138.232 228.912V219.808C138.232 219.456 138.323 219.189 138.504 219.008C138.696 218.816 138.968 218.72 139.32 218.72H145.032C145.299 218.72 145.501 218.789 145.64 218.928C145.789 219.067 145.864 219.264 145.864 219.52C145.864 219.787 145.789 219.995 145.64 220.144C145.501 220.283 145.299 220.352 145.032 220.352H140.2V223.456H144.68C144.957 223.456 145.165 223.525 145.304 223.664C145.443 223.803 145.512 224.005 145.512 224.272C145.512 224.539 145.443 224.741 145.304 224.88C145.165 225.019 144.957 225.088 144.68 225.088H140.2V228.368H145.032C145.299 228.368 145.501 228.437 145.64 228.576C145.789 228.715 145.864 228.917 145.864 229.184C145.864 229.451 145.789 229.653 145.64 229.792C145.501 229.931 145.299 230 145.032 230H139.32ZM148.579 230.128C148.259 230.128 148.014 230.043 147.843 229.872C147.672 229.691 147.587 229.435 147.587 229.104V223.056C147.587 222.725 147.672 222.475 147.843 222.304C148.014 222.133 148.254 222.048 148.563 222.048C148.872 222.048 149.112 222.133 149.283 222.304C149.454 222.475 149.539 222.725 149.539 223.056V224.144L149.363 223.744C149.598 223.179 149.96 222.752 150.451 222.464C150.952 222.165 151.518 222.016 152.147 222.016C152.776 222.016 153.294 222.133 153.699 222.368C154.104 222.603 154.408 222.96 154.611 223.44C154.814 223.909 154.915 224.507 154.915 225.232V229.104C154.915 229.435 154.83 229.691 154.659 229.872C154.488 230.043 154.243 230.128 153.923 230.128C153.603 230.128 153.352 230.043 153.171 229.872C153 229.691 152.915 229.435 152.915 229.104V225.328C152.915 224.72 152.798 224.277 152.563 224C152.339 223.723 151.987 223.584 151.507 223.584C150.92 223.584 150.451 223.771 150.099 224.144C149.758 224.507 149.587 224.992 149.587 225.6V229.104C149.587 229.787 149.251 230.128 148.579 230.128ZM157.97 230.128C157.64 230.128 157.384 230.043 157.202 229.872C157.032 229.691 156.946 229.435 156.946 229.104V223.056C156.946 222.725 157.032 222.475 157.202 222.304C157.373 222.133 157.613 222.048 157.922 222.048C158.232 222.048 158.472 222.133 158.642 222.304C158.813 222.475 158.898 222.725 158.898 223.056V224.064H158.738C158.888 223.424 159.181 222.939 159.618 222.608C160.056 222.277 160.637 222.08 161.362 222.016C161.586 221.995 161.762 222.053 161.89 222.192C162.029 222.32 162.109 222.523 162.13 222.8C162.152 223.067 162.088 223.285 161.938 223.456C161.8 223.616 161.586 223.712 161.298 223.744L160.946 223.776C160.296 223.84 159.805 224.043 159.474 224.384C159.144 224.715 158.978 225.184 158.978 225.792V229.104C158.978 229.435 158.893 229.691 158.722 229.872C158.552 230.043 158.301 230.128 157.97 230.128ZM166.655 230.16C165.844 230.16 165.14 229.995 164.543 229.664C163.946 229.333 163.482 228.864 163.151 228.256C162.82 227.637 162.655 226.912 162.655 226.08C162.655 225.451 162.746 224.891 162.927 224.4C163.119 223.899 163.391 223.472 163.743 223.12C164.095 222.757 164.516 222.485 165.007 222.304C165.498 222.112 166.047 222.016 166.655 222.016C167.466 222.016 168.17 222.181 168.767 222.512C169.364 222.843 169.828 223.312 170.159 223.92C170.49 224.528 170.655 225.248 170.655 226.08C170.655 226.709 170.559 227.275 170.367 227.776C170.186 228.277 169.919 228.709 169.567 229.072C169.215 229.424 168.794 229.696 168.303 229.888C167.812 230.069 167.263 230.16 166.655 230.16ZM166.655 228.64C167.05 228.64 167.396 228.544 167.695 228.352C167.994 228.16 168.223 227.877 168.383 227.504C168.554 227.12 168.639 226.645 168.639 226.08C168.639 225.227 168.458 224.592 168.095 224.176C167.732 223.749 167.252 223.536 166.655 223.536C166.26 223.536 165.914 223.632 165.615 223.824C165.316 224.005 165.082 224.288 164.911 224.672C164.751 225.045 164.671 225.515 164.671 226.08C164.671 226.923 164.852 227.563 165.215 228C165.578 228.427 166.058 228.64 166.655 228.64ZM174.978 230.16C174.092 230.16 173.426 229.909 172.978 229.408C172.53 228.896 172.306 228.149 172.306 227.168V219.6C172.306 219.269 172.391 219.019 172.562 218.848C172.732 218.677 172.978 218.592 173.298 218.592C173.618 218.592 173.863 218.677 174.034 218.848C174.215 219.019 174.306 219.269 174.306 219.6V227.072C174.306 227.563 174.407 227.925 174.61 228.16C174.823 228.395 175.122 228.512 175.506 228.512C175.591 228.512 175.671 228.512 175.746 228.512C175.82 228.501 175.895 228.491 175.97 228.48C176.119 228.459 176.22 228.501 176.274 228.608C176.327 228.704 176.354 228.907 176.354 229.216C176.354 229.483 176.3 229.691 176.194 229.84C176.087 229.989 175.911 230.08 175.666 230.112C175.559 230.123 175.447 230.133 175.33 230.144C175.212 230.155 175.095 230.16 174.978 230.16ZM180.087 230.16C179.202 230.16 178.535 229.909 178.087 229.408C177.639 228.896 177.415 228.149 177.415 227.168V219.6C177.415 219.269 177.5 219.019 177.671 218.848C177.842 218.677 178.087 218.592 178.407 218.592C178.727 218.592 178.972 218.677 179.143 218.848C179.324 219.019 179.415 219.269 179.415 219.6V227.072C179.415 227.563 179.516 227.925 179.719 228.16C179.932 228.395 180.231 228.512 180.615 228.512C180.7 228.512 180.78 228.512 180.855 228.512C180.93 228.501 181.004 228.491 181.079 228.48C181.228 228.459 181.33 228.501 181.383 228.608C181.436 228.704 181.463 228.907 181.463 229.216C181.463 229.483 181.41 229.691 181.303 229.84C181.196 229.989 181.02 230.08 180.775 230.112C180.668 230.123 180.556 230.133 180.439 230.144C180.322 230.155 180.204 230.16 180.087 230.16ZM192.308 230.16C191.135 230.16 190.127 229.925 189.284 229.456C188.452 228.976 187.812 228.304 187.364 227.44C186.916 226.565 186.692 225.536 186.692 224.352C186.692 223.467 186.82 222.672 187.076 221.968C187.332 221.253 187.7 220.645 188.18 220.144C188.66 219.632 189.247 219.243 189.94 218.976C190.644 218.699 191.433 218.56 192.308 218.56C192.895 218.56 193.471 218.635 194.036 218.784C194.601 218.933 195.097 219.147 195.524 219.424C195.748 219.563 195.897 219.733 195.972 219.936C196.047 220.128 196.063 220.32 196.02 220.512C195.977 220.693 195.887 220.848 195.748 220.976C195.62 221.104 195.455 221.179 195.252 221.2C195.06 221.211 194.847 221.141 194.612 220.992C194.281 220.779 193.924 220.624 193.54 220.528C193.156 220.432 192.767 220.384 192.372 220.384C191.615 220.384 190.975 220.539 190.452 220.848C189.929 221.157 189.535 221.605 189.268 222.192C189.001 222.779 188.868 223.499 188.868 224.352C188.868 225.195 189.001 225.915 189.268 226.512C189.535 227.109 189.929 227.563 190.452 227.872C190.975 228.181 191.615 228.336 192.372 228.336C192.777 228.336 193.177 228.288 193.572 228.192C193.967 228.085 194.34 227.925 194.692 227.712C194.927 227.573 195.135 227.515 195.316 227.536C195.508 227.547 195.668 227.611 195.796 227.728C195.924 227.845 196.009 227.995 196.052 228.176C196.095 228.347 196.084 228.528 196.02 228.72C195.956 228.901 195.828 229.061 195.636 229.2C195.209 229.509 194.697 229.749 194.1 229.92C193.513 230.08 192.916 230.16 192.308 230.16ZM198.735 230.128C198.415 230.128 198.17 230.043 197.999 229.872C197.828 229.691 197.743 229.435 197.743 229.104V219.6C197.743 219.269 197.828 219.019 197.999 218.848C198.17 218.677 198.415 218.592 198.735 218.592C199.055 218.592 199.3 218.677 199.471 218.848C199.652 219.019 199.743 219.269 199.743 219.6V223.744H199.519C199.754 223.179 200.116 222.752 200.607 222.464C201.108 222.165 201.674 222.016 202.303 222.016C202.932 222.016 203.45 222.133 203.855 222.368C204.26 222.603 204.564 222.96 204.767 223.44C204.97 223.909 205.071 224.507 205.071 225.232V229.104C205.071 229.435 204.986 229.691 204.815 229.872C204.644 230.043 204.399 230.128 204.079 230.128C203.759 230.128 203.508 230.043 203.327 229.872C203.156 229.691 203.071 229.435 203.071 229.104V225.328C203.071 224.72 202.954 224.277 202.719 224C202.495 223.723 202.143 223.584 201.663 223.584C201.076 223.584 200.607 223.771 200.255 224.144C199.914 224.507 199.743 224.992 199.743 225.6V229.104C199.743 229.787 199.407 230.128 198.735 230.128ZM208.095 230.112C207.775 230.112 207.529 230.016 207.359 229.824C207.188 229.632 207.103 229.365 207.103 229.024V223.152C207.103 222.8 207.188 222.533 207.359 222.352C207.529 222.16 207.775 222.064 208.095 222.064C208.415 222.064 208.66 222.16 208.831 222.352C209.012 222.533 209.103 222.8 209.103 223.152V229.024C209.103 229.365 209.017 229.632 208.847 229.824C208.676 230.016 208.425 230.112 208.095 230.112ZM208.095 220.576C207.721 220.576 207.428 220.485 207.215 220.304C207.012 220.112 206.911 219.851 206.911 219.52C206.911 219.179 207.012 218.917 207.215 218.736C207.428 218.555 207.721 218.464 208.095 218.464C208.479 218.464 208.772 218.555 208.975 218.736C209.177 218.917 209.279 219.179 209.279 219.52C209.279 219.851 209.177 220.112 208.975 220.304C208.772 220.485 208.479 220.576 208.095 220.576ZM213.853 230.16C212.967 230.16 212.301 229.909 211.853 229.408C211.405 228.896 211.181 228.149 211.181 227.168V219.6C211.181 219.269 211.266 219.019 211.437 218.848C211.607 218.677 211.853 218.592 212.173 218.592C212.493 218.592 212.738 218.677 212.909 218.848C213.09 219.019 213.181 219.269 213.181 219.6V227.072C213.181 227.563 213.282 227.925 213.485 228.16C213.698 228.395 213.997 228.512 214.381 228.512C214.466 228.512 214.546 228.512 214.621 228.512C214.695 228.501 214.77 228.491 214.845 228.48C214.994 228.459 215.095 228.501 215.149 228.608C215.202 228.704 215.229 228.907 215.229 229.216C215.229 229.483 215.175 229.691 215.069 229.84C214.962 229.989 214.786 230.08 214.541 230.112C214.434 230.123 214.322 230.133 214.205 230.144C214.087 230.155 213.97 230.16 213.853 230.16ZM219.22 230.16C218.537 230.16 217.935 229.995 217.412 229.664C216.9 229.333 216.5 228.864 216.212 228.256C215.924 227.637 215.78 226.912 215.78 226.08C215.78 225.237 215.924 224.517 216.212 223.92C216.5 223.312 216.9 222.843 217.412 222.512C217.935 222.181 218.537 222.016 219.22 222.016C219.871 222.016 220.436 222.176 220.916 222.496C221.407 222.816 221.737 223.237 221.908 223.76H221.732V219.6C221.732 219.269 221.817 219.019 221.988 218.848C222.159 218.677 222.404 218.592 222.724 218.592C223.044 218.592 223.289 218.677 223.46 218.848C223.641 219.019 223.732 219.269 223.732 219.6V229.104C223.732 229.435 223.647 229.691 223.476 229.872C223.305 230.043 223.06 230.128 222.74 230.128C222.42 230.128 222.175 230.043 222.004 229.872C221.833 229.691 221.748 229.435 221.748 229.104V227.856L221.924 228.336C221.764 228.891 221.439 229.333 220.948 229.664C220.457 229.995 219.881 230.16 219.22 230.16ZM219.78 228.64C220.175 228.64 220.521 228.544 220.82 228.352C221.119 228.16 221.348 227.877 221.508 227.504C221.679 227.12 221.764 226.645 221.764 226.08C221.764 225.227 221.583 224.592 221.22 224.176C220.857 223.749 220.377 223.536 219.78 223.536C219.385 223.536 219.039 223.632 218.74 223.824C218.441 224.005 218.207 224.288 218.036 224.672C217.876 225.045 217.796 225.515 217.796 226.08C217.796 226.923 217.977 227.563 218.34 228C218.703 228.427 219.183 228.64 219.78 228.64Z" fill="white"/>
<path d="M193.48 320.16C192.307 320.16 191.299 319.925 190.456 319.456C189.624 318.976 188.984 318.304 188.536 317.44C188.088 316.565 187.864 315.536 187.864 314.352C187.864 313.467 187.992 312.672 188.248 311.968C188.504 311.253 188.872 310.645 189.352 310.144C189.832 309.632 190.419 309.243 191.112 308.976C191.816 308.699 192.605 308.56 193.48 308.56C194.067 308.56 194.643 308.635 195.208 308.784C195.773 308.933 196.269 309.147 196.696 309.424C196.92 309.563 197.069 309.733 197.144 309.936C197.219 310.128 197.235 310.32 197.192 310.512C197.149 310.693 197.059 310.848 196.92 310.976C196.792 311.104 196.627 311.179 196.424 311.2C196.232 311.211 196.019 311.141 195.784 310.992C195.453 310.779 195.096 310.624 194.712 310.528C194.328 310.432 193.939 310.384 193.544 310.384C192.787 310.384 192.147 310.539 191.624 310.848C191.101 311.157 190.707 311.605 190.44 312.192C190.173 312.779 190.04 313.499 190.04 314.352C190.04 315.195 190.173 315.915 190.44 316.512C190.707 317.109 191.101 317.563 191.624 317.872C192.147 318.181 192.787 318.336 193.544 318.336C193.949 318.336 194.349 318.288 194.744 318.192C195.139 318.085 195.512 317.925 195.864 317.712C196.099 317.573 196.307 317.515 196.488 317.536C196.68 317.547 196.84 317.611 196.968 317.728C197.096 317.845 197.181 317.995 197.224 318.176C197.267 318.347 197.256 318.528 197.192 318.72C197.128 318.901 197 319.061 196.808 319.2C196.381 319.509 195.869 319.749 195.272 319.92C194.685 320.08 194.088 320.16 193.48 320.16ZM199.907 320.128C199.587 320.128 199.342 320.043 199.171 319.872C199 319.691 198.915 319.435 198.915 319.104V309.6C198.915 309.269 199 309.019 199.171 308.848C199.342 308.677 199.587 308.592 199.907 308.592C200.227 308.592 200.472 308.677 200.643 308.848C200.824 309.019 200.915 309.269 200.915 309.6V313.744H200.691C200.926 313.179 201.288 312.752 201.779 312.464C202.28 312.165 202.846 312.016 203.475 312.016C204.104 312.016 204.622 312.133 205.027 312.368C205.432 312.603 205.736 312.96 205.939 313.44C206.142 313.909 206.243 314.507 206.243 315.232V319.104C206.243 319.435 206.158 319.691 205.987 319.872C205.816 320.043 205.571 320.128 205.251 320.128C204.931 320.128 204.68 320.043 204.499 319.872C204.328 319.691 204.243 319.435 204.243 319.104V315.328C204.243 314.72 204.126 314.277 203.891 314C203.667 313.723 203.315 313.584 202.835 313.584C202.248 313.584 201.779 313.771 201.427 314.144C201.086 314.507 200.915 314.992 200.915 315.6V319.104C200.915 319.787 200.579 320.128 199.907 320.128ZM211.842 320.16C211.032 320.16 210.328 319.995 209.73 319.664C209.133 319.333 208.669 318.864 208.338 318.256C208.008 317.637 207.842 316.912 207.842 316.08C207.842 315.451 207.933 314.891 208.114 314.4C208.306 313.899 208.578 313.472 208.93 313.12C209.282 312.757 209.704 312.485 210.194 312.304C210.685 312.112 211.234 312.016 211.842 312.016C212.653 312.016 213.357 312.181 213.954 312.512C214.552 312.843 215.016 313.312 215.346 313.92C215.677 314.528 215.842 315.248 215.842 316.08C215.842 316.709 215.746 317.275 215.554 317.776C215.373 318.277 215.106 318.709 214.754 319.072C214.402 319.424 213.981 319.696 213.49 319.888C213 320.069 212.45 320.16 211.842 320.16ZM211.842 318.64C212.237 318.64 212.584 318.544 212.882 318.352C213.181 318.16 213.41 317.877 213.57 317.504C213.741 317.12 213.826 316.645 213.826 316.08C213.826 315.227 213.645 314.592 213.282 314.176C212.92 313.749 212.44 313.536 211.842 313.536C211.448 313.536 211.101 313.632 210.802 313.824C210.504 314.005 210.269 314.288 210.098 314.672C209.938 315.045 209.858 315.515 209.858 316.08C209.858 316.923 210.04 317.563 210.402 318C210.765 318.427 211.245 318.64 211.842 318.64ZM221.061 320.16C220.25 320.16 219.546 319.995 218.949 319.664C218.352 319.333 217.888 318.864 217.557 318.256C217.226 317.637 217.061 316.912 217.061 316.08C217.061 315.451 217.152 314.891 217.333 314.4C217.525 313.899 217.797 313.472 218.149 313.12C218.501 312.757 218.922 312.485 219.413 312.304C219.904 312.112 220.453 312.016 221.061 312.016C221.872 312.016 222.576 312.181 223.173 312.512C223.77 312.843 224.234 313.312 224.565 313.92C224.896 314.528 225.061 315.248 225.061 316.08C225.061 316.709 224.965 317.275 224.773 317.776C224.592 318.277 224.325 318.709 223.973 319.072C223.621 319.424 223.2 319.696 222.709 319.888C222.218 320.069 221.669 320.16 221.061 320.16ZM221.061 318.64C221.456 318.64 221.802 318.544 222.101 318.352C222.4 318.16 222.629 317.877 222.789 317.504C222.96 317.12 223.045 316.645 223.045 316.08C223.045 315.227 222.864 314.592 222.501 314.176C222.138 313.749 221.658 313.536 221.061 313.536C220.666 313.536 220.32 313.632 220.021 313.824C219.722 314.005 219.488 314.288 219.317 314.672C219.157 315.045 219.077 315.515 219.077 316.08C219.077 316.923 219.258 317.563 219.621 318C219.984 318.427 220.464 318.64 221.061 318.64ZM229.576 320.16C229.117 320.16 228.632 320.112 228.12 320.016C227.608 319.92 227.149 319.755 226.744 319.52C226.573 319.413 226.451 319.291 226.376 319.152C226.312 319.003 226.285 318.859 226.296 318.72C226.317 318.571 226.371 318.443 226.456 318.336C226.552 318.229 226.669 318.16 226.808 318.128C226.957 318.096 227.117 318.123 227.288 318.208C227.715 318.411 228.115 318.555 228.488 318.64C228.861 318.715 229.229 318.752 229.592 318.752C230.104 318.752 230.483 318.667 230.728 318.496C230.984 318.315 231.112 318.08 231.112 317.792C231.112 317.547 231.027 317.36 230.856 317.232C230.696 317.093 230.451 316.992 230.12 316.928L228.52 316.624C227.859 316.496 227.352 316.256 227 315.904C226.659 315.541 226.488 315.077 226.488 314.512C226.488 314 226.627 313.557 226.904 313.184C227.192 312.811 227.587 312.523 228.088 312.32C228.589 312.117 229.165 312.016 229.816 312.016C230.285 312.016 230.723 312.069 231.128 312.176C231.544 312.272 231.944 312.427 232.328 312.64C232.488 312.725 232.595 312.837 232.648 312.976C232.712 313.115 232.728 313.259 232.696 313.408C232.664 313.547 232.6 313.675 232.504 313.792C232.408 313.899 232.285 313.968 232.136 314C231.997 314.021 231.837 313.989 231.656 313.904C231.325 313.733 231.005 313.611 230.696 313.536C230.397 313.461 230.109 313.424 229.832 313.424C229.309 313.424 228.92 313.515 228.664 313.696C228.419 313.877 228.296 314.117 228.296 314.416C228.296 314.64 228.371 314.827 228.52 314.976C228.669 315.125 228.899 315.227 229.208 315.28L230.808 315.584C231.501 315.712 232.024 315.947 232.376 316.288C232.739 316.629 232.92 317.088 232.92 317.664C232.92 318.443 232.616 319.056 232.008 319.504C231.4 319.941 230.589 320.16 229.576 320.16ZM238.38 320.16C237.495 320.16 236.732 319.995 236.092 319.664C235.452 319.333 234.956 318.864 234.604 318.256C234.263 317.648 234.092 316.928 234.092 316.096C234.092 315.285 234.258 314.576 234.588 313.968C234.93 313.36 235.394 312.885 235.98 312.544C236.578 312.192 237.255 312.016 238.012 312.016C238.567 312.016 239.063 312.107 239.5 312.288C239.948 312.469 240.327 312.731 240.636 313.072C240.956 313.413 241.196 313.829 241.356 314.32C241.527 314.8 241.612 315.344 241.612 315.952C241.612 316.144 241.543 316.293 241.404 316.4C241.276 316.496 241.09 316.544 240.844 316.544H235.708V315.392H240.204L239.948 315.632C239.948 315.141 239.874 314.731 239.724 314.4C239.586 314.069 239.378 313.819 239.1 313.648C238.834 313.467 238.498 313.376 238.092 313.376C237.644 313.376 237.26 313.483 236.94 313.696C236.631 313.899 236.391 314.192 236.22 314.576C236.06 314.949 235.98 315.397 235.98 315.92V316.032C235.98 316.907 236.183 317.563 236.588 318C237.004 318.427 237.612 318.64 238.412 318.64C238.69 318.64 238.999 318.608 239.34 318.544C239.692 318.469 240.023 318.347 240.332 318.176C240.556 318.048 240.754 317.995 240.924 318.016C241.095 318.027 241.228 318.085 241.324 318.192C241.431 318.299 241.495 318.432 241.516 318.592C241.538 318.741 241.506 318.896 241.42 319.056C241.346 319.216 241.212 319.355 241.02 319.472C240.647 319.707 240.215 319.883 239.724 320C239.244 320.107 238.796 320.16 238.38 320.16ZM189.256 342.128C188.925 342.128 188.669 342.037 188.488 341.856C188.317 341.664 188.232 341.403 188.232 341.072V331.76C188.232 331.419 188.323 331.163 188.504 330.992C188.685 330.811 188.941 330.72 189.272 330.72H193.128C194.365 330.72 195.32 331.029 195.992 331.648C196.664 332.267 197 333.131 197 334.24C197 335.349 196.664 336.219 195.992 336.848C195.32 337.467 194.365 337.776 193.128 337.776H190.28V341.072C190.28 341.403 190.195 341.664 190.024 341.856C189.853 342.037 189.597 342.128 189.256 342.128ZM190.28 336.16H192.808C193.533 336.16 194.083 336 194.456 335.68C194.829 335.349 195.016 334.869 195.016 334.24C195.016 333.611 194.829 333.136 194.456 332.816C194.083 332.496 193.533 332.336 192.808 332.336H190.28V336.16ZM201.15 342.16C200.264 342.16 199.598 341.909 199.15 341.408C198.702 340.896 198.478 340.149 198.478 339.168V331.6C198.478 331.269 198.563 331.019 198.734 330.848C198.904 330.677 199.15 330.592 199.47 330.592C199.79 330.592 200.035 330.677 200.206 330.848C200.387 331.019 200.478 331.269 200.478 331.6V339.072C200.478 339.563 200.579 339.925 200.782 340.16C200.995 340.395 201.294 340.512 201.678 340.512C201.763 340.512 201.843 340.512 201.918 340.512C201.992 340.501 202.067 340.491 202.141 340.48C202.291 340.459 202.392 340.501 202.446 340.608C202.499 340.704 202.526 340.907 202.526 341.216C202.526 341.483 202.472 341.691 202.366 341.84C202.259 341.989 202.083 342.08 201.838 342.112C201.731 342.123 201.619 342.133 201.502 342.144C201.384 342.155 201.267 342.16 201.15 342.16ZM206.163 342.16C205.598 342.16 205.091 342.053 204.643 341.84C204.206 341.616 203.859 341.317 203.603 340.944C203.358 340.571 203.235 340.149 203.235 339.68C203.235 339.104 203.384 338.651 203.683 338.32C203.982 337.979 204.467 337.733 205.139 337.584C205.811 337.435 206.712 337.36 207.843 337.36H208.643V338.512H207.859C207.198 338.512 206.67 338.544 206.275 338.608C205.88 338.672 205.598 338.784 205.427 338.944C205.267 339.093 205.187 339.307 205.187 339.584C205.187 339.936 205.31 340.224 205.555 340.448C205.8 340.672 206.142 340.784 206.579 340.784C206.931 340.784 207.24 340.704 207.507 340.544C207.784 340.373 208.003 340.144 208.163 339.856C208.323 339.568 208.403 339.237 208.403 338.864V337.024C208.403 336.491 208.286 336.107 208.051 335.872C207.816 335.637 207.422 335.52 206.867 335.52C206.558 335.52 206.222 335.557 205.859 335.632C205.507 335.707 205.134 335.835 204.739 336.016C204.536 336.112 204.355 336.139 204.195 336.096C204.046 336.053 203.928 335.968 203.843 335.84C203.758 335.701 203.715 335.552 203.715 335.392C203.715 335.232 203.758 335.077 203.843 334.928C203.928 334.768 204.072 334.651 204.275 334.576C204.766 334.373 205.235 334.229 205.683 334.144C206.142 334.059 206.558 334.016 206.931 334.016C207.699 334.016 208.328 334.133 208.819 334.368C209.32 334.603 209.694 334.96 209.939 335.44C210.184 335.909 210.307 336.517 210.307 337.264V341.104C210.307 341.435 210.227 341.691 210.067 341.872C209.907 342.043 209.678 342.128 209.379 342.128C209.08 342.128 208.846 342.043 208.675 341.872C208.515 341.691 208.435 341.435 208.435 341.104V340.336H208.563C208.488 340.709 208.339 341.035 208.115 341.312C207.902 341.579 207.63 341.787 207.299 341.936C206.968 342.085 206.59 342.16 206.163 342.16ZM213.329 342.128C213.009 342.128 212.764 342.043 212.593 341.872C212.422 341.691 212.337 341.435 212.337 341.104V335.056C212.337 334.725 212.422 334.475 212.593 334.304C212.764 334.133 213.004 334.048 213.313 334.048C213.622 334.048 213.862 334.133 214.033 334.304C214.204 334.475 214.289 334.725 214.289 335.056V336.144L214.113 335.744C214.348 335.179 214.71 334.752 215.201 334.464C215.702 334.165 216.268 334.016 216.897 334.016C217.526 334.016 218.044 334.133 218.449 334.368C218.854 334.603 219.158 334.96 219.361 335.44C219.564 335.909 219.665 336.507 219.665 337.232V341.104C219.665 341.435 219.58 341.691 219.409 341.872C219.238 342.043 218.993 342.128 218.673 342.128C218.353 342.128 218.102 342.043 217.921 341.872C217.75 341.691 217.665 341.435 217.665 341.104V337.328C217.665 336.72 217.548 336.277 217.313 336C217.089 335.723 216.737 335.584 216.257 335.584C215.67 335.584 215.201 335.771 214.849 336.144C214.508 336.507 214.337 336.992 214.337 337.6V341.104C214.337 341.787 214.001 342.128 213.329 342.128Z" fill="white"/>
<g filter="url(#filter3_d_6209_14828)">
<circle cx="276" cy="326" r="21" fill="#FF8B13"/>
<path d="M266.602 323.887H284.821M266.602 323.887V334.435C266.602 334.69 266.703 334.933 266.882 335.113C267.062 335.293 267.306 335.394 267.56 335.394H283.862C284.116 335.394 284.36 335.293 284.54 335.113C284.72 334.933 284.821 334.69 284.821 334.435V323.887M266.602 323.887V319.572C266.602 319.318 266.703 319.074 266.882 318.894C267.062 318.714 267.306 318.613 267.56 318.613H283.862C284.116 318.613 284.36 318.714 284.54 318.894C284.72 319.074 284.821 319.318 284.821 319.572V323.887" stroke="white" stroke-width="2" stroke-linejoin="round"/>
<path d="M271.875 317.176V321.011M279.546 317.176V321.011" stroke="white" stroke-width="2" stroke-linecap="round"/>
<path d="M277.554 333.085C277.444 333.085 277.347 333.067 277.264 333.033C277.182 332.998 277.113 332.95 277.057 332.888C277.009 332.826 276.964 332.76 276.923 332.691L275.587 330.682C275.483 330.516 275.373 330.382 275.255 330.278C275.145 330.174 275.021 330.102 274.883 330.061C274.744 330.019 274.579 329.998 274.385 329.998H273.277C273.132 329.998 273.022 329.96 272.946 329.884C272.87 329.802 272.832 329.695 272.832 329.563C272.832 329.425 272.87 329.322 272.946 329.253C273.022 329.177 273.132 329.139 273.277 329.139H274.976C275.528 329.139 275.942 329.032 276.218 328.818C276.495 328.597 276.643 328.265 276.664 327.824L276.819 328.072H273.246C273.115 328.072 273.012 328.041 272.936 327.979C272.867 327.91 272.832 327.813 272.832 327.689C272.832 327.572 272.867 327.482 272.936 327.42C273.012 327.351 273.115 327.316 273.246 327.316H276.819L276.643 327.554C276.588 327.195 276.426 326.926 276.156 326.747C275.894 326.56 275.521 326.467 275.038 326.467H273.246C273.115 326.467 273.012 326.436 272.936 326.374C272.867 326.305 272.832 326.208 272.832 326.084C272.832 325.966 272.867 325.877 272.936 325.814C273.012 325.745 273.115 325.711 273.246 325.711H278.342C278.48 325.711 278.583 325.745 278.652 325.814C278.728 325.877 278.766 325.966 278.766 326.084C278.766 326.208 278.728 326.305 278.652 326.374C278.583 326.436 278.48 326.467 278.342 326.467H276.674L276.819 326.229C277.075 326.36 277.275 326.533 277.42 326.747C277.565 326.961 277.655 327.209 277.689 327.492L277.482 327.316H278.342C278.48 327.316 278.583 327.351 278.652 327.42C278.728 327.482 278.766 327.572 278.766 327.689C278.766 327.813 278.728 327.91 278.652 327.979C278.583 328.041 278.48 328.072 278.342 328.072H277.513L277.71 327.782C277.724 328.224 277.63 328.607 277.43 328.932C277.237 329.256 276.954 329.508 276.581 329.688C276.215 329.86 275.77 329.947 275.245 329.947V329.843H275.473C275.756 329.843 276.004 329.905 276.218 330.029C276.433 330.154 276.643 330.371 276.85 330.682L277.948 332.329C278.031 332.453 278.065 332.574 278.052 332.691C278.045 332.801 277.996 332.895 277.907 332.971C277.824 333.047 277.706 333.085 277.554 333.085Z" fill="white"/>
</g>
<g filter="url(#filter4_d_6209_14828)">
<circle cx="156" cy="428" r="21" fill="#FF8B13"/>
<path d="M163.86 433.013V426.368C163.86 422.752 163.86 420.944 162.736 419.821C161.612 418.698 159.805 418.697 156.189 418.697H155.23C151.614 418.697 149.805 418.697 148.682 419.821C147.56 420.945 147.559 422.752 147.559 426.368V435.478" stroke="white" stroke-width="2" stroke-linecap="round" stroke-linejoin="round"/>
<path d="M163.86 433.08H149.956C149.32 433.08 148.71 433.333 148.261 433.782C147.811 434.232 147.559 434.842 147.559 435.477C147.559 436.113 147.811 436.723 148.261 437.172C148.71 437.622 149.32 437.875 149.956 437.875H163.86" stroke="white" stroke-width="2" stroke-linecap="round" stroke-linejoin="round"/>
<path d="M163.861 433.08C163.226 433.08 162.616 433.333 162.166 433.782C161.717 434.232 161.464 434.842 161.464 435.477C161.464 436.113 161.717 436.723 162.166 437.173C162.616 437.622 163.226 437.875 163.861 437.875M158.549 426.213C158.429 426.728 157.857 427.092 156.713 427.82C155.606 428.523 155.054 428.875 154.608 428.734C154.419 428.673 154.251 428.562 154.121 428.412C153.793 428.042 153.793 427.324 153.793 425.888C153.793 424.453 153.793 423.735 154.12 423.366C154.256 423.212 154.424 423.101 154.608 423.042C155.054 422.901 155.606 423.253 156.713 423.957C157.857 424.685 158.429 425.048 158.55 425.564C158.6 425.776 158.6 426.001 158.55 426.213" stroke="white" stroke-width="2" stroke-linecap="round" stroke-linejoin="round"/>
</g>
<path d="M186.344 422.128C186.088 422.128 185.88 422.069 185.72 421.952C185.571 421.835 185.48 421.68 185.448 421.488C185.416 421.285 185.453 421.061 185.56 420.816L189.784 411.456C189.923 411.147 190.088 410.928 190.28 410.8C190.483 410.661 190.712 410.592 190.968 410.592C191.213 410.592 191.432 410.661 191.624 410.8C191.827 410.928 191.997 411.147 192.136 411.456L196.376 420.816C196.493 421.061 196.536 421.285 196.504 421.488C196.472 421.691 196.381 421.851 196.232 421.968C196.083 422.075 195.885 422.128 195.64 422.128C195.341 422.128 195.107 422.059 194.936 421.92C194.776 421.771 194.632 421.547 194.504 421.248L193.464 418.832L194.328 419.392H187.576L188.44 418.832L187.416 421.248C187.277 421.557 187.133 421.781 186.984 421.92C186.835 422.059 186.621 422.128 186.344 422.128ZM190.936 412.944L188.696 418.272L188.28 417.76H193.624L193.224 418.272L190.968 412.944H190.936ZM199.226 422C198.874 422 198.602 421.909 198.41 421.728C198.229 421.536 198.138 421.264 198.138 420.912V411.808C198.138 411.456 198.229 411.189 198.41 411.008C198.602 410.816 198.874 410.72 199.226 410.72H203.066C203.856 410.72 204.528 410.837 205.082 411.072C205.637 411.307 206.058 411.643 206.346 412.08C206.645 412.517 206.794 413.04 206.794 413.648C206.794 414.331 206.597 414.907 206.202 415.376C205.808 415.845 205.269 416.16 204.586 416.32V416.08C205.376 416.197 205.989 416.496 206.426 416.976C206.864 417.456 207.082 418.08 207.082 418.848C207.082 419.851 206.741 420.629 206.058 421.184C205.386 421.728 204.448 422 203.242 422H199.226ZM200.106 420.448H202.986C203.712 420.448 204.245 420.309 204.586 420.032C204.928 419.744 205.098 419.317 205.098 418.752C205.098 418.176 204.928 417.749 204.586 417.472C204.245 417.195 203.712 417.056 202.986 417.056H200.106V420.448ZM200.106 415.504H202.714C203.418 415.504 203.941 415.371 204.282 415.104C204.634 414.827 204.81 414.421 204.81 413.888C204.81 413.355 204.634 412.955 204.282 412.688C203.941 412.411 203.418 412.272 202.714 412.272H200.106V415.504ZM210.194 422C209.863 422 209.607 421.909 209.426 421.728C209.245 421.536 209.154 421.275 209.154 420.944V411.712C209.154 411.371 209.239 411.115 209.41 410.944C209.591 410.763 209.847 410.672 210.178 410.672C210.509 410.672 210.759 410.763 210.93 410.944C211.111 411.115 211.202 411.371 211.202 411.712V420.256H215.842C216.13 420.256 216.349 420.331 216.498 420.48C216.658 420.629 216.738 420.843 216.738 421.12C216.738 421.397 216.658 421.616 216.498 421.776C216.349 421.925 216.13 422 215.842 422H210.194ZM187.192 444.128C186.893 444.128 186.664 444.043 186.504 443.872C186.344 443.701 186.264 443.467 186.264 443.168V433.552C186.264 433.243 186.349 433.008 186.52 432.848C186.691 432.677 186.925 432.592 187.224 432.592C187.491 432.592 187.699 432.645 187.848 432.752C188.008 432.848 188.152 433.019 188.28 433.264L192.232 440.576H191.72L195.672 433.264C195.8 433.019 195.939 432.848 196.088 432.752C196.237 432.645 196.445 432.592 196.712 432.592C197.011 432.592 197.24 432.677 197.4 432.848C197.56 433.008 197.64 433.243 197.64 433.552V443.168C197.64 443.467 197.56 443.701 197.4 443.872C197.251 444.043 197.021 444.128 196.712 444.128C196.413 444.128 196.184 444.043 196.024 443.872C195.864 443.701 195.784 443.467 195.784 443.168V435.76H196.136L192.776 441.888C192.669 442.069 192.557 442.203 192.44 442.288C192.323 442.373 192.163 442.416 191.96 442.416C191.757 442.416 191.592 442.373 191.464 442.288C191.336 442.192 191.224 442.059 191.128 441.888L187.736 435.744H188.12V443.168C188.12 443.467 188.04 443.701 187.88 443.872C187.731 444.043 187.501 444.128 187.192 444.128ZM203.499 444.16C202.688 444.16 201.984 443.995 201.387 443.664C200.789 443.333 200.325 442.864 199.995 442.256C199.664 441.637 199.499 440.912 199.499 440.08C199.499 439.451 199.589 438.891 199.771 438.4C199.963 437.899 200.235 437.472 200.587 437.12C200.939 436.757 201.36 436.485 201.851 436.304C202.341 436.112 202.891 436.016 203.499 436.016C204.309 436.016 205.013 436.181 205.611 436.512C206.208 436.843 206.672 437.312 207.003 437.92C207.333 438.528 207.499 439.248 207.499 440.08C207.499 440.709 207.403 441.275 207.211 441.776C207.029 442.277 206.763 442.709 206.411 443.072C206.059 443.424 205.637 443.696 205.147 443.888C204.656 444.069 204.107 444.16 203.499 444.16ZM203.499 442.64C203.893 442.64 204.24 442.544 204.539 442.352C204.837 442.16 205.067 441.877 205.227 441.504C205.397 441.12 205.483 440.645 205.483 440.08C205.483 439.227 205.301 438.592 204.939 438.176C204.576 437.749 204.096 437.536 203.499 437.536C203.104 437.536 202.757 437.632 202.459 437.824C202.16 438.005 201.925 438.288 201.755 438.672C201.595 439.045 201.515 439.515 201.515 440.08C201.515 440.923 201.696 441.563 202.059 442C202.421 442.427 202.901 442.64 203.499 442.64ZM212.157 444.16C211.475 444.16 210.872 443.995 210.349 443.664C209.837 443.333 209.437 442.864 209.149 442.256C208.861 441.637 208.717 440.912 208.717 440.08C208.717 439.237 208.861 438.517 209.149 437.92C209.437 437.312 209.837 436.843 210.349 436.512C210.872 436.181 211.475 436.016 212.157 436.016C212.808 436.016 213.373 436.176 213.853 436.496C214.344 436.816 214.675 437.237 214.845 437.76H214.669V433.6C214.669 433.269 214.755 433.019 214.925 432.848C215.096 432.677 215.341 432.592 215.661 432.592C215.981 432.592 216.227 432.677 216.397 432.848C216.579 433.019 216.669 433.269 216.669 433.6V443.104C216.669 443.435 216.584 443.691 216.413 443.872C216.243 444.043 215.997 444.128 215.677 444.128C215.357 444.128 215.112 444.043 214.941 443.872C214.771 443.691 214.685 443.435 214.685 443.104V441.856L214.861 442.336C214.701 442.891 214.376 443.333 213.885 443.664C213.395 443.995 212.819 444.16 212.157 444.16ZM212.717 442.64C213.112 442.64 213.459 442.544 213.757 442.352C214.056 442.16 214.285 441.877 214.445 441.504C214.616 441.12 214.701 440.645 214.701 440.08C214.701 439.227 214.52 438.592 214.157 438.176C213.795 437.749 213.315 437.536 212.717 437.536C212.323 437.536 211.976 437.632 211.677 437.824C211.379 438.005 211.144 438.288 210.973 438.672C210.813 439.045 210.733 439.515 210.733 440.08C210.733 440.923 210.915 441.563 211.277 442C211.64 442.427 212.12 442.64 212.717 442.64ZM221.575 444.16C220.924 444.16 220.386 444.043 219.959 443.808C219.532 443.563 219.212 443.2 218.999 442.72C218.796 442.24 218.695 441.643 218.695 440.928V437.056C218.695 436.715 218.78 436.464 218.951 436.304C219.122 436.133 219.367 436.048 219.687 436.048C220.007 436.048 220.252 436.133 220.423 436.304C220.604 436.464 220.695 436.715 220.695 437.056V440.96C220.695 441.515 220.807 441.925 221.031 442.192C221.255 442.459 221.612 442.592 222.103 442.592C222.636 442.592 223.074 442.411 223.415 442.048C223.756 441.675 223.927 441.184 223.927 440.576V437.056C223.927 436.715 224.012 436.464 224.183 436.304C224.354 436.133 224.599 436.048 224.919 436.048C225.239 436.048 225.484 436.133 225.655 436.304C225.836 436.464 225.927 436.715 225.927 437.056V443.104C225.927 443.787 225.602 444.128 224.951 444.128C224.642 444.128 224.402 444.043 224.231 443.872C224.06 443.691 223.975 443.435 223.975 443.104V441.888L224.199 442.368C223.975 442.944 223.634 443.387 223.175 443.696C222.727 444.005 222.194 444.16 221.575 444.16ZM230.681 444.16C229.795 444.16 229.129 443.909 228.681 443.408C228.233 442.896 228.009 442.149 228.009 441.168V433.6C228.009 433.269 228.094 433.019 228.265 432.848C228.435 432.677 228.681 432.592 229.001 432.592C229.321 432.592 229.566 432.677 229.737 432.848C229.918 433.019 230.009 433.269 230.009 433.6V441.072C230.009 441.563 230.11 441.925 230.313 442.16C230.526 442.395 230.825 442.512 231.209 442.512C231.294 442.512 231.374 442.512 231.449 442.512C231.523 442.501 231.598 442.491 231.673 442.48C231.822 442.459 231.923 442.501 231.977 442.608C232.03 442.704 232.057 442.907 232.057 443.216C232.057 443.483 232.003 443.691 231.897 443.84C231.79 443.989 231.614 444.08 231.369 444.112C231.262 444.123 231.15 444.133 231.033 444.144C230.915 444.155 230.798 444.16 230.681 444.16ZM236.896 444.16C236.011 444.16 235.248 443.995 234.608 443.664C233.968 443.333 233.472 442.864 233.12 442.256C232.779 441.648 232.608 440.928 232.608 440.096C232.608 439.285 232.773 438.576 233.104 437.968C233.445 437.36 233.909 436.885 234.496 436.544C235.093 436.192 235.771 436.016 236.528 436.016C237.083 436.016 237.579 436.107 238.016 436.288C238.464 436.469 238.843 436.731 239.152 437.072C239.472 437.413 239.712 437.829 239.872 438.32C240.043 438.8 240.128 439.344 240.128 439.952C240.128 440.144 240.059 440.293 239.92 440.4C239.792 440.496 239.605 440.544 239.36 440.544H234.224V439.392H238.72L238.464 439.632C238.464 439.141 238.389 438.731 238.24 438.4C238.101 438.069 237.893 437.819 237.616 437.648C237.349 437.467 237.013 437.376 236.608 437.376C236.16 437.376 235.776 437.483 235.456 437.696C235.147 437.899 234.907 438.192 234.736 438.576C234.576 438.949 234.496 439.397 234.496 439.92V440.032C234.496 440.907 234.699 441.563 235.104 442C235.52 442.427 236.128 442.64 236.928 442.64C237.205 442.64 237.515 442.608 237.856 442.544C238.208 442.469 238.539 442.347 238.848 442.176C239.072 442.048 239.269 441.995 239.44 442.016C239.611 442.027 239.744 442.085 239.84 442.192C239.947 442.299 240.011 442.432 240.032 442.592C240.053 442.741 240.021 442.896 239.936 443.056C239.861 443.216 239.728 443.355 239.536 443.472C239.163 443.707 238.731 443.883 238.24 444C237.76 444.107 237.312 444.16 236.896 444.16ZM244.576 444.16C244.117 444.16 243.632 444.112 243.12 444.016C242.608 443.92 242.149 443.755 241.744 443.52C241.573 443.413 241.451 443.291 241.376 443.152C241.312 443.003 241.285 442.859 241.296 442.72C241.317 442.571 241.371 442.443 241.456 442.336C241.552 442.229 241.669 442.16 241.808 442.128C241.957 442.096 242.117 442.123 242.288 442.208C242.715 442.411 243.115 442.555 243.488 442.64C243.861 442.715 244.229 442.752 244.592 442.752C245.104 442.752 245.483 442.667 245.728 442.496C245.984 442.315 246.112 442.08 246.112 441.792C246.112 441.547 246.027 441.36 245.856 441.232C245.696 441.093 245.451 440.992 245.12 440.928L243.52 440.624C242.859 440.496 242.352 440.256 242 439.904C241.659 439.541 241.488 439.077 241.488 438.512C241.488 438 241.627 437.557 241.904 437.184C242.192 436.811 242.587 436.523 243.088 436.32C243.589 436.117 244.165 436.016 244.816 436.016C245.285 436.016 245.723 436.069 246.128 436.176C246.544 436.272 246.944 436.427 247.328 436.64C247.488 436.725 247.595 436.837 247.648 436.976C247.712 437.115 247.728 437.259 247.696 437.408C247.664 437.547 247.6 437.675 247.504 437.792C247.408 437.899 247.285 437.968 247.136 438C246.997 438.021 246.837 437.989 246.656 437.904C246.325 437.733 246.005 437.611 245.696 437.536C245.397 437.461 245.109 437.424 244.832 437.424C244.309 437.424 243.92 437.515 243.664 437.696C243.419 437.877 243.296 438.117 243.296 438.416C243.296 438.64 243.371 438.827 243.52 438.976C243.669 439.125 243.899 439.227 244.208 439.28L245.808 439.584C246.501 439.712 247.024 439.947 247.376 440.288C247.739 440.629 247.92 441.088 247.92 441.664C247.92 442.443 247.616 443.056 247.008 443.504C246.4 443.941 245.589 444.16 244.576 444.16Z" fill="white"/>
<path d="M348.688 384.311C348.648 384.192 348.51 384.021 348.38 383.935C348.226 383.827 347.869 383.784 347.131 383.773C346.491 383.773 346.093 383.816 346.093 383.881C346.093 383.935 346.15 384.01 346.215 384.042C346.28 384.074 346.393 384.268 346.458 384.472C346.564 384.794 346.58 385.922 346.58 392.369C346.58 398.816 346.564 399.944 346.458 400.266C346.393 400.47 346.28 400.664 346.215 400.696C346.15 400.728 346.093 400.792 346.093 400.857C346.093 400.921 346.515 400.964 348.283 400.964L348.77 400.32V392.423C348.77 387.373 348.737 384.45 348.688 384.311Z" fill="#EE5253"/>
<path d="M314.942 384.504L314.674 384.139L314.407 383.773H313.344C312.76 383.773 312.282 383.795 312.282 383.827C312.282 383.859 312.371 384.021 312.687 384.526V400.212L312.484 400.535C312.371 400.717 312.282 400.878 312.282 400.911C312.282 400.943 312.736 400.964 313.295 400.964C313.985 400.964 314.382 400.921 314.528 400.814C314.658 400.739 314.788 400.578 314.836 400.47C314.885 400.341 314.926 397.397 314.942 384.504Z" fill="#EE5253"/>
<path d="M344.901 400.266C345.031 400.212 345.039 399.75 345.039 392.476C345.039 385.181 345.031 384.74 344.901 384.74C344.82 384.751 344.285 384.859 342.646 385.235L342.63 392.938C342.614 399.02 342.63 400.653 342.711 400.707C342.76 400.739 343.246 400.664 343.782 400.535C344.317 400.416 344.82 400.288 344.901 400.266Z" fill="#EE5253"/>
<path d="M348.687 380.646C348.602 380.463 348.399 380.247 348.228 380.161H348.238C348.067 380.075 347.683 380.011 347.383 380C347.031 380 346.699 380.075 346.496 380.194C346.325 380.291 346.112 380.506 346.015 380.667C345.898 380.893 345.855 381.323 345.855 383.927L348.848 383.874V382.421C348.848 381.345 348.805 380.882 348.687 380.646Z" fill="#C7D2E5"/>
<path d="M315.144 380.753C315.059 380.581 314.856 380.334 314.695 380.215C314.482 380.054 314.246 380 313.733 380C313.167 380 313.007 380.043 312.739 380.269C312.558 380.42 312.376 380.721 312.312 380.936C312.259 381.162 312.205 381.915 312.205 383.874H315.305V382.475C315.305 381.442 315.262 380.99 315.144 380.753Z" fill="#C7D2E5"/>
<path d="M348.677 524.436C348.816 524.156 348.837 432.067 348.837 417.606V401.089H345.844V417.627C345.844 433.993 345.844 524.167 346.058 524.49C346.176 524.662 346.379 524.866 346.518 524.942C346.646 525.017 347.009 525.071 347.319 525.082C347.619 525.082 348.025 525.006 348.196 524.92C348.377 524.834 348.591 524.608 348.677 524.436Z" fill="#C7D2E5"/>
<path d="M315.144 423.892C315.283 423.612 315.305 431.97 315.305 417.552V401.089H312.205V417.498C312.205 430.862 312.226 423.526 312.344 423.817C312.43 424 312.633 424.269 312.804 424.409C313.049 424.602 313.252 424.656 313.755 424.656C314.236 424.656 314.471 424.592 314.695 424.43C314.856 424.312 315.059 424.064 315.144 423.892Z" fill="#C7D2E5"/>
<rect x="312" y="383.773" width="2.31558" height="4.40257" fill="white"/>
<rect x="312" y="392.578" width="2.31558" height="4.40257" fill="white"/>
<rect x="346.734" y="388.174" width="2.31558" height="4.40257" fill="white"/>
<rect x="346.734" y="396.98" width="2.31558" height="4.40257" fill="white"/>
<rect x="330.527" y="383.773" width="2.31558" height="4.40257" fill="white"/>
<rect x="330.527" y="392.578" width="2.31558" height="4.40257" fill="white"/>
<rect x="328.211" y="388.174" width="2.31558" height="4.40257" fill="white"/>
<rect x="328.211" y="396.98" width="2.31558" height="4.40257" fill="white"/>
<rect x="321.262" y="383.773" width="2.31558" height="4.40257" fill="white"/>
<rect x="321.262" y="392.578" width="2.31558" height="4.40257" fill="white"/>
<rect x="318.945" y="388.174" width="2.31558" height="4.40257" fill="white"/>
<rect x="318.945" y="396.98" width="2.31558" height="4.40257" fill="white"/>
<rect x="339.789" y="383.773" width="2.31558" height="4.40257" fill="white"/>
<rect x="339.789" y="392.578" width="2.31558" height="4.40257" fill="white"/>
<rect x="337.473" y="388.174" width="2.31558" height="4.40257" fill="white"/>
<rect x="337.473" y="396.98" width="2.31558" height="4.40257" fill="white"/>
<rect x="316.633" y="383.773" width="2.31558" height="4.40257" fill="white"/>
<rect x="316.633" y="392.578" width="2.31558" height="4.40257" fill="white"/>
<rect x="314.316" y="388.174" width="2.31558" height="4.40257" fill="white"/>
<rect x="314.316" y="396.98" width="2.31558" height="4.40257" fill="white"/>
<rect x="335.156" y="383.773" width="2.31558" height="4.40257" fill="white"/>
<rect x="335.156" y="392.578" width="2.31558" height="4.40257" fill="white"/>
<rect x="332.84" y="388.174" width="2.31558" height="4.40257" fill="white"/>
<rect x="332.84" y="396.98" width="2.31558" height="4.40257" fill="white"/>
<rect x="325.895" y="383.773" width="2.31558" height="4.40257" fill="white"/>
<rect x="325.895" y="392.578" width="2.31558" height="4.40257" fill="white"/>
<rect x="323.578" y="388.174" width="2.31558" height="4.40257" fill="white"/>
<rect x="323.578" y="396.98" width="2.31558" height="4.40257" fill="white"/>
<rect x="344.418" y="383.773" width="2.31558" height="4.40257" fill="white"/>
<rect x="344.418" y="392.578" width="2.31558" height="4.40257" fill="white"/>
<rect x="342.102" y="388.174" width="2.31558" height="4.40257" fill="white"/>
<rect x="342.102" y="396.98" width="2.31558" height="4.40257" fill="white"/>
<rect x="314.316" y="383.773" width="2.31558" height="4.40257" fill="#252525"/>
<rect x="314.316" y="392.578" width="2.31558" height="4.40257" fill="#252525"/>
<rect x="312" y="388.174" width="2.31558" height="4.40257" fill="#252525"/>
<rect x="312" y="396.98" width="2.31558" height="4.40257" fill="#252525"/>
<rect x="332.84" y="383.773" width="2.31558" height="4.40257" fill="#252525"/>
<rect x="332.84" y="392.578" width="2.31558" height="4.40257" fill="#252525"/>
<rect x="330.527" y="388.174" width="2.31558" height="4.40257" fill="#252525"/>
<rect x="330.527" y="396.98" width="2.31558" height="4.40257" fill="#252525"/>
<rect x="323.578" y="383.773" width="2.31558" height="4.40257" fill="#252525"/>
<rect x="323.578" y="392.578" width="2.31558" height="4.40257" fill="#252525"/>
<rect x="321.262" y="388.174" width="2.31558" height="4.40257" fill="#252525"/>
<rect x="321.262" y="396.98" width="2.31558" height="4.40257" fill="#252525"/>
<rect x="342.102" y="383.773" width="2.31558" height="4.40257" fill="#252525"/>
<rect x="342.102" y="392.578" width="2.31558" height="4.40257" fill="#252525"/>
<rect x="339.789" y="388.174" width="2.31558" height="4.40257" fill="#252525"/>
<rect x="339.789" y="396.98" width="2.31558" height="4.40257" fill="#252525"/>
<rect x="318.945" y="383.773" width="2.31558" height="4.40257" fill="#252525"/>
<rect x="318.945" y="392.578" width="2.31558" height="4.40257" fill="#252525"/>
<rect x="316.633" y="388.174" width="2.31558" height="4.40257" fill="#252525"/>
<rect x="316.633" y="396.98" width="2.31558" height="4.40257" fill="#252525"/>
<rect x="337.473" y="383.773" width="2.31558" height="4.40257" fill="#252525"/>
<rect x="337.473" y="392.578" width="2.31558" height="4.40257" fill="#252525"/>
<rect x="335.156" y="388.174" width="2.31558" height="4.40257" fill="#252525"/>
<rect x="335.156" y="396.98" width="2.31558" height="4.40257" fill="#252525"/>
<rect x="328.211" y="383.773" width="2.31558" height="4.40257" fill="#252525"/>
<rect x="328.211" y="392.578" width="2.31558" height="4.40257" fill="#252525"/>
<rect x="325.895" y="388.174" width="2.31558" height="4.40257" fill="#252525"/>
<rect x="325.895" y="396.98" width="2.31558" height="4.40257" fill="#252525"/>
<rect x="346.734" y="383.773" width="2.31558" height="4.40257" fill="#252525"/>
<rect x="346.734" y="392.578" width="2.31558" height="4.40257" fill="#252525"/>
<rect x="344.418" y="388.174" width="2.31558" height="4.40257" fill="#252525"/>
<rect x="344.418" y="396.98" width="2.31558" height="4.40257" fill="#252525"/>
<defs>
<filter id="filter0_d_6209_14828" x="37.5" y="49" width="82" height="82" filterUnits="userSpaceOnUse" color-interpolation-filters="sRGB">
<feFlood flood-opacity="0" result="BackgroundImageFix"/>
<feColorMatrix in="SourceAlpha" type="matrix" values="0 0 0 0 0 0 0 0 0 0 0 0 0 0 0 0 0 0 127 0" result="hardAlpha"/>
<feOffset dy="4"/>
<feGaussianBlur stdDeviation="10"/>
<feComposite in2="hardAlpha" operator="out"/>
<feColorMatrix type="matrix" values="0 0 0 0 1 0 0 0 0 0.545098 0 0 0 0 0.0745098 0 0 0 0.4 0"/>
<feBlend mode="normal" in2="BackgroundImageFix" result="effect1_dropShadow_6209_14828"/>
<feBlend mode="normal" in="SourceGraphic" in2="effect1_dropShadow_6209_14828" result="shape"/>
</filter>
<filter id="filter1_d_6209_14828" x="161" y="93" width="82" height="82" filterUnits="userSpaceOnUse" color-interpolation-filters="sRGB">
<feFlood flood-opacity="0" result="BackgroundImageFix"/>
<feColorMatrix in="SourceAlpha" type="matrix" values="0 0 0 0 0 0 0 0 0 0 0 0 0 0 0 0 0 0 127 0" result="hardAlpha"/>
<feOffset dy="4"/>
<feGaussianBlur stdDeviation="10"/>
<feComposite in2="hardAlpha" operator="out"/>
<feColorMatrix type="matrix" values="0 0 0 0 1 0 0 0 0 0.545098 0 0 0 0 0.0745098 0 0 0 0.4 0"/>
<feBlend mode="normal" in2="BackgroundImageFix" result="effect1_dropShadow_6209_14828"/>
<feBlend mode="normal" in="SourceGraphic" in2="effect1_dropShadow_6209_14828" result="shape"/>
</filter>
<filter id="filter2_d_6209_14828" x="67" y="188" width="82" height="82" filterUnits="userSpaceOnUse" color-interpolation-filters="sRGB">
<feFlood flood-opacity="0" result="BackgroundImageFix"/>
<feColorMatrix in="SourceAlpha" type="matrix" values="0 0 0 0 0 0 0 0 0 0 0 0 0 0 0 0 0 0 127 0" result="hardAlpha"/>
<feOffset dy="4"/>
<feGaussianBlur stdDeviation="10"/>
<feComposite in2="hardAlpha" operator="out"/>
<feColorMatrix type="matrix" values="0 0 0 0 1 0 0 0 0 0.545098 0 0 0 0 0.0745098 0 0 0 0.4 0"/>
<feBlend mode="normal" in2="BackgroundImageFix" result="effect1_dropShadow_6209_14828"/>
<feBlend mode="normal" in="SourceGraphic" in2="effect1_dropShadow_6209_14828" result="shape"/>
</filter>
<filter id="filter3_d_6209_14828" x="235" y="289" width="82" height="82" filterUnits="userSpaceOnUse" color-interpolation-filters="sRGB">
<feFlood flood-opacity="0" result="BackgroundImageFix"/>
<feColorMatrix in="SourceAlpha" type="matrix" values="0 0 0 0 0 0 0 0 0 0 0 0 0 0 0 0 0 0 127 0" result="hardAlpha"/>
<feOffset dy="4"/>
<feGaussianBlur stdDeviation="10"/>
<feComposite in2="hardAlpha" operator="out"/>
<feColorMatrix type="matrix" values="0 0 0 0 1 0 0 0 0 0.545098 0 0 0 0 0.0745098 0 0 0 0.4 0"/>
<feBlend mode="normal" in2="BackgroundImageFix" result="effect1_dropShadow_6209_14828"/>
<feBlend mode="normal" in="SourceGraphic" in2="effect1_dropShadow_6209_14828" result="shape"/>
</filter>
<filter id="filter4_d_6209_14828" x="115" y="391" width="82" height="82" filterUnits="userSpaceOnUse" color-interpolation-filters="sRGB">
<feFlood flood-opacity="0" result="BackgroundImageFix"/>
<feColorMatrix in="SourceAlpha" type="matrix" values="0 0 0 0 0 0 0 0 0 0 0 0 0 0 0 0 0 0 127 0" result="hardAlpha"/>
<feOffset dy="4"/>
<feGaussianBlur stdDeviation="10"/>
<feComposite in2="hardAlpha" operator="out"/>
<feColorMatrix type="matrix" values="0 0 0 0 1 0 0 0 0 0.545098 0 0 0 0 0.0745098 0 0 0 0.4 0"/>
<feBlend mode="normal" in2="BackgroundImageFix" result="effect1_dropShadow_6209_14828"/>
<feBlend mode="normal" in="SourceGraphic" in2="effect1_dropShadow_6209_14828" result="shape"/>
</filter>
<clipPath id="clip0_6209_14828">
<rect width="23.0137" height="23.0137" fill="white" transform="translate(190.203 118.779)"/>
</clipPath>
</defs>
</svg>
