<svg width="24" height="21" viewBox="0 0 24 21" fill="none" xmlns="http://www.w3.org/2000/svg">
<path d="M10.0645 15.8609L8.4207 19.9705M13.3522 15.8609L14.996 19.9705M6.77686 19.9705H16.6399M5.13303 8.46367H10.0645M7.59878 5.99791V10.9294M1.84536 1.06641H21.5714C22.0645 1.06641 22.3933 1.39517 22.3933 1.88832V15.039C22.3933 15.5322 22.0645 15.8609 21.5714 15.8609H1.84536C1.3522 15.8609 1.02344 15.5322 1.02344 15.039V1.88832C1.02344 1.39517 1.3522 1.06641 1.84536 1.06641Z" stroke="white" stroke-width="2" stroke-linecap="round" stroke-linejoin="round"/>
<path d="M17.9558 7.72426C17.8468 7.72426 17.7423 7.68096 17.6652 7.60389C17.5881 7.52682 17.5448 7.4223 17.5448 7.3133C17.5448 7.20431 17.5881 7.09978 17.6652 7.02271C17.7423 6.94564 17.8468 6.90234 17.9558 6.90234M17.9558 7.72426C18.0648 7.72426 18.1693 7.68096 18.2464 7.60389C18.3235 7.52682 18.3668 7.4223 18.3668 7.3133C18.3668 7.20431 18.3235 7.09978 18.2464 7.02271C18.1693 6.94564 18.0648 6.90234 17.9558 6.90234M14.9969 10.0256C14.8879 10.0256 14.7834 9.98233 14.7063 9.90526C14.6292 9.82819 14.5859 9.72366 14.5859 9.61467C14.5859 9.50568 14.6292 9.40115 14.7063 9.32408C14.7834 9.24701 14.8879 9.20371 14.9969 9.20371M14.9969 10.0256C15.1059 10.0256 15.2104 9.98233 15.2875 9.90526C15.3646 9.82819 15.4079 9.72366 15.4079 9.61467C15.4079 9.50568 15.3646 9.40115 15.2875 9.32408C15.2104 9.24701 15.1059 9.20371 14.9969 9.20371" stroke="white" stroke-width="2" stroke-linecap="round" stroke-linejoin="round"/>
</svg>
