<svg width="32" height="24" viewBox="0 0 32 24" fill="none" xmlns="http://www.w3.org/2000/svg">
<path fill-rule="evenodd" clip-rule="evenodd" d="M0 2.40078C0 1.51713 0.716344 0.800781 1.6 0.800781H30.4C31.2837 0.800781 32 1.51713 32 2.40078C32 3.28444 31.2837 4.00078 30.4 4.00078H1.6C0.716345 4.00078 0 3.28444 0 2.40078ZM0 12.0008C0 11.1171 0.716344 10.4008 1.6 10.4008H30.4C31.2837 10.4008 32 11.1171 32 12.0008C32 12.8844 31.2837 13.6008 30.4 13.6008H1.6C0.716345 13.6008 0 12.8844 0 12.0008ZM1.6 20.0008C0.716344 20.0008 0 20.7171 0 21.6008C0 22.4844 0.716345 23.2008 1.6 23.2008H30.4C31.2837 23.2008 32 22.4844 32 21.6008C32 20.7171 31.2837 20.0008 30.4 20.0008H1.6Z" fill="url(#paint0_linear_6524_17505)"/>
<defs>
<linearGradient id="paint0_linear_6524_17505" x1="4.22" y1="5.10847" x2="30.5738" y2="5.29252" gradientUnits="userSpaceOnUse">
<stop stop-color="#F8BF3B"/>
<stop offset="0.305" stop-color="#FF8B13"/>
<stop offset="1" stop-color="#EF5F3D"/>
</linearGradient>
</defs>
</svg>
