<svg width="18" height="18" viewBox="0 0 18 18" fill="none" xmlns="http://www.w3.org/2000/svg">
<path d="M17.2602 6.82742C17.2187 6.75024 17.1682 6.6775 17.137 6.59735C16.7155 5.50633 15.9288 4.94672 14.762 4.93336C13.9278 4.92445 13.0936 4.91406 12.2594 4.9393C11.9373 4.94969 11.8037 4.83242 11.7161 4.54C11.4682 3.72508 11.2084 2.91461 10.9279 2.11156C10.5509 1.03687 9.69883 0.423828 8.63008 0.423828C7.56281 0.423828 6.71375 1.03539 6.33524 2.11453C6.0532 2.91758 5.79344 3.72805 5.54703 4.54297C5.45797 4.83688 5.32141 4.94969 5.00078 4.94078C4.14875 4.91703 3.29524 4.92297 2.4432 4.93633C1.34328 4.95266 0.486797 5.56125 0.145391 6.54539C-0.206406 7.5607 0.0919552 8.59086 0.975157 9.27367C1.66391 9.80657 2.37195 10.3157 3.08891 10.8085C3.35313 10.9911 3.39617 11.1648 3.29375 11.4572C3.01914 12.2439 2.76383 13.0366 2.52039 13.8322C2.18047 14.947 2.50258 15.9578 3.38133 16.5991C4.2393 17.2255 5.28578 17.2329 6.23133 16.5798C7.03883 16.0231 7.82406 15.4323 8.62859 14.849C9.45539 15.4457 10.251 16.0543 11.0793 16.6124C12.6453 17.6678 14.6834 16.7297 14.8645 14.8668C14.8986 14.512 14.8125 14.1291 14.713 13.7787C14.4889 12.9965 14.2306 12.2231 13.9649 11.4542C13.864 11.1633 13.9026 10.9881 14.1727 10.8085C14.713 10.4508 15.2103 10.0277 15.7521 9.67297C16.4542 9.21282 17.0079 8.64875 17.2617 7.82938C17.2617 7.49539 17.2617 7.16141 17.2617 6.82742H17.2602ZM13.009 6.60031C13.5463 6.60031 14.0852 6.61219 14.6225 6.59586C15.0545 6.5825 15.4033 6.69086 15.5443 7.13617C15.6809 7.56516 15.4419 7.83086 15.1168 8.06539C14.2425 8.6918 13.3786 9.33156 12.5043 9.95797C12.0709 10.2682 11.9373 10.6438 12.1184 11.1648C12.4583 12.1445 12.7566 13.1375 13.0847 14.1216C13.2213 14.5298 13.3177 14.9217 12.9125 15.2305C12.4776 15.563 12.1184 15.3225 11.7606 15.0583C10.9546 14.4645 10.1278 13.899 9.33516 13.2874C8.8468 12.9089 8.42078 12.9045 7.93094 13.2785C7.10563 13.9079 6.25063 14.4987 5.41789 15.1177C5.07945 15.3685 4.73953 15.5229 4.35656 15.2379C3.97508 14.9544 4.01813 14.5803 4.15024 14.184C4.46047 13.2533 4.76031 12.3181 5.06461 11.3859C5.34961 10.5116 5.30359 10.3662 4.5807 9.8407C3.75688 9.24101 2.93453 8.63836 2.10625 8.04313C1.79305 7.81899 1.5882 7.54586 1.70992 7.14953C1.83609 6.73836 2.14781 6.59289 2.56938 6.59735C3.60844 6.60922 4.6475 6.6018 5.68508 6.60031C6.49109 6.60031 6.65883 6.47414 6.91563 5.68594C7.22586 4.73594 7.53758 3.78594 7.84039 2.83297C7.96656 2.43516 8.14766 2.10266 8.62414 2.0982C9.09914 2.09523 9.28914 2.41586 9.41531 2.81961C9.73149 3.82602 10.067 4.82797 10.3831 5.83437C10.5494 6.3643 10.8804 6.62852 11.4504 6.60625C11.9684 6.58547 12.4895 6.6018 13.009 6.6018V6.60031Z" fill="url(#paint0_linear_7503_23006)"/>
<defs>
<linearGradient id="paint0_linear_7503_23006" x1="14.9855" y1="3.62487" x2="0.770263" y2="3.69693" gradientUnits="userSpaceOnUse">
<stop stop-color="#F8BF3B"/>
<stop offset="0.305" stop-color="#FF8B13"/>
<stop offset="1" stop-color="#EF5F3D"/>
</linearGradient>
</defs>
</svg>
