<svg width="132" height="132" viewBox="0 0 132 132" fill="none" xmlns="http://www.w3.org/2000/svg">
<g filter="url(#filter0_d_6574_15129)">
<rect x="30" y="28" width="72" height="72" rx="6" fill="white" shape-rendering="crispEdges"/>
<path d="M86.8983 80.7501C86.9141 80.5906 86.9268 80.5093 86.9268 80.425C86.9268 74.9171 86.9458 69.4092 86.9173 63.8983C86.9046 61.4092 85.1093 59.3776 82.5572 58.869C82.1075 58.7787 81.6389 58.7606 81.1766 58.7576C77.4023 58.7486 73.6311 58.7486 69.8568 58.7546C66.4213 58.7606 64.113 60.9728 64.1035 64.2565C64.1035 65.0029 64.1003 65.7493 64.1035 66.4928C64.1035 66.8539 64.018 67.1549 63.5621 67.1459C63.1441 67.1399 63.0301 66.8539 63.0396 66.5168C63.0713 65.2828 62.9668 64.0217 63.1789 62.8148C63.6982 59.8502 66.3611 57.7644 69.537 57.7433C73.5235 57.7162 77.5099 57.7102 81.4964 57.7433C85.1473 57.7764 87.978 60.5063 87.9875 63.9766C88.0033 69.638 87.9938 75.2994 87.9907 80.9608C87.9907 81.6199 87.8418 81.7644 87.1421 81.7644C83.7414 81.7644 80.3439 81.7644 76.9432 81.7644C76.7848 81.7644 76.5759 81.7825 76.4809 81.7012C76.3289 81.5718 76.1674 81.3611 76.1737 81.1865C76.1769 81.0451 76.3922 80.8645 76.5569 80.7832C76.6994 80.714 76.9052 80.7501 77.0825 80.7501C80.1254 80.7501 83.1683 80.7501 86.2112 80.7501C86.4201 80.7501 86.6323 80.7501 86.8888 80.7501H86.8983Z" fill="url(#paint0_linear_6574_15129)"/>
<path d="M75.5164 42.0001C79.6169 42.0272 82.8054 45.1092 82.7738 49.0129C82.7453 52.7842 79.4459 55.8662 75.4626 55.8421C71.4761 55.818 68.2084 52.6578 68.2464 48.8594C68.2813 45.0551 71.5458 41.9761 75.5164 42.0001ZM69.399 49.4102C69.38 52.3086 72.5369 54.9873 75.7286 54.8158C78.9266 54.6412 81.9315 51.8873 81.6149 49.4042C78.7936 49.0671 76.7735 47.6555 75.5164 45.1574C74.2562 47.6736 72.2202 49.0761 69.399 49.4132V49.4102ZM76.118 43.0837C76.289 45.8165 79.5029 48.7962 81.6624 48.2635C81.3172 45.0671 78.3947 43.1408 76.118 43.0837ZM74.9338 43.0897C72.3089 43.0054 69.152 46.0363 69.4401 48.3237C71.7896 48.2454 74.6172 46.2259 74.9338 43.0897Z" fill="url(#paint1_linear_6574_15129)"/>
<path d="M65.9619 86.0005C60.8387 85.9764 56.7889 82.0667 56.8047 77.1608C56.8206 72.3541 60.9844 68.4595 66.0886 68.4806C71.1104 68.5016 75.2267 72.4775 75.1951 77.2812C75.1602 82.142 71.0534 86.0216 65.9619 85.9975V86.0005ZM66.0062 84.9892C70.4487 85.0043 74.109 81.546 74.1248 77.3173C74.1438 73.0043 70.5278 69.5099 66.0442 69.5009C61.529 69.4918 57.8845 72.938 57.8718 77.233C57.8591 81.528 61.4751 84.9772 66.0062 84.9922V84.9892Z" fill="url(#paint2_linear_6574_15129)"/>
<path d="M48.3555 57.6607C48.3714 54.4101 51.1135 51.7946 54.4951 51.8067C57.8832 51.8157 60.6474 54.4523 60.6443 57.6667C60.6443 60.9173 57.8673 63.5298 54.4381 63.5117C51.0755 63.4937 48.3397 60.8631 48.3555 57.6607ZM54.4951 54.7352C53.4186 56.7457 51.7436 57.8624 49.4796 58.1603C49.5873 60.7217 52.2375 62.7412 55.0809 62.4703C57.4145 62.2476 59.7545 59.9331 59.4347 58.1483C57.2056 57.8383 55.5654 56.7277 54.4951 54.7352ZM53.8777 52.9504C51.981 52.7518 49.3846 55.2107 49.5303 57.0708C51.6137 57.0256 53.6814 55.0663 53.8777 52.9504ZM59.4885 57.0588C59.3334 54.7442 56.9143 52.8812 55.1379 52.9444C55.1727 54.9158 57.3322 57.0016 59.4885 57.0588Z" fill="url(#paint3_linear_6574_15129)"/>
<path d="M45.0716 80.7511C45.3408 80.7511 45.5498 80.7511 45.7587 80.7511C48.8555 80.7511 51.9522 80.7511 55.0489 80.7511C55.2262 80.7511 55.4352 80.7029 55.5745 80.7751C55.7645 80.8745 56.04 81.0791 56.0273 81.2176C56.0083 81.4072 55.774 81.5998 55.5904 81.7443C55.5017 81.8135 55.3149 81.7714 55.1724 81.7714C51.7559 81.7714 48.3362 81.7714 44.9197 81.7714C44.1249 81.7714 44.0014 81.651 44.0014 80.8805C44.0014 77.6931 43.9982 74.5058 44.0014 71.3184C44.0077 67.6736 46.8543 64.9407 50.6698 64.9317C54.2288 64.9226 57.7878 64.9317 61.35 64.9317C61.5083 64.9317 61.7173 64.8925 61.8155 64.9708C61.9833 65.1062 62.1764 65.3199 62.1764 65.5005C62.1764 65.645 61.9326 65.8256 61.7553 65.9249C61.635 65.9911 61.4418 65.946 61.2835 65.946C57.8131 65.946 54.3428 65.946 50.8724 65.946C47.3989 65.946 45.0748 68.1551 45.0716 71.4539C45.0716 74.3523 45.0716 77.2507 45.0716 80.1491C45.0716 80.3177 45.0716 80.4862 45.0716 80.7481V80.7511Z" fill="url(#paint4_linear_6574_15129)"/>
<path d="M72.1689 51.0991C72.4191 51.0781 72.6819 51.0991 72.913 51.0269C73.4703 50.8644 74.0212 50.6717 74.5627 50.4701C74.9142 50.3377 75.2086 50.3617 75.3606 50.7079C75.5126 51.057 75.3258 51.2918 74.968 51.4091C74.2999 51.6319 73.6413 51.8877 72.9605 52.0623C72.1467 52.2699 71.5261 52.0472 71.2 51.4784C71.0923 51.2948 70.9815 51.045 71.0322 50.8614C71.105 50.5905 71.2855 50.3256 71.4913 50.1179C71.5673 50.0427 71.9409 50.0878 72.0011 50.1811C72.1372 50.3948 72.1626 50.6747 72.2322 50.9246C72.2101 50.9787 72.1879 51.0359 72.1657 51.0901L72.1689 51.0991Z" fill="url(#paint5_linear_6574_15129)"/>
<path d="M78.7285 51.0779C78.871 50.6776 78.9311 50.3857 79.0863 50.1479C79.137 50.0696 79.4694 50.0757 79.6087 50.1509C79.9697 50.3465 80.0615 50.6927 80.0014 51.0719C79.9001 51.6949 79.2763 52.2307 78.586 52.1013C77.6741 51.9297 76.7875 51.6227 75.9136 51.3157C75.7711 51.2645 75.6349 50.8582 75.7078 50.7047C75.7774 50.5512 76.1447 50.3977 76.3284 50.4429C76.9427 50.5903 77.5284 50.8432 78.1364 51.0238C78.3675 51.093 78.6303 51.0689 78.7317 51.0749L78.7285 51.0779Z" fill="url(#paint6_linear_6574_15129)"/>
<path d="M64.6871 77.4156C65.7415 76.2599 66.7579 75.1523 67.7712 74.0386C68.3253 73.4307 69.0155 73.1989 69.8293 73.4246C71.175 73.8009 71.6436 75.3208 70.7127 76.3682C69.405 77.846 68.0625 79.2907 66.7326 80.7474C66.5236 80.9762 66.321 81.217 66.0993 81.4337C65.2982 82.2162 64.0792 82.2313 63.3002 81.4337C62.3946 80.5006 61.5144 79.5465 60.65 78.5804C59.9724 77.8219 60.061 76.7143 60.8146 76.0612C61.5904 75.387 62.7556 75.4201 63.5029 76.1575C63.8955 76.5458 64.2596 76.9641 64.6839 77.4186L64.6871 77.4156ZM70.2473 75.0921C70.0225 74.8573 69.8515 74.5593 69.5887 74.4269C69.2309 74.2463 68.8667 74.3848 68.5913 74.6888C67.483 75.9047 66.3748 77.1207 65.2634 78.3336C64.8296 78.8061 64.57 78.8122 64.1362 78.3577C63.6834 77.8791 63.2464 77.3885 62.7873 76.916C62.4168 76.5337 61.9134 76.4886 61.5524 76.7775C61.1724 77.0845 61.1503 77.5842 61.5271 77.9965C62.3313 78.8784 63.1419 79.7572 63.9652 80.627C64.4528 81.1417 64.9468 81.1447 65.4185 80.6331C66.8972 79.0258 68.3633 77.4126 69.8261 75.7933C69.9813 75.6218 70.07 75.393 70.2473 75.0921Z" fill="url(#paint7_linear_6574_15129)"/>
<path d="M86.8983 80.7501C86.9141 80.5906 86.9268 80.5093 86.9268 80.425C86.9268 74.9171 86.9458 69.4092 86.9173 63.8983C86.9046 61.4092 85.1093 59.3776 82.5572 58.869C82.1075 58.7787 81.6389 58.7606 81.1766 58.7576C77.4023 58.7486 73.6311 58.7486 69.8568 58.7546C66.4213 58.7606 64.113 60.9728 64.1035 64.2565C64.1035 65.0029 64.1003 65.7493 64.1035 66.4928C64.1035 66.8539 64.018 67.1549 63.5621 67.1459C63.1441 67.1399 63.0301 66.8539 63.0396 66.5168C63.0713 65.2828 62.9668 64.0217 63.1789 62.8148C63.6982 59.8502 66.3611 57.7644 69.537 57.7433C73.5235 57.7162 77.5099 57.7102 81.4964 57.7433C85.1473 57.7764 87.978 60.5063 87.9875 63.9766C88.0033 69.638 87.9938 75.2994 87.9907 80.9608C87.9907 81.6199 87.8418 81.7644 87.1421 81.7644C83.7414 81.7644 80.3439 81.7644 76.9432 81.7644C76.7848 81.7644 76.5759 81.7825 76.4809 81.7012C76.3289 81.5718 76.1674 81.3611 76.1737 81.1865C76.1769 81.0451 76.3922 80.8645 76.5569 80.7832C76.6994 80.714 76.9052 80.7501 77.0825 80.7501C80.1254 80.7501 83.1683 80.7501 86.2112 80.7501C86.4201 80.7501 86.6323 80.7501 86.8888 80.7501H86.8983Z" stroke="url(#paint8_linear_6574_15129)" stroke-width="0.5"/>
<path d="M75.5164 42.0001C79.6169 42.0272 82.8054 45.1092 82.7738 49.0129C82.7453 52.7842 79.4459 55.8662 75.4626 55.8421C71.4761 55.818 68.2084 52.6578 68.2464 48.8594C68.2813 45.0551 71.5458 41.9761 75.5164 42.0001ZM69.399 49.4102C69.38 52.3086 72.5369 54.9873 75.7286 54.8158C78.9266 54.6412 81.9315 51.8873 81.6149 49.4042C78.7936 49.0671 76.7735 47.6555 75.5164 45.1574C74.2562 47.6736 72.2202 49.0761 69.399 49.4132V49.4102ZM76.118 43.0837C76.289 45.8165 79.5029 48.7962 81.6624 48.2635C81.3172 45.0671 78.3947 43.1408 76.118 43.0837ZM74.9338 43.0897C72.3089 43.0054 69.152 46.0363 69.4401 48.3237C71.7896 48.2454 74.6172 46.2259 74.9338 43.0897Z" stroke="url(#paint9_linear_6574_15129)" stroke-width="0.5"/>
<path d="M65.9619 86.0005C60.8387 85.9764 56.7889 82.0667 56.8047 77.1608C56.8206 72.3541 60.9844 68.4595 66.0886 68.4806C71.1104 68.5016 75.2267 72.4775 75.1951 77.2812C75.1602 82.142 71.0534 86.0216 65.9619 85.9975V86.0005ZM66.0062 84.9892C70.4487 85.0043 74.109 81.546 74.1248 77.3173C74.1438 73.0043 70.5278 69.5099 66.0442 69.5009C61.529 69.4918 57.8845 72.938 57.8718 77.233C57.8591 81.528 61.4751 84.9772 66.0062 84.9922V84.9892Z" stroke="url(#paint10_linear_6574_15129)" stroke-width="0.5"/>
<path d="M48.3555 57.6607C48.3714 54.4101 51.1135 51.7946 54.4951 51.8067C57.8832 51.8157 60.6474 54.4523 60.6443 57.6667C60.6443 60.9173 57.8673 63.5298 54.4381 63.5117C51.0755 63.4937 48.3397 60.8631 48.3555 57.6607ZM54.4951 54.7352C53.4186 56.7457 51.7436 57.8624 49.4796 58.1603C49.5873 60.7217 52.2375 62.7412 55.0809 62.4703C57.4145 62.2476 59.7545 59.9331 59.4347 58.1483C57.2056 57.8383 55.5654 56.7277 54.4951 54.7352ZM53.8777 52.9504C51.981 52.7518 49.3846 55.2107 49.5303 57.0708C51.6137 57.0256 53.6814 55.0663 53.8777 52.9504ZM59.4885 57.0588C59.3334 54.7442 56.9143 52.8812 55.1379 52.9444C55.1727 54.9158 57.3322 57.0016 59.4885 57.0588Z" stroke="url(#paint11_linear_6574_15129)" stroke-width="0.5"/>
<path d="M45.0716 80.7511C45.3408 80.7511 45.5498 80.7511 45.7587 80.7511C48.8555 80.7511 51.9522 80.7511 55.0489 80.7511C55.2262 80.7511 55.4352 80.7029 55.5745 80.7751C55.7645 80.8745 56.04 81.0791 56.0273 81.2176C56.0083 81.4072 55.774 81.5998 55.5904 81.7443C55.5017 81.8135 55.3149 81.7714 55.1724 81.7714C51.7559 81.7714 48.3362 81.7714 44.9197 81.7714C44.1249 81.7714 44.0014 81.651 44.0014 80.8805C44.0014 77.6931 43.9982 74.5058 44.0014 71.3184C44.0077 67.6736 46.8543 64.9407 50.6698 64.9317C54.2288 64.9226 57.7878 64.9317 61.35 64.9317C61.5083 64.9317 61.7173 64.8925 61.8155 64.9708C61.9833 65.1062 62.1764 65.3199 62.1764 65.5005C62.1764 65.645 61.9326 65.8256 61.7553 65.9249C61.635 65.9911 61.4418 65.946 61.2835 65.946C57.8131 65.946 54.3428 65.946 50.8724 65.946C47.3989 65.946 45.0748 68.1551 45.0716 71.4539C45.0716 74.3523 45.0716 77.2507 45.0716 80.1491C45.0716 80.3177 45.0716 80.4862 45.0716 80.7481V80.7511Z" stroke="url(#paint12_linear_6574_15129)" stroke-width="0.5"/>
<path d="M72.1689 51.0991C72.4191 51.0781 72.6819 51.0991 72.913 51.0269C73.4703 50.8644 74.0212 50.6717 74.5627 50.4701C74.9142 50.3377 75.2086 50.3617 75.3606 50.7079C75.5126 51.057 75.3258 51.2918 74.968 51.4091C74.2999 51.6319 73.6413 51.8877 72.9605 52.0623C72.1467 52.2699 71.5261 52.0472 71.2 51.4784C71.0923 51.2948 70.9815 51.045 71.0322 50.8614C71.105 50.5905 71.2855 50.3256 71.4913 50.1179C71.5673 50.0427 71.9409 50.0878 72.0011 50.1811C72.1372 50.3948 72.1626 50.6747 72.2322 50.9246C72.2101 50.9787 72.1879 51.0359 72.1657 51.0901L72.1689 51.0991Z" stroke="url(#paint13_linear_6574_15129)" stroke-width="0.5"/>
<path d="M78.7285 51.0779C78.871 50.6776 78.9311 50.3857 79.0863 50.1479C79.137 50.0696 79.4694 50.0757 79.6087 50.1509C79.9697 50.3465 80.0615 50.6927 80.0014 51.0719C79.9001 51.6949 79.2763 52.2307 78.586 52.1013C77.6741 51.9297 76.7875 51.6227 75.9136 51.3157C75.7711 51.2645 75.6349 50.8582 75.7078 50.7047C75.7774 50.5512 76.1447 50.3977 76.3284 50.4429C76.9427 50.5903 77.5284 50.8432 78.1364 51.0238C78.3675 51.093 78.6303 51.0689 78.7317 51.0749L78.7285 51.0779Z" stroke="url(#paint14_linear_6574_15129)" stroke-width="0.5"/>
<path d="M64.6871 77.4156C65.7415 76.2599 66.7579 75.1523 67.7712 74.0386C68.3253 73.4307 69.0155 73.1989 69.8293 73.4246C71.175 73.8009 71.6436 75.3208 70.7127 76.3682C69.405 77.846 68.0625 79.2907 66.7326 80.7474C66.5236 80.9762 66.321 81.217 66.0993 81.4337C65.2982 82.2162 64.0792 82.2313 63.3002 81.4337C62.3946 80.5006 61.5144 79.5465 60.65 78.5804C59.9724 77.8219 60.061 76.7143 60.8146 76.0612C61.5904 75.387 62.7556 75.4201 63.5029 76.1575C63.8955 76.5458 64.2596 76.9641 64.6839 77.4186L64.6871 77.4156ZM70.2473 75.0921C70.0225 74.8573 69.8515 74.5593 69.5887 74.4269C69.2309 74.2463 68.8667 74.3848 68.5913 74.6888C67.483 75.9047 66.3748 77.1207 65.2634 78.3336C64.8296 78.8061 64.57 78.8122 64.1362 78.3577C63.6834 77.8791 63.2464 77.3885 62.7873 76.916C62.4168 76.5337 61.9134 76.4886 61.5524 76.7775C61.1724 77.0845 61.1503 77.5842 61.5271 77.9965C62.3313 78.8784 63.1419 79.7572 63.9652 80.627C64.4528 81.1417 64.9468 81.1447 65.4185 80.6331C66.8972 79.0258 68.3633 77.4126 69.8261 75.7933C69.9813 75.6218 70.07 75.393 70.2473 75.0921Z" stroke="url(#paint15_linear_6574_15129)" stroke-width="0.5"/>
</g>
<defs>
<filter id="filter0_d_6574_15129" x="0" y="0" width="132" height="132" filterUnits="userSpaceOnUse" color-interpolation-filters="sRGB">
<feFlood flood-opacity="0" result="BackgroundImageFix"/>
<feColorMatrix in="SourceAlpha" type="matrix" values="0 0 0 0 0 0 0 0 0 0 0 0 0 0 0 0 0 0 127 0" result="hardAlpha"/>
<feOffset dy="2"/>
<feGaussianBlur stdDeviation="15"/>
<feComposite in2="hardAlpha" operator="out"/>
<feColorMatrix type="matrix" values="0 0 0 0 1 0 0 0 0 0.545098 0 0 0 0 0.0745098 0 0 0 0.12 0"/>
<feBlend mode="normal" in2="BackgroundImageFix" result="effect1_dropShadow_6574_15129"/>
<feBlend mode="normal" in="SourceGraphic" in2="effect1_dropShadow_6574_15129" result="shape"/>
</filter>
<linearGradient id="paint0_linear_6574_15129" x1="49.802" y1="50.4616" x2="86.0364" y2="50.6388" gradientUnits="userSpaceOnUse">
<stop stop-color="#F8BF3B"/>
<stop offset="0.305" stop-color="#FF8B13"/>
<stop offset="1" stop-color="#EF5F3D"/>
</linearGradient>
<linearGradient id="paint1_linear_6574_15129" x1="49.802" y1="50.4616" x2="86.0364" y2="50.6388" gradientUnits="userSpaceOnUse">
<stop stop-color="#F8BF3B"/>
<stop offset="0.305" stop-color="#FF8B13"/>
<stop offset="1" stop-color="#EF5F3D"/>
</linearGradient>
<linearGradient id="paint2_linear_6574_15129" x1="49.802" y1="50.4616" x2="86.0364" y2="50.6388" gradientUnits="userSpaceOnUse">
<stop stop-color="#F8BF3B"/>
<stop offset="0.305" stop-color="#FF8B13"/>
<stop offset="1" stop-color="#EF5F3D"/>
</linearGradient>
<linearGradient id="paint3_linear_6574_15129" x1="49.802" y1="50.4616" x2="86.0364" y2="50.6388" gradientUnits="userSpaceOnUse">
<stop stop-color="#F8BF3B"/>
<stop offset="0.305" stop-color="#FF8B13"/>
<stop offset="1" stop-color="#EF5F3D"/>
</linearGradient>
<linearGradient id="paint4_linear_6574_15129" x1="49.802" y1="50.4616" x2="86.0364" y2="50.6388" gradientUnits="userSpaceOnUse">
<stop stop-color="#F8BF3B"/>
<stop offset="0.305" stop-color="#FF8B13"/>
<stop offset="1" stop-color="#EF5F3D"/>
</linearGradient>
<linearGradient id="paint5_linear_6574_15129" x1="49.802" y1="50.4616" x2="86.0364" y2="50.6388" gradientUnits="userSpaceOnUse">
<stop stop-color="#F8BF3B"/>
<stop offset="0.305" stop-color="#FF8B13"/>
<stop offset="1" stop-color="#EF5F3D"/>
</linearGradient>
<linearGradient id="paint6_linear_6574_15129" x1="49.802" y1="50.4616" x2="86.0364" y2="50.6388" gradientUnits="userSpaceOnUse">
<stop stop-color="#F8BF3B"/>
<stop offset="0.305" stop-color="#FF8B13"/>
<stop offset="1" stop-color="#EF5F3D"/>
</linearGradient>
<linearGradient id="paint7_linear_6574_15129" x1="49.802" y1="50.4616" x2="86.0364" y2="50.6388" gradientUnits="userSpaceOnUse">
<stop stop-color="#F8BF3B"/>
<stop offset="0.305" stop-color="#FF8B13"/>
<stop offset="1" stop-color="#EF5F3D"/>
</linearGradient>
<linearGradient id="paint8_linear_6574_15129" x1="49.802" y1="50.4616" x2="86.0364" y2="50.6388" gradientUnits="userSpaceOnUse">
<stop stop-color="#F8BF3B"/>
<stop offset="0.305" stop-color="#FF8B13"/>
<stop offset="1" stop-color="#EF5F3D"/>
</linearGradient>
<linearGradient id="paint9_linear_6574_15129" x1="49.802" y1="50.4616" x2="86.0364" y2="50.6388" gradientUnits="userSpaceOnUse">
<stop stop-color="#F8BF3B"/>
<stop offset="0.305" stop-color="#FF8B13"/>
<stop offset="1" stop-color="#EF5F3D"/>
</linearGradient>
<linearGradient id="paint10_linear_6574_15129" x1="49.802" y1="50.4616" x2="86.0364" y2="50.6388" gradientUnits="userSpaceOnUse">
<stop stop-color="#F8BF3B"/>
<stop offset="0.305" stop-color="#FF8B13"/>
<stop offset="1" stop-color="#EF5F3D"/>
</linearGradient>
<linearGradient id="paint11_linear_6574_15129" x1="49.802" y1="50.4616" x2="86.0364" y2="50.6388" gradientUnits="userSpaceOnUse">
<stop stop-color="#F8BF3B"/>
<stop offset="0.305" stop-color="#FF8B13"/>
<stop offset="1" stop-color="#EF5F3D"/>
</linearGradient>
<linearGradient id="paint12_linear_6574_15129" x1="49.802" y1="50.4616" x2="86.0364" y2="50.6388" gradientUnits="userSpaceOnUse">
<stop stop-color="#F8BF3B"/>
<stop offset="0.305" stop-color="#FF8B13"/>
<stop offset="1" stop-color="#EF5F3D"/>
</linearGradient>
<linearGradient id="paint13_linear_6574_15129" x1="49.802" y1="50.4616" x2="86.0364" y2="50.6388" gradientUnits="userSpaceOnUse">
<stop stop-color="#F8BF3B"/>
<stop offset="0.305" stop-color="#FF8B13"/>
<stop offset="1" stop-color="#EF5F3D"/>
</linearGradient>
<linearGradient id="paint14_linear_6574_15129" x1="49.802" y1="50.4616" x2="86.0364" y2="50.6388" gradientUnits="userSpaceOnUse">
<stop stop-color="#F8BF3B"/>
<stop offset="0.305" stop-color="#FF8B13"/>
<stop offset="1" stop-color="#EF5F3D"/>
</linearGradient>
<linearGradient id="paint15_linear_6574_15129" x1="49.802" y1="50.4616" x2="86.0364" y2="50.6388" gradientUnits="userSpaceOnUse">
<stop stop-color="#F8BF3B"/>
<stop offset="0.305" stop-color="#FF8B13"/>
<stop offset="1" stop-color="#EF5F3D"/>
</linearGradient>
</defs>
</svg>
