<svg width="40" height="40" viewBox="0 0 40 40" fill="none" xmlns="http://www.w3.org/2000/svg">
<g clip-path="url(#clip0_5624_6986)">
<path d="M35.0557 18.999C35.7327 20.2729 35.0557 21.829 33.9825 22.1294M35.0557 18.999L28.1506 40.0029C28.9823 40.0029 29.8141 40.0032 30.646 40.0035C32.8638 40.0043 35.0822 40.0051 37.3006 40.0003C38.9472 39.9964 40.0059 38.9349 40.0086 37.2923M35.0557 18.999C34.9245 18.7536 34.9482 18.5883 35.0675 18.3627C35.6212 17.317 35.9925 16.2215 35.8115 15.0157L35.0557 18.999ZM33.9825 22.1294C33.871 22.1609 33.7634 22.3236 33.7188 22.4483M33.9825 22.1294L34.0499 22.3702C34.0534 22.3692 34.057 22.3682 34.0605 22.3672C34.0628 22.3654 34.064 22.3647 34.064 22.3647C34.064 22.3647 34.0595 22.3675 34.0504 22.37L33.9825 22.1294ZM33.7188 22.4483C33.1179 24.1329 32.1011 25.4619 30.4952 26.3108M33.7188 22.4483L33.9542 22.5325C33.9542 22.5324 33.9542 22.5323 33.9543 22.5322L33.7188 22.4483ZM30.4952 26.3108C30.402 26.3607 30.3115 26.5903 30.3496 26.686C30.7681 27.7619 31.3847 28.6068 32.6377 28.8495M30.4952 26.3108L30.612 26.5318C30.6187 26.5283 30.6254 26.5248 30.632 26.5212C30.6322 26.5209 30.6325 26.5206 30.6327 26.5202C30.6365 26.5148 30.6381 26.5134 30.6368 26.5147C30.6359 26.5156 30.6283 26.5231 30.6132 26.5312L30.4952 26.3108ZM32.6377 28.8495C34.1216 29.1369 35.5753 29.5803 36.9057 30.3098C38.7963 31.3437 39.8354 32.9653 39.9692 35.1301M32.6377 28.8495L32.6852 28.6041C32.6852 28.6041 32.6852 28.6041 32.6852 28.6041L32.6377 28.8495ZM39.9692 35.1301C40.0115 35.8123 40.0102 36.498 40.0088 37.1817C40.0087 37.2185 40.0086 37.2554 40.0086 37.2923M39.9692 35.1301L40.2187 35.1146C40.2187 35.1147 40.2187 35.1147 40.2187 35.1147M39.9692 35.1301L40.2187 35.1147M40.0086 37.2923L40.2586 37.2928M40.0086 37.2923L40.2586 37.2927C40.2586 37.2927 40.2586 37.2927 40.2586 37.2928M40.2586 37.2928C40.2572 38.1687 39.973 38.912 39.4479 39.4375C38.9227 39.9631 38.179 40.2482 37.3012 40.2503H37.3011C35.0824 40.2551 32.8636 40.2543 30.6457 40.2535C29.8138 40.2532 28.9822 40.2529 28.1506 40.2529H27.9961L27.9948 40.2503M40.2586 37.2928C40.2586 37.2552 40.2587 37.2176 40.2588 37.18C40.2602 36.4982 40.2616 35.8051 40.2187 35.1147M27.9948 40.2503L37.0259 30.0906C38.9913 31.1655 40.0796 32.8639 40.2187 35.1147M27.9948 40.2503C28.0463 40.2503 28.0978 40.2503 28.1493 40.2503V40.0036V40.0003L27.9257 40.1121L27.927 40.1147L27.9948 40.2503ZM27.9948 40.2503C27.2147 40.2503 26.4345 40.2506 25.6543 40.2509C23.4357 40.2517 21.2168 40.2524 18.9988 40.2477M27.9948 40.2503L16.0979 37.8417C16.0979 37.8419 16.0979 37.8421 16.0979 37.8423M18.9988 40.2477C18.9988 40.2477 18.9989 40.2477 18.9989 40.2477L18.9994 39.9977L18.9988 40.2477ZM18.9988 40.2477C17.5789 40.2448 16.5079 39.4596 16.1576 38.1576L16.1571 38.1561C16.1531 38.1405 16.1483 38.1243 16.142 38.1031L16.142 38.1031C16.1362 38.0833 16.129 38.0589 16.1225 38.0337C16.1098 37.9845 16.0955 37.9172 16.0979 37.8423M16.0979 37.8423C16.1082 37.4789 16.1063 37.1201 16.1044 36.7565C16.1032 36.5189 16.1019 36.2792 16.104 36.0349C16.1093 35.4264 16.1361 34.8101 16.2419 34.2029C16.6445 31.8919 18.1508 30.4056 20.2799 29.62L20.2801 29.6199C21.4152 29.2019 22.5855 28.8497 23.7657 28.5821L23.7659 28.5821C24.1568 28.4937 24.5886 28.2022 24.9601 27.8026C25.3179 27.4177 25.5931 26.9609 25.7109 26.5573M16.0979 37.8423L25.7109 26.5573M25.7109 26.5573C25.7099 26.5551 25.7087 26.5528 25.7074 26.5504C25.7043 26.5446 25.7008 26.5389 25.6973 26.5338C25.6954 26.531 25.6936 26.5285 25.692 26.5264C25.691 26.5252 25.6901 26.524 25.6892 26.523C23.9975 25.6309 22.9261 24.2335 22.3259 22.4574L25.7109 26.5573ZM20.7649 18.7848L20.7648 18.7847C19.4876 17.6361 18.5123 16.2409 18.3334 14.4489L18.3334 14.4488C18.0851 11.9599 20.3859 9.97396 22.8185 10.4833L20.7649 18.7848ZM20.7649 18.7848C20.8848 18.8925 20.9183 18.9384 20.93 18.9713C20.9363 18.9889 20.9488 19.0365 20.8914 19.1803L20.7649 18.7848ZM27.3853 10.7404L27.3854 10.7403L27.4175 10.7308C28.2129 10.4945 29.029 10.252 29.8615 10.1016L27.3853 10.7404ZM27.3853 10.7404C26.3841 11.038 25.4036 11.1225 24.407 10.8603M27.3853 10.7404L24.407 10.8603M33.1317 13.4614L33.1316 13.4611C32.7598 12.1245 31.4696 11.2861 30.0971 11.5152C29.47 11.6206 28.8555 11.8048 28.226 11.9935C28.1383 12.0198 28.0504 12.0462 27.9621 12.0724L27.962 12.0724C26.7975 12.4183 25.5989 12.6014 24.3561 12.3262C24.3561 12.3262 24.3561 12.3262 24.356 12.3262L24.4101 12.0821L33.1317 13.4614ZM33.1317 13.4614C33.1896 13.6685 33.2737 13.8569 33.4288 13.9974C33.5863 14.1401 33.7856 14.2053 34.0159 14.2316L34.0442 13.9832L34.0152 14.2315C34.0616 14.2369 34.1474 14.2716 34.2366 14.3395C34.3275 14.4087 34.3752 14.4767 34.3864 14.5093C34.5345 14.9412 34.6356 15.3995 34.6261 15.8288C34.611 16.4824 34.3784 17.0952 34.0434 17.7179C33.9963 17.6408 33.9417 17.574 33.878 17.5186C33.7683 17.4232 33.6451 17.3731 33.5198 17.3527C33.3122 17.3188 33.0839 17.368 32.9017 17.4074C32.8835 17.4113 32.8658 17.4151 32.8486 17.4187C31.7843 17.6429 30.4805 16.9875 29.9478 15.9703L29.9478 15.9703C29.7369 15.5679 29.4604 15.2738 29.0856 15.2374C28.7209 15.202 28.3791 15.4246 28.0694 15.7445L28.0693 15.7446C26.7561 17.103 25.174 17.6158 23.3176 17.1966C23.1199 17.1516 22.9003 17.1217 22.6973 17.1934C22.476 17.2716 22.3291 17.4484 22.2322 17.6915L22.4644 17.7841M33.1317 13.4614L21.8073 17.7798M21.8073 17.7798L21.8075 17.78C21.9139 17.869 22.0042 17.8802 22.0608 17.8676C22.1145 17.8556 22.1839 17.8121 22.2323 17.6912L22.4644 17.7841M21.8073 17.7798C20.8151 16.9509 20.1302 15.9271 19.8137 14.6814L21.8073 17.7798ZM22.4644 17.7841C22.6245 17.3826 22.8816 17.3537 23.2621 17.4403L21.647 17.9717C21.9527 18.2275 22.3174 18.1514 22.4644 17.7841ZM28.8854 17.0205C27.3671 18.4005 25.5718 18.9902 23.506 18.7648C23.5053 18.7649 23.4944 18.7655 23.4697 18.7739C23.4391 18.7844 23.4047 18.8008 23.3614 18.8228C23.299 18.8548 23.2417 18.8915 23.1739 18.935C23.1488 18.9511 23.1221 18.9682 23.0933 18.9863C22.9953 19.0477 22.8759 19.1177 22.7395 19.1593L22.7394 19.1594C22.4056 19.2613 22.1387 19.6287 22.1669 20.16L22.1669 20.1601C22.194 20.6758 22.4759 20.9698 22.8266 20.9903L22.8272 20.9903C23.0403 21.0032 23.2084 21.0727 23.3393 21.2038C23.4577 21.3225 23.528 21.4763 23.5848 21.6079L23.5849 21.6082C23.6633 21.7905 23.7367 21.9715 23.809 22.1498C24.0387 22.716 24.2572 23.2548 24.5886 23.7186L24.5887 23.7187C25.4813 24.9699 26.7163 25.6114 27.9638 25.6613C29.2118 25.7113 30.4966 25.1705 31.4899 24.0085C32.058 23.3439 32.4429 22.5793 32.6676 21.7284L32.6677 21.7281C32.7075 21.578 32.7636 21.3966 32.8848 21.2514C33.0181 21.0918 33.2063 21.0014 33.4531 20.9852L33.4532 20.9852C33.6527 20.9721 33.7945 20.8981 33.8979 20.7791C34.0061 20.6545 34.0887 20.4609 34.1241 20.1852L28.8854 17.0205ZM28.8854 17.0205C29.6075 18.0239 30.6025 18.6471 31.8479 18.8697C31.8648 18.8729 31.8873 18.8775 31.9127 18.8827C31.9661 18.8937 32.0324 18.9073 32.0861 18.9151C32.1754 18.9281 32.2889 18.9363 32.4053 18.9068M28.8854 17.0205L32.4053 18.9068M32.4053 18.9068C32.4052 18.9068 32.4051 18.9068 32.405 18.9068L32.3439 18.6646L32.4055 18.9067C32.4054 18.9067 32.4054 18.9067 32.4053 18.9068ZM24.407 10.8603C23.8812 10.7216 23.3522 10.5946 22.8186 10.4834L24.407 10.8603ZM33.6894 19.2L33.7582 18.9596L33.6894 19.2ZM33.6894 19.2C33.7966 19.2307 33.9219 19.3428 34.0167 19.5437M33.6894 19.2L34.0167 19.5437M34.0167 19.5437C34.1087 19.7387 34.1505 19.9758 34.1242 20.1847L34.0167 19.5437ZM38.8139 37.3888L38.8139 37.3891C38.811 37.8254 38.6609 38.1762 38.4179 38.4176C38.1749 38.659 37.8221 38.8077 37.3829 38.8083C35.1766 38.8111 32.9698 38.8106 30.7629 38.81C29.8795 38.8098 28.996 38.8096 28.1126 38.8096H28.095H28.0773H28.0597H28.0421H28.0245H28.0069H27.9892H27.9716H27.954H27.9364H27.9188H27.9011H27.8835H27.8659H27.8483H27.8307H27.813H27.7954H27.7778H27.7602H27.7426H27.7249H27.7073H27.6897H27.6721H27.6545H27.6368H27.6192H27.6016H27.584H27.5664H27.5487H27.5311H27.5135H27.4959H27.4783H27.4607H27.443H27.4254H27.4078H27.3902H27.3726H27.3549H27.3373H27.3197H27.3021H27.2845H27.2668H27.2492H27.2316H27.214H27.1964H27.1787H27.1611H27.1435H27.1259H27.1083H27.0906H27.073H27.0554H27.0378H27.0202H27.0025H26.9849H26.9673H26.9497H26.9321H26.9144H26.8968H26.8792H26.8616H26.844H26.8263H26.8087H26.7911H26.7735H26.7559H26.7382H26.7206H26.703H26.6854H26.6678H26.6501H26.6325H26.6149H26.5973H26.5797H26.562H26.5444H26.5268H26.5092H26.4916H26.4739H26.4563H26.4387H26.4211H26.4035H26.3858H26.3682H26.3506H26.333H26.3154H26.2977H26.2801H26.2625H26.2449H26.2273H26.2096H26.192H26.1744H26.1568H26.1392H26.1215H26.1039H26.0863H26.0687H26.0511H26.0334H26.0158H25.9982H25.9806H25.963H25.9453H25.9277H25.9101H25.8925H25.8749H25.8572H25.8396H25.822H25.8044H25.7868H25.7691H25.7515H25.7339H25.7163H25.6987H25.681H25.6634H25.6458H25.6282H25.6106H25.5929H25.5753H25.5577H25.5401H25.5225H25.5048H25.4872H25.4696H25.452H25.4344H25.4167H25.3991H25.3815H25.3639H25.3463H25.3286H25.311H25.2934H25.2758H25.2582H25.2405H25.2229H25.2053H25.1877H25.1701H25.1524H25.1348H25.1172H25.0996H25.082H25.0643H25.0467H25.0291H25.0115H24.9939H24.9762H24.9586H24.941H24.9234H24.9058H24.8881H24.8705H24.8529H24.8353H24.8177H24.8001H24.7824H24.7648H24.7472H24.7296H24.712H24.6943H24.6767H24.6591H24.6415H24.6239H24.6062H24.5886H24.571H24.5534H24.5358H24.5181H24.5005H24.4829H24.4653H24.4477H24.43H24.4124H24.3948H24.3772H24.3596H24.3419H24.3243H24.3067H24.2891H24.2715H24.2538H24.2362H24.2186H24.201H24.1834H24.1657H24.1481H24.1305H24.1129H24.0953H24.0776H24.06H24.0424H24.0248H24.0072H23.9895H23.9719H23.9543H23.9367H23.9191H23.9014H23.8838H23.8662H23.8486H23.831H23.8133H23.7957H23.7781H23.7605H23.7429H23.7252H23.7076H23.69H23.6724H23.6548H23.6371H23.6195H23.6019H23.5843H23.5667H23.549H23.5314H23.5138H23.4962H23.4786H23.4609H23.4433H23.4257H23.4081H23.3905H23.3728H23.3552H23.3376H23.32H23.3024H23.2847H23.2671H23.2495H23.2319H23.2143H23.1966H23.179H23.1614H23.1438H23.1262H23.1085H23.0909H23.0733H23.0557H23.0381H23.0204H23.0028H22.9852H22.9676H22.95H22.9323H22.9147H22.8971H22.8795H22.8619H22.8442H22.8266H22.809H22.7914H22.7738H22.7561H22.7385H22.7209H22.7033H22.6857H22.668H22.6504H22.6328H22.6152H22.5976H22.5799H22.5623H22.5447H22.5271H22.5095H22.4918H22.4742H22.4566H22.439H22.4214H22.4037H22.3861H22.3685H22.3509H22.3333H22.3156H22.298H22.2804H22.2628H22.2452H22.2276H22.2099H22.1923H22.1747H22.1571H22.1395H22.1218H22.1042H22.0866H22.069H22.0514H22.0337H22.0161H21.9985H21.9809H21.9633H21.9456H21.928H21.9104H21.8928H21.8752H21.8575H21.8399H21.8223H21.8047H21.7871H21.7694H21.7518H21.7342H21.7166H21.699H21.6813H21.6637H21.6461H21.6285H21.6109H21.5932H21.5756H21.558H21.5404H21.5228H21.5051H21.4875H21.4699H21.4523H21.4347H21.417H21.3994H21.3818H21.3642H21.3466H21.3289H21.3113H21.2937H21.2761H21.2585H21.2408H21.2232H21.2056H21.188H21.1704H21.1527H21.1351H21.1175H21.0999H21.0823H21.0646H21.047H21.0294H21.0118H20.9942H20.9765H20.9589H20.9413H20.9237H20.9061H20.8884H20.8708H20.8532H20.8356H20.818H20.8003H20.7827H20.7651H20.7475H20.7299H20.7122H20.6946H20.677H20.6594H20.6418H20.6241H20.6065H20.5889H20.5713H20.5537H20.536H20.5184H20.5008H20.4832H20.4656H20.4479H20.4303H20.4127H20.3951H20.3775H20.3598H20.3422H20.3246H20.307H20.2894H20.2717H20.2541H20.2365H20.2189H20.2013H20.1836H20.166H20.1484H20.1308H20.1132H20.0955H20.0779H20.0603H20.0427H20.0251H20.0074H19.9898H19.9722H19.9546H19.937H19.9193H19.9017H19.8841H19.8665H19.8489H19.8312H19.8136H19.796H19.7784H19.7608H19.7431H19.7255H19.7079H19.6903H19.6727H19.655H19.6374H19.6198H19.6022H19.5846H19.567H19.5493H19.5317H19.5141H19.4965H19.4789H19.4612H19.4436H19.426H19.4084H19.3908H19.3731H19.3555H19.3379H19.3203H19.3027H19.285H19.2674H19.2498H19.2322H19.2146H19.1969H19.1793H19.1617H19.1441H19.1265H19.1088H19.0912C18.529 38.8096 18.14 38.6621 17.8931 38.4139C17.6469 38.1663 17.5026 37.7788 17.5135 37.2145L17.5135 37.2143C17.5167 37.0413 17.5186 36.8692 17.5204 36.6982C17.5286 35.9395 17.5366 35.1996 17.6596 34.4797C17.9216 32.9546 18.8295 31.8406 20.2412 31.2405C21.0708 30.8888 21.9296 30.6276 22.8028 30.362C23.1967 30.2421 23.5935 30.1214 23.9919 29.9911L23.9921 29.9911C24.0747 29.9639 24.131 29.9672 24.178 29.9818C24.2306 29.9983 24.2936 30.036 24.3754 30.1129L24.3762 30.1136C25.1067 30.7939 25.847 31.4623 26.5856 32.129C26.6591 32.1954 26.7327 32.2618 26.8062 32.3282C27.2273 32.7086 27.6686 32.9269 28.1353 32.9295C28.6024 32.932 29.0443 32.7183 29.4655 32.3406L29.4655 32.3406C29.7676 32.0698 30.0658 31.7983 30.3631 31.5276C30.884 31.0533 31.4024 30.5814 31.9344 30.1194L31.9345 30.1193C31.9754 30.0838 32.0474 30.0424 32.1269 30.0161C32.1653 30.0034 32.1998 29.9962 32.2275 29.9936C32.2554 29.991 32.2679 29.9939 32.2686 29.9941L32.2686 29.9941C32.5932 30.0934 32.9172 30.1877 33.2393 30.2814C34.2457 30.574 35.2338 30.8614 36.166 31.284C37.8424 32.0446 38.6914 33.4591 38.7933 35.3261L38.7933 35.3262C38.8265 35.9288 38.8212 36.5336 38.8159 37.147C38.8152 37.2274 38.8145 37.308 38.8139 37.3888ZM28.3133 31.4186L28.3132 31.4186C28.2445 31.4793 28.1812 31.497 28.1275 31.495C28.0714 31.4929 28.0003 31.4682 27.9231 31.3995C27.2838 30.829 26.6484 30.2542 25.9989 29.6667C25.8528 29.5345 25.7061 29.4018 25.5584 29.2682C26.2828 28.6528 26.7972 27.9123 27.0804 27.0607H29.185C29.4652 27.9087 29.9765 28.6501 30.6975 29.2719C30.5224 29.4304 30.3485 29.5882 30.1753 29.7452C29.5506 30.3119 28.9359 30.8694 28.3133 31.4186ZM34.3886 12.5877C33.617 10.8213 31.7632 9.75694 29.8617 10.1016L34.3886 12.5877ZM19.8137 14.6813C19.4104 13.0914 20.8518 11.5756 22.4606 11.8931L19.8137 14.6813Z" fill="url(#paint0_linear_5624_6986)" stroke="url(#paint1_linear_5624_6986)" stroke-width="0.5"/>
<path d="M-0.255644 2.58013L-0.255644 2.57968C-0.254249 1.89852 -0.086694 1.29919 0.242319 0.825455C0.572709 0.349737 1.05561 0.0158688 1.65822 -0.147366C1.9532 -0.227991 2.26334 -0.246586 2.54609 -0.246591L-0.255644 2.58013ZM-0.255644 2.58013C-0.256518 5.97214 -0.256227 9.3642 -0.255935 12.7562C-0.255791 14.4325 -0.255647 16.1088 -0.255644 17.7851L-0.256956 17.7877M-0.255644 2.58013L-0.256956 17.7877M27.522 8.92295L27.5215 8.92227C27.4429 8.80775 27.4281 8.67519 27.4242 8.58573C27.4218 8.53051 27.4237 8.45568 27.4252 8.39938C27.4259 8.37355 27.4264 8.35163 27.4264 8.33728H27.6764M27.522 8.92295L14.9639 35.2052M27.522 8.92295C27.5852 9.01435 27.6741 9.1093 27.7725 9.1837C27.8635 9.25248 28.0004 9.33251 28.1553 9.33251C28.3138 9.33251 28.4503 9.24761 28.5384 9.17852M27.522 8.92295L28.5384 9.17852M27.6764 8.33728L27.4264 8.33762C27.4251 7.37376 27.4251 6.40992 27.4251 5.44644C27.4251 4.4829 27.4251 3.51973 27.4238 2.55692V2.55688C27.4232 2.06084 27.2977 1.73369 27.0916 1.52876C26.8854 1.32364 26.5566 1.19937 26.06 1.19937H26.0141H25.9682H25.9223H25.8765H25.8306H25.7847H25.7388H25.6929H25.647H25.6011H25.5552H25.5093H25.4634H25.4175H25.3716H25.3257H25.2798H25.2339H25.188H25.1421H25.0962H25.0503H25.0044H24.9586H24.9127H24.8668H24.8209H24.775H24.7291H24.6832H24.6373H24.5914H24.5455H24.4996H24.4537H24.4078H24.3619H24.316H24.2701H24.2242H24.1783H24.1324H24.0865H24.0406H23.9947H23.9488H23.903H23.8571H23.8112H23.7653H23.7194H23.6735H23.6276H23.5817H23.5358H23.4899H23.444H23.3981H23.3522H23.3063H23.2604H23.2145H23.1686H23.1227H23.0768H23.0309H22.985H22.9391H22.8932H22.8473H22.8014H22.7555H22.7097H22.6638H22.6179H22.572H22.5261H22.4802H22.4343H22.3884H22.3425H22.2966H22.2507H22.2048H22.1589H22.113H22.0671H22.0212H21.9753H21.9294H21.8835H21.8376H21.7917H21.7458H21.6999H21.654H21.6081H21.5622H21.5163H21.4704H21.4245H21.3786H21.3327H21.2868H21.2409H21.1951H21.1492H21.1033H21.0574H21.0115H20.9656H20.9197H20.8738H20.8279H20.782H20.7361H20.6902H20.6443H20.5984H20.5525H20.5066H20.4607H20.4148H20.3689H20.323H20.2771H20.2312H20.1853H20.1394H20.0935H20.0476H20.0017H19.9558H19.9099H19.864H19.8181H19.7722H19.7263H19.6804H19.6345H19.5886H19.5427H19.4968H19.4509H19.405H19.3592H19.3133H19.2674H19.2215H19.1756H19.1297H19.0838H19.0379H18.992H18.9461H18.9002H18.8543H18.8084H18.7625H18.7166H18.6707H18.6248H18.5789H18.533H18.4871H18.4412H18.3953H18.3494H18.3035H18.2576H18.2117H18.1658H18.1199H18.074H18.0281H17.9822H17.9363H17.8904H17.8445H17.7986H17.7527H17.7068H17.6609H17.615H17.5691H17.5232H17.4773H17.4314H17.3855H17.3396H17.2937H17.2478H17.2019H17.156H17.1101H17.0642H17.0183H16.9725H16.9266H16.8807H16.8348H16.7889H16.743H16.6971H16.6512H16.6053H16.5594H16.5135H16.4676H16.4217H16.3758H16.3299H16.284H16.2381H16.1922H16.1463H16.1004H16.0545H16.0086H15.9627H15.9168H15.8709H15.825H15.7791H15.7332H15.6873H15.6414H15.5955H15.5496H15.5037H15.4578H15.4119H15.366H15.3201H15.2742H15.2283H15.1824H15.1365H15.0906H15.0447H14.9988H14.9529H14.907H14.8611H14.8152H14.7693H14.7234H14.6775H14.6316H14.5857H14.5398H14.4939H14.448H14.4021H14.3562H14.3103H14.2644H14.2185H14.1726H14.1267H14.0808H14.0349H13.989H13.9432H13.8973H13.8514H13.8055H13.7596H13.7137H13.6678H13.6219H13.576H13.5301H13.4842H13.4383H13.3924H13.3465H13.3006H13.2547H13.2088H13.1629H13.117H13.0711H13.0252H12.9793H12.9334H12.8875H12.8416H12.7957H12.7498H12.7039H12.658H12.6121H12.5662H12.5203H12.4744H12.4285H12.3826H12.3367H12.2908H12.2449H12.199H12.1531H12.1072H12.0613H12.0154H11.9695H11.9236H11.8777H11.8318H11.7859H11.74H11.6941H11.6482H11.6023H11.5564H11.5105H11.4646H11.4187H11.3728H11.3269H11.281H11.2351H11.1892H11.1433H11.0974H11.0516H11.0057H10.9598H10.9139H10.868H10.8221H10.7762H10.7303H10.6844H10.6385H10.5926H10.5467H10.5008H10.4549H10.409H10.3631H10.3172H10.2713H10.2254H10.1795H10.1336H10.0877H10.0418H9.99589H9.95H9.9041H9.8582H9.8123H9.76641H9.72051H9.67461H9.62871H9.58281H9.53691H9.49102H9.44512H9.39922H9.35332H9.30743H9.26153H9.21563H9.16973H9.12383H9.07794H9.03204H8.98614H8.94024H8.89435H8.84845H8.80255H8.75665H8.71076H8.66486H8.61896H8.57306H8.52716H8.48127H8.43537H8.38947H8.34357H8.29768H8.25178H8.20588H8.15998H8.11409H8.06819H8.02229H7.97639H7.9305H7.8846H7.8387H7.79281H7.74691H7.70101H7.65511H7.60922H7.56332H7.51742H7.47152H7.42563H7.37973H7.33383H7.28794H7.24204H7.19614H7.15024H7.10435H7.05845H7.01255H6.96666H6.92076H6.87486H6.82897H6.78307H6.73717H6.69127H6.64538H6.59948H6.55358H6.50769H6.46179H6.41589H6.37H6.3241H6.2782H6.23231H6.18641H6.14051H6.09462H6.04872H6.00282H5.95693H5.91103H5.86513H5.81924H5.77334H5.72744H5.68155H5.63565H5.58975H5.54386H5.49796H5.45207H5.40617H5.36027H5.31438H5.26848H5.22258H5.17669H5.13079H5.0849H5.039H4.9931H4.94721H4.90131H4.85541H4.80952H4.76362H4.71773H4.67183H4.62594H4.58004H4.53414H4.48825H4.44235H4.39646H4.35056H4.30466H4.25877H4.21287H4.16698H4.12108H4.07519H4.02929H3.98339H3.9375H3.8916H3.84571H3.79981H3.75392H3.70802H3.66213H3.61623H3.57034H3.52444H3.47855H3.43265H3.38675H3.34086H3.29496H3.24907H3.20317H3.15728H3.11138H3.06549H3.01959H2.9737H2.9278H2.88191H2.83601H2.79012H2.74422H2.69833H2.65244H2.60654H2.56065C2.06273 1.19937 1.73155 1.32399 1.52366 1.52924C1.31635 1.73391 1.19031 2.05963 1.19031 2.55133V2.61104V2.67075V2.73046V2.79017V2.84987V2.90958V2.96929V3.029V3.08871V3.14842V3.20813V3.26784V3.32755V3.38725V3.44696V3.50667V3.56638V3.62609V3.6858V3.74551V3.80522V3.86492V3.92463V3.98434V4.04405V4.10376V4.16347V4.22317V4.28288V4.34259V4.4023V4.46201V4.52172V4.58142V4.64113V4.70084V4.76055V4.82026V4.87997V4.93967V4.99938V5.05909V5.1188V5.17851V5.23821V5.29792V5.35763V5.41734V5.47705V5.53675V5.59646V5.65617V5.71588V5.77558V5.83529V5.895V5.95471V6.01441V6.07412V6.13383V6.19354V6.25325V6.31295V6.37266V6.43237V6.49208V6.55178V6.61149V6.6712V6.73091V6.79061V6.85032V6.91003V6.96973V7.02944V7.08915V7.14886V7.20856V7.26827V7.32798V7.38768V7.44739V7.5071V7.56681V7.62651V7.68622V7.74593V7.80563V7.86534V7.92505V7.98476V8.04446V8.10417V8.16388V8.22358V8.28329V8.343V8.4027V8.46241V8.52212V8.58182V8.64153V8.70124V8.76094V8.82065V8.88036V8.94006V8.99977V9.05948V9.11918V9.17889V9.2386V9.2983V9.35801V9.41772V9.47742V9.53713V9.59684V9.65654V9.71625V9.77596V9.83566V9.89537V9.95507V10.0148V10.0745V10.1342V10.1939V10.2536V10.3133V10.373V10.4327V10.4924V10.5521V10.6118V10.6715V10.7313V10.791V10.8507V10.9104V10.9701V11.0298V11.0895V11.1492V11.2089V11.2686V11.3283V11.388V11.4477V11.5074V11.5671V11.6268V11.6866V11.7463V11.806V11.8657V11.9254V11.9851V12.0448V12.1045V12.1642V12.2239V12.2836V12.3433V12.403V12.4627V12.5224V12.5821V12.6418V12.7016V12.7613V12.821V12.8807V12.9404V13.0001V13.0598V13.1195V13.1792V13.2389V13.2986V13.3583V13.418V13.4777V13.5374V13.5971V13.6568V13.7165V13.7763V13.836V13.8957V13.9554V14.0151V14.0748V14.1345V14.1942V14.2539V14.3136V14.3733V14.433V14.4927V14.5524V14.6121V14.6718V14.7315V14.7912V14.851V14.9107V14.9704V15.0301V15.0898V15.1495V15.2092V15.2689V15.3286V15.3883V15.448V15.5077V15.5674V15.6271V15.6868V15.7465V15.8062V15.8659V15.9257V15.9854V16.0451V16.1048V16.1645V16.2242V16.2839V16.3436V16.4033V16.463V16.5227V16.5824V16.6421V16.7018V16.7615V16.8212V16.8809V16.9406V17.0003V17.0601V17.1198V17.1795V17.2392V17.2989V17.3586V17.4183V17.478V17.5377V17.5974V17.6571V17.7168V17.7765V17.8362V17.8959V17.9556V18.0153V18.075V18.1348V18.1945V18.2542V18.3139V18.3736V18.4333V18.493V18.5527V18.6124V18.6721V18.7318V18.7915V18.8512V18.9109V18.9706V19.0303V19.09V19.1497V19.2094V19.2692V19.3289V19.3886V19.4483V19.508V19.5677V19.6274V19.6871V19.7468V19.8065V19.8662V19.9259V19.9856V20.0453V20.105V20.1647V20.2244V20.2841V20.3438V20.4036V20.4633V20.523V20.5827V20.6424V20.7021V20.7618V20.8215V20.8812V20.9409V21.0006V21.0603V21.12V21.1797V21.2394V21.2991V21.3588V21.4185V21.4783V21.538V21.5977V21.6574V21.7171V21.7768V21.8365V21.8962V21.9559V22.0156V22.0753V22.135V22.1947V22.2544V22.3141V22.3738V22.4335V22.4932V22.553V22.6127V22.6724V22.7321V22.7918V22.8515V22.9112V22.9709V23.0306V23.0903V23.15V23.2097V23.2694V23.3291V23.3888V23.4485V23.5082V23.568V23.6277V23.6874V23.7471V23.8068V23.8665V23.9262V23.9859V24.0456V24.1053V24.165V24.2247V24.2844V24.3441V24.4038V24.4635V24.5233V24.583V24.6427V24.7024V24.7621V24.8218V24.8815V24.9412V25.0009V25.0606V25.1203V25.18V25.2397V25.2994V25.3591V25.4188V25.4785V25.5383V25.598V25.6577V25.7174V25.7771V25.8368V25.8965V25.9562V26.0159V26.0756V26.1353V26.195V26.2547V26.3144V26.3741V26.4339V26.4936V26.5533V26.613V26.6727V26.7324V26.7921V26.8518V26.9115V26.9712V27.0309V27.0906V27.1503V27.21V27.2697V27.3295V27.3892V27.4489V27.5086V27.5683V27.628V27.6877V27.7474V27.8071V27.8668V27.9265V27.9862V28.0459V28.1056V28.1653V28.2251V28.2848V28.3445V28.4042V28.4639V28.5236V28.5833V28.643V28.7027V28.7624V28.8221V28.8818V28.9415V29.0013V29.061V29.1207V29.1804V29.2401V29.2998V29.3595V29.4192V29.4789V29.5386V29.5983V29.658V29.7177V29.7774V29.8372V29.8969V29.9566V30.0163V30.076V30.1357V30.1954V30.2551V30.3148V30.3745V30.4342V30.4939V30.5537V30.6134V30.6731V30.7328V30.7925V30.8522V30.9119V30.9716V31.0313V31.091V31.1507V31.2104V31.2701V31.3299V31.3896V31.4493V31.509V31.5687V31.6284V31.6881V31.7478V31.8075V31.8672V31.9269V31.9867V32.0464V32.1061V32.1658V32.2255V32.2852V32.3449V32.4046V32.4643V32.524V32.5837V32.6434V32.7032V32.7629V32.8226V32.8823V32.942V33.0017V33.0614V33.1211C1.19031 33.6143 1.31646 33.9425 1.52366 34.1489C1.73101 34.3555 2.06044 34.481 2.55409 34.481H2.57626H2.59844H2.62062H2.6428H2.66498H2.68716H2.70934H2.73151H2.75369H2.77587H2.79805H2.82023H2.84241H2.86459H2.88676H2.90894H2.93112H2.9533H2.97548H2.99766H3.01984H3.04201H3.06419H3.08637H3.10855H3.13073H3.15291H3.17509H3.19726H3.21944H3.24162H3.2638H3.28598H3.30816H3.33034H3.35251H3.37469H3.39687H3.41905H3.44123H3.46341H3.48559H3.50776H3.52994H3.55212H3.5743H3.59648H3.61866H3.64084H3.66301H3.68519H3.70737H3.72955H3.75173H3.77391H3.79608H3.81826H3.84044H3.86262H3.8848H3.90698H3.92916H3.95133H3.97351H3.99569H4.01787H4.04005H4.06223H4.0844H4.10658H4.12876H4.15094H4.17312H4.1953H4.21748H4.23965H4.26183H4.28401H4.30619H4.32837H4.35055H4.37272H4.3949H4.41708H4.43926H4.46144H4.48362H4.50579H4.52797H4.55015H4.57233H4.59451H4.61669H4.63886H4.66104H4.68322H4.7054H4.72758H4.74976H4.77193H4.79411H4.81629H4.83847H4.86065H4.88283H4.905H4.92718H4.94936H4.97154H4.99372H5.0159H5.03807H5.06025H5.08243H5.10461H5.12679H5.14896H5.17114H5.19332H5.2155H5.23768H5.25986H5.28203H5.30421H5.32639H5.34857H5.37075H5.39292H5.4151H5.43728H5.45946H5.48164H5.50381H5.52599H5.54817H5.57035H5.59253H5.61471H5.63688H5.65906H5.68124H5.70342H5.72559H5.74777H5.76995H5.79213H5.81431H5.83648H5.85866H5.88084H5.90302H5.9252H5.94737H5.96955H5.99173H6.01391H6.03609H6.05826H6.08044H6.10262H6.1248H6.14698H6.16915H6.19133H6.21351H6.23569H6.25786H6.28004H6.30222H6.3244H6.34658H6.36875H6.39093H6.41311H6.43529H6.45746H6.47964H6.50182H6.524H6.54617H6.56835H6.59053H6.61271H6.63488H6.65706H6.67924H6.70142H6.7236H6.74577H6.76795H6.79013H6.81231H6.83448H6.85666H6.87884H6.90102H6.92319H6.94537H6.96755H6.98973H7.0119H7.03408H7.05626H7.07843H7.10061H7.12279H7.14497H7.16714H7.18932H7.2115H7.23368H7.25585H7.27803H7.30021H7.32238H7.34456H7.36674H7.38892H7.41109H7.43327H7.45545H7.47763H7.4998H7.52198H7.54416H7.56633H7.58851H7.61069H7.63286H7.65504H7.67722H7.6994H7.72157H7.74375H7.76593H7.7881H7.81028H7.83246H7.85463H7.87681H7.89899H7.92117H7.94334H7.96552H7.9877H8.00987H8.03205H8.05423H8.0764H8.09858H8.12076H8.14293H8.16511H8.18729H8.20946H8.23164H8.25382H8.27599H8.29817H8.32035H8.34252H8.3647H8.38688H8.40905H8.43123H8.45341H8.47558H8.49776H8.51994H8.54211H8.56429H8.58646H8.60864H8.63082H8.65299H8.67517H8.69735H8.71952H8.7417H8.76388H8.78605H8.80823H8.8304H8.85258H8.87476H8.89693H8.91911H8.94129H8.96346H8.98564H9.00781H9.02999H9.05217H9.07434H9.09652H9.11869H9.14087H9.16305H9.18522H9.2074H9.22957H9.25175H9.27393H9.2961H9.31828H9.34045H9.36263H9.3848H9.40698H9.42916H9.45133H9.47351H9.49568H9.51786H9.54004H9.56221H9.58439H9.60656H9.62874H9.65091H9.67309H9.69526H9.71744H9.73962H9.76179H9.78397H9.80614H9.82832H9.85049H9.87267H9.89484H9.91702H9.93919H9.96137H9.98355H10.0057H10.0279H10.0501H10.0722H10.0944H10.1166H10.1388H10.1609H10.1831H10.2053H10.2275H10.2496H10.2718H10.294H10.3162H10.3383H10.3605H10.3827H10.4049H10.427H10.4492H10.4714H10.4936H10.5157H10.5379H10.5601H10.5823H10.6044H10.6266H10.6488H10.671H10.6931H10.7153H10.7375H10.7597H10.7818H10.804H10.8262H10.8484H10.8705H10.8927H10.9149H10.9371H10.9592H10.9814H11.0036H11.0258H11.0479H11.0701H11.0923H11.1145H11.1366H11.1588H11.181H11.2032H11.2253H11.2475H11.2697H11.2919H11.314H11.3362H11.3584H11.3805H11.4027H11.4249H11.4471H11.4692H11.4914H11.5136H11.5358H11.5579H11.5801H11.6023H11.6245H11.6466H11.6688H11.691H11.7132H11.7353H11.7575H11.7797H11.8018H11.824H11.8462H11.8684H11.8905H11.9127H11.9349H11.9571H11.9792H12.0014H12.0236H12.0458H12.0679H12.0901H12.1123H12.1344H12.1566H12.1788H12.201H12.2231H12.2453H12.2675H12.2897H12.3118H12.334H12.3562H12.3784H12.4005H12.4227H12.4449H12.467H12.4892H12.5114H12.5336H12.5557H12.5779H12.6001H12.6222H12.6444H12.6666H12.6888H12.7109H12.7331H12.7553H12.7775H12.7996H12.8218H12.844H12.8661H12.8883H12.9105H12.9327H12.9548H12.977H12.9992H13.0214H13.0435H13.0657H13.0879H13.11H13.1322H13.1544H13.1766H13.1987H13.2209H13.2431H13.2652H13.2874H13.3096H13.3318H13.3539H13.3761H13.3983H13.4204H13.4426H13.4648H13.487H13.5091H13.5313H13.5535H13.5756H13.5978H13.62H13.6422H13.6643H13.6865H13.7087H13.7308H13.753H13.7752H13.7974H13.8195H13.8417H13.8639H13.886H13.9082C13.9302 34.481 13.9571 34.479 13.9943 34.4755C13.9999 34.475 14.006 34.4744 14.0123 34.4738C14.0431 34.4708 14.0806 34.4672 14.1165 34.4654C14.1901 34.4616 14.3385 34.4575 14.4621 34.5463L14.4624 34.5465C14.5531 34.6119 14.6638 34.6996 14.7566 34.8004C14.843 34.8942 14.9472 35.0345 14.9639 35.2052M27.6764 8.33728C27.6764 8.36605 27.6756 8.39601 27.6747 8.42642C27.671 8.55549 27.6671 8.69261 27.7276 8.78074L27.6751 5.44644C27.6751 6.40994 27.6751 7.37361 27.6764 8.33728ZM14.9639 35.2052C14.9752 35.3202 14.928 35.4145 14.8905 35.4721C14.8506 35.5334 14.7991 35.5875 14.7517 35.6317C14.6674 35.7104 14.5645 35.7861 14.49 35.8411C14.4812 35.8475 14.4728 35.8537 14.4649 35.8595L14.4639 35.8603C14.3507 35.9432 14.2157 35.9395 14.1567 35.937C14.1255 35.9357 14.0932 35.9329 14.0679 35.9306C14.0636 35.9303 14.0596 35.9299 14.0558 35.9296C14.0256 35.927 14.0055 35.9256 13.9896 35.9256C12.7187 35.9256 11.4478 35.9257 10.1769 35.9259C7.63515 35.9262 5.09328 35.9265 2.55146 35.9256L14.9639 35.2052ZM-0.256956 17.7877V17.8467M-0.256956 17.7877V17.8467M-0.256956 17.8467C-0.256956 19.3003 -0.25717 20.754 -0.257384 22.2077C-0.25792 25.842 -0.258455 29.4764 -0.255644 33.1108C-0.254947 33.9647 0.000579643 34.6754 0.497199 35.1729M-0.256956 17.8467L0.497199 35.1729M28.8789 2.5507C28.8768 1.7139 28.6144 1.00825 28.1192 0.511174C27.6238 0.0139147 26.9207 -0.249215 26.0863 -0.249215C18.2405 -0.250527 10.3934 -0.250527 2.54621 -0.246591L28.6299 7.72693C28.6295 7.94264 28.6292 8.15834 28.6289 8.37402M28.8789 2.5507L28.6289 2.55133L28.8789 2.55048C28.8789 2.55056 28.8789 2.55063 28.8789 2.5507ZM28.8789 2.5507C28.8848 4.2761 28.8823 6.00252 28.8799 7.72743C28.8795 7.94308 28.8792 8.1587 28.8789 8.3743M28.8789 8.3743C28.8789 8.37421 28.8789 8.37411 28.8789 8.37402H28.6289M28.8789 8.3743C28.879 8.38633 28.8794 8.40472 28.88 8.42661C28.8812 8.47846 28.883 8.54995 28.8805 8.60313C28.8766 8.6844 28.8627 8.81504 28.7818 8.92498M28.8789 8.3743C28.8789 8.37432 28.8789 8.37434 28.8789 8.37436L28.6289 8.37402M28.6289 8.37402L28.7818 8.92498M28.7818 8.92498C28.7198 9.00922 28.6346 9.10303 28.5384 9.17852M28.7818 8.92498L28.5384 9.17852M0.497199 35.1729C0.993876 35.6705 1.70241 35.9256 2.55138 35.9256L0.497199 35.1729Z" fill="url(#paint2_linear_5624_6986)" stroke="url(#paint3_linear_5624_6986)" stroke-width="0.5"/>
<path d="M9.32974 9.84929L9.15059 9.67492C9.15048 9.67503 9.15054 9.67494 9.15075 9.67462C9.15268 9.67172 9.16717 9.64989 9.17962 9.59106C9.19217 9.53172 9.19725 9.46094 9.19783 9.3919C9.20489 8.44549 9.20419 7.49934 9.20349 6.55141C9.20328 6.26671 9.20307 5.98186 9.20307 5.69678V5.69502V5.69326V5.6915V5.68974V5.68798V5.68622V5.68446V5.6827V5.68094V5.67918V5.67741V5.67565V5.67389V5.67213V5.67037V5.66861V5.66685V5.66509V5.66333V5.66156V5.6598V5.65804V5.65628V5.65452V5.65276V5.65099V5.64923V5.64747V5.64571V5.64395V5.64218V5.64042V5.63866V5.6369V5.63513V5.63337V5.63161V5.62984V5.62808V5.62632V5.62455V5.62279V5.62103V5.61926V5.6175V5.61574V5.61397V5.61221V5.61044V5.60868V5.60691V5.60515V5.60338V5.60162V5.59985V5.59809V5.59632V5.59456V5.59279V5.59102V5.58926V5.58749V5.58573V5.58396V5.58219V5.58043V5.57866V5.57689V5.57512V5.57336V5.57159V5.56982V5.56805V5.56628V5.56452V5.56275V5.56098V5.55921V5.55744V5.55567V5.5539V5.55213V5.55036V5.54859V5.54682V5.54505V5.54328V5.54151V5.53973V5.53796V5.53619V5.53442V5.53265V5.53087V5.5291V5.52733V5.52556V5.52378V5.52201V5.52024V5.51846V5.51669V5.51491V5.51314V5.51136V5.50959V5.50781V5.50604V5.50426V5.50248V5.50071V5.49893V5.49715V5.49537V5.4936V5.49182V5.49004V5.48826V5.48648V5.4847V5.48292V5.48114V5.47936V5.47758V5.4758V5.47402V5.47224V5.47046V5.46868V5.4669V5.46511V5.46333V5.46155V5.45977V5.45798V5.4562V5.45441V5.45263V5.45084V5.44906V5.44727V5.44549V5.4437V5.44192V5.44013V5.43834V5.43655V5.43477V5.43298V5.43119V5.4294V5.42761V5.42582V5.42403V5.42224V5.42045V5.41866V5.41687V5.41508V5.41328V5.41149V5.4097V5.40791V5.40611V5.40432V5.40252V5.40073V5.39893V5.39714V5.39534V5.39355V5.39175V5.38995V5.38816V5.38636V5.38456V5.38276V5.38096V5.37916V5.37736V5.37556V5.37376V5.37196V5.37016V5.36836V5.36655V5.36475V5.36295V5.36115V5.35934V5.35754V5.35573V5.35393V5.35212V5.35031V5.34851V5.3467V5.34489V5.34308V5.34128V5.33947V5.33766V5.33585V5.33404V5.33223V5.33042V5.3286V5.32679V5.32498V5.32317V5.32135V5.31954V5.31772V5.31591V5.31409V5.31228V5.31046V5.30864V5.30683V5.30501V5.30319V5.30137V5.29955V5.29773V5.29591V5.29409V5.29227V5.29045V5.28863V5.2868V5.28498V5.28316V5.28133V5.27951V5.27768V5.27585V5.27403V5.2722V5.27037V5.26854V5.26672V5.26489V5.26306V5.26123V5.2594V5.25756V5.25573V5.2539V5.25207V5.25023V5.2484V5.24656V5.24473V5.24289V5.24106V5.23922V5.23738V5.23554V5.2337V5.23187V5.23003V5.22818V5.22634V5.2245V5.22266V5.22082V5.21897V5.21713V5.21528V5.21344V5.21159V5.20975V5.2079V5.20605V5.2042V5.20236V5.20051V5.19866V5.19681V5.19495V5.1931V5.19125V5.1894V5.18754V5.18569V5.18383V5.18198V5.18012V5.17826V5.17641V5.17455V5.17269V5.17083V5.16897V5.16711V5.16525V5.16339V5.16152V5.15966V5.15779V5.15593V5.15406V5.1522V5.15033V5.14846V5.1466V5.14473V5.14286V5.14099V5.13912V5.13724V5.13537V5.1335V5.13163V5.12975V5.12788V5.126V5.12412V5.12225V5.12037V5.11849V5.11661V5.11473V5.11285V5.11097V5.10909V5.10721V5.10532V5.10344V5.10155V5.09967V5.09778V5.09589V5.09401V5.09212V5.09023V5.08834V5.08645V5.08455V5.08266V5.08077V5.07888V5.07698V5.07509V5.07319V5.07129V5.0694V5.0675V5.0656V5.0637V5.0618V5.0599V5.05799V5.05609V5.05419V5.05228V5.05038V5.04847V5.04656V5.04466V5.04275V5.04084V5.03893V5.03702V5.03618C7.47393 5.34098 6.22246 6.23031 5.48162 7.78419L5.48159 7.78426C5.03417 8.72195 4.88251 9.6264 4.99393 10.5057C5.09533 11.3059 5.41638 12.0987 5.95154 12.8872C6.15789 12.681 6.36294 12.4764 6.56682 12.2729C7.44586 11.3958 8.30331 10.5402 9.15112 9.67438L9.32974 9.84929ZM9.32974 9.84929C9.42552 9.75089 9.44651 9.54884 9.44782 9.39402L9.32974 9.84929ZM3.53126 9.95332L3.53126 9.95332L16.0892 9.93194L16.3392 9.93175C16.3392 9.93172 16.3392 9.93169 16.3392 9.93165C16.3364 6.40167 13.4544 3.52989 9.92005 3.53125C6.38559 3.53262 3.5258 6.40865 3.53126 9.95332ZM7.04634 13.9527C8.01997 12.9907 8.99239 12.03 9.9453 11.0887L12.8196 13.9629C12.1057 14.5707 11.0609 14.8883 9.97938 14.8882C8.89849 14.888 7.82026 14.5701 7.04634 13.9527ZM14.8067 9.18076H10.6805V5.07592C11.4673 5.12318 12.4085 5.52653 13.203 6.22925C14.0164 6.9488 14.6537 7.96329 14.8067 9.18076ZM14.5415 11.7602C14.3851 12.153 14.1786 12.5261 13.9621 12.8027C13.5697 12.4099 13.1771 12.0173 12.7846 11.6248C12.4711 11.3113 12.1577 10.9979 11.8444 10.6844H14.8086C14.7925 10.9854 14.6975 11.3685 14.5415 11.7602Z" fill="url(#paint4_linear_5624_6986)" stroke="url(#paint5_linear_5624_6986)" stroke-width="0.5"/>
<path d="M9.77005 28.1266L9.77 28.1265C9.68787 28.0713 9.57393 27.9928 9.47875 27.9042C9.4309 27.8596 9.38079 27.8061 9.34075 27.745C9.30163 27.6853 9.26185 27.6027 9.25815 27.5036M9.77005 28.1266L9.70494 26.8297C9.62595 26.8945 9.5212 26.9846 9.43569 27.0847C9.36097 27.1721 9.25092 27.3229 9.25815 27.5036M9.77005 28.1266C9.8867 28.2049 10.0211 28.2031 10.09 28.2001C10.1238 28.1987 10.1588 28.1956 10.1869 28.1931C10.1917 28.1927 10.1963 28.1923 10.2007 28.1919C10.2341 28.189 10.2575 28.1874 10.2768 28.1874H10.2869H10.2969H10.307H10.3171H10.3271H10.3372H10.3472H10.3573H10.3674H10.3774H10.3875H10.3976H10.4076H10.4177H10.4277H10.4378H10.4479H10.4579H10.468H10.4781H10.4881H10.4982H10.5082H10.5183H10.5284H10.5384H10.5485H10.5586H10.5686H10.5787H10.5888H10.5988H10.6089H10.6189H10.629H10.6391H10.6491H10.6592H10.6693H10.6793H10.6894H10.6994H10.7095H10.7196H10.7296H10.7397H10.7498H10.7598H10.7699H10.78H10.79H10.8001H10.8101H10.8202H10.8303H10.8403H10.8504H10.8605H10.8705H10.8806H10.8906H10.9007H10.9108H10.9208H10.9309H10.941H10.951H10.9611H10.9711H10.9812H10.9913H11.0013H11.0114H11.0215H11.0315H11.0416H11.0517H11.0617H11.0718H11.0818H11.0919H11.102H11.112H11.1221H11.1322H11.1422H11.1523H11.1623H11.1724H11.1825H11.1925H11.2026H11.2127H11.2227H11.2328H11.2428H11.2529H11.263H11.273H11.2831H11.2932H11.3032H11.3133H11.3234H11.3334H11.3435H11.3535H11.3636H11.3737H11.3837H11.3938H11.4039H11.4139H11.424H11.434H11.4441H11.4542H11.4642H11.4743H11.4844H11.4944H11.5045H11.5145H11.5246H11.5347H11.5447H11.5548H11.5649H11.5749H11.585H11.5951H11.6051H11.6152H11.6252H11.6353H11.6454H11.6554H11.6655H11.6756H11.6856H11.6957H11.7057H11.7158H11.7259H11.7359H11.746H11.7561H11.7661H11.7762H11.7863H11.7963H11.8064H11.8164H11.8265H11.8366H11.8466H11.8567H11.8668H11.8768H11.8869H11.8969H11.907H11.9171H11.9271H11.9372H11.9473H11.9573H11.9674H11.9774H11.9875H11.9976H12.0076H12.0177H12.0278H12.0378H12.0479H12.058H12.068H12.0781H12.0881H12.0982H12.1083H12.1183H12.1284H12.1385H12.1485H12.1586H12.1686H12.1787H12.1888H12.1988H12.2089H12.219H12.229H12.2391H12.2491H12.2592H12.2693H12.2793H12.2894H12.2995H12.3095H12.3196H12.3297H12.3397H12.3498H12.3598H12.3699H12.38H12.39H12.4001H12.4102H12.4202H12.4303H12.4403H12.4504H12.4605H12.4705H12.4806H12.4907H12.5007H12.5108H12.5208H12.5309H12.541H12.551H12.5611H12.5712H12.5812H12.5913H12.6014H12.6114H12.6215H12.6315H12.6416H12.6517H12.6617H12.6718H12.6819H12.6919H12.702H12.712H12.7221H12.7322H12.7422H12.7523H12.7624H12.7724H12.7825H12.7926H12.8026H12.8127H12.8227H12.8328H12.8429H12.8529H12.863H12.8731H12.8831H12.8932H12.9032H12.9133H12.9234H12.9334H12.9435H12.9536H12.9636H12.9737H12.9837H12.9938H13.0039H13.0139H13.024H13.0341H13.0441H13.0542H13.0643H13.0743H13.0844H13.0944H13.1045H13.1146H13.1246H13.1347H13.1448H13.1548H13.1649H13.1749H13.185H13.1951H13.2051H13.2152H13.2253H13.2353H13.2454H13.2554H13.2655H13.2756H13.2856H13.2957H13.3058H13.3158H13.3259H13.336H13.346H13.3561H13.3661H13.3762H13.3863H13.3963H13.4064H13.4165H13.4265H13.4366H13.4466H13.4567H13.4668H13.4768H13.4869H13.497H13.507H13.5171H13.5271H13.5372H13.5473H13.5573H13.5674H13.5775H13.5875H13.5976H13.6077H13.6177H13.6278H13.6378H13.6479H13.658H13.668H13.6781H13.6882H13.6982H13.7083H13.7183H13.7284H13.7385H13.7485H13.7586H13.7687H13.7787H13.7888H13.7989H13.8089H13.819H13.829H13.8391H13.8492H13.8592H13.8693H13.8794H13.8894H13.8995H13.9095H13.9196H13.9297H13.9397H13.9498H13.9599H13.9699H13.98H13.99H14.0001H14.0102H14.0202H14.0303H14.0404H14.0504H14.0605H14.0706H14.0806H14.0907H14.1007H14.1108H14.1209H14.1309H14.141H14.1511H14.1611H14.1712H14.1812H14.1913H14.2014H14.2114H14.2215H14.2316H14.2416H14.2517H14.2617H14.2718H14.2819H14.2919H14.302H14.3121H14.3221H14.3322H14.3423H14.3523H14.3624H14.3724H14.3825H14.3926H14.4026H14.4127H14.4228H14.4328H14.4429H14.4529H14.463H14.4731H14.4831H14.4932H14.5033H14.5133H14.5234H14.5334H14.5435H14.5536H14.5636H14.5737H14.5838H14.5938H14.6039H14.614H14.624H14.6341H14.6441H14.6542H14.6643H14.6743H14.6844H14.6945H14.7045H14.7146H14.7246H14.7347H14.7448H14.7548H14.7649H14.775H14.785H14.7951H14.8052H14.8152H14.8253H14.8353H14.8454H14.8555H14.8655H14.8756H14.8857H14.8957H14.9058H14.9158H14.9259H14.936H14.946H14.9561H14.9662H14.9762H14.9863H14.9963H15.0064H15.0165H15.0265H15.0366H15.0467H15.0567H15.0668H15.0769H15.0869H15.097H15.107H15.1171H15.1272H15.1372H15.1473H15.1574H15.1674H15.1775H15.1875H15.1976H15.2077H15.2177H15.2278H15.2379H15.2479H15.258H15.268H15.2781H15.2882H15.2982H15.3083H15.3184H15.3284H15.3385H15.3486H15.3586H15.3687H15.3787H15.3888H15.3989H15.4089H15.419H15.4291H15.4386H15.4482H15.4578H15.4674H15.4769H15.4865H15.4961H15.5057H15.5153H15.5248H15.5344H15.544H15.5536H15.5632H15.5727H15.5823H15.5919H15.6015H15.611H15.6206H15.6302H15.6398H15.6494H15.6589H15.6685H15.6781H15.6877H15.6972H15.7068H15.7164H15.726H15.7356H15.7451H15.7547H15.7643H15.7739H15.7834H15.793H15.8026H15.8122H15.8218H15.8313H15.8409H15.8505H15.8601H15.8696H15.8792H15.8888H15.8984H15.908H15.9175H15.9271H15.9367H15.9463H15.9558H15.9654H15.975H15.9846H15.9942H16.0037H16.0133H16.0229H16.0325H16.042H16.0516H16.0612H16.0708H16.0803H16.0899H16.0995H16.1091H16.1187H16.1282H16.1378H16.1474H16.157H16.1665H16.1761H16.1857H16.1953H16.2048H16.2144H16.224H16.2336H16.2431H16.2527H16.2623H16.2719H16.2815H16.291H16.3006H16.3102H16.3198H16.3293H16.3389H16.3485H16.3581H16.3676H16.3772H16.3868H16.3964H16.4059H16.4155H16.4251H16.4347H16.4443H16.4538H16.4634H16.473H16.4826H16.4921H16.5017H16.5113H16.5209H16.5304H16.54H16.5496H16.5592H16.5687H16.5783H16.5879H16.5975H16.607H16.6166H16.6262H16.6358H16.6453H16.6549H16.6645H16.6741H16.6837H16.6932H16.7028H16.7124H16.722H16.7315H16.7411H16.7507H16.7603H16.7698H16.7794H16.789H16.7986H16.8081H16.8177H16.8273H16.8369H16.8464H16.856H16.8656H16.8752H16.8847H16.8943H16.9039H16.9135H16.923H16.9326H16.9422H16.9518H16.9613H16.9709H16.9805H16.9901H16.9996H17.0092H17.0188H17.0284H17.0379H17.0475H17.0571H17.0667H17.0762H17.0858H17.0954H17.105H17.1145H17.1241H17.1337H17.1433H17.1528H17.1624H17.172H17.1816H17.1911H17.2007H17.2103H17.2199H17.2294H17.239H17.2486H17.2582H17.2677H17.2773H17.2869H17.2965H17.306H17.3156H17.3252H17.3348H17.3443H17.3539H17.3635H17.3731H17.3826H17.3922H17.4018H17.4114H17.4209H17.4305H17.4401H17.4497H17.4592H17.4688H17.4784H17.488H17.4975H17.5071H17.5167H17.5263H17.5358H17.5454H17.555H17.5646H17.5741H17.5837H17.5933H17.6029H17.6124H17.622H17.6316H17.6412H17.6507H17.6603H17.6699H17.6795H17.689H17.6986H17.7082H17.7178H17.7273H17.7369H17.7465H17.7561H17.7656H17.7752H17.7848H17.7944H17.8039H17.8135H17.8231H17.8327H17.8422H17.8518H17.8614H17.871H17.8805H17.8901H17.8997H17.9093H17.9188H17.9284H17.938H17.9476H17.9571H17.9667H17.9763H17.9859H17.9954H18.005H18.0146H18.0242H18.0337H18.0433H18.0529H18.0625H18.072H18.0816H18.0912H18.1008H18.1103H18.1199H18.1295H18.1391H18.1486H18.1582H18.1678H18.1774H18.1869H18.1965H18.2061H18.2157H18.2252H18.2348H18.2444H18.254H18.2635H18.2731H18.2827H18.2923H18.3018H18.3114H18.321H18.3306H18.3401H18.3497H18.3593H18.3689H18.3784H18.388H18.3976H18.4072H18.4167H18.4263H18.4359H18.4455H18.455H18.4646H18.4742H18.4838H18.4933H18.5029H18.5125H18.5221H18.5316H18.5412H18.5508H18.5604H18.5699H18.5795H18.5891H18.5987H18.6082H18.6178H18.6274H18.637H18.6465H18.6561H18.6657H18.6753H18.6848H18.6944H18.704H18.7136H18.7231H18.7327H18.7423H18.7519H18.7614H18.771H18.7806H18.7902H18.7997H18.8093H18.8189H18.8285H18.838H18.8476H18.8572H18.8668H18.8763H18.8859H18.8955H18.9051H18.9147H18.9242H18.9338H18.9434H18.953H18.9625H18.9721H18.9817H18.9913H19.0008H19.0104H19.02H19.0296H19.0391H19.0487H19.0583H19.0679H19.0774H19.087H19.0966H19.1062H19.1157H19.1253H19.1349H19.1445H19.154H19.1636H19.1732H19.1828H19.1923H19.2019H19.2115H19.2211H19.2307H19.2402H19.2498H19.2594H19.269H19.2785H19.2881H19.2977H19.3073H19.3168H19.3264H19.336H19.3456H19.3551H19.3647H19.3743H19.3839H19.3934H19.403H19.4126H19.4222H19.4318H19.4413H19.4509H19.4605H19.4701H19.4796H19.4892H19.4988H19.5084H19.5179H19.5275H19.5371H19.5467H19.5562H19.5658H19.5754H19.585H19.5946H19.6041H19.6137H19.6233H19.6329H19.6424H19.652H19.6616H19.6712H19.6807H19.6903H19.6999H19.7095H19.7191H19.7286H19.7382H19.7478H19.7574H19.7669H19.7765H19.7861H19.7957H19.8052H19.8148H19.8244H19.834H19.8436H19.8531H19.8627H19.8723H19.8819H19.8914H19.901H19.9106H19.9202H19.9298H19.9393H19.9489H19.9585H19.9681H19.9776H19.9872H19.9968H20.0064H20.016H20.0255H20.0351H20.0447H20.0543H20.0638H20.0734H20.083H20.0926H20.1022H20.1117H20.1213H20.1309H20.1405H20.15H20.1596H20.1692H20.1788H20.1884H20.1979H20.2075H20.2171H20.2267H20.2362H20.2458H20.2554H20.265H20.2746H20.2841H20.2937H20.3033H20.3129H20.3225H20.332C20.3774 28.1874 20.4237 28.1876 20.4706 28.1878C20.6315 28.1885 20.8001 28.1893 20.9663 28.1819L20.9671 28.1819M9.77005 28.1266L20.9671 28.1819M9.25815 27.5036C9.25816 27.5039 9.25817 27.5041 9.25818 27.5044L9.50796 27.4939L9.25812 27.5027C9.25813 27.503 9.25814 27.5033 9.25815 27.5036ZM20.9671 28.1819C21.1494 28.1732 21.3329 28.1125 21.4673 27.9865C21.6097 27.853 21.6795 27.6608 21.6391 27.4475L20.9671 28.1819Z" fill="url(#paint6_linear_5624_6986)" stroke="url(#paint7_linear_5624_6986)" stroke-width="0.5"/>
<path d="M7.89456 19.5746L7.89456 19.5745C7.89277 19.3263 7.98374 19.1218 8.16716 18.9909C8.33472 18.8714 8.54474 18.8391 8.73572 18.8399M7.89456 19.5746L8.73593 18.8399C8.73586 18.8399 8.73579 18.8399 8.73572 18.8399M7.89456 19.5746C7.89639 19.8134 7.98859 20.0108 8.16613 20.1368C8.33011 20.2533 8.53402 20.2851 8.72125 20.2805L7.89456 19.5746ZM8.73572 18.8399C9.94228 18.8427 11.1487 18.8421 12.3555 18.8416C12.8384 18.8414 13.3214 18.8412 13.8046 18.8412H13.9082L13.9095 18.8425C14.255 18.8424 14.6006 18.8423 14.9463 18.8421C16.2144 18.8414 17.4838 18.8407 18.7522 18.8477C18.8531 18.8478 18.967 18.8587 19.0773 18.8861C19.1856 18.913 19.3071 18.96 19.407 19.0436M8.73572 18.8399L8.81971 20.2802C8.83884 20.2804 8.85914 20.2806 8.8819 20.2806H8.90106H8.92021H8.93937H8.95853H8.97769H8.99684H9.016H9.03516H9.05431H9.07347H9.09263H9.11179H9.13094H9.1501H9.16926H9.18841H9.20757H9.22673H9.24588H9.26504H9.2842H9.30335H9.32251H9.34167H9.36083H9.37998H9.39914H9.41829H9.43745H9.45661H9.47576H9.49492H9.51408H9.53323H9.55239H9.57155H9.5907H9.60986H9.62902H9.64817H9.66733H9.68648H9.70564H9.7248H9.74395H9.76311H9.78227H9.80142H9.82058H9.83973H9.85889H9.87805H9.8972H9.91636H9.93551H9.95467H9.97382H9.99298H10.0121H10.0313H10.0504H10.0696H10.0888H10.1079H10.1271H10.1462H10.1654H10.1845H10.2037H10.2228H10.242H10.2612H10.2803H10.2995H10.3186H10.3378H10.3569H10.3761H10.3952H10.4144H10.4336H10.4527H10.4719H10.491H10.5102H10.5293H10.5485H10.5676H10.5868H10.606H10.6251H10.6443H10.6634H10.6826H10.7017H10.7209H10.74H10.7592H10.7784H10.7975H10.8167H10.8358H10.855H10.8741H10.8933H10.9124H10.9316H10.9507H10.9699H10.9891H11.0082H11.0274H11.0465H11.0657H11.0848H11.104H11.1231H11.1423H11.1614H11.1806H11.1998H11.2189H11.2381H11.2572H11.2764H11.2955H11.3147H11.3338H11.353H11.3721H11.3913H11.4105H11.4296H11.4488H11.4679H11.4871H11.5062H11.5254H11.5445H11.5637H11.5828H11.602H11.6212H11.6403H11.6595H11.6786H11.6978H11.7169H11.7361H11.7552H11.7744H11.7935H11.8127H11.8319H11.851H11.8702H11.8893H11.9085H11.9276H11.9468H11.9659H11.9851H12.0042H12.0234H12.0425H12.0617H12.0809H12.1H12.1192H12.1383H12.1575H12.1766H12.1958H12.2149H12.2341H12.2532H12.2724H12.2915H12.3107H12.3299H12.349H12.3682H12.3873H12.4065H12.4256H12.4448H12.4639H12.4831H12.5022H12.5214H12.5405H12.5597H12.5789H12.598H12.6172H12.6363H12.6555H12.6746H12.6938H12.7129H12.7321H12.7512H12.7704H12.7895H12.8087H12.8279H12.847H12.8662H12.8853H12.9045H12.9236H12.9428H12.9619H12.9811H13.0002H13.0194H13.0385H13.0577H13.0768H13.096H13.1152H13.1343H13.1535H13.1726H13.1918H13.2109H13.2301H13.2492H13.2684H13.2875H13.3067H13.3258H13.345H13.3642H13.3833H13.4025H13.4216H13.4408H13.4599H13.4791H13.4982H13.5174H13.5365H13.5557H13.5748H13.594H13.6131H13.6323H13.6515H13.6706H13.6898H13.7089H13.7281H13.7472H13.7664H13.7855H13.8047H13.8238H13.843H13.8621H13.8813H13.9005H13.9196H13.9388H13.9579H13.9771H13.9962H14.0154H14.0345H14.0537H14.0728H14.092H14.1111H14.1303H14.1494H14.1686H14.1878H14.2069H14.2261H14.2452H14.2644H14.2835H14.3027H14.3218H14.341H14.3601H14.3793H14.3984H14.4176H14.4368H14.4559H14.4751H14.4942H14.5134H14.5325H14.5517H14.5708H14.59H14.6091H14.6283H14.6474H14.6666H14.6857H14.7049H14.7241H14.7432H14.7624H14.7815H14.8007H14.8198H14.839H14.8581H14.8773H14.8964H14.9156H14.9347H14.9539H14.9731H14.9922H15.0114H15.0305H15.0497H15.0688H15.088H15.1071H15.1263H15.1454H15.1646H15.1837H15.2029H15.2221H15.2412H15.2604H15.2795H15.2987H15.3178H15.337H15.3561H15.3753H15.3944H15.4136H15.4327H15.4519H15.4711H15.4902H15.5094H15.5285H15.5477H15.5668H15.586H15.6051H15.6243H15.6434H15.6626H15.6817H15.7009H15.7201H15.7392H15.7584H15.7775H15.7967H15.8158H15.835H15.8541H15.8733H15.8924H15.9116H15.9308H15.9499H15.9691H15.9882H16.0074H16.0265H16.0457H16.0648H16.084H16.1031H16.1223H16.1415H16.1606H16.1798H16.1989H16.2181H16.2372H16.2564H16.2755H16.2947H16.3138H16.333H16.3522H16.3713H16.3905H16.4096H16.4288H16.4479H16.4671H16.4862H16.5054H16.5245H16.5437H16.5629H16.582H16.6012H16.6203H16.6395H16.6586H16.6778H16.6969H16.7161H16.7352H16.7544H16.7736H16.7927H16.8119H16.831H16.8502H16.8693H16.8885H16.9076H16.9268H16.946H16.9651H16.9843H17.0034H17.0226H17.0417H17.0609H17.08H17.0992H17.1183H17.1375H17.1567H17.1758H17.195H17.2141H17.2333H17.2524H17.2716H17.2907H17.3099H17.3291H17.3482H17.3674H17.3865H17.4057H17.4248H17.444H17.4631H17.4823H17.5015H17.5206H17.5398H17.5589H17.5781H17.5972H17.6164H17.6355H17.6547H17.6739H17.693H17.7122H17.7313H17.7505H17.7696H17.7888H17.808H17.8271H17.8463H17.8654H17.8846H17.9037H17.9229H17.942H17.9612H17.9804H17.9995H18.0187H18.0378H18.057H18.0761H18.0953H18.1145H18.1336H18.1528H18.1719H18.1911H18.2102H18.2294H18.2486H18.2677H18.2869H18.306H18.3252H18.3443H18.3635H18.3826H18.4018H18.421H18.4401H18.4593H18.4784H18.4976H18.5167H18.5359H18.5551H18.5742H18.5934H18.6125H18.6317H18.6508H18.67H18.6892C18.7127 20.2806 18.7379 20.2817 18.7708 20.2832L18.774 20.2833C18.806 20.2848 18.8454 20.2865 18.8852 20.2861C18.9601 20.2854 19.0725 20.2777 19.1777 20.219C19.2572 20.175 19.3482 20.114 19.4274 20.04C19.502 19.9702 19.5909 19.8659 19.6244 19.7317C19.6558 19.6063 19.6368 19.4695 19.604 19.3628C19.5717 19.2573 19.5102 19.1297 19.407 19.0436M19.407 19.0436C19.4069 19.0435 19.4069 19.0435 19.4068 19.0434L19.2468 19.2355L19.4072 19.0438C19.4072 19.0437 19.4071 19.0437 19.407 19.0436Z" fill="url(#paint8_linear_5624_6986)" stroke="url(#paint9_linear_5624_6986)" stroke-width="0.5"/>
<path d="M12.9291 32.0523L12.9288 32.0526C12.8659 32.1097 12.7941 32.1332 12.7412 32.1439C12.6879 32.1547 12.6358 32.156 12.5949 32.1553C12.5565 32.1547 12.5172 32.1519 12.486 32.1496L12.4791 32.1491C12.4434 32.1466 12.4183 32.145 12.3974 32.145H12.3819H12.3665H12.3511H12.3357H12.3202H12.3048H12.2894H12.2739H12.2585H12.2431H12.2277H12.2122H12.1968H12.1814H12.1659H12.1505H12.1351H12.1197H12.1042H12.0888H12.0734H12.0579H12.0425H12.0271H12.0116H11.9962H11.9808H11.9654H11.9499H11.9345H11.9191H11.9036H11.8882H11.8728H11.8574H11.8419H11.8265H11.8111H11.7956H11.7802H11.7648H11.7494H11.7339H11.7185H11.7031H11.6876H11.6722H11.6568H11.6414H11.6259H11.6105H11.5951H11.5796H11.5642H11.5488H11.5334H11.5179H11.5025H11.4871H11.4716H11.4562H11.4408H11.4254H11.4099H11.3945H11.3791H11.3636H11.3482H11.3328H11.3174H11.3019H11.2865H11.2711H11.2556H11.2402H11.2248H11.2094H11.1939H11.1785H11.1631H11.1476H11.1322H11.1168H11.1013H11.0859H11.0705H11.0551H11.0396H11.0242H11.0088H10.9933H10.9779H10.9625H10.9471H10.9316H10.9162H10.9008H10.8853H10.8699H10.8545H10.8391H10.8236H10.8082H10.7928H10.7773H10.7619H10.7465H10.7311H10.7156H10.7002H10.6848H10.6693H10.6539H10.6385H10.6231H10.6076H10.5922H10.5768H10.5613H10.5459H10.5305H10.5151H10.4996H10.4842H10.4688H10.4533H10.4379H10.4225H10.4071H10.3916H10.3762H10.3608H10.3453H10.3299H10.3145H10.2991H10.2836H10.2682H10.2528H10.2374H10.2219H10.2065H10.1911H10.1756H10.1602H10.1448H10.1294H10.1139H10.0985H10.0831H10.0676H10.0522H10.0368H10.0214H10.0059H9.9905H9.97507H9.95964H9.94421H9.92879H9.91336H9.89793H9.8825H9.86707H9.85164H9.83622H9.82079H9.80536H9.78993H9.7745H9.75908H9.74365H9.72822H9.71279H9.69736H9.68194H9.66651H9.65108H9.63565H9.62022H9.6048H9.58937H9.57394H9.55851H9.54308H9.52766H9.51223H9.4968H9.48137H9.46595H9.45052H9.43509H9.41966H9.40423H9.38881H9.37338H9.35795H9.34252H9.3271H9.31167H9.29624H9.28081H9.26538H9.24996H9.23453H9.2191H9.20367H9.18825H9.17282H9.15739H9.14196H9.12653H9.11111H9.09568H9.08025H9.06483H9.0494H9.03397H9.01854H9.00311H8.98769H8.97226H8.95683H8.9414H8.92598H8.91055H8.89512H8.8797H8.86427H8.84884H8.83341H8.81799H8.80256H8.78713H8.7717H8.75628H8.74085H8.72542H8.70999H8.69457H8.67914H8.66371H8.64829H8.63286H8.61743H8.602H8.58658H8.57115H8.55572H8.5403H8.52487H8.50944H8.49401H8.47859H8.46316H8.44773H8.43231H8.41688H8.40145H8.38603H8.3706H8.35517H8.33975H8.32432H8.30889H8.29346H8.27804H8.26261H8.24718H8.23176H8.21633H8.2009H8.18548H8.17005H8.15462H8.1392H8.12377H8.10834H8.09292H8.07749H8.06206H8.04664H8.03121H8.01578H8.00036H7.98493H7.9695H7.95408H7.93865H7.92322H7.9078H7.89237H7.87695H7.86152H7.84609H7.83067H7.81524H7.79981H7.78439H7.76896H7.75354H7.73811H7.72268H7.70726H7.69183H7.6764H7.66098H7.64555H7.63013H7.6147H7.59927H7.58385H7.56842H7.553H7.53757H7.52214H7.50672H7.49129H7.47587H7.46044H7.44501H7.42959H7.41416H7.39874H7.38331H7.36788H7.35246H7.33703H7.32161H7.30618H7.29076H7.27533H7.2599H7.24448H7.22905H7.21363H7.1982H7.18278H7.16735H7.15192H7.1365H7.12107H7.10565H7.09022H7.0748H7.05937H7.04395H7.02852H7.0131H6.99767H6.98225H6.96682H6.95139H6.93597H6.92054H6.90512H6.88969H6.87427H6.85884H6.84342H6.82799H6.81257H6.79714H6.78172H6.76629H6.75087H6.73544H6.72002H6.70459H6.68917H6.67374H6.65832H6.64289H6.62747H6.61204H6.59662H6.58119H6.56577H6.55035H6.53492H6.5195H6.50407H6.48865H6.47322H6.4578H6.44237H6.42695H6.41152H6.3961H6.38067H6.36525H6.34983H6.3344H6.31898H6.30355H6.28813H6.2727H6.25728H6.24186H6.22643H6.21101H6.19558H6.18016H6.16473H6.14931H6.13389H6.11846H6.10304H6.08761H6.07219H6.05677H6.04134H6.02592H6.01049H5.99507H5.97965H5.96422H5.9488H5.93338H5.91795H5.90253H5.8871H5.87168H5.85626H5.84083H5.82541H5.80999H5.79456H5.77914H5.76372H5.74829H5.73287H5.71745H5.70202H5.6866H5.67117H5.65575H5.64033H5.6249H5.60948H5.59406H5.57864H5.56321H5.54779H5.53237H5.51694H5.50152H5.4861H5.47067H5.45525H5.43983H5.4244H5.40898H5.39356H5.37814H5.36271H5.34729H5.33187H5.31644H5.30102H5.2856H5.27018H5.25475H5.23933H5.22391H5.20849H5.19306H5.17764H5.16222H5.1468H5.13137H5.11595H5.10053H5.08511H5.06968H5.05426H5.03884H5.02342H5.008H4.99257H4.97715H4.96173H4.94631H4.93088H4.91546H4.90004H4.88462H4.8692H4.85378H4.83835H4.82293H4.80751H4.79209H4.77667H4.76124H4.74582H4.7304H4.71498H4.69956H4.68414H4.66871H4.65329H4.63787H4.62245H4.60703H4.59161H4.57619H4.56076H4.54534H4.52992H4.5145H4.49908C4.48472 32.145 4.46839 32.1452 4.45075 32.1454C4.39877 32.146 4.33538 32.1466 4.27738 32.1433L4.27679 32.1433C4.09202 32.1322 3.90181 32.0806 3.75629 31.9505C3.60301 31.8134 3.53399 31.6205 3.53936 31.4021L3.78928 31.4083M12.9291 32.0523L4.28166 30.7122C4.28162 30.7122 4.28158 30.7122 4.28154 30.7122M12.9291 32.0523C13.006 31.9823 13.1016 31.8896 13.1798 31.7862C13.2532 31.6892 13.3386 31.5477 13.3427 31.3832M12.9291 32.0523L4.28154 30.7122M3.78928 31.4083L3.53934 31.4028C3.54389 31.1964 3.61723 31.013 3.76728 30.8846C3.91193 30.7608 4.09782 30.7139 4.28154 30.7122M3.78928 31.4083C3.78141 31.7284 3.98608 31.8753 4.29178 31.8937L3.78928 31.4083ZM4.28154 30.7122C4.67767 30.7083 5.07501 30.7087 5.47034 30.7092C5.60168 30.7094 5.73279 30.7096 5.86357 30.7096H5.86868H5.87379H5.8789H5.88402H5.88913H5.89424H5.89935H5.90447H5.90958H5.91469H5.9198H5.92492H5.93003H5.93514H5.94025H5.94537H5.95048H5.95559H5.96071H5.96582H5.97093H5.97604H5.98116H5.98627H5.99138H5.9965H6.00161H6.00672H6.01183H6.01695H6.02206H6.02717H6.03229H6.0374H6.04251H6.04763H6.05274H6.05785H6.06297H6.06808H6.07319H6.07831H6.08342H6.08853H6.09365H6.09876H6.10387H6.10899H6.1141H6.11921H6.12433H6.12944H6.13455H6.13967H6.14478H6.1499H6.15501H6.16012H6.16524H6.17035H6.17546H6.18058H6.18569H6.19081H6.19592H6.20103H6.20615H6.21126H6.21638H6.22149H6.2266H6.23172H6.23683H6.24195H6.24706H6.25217H6.25729H6.2624H6.26752H6.27263H6.27775H6.28286H6.28797H6.29309H6.2982H6.30332H6.30843H6.31355H6.31866H6.32378H6.32889H6.334H6.33912H6.34423H6.34935H6.35446H6.35958H6.36469H6.36981H6.37492H6.38004H6.38515H6.39026H6.39538H6.40049H6.40561H6.41072H6.41584H6.42095H6.42607H6.43118H6.4363H6.44141H6.44653H6.45164H6.45676H6.46187H6.46699H6.4721H6.47722H6.48233H6.48745H6.49256H6.49768H6.50279H6.50791H6.51302H6.51814H6.52325H6.52837H6.53348H6.5386H6.54371H6.54883H6.55394H6.55906H6.56417H6.56929H6.5744H6.57952H6.58464H6.58975H6.59487H6.59998H6.6051H6.61021H6.61533H6.62044H6.62556H6.63067H6.63579H6.6409H6.64602H6.65113H6.65625H6.66137H6.66648H6.6716H6.67671H6.68183H6.68694H6.69206H6.69717H6.70229H6.70741H6.71252H6.71764H6.72275H6.72787H6.73298H6.7381H6.74322H6.74833H6.75345H6.75856H6.76368H6.76879H6.77391H6.77902H6.78414H6.78926H6.79437H6.79949H6.8046H6.80972H6.81484H6.81995H6.82507H6.83018H6.8353H6.84041H6.84553H6.85065H6.85576H6.86088H6.86599H6.87111H6.87622H6.88134H6.88646H6.89157H6.89669H6.9018H6.90692H6.91204H6.91715H6.92227H6.92738H6.9325H6.93762H6.94273H6.94785H6.95296H6.95808H6.9632H6.96831H6.97343H6.97854H6.98366H6.98878H6.99389H6.99901H7.00412H7.00924H7.01436H7.01947H7.02459H7.0297H7.03482H7.03994H7.04505H7.05017H7.05528H7.0604H7.06552H7.07063H7.07575H7.08086H7.08598H7.0911H7.09621H7.10133H7.10644H7.11156H7.11668H7.12179H7.12691H7.13202H7.13714H7.14226H7.14737H7.15249H7.1576H7.16272H7.16784H7.17295H7.17807H7.18319H7.1883H7.19342H7.19853H7.20365H7.20877H7.21388H7.219H7.22411H7.22923H7.23435H7.23946H7.24458H7.24969H7.25481H7.25993H7.26504H7.27016H7.27527H7.28039H7.28551H7.29062H7.29574H7.30085H7.30597H7.31109H7.3162H7.32132H7.32643H7.33155H7.33667H7.34178H7.3469H7.35201H7.35713H7.36225H7.36736H7.37248H7.37759H7.38271H7.38783H7.39294H7.39806H7.40317H7.40829H7.41341H7.41852H7.42364H7.42875H7.43387H7.43899H7.4441H7.44922H7.45433H7.45945H7.46457H7.46968H7.4748H7.47991H7.48503H7.49014H7.49526H7.50038H7.50549H7.51061H7.51572H7.52084H7.52596H7.53107H7.53619H7.5413H7.54642H7.55153H7.55665H7.56177H7.56688H7.572H7.57711H7.58223H7.58734H7.59246H7.59758H7.60269H7.60781H7.61292H7.61804H7.62315H7.62827H7.63338H7.6385H7.64362H7.64873H7.65385H7.65896H7.66408H7.66919H7.67431H7.67942H7.68454H7.68966H7.69477H7.69989H7.705H7.71012H7.71523H7.72035H7.72546H7.73058H7.73569H7.74081H7.74593H7.75104H7.75616H7.76127H7.76639H7.7715H7.77662H7.78173H7.78685H7.79196H7.79708H7.80219H7.80731H7.81242H7.81754H7.82265H7.82777H7.83288H7.838H7.84311H7.84823H7.85334H7.85846H7.86357H7.86869H7.8738H7.87892H7.88403H7.88915H7.89426H7.89938H7.90449H7.90961H7.91472H7.91984H7.92495H7.93007H7.93518H7.9403H7.94541H7.95053H7.95564H7.96076H7.96587H7.97099H7.9761H7.98121H7.98633H7.99144H7.99656H8.00167H8.00679H8.0119H8.01702H8.02213H8.02725H8.03236H8.03747H8.04259H8.0477H8.05282H8.05793H8.06305H8.06816H8.07327H8.07839H8.0835H8.08862H8.09373H8.09885H8.10396H8.10907H8.11419H8.1193H8.12442H8.12953H8.13464H8.13976H8.14487H8.14999H8.1551H8.16021H8.16533H8.17044H8.17556H8.18067H8.18578H8.1909H8.19601H8.20112H8.20624H8.21135H8.21646H8.22158H8.22669H8.23181H8.23692H8.24203H8.24715H8.25226H8.25737H8.26249H8.2676H8.27271H8.27783H8.28294H8.28805H8.29317H8.29828H8.30339H8.30851H8.31362H8.31873H8.32385H8.32896H8.33407H8.33918H8.3443H8.34941H8.35452H8.35964H8.36475H8.36986H8.37498H8.38009H8.3852H8.39031H8.39543H8.40054H8.40565H8.41076H8.41588H8.42099H8.4261H8.43121H8.43633H8.44144H8.44655H8.45166H8.45678H8.46189H8.467H8.47211H8.47723H8.48103H8.48234H8.48858H8.49612H8.50367H8.51122H8.51877H8.52632H8.53387H8.54142H8.54897H8.55652H8.56407H8.57162H8.57917H8.58672H8.59427H8.60182H8.60937H8.61692H8.62447H8.63202H8.63957H8.64712H8.65466H8.66221H8.66976H8.67731H8.68486H8.69241H8.69996H8.70751H8.71506H8.72261H8.73016H8.73771H8.74527H8.75282H8.76037H8.76792H8.77547H8.78302H8.79057H8.79812H8.80567H8.81322H8.82077H8.82832H8.83587H8.84342H8.85097H8.85852H8.86607H8.87362H8.88117H8.88872H8.89627H8.90382H8.91137H8.91892H8.92648H8.93403H8.94158H8.94913H8.95668H8.96423H8.97178H8.97933H8.98688H8.99443H9.00198H9.00954H9.01709H9.02464H9.03219H9.03974H9.04729H9.05484H9.06239H9.06994H9.0775H9.08505H9.0926H9.10015H9.1077H9.11525H9.1228H9.13035H9.13791H9.14546H9.15301H9.16056H9.16811H9.17566H9.18321H9.19076H9.19832H9.20587H9.21342H9.22097H9.22852H9.23607H9.24363H9.25118H9.25873H9.26628H9.27383H9.28138H9.28894H9.29649H9.30404H9.31159H9.31914H9.32669H9.33425H9.3418H9.34935H9.3569H9.36445H9.37201H9.37956H9.38711H9.39466H9.40221H9.40977H9.41732H9.42487H9.43242H9.43997H9.44753H9.45508H9.46263H9.47018H9.47773H9.48529H9.49284H9.50039H9.50794H9.51549H9.52305H9.5306H9.53815H9.5457H9.55326H9.56081H9.56836H9.57591H9.58347H9.59102H9.59857H9.60612H9.61367H9.62123H9.62878H9.63633H9.64388H9.65144H9.65899H9.66654H9.67409H9.68165H9.6892H9.69675H9.7043H9.71186H9.71941H9.72696H9.73451H9.74207H9.74962H9.75717H9.76472H9.77228H9.77983H9.78738H9.79493H9.80249H9.81004H9.81759H9.82514H9.8327H9.84025H9.8478H9.85536H9.86291H9.87046H9.87801H9.88557H9.89312H9.90067H9.90822H9.91578H9.92333H9.93088H9.93844H9.94599H9.95354H9.96109H9.96865H9.9762H9.98375H9.99131H9.99886H10.0064H10.014H10.0215H10.0291H10.0366H10.0442H10.0517H10.0593H10.0668H10.0744H10.0819H10.0895H10.097H10.1046H10.1122H10.1197H10.1273H10.1348H10.1424H10.1499H10.1575H10.165H10.1726H10.1801H10.1877H10.1952H10.2028H10.2103H10.2179H10.2254H10.233H10.2406H10.2481H10.2557H10.2632H10.2708H10.2783H10.2859H10.2934H10.301H10.3085H10.3161H10.3236H10.3312H10.3387H10.3463H10.3538H10.3614H10.369H10.3765H10.3841H10.3916H10.3992H10.4067H10.4143H10.4218H10.4294H10.4369H10.4445H10.452H10.4596H10.4671H10.4747H10.4822H10.4898H10.4974H10.5049H10.5125H10.52H10.5276H10.5351H10.5427H10.5502H10.5578H10.5653H10.5729H10.5804H10.588H10.5955H10.6031H10.6106H10.6182H10.6258H10.6333H10.6409H10.6484H10.656H10.6635H10.6711H10.6786H10.6862H10.6937H10.7013H10.7088H10.7164H10.7239H10.7315H10.739H10.7466H10.7542H10.7617H10.7693H10.7768H10.7844H10.7919H10.7995H10.807H10.8146H10.8221H10.8297H10.8372H10.8448H10.8523H10.8599H10.8674H10.875H10.8826H10.8901H10.8977H10.9052H10.9128H10.9203H10.9279H10.9354H10.943H10.9505H10.9581H10.9656H10.9732H10.9807H10.9883H10.9958H11.0034H11.011H11.0185H11.0261H11.0336H11.0412H11.0487H11.0563H11.0638H11.0714H11.0789H11.0865H11.094H11.1016H11.1091H11.1167H11.1242H11.1318H11.1393H11.1469H11.1544H11.162H11.1696H11.1771H11.1847H11.1922H11.1998H11.2073H11.2149H11.2224H11.23H11.2375H11.2451H11.2526H11.2602H11.2677H11.2753H11.2828H11.2904H11.2979H11.3055H11.313H11.3206H11.3282H11.3357H11.3433H11.3508H11.3584H11.3659H11.3735H11.381H11.3886H11.3961H11.4037H11.4112H11.4188H11.4263H11.4339H11.4414H11.449H11.4565H11.4641H11.4716H11.4792H11.4867H11.4943H11.5018H11.5094H11.517H11.5245H11.5321H11.5396H11.5472H11.5547H11.5623H11.5698H11.5774H11.5849H11.5925H11.6H11.6076H11.6151H11.6227H11.6302H11.6378H11.6453H11.6529H11.6604H11.668H11.6755H11.6831H11.6906H11.6982H11.7057H11.7133H11.7208H11.7284H11.7359H11.7435H11.751H11.7586H11.7661H11.7737H11.7813H11.7888H11.7964H11.8039H11.8115H11.819H11.8266H11.8341H11.8417H11.8492H11.8568H11.8643H11.8719H11.8794H11.887H11.8945H11.9021H11.9096H11.9172H11.9247H11.9323H11.9398H11.9474H11.9549H11.9625H11.97H11.9776H11.9851H11.9927H12.0002H12.0078H12.0153H12.0229H12.0304H12.038H12.0455H12.0531H12.0606H12.0682H12.0757H12.0833H12.0908H12.0984H12.1059H12.1135H12.121H12.1286H12.1361H12.1437H12.1512H12.1588H12.1663H12.1739H12.1814H12.189H12.1965H12.2041H12.2116H12.2192H12.2267H12.2343H12.2418H12.2494H12.2569H12.2645H12.272H12.2796H12.2871H12.2947H12.3022H12.3098H12.3173H12.3249H12.3324H12.34H12.3475C12.3676 30.7096 12.3915 30.708 12.425 30.7053C12.4289 30.705 12.433 30.7047 12.4372 30.7043C12.4658 30.702 12.5012 30.6991 12.5357 30.6979C12.6054 30.6955 12.7359 30.6951 12.8507 30.7694C12.9319 30.8219 13.0423 30.8977 13.1341 30.9832C13.18 31.0258 13.2287 31.0778 13.2672 31.1371C13.304 31.194 13.3455 31.2794 13.3427 31.3832M13.3427 31.3832C13.3427 31.383 13.3427 31.3828 13.3427 31.3826L13.0927 31.3768L13.3426 31.3842C13.3426 31.3839 13.3426 31.3836 13.3427 31.3832Z" fill="url(#paint10_linear_5624_6986)" stroke="url(#paint11_linear_5624_6986)" stroke-width="0.5"/>
<path d="M13.3177 23.4927C13.3141 23.3836 13.2911 23.2745 13.2359 23.1744C13.1797 23.0726 13.0979 22.9943 12.9985 22.9373C12.8111 22.8298 12.5595 22.7972 12.274 22.7972H12.259H12.244H12.229H12.214H12.1989H12.1839H12.1689H12.1539H12.1389H12.1238H12.1088H12.0938H12.0788H12.0637H12.0487H12.0337H12.0187H12.0037H11.9886H11.9736H11.9586H11.9436H11.9285H11.9135H11.8985H11.8835H11.8685H11.8534H11.8384H11.8234H11.8084H11.7933H11.7783H11.7633H11.7483H11.7333H11.7182H11.7032H11.6882H11.6732H11.6581H11.6431H11.6281H11.6131H11.5981H11.583H11.568H11.553H11.538H11.5229H11.5079H11.4929H11.4779H11.4628H11.4478H11.4328H11.4178H11.4028H11.3877H11.3727H11.3577H11.3427H11.3276H11.3126H11.2976H11.2826H11.2675H11.2525H11.2375H11.2225H11.2075H11.1924H11.1774H11.1624H11.1474H11.1323H11.1173H11.1023H11.0873H11.0722H11.0572H11.0422H11.0272H11.0122H10.9971H10.9821H10.9671H10.9521H10.937H10.922H10.907H10.892H10.8769H10.8619H10.8469H10.8319H10.8168H10.8018H10.7868H10.7718H10.7567H10.7417H10.7267H10.7117H10.6967H10.6816H10.6666H10.6516H10.6366H10.6215H10.6065H10.5915H10.5765H10.5614H10.5464H10.5314H10.5164H10.5013H10.4863H10.4713H10.4563H10.4412H10.4262H10.4112H10.3962H10.3811H10.3661H10.3511H10.3361H10.321H10.306H10.291H10.276H10.2609H10.2459H10.2309H10.2159H10.2009H10.1858H10.1708H10.1558H10.1408H10.1257H10.1107H10.0957H10.0807H10.0656H10.0506H10.0356H10.0206H10.0055H9.99051H9.97548H9.96046H9.94543H9.93041H9.91538H9.90036H9.88533H9.87031H9.85528H9.84026H9.82523H9.81021H9.79519H9.78016H9.76514H9.75011H9.73509H9.72006H9.70504H9.69001H9.67499H9.65996H9.64494H9.62991H9.61489H9.59986H9.58484H9.56981H9.55479H9.53976H9.52474H9.50971H9.49469H9.47966H9.46464H9.44961H9.43459H9.41956H9.40454H9.38951H9.37449H9.35946H9.34444H9.32941H9.31439H9.29936H9.28434H9.26931H9.25429H9.23926H9.22424H9.20921H9.19418H9.17916H9.16413H9.14911H9.13408H9.11906H9.10403H9.08901H9.07398H9.05896H9.04393H9.02891H9.01388H8.99886H8.98383H8.96881H8.95378H8.93876H8.92373H8.90871H8.89368H8.87865H8.86363H8.8486H8.83358H8.81855H8.80353H8.7885H8.77348H8.75845H8.74343H8.7284H8.71338H8.69835H8.68333H8.6683H8.65328H8.63825H8.62322H8.6082H8.59317H8.57815H8.56312H8.5481H8.53307H8.51805H8.50302H8.488H8.47297H8.45795H8.44292H8.4279H8.41287H8.39785H8.38282H8.36779H8.35277H8.33774H8.32272H8.30769H8.29267H8.27764H8.26262H8.24759H8.23257H8.21754H8.20252H8.18749H8.17247H8.15744H8.14242H8.12739H8.11236H8.09734H8.08231H8.06729H8.05226H8.03724H8.02221H8.00719H7.99216H7.97714H7.96211H7.94709H7.93206H7.91704H7.90201H7.88699H7.87196H7.85693H7.84191H7.82688H7.81186H7.79683H7.78181H7.76678H7.75176H7.73673H7.72171H7.70668H7.69166H7.67663H7.66161H7.64658H7.63156H7.61653H7.60151H7.58648H7.57146H7.55643H7.54141H7.52638H7.51136H7.49633H7.48131H7.46628H7.45126H7.43623H7.42121H7.40618H7.39116H7.37613H7.3611H7.34608H7.33105H7.31603H7.30101H7.28598H7.27096H7.25593H7.24091H7.22588H7.21086H7.19583H7.18081H7.16578H7.15076H7.13573H7.12071H7.10568H7.09066H7.07563H7.06061H7.04558H7.03056H7.01553H7.00051H6.98548H6.97046H6.95543H6.94041H6.92538H6.91036H6.89533H6.88031H6.86528H6.85026H6.83524H6.82021H6.80519H6.79016H6.77514H6.76011H6.74509H6.73006H6.71504H6.70001H6.68499H6.66996H6.65494H6.63992H6.62489H6.60987H6.59484H6.57982H6.56479H6.54977H6.53474H6.51972H6.5047H6.48967H6.47465H6.45962H6.4446H6.42957H6.41455H6.39953H6.3845H6.36948H6.35445H6.33943H6.3244H6.30938H6.29436H6.27933H6.26431H6.24928H6.23426H6.21924H6.20421H6.18919H6.17416H6.15914H6.14412H6.12909H6.11407H6.09904H6.08402H6.069H6.05397H6.03895H6.02392H6.0089H5.99388H5.97885H5.96383H5.94881H5.93378H5.91876H5.90373H5.88871H5.87369H5.85866H5.84364H5.82862H5.81359H5.79857H5.78355H5.76852H5.7535H5.73848H5.72345H5.70843H5.69341H5.67838H5.66336H5.64834H5.63331H5.61829H5.60327H5.58824H5.57322H5.5582H5.54317H5.52815H5.51313H5.4981H5.48308H5.46806H5.45303H5.43801H5.42299H5.40797H5.39294H5.37792H5.3629H5.34787H5.33285H5.31783H5.30281H5.28778H5.27276H5.25774H5.24271H5.22769H5.21267H5.19765H5.18262H5.1676H5.15258H5.13756H5.12253H5.10751H5.09249H5.07747H5.06244H5.04742H5.0324H5.01738H5.00235H4.98733H4.97231H4.95729H4.94227H4.92724H4.91222H4.8972H4.88218H4.86716H4.85213H4.83711H4.82209H4.80707H4.79205H4.77702H4.762H4.74698H4.73196H4.71694H4.70191H4.68689H4.67187H4.65685H4.64183H4.62681H4.61178H4.59676H4.58174C4.56163 22.7972 4.53761 22.7956 4.50384 22.793C4.50019 22.7927 4.49639 22.7924 4.49245 22.7921C4.46357 22.7897 4.42758 22.7869 4.39245 22.7857C4.32284 22.7834 4.19017 22.7833 4.07499 22.8607L4.07499 22.8607L4.0738 22.8615C3.99139 22.9175 3.87427 22.9994 3.77791 23.0886C3.72996 23.133 3.67847 23.187 3.63848 23.248C3.60109 23.3051 3.55362 23.3987 3.56391 23.5131L3.56392 23.5131C3.57966 23.6876 3.68819 23.8269 3.77186 23.9171C3.85119 24.0026 3.94626 24.0825 4.01917 24.1439C4.02817 24.1514 4.03684 24.1587 4.04509 24.1657L4.04536 24.1659C4.10807 24.2188 4.17758 24.2392 4.22829 24.2478C4.2791 24.2564 4.32787 24.256 4.36472 24.2542C4.39612 24.2527 4.4289 24.2497 4.45442 24.2472C4.45882 24.2468 4.463 24.2464 4.46693 24.2461C4.49758 24.2433 4.51713 24.2419 4.53189 24.2419H4.53952H4.54715H4.55479H4.56242H4.57005H4.57769H4.58532H4.59296H4.60059H4.60822H4.61586H4.62349H4.63112H4.63876H4.64639H4.65403H4.66166H4.66929H4.67693H4.68456H4.69219H4.69983H4.70746H4.7151H4.72273H4.73036H4.738H4.74563H4.75326H4.7609H4.76853H4.77617H4.7838H4.79143H4.79907H4.8067H4.81433H4.82197H4.8296H4.83723H4.84487H4.8525H4.86014H4.86777H4.8754H4.88304H4.89067H4.8983H4.90594H4.91357H4.92121H4.92884H4.93647H4.94411H4.95174H4.95937H4.96701H4.97464H4.98228H4.98991H4.99754H5.00518H5.01281H5.02044H5.02808H5.03571H5.04335H5.05098H5.05861H5.06625H5.07388H5.08151H5.08915H5.09678H5.10442H5.11205H5.11968H5.12732H5.13495H5.14258H5.15022H5.15785H5.16549H5.17312H5.18075H5.18839H5.19602H5.20365H5.21129H5.21892H5.22656H5.23419H5.24182H5.24946H5.25709H5.26472H5.27236H5.27999H5.28763H5.29526H5.30289H5.31053H5.31816H5.32579H5.33343H5.34106H5.3487H5.35633H5.36396H5.3716H5.37923H5.38686H5.3945H5.40213H5.40977H5.4174H5.42503H5.43267H5.4403H5.44793H5.45557H5.4632H5.47084H5.47847H5.4861H5.49374H5.50137H5.509H5.51664H5.52427H5.53191H5.53954H5.54717H5.55481H5.56244H5.57007H5.57771H5.58534H5.59298H5.60061H5.60824H5.61588H5.62351H5.63114H5.63878H5.64641H5.65404H5.66168H5.66931H5.67695H5.68458H5.69221H5.69985H5.70748H5.71511H5.72275H5.73038H5.73802H5.74565H5.75328H5.76092H5.76855H5.77618H5.78382H5.79145H5.79909H5.80672H5.81435H5.82199H5.82962H5.83725H5.84489H5.85252H5.86016H5.86779H5.87542H5.88306H5.89069H5.89832H5.90596H5.91359H5.92123H5.92886H5.93649H5.94413H5.95176H5.95939H5.96703H5.97466H5.9823H5.98993H5.99756H6.0052H6.01283H6.02046H6.0281H6.03573H6.04337H6.051H6.05863H6.06627H6.0739H6.08153H6.08917H6.0968H6.10444H6.11207H6.1197H6.12734H6.13497H6.1426H6.15024H6.15787H6.16551H6.17314H6.18077H6.18841H6.19604H6.20367H6.21131H6.21894H6.22658H6.23421H6.24184H6.24948H6.25711H6.26474H6.27238H6.28001H6.28765H6.29528H6.30291H6.31055H6.31818H6.32581H6.33345H6.34108H6.34872H6.35635H6.36398H6.37162H6.37925H6.38688H6.39452H6.40215H6.40979H6.41742H6.42505H6.43269H6.44032H6.44795H6.45559H6.46322H6.47085H6.47849H6.48612H6.49376H6.50139H6.50902H6.51666H6.52429H6.53192H6.53956H6.54719H6.55483H6.56246H6.57009H6.57773H6.58536H6.59299H6.60063H6.60826H6.6159H6.62353H6.63116H6.6388H6.64643H6.65406H6.6617H6.66933H6.67697H6.6846H6.69223H6.69987H6.7075H6.71513H6.72277H6.7304H6.73804H6.74567H6.7533H6.76094H6.76857H6.7762H6.78384H6.79147H6.79911H6.80674H6.81437H6.82201H6.82964H6.83727H6.84491H6.85254H6.86018H6.86781H6.87544H6.88308H6.89071H6.89834H6.90598H6.91361H6.92125H6.92888H6.93651H6.94415H6.95178H6.95941H6.96705H6.97468H6.98232H6.98995H6.99758H7.00522H7.01285H7.02048H7.02812H7.03575H7.04339H7.05102H7.05865H7.06629H7.07392H7.08155H7.08919H7.09682H7.10446H7.11209H7.11972H7.12736H7.13499H7.14262H7.15026H7.15789H7.16553H7.17316H7.18079H7.18843H7.19606H7.20369H7.21133H7.21896H7.22659H7.23423H7.24186H7.2495H7.25713H7.26476H7.2724H7.28003H7.28766H7.2953H7.30293H7.31057H7.3182H7.32583H7.33347H7.3411H7.34873H7.35637H7.364H7.37164H7.37927H7.3869H7.39454H7.40217H7.4098H7.41744H7.42507H7.43271H7.44034H7.44797H7.45561H7.46324H7.47087H7.47851H7.48614H7.49378H7.50141H7.50904H7.51668H7.52431H7.53194H7.53958H7.54721H7.55485H7.56248H7.57011H7.57775H7.58538H7.59301H7.60065H7.60828H7.61592H7.62355H7.63118H7.63882H7.64645H7.65408H7.66172H7.66935H7.67699H7.68462H7.69225H7.69989H7.70752H7.71515H7.72279H7.73042H7.73806H7.74569H7.75332H7.76096H7.76859H7.77622H7.78386H7.79149H7.79913H7.80676H7.81439H7.82203H7.82966H7.83729H7.84493H7.85256H7.8602H7.86783H7.87546H7.8831H7.89073H7.89836H7.906H7.91363H7.92127H7.9289H7.93653H7.94417H7.9518H7.95943H7.96707H7.9747H7.98234H7.98997H7.9976H8.00524H8.01287H8.0205H8.02814H8.03577H8.04341H8.05104H8.05867H8.06631H8.07394H8.08157H8.08921H8.09684H8.10448H8.11211H8.11974H8.12738H8.13501H8.14264H8.15028H8.15791H8.16554H8.17318H8.18081H8.18845H8.19608H8.20371H8.21135H8.21898H8.22661H8.23425H8.24188H8.24952H8.25715H8.26478H8.27242H8.28005H8.28768H8.29532H8.30295H8.31059H8.31822H8.32585H8.33349H8.34112H8.34875H8.35639H8.36402H8.37166H8.37929H8.38692H8.39456H8.40219H8.40982H8.41746H8.42509H8.43273H8.43905H8.44036H8.44652H8.45399H8.46146H8.46894H8.47641H8.48388H8.49135H8.49883H8.5063H8.51377H8.52124H8.52872H8.53619H8.54366H8.55113H8.5586H8.56608H8.57355H8.58102H8.58849H8.59597H8.60344H8.61091H8.61838H8.62585H8.63333H8.6408H8.64827H8.65574H8.66322H8.67069H8.67816H8.68563H8.69311H8.70058H8.70805H8.71552H8.72299H8.73047H8.73794H8.74541H8.75288H8.76036H8.76783H8.7753H8.78277H8.79025H8.79772H8.80519H8.81266H8.82013H8.82761H8.83508H8.84255H8.85002H8.8575H8.86497H8.87244H8.87991H8.88739H8.89486H8.90233H8.9098H8.91727H8.92475H8.93222H8.93969H8.94716H8.95464H8.96211H8.96958H8.97705H8.98453H8.992H8.99947H9.00694H9.01441H9.02189H9.02936H9.03683H9.0443H9.05178H9.05925H9.06672H9.07419H9.08167H9.08914H9.09661H9.10408H9.11155H9.11903H9.1265H9.13397H9.14144H9.14892H9.15639H9.16386H9.17133H9.1788H9.18628H9.19375H9.20122H9.20869H9.21617H9.22364H9.23111H9.23858H9.24606H9.25353H9.261H9.26847H9.27595H9.28342H9.29089H9.29836H9.30583H9.31331H9.32078H9.32825H9.33572H9.3432H9.35067H9.35814H9.36561H9.37309H9.38056H9.38803H9.3955H9.40297H9.41045H9.41792H9.42539H9.43286H9.44034H9.44781H9.45528H9.46275H9.47022H9.4777H9.48517H9.49264H9.50011H9.50759H9.51506H9.52253H9.53H9.53748H9.54495H9.55242H9.55989H9.56736H9.57484H9.58231H9.58978H9.59725H9.60473H9.6122H9.61967H9.62714H9.63462H9.64209H9.64956H9.65703H9.6645H9.67198H9.67945H9.68692H9.69439H9.70187H9.70934H9.71681H9.72428H9.73176H9.73923H9.7467H9.75417H9.76164H9.76912H9.77659H9.78406H9.79153H9.79901H9.80648H9.81395H9.82142H9.8289H9.83637H9.84384H9.85131H9.85878H9.86626H9.87373H9.8812H9.88867H9.89615H9.90362H9.91109H9.91856H9.92604H9.93351H9.94098H9.94845H9.95592H9.9634H9.97087H9.97834H9.98581H9.99329H10.0008H10.0082H10.0157H10.0232H10.0306H10.0381H10.0456H10.0531H10.0605H10.068H10.0755H10.083H10.0904H10.0979H10.1054H10.1128H10.1203H10.1278H10.1353H10.1427H10.1502H10.1577H10.1651H10.1726H10.1801H10.1876H10.195H10.2025H10.21H10.2175H10.2249H10.2324H10.2399H10.2473H10.2548H10.2623H10.2698H10.2772H10.2847H10.2922H10.2997H10.3071H10.3146H10.3221H10.3295H10.337H10.3445H10.352H10.3594H10.3669H10.3744H10.3818H10.3893H10.3968H10.4043H10.4117H10.4192H10.4267H10.4342H10.4416H10.4491H10.4566H10.464H10.4715H10.479H10.4865H10.4939H10.5014H10.5089H10.5163H10.5238H10.5313H10.5388H10.5462H10.5537H10.5612H10.5687H10.5761H10.5836H10.5911H10.5985H10.606H10.6135H10.621H10.6284H10.6359H10.6434H10.6508H10.6583H10.6658H10.6733H10.6807H10.6882H10.6957H10.7032H10.7106H10.7181H10.7256H10.733H10.7405H10.748H10.7555H10.7629H10.7704H10.7779H10.7853H10.7928H10.8003H10.8078H10.8152H10.8227H10.8302H10.8377H10.8451H10.8526H10.8601H10.8675H10.875H10.8825H10.89H10.8974H10.9049H10.9124H10.9199H10.9273H10.9348H10.9423H10.9497H10.9572H10.9647H10.9722H10.9796H10.9871H10.9946H11.002H11.0095H11.017H11.0245H11.0319H11.0394H11.0469H11.0544H11.0618H11.0693H11.0768H11.0842H11.0917H11.0992H11.1067H11.1141H11.1216H11.1291H11.1365H11.144H11.1515H11.159H11.1664H11.1739H11.1814H11.1889H11.1963H11.2038H11.2113H11.2187H11.2262H11.2337H11.2412H11.2486H11.2561H11.2636H11.271H11.2785H11.286H11.2935H11.3009H11.3084H11.3159H11.3234H11.3308H11.3383H11.3458H11.3532H11.3607H11.3682H11.3757H11.3831H11.3906H11.3981H11.4056H11.413H11.4205H11.428H11.4354H11.4429H11.4504H11.4579H11.4653H11.4728H11.4803H11.4877H11.4952H11.5027H11.5102H11.5176H11.5251H11.5326H11.5401H11.5475H11.555H11.5625H11.5699H11.5774H11.5849H11.5924H11.5998H11.6073H11.6148H11.6222H11.6297H11.6372H11.6447H11.6521H11.6596H11.6671H11.6746H11.682H11.6895H11.697H11.7044H11.7119H11.7194H11.7269H11.7343H11.7418H11.7493H11.7567H11.7642H11.7717H11.7792H11.7866H11.7941H11.8016H11.8091H11.8165H11.824H11.8315H11.8389H11.8464H11.8539H11.8614H11.8688H11.8763H11.8838H11.8913H11.8987H11.9062H11.9137H11.9211H11.9286H11.9361H11.9436H11.951H11.9585H11.966H11.9734H11.9809H11.9884H11.9959H12.0033H12.0108H12.0183H12.0258H12.0332H12.0407H12.0482H12.0556H12.0631H12.0706H12.0781H12.0855H12.093H12.1005H12.1079H12.1154H12.1229H12.1304H12.1378H12.1453H12.1528H12.1603H12.1677H12.1752H12.1827H12.1901H12.1976H12.2051H12.2126H12.22H12.2275H12.235H12.2424H12.2499H12.2574H12.2649C12.5591 24.2419 12.8205 24.2038 13.0127 24.0863C13.1142 24.0242 13.1968 23.9398 13.2506 23.8312C13.3037 23.7242 13.3217 23.6083 13.3177 23.4927ZM13.3177 23.4927C13.3177 23.4926 13.3177 23.4925 13.3177 23.4924L13.0678 23.5012L13.3177 23.493C13.3177 23.4929 13.3177 23.4928 13.3177 23.4927Z" fill="url(#paint12_linear_5624_6986)" stroke="url(#paint13_linear_5624_6986)" stroke-width="0.5"/>
<path d="M18.6124 22.7966L18.6141 22.7949H18.0112C17.7389 22.7949 17.4667 22.7951 17.1946 22.7952C16.6507 22.7955 16.1072 22.7958 15.5634 22.7949H15.563C15.4004 22.7949 15.1853 22.803 15.0059 22.8989C14.9094 22.9505 14.8237 23.0268 14.7621 23.134C14.7017 23.2391 14.6719 23.3608 14.6652 23.4942L14.6652 23.4943C14.6539 23.7186 14.7294 23.9248 14.9121 24.0648C15.0806 24.1937 15.3063 24.2395 15.5455 24.2396L18.6124 22.7966ZM18.6124 22.7966C18.684 22.7967 18.7555 22.7967 18.827 22.7968C19.3707 22.7974 19.9138 22.798 20.4573 22.7962L20.4581 22.7962C20.6329 22.7962 20.8373 22.8171 21.0078 22.9221C21.1971 23.0388 21.3035 23.2323 21.3239 23.4836M18.6124 22.7966L21.3239 23.4836M21.3239 23.4836C21.3431 23.7155 21.2544 23.9207 21.0745 24.0582C20.906 24.1869 20.6804 24.2395 20.4412 24.2396L21.3239 23.484C21.3239 23.4839 21.3239 23.4838 21.3239 23.4836Z" fill="url(#paint14_linear_5624_6986)" stroke="url(#paint15_linear_5624_6986)" stroke-width="0.5"/>
<path d="M6.28162 28.1943H5.67835H5.67576H5.67317H5.67058H5.66799H5.6654H5.66281H5.66022H5.65763H5.65504H5.65245H5.64986H5.64727H5.64468H5.64209H5.63949H5.6369H5.63431H5.63172H5.62913H5.62654H5.62395H5.62136H5.61877H5.61618H5.61359H5.611H5.60841H5.60582H5.60322H5.60063H5.59804H5.59545H5.59286H5.59027H5.58768H5.58509H5.5825H5.57991H5.57732H5.57473H5.57214H5.56955H5.56695H5.56436H5.56177H5.55918H5.55659H5.554H5.55141H5.54882H5.54623H5.54364H5.54105H5.53846H5.53587H5.53328H5.53068H5.52809H5.5255H5.52291H5.52032H5.51773H5.51514H5.51255H5.50996H5.50737H5.50478H5.50219H5.4996H5.49701H5.49441H5.49182H5.48923H5.48664H5.48405H5.48146H5.47887H5.47628H5.47369H5.4711H5.46851H5.46592H5.46333H5.46074H5.45815H5.45555H5.45296H5.45037H5.44778H5.44519H5.4426H5.44001H5.43742H5.43483H5.43224H5.42965H5.42706H5.42447H5.42188H5.41928H5.41669H5.4141H5.41151H5.40892H5.40633H5.40374H5.40115H5.39856H5.39597H5.39338H5.39079H5.3882H5.38561H5.38301H5.38042H5.37783H5.37524H5.37265H5.37006H5.36747H5.36488H5.36229H5.3597H5.35711H5.35452H5.35193H5.34934H5.34674H5.34415H5.34156H5.33897H5.33638H5.33379H5.3312H5.32861H5.32602H5.32343H5.32084H5.31825H5.31566H5.31307H5.31047H5.30788H5.30529H5.3027H5.30011H5.29752H5.29493H5.29234H5.28975H5.28716H5.28457H5.28198H5.27939H5.2768H5.27421H5.27161H5.26902H5.26643H5.26384H5.26125H5.25866H5.25607H5.25348H5.25089H5.2483H5.24571H5.24312H5.24053H5.23794H5.23534H5.23275H5.23016H5.22757H5.22498H5.22239H5.2198H5.21721H5.21462H5.21203H5.20944H5.20685H5.20426H5.20167H5.19907H5.19648H5.19389H5.1913H5.18871H5.18612H5.18353H5.18094H5.17835H5.17576H5.17317H5.17058H5.16799H5.1654H5.1628H5.16021H5.15762H5.15503H5.15244H5.14985H5.14726H5.14467H5.14208H5.13949H5.1369H5.13431H5.13172H5.12913H5.12653H5.12394H5.12135H5.11876H5.11617H5.11358H5.11099H5.1084H5.10581H5.10322H5.10063H5.09804H5.09545H5.09286H5.09027H5.08767H5.08508H5.08249H5.0799H5.07731H5.07472H5.07213H5.06954H5.06695H5.06436H5.06177H5.05918H5.05659H5.054H5.0514H5.04881H5.04622H5.04363H5.04104H5.03845H5.03586H5.03327H5.03068H5.02809H5.0255H5.02291H5.02032H5.01773H5.01513H5.01254H5.00995H5.00736H5.00477H5.00218H4.99959H4.997H4.99441H4.99182H4.98923H4.98664H4.98405H4.98146H4.97886H4.97627H4.97368H4.97109H4.9685H4.96591H4.96332H4.96073H4.95814H4.95555H4.95296H4.95037H4.94778H4.94519H4.94259H4.94H4.93741H4.93482H4.93223H4.92964H4.92705H4.92446H4.92187H4.91928H4.91669H4.9141H4.91151H4.90892H4.90632H4.90373H4.90114H4.89855H4.89596H4.89337H4.89078H4.88819H4.8856H4.88301H4.88042H4.87783H4.87524H4.87265H4.87006H4.86746H4.86487H4.86228H4.85969H4.8571H4.85451H4.85192H4.84933H4.84674H4.84415H4.84156H4.83897H4.83638H4.83379H4.83119H4.8286H4.82601H4.82342H4.82083H4.81824H4.81565H4.81306H4.81047H4.80788H4.80529H4.8027H4.80011H4.79752H4.79492H4.79233H4.78974H4.78715H4.78456H4.78197H4.77938H4.77679H4.7742H4.77161H4.76902H4.76643H4.76384H4.76125H4.75865H4.75606H4.75347H4.75088H4.74829H4.7457H4.74311H4.74052H4.73793H4.73534H4.73275H4.73016H4.72757H4.72498H4.72238H4.71979H4.7172H4.71461H4.71202H4.70943H4.70684H4.70425H4.70166H4.69907H4.69648H4.69389H4.6913H4.68871H4.68612H4.68352H4.68093H4.67834H4.67575H4.67316H4.67057H4.66798H4.66539H4.6628H4.66021H4.65762H4.65503H4.65244H4.64985H4.64725H4.64466H4.64207H4.63948H4.63689H4.6343H4.63171H4.62912H4.62653H4.62394H4.62135H4.61876H4.61617H4.61358H4.61098H4.60839H4.6058H4.60321H4.60062H4.59803H4.59544H4.59285H4.59026H4.58767H4.58508H4.58249H4.5799H4.57731H4.57471H4.57212H4.56953H4.56694H4.56435H4.56176H4.55917H4.55658H4.55399H4.5514H4.54881H4.54622H4.54363H4.54104H4.53844H4.53585H4.53326H4.53067H4.52808H4.52549H4.5229H4.52031H4.51772H4.51513H4.51254H4.50995H4.50736H4.50477H4.50218H4.49958H4.49699H4.4944H4.49181H4.48922H4.48663H4.48404H4.48145H4.47886H4.47627H4.47368H4.47109H4.4685H4.46591H4.46331H4.46072H4.45813H4.45554H4.45295H4.45036H4.44777H4.44518H4.44259H4.44H4.43741H4.43482H4.43223H4.42964H4.42704H4.42445H4.42186H4.41927H4.41668H4.41409H4.4115H4.40891H4.40632H4.40373H4.40114H4.39855H4.39596H4.39337H4.39077H4.38818H4.38559H4.383H4.38041H4.37782H4.37523H4.37264H4.37005H4.36746H4.36487H4.36228H4.35969H4.3571H4.35451H4.35191C4.17155 28.1943 3.96991 28.1634 3.80754 28.048C3.62975 27.9216 3.53997 27.7239 3.53906 27.4834L3.53906 27.4825C3.53906 27.2488 3.62233 27.0506 3.79218 26.9184C3.95103 26.7949 4.15206 26.7557 4.34039 26.7549L4.34105 26.7549L6.28162 28.1943ZM6.28162 28.1943L6.28031 28.193M6.28162 28.1943L6.28031 28.193M6.28031 28.193H6.28111H6.28378H6.28645H6.28913H6.2918H6.29447H6.29714H6.29981H6.30248H6.30516H6.30783H6.3105H6.31317H6.31584H6.31851H6.32118H6.32386H6.32653H6.3292H6.33187H6.33454H6.33721H6.33988H6.34256H6.34523H6.3479H6.35057H6.35324H6.35591H6.35858H6.36126H6.36393H6.3666H6.36927H6.37194H6.37461H6.37728H6.37996H6.38263H6.3853H6.38797H6.39064H6.39331H6.39598H6.39866H6.40133H6.404H6.40667H6.40934H6.41201H6.41468H6.41736H6.42003H6.4227H6.42537H6.42804H6.43071H6.43338H6.43606H6.43873H6.4414H6.44407H6.44674H6.44941H6.45208H6.45476H6.45743H6.4601H6.46277H6.46544H6.46811H6.47078H6.47346H6.47613H6.4788H6.48147H6.48414H6.48681H6.48949H6.49216H6.49483H6.4975H6.50017H6.50284H6.50552H6.50819H6.51086H6.51353H6.5162H6.51887H6.52154H6.52422H6.52689H6.52956H6.53223H6.5349H6.53757H6.54025H6.54292H6.54559H6.54826H6.55093H6.5536H6.55628H6.55895H6.56162H6.56429H6.56696H6.56964H6.57231H6.57498H6.57765H6.58032H6.58299H6.58567H6.58834H6.59101H6.59368H6.59635H6.59903H6.6017H6.60437H6.60704H6.60971H6.61239H6.61506H6.61773H6.6204H6.62307H6.62575H6.62842H6.63109H6.63376H6.63643H6.63911H6.64178H6.64445H6.64712H6.64979H6.65247H6.65514H6.65781H6.66048H6.66315H6.66583H6.6685H6.67117H6.67384H6.67652H6.67919H6.68186H6.68453H6.6872H6.68988H6.69255H6.69522H6.69789H6.70057H6.70324H6.70591H6.70858H6.71126H6.71393H6.7166H6.71927H6.72195H6.72462H6.72729H6.72996H6.73264H6.73531H6.73798H6.74065H6.74333H6.746H6.74867H6.75134H6.75402H6.75669H6.75936H6.76203H6.76471H6.76738H6.77005H6.77273H6.7754H6.77807H6.78074H6.78342H6.78609H6.78876H6.79144H6.79411H6.79678H6.79945H6.80213H6.8048H6.80747H6.81015H6.81282H6.81549H6.81817H6.82084H6.82351H6.82619H6.82886H6.83153H6.83421H6.83688H6.83955H6.84223H6.8449H6.84757H6.85025H6.85292H6.85559H6.85827H6.86094H6.86361H6.86629H6.86896H6.87163H6.87431H6.87698H6.87965H6.88233H6.885H6.88768H6.89035H6.89302H6.8957H6.89837H6.90104H6.90372H6.90639H6.90907H6.91174H6.91441H6.91709H6.91976H6.92244H6.92511H6.92778H6.93046H6.93313H6.93581H6.93848H6.94115H6.94383H6.9465H6.94918H6.95185H6.95452H6.9572H6.95987H6.96255H6.96522H6.9679H6.97057H6.97325H6.97592H6.9786H6.98127H6.98394H6.98662H6.98929H6.99197H6.99464H6.99732H6.99999H7.00267H7.00534H7.00802H7.01069H7.01337H7.01604H7.01872H7.02139H7.02407H7.02674H7.02942H7.03209H7.03477H7.03744H7.04012H7.04279H7.04547C7.2314 28.193 7.42507 28.1516 7.57866 28.0323C7.74116 27.9061 7.82609 27.718 7.83071 27.4969L7.83072 27.4965C7.83522 27.2672 7.75714 27.0671 7.59198 26.9303C7.43542 26.8006 7.23308 26.7549 7.03665 26.7549C7.03653 26.7549 7.03641 26.7549 7.03628 26.7549L6.28031 28.193Z" fill="url(#paint16_linear_5624_6986)" stroke="url(#paint17_linear_5624_6986)" stroke-width="0.5"/>
<path d="M16.0861 31.3974C16.0704 31.1644 15.9789 30.973 15.8034 30.8503C15.6411 30.7369 15.4425 30.7083 15.2623 30.709L15.2617 30.709C15.0389 30.7105 14.8231 30.7576 14.6609 30.8855C14.4861 31.0232 14.4101 31.2254 14.4234 31.4488L14.4234 31.4488C14.4375 31.6845 14.5294 31.8762 14.7036 31.9998C14.8645 32.1139 15.0613 32.1448 15.2379 32.1471L15.2379 32.1471L15.2393 32.1471C15.4646 32.1487 15.6804 32.0929 15.8426 31.9631C16.0126 31.8271 16.1021 31.626 16.0861 31.3974ZM16.0861 31.3974L15.8367 31.4143M16.0861 31.3974C16.0861 31.3971 16.0861 31.3969 16.0861 31.3966L15.8367 31.4143M15.8367 31.4143C15.8577 31.7108 15.6136 31.8997 15.241 31.8971C14.9301 31.8931 14.6939 31.7856 14.6729 31.4339C14.6546 31.1256 14.875 30.9616 15.2633 30.959C15.5808 30.9577 15.8131 31.0653 15.8367 31.4143Z" fill="url(#paint18_linear_5624_6986)" stroke="url(#paint19_linear_5624_6986)" stroke-width="0.5"/>
</g>
<defs>
<linearGradient id="paint0_linear_5624_6986" x1="19.468" y1="16.0019" x2="38.9553" y2="16.0778" gradientUnits="userSpaceOnUse">
<stop stop-color="#F8BF3B"/>
<stop offset="0.305" stop-color="#FF8B13"/>
<stop offset="1" stop-color="#EF5F3D"/>
</linearGradient>
<linearGradient id="paint1_linear_5624_6986" x1="19.468" y1="16.0019" x2="38.9553" y2="16.0778" gradientUnits="userSpaceOnUse">
<stop stop-color="#F8BF3B"/>
<stop offset="0.305" stop-color="#FF8B13"/>
<stop offset="1" stop-color="#EF5F3D"/>
</linearGradient>
<linearGradient id="paint2_linear_5624_6986" x1="3.76913" y1="6.86305" x2="27.3568" y2="6.95559" gradientUnits="userSpaceOnUse">
<stop stop-color="#F8BF3B"/>
<stop offset="0.305" stop-color="#FF8B13"/>
<stop offset="1" stop-color="#EF5F3D"/>
</linearGradient>
<linearGradient id="paint3_linear_5624_6986" x1="3.76913" y1="6.86305" x2="27.3568" y2="6.95559" gradientUnits="userSpaceOnUse">
<stop stop-color="#F8BF3B"/>
<stop offset="0.305" stop-color="#FF8B13"/>
<stop offset="1" stop-color="#EF5F3D"/>
</linearGradient>
<linearGradient id="paint4_linear_5624_6986" x1="5.40436" y1="6.14715" x2="15.5409" y2="6.19673" gradientUnits="userSpaceOnUse">
<stop stop-color="#F8BF3B"/>
<stop offset="0.305" stop-color="#FF8B13"/>
<stop offset="1" stop-color="#EF5F3D"/>
</linearGradient>
<linearGradient id="paint5_linear_5624_6986" x1="5.40436" y1="6.14715" x2="15.5409" y2="6.19673" gradientUnits="userSpaceOnUse">
<stop stop-color="#F8BF3B"/>
<stop offset="0.305" stop-color="#FF8B13"/>
<stop offset="1" stop-color="#EF5F3D"/>
</linearGradient>
<linearGradient id="paint6_linear_5624_6986" x1="11.0762" y1="27.1703" x2="20.8356" y2="27.7572" gradientUnits="userSpaceOnUse">
<stop stop-color="#F8BF3B"/>
<stop offset="0.305" stop-color="#FF8B13"/>
<stop offset="1" stop-color="#EF5F3D"/>
</linearGradient>
<linearGradient id="paint7_linear_5624_6986" x1="11.0762" y1="27.1703" x2="20.8356" y2="27.7572" gradientUnits="userSpaceOnUse">
<stop stop-color="#F8BF3B"/>
<stop offset="0.305" stop-color="#FF8B13"/>
<stop offset="1" stop-color="#EF5F3D"/>
</linearGradient>
<linearGradient id="paint8_linear_5624_6986" x1="9.62758" y1="19.2718" x2="18.8585" y2="19.8081" gradientUnits="userSpaceOnUse">
<stop stop-color="#F8BF3B"/>
<stop offset="0.305" stop-color="#FF8B13"/>
<stop offset="1" stop-color="#EF5F3D"/>
</linearGradient>
<linearGradient id="paint9_linear_5624_6986" x1="9.62758" y1="19.2718" x2="18.8585" y2="19.8081" gradientUnits="userSpaceOnUse">
<stop stop-color="#F8BF3B"/>
<stop offset="0.305" stop-color="#FF8B13"/>
<stop offset="1" stop-color="#EF5F3D"/>
</linearGradient>
<linearGradient id="paint10_linear_5624_6986" x1="5.01599" y1="31.1315" x2="12.6613" y2="31.4944" gradientUnits="userSpaceOnUse">
<stop stop-color="#F8BF3B"/>
<stop offset="0.305" stop-color="#FF8B13"/>
<stop offset="1" stop-color="#EF5F3D"/>
</linearGradient>
<linearGradient id="paint11_linear_5624_6986" x1="5.01599" y1="31.1315" x2="12.6613" y2="31.4944" gradientUnits="userSpaceOnUse">
<stop stop-color="#F8BF3B"/>
<stop offset="0.305" stop-color="#FF8B13"/>
<stop offset="1" stop-color="#EF5F3D"/>
</linearGradient>
<linearGradient id="paint12_linear_5624_6986" x1="5.0331" y1="23.2217" x2="12.6395" y2="23.5765" gradientUnits="userSpaceOnUse">
<stop stop-color="#F8BF3B"/>
<stop offset="0.305" stop-color="#FF8B13"/>
<stop offset="1" stop-color="#EF5F3D"/>
</linearGradient>
<linearGradient id="paint13_linear_5624_6986" x1="5.0331" y1="23.2217" x2="12.6395" y2="23.5765" gradientUnits="userSpaceOnUse">
<stop stop-color="#F8BF3B"/>
<stop offset="0.305" stop-color="#FF8B13"/>
<stop offset="1" stop-color="#EF5F3D"/>
</linearGradient>
<linearGradient id="paint14_linear_5624_6986" x1="15.7267" y1="23.227" x2="20.7969" y2="23.3883" gradientUnits="userSpaceOnUse">
<stop stop-color="#F8BF3B"/>
<stop offset="0.305" stop-color="#FF8B13"/>
<stop offset="1" stop-color="#EF5F3D"/>
</linearGradient>
<linearGradient id="paint15_linear_5624_6986" x1="15.7267" y1="23.227" x2="20.7969" y2="23.3883" gradientUnits="userSpaceOnUse">
<stop stop-color="#F8BF3B"/>
<stop offset="0.305" stop-color="#FF8B13"/>
<stop offset="1" stop-color="#EF5F3D"/>
</linearGradient>
<linearGradient id="paint16_linear_5624_6986" x1="4.28911" y1="27.1847" x2="7.41085" y2="27.2463" gradientUnits="userSpaceOnUse">
<stop stop-color="#F8BF3B"/>
<stop offset="0.305" stop-color="#FF8B13"/>
<stop offset="1" stop-color="#EF5F3D"/>
</linearGradient>
<linearGradient id="paint17_linear_5624_6986" x1="4.28911" y1="27.1847" x2="7.41085" y2="27.2463" gradientUnits="userSpaceOnUse">
<stop stop-color="#F8BF3B"/>
<stop offset="0.305" stop-color="#FF8B13"/>
<stop offset="1" stop-color="#EF5F3D"/>
</linearGradient>
<linearGradient id="paint18_linear_5624_6986" x1="14.8257" y1="31.1394" x2="15.786" y2="31.1452" gradientUnits="userSpaceOnUse">
<stop stop-color="#F8BF3B"/>
<stop offset="0.305" stop-color="#FF8B13"/>
<stop offset="1" stop-color="#EF5F3D"/>
</linearGradient>
<linearGradient id="paint19_linear_5624_6986" x1="14.8257" y1="31.1394" x2="15.786" y2="31.1452" gradientUnits="userSpaceOnUse">
<stop stop-color="#F8BF3B"/>
<stop offset="0.305" stop-color="#FF8B13"/>
<stop offset="1" stop-color="#EF5F3D"/>
</linearGradient>
<clipPath id="clip0_5624_6986">
<rect width="40.011" height="40.0018" fill="white" transform="translate(-0.00390625)"/>
</clipPath>
</defs>
</svg>
