<svg width="132" height="132" viewBox="0 0 132 132" fill="none" xmlns="http://www.w3.org/2000/svg">
<g filter="url(#filter0_d_6574_15147)">
<rect x="30" y="28" width="72" height="72" rx="6" fill="white" shape-rendering="crispEdges"/>
<path d="M74.1493 83.9983C71.0989 83.9983 68.0485 84.0023 64.9994 83.9957C63.6834 83.9931 62.7178 83.2754 62.399 82.0907C62.378 82.0107 62.3452 81.928 62.3478 81.848C62.3819 80.6449 62.2835 79.4181 62.4882 78.2439C62.8726 76.0371 64.304 74.6136 66.3665 73.8526C67.4922 73.438 68.652 73.089 69.821 72.824C70.7381 72.6167 71.7155 71.5041 71.9635 70.5804C71.9832 70.5043 71.8966 70.3469 71.8179 70.3062C70.1831 69.4482 69.1466 68.1034 68.5628 66.3755C68.5247 66.2652 68.4067 66.1485 68.2965 66.1012C67.1917 65.6158 66.6643 64.4179 67.1235 63.2712C67.2587 62.9327 67.1642 62.8055 66.932 62.5969C65.6816 61.4725 64.7527 60.1303 64.5822 58.4221C64.3512 56.1077 66.4938 54.2499 68.7675 54.7261C69.2962 54.8363 69.821 54.9623 70.3432 55.1001C71.3954 55.3769 72.424 55.285 73.4566 54.978C74.2648 54.7379 75.0782 54.4952 75.9061 54.3457C77.6865 54.0229 79.4315 55.0187 80.1596 56.6863C80.2357 56.8595 80.4155 57.0274 80.59 57.1101C81.4047 57.4932 81.6907 58.2056 81.8115 59.0138C81.9925 60.2195 81.6212 61.315 81.0675 62.3607C80.9482 62.5864 80.9245 62.7517 81.0557 62.997C81.7327 64.271 81.0557 65.827 79.9825 66.1275C79.871 66.159 79.7634 66.3217 79.7188 66.4463C79.1179 68.1309 78.1011 69.46 76.4952 70.3089C76.402 70.3587 76.3115 70.5883 76.3496 70.6841C76.7681 71.7599 77.3847 72.6049 78.6377 72.8476C80.1216 73.1349 81.5753 73.5784 82.9057 74.3079C84.7963 75.3417 85.8354 76.9634 85.9692 79.1282C86.0138 79.8472 86.0099 80.5701 86.0086 81.2904C86.0059 82.933 84.9472 83.9944 83.3006 83.9983C80.2502 84.0049 77.1997 84.001 74.1506 84.001L74.1493 83.9983ZM74.1126 83.0576C77.2024 83.0576 80.2935 83.0603 83.3832 83.0563C84.3777 83.055 85.0574 82.378 85.0639 81.3888C85.0692 80.696 85.081 80.002 85.0429 79.3105C84.9367 77.3635 84.0419 75.8586 82.2693 75.0544C81.019 74.4876 79.6611 74.157 78.3412 73.7529C78.1811 73.7043 77.9109 73.8067 77.7705 73.9287C76.9334 74.6555 76.1239 75.4126 75.2986 76.1525C74.5127 76.8571 73.761 76.8518 72.9738 76.1407C72.1616 75.4073 71.3482 74.6752 70.5465 73.9287C70.3537 73.7476 70.1661 73.6689 69.9142 73.7516C68.6546 74.1635 67.3597 74.4928 66.1434 75.0085C64.6556 75.6409 63.69 76.8243 63.4132 78.4354C63.2583 79.342 63.2806 80.2827 63.2636 81.2077C63.24 82.4226 63.8842 83.0576 65.0912 83.0576C68.0983 83.0576 71.1055 83.0576 74.1126 83.0576ZM80.1268 62.0799C80.5388 61.3623 80.8576 60.6328 80.876 59.8325C80.8865 59.3628 80.7763 58.8734 80.6228 58.426C80.5545 58.2279 80.258 58.0062 80.0442 57.9812C79.6414 57.9353 79.4774 57.7674 79.3724 57.3921C78.967 55.9345 77.5566 55.0161 76.0557 55.2667C75.3223 55.39 74.6059 55.6183 73.8909 55.8308C72.7468 56.1707 71.5948 56.3425 70.4101 56.0801C69.7751 55.9397 69.1466 55.7718 68.509 55.6459C66.7207 55.2929 65.1227 56.9723 65.5714 58.7409C65.902 60.0424 66.6184 61.1104 67.647 61.9697C67.9527 62.2256 68.3174 62.1495 68.4644 61.7821C68.6245 61.3806 68.8816 61.3518 69.2621 61.4384C71.2078 61.8779 72.878 61.3347 74.249 59.9164C74.8447 59.3011 75.3275 59.3234 75.7264 60.0844C76.3063 61.1917 77.7167 61.9107 78.9001 61.6614C79.3226 61.5722 79.6899 61.4725 79.8985 61.9842C79.9169 62.0288 80.0206 62.038 80.1255 62.0799H80.1268ZM74.9496 60.6708C74.8998 60.6905 74.8683 60.6931 74.8499 60.7102C73.3556 62.1311 71.587 62.7386 69.5324 62.5142C69.4405 62.5037 69.3356 62.5536 69.2477 62.5982C69.0509 62.6992 68.8724 62.8553 68.6664 62.9183C68.1981 63.0613 67.8845 63.5533 67.9173 64.1713C67.9488 64.7709 68.2951 65.2078 68.8121 65.2379C69.1374 65.2576 69.2398 65.4374 69.3552 65.705C69.6701 66.4371 69.9286 67.223 70.3852 67.862C72.2535 70.4807 75.6017 70.6001 77.6799 68.169C78.2743 67.4736 78.6758 66.6746 78.9093 65.7903C78.988 65.4938 79.0903 65.2576 79.4695 65.2327C79.9904 65.1986 80.2935 64.8286 80.3722 64.2146C80.4378 63.695 80.1662 63.0744 79.7582 62.9577C79.2976 62.8265 78.8686 62.53 78.3438 62.6625C78.2047 62.6979 78.0421 62.6493 77.8925 62.6218C76.629 62.3961 75.6437 61.7401 74.9496 60.6695V60.6708ZM72.8964 70.8087C72.6182 71.7704 72.037 72.5931 71.1737 73.2556C72.0554 74.052 72.9029 74.8222 73.757 75.5844C73.9814 75.7839 74.2556 75.8009 74.4786 75.6041C75.3459 74.8392 76.1987 74.0573 77.0803 73.2609C76.221 72.5891 75.6437 71.7652 75.3695 70.8087H72.8964Z" fill="url(#paint0_linear_6574_15147)"/>
<path d="M45.9944 61.8421C45.9944 56.7542 45.993 51.6662 45.9944 46.5782C45.997 45.2964 46.6241 44.3898 47.7236 44.092C47.9873 44.0198 48.272 44.0015 48.5462 44.0015C56.3933 43.9975 64.2405 43.9975 72.0863 43.9988C73.6489 43.9988 74.625 44.9802 74.6289 46.5494C74.6355 48.4898 74.6316 50.4316 74.6289 52.3721C74.6289 52.5085 74.6499 52.6804 74.5804 52.7749C74.4781 52.9139 74.3009 53.0806 74.1553 53.0806C74.0097 53.0806 73.8247 52.9192 73.7276 52.7788C73.6528 52.6699 73.6764 52.4862 73.6764 52.3353C73.6738 50.408 73.6764 48.4807 73.6738 46.5546C73.6725 45.484 73.1306 44.9474 72.06 44.9474C64.2273 44.9474 56.3933 44.9474 48.5606 44.9474C47.4874 44.9474 46.9403 45.4853 46.9403 46.5494C46.9403 56.7397 46.9403 66.9288 46.9403 77.1192C46.9403 78.1858 47.4874 78.729 48.5541 78.729C52.3392 78.729 56.1244 78.729 59.9082 78.729C60.0473 78.729 60.2231 78.6805 60.3162 78.7474C60.4855 78.8694 60.698 79.0531 60.7151 79.2276C60.7282 79.3601 60.4776 79.5372 60.3162 79.6566C60.2428 79.7104 60.1011 79.6736 59.9896 79.6736C56.1769 79.6736 52.3642 79.675 48.5515 79.6736C46.9534 79.6736 45.9957 78.7172 45.9944 77.1087C45.9904 72.0207 45.993 66.9327 45.993 61.8448L45.9944 61.8421Z" fill="url(#paint1_linear_6574_15147)"/>
<path d="M49.7813 53.951C49.776 50.5437 52.5247 47.7806 55.9201 47.7793C59.3169 47.778 62.0866 50.5384 62.0892 53.93C62.0931 57.3228 59.3222 60.0872 55.9241 60.082C52.5457 60.0767 49.7865 57.3215 49.7813 53.951ZM51.9172 57.273C53.0875 56.1027 54.2172 54.9835 55.3297 53.8473C55.4255 53.7489 55.4465 53.5469 55.4478 53.3921C55.457 52.1601 55.4531 50.9281 55.4531 49.6948C55.4531 49.3944 55.4531 49.0926 55.4531 48.7423C53.5034 49.0073 52.0773 49.952 51.256 51.6746C50.3244 53.6269 50.6065 55.4847 51.9185 57.2717L51.9172 57.273ZM59.1792 57.967C58.0863 56.8741 56.9921 55.7799 55.9464 54.7343C54.8745 55.793 53.7763 56.8781 52.6782 57.9631C54.3549 59.5283 57.6376 59.5244 59.1792 57.9684V57.967ZM56.4305 53.4288H61.0816C60.8966 50.6027 58.249 48.7541 56.4305 48.821V53.4288ZM57.2413 54.4325C58.1519 55.3443 59.0637 56.2549 59.9743 57.1667C60.5856 56.5448 61.1354 55.1908 61.0527 54.4325H57.2413Z" fill="url(#paint2_linear_6574_15147)"/>
<path d="M61.4291 71.9354C59.7116 71.9354 57.9942 71.9354 56.2768 71.9354C56.1522 71.9354 55.9973 71.9761 55.9094 71.9171C55.7454 71.8069 55.5132 71.6416 55.508 71.492C55.5014 71.3359 55.71 71.1469 55.8635 71.021C55.9396 70.958 56.1036 70.996 56.2283 70.996C59.7051 70.996 63.1806 70.996 66.6574 70.996C66.7676 70.996 66.9146 70.9567 66.9828 71.0118C67.1468 71.1469 67.3593 71.3096 67.3934 71.492C67.442 71.7478 67.2321 71.9171 66.9552 71.9302C66.7479 71.9394 66.5393 71.9354 66.332 71.9354C64.6973 71.9354 63.0638 71.9354 61.4291 71.9354Z" fill="url(#paint3_linear_6574_15147)"/>
<path d="M59.8059 63.0905C61.4537 63.0905 63.1029 63.0866 64.7508 63.0958C64.9201 63.0958 65.1261 63.1325 65.2468 63.2335C65.3491 63.3188 65.4147 63.5379 65.3819 63.6691C65.3491 63.8003 65.189 63.925 65.0565 63.9984C64.9581 64.0535 64.8138 64.0286 64.6892 64.0286C61.4196 64.0286 58.1514 64.0286 54.8819 64.0286C54.8268 64.0286 54.7717 64.0273 54.7153 64.0286C54.3951 64.0365 54.1472 63.9132 54.1446 63.5707C54.1419 63.2073 54.3978 63.0866 54.735 63.0879C56.4248 63.0918 58.1147 63.0892 59.8046 63.0892L59.8059 63.0905Z" fill="url(#paint4_linear_6574_15147)"/>
<path d="M54.481 74.9576C55.7694 74.9576 57.0591 74.9576 58.3475 74.9576C58.4722 74.9576 58.6257 74.9196 58.7149 74.9773C58.871 75.0783 59.0967 75.2423 59.0927 75.3748C59.0888 75.5441 58.9077 75.7317 58.7608 75.8655C58.69 75.9298 58.522 75.8931 58.3974 75.8931C55.7642 75.8931 53.131 75.8931 50.4991 75.8931C50.4295 75.8931 50.36 75.8957 50.2918 75.8918C49.9861 75.8734 49.7814 75.7265 49.7893 75.4063C49.7958 75.1085 49.9926 74.9629 50.2839 74.9602C50.81 74.955 51.3375 74.9576 51.8636 74.9576C52.7361 74.9576 53.6099 74.9576 54.4823 74.9576H54.481Z" fill="url(#paint5_linear_6574_15147)"/>
<path d="M54.4404 67.9899C53.1375 67.9899 51.8347 67.9899 50.5319 67.9899C50.4217 67.9899 50.2734 68.0293 50.2065 67.9729C50.0451 67.8364 49.8286 67.6632 49.8129 67.4887C49.8011 67.3575 50.0504 67.1778 50.2144 67.0663C50.3023 67.0072 50.4571 67.0453 50.5817 67.0453C53.1454 67.0453 55.7104 67.0453 58.274 67.0453C58.8264 67.0453 59.0573 67.1791 59.0678 67.4992C59.0796 67.8364 58.829 67.9899 58.2649 67.9899C56.9896 67.9899 55.7143 67.9899 54.439 67.9899H54.4404Z" fill="url(#paint6_linear_6574_15147)"/>
<path d="M64.0099 67.0443C64.826 67.0443 65.642 67.0469 66.4581 67.0443C66.7822 67.0443 67.0446 67.1283 67.0747 67.5022C67.0997 67.8026 66.8556 67.9876 66.441 67.9876C64.8089 67.9902 63.1781 67.9902 61.5459 67.9876C61.1182 67.9876 60.8991 67.8197 60.9149 67.5048C60.9358 67.0876 61.235 67.043 61.563 67.043C62.3791 67.0443 63.1951 67.043 64.0112 67.043L64.0099 67.0443Z" fill="url(#paint7_linear_6574_15147)"/>
<path d="M51.6784 71.9425C51.2363 71.9425 50.7941 71.9425 50.352 71.9425C50.0358 71.9425 49.7904 71.8297 49.7891 71.4807C49.7891 71.1382 50.0226 71.0044 50.3415 71.0031C51.2402 71.0018 52.1389 71.0018 53.0363 71.0031C53.3604 71.0031 53.5874 71.1553 53.5808 71.4899C53.5743 71.8034 53.3512 71.9412 53.0455 71.9412C52.5889 71.9412 52.1337 71.9412 51.6771 71.9412L51.6784 71.9425Z" fill="url(#paint8_linear_6574_15147)"/>
<path d="M61.241 75.8951C60.9301 75.8912 60.6939 75.7836 60.6729 75.432C60.6546 75.1237 60.875 74.9597 61.2633 74.957C61.5808 74.9557 61.8131 75.0633 61.8367 75.4123C61.8577 75.7088 61.6136 75.8978 61.241 75.8951Z" fill="url(#paint9_linear_6574_15147)"/>
<path d="M74.1493 83.9983C71.0989 83.9983 68.0485 84.0023 64.9994 83.9957C63.6834 83.9931 62.7178 83.2754 62.399 82.0907C62.378 82.0107 62.3452 81.928 62.3478 81.848C62.3819 80.6449 62.2835 79.4181 62.4882 78.2439C62.8726 76.0371 64.304 74.6136 66.3665 73.8526C67.4922 73.438 68.652 73.089 69.821 72.824C70.7381 72.6167 71.7155 71.5041 71.9635 70.5804C71.9832 70.5043 71.8966 70.3469 71.8179 70.3062C70.1831 69.4482 69.1466 68.1034 68.5628 66.3755C68.5247 66.2652 68.4067 66.1485 68.2965 66.1012C67.1917 65.6158 66.6643 64.4179 67.1235 63.2712C67.2587 62.9327 67.1642 62.8055 66.932 62.5969C65.6816 61.4725 64.7527 60.1303 64.5822 58.4221C64.3512 56.1077 66.4938 54.2499 68.7675 54.7261C69.2962 54.8363 69.821 54.9623 70.3432 55.1001C71.3954 55.3769 72.424 55.285 73.4566 54.978C74.2648 54.7379 75.0782 54.4952 75.9061 54.3457C77.6865 54.0229 79.4315 55.0187 80.1596 56.6863C80.2357 56.8595 80.4155 57.0274 80.59 57.1101C81.4047 57.4932 81.6907 58.2056 81.8115 59.0138C81.9925 60.2195 81.6212 61.315 81.0675 62.3607C80.9482 62.5864 80.9245 62.7517 81.0557 62.997C81.7327 64.271 81.0557 65.827 79.9825 66.1275C79.871 66.159 79.7634 66.3217 79.7188 66.4463C79.1179 68.1309 78.1011 69.46 76.4952 70.3089C76.402 70.3587 76.3115 70.5883 76.3496 70.6841C76.7681 71.7599 77.3847 72.6049 78.6377 72.8476C80.1216 73.1349 81.5753 73.5784 82.9057 74.3079C84.7963 75.3417 85.8354 76.9634 85.9692 79.1282C86.0138 79.8472 86.0099 80.5701 86.0086 81.2904C86.0059 82.933 84.9472 83.9944 83.3006 83.9983C80.2502 84.0049 77.1997 84.001 74.1506 84.001L74.1493 83.9983ZM74.1126 83.0576C77.2024 83.0576 80.2935 83.0603 83.3832 83.0563C84.3777 83.055 85.0574 82.378 85.0639 81.3888C85.0692 80.696 85.081 80.002 85.0429 79.3105C84.9367 77.3635 84.0419 75.8586 82.2693 75.0544C81.019 74.4876 79.6611 74.157 78.3412 73.7529C78.1811 73.7043 77.9109 73.8067 77.7705 73.9287C76.9334 74.6555 76.1239 75.4126 75.2986 76.1525C74.5127 76.8571 73.761 76.8518 72.9738 76.1407C72.1616 75.4073 71.3482 74.6752 70.5465 73.9287C70.3537 73.7476 70.1661 73.6689 69.9142 73.7516C68.6546 74.1635 67.3597 74.4928 66.1434 75.0085C64.6556 75.6409 63.69 76.8243 63.4132 78.4354C63.2583 79.342 63.2806 80.2827 63.2636 81.2077C63.24 82.4226 63.8842 83.0576 65.0912 83.0576C68.0983 83.0576 71.1055 83.0576 74.1126 83.0576ZM80.1268 62.0799C80.5388 61.3623 80.8576 60.6328 80.876 59.8325C80.8865 59.3628 80.7763 58.8734 80.6228 58.426C80.5545 58.2279 80.258 58.0062 80.0442 57.9812C79.6414 57.9353 79.4774 57.7674 79.3724 57.3921C78.967 55.9345 77.5566 55.0161 76.0557 55.2667C75.3223 55.39 74.6059 55.6183 73.8909 55.8308C72.7468 56.1707 71.5948 56.3425 70.4101 56.0801C69.7751 55.9397 69.1466 55.7718 68.509 55.6459C66.7207 55.2929 65.1227 56.9723 65.5714 58.7409C65.902 60.0424 66.6184 61.1104 67.647 61.9697C67.9527 62.2256 68.3174 62.1495 68.4644 61.7821C68.6245 61.3806 68.8816 61.3518 69.2621 61.4384C71.2078 61.8779 72.878 61.3347 74.249 59.9164C74.8447 59.3011 75.3275 59.3234 75.7264 60.0844C76.3063 61.1917 77.7167 61.9107 78.9001 61.6614C79.3226 61.5722 79.6899 61.4725 79.8985 61.9842C79.9169 62.0288 80.0206 62.038 80.1255 62.0799H80.1268ZM74.9496 60.6708C74.8998 60.6905 74.8683 60.6931 74.8499 60.7102C73.3556 62.1311 71.587 62.7386 69.5324 62.5142C69.4405 62.5037 69.3356 62.5536 69.2477 62.5982C69.0509 62.6992 68.8724 62.8553 68.6664 62.9183C68.1981 63.0613 67.8845 63.5533 67.9173 64.1713C67.9488 64.7709 68.2951 65.2078 68.8121 65.2379C69.1374 65.2576 69.2398 65.4374 69.3552 65.705C69.6701 66.4371 69.9286 67.223 70.3852 67.862C72.2535 70.4807 75.6017 70.6001 77.6799 68.169C78.2743 67.4736 78.6758 66.6746 78.9093 65.7903C78.988 65.4938 79.0903 65.2576 79.4695 65.2327C79.9904 65.1986 80.2935 64.8286 80.3722 64.2146C80.4378 63.695 80.1662 63.0744 79.7582 62.9577C79.2976 62.8265 78.8686 62.53 78.3438 62.6625C78.2047 62.6979 78.0421 62.6493 77.8925 62.6218C76.629 62.3961 75.6437 61.7401 74.9496 60.6695V60.6708ZM72.8964 70.8087C72.6182 71.7704 72.037 72.5931 71.1737 73.2556C72.0554 74.052 72.9029 74.8222 73.757 75.5844C73.9814 75.7839 74.2556 75.8009 74.4786 75.6041C75.3459 74.8392 76.1987 74.0573 77.0803 73.2609C76.221 72.5891 75.6437 71.7652 75.3695 70.8087H72.8964Z" stroke="url(#paint10_linear_6574_15147)" stroke-width="0.5"/>
<path d="M45.9944 61.8421C45.9944 56.7542 45.993 51.6662 45.9944 46.5782C45.997 45.2964 46.6241 44.3898 47.7236 44.092C47.9873 44.0198 48.272 44.0015 48.5462 44.0015C56.3933 43.9975 64.2405 43.9975 72.0863 43.9988C73.6489 43.9988 74.625 44.9802 74.6289 46.5494C74.6355 48.4898 74.6316 50.4316 74.6289 52.3721C74.6289 52.5085 74.6499 52.6804 74.5804 52.7749C74.4781 52.9139 74.3009 53.0806 74.1553 53.0806C74.0097 53.0806 73.8247 52.9192 73.7276 52.7788C73.6528 52.6699 73.6764 52.4862 73.6764 52.3353C73.6738 50.408 73.6764 48.4807 73.6738 46.5546C73.6725 45.484 73.1306 44.9474 72.06 44.9474C64.2273 44.9474 56.3933 44.9474 48.5606 44.9474C47.4874 44.9474 46.9403 45.4853 46.9403 46.5494C46.9403 56.7397 46.9403 66.9288 46.9403 77.1192C46.9403 78.1858 47.4874 78.729 48.5541 78.729C52.3392 78.729 56.1244 78.729 59.9082 78.729C60.0473 78.729 60.2231 78.6805 60.3162 78.7474C60.4855 78.8694 60.698 79.0531 60.7151 79.2276C60.7282 79.3601 60.4776 79.5372 60.3162 79.6566C60.2428 79.7104 60.1011 79.6736 59.9896 79.6736C56.1769 79.6736 52.3642 79.675 48.5515 79.6736C46.9534 79.6736 45.9957 78.7172 45.9944 77.1087C45.9904 72.0207 45.993 66.9327 45.993 61.8448L45.9944 61.8421Z" stroke="url(#paint11_linear_6574_15147)" stroke-width="0.5"/>
<path d="M49.7813 53.951C49.776 50.5437 52.5247 47.7806 55.9201 47.7793C59.3169 47.778 62.0866 50.5384 62.0892 53.93C62.0931 57.3228 59.3222 60.0872 55.9241 60.082C52.5457 60.0767 49.7865 57.3215 49.7813 53.951ZM51.9172 57.273C53.0875 56.1027 54.2172 54.9835 55.3297 53.8473C55.4255 53.7489 55.4465 53.5469 55.4478 53.3921C55.457 52.1601 55.4531 50.9281 55.4531 49.6948C55.4531 49.3944 55.4531 49.0926 55.4531 48.7423C53.5034 49.0073 52.0773 49.952 51.256 51.6746C50.3244 53.6269 50.6065 55.4847 51.9185 57.2717L51.9172 57.273ZM59.1792 57.967C58.0863 56.8741 56.9921 55.7799 55.9464 54.7343C54.8745 55.793 53.7763 56.8781 52.6782 57.9631C54.3549 59.5283 57.6376 59.5244 59.1792 57.9684V57.967ZM56.4305 53.4288H61.0816C60.8966 50.6027 58.249 48.7541 56.4305 48.821V53.4288ZM57.2413 54.4325C58.1519 55.3443 59.0637 56.2549 59.9743 57.1667C60.5856 56.5448 61.1354 55.1908 61.0527 54.4325H57.2413Z" stroke="url(#paint12_linear_6574_15147)" stroke-width="0.5"/>
<path d="M61.4291 71.9354C59.7116 71.9354 57.9942 71.9354 56.2768 71.9354C56.1522 71.9354 55.9973 71.9761 55.9094 71.9171C55.7454 71.8069 55.5132 71.6416 55.508 71.492C55.5014 71.3359 55.71 71.1469 55.8635 71.021C55.9396 70.958 56.1036 70.996 56.2283 70.996C59.7051 70.996 63.1806 70.996 66.6574 70.996C66.7676 70.996 66.9146 70.9567 66.9828 71.0118C67.1468 71.1469 67.3593 71.3096 67.3934 71.492C67.442 71.7478 67.2321 71.9171 66.9552 71.9302C66.7479 71.9394 66.5393 71.9354 66.332 71.9354C64.6973 71.9354 63.0638 71.9354 61.4291 71.9354Z" stroke="url(#paint13_linear_6574_15147)" stroke-width="0.5"/>
<path d="M59.8059 63.0905C61.4537 63.0905 63.1029 63.0866 64.7508 63.0958C64.9201 63.0958 65.1261 63.1325 65.2468 63.2335C65.3491 63.3188 65.4147 63.5379 65.3819 63.6691C65.3491 63.8003 65.189 63.925 65.0565 63.9984C64.9581 64.0535 64.8138 64.0286 64.6892 64.0286C61.4196 64.0286 58.1514 64.0286 54.8819 64.0286C54.8268 64.0286 54.7717 64.0273 54.7153 64.0286C54.3951 64.0365 54.1472 63.9132 54.1446 63.5707C54.1419 63.2073 54.3978 63.0866 54.735 63.0879C56.4248 63.0918 58.1147 63.0892 59.8046 63.0892L59.8059 63.0905Z" stroke="url(#paint14_linear_6574_15147)" stroke-width="0.5"/>
<path d="M54.481 74.9576C55.7694 74.9576 57.0591 74.9576 58.3475 74.9576C58.4722 74.9576 58.6257 74.9196 58.7149 74.9773C58.871 75.0783 59.0967 75.2423 59.0927 75.3748C59.0888 75.5441 58.9077 75.7317 58.7608 75.8655C58.69 75.9298 58.522 75.8931 58.3974 75.8931C55.7642 75.8931 53.131 75.8931 50.4991 75.8931C50.4295 75.8931 50.36 75.8957 50.2918 75.8918C49.9861 75.8734 49.7814 75.7265 49.7893 75.4063C49.7958 75.1085 49.9926 74.9629 50.2839 74.9602C50.81 74.955 51.3375 74.9576 51.8636 74.9576C52.7361 74.9576 53.6099 74.9576 54.4823 74.9576H54.481Z" stroke="url(#paint15_linear_6574_15147)" stroke-width="0.5"/>
<path d="M54.4404 67.9899C53.1375 67.9899 51.8347 67.9899 50.5319 67.9899C50.4217 67.9899 50.2734 68.0293 50.2065 67.9729C50.0451 67.8364 49.8286 67.6632 49.8129 67.4887C49.8011 67.3575 50.0504 67.1778 50.2144 67.0663C50.3023 67.0072 50.4571 67.0453 50.5817 67.0453C53.1454 67.0453 55.7104 67.0453 58.274 67.0453C58.8264 67.0453 59.0573 67.1791 59.0678 67.4992C59.0796 67.8364 58.829 67.9899 58.2649 67.9899C56.9896 67.9899 55.7143 67.9899 54.439 67.9899H54.4404Z" stroke="url(#paint16_linear_6574_15147)" stroke-width="0.5"/>
<path d="M64.0099 67.0443C64.826 67.0443 65.642 67.0469 66.4581 67.0443C66.7822 67.0443 67.0446 67.1283 67.0747 67.5022C67.0997 67.8026 66.8556 67.9876 66.441 67.9876C64.8089 67.9902 63.1781 67.9902 61.5459 67.9876C61.1182 67.9876 60.8991 67.8197 60.9149 67.5048C60.9358 67.0876 61.235 67.043 61.563 67.043C62.3791 67.0443 63.1951 67.043 64.0112 67.043L64.0099 67.0443Z" stroke="url(#paint17_linear_6574_15147)" stroke-width="0.5"/>
<path d="M51.6784 71.9425C51.2363 71.9425 50.7941 71.9425 50.352 71.9425C50.0358 71.9425 49.7904 71.8297 49.7891 71.4807C49.7891 71.1382 50.0226 71.0044 50.3415 71.0031C51.2402 71.0018 52.1389 71.0018 53.0363 71.0031C53.3604 71.0031 53.5874 71.1553 53.5808 71.4899C53.5743 71.8034 53.3512 71.9412 53.0455 71.9412C52.5889 71.9412 52.1337 71.9412 51.6771 71.9412L51.6784 71.9425Z" stroke="url(#paint18_linear_6574_15147)" stroke-width="0.5"/>
<path d="M61.241 75.8951C60.9301 75.8912 60.6939 75.7836 60.6729 75.432C60.6546 75.1237 60.875 74.9597 61.2633 74.957C61.5808 74.9557 61.8131 75.0633 61.8367 75.4123C61.8577 75.7088 61.6136 75.8978 61.241 75.8951Z" stroke="url(#paint19_linear_6574_15147)" stroke-width="0.5"/>
</g>
<defs>
<filter id="filter0_d_6574_15147" x="0" y="0" width="132" height="132" filterUnits="userSpaceOnUse" color-interpolation-filters="sRGB">
<feFlood flood-opacity="0" result="BackgroundImageFix"/>
<feColorMatrix in="SourceAlpha" type="matrix" values="0 0 0 0 0 0 0 0 0 0 0 0 0 0 0 0 0 0 127 0" result="hardAlpha"/>
<feOffset dy="2"/>
<feGaussianBlur stdDeviation="15"/>
<feComposite in2="hardAlpha" operator="out"/>
<feColorMatrix type="matrix" values="0 0 0 0 1 0 0 0 0 0.545098 0 0 0 0 0.0745098 0 0 0 0.12 0"/>
<feBlend mode="normal" in2="BackgroundImageFix" result="effect1_dropShadow_6574_15147"/>
<feBlend mode="normal" in="SourceGraphic" in2="effect1_dropShadow_6574_15147" result="shape"/>
</filter>
<linearGradient id="paint0_linear_6574_15147" x1="51.2694" y1="51.6911" x2="84.2266" y2="51.8523" gradientUnits="userSpaceOnUse">
<stop stop-color="#F8BF3B"/>
<stop offset="0.305" stop-color="#FF8B13"/>
<stop offset="1" stop-color="#EF5F3D"/>
</linearGradient>
<linearGradient id="paint1_linear_6574_15147" x1="51.2694" y1="51.6911" x2="84.2266" y2="51.8523" gradientUnits="userSpaceOnUse">
<stop stop-color="#F8BF3B"/>
<stop offset="0.305" stop-color="#FF8B13"/>
<stop offset="1" stop-color="#EF5F3D"/>
</linearGradient>
<linearGradient id="paint2_linear_6574_15147" x1="51.2694" y1="51.6911" x2="84.2266" y2="51.8523" gradientUnits="userSpaceOnUse">
<stop stop-color="#F8BF3B"/>
<stop offset="0.305" stop-color="#FF8B13"/>
<stop offset="1" stop-color="#EF5F3D"/>
</linearGradient>
<linearGradient id="paint3_linear_6574_15147" x1="51.2694" y1="51.6911" x2="84.2266" y2="51.8523" gradientUnits="userSpaceOnUse">
<stop stop-color="#F8BF3B"/>
<stop offset="0.305" stop-color="#FF8B13"/>
<stop offset="1" stop-color="#EF5F3D"/>
</linearGradient>
<linearGradient id="paint4_linear_6574_15147" x1="51.2694" y1="51.6911" x2="84.2266" y2="51.8523" gradientUnits="userSpaceOnUse">
<stop stop-color="#F8BF3B"/>
<stop offset="0.305" stop-color="#FF8B13"/>
<stop offset="1" stop-color="#EF5F3D"/>
</linearGradient>
<linearGradient id="paint5_linear_6574_15147" x1="51.2694" y1="51.6911" x2="84.2266" y2="51.8523" gradientUnits="userSpaceOnUse">
<stop stop-color="#F8BF3B"/>
<stop offset="0.305" stop-color="#FF8B13"/>
<stop offset="1" stop-color="#EF5F3D"/>
</linearGradient>
<linearGradient id="paint6_linear_6574_15147" x1="51.2694" y1="51.6911" x2="84.2266" y2="51.8523" gradientUnits="userSpaceOnUse">
<stop stop-color="#F8BF3B"/>
<stop offset="0.305" stop-color="#FF8B13"/>
<stop offset="1" stop-color="#EF5F3D"/>
</linearGradient>
<linearGradient id="paint7_linear_6574_15147" x1="51.2694" y1="51.6911" x2="84.2266" y2="51.8523" gradientUnits="userSpaceOnUse">
<stop stop-color="#F8BF3B"/>
<stop offset="0.305" stop-color="#FF8B13"/>
<stop offset="1" stop-color="#EF5F3D"/>
</linearGradient>
<linearGradient id="paint8_linear_6574_15147" x1="51.2694" y1="51.6911" x2="84.2266" y2="51.8523" gradientUnits="userSpaceOnUse">
<stop stop-color="#F8BF3B"/>
<stop offset="0.305" stop-color="#FF8B13"/>
<stop offset="1" stop-color="#EF5F3D"/>
</linearGradient>
<linearGradient id="paint9_linear_6574_15147" x1="51.2694" y1="51.6911" x2="84.2266" y2="51.8523" gradientUnits="userSpaceOnUse">
<stop stop-color="#F8BF3B"/>
<stop offset="0.305" stop-color="#FF8B13"/>
<stop offset="1" stop-color="#EF5F3D"/>
</linearGradient>
<linearGradient id="paint10_linear_6574_15147" x1="51.2694" y1="51.6911" x2="84.2266" y2="51.8523" gradientUnits="userSpaceOnUse">
<stop stop-color="#F8BF3B"/>
<stop offset="0.305" stop-color="#FF8B13"/>
<stop offset="1" stop-color="#EF5F3D"/>
</linearGradient>
<linearGradient id="paint11_linear_6574_15147" x1="51.2694" y1="51.6911" x2="84.2266" y2="51.8523" gradientUnits="userSpaceOnUse">
<stop stop-color="#F8BF3B"/>
<stop offset="0.305" stop-color="#FF8B13"/>
<stop offset="1" stop-color="#EF5F3D"/>
</linearGradient>
<linearGradient id="paint12_linear_6574_15147" x1="51.2694" y1="51.6911" x2="84.2266" y2="51.8523" gradientUnits="userSpaceOnUse">
<stop stop-color="#F8BF3B"/>
<stop offset="0.305" stop-color="#FF8B13"/>
<stop offset="1" stop-color="#EF5F3D"/>
</linearGradient>
<linearGradient id="paint13_linear_6574_15147" x1="51.2694" y1="51.6911" x2="84.2266" y2="51.8523" gradientUnits="userSpaceOnUse">
<stop stop-color="#F8BF3B"/>
<stop offset="0.305" stop-color="#FF8B13"/>
<stop offset="1" stop-color="#EF5F3D"/>
</linearGradient>
<linearGradient id="paint14_linear_6574_15147" x1="51.2694" y1="51.6911" x2="84.2266" y2="51.8523" gradientUnits="userSpaceOnUse">
<stop stop-color="#F8BF3B"/>
<stop offset="0.305" stop-color="#FF8B13"/>
<stop offset="1" stop-color="#EF5F3D"/>
</linearGradient>
<linearGradient id="paint15_linear_6574_15147" x1="51.2694" y1="51.6911" x2="84.2266" y2="51.8523" gradientUnits="userSpaceOnUse">
<stop stop-color="#F8BF3B"/>
<stop offset="0.305" stop-color="#FF8B13"/>
<stop offset="1" stop-color="#EF5F3D"/>
</linearGradient>
<linearGradient id="paint16_linear_6574_15147" x1="51.2694" y1="51.6911" x2="84.2266" y2="51.8523" gradientUnits="userSpaceOnUse">
<stop stop-color="#F8BF3B"/>
<stop offset="0.305" stop-color="#FF8B13"/>
<stop offset="1" stop-color="#EF5F3D"/>
</linearGradient>
<linearGradient id="paint17_linear_6574_15147" x1="51.2694" y1="51.6911" x2="84.2266" y2="51.8523" gradientUnits="userSpaceOnUse">
<stop stop-color="#F8BF3B"/>
<stop offset="0.305" stop-color="#FF8B13"/>
<stop offset="1" stop-color="#EF5F3D"/>
</linearGradient>
<linearGradient id="paint18_linear_6574_15147" x1="51.2694" y1="51.6911" x2="84.2266" y2="51.8523" gradientUnits="userSpaceOnUse">
<stop stop-color="#F8BF3B"/>
<stop offset="0.305" stop-color="#FF8B13"/>
<stop offset="1" stop-color="#EF5F3D"/>
</linearGradient>
<linearGradient id="paint19_linear_6574_15147" x1="51.2694" y1="51.6911" x2="84.2266" y2="51.8523" gradientUnits="userSpaceOnUse">
<stop stop-color="#F8BF3B"/>
<stop offset="0.305" stop-color="#FF8B13"/>
<stop offset="1" stop-color="#EF5F3D"/>
</linearGradient>
</defs>
</svg>
