<svg width="24" height="24" viewBox="0 0 24 24" fill="none" xmlns="http://www.w3.org/2000/svg">
<path d="M2.60156 9.88725H20.8207M2.60156 9.88725V20.4352C2.60156 20.6895 2.70259 20.9334 2.88242 21.1132C3.06225 21.2931 3.30615 21.3941 3.56047 21.3941H19.8618C20.1162 21.3941 20.3601 21.2931 20.5399 21.1132C20.7197 20.9334 20.8207 20.6895 20.8207 20.4352V9.88725M2.60156 9.88725V5.57219C2.60156 5.31787 2.70259 5.07397 2.88242 4.89414C3.06225 4.71431 3.30615 4.61328 3.56047 4.61328H19.8618C20.1162 4.61328 20.3601 4.71431 20.5399 4.89414C20.7197 5.07397 20.8207 5.31787 20.8207 5.57219V9.88725" stroke="white" stroke-width="2" stroke-linejoin="round"/>
<path d="M7.875 3.17578V7.0114M15.5462 3.17578V7.0114" stroke="white" stroke-width="2" stroke-linecap="round"/>
<path d="M13.5544 19.0845C13.444 19.0845 13.3473 19.0673 13.2645 19.0327C13.1816 18.9982 13.1126 18.9499 13.0573 18.8878C13.009 18.8256 12.9641 18.76 12.9227 18.691L11.5868 16.6819C11.4832 16.5162 11.3727 16.3816 11.2554 16.278C11.1449 16.1744 11.0206 16.102 10.8826 16.0605C10.7445 16.0191 10.5788 15.9984 10.3855 15.9984H9.27735C9.13236 15.9984 9.02189 15.9604 8.94595 15.8845C8.87 15.8016 8.83203 15.6946 8.83203 15.5634C8.83203 15.4253 8.87 15.3218 8.94595 15.2527C9.02189 15.1768 9.13236 15.1388 9.27735 15.1388H10.9758C11.5281 15.1388 11.9423 15.0318 12.2185 14.8178C12.4947 14.5969 12.6431 14.2655 12.6638 13.8236L12.8192 14.0721H9.24628C9.1151 14.0721 9.01154 14.0411 8.93559 13.9789C8.86655 13.9099 8.83203 13.8132 8.83203 13.689C8.83203 13.5716 8.86655 13.4818 8.93559 13.4197C9.01154 13.3507 9.1151 13.3161 9.24628 13.3161H12.8192L12.6431 13.5543C12.5879 13.1953 12.4256 12.9261 12.1564 12.7466C11.894 12.5601 11.5212 12.4669 11.0379 12.4669H9.24628C9.1151 12.4669 9.01154 12.4359 8.93559 12.3737C8.86655 12.3047 8.83203 12.208 8.83203 12.0838C8.83203 11.9664 8.86655 11.8766 8.93559 11.8145C9.01154 11.7455 9.1151 11.7109 9.24628 11.7109H14.3415C14.4796 11.7109 14.5832 11.7455 14.6522 11.8145C14.7281 11.8766 14.7661 11.9664 14.7661 12.0838C14.7661 12.208 14.7281 12.3047 14.6522 12.3737C14.5832 12.4359 14.4796 12.4669 14.3415 12.4669H12.6742L12.8192 12.2287C13.0746 12.3599 13.2748 12.5325 13.4198 12.7466C13.5648 12.9606 13.6546 13.2091 13.6891 13.4922L13.4819 13.3161H14.3415C14.4796 13.3161 14.5832 13.3507 14.6522 13.4197C14.7281 13.4818 14.7661 13.5716 14.7661 13.689C14.7661 13.8132 14.7281 13.9099 14.6522 13.9789C14.5832 14.0411 14.4796 14.0721 14.3415 14.0721H13.513L13.7098 13.7822C13.7236 14.224 13.6304 14.6072 13.4302 14.9317C13.2369 15.2562 12.9538 15.5082 12.581 15.6877C12.215 15.8603 11.7697 15.9466 11.245 15.9466V15.843H11.4729C11.7559 15.843 12.0045 15.9052 12.2185 16.0295C12.4325 16.1537 12.6431 16.3712 12.8502 16.6819L13.948 18.3285C14.0308 18.4528 14.0653 18.5736 14.0515 18.691C14.0446 18.8015 13.9963 18.8947 13.9066 18.9706C13.8237 19.0466 13.7063 19.0845 13.5544 19.0845Z" fill="white"/>
</svg>
