<svg width="132" height="132" viewBox="0 0 132 132" fill="none" xmlns="http://www.w3.org/2000/svg">
<g filter="url(#filter0_d_6574_15140)">
<rect x="30" y="28" width="72" height="72" rx="6" fill="white" shape-rendering="crispEdges"/>
<path d="M60.8585 53.765C60.866 53.602 60.8722 53.4963 60.8747 53.3905C60.8872 52.7337 60.9929 52.5757 61.6199 52.4003C66.1206 51.1377 70.2269 49.0901 73.9452 46.2576C74.4129 45.9018 74.6406 45.913 75.1506 46.3011C78.3626 48.7443 81.8855 50.5966 85.712 51.8741C86.2705 52.0607 86.8378 52.2175 87.4026 52.3842C88.0333 52.5708 88.1688 52.7462 88.1688 53.4129C88.1688 60.9266 88.1688 68.4402 88.1688 75.9526C88.1688 76.8371 88.1763 77.7228 88.1664 78.6072C88.144 80.5354 86.6947 81.9934 84.7641 81.9946C72.2571 82.0008 59.7502 82.0008 47.2444 81.9946C45.2926 81.9946 43.8397 80.5279 43.8372 78.5662C43.8297 71.4568 43.831 64.3463 43.8372 57.2369C43.8384 55.2329 45.3051 53.7712 47.3091 53.7675C51.6232 53.7613 55.9361 53.765 60.2502 53.765C60.4356 53.765 60.6197 53.765 60.8585 53.765ZM74.4702 47.6857C74.4503 47.6981 74.3818 47.7342 74.3209 47.779C70.7668 50.3938 66.8806 52.3444 62.6461 53.5871C62.3476 53.6742 62.2817 53.8234 62.2829 54.1133C62.2916 57.217 62.3389 60.3232 62.2617 63.4245C62.2207 65.0889 62.5976 66.6265 63.2544 68.1081C65.511 73.2022 69.3599 76.7276 74.2798 79.172C74.4142 79.2379 74.6505 79.2218 74.7836 79.1459C75.8883 78.5202 77.0203 77.9305 78.0677 77.2177C81.7089 74.7397 84.4929 71.5352 86.0616 67.3754C86.3912 66.5008 86.701 65.5579 86.7209 64.6398C86.798 61.1492 86.7457 57.6561 86.7607 54.1643C86.7619 53.806 86.6562 53.6605 86.3091 53.5585C83.5612 52.7561 80.9388 51.6477 78.4683 50.2022C77.1186 49.4135 75.8199 48.5378 74.4714 47.6832L74.4702 47.6857ZM73.6765 80.5802C73.6815 80.5478 73.6877 80.5155 73.6927 80.4832C73.2834 80.2655 72.8716 80.0552 72.4674 79.8288C72.0481 79.595 71.6302 79.3561 71.2221 79.1023C67.1456 76.5696 63.9249 73.2644 61.9769 68.8171C61.2355 67.1253 60.7901 65.3887 60.8498 63.5029C60.9319 60.9141 60.8735 58.3204 60.8747 55.728C60.8747 55.565 60.8747 55.4008 60.8747 55.1943C60.6421 55.1943 60.4741 55.1943 60.3062 55.1943C56.0555 55.1943 51.8049 55.1943 47.5542 55.1943C45.9955 55.1943 45.2541 55.9444 45.2541 57.5156C45.2541 64.4222 45.2541 71.3287 45.2541 78.234C45.2541 79.8301 45.9955 80.5777 47.5791 80.5777C55.0255 80.5777 62.472 80.5777 69.9184 80.5777C71.1711 80.5777 72.4238 80.5777 73.6753 80.5777L73.6765 80.5802ZM86.7457 69.7551C84.1533 74.6663 80.1838 78.0599 75.3335 80.5379C78.4235 80.5802 81.48 80.5814 84.5377 80.5802C85.9633 80.5802 86.7507 79.789 86.7507 78.356C86.7507 75.608 86.7482 72.8601 86.747 70.1121C86.747 69.9927 86.747 69.8745 86.747 69.7551H86.7457Z" fill="url(#paint0_linear_6574_15140)"/>
<path d="M82.9046 62.2229C82.8436 66.9176 79.0458 70.6533 74.3995 70.5874C69.7508 70.5214 66.0474 66.6925 66.1022 62.0089C66.1557 57.4584 70.0195 53.7078 74.5923 53.7663C79.2286 53.826 82.9643 57.6264 82.9046 62.2229ZM67.5327 62.1694C67.5825 66.1227 70.69 69.1792 74.6222 69.1444C78.4598 69.1095 81.53 65.9287 81.4765 62.0412C81.4255 58.2533 78.267 55.1596 74.4953 55.1994C70.6302 55.2417 67.4842 58.3902 67.5327 62.1694Z" fill="url(#paint1_linear_6574_15140)"/>
<path d="M54.0782 76.046C51.8291 76.046 49.58 76.046 47.3296 76.046C46.3407 76.046 46.1752 75.8831 46.1839 74.8742C46.1901 74.2074 46.1603 73.5345 46.2498 72.8776C46.424 71.6113 47.1306 70.6733 48.3273 70.2354C49.3685 69.8535 50.4632 69.6134 51.5392 69.3323C51.9286 69.2303 52.0804 68.9367 51.7955 68.6618C51.2469 68.1343 50.8302 67.536 50.5851 66.8132C50.5553 66.7262 50.4433 66.6577 50.3575 66.5993C49.5153 66.0233 49.3038 64.6723 49.9022 63.824C50.0241 63.6498 50.085 63.4122 50.1124 63.197C50.1622 62.7977 50.1223 62.3847 50.1982 61.9928C50.4358 60.7663 51.2668 60.1082 52.4262 59.832C53.4649 59.5845 54.5161 59.572 55.5635 59.7959C57.2329 60.1542 58.0092 61.081 58.0502 62.7827C58.0614 63.2331 58.1012 63.6274 58.3712 64.0416C58.8862 64.8328 58.5578 66.0793 57.8064 66.6067C57.6907 66.6876 57.6123 66.8294 57.5315 66.9526C57.1844 67.4788 56.8349 68.0025 56.5064 68.5386C56.3945 68.7215 56.3124 68.938 56.29 69.1457C56.285 69.1955 56.5749 69.2925 56.7378 69.3385C57.7355 69.6196 58.7543 69.8349 59.7284 70.1794C61.1229 70.6733 61.9526 71.9185 61.9824 73.3976C61.9936 73.9711 61.9887 74.5458 61.9849 75.1205C61.98 75.8035 61.7436 76.0436 61.0582 76.0448C58.7307 76.0485 56.4044 76.046 54.077 76.046H54.0782ZM60.5369 74.603C60.5369 74.154 60.5506 73.7509 60.5345 73.3503C60.4971 72.4509 60.0543 71.7879 59.2109 71.513C58.2144 71.1871 57.1919 70.9171 56.1619 70.7243C55.1555 70.5352 54.9453 70.4071 54.7823 69.4194H53.3704C53.246 70.3623 53.0071 70.5477 52.0816 70.7131C51.1561 70.8798 50.2368 71.1062 49.3324 71.3674C47.7787 71.8153 47.413 72.8627 47.7016 74.6043H60.5369V74.603ZM50.8712 65.3192C51.6014 65.3453 51.7656 65.7434 51.9062 66.2037C52.1563 67.0222 52.5717 67.7164 53.4886 67.9266C54.8781 68.2451 55.8372 67.6268 56.2937 66.1091C56.397 65.7658 56.5176 65.4797 56.9045 65.364C57.177 65.2831 57.2603 64.8142 57.0202 64.6661C56.6196 64.4198 56.5823 64.0678 56.5985 63.6622C56.6134 63.2903 56.6122 62.9171 56.5985 62.5451C56.5749 61.8896 56.3062 61.4915 55.6755 61.3024C54.6131 60.9839 53.5321 60.9852 52.4697 61.3086C51.849 61.4977 51.5803 61.9057 51.5616 62.565C51.5492 63.0141 51.5878 63.4669 51.5529 63.9135C51.5355 64.1275 51.4148 64.339 51.3153 64.5392C51.2009 64.7719 51.0591 64.9908 50.87 65.3192H50.8712Z" fill="url(#paint2_linear_6574_15140)"/>
<path d="M73.1824 63.6028C73.5419 63.2246 73.8317 62.9062 74.1353 62.6014C75.2076 61.5241 76.2799 60.4468 77.3597 59.377C77.7291 59.01 78.1148 58.9827 78.4295 59.2738C78.7554 59.5748 78.748 60.0002 78.3723 60.3784C76.8422 61.9197 75.3059 63.4535 73.7658 64.9849C73.3889 65.3593 73.0008 65.3593 72.6263 64.9911C71.9509 64.3293 71.2816 63.66 70.6198 62.9833C70.2976 62.6536 70.2827 62.2344 70.5539 61.9446C70.8437 61.6348 71.2754 61.6311 71.6249 61.9782C72.1412 62.4907 72.6326 63.0268 73.1836 63.604L73.1824 63.6028Z" fill="url(#paint3_linear_6574_15140)"/>
<path d="M60.8585 53.765C60.866 53.602 60.8722 53.4963 60.8747 53.3905C60.8872 52.7337 60.9929 52.5757 61.6199 52.4003C66.1206 51.1377 70.2269 49.0901 73.9452 46.2576C74.4129 45.9018 74.6406 45.913 75.1506 46.3011C78.3626 48.7443 81.8855 50.5966 85.712 51.8741C86.2705 52.0607 86.8378 52.2175 87.4026 52.3842C88.0333 52.5708 88.1688 52.7462 88.1688 53.4129C88.1688 60.9266 88.1688 68.4402 88.1688 75.9526C88.1688 76.8371 88.1763 77.7228 88.1664 78.6072C88.144 80.5354 86.6947 81.9934 84.7641 81.9946C72.2571 82.0008 59.7502 82.0008 47.2444 81.9946C45.2926 81.9946 43.8397 80.5279 43.8372 78.5662C43.8297 71.4568 43.831 64.3463 43.8372 57.2369C43.8384 55.2329 45.3051 53.7712 47.3091 53.7675C51.6232 53.7613 55.9361 53.765 60.2502 53.765C60.4356 53.765 60.6197 53.765 60.8585 53.765ZM74.4702 47.6857C74.4503 47.6981 74.3818 47.7342 74.3209 47.779C70.7668 50.3938 66.8806 52.3444 62.6461 53.5871C62.3476 53.6742 62.2817 53.8234 62.2829 54.1133C62.2916 57.217 62.3389 60.3232 62.2617 63.4245C62.2207 65.0889 62.5976 66.6265 63.2544 68.1081C65.511 73.2022 69.3599 76.7276 74.2798 79.172C74.4142 79.2379 74.6505 79.2218 74.7836 79.1459C75.8883 78.5202 77.0203 77.9305 78.0677 77.2177C81.7089 74.7397 84.4929 71.5352 86.0616 67.3754C86.3912 66.5008 86.701 65.5579 86.7209 64.6398C86.798 61.1492 86.7457 57.6561 86.7607 54.1643C86.7619 53.806 86.6562 53.6605 86.3091 53.5585C83.5612 52.7561 80.9388 51.6477 78.4683 50.2022C77.1186 49.4135 75.8199 48.5378 74.4714 47.6832L74.4702 47.6857ZM73.6765 80.5802C73.6815 80.5478 73.6877 80.5155 73.6927 80.4832C73.2834 80.2655 72.8716 80.0552 72.4674 79.8288C72.0481 79.595 71.6302 79.3561 71.2221 79.1023C67.1456 76.5696 63.9249 73.2644 61.9769 68.8171C61.2355 67.1253 60.7901 65.3887 60.8498 63.5029C60.9319 60.9141 60.8735 58.3204 60.8747 55.728C60.8747 55.565 60.8747 55.4008 60.8747 55.1943C60.6421 55.1943 60.4741 55.1943 60.3062 55.1943C56.0555 55.1943 51.8049 55.1943 47.5542 55.1943C45.9955 55.1943 45.2541 55.9444 45.2541 57.5156C45.2541 64.4222 45.2541 71.3287 45.2541 78.234C45.2541 79.8301 45.9955 80.5777 47.5791 80.5777C55.0255 80.5777 62.472 80.5777 69.9184 80.5777C71.1711 80.5777 72.4238 80.5777 73.6753 80.5777L73.6765 80.5802ZM86.7457 69.7551C84.1533 74.6663 80.1838 78.0599 75.3335 80.5379C78.4235 80.5802 81.48 80.5814 84.5377 80.5802C85.9633 80.5802 86.7507 79.789 86.7507 78.356C86.7507 75.608 86.7482 72.8601 86.747 70.1121C86.747 69.9927 86.747 69.8745 86.747 69.7551H86.7457Z" stroke="url(#paint4_linear_6574_15140)" stroke-width="0.3"/>
<path d="M82.9046 62.2229C82.8436 66.9176 79.0458 70.6533 74.3995 70.5874C69.7508 70.5214 66.0474 66.6925 66.1022 62.0089C66.1557 57.4584 70.0195 53.7078 74.5923 53.7663C79.2286 53.826 82.9643 57.6264 82.9046 62.2229ZM67.5327 62.1694C67.5825 66.1227 70.69 69.1792 74.6222 69.1444C78.4598 69.1095 81.53 65.9287 81.4765 62.0412C81.4255 58.2533 78.267 55.1596 74.4953 55.1994C70.6302 55.2417 67.4842 58.3902 67.5327 62.1694Z" stroke="url(#paint5_linear_6574_15140)" stroke-width="0.3"/>
<path d="M54.0782 76.046C51.8291 76.046 49.58 76.046 47.3296 76.046C46.3407 76.046 46.1752 75.8831 46.1839 74.8742C46.1901 74.2074 46.1603 73.5345 46.2498 72.8776C46.424 71.6113 47.1306 70.6733 48.3273 70.2354C49.3685 69.8535 50.4632 69.6134 51.5392 69.3323C51.9286 69.2303 52.0804 68.9367 51.7955 68.6618C51.2469 68.1343 50.8302 67.536 50.5851 66.8132C50.5553 66.7262 50.4433 66.6577 50.3575 66.5993C49.5153 66.0233 49.3038 64.6723 49.9022 63.824C50.0241 63.6498 50.085 63.4122 50.1124 63.197C50.1622 62.7977 50.1223 62.3847 50.1982 61.9928C50.4358 60.7663 51.2668 60.1082 52.4262 59.832C53.4649 59.5845 54.5161 59.572 55.5635 59.7959C57.2329 60.1542 58.0092 61.081 58.0502 62.7827C58.0614 63.2331 58.1012 63.6274 58.3712 64.0416C58.8862 64.8328 58.5578 66.0793 57.8064 66.6067C57.6907 66.6876 57.6123 66.8294 57.5315 66.9526C57.1844 67.4788 56.8349 68.0025 56.5064 68.5386C56.3945 68.7215 56.3124 68.938 56.29 69.1457C56.285 69.1955 56.5749 69.2925 56.7378 69.3385C57.7355 69.6196 58.7543 69.8349 59.7284 70.1794C61.1229 70.6733 61.9526 71.9185 61.9824 73.3976C61.9936 73.9711 61.9887 74.5458 61.9849 75.1205C61.98 75.8035 61.7436 76.0436 61.0582 76.0448C58.7307 76.0485 56.4044 76.046 54.077 76.046H54.0782ZM60.5369 74.603C60.5369 74.154 60.5506 73.7509 60.5345 73.3503C60.4971 72.4509 60.0543 71.7879 59.2109 71.513C58.2144 71.1871 57.1919 70.9171 56.1619 70.7243C55.1555 70.5352 54.9453 70.4071 54.7823 69.4194H53.3704C53.246 70.3623 53.0071 70.5477 52.0816 70.7131C51.1561 70.8798 50.2368 71.1062 49.3324 71.3674C47.7787 71.8153 47.413 72.8627 47.7016 74.6043H60.5369V74.603ZM50.8712 65.3192C51.6014 65.3453 51.7656 65.7434 51.9062 66.2037C52.1563 67.0222 52.5717 67.7164 53.4886 67.9266C54.8781 68.2451 55.8372 67.6268 56.2937 66.1091C56.397 65.7658 56.5176 65.4797 56.9045 65.364C57.177 65.2831 57.2603 64.8142 57.0202 64.6661C56.6196 64.4198 56.5823 64.0678 56.5985 63.6622C56.6134 63.2903 56.6122 62.9171 56.5985 62.5451C56.5749 61.8896 56.3062 61.4915 55.6755 61.3024C54.6131 60.9839 53.5321 60.9852 52.4697 61.3086C51.849 61.4977 51.5803 61.9057 51.5616 62.565C51.5492 63.0141 51.5878 63.4669 51.5529 63.9135C51.5355 64.1275 51.4148 64.339 51.3153 64.5392C51.2009 64.7719 51.0591 64.9908 50.87 65.3192H50.8712Z" stroke="url(#paint6_linear_6574_15140)" stroke-width="0.3"/>
<path d="M73.1824 63.6028C73.5419 63.2246 73.8317 62.9062 74.1353 62.6014C75.2076 61.5241 76.2799 60.4468 77.3597 59.377C77.7291 59.01 78.1148 58.9827 78.4295 59.2738C78.7554 59.5748 78.748 60.0002 78.3723 60.3784C76.8422 61.9197 75.3059 63.4535 73.7658 64.9849C73.3889 65.3593 73.0008 65.3593 72.6263 64.9911C71.9509 64.3293 71.2816 63.66 70.6198 62.9833C70.2976 62.6536 70.2827 62.2344 70.5539 61.9446C70.8437 61.6348 71.2754 61.6311 71.6249 61.9782C72.1412 62.4907 72.6326 63.0268 73.1836 63.604L73.1824 63.6028Z" stroke="url(#paint7_linear_6574_15140)" stroke-width="0.3"/>
</g>
<defs>
<filter id="filter0_d_6574_15140" x="0" y="0" width="132" height="132" filterUnits="userSpaceOnUse" color-interpolation-filters="sRGB">
<feFlood flood-opacity="0" result="BackgroundImageFix"/>
<feColorMatrix in="SourceAlpha" type="matrix" values="0 0 0 0 0 0 0 0 0 0 0 0 0 0 0 0 0 0 127 0" result="hardAlpha"/>
<feOffset dy="2"/>
<feGaussianBlur stdDeviation="15"/>
<feComposite in2="hardAlpha" operator="out"/>
<feColorMatrix type="matrix" values="0 0 0 0 1 0 0 0 0 0.545098 0 0 0 0 0.0745098 0 0 0 0.12 0"/>
<feBlend mode="normal" in2="BackgroundImageFix" result="effect1_dropShadow_6574_15140"/>
<feBlend mode="normal" in="SourceGraphic" in2="effect1_dropShadow_6574_15140" result="shape"/>
</filter>
<linearGradient id="paint0_linear_6574_15140" x1="49.6793" y1="52.9229" x2="86.1958" y2="53.1428" gradientUnits="userSpaceOnUse">
<stop stop-color="#F8BF3B"/>
<stop offset="0.305" stop-color="#FF8B13"/>
<stop offset="1" stop-color="#EF5F3D"/>
</linearGradient>
<linearGradient id="paint1_linear_6574_15140" x1="49.6793" y1="52.9229" x2="86.1958" y2="53.1428" gradientUnits="userSpaceOnUse">
<stop stop-color="#F8BF3B"/>
<stop offset="0.305" stop-color="#FF8B13"/>
<stop offset="1" stop-color="#EF5F3D"/>
</linearGradient>
<linearGradient id="paint2_linear_6574_15140" x1="49.6793" y1="52.9229" x2="86.1958" y2="53.1428" gradientUnits="userSpaceOnUse">
<stop stop-color="#F8BF3B"/>
<stop offset="0.305" stop-color="#FF8B13"/>
<stop offset="1" stop-color="#EF5F3D"/>
</linearGradient>
<linearGradient id="paint3_linear_6574_15140" x1="49.6793" y1="52.9229" x2="86.1958" y2="53.1428" gradientUnits="userSpaceOnUse">
<stop stop-color="#F8BF3B"/>
<stop offset="0.305" stop-color="#FF8B13"/>
<stop offset="1" stop-color="#EF5F3D"/>
</linearGradient>
<linearGradient id="paint4_linear_6574_15140" x1="49.6793" y1="52.9229" x2="86.1958" y2="53.1428" gradientUnits="userSpaceOnUse">
<stop stop-color="#F8BF3B"/>
<stop offset="0.305" stop-color="#FF8B13"/>
<stop offset="1" stop-color="#EF5F3D"/>
</linearGradient>
<linearGradient id="paint5_linear_6574_15140" x1="49.6793" y1="52.9229" x2="86.1958" y2="53.1428" gradientUnits="userSpaceOnUse">
<stop stop-color="#F8BF3B"/>
<stop offset="0.305" stop-color="#FF8B13"/>
<stop offset="1" stop-color="#EF5F3D"/>
</linearGradient>
<linearGradient id="paint6_linear_6574_15140" x1="49.6793" y1="52.9229" x2="86.1958" y2="53.1428" gradientUnits="userSpaceOnUse">
<stop stop-color="#F8BF3B"/>
<stop offset="0.305" stop-color="#FF8B13"/>
<stop offset="1" stop-color="#EF5F3D"/>
</linearGradient>
<linearGradient id="paint7_linear_6574_15140" x1="49.6793" y1="52.9229" x2="86.1958" y2="53.1428" gradientUnits="userSpaceOnUse">
<stop stop-color="#F8BF3B"/>
<stop offset="0.305" stop-color="#FF8B13"/>
<stop offset="1" stop-color="#EF5F3D"/>
</linearGradient>
</defs>
</svg>
