<svg viewBox="0 0 454 402" fill="none" xmlns="http://www.w3.org/2000/svg">
<g clip-path="url(#clip0_9304_24167)">
<path d="M375.009 73.4752C263.647 40.6771 227.001 138.292 227.001 138.292C227.001 138.292 190.356 40.6771 78.9936 73.4752C-32.3684 106.273 -60.7881 293.845 227.001 490.379C514.79 293.845 486.37 106.273 375.009 73.4752Z" fill="#F8BF3B"/>
<path d="M61.9648 122.769C61.9648 122.769 74.9944 125.61 79.506 112.58C66.0923 109.657 61.9648 122.769 61.9648 122.769Z" fill="#142544"/>
<path d="M149.886 98.421C149.886 98.421 157.024 86.6385 146.999 77.6069C139.65 89.7364 149.886 98.421 149.886 98.421Z" fill="#142544"/>
<path d="M33.2078 252.978C33.2078 252.978 40.3463 241.196 30.3212 232.164C22.9731 244.295 33.2078 252.978 33.2078 252.978Z" fill="#142544"/>
<path d="M118.576 132.028C118.576 132.028 129.943 139.29 138.359 128.603C126.658 121.127 118.576 132.028 118.576 132.028Z" fill="#142544"/>
<path d="M387.297 173.095C387.297 173.095 390.858 186.546 403.966 184.783C400.299 170.936 387.297 173.095 387.297 173.095Z" fill="#142544"/>
<path d="M60.8438 185.002C60.8438 185.002 72.2101 192.264 80.6266 181.577C68.9252 174.101 60.8438 185.002 60.8438 185.002Z" fill="#142544"/>
<path d="M362.154 183.565C362.154 183.565 355.493 195.651 365.869 204.234C372.727 191.792 362.154 183.565 362.154 183.565Z" fill="#142544"/>
<path d="M359.779 324.092C359.779 324.092 353.118 336.178 363.494 344.76C370.352 332.32 359.779 324.092 359.779 324.092Z" fill="#142544"/>
<path d="M357.224 234.447C357.224 234.447 346.264 242.367 352.129 254.79C363.411 246.637 357.224 234.447 357.224 234.447Z" fill="#142544"/>
<path d="M410.914 97.1386C410.914 97.1386 399.024 90.8684 391.461 102.237C403.703 108.691 410.914 97.1386 410.914 97.1386Z" fill="#142544"/>
<path d="M32.2894 293.553C32.2894 293.553 45.3616 290.934 44.7624 277.086C31.3061 279.782 32.2894 293.553 32.2894 293.553Z" fill="#142544"/>
<path d="M69.3658 97.2029C69.3658 97.2029 81.8563 92.3832 79.1137 78.8228C66.2555 83.7844 69.3658 97.2029 69.3658 97.2029Z" fill="#142544"/>
<path d="M22.3879 177.642C22.3879 177.642 43.4563 163.147 32.8681 139.37C11.1787 154.292 22.3879 177.642 22.3879 177.642Z" fill="#142544"/>
<path d="M377.165 149.001C377.165 149.001 352.101 151.695 351.066 177.916C376.868 175.142 377.165 149.001 377.165 149.001Z" fill="#142544"/>
<path d="M353.028 346.986C353.028 346.986 327.964 349.68 326.93 375.901C352.731 373.127 353.028 346.986 353.028 346.986Z" fill="#142544"/>
<path d="M429.737 259.435C429.737 259.435 404.673 262.128 403.639 288.349C429.441 285.576 429.737 259.435 429.737 259.435Z" fill="#142544"/>
<path d="M403.965 195.759C403.965 195.759 416.647 218.596 439.843 208.763C426.786 185.254 403.965 195.759 403.965 195.759Z" fill="#142544"/>
<path d="M43.6672 221.457C43.6672 221.457 64.7356 206.962 54.1474 183.186C32.458 198.107 43.6672 221.457 43.6672 221.457Z" fill="#142544"/>
<path d="M87.45 156.59C87.45 156.59 108.518 142.095 97.9302 118.318C76.2419 133.24 87.45 156.59 87.45 156.59Z" fill="#142544"/>
<path d="M33.2896 297.595C33.2896 297.595 24.1605 239.53 60.6278 186.773C97.0963 134.016 145.966 130.552 159.195 72.7061" stroke="#142544" stroke-width="1.7619" stroke-miterlimit="10" stroke-linecap="round" stroke-linejoin="round"/>
<path d="M71.8335 75.8442C71.8335 75.8442 71.7931 156.052 -0.148438 191.754" stroke="#142544" stroke-width="1.7619" stroke-miterlimit="10" stroke-linecap="round" stroke-linejoin="round"/>
<path d="M413.9 93.9468C413.9 93.9468 338.624 176.659 360.146 248.78C381.669 320.901 340.815 335.976 352.573 386.448" stroke="#142544" stroke-width="1.7619" stroke-miterlimit="10" stroke-linecap="round" stroke-linejoin="round"/>
<path d="M428.014 284.038C428.014 284.038 437.862 229.953 402.59 193.9C367.317 157.847 392.855 121.462 392.855 121.462" stroke="#142544" stroke-width="1.7619" stroke-miterlimit="10" stroke-linecap="round" stroke-linejoin="round"/>
<path d="M65.7482 88.6306L58.2943 85.0782L55.7078 93.2271L48.2539 89.6747C50.6167 95.3542 53.5546 100.064 56.5449 103.895C62.3563 111.339 73.8864 106.061 72.6357 96.5288C71.9918 91.6244 70.6974 86.1612 68.3347 80.4829L65.7482 88.6306Z" fill="#276FD8"/>
<path d="M118.402 112.276L110.949 108.725L108.362 116.872L100.908 113.321C103.271 119.001 106.209 123.71 109.199 127.541C115.011 134.985 126.541 129.707 125.29 120.175C124.646 115.271 123.352 109.808 120.989 104.129L118.402 112.276Z" fill="#276FD8"/>
<path d="M343.49 208.176L340.103 215.995L347.87 218.709L344.485 226.528C349.898 224.049 354.389 220.967 358.041 217.831C365.138 211.734 360.106 199.639 351.019 200.951C346.344 201.627 341.136 202.984 335.723 205.463L343.49 208.176Z" fill="#276FD8"/>
<path d="M368.726 300.198L376.18 303.751L378.766 295.603L386.22 299.154C383.857 293.475 380.919 288.765 377.929 284.935C372.118 277.491 360.588 282.768 361.838 292.3C362.482 297.205 363.776 302.668 366.139 308.346L368.726 300.198Z" fill="#276FD8"/>
<path d="M63.0586 154.34L67.2733 144.606L57.6029 141.229L61.8177 131.494C55.0775 134.579 49.4888 138.416 44.9422 142.321C36.1078 149.91 42.3721 164.968 53.6839 163.334C59.5051 162.494 65.9877 160.803 72.7268 157.718L63.0586 154.34Z" fill="#276FD8"/>
<path d="M394.911 139.78L404.19 144.201L407.41 134.057L416.69 138.478C413.748 131.408 410.091 125.545 406.368 120.776C399.133 111.508 384.779 118.08 386.336 129.947C387.137 136.053 388.749 142.854 391.69 149.923L394.911 139.78Z" fill="#276FD8"/>
<path d="M54.5625 255.994L58.7772 246.259L49.1068 242.882L53.3216 233.147C46.5814 236.233 40.9927 240.069 36.4461 243.974C27.6117 251.563 33.876 266.621 45.1878 264.987C51.009 264.147 57.4916 262.456 64.2307 259.371L54.5625 255.994Z" fill="#276FD8"/>
<path d="M407.97 237.343L411.551 247.353L420.666 242.569L424.247 252.58C426.933 245.399 428.299 238.539 428.881 232.407C430.012 220.487 415.432 214.485 408.535 224.032C404.986 228.945 401.541 234.948 398.855 242.13L407.97 237.343Z" fill="#276FD8"/>
<path d="M8.30222 182.367C6.68593 183.347 5.46581 184.687 6.89438 186.185C8.32295 187.684 9.59983 186.404 10.534 184.708C10.0516 186.601 10.092 188.452 12.1121 188.452C14.1322 188.452 14.1726 186.6 13.6902 184.708C14.6244 186.404 15.9013 187.684 17.3298 186.185C18.7584 184.687 17.5383 183.347 15.922 182.367C17.726 182.873 19.4907 182.831 19.4907 180.712C19.4907 178.593 17.7249 178.55 15.9209 179.056C17.5372 178.076 18.7573 176.737 17.3287 175.238C15.9002 173.74 14.6233 175.02 13.6891 176.715C14.1715 174.824 14.1311 172.972 12.1121 172.972C10.092 172.972 10.0516 174.824 10.534 176.715C9.59983 175.02 8.32295 173.74 6.89438 175.238C5.46581 176.737 6.68593 178.076 8.30222 179.056C6.49822 178.55 4.73242 178.593 4.73242 180.712C4.73242 182.831 6.49822 182.873 8.30222 182.367Z" fill="white"/>
<path d="M14.1159 180.711C14.1159 181.872 13.2188 182.813 12.1122 182.813C11.0056 182.813 10.1074 181.872 10.1074 180.711C10.1074 179.55 11.0045 178.609 12.1122 178.609C13.2188 178.609 14.1159 179.55 14.1159 180.711Z" fill="#276FD8"/>
<path d="M60.4263 179.57C58.8101 180.55 57.5899 181.89 59.0185 183.388C60.4471 184.887 61.7229 183.607 62.6582 181.912C62.1758 183.803 62.2162 185.655 64.2362 185.655C66.2563 185.655 66.2967 183.803 65.8143 181.912C66.7485 183.607 68.0254 184.887 69.454 183.388C70.8825 181.89 69.6624 180.55 68.0461 179.57C69.8501 180.076 71.6148 180.034 71.6148 177.915C71.6148 175.796 69.849 175.754 68.045 176.26C69.6613 175.28 70.8814 173.94 69.4529 172.442C68.0243 170.943 66.7474 172.223 65.8132 173.918C66.2956 172.027 66.2552 170.175 64.2352 170.175C62.2151 170.175 62.1747 172.027 62.6571 173.918C61.7229 172.223 60.446 170.943 59.0174 172.442C57.5888 173.94 58.809 175.28 60.4253 176.26C58.6213 175.754 56.8555 175.796 56.8555 177.915C56.8566 180.034 58.6224 180.076 60.4263 179.57Z" fill="white"/>
<path d="M66.239 177.916C66.239 179.076 65.3419 180.017 64.2353 180.017C63.1286 180.017 62.2305 179.076 62.2305 177.916C62.2305 176.755 63.1276 175.812 64.2353 175.812C65.3408 175.812 66.239 176.754 66.239 177.916Z" fill="#276FD8"/>
<path d="M114.583 136.093C112.967 137.073 111.747 138.412 113.176 139.911C114.604 141.409 115.88 140.13 116.815 138.434C116.333 140.325 116.373 142.178 118.393 142.178C120.413 142.178 120.454 140.325 119.971 138.434C120.906 140.13 122.183 141.409 123.611 139.911C125.04 138.412 123.82 137.073 122.203 136.093C124.006 136.599 125.772 136.557 125.772 134.437C125.772 132.318 124.006 132.276 122.203 132.782C123.82 131.802 125.04 130.463 123.611 128.964C122.183 127.465 120.906 128.745 119.971 130.441C120.454 128.55 120.413 126.697 118.393 126.697C116.373 126.697 116.333 128.55 116.815 130.441C115.881 128.745 114.604 127.465 113.176 128.964C111.747 130.463 112.967 131.802 114.583 132.782C112.779 132.276 111.014 132.318 111.014 134.437C111.015 136.557 112.779 136.598 114.583 136.093Z" fill="white"/>
<path d="M120.397 134.437C120.397 135.598 119.5 136.54 118.392 136.54C117.286 136.54 116.389 135.599 116.389 134.437C116.389 133.276 117.286 132.335 118.392 132.335C119.5 132.334 120.397 133.275 120.397 134.437Z" fill="#276FD8"/>
<path d="M147.584 101.461C145.968 102.441 144.748 103.78 146.176 105.279C147.605 106.777 148.881 105.497 149.816 103.802C149.334 105.694 149.374 107.545 151.394 107.545C153.414 107.545 153.455 105.693 152.972 103.802C153.906 105.497 155.183 106.777 156.612 105.279C158.041 103.78 156.82 102.441 155.204 101.461C157.008 101.967 158.773 101.924 158.773 99.8051C158.773 97.686 157.007 97.6437 155.203 98.1497C156.819 97.1697 158.039 95.8303 156.611 94.3317C155.182 92.8331 153.905 94.113 152.971 95.8085C153.454 93.9161 153.413 92.0649 151.394 92.0649C149.374 92.0649 149.334 93.9173 149.816 95.8085C148.882 94.113 147.605 92.8331 146.176 94.3317C144.748 95.8303 145.968 97.1697 147.584 98.1497C145.78 97.6437 144.016 97.686 144.016 99.8051C144.016 101.924 145.78 101.967 147.584 101.461Z" fill="white"/>
<path d="M153.397 99.805C153.397 100.966 152.5 101.908 151.393 101.908C150.287 101.908 149.389 100.967 149.389 99.805C149.389 98.6442 150.286 97.7031 151.393 97.7031C152.5 97.702 153.397 98.6442 153.397 99.805Z" fill="#276FD8"/>
<path d="M24.6538 285.267C23.0375 286.247 21.8174 287.586 23.2459 289.085C24.6734 290.583 25.9503 289.303 26.8856 287.608C26.4032 289.499 26.4436 291.351 28.4637 291.351C30.4837 291.351 30.5241 289.499 30.0418 287.608C30.9759 289.303 32.2528 290.583 33.6814 289.085C35.11 287.586 33.8898 286.247 32.2736 285.267C34.0775 285.773 35.8423 285.73 35.8423 283.611C35.8423 281.492 34.0765 281.45 32.2725 281.956C33.8887 280.976 35.1089 279.636 33.6803 278.138C32.2517 276.639 30.9749 277.919 30.0407 279.615C30.523 277.722 30.4827 275.871 28.4626 275.871C26.4425 275.871 26.4021 277.723 26.8845 279.615C25.9503 277.919 24.6734 276.639 23.2448 278.138C21.8163 279.636 23.0364 280.976 24.6527 281.956C22.8487 281.45 21.084 281.492 21.084 283.611C21.084 285.73 22.8498 285.772 24.6538 285.267Z" fill="white"/>
<path d="M30.4666 283.611C30.4666 284.772 29.5696 285.713 28.4618 285.713C27.3552 285.713 26.457 284.772 26.457 283.611C26.457 282.45 27.3541 281.509 28.4618 281.509C29.5696 281.508 30.4666 282.449 30.4666 283.611Z" fill="#276FD8"/>
<path d="M407.106 206.169C405.49 207.149 404.27 208.488 405.698 209.987C407.127 211.486 408.403 210.206 409.338 208.51C408.855 210.401 408.896 212.254 410.916 212.254C412.936 212.254 412.976 210.401 412.494 208.51C413.428 210.206 414.705 211.486 416.134 209.987C417.562 208.488 416.342 207.149 414.726 206.169C416.529 206.675 418.295 206.633 418.295 204.514C418.295 202.395 416.529 202.352 414.725 202.858C416.341 201.878 417.561 200.539 416.133 199.04C414.704 197.542 413.427 198.822 412.493 200.517C412.975 198.625 412.935 196.773 410.915 196.773C408.895 196.773 408.854 198.626 409.337 200.517C408.403 198.822 407.126 197.542 405.697 199.04C404.269 200.539 405.489 201.878 407.105 202.858C405.301 202.352 403.535 202.395 403.535 204.514C403.537 206.633 405.303 206.674 407.106 206.169Z" fill="white"/>
<path d="M412.92 204.513C412.92 205.674 412.022 206.615 410.916 206.615C409.809 206.615 408.912 205.674 408.912 204.513C408.912 203.352 409.809 202.41 410.916 202.41C412.022 202.41 412.92 203.351 412.92 204.513Z" fill="#276FD8"/>
<path d="M402.16 108.354C400.543 109.334 399.323 110.674 400.752 112.172C402.18 113.671 403.456 112.391 404.391 110.695C403.909 112.588 403.949 114.439 405.97 114.439C407.99 114.439 408.03 112.587 407.548 110.695C408.482 112.391 409.759 113.671 411.187 112.172C412.616 110.674 411.396 109.334 409.779 108.354C411.583 108.86 413.348 108.818 413.348 106.699C413.348 104.58 411.582 104.537 409.778 105.043C411.395 104.063 412.615 102.724 411.186 101.225C409.758 99.7267 408.481 101.007 407.547 102.702C408.029 100.81 407.989 98.9585 405.968 98.9585C403.948 98.9585 403.908 100.811 404.39 102.702C403.456 101.007 402.179 99.7267 400.751 101.225C399.322 102.724 400.542 104.063 402.159 105.043C400.355 104.537 398.59 104.58 398.59 106.699C398.591 108.818 400.356 108.86 402.16 108.354Z" fill="white"/>
<path d="M407.973 106.699C407.973 107.859 407.076 108.8 405.97 108.8C404.863 108.8 403.965 107.859 403.965 106.699C403.965 105.538 404.862 104.597 405.97 104.597C407.076 104.597 407.973 105.538 407.973 106.699Z" fill="#276FD8"/>
<path d="M350.85 336.081C349.234 337.061 348.014 338.401 349.442 339.899C350.871 341.398 352.148 340.118 353.082 338.422C352.6 340.314 352.64 342.166 354.66 342.166C356.68 342.166 356.721 340.314 356.238 338.422C357.172 340.118 358.449 341.398 359.878 339.899C361.306 338.401 360.086 337.061 358.47 336.081C360.274 336.587 362.039 336.545 362.039 334.426C362.039 332.307 360.273 332.264 358.469 332.77C360.085 331.79 361.305 330.451 359.877 328.952C358.448 327.454 357.171 328.734 356.237 330.429C356.719 328.538 356.679 326.686 354.659 326.686C352.639 326.686 352.599 328.538 353.081 330.429C352.147 328.734 350.87 327.454 349.441 328.952C348.013 330.451 349.233 331.79 350.849 332.77C349.045 332.264 347.279 332.307 347.279 334.426C347.28 336.545 349.046 336.587 350.85 336.081Z" fill="white"/>
<path d="M356.664 334.425C356.664 335.586 355.767 336.528 354.66 336.528C353.553 336.528 352.656 335.587 352.656 334.425C352.656 333.264 353.553 332.323 354.66 332.323C355.765 332.323 356.664 333.264 356.664 334.425Z" fill="#276FD8"/>
<path d="M362.001 266.767C360.384 267.747 359.164 269.086 360.593 270.585C362.021 272.083 363.297 270.803 364.232 269.108C363.75 270.999 363.79 272.851 365.81 272.851C367.831 272.851 367.871 270.999 367.389 269.108C368.323 270.803 369.6 272.083 371.028 270.585C372.457 269.086 371.237 267.747 369.62 266.767C371.423 267.273 373.189 267.23 373.189 265.111C373.189 262.992 371.423 262.95 369.619 263.456C371.236 262.476 372.456 261.136 371.027 259.638C369.599 258.139 368.322 259.419 367.387 261.115C367.87 259.222 367.829 257.371 365.809 257.371C363.789 257.371 363.749 259.223 364.231 261.115C363.297 259.419 362.02 258.139 360.592 259.638C359.163 261.136 360.383 262.476 361.999 263.456C360.195 262.95 358.43 262.992 358.43 265.111C358.431 267.23 360.197 267.273 362.001 266.767Z" fill="white"/>
<path d="M367.814 265.111C367.814 266.272 366.917 267.213 365.81 267.213C364.704 267.213 363.807 266.272 363.807 265.111C363.807 263.95 364.704 263.008 365.81 263.008C366.916 263.009 367.814 263.95 367.814 265.111Z" fill="#276FD8"/>
<path d="M378.34 160.78C376.724 161.76 375.504 163.1 376.933 164.598C378.361 166.097 379.637 164.817 380.572 163.122C380.09 165.014 380.13 166.865 382.15 166.865C384.17 166.865 384.211 165.013 383.728 163.122C384.663 164.817 385.939 166.097 387.368 164.598C388.797 163.1 387.576 161.76 385.96 160.78C387.764 161.286 389.529 161.244 389.529 159.125C389.529 157.006 387.763 156.964 385.959 157.47C387.575 156.49 388.796 155.15 387.367 153.652C385.938 152.153 384.662 153.433 383.727 155.128C384.21 153.236 384.169 151.385 382.149 151.385C380.129 151.385 380.089 153.237 380.571 155.128C379.637 153.433 378.36 152.153 376.931 153.652C375.503 155.15 376.723 156.49 378.339 157.47C376.535 156.964 374.77 157.006 374.77 159.125C374.77 161.244 376.536 161.286 378.34 160.78Z" fill="white"/>
<path d="M384.154 159.124C384.154 160.285 383.257 161.227 382.15 161.227C381.044 161.227 380.146 160.286 380.146 159.124C380.146 157.964 381.044 157.022 382.15 157.022C383.256 157.021 384.154 157.964 384.154 159.124Z" fill="#276FD8"/>
<path d="M165.301 198.382C165.301 198.382 164.976 231.101 191.62 238.455C178.531 222.764 189.53 209.613 189.53 209.613" stroke="#142544" stroke-width="1.7619" stroke-miterlimit="10" stroke-linecap="round" stroke-linejoin="round"/>
<path d="M163.539 174.043L153.299 169.163L149.746 180.358L139.506 175.478C142.752 183.28 146.787 189.751 150.896 195.014C158.879 205.24 174.72 197.989 173.001 184.893C172.116 178.155 170.339 170.651 167.093 162.849L163.539 174.043Z" fill="#276FD8"/>
<path d="M201.697 196.835L197.745 185.789L187.687 191.069L183.735 180.022C180.771 187.947 179.264 195.515 178.621 202.285C177.373 215.439 193.463 222.06 201.074 211.526C204.991 206.105 208.792 199.48 211.756 191.555L201.697 196.835Z" fill="#276FD8"/>
<path d="M164.414 221.498C164.414 221.498 161.523 207.87 148.346 208.917C151.322 222.945 164.414 221.498 164.414 221.498Z" fill="#142544"/>
<path d="M167.566 218.075C167.566 218.075 178.353 209.899 172.224 197.617C161.119 206.035 167.566 218.075 167.566 218.075Z" fill="#142544"/>
<path d="M306.776 401.247C306.776 401.247 311.627 430.943 290.654 449.682C266.754 420.155 270.616 389.969 291.184 375.737C311.75 361.506 310.826 337.329 310.826 337.329" stroke="#142544" stroke-width="1.7619" stroke-miterlimit="10" stroke-linecap="round" stroke-linejoin="round"/>
<path d="M305.678 384.115L295.438 379.236L291.885 390.43L281.645 385.551C284.89 393.353 288.926 399.823 293.035 405.086C301.019 415.313 316.86 408.061 315.14 394.966C314.255 388.227 312.477 380.723 309.232 372.921L305.678 384.115Z" fill="#276FD8"/>
<path d="M325.779 321.071L321.827 310.024L311.769 315.304L307.818 304.258C304.853 312.182 303.345 319.752 302.703 326.52C301.455 339.674 317.545 346.296 325.156 335.761C329.073 330.34 332.874 323.715 335.838 315.791L325.779 321.071Z" fill="#276FD8"/>
<path d="M160.699 397.559C152.525 460.28 156.837 540.765 165.016 610.061L207.22 621.543L228.985 476.301L160.699 397.559Z" fill="#F19183"/>
<path d="M295.759 398.741L227.318 476.303L247.198 608.966L289.904 621.428C298.977 549.87 304.383 464.919 295.759 398.741Z" fill="#F19183"/>
<path d="M293.498 389.105C293.388 388.836 293.613 389.371 293.498 389.105V389.105Z" fill="#FCBBA7"/>
<path d="M290.421 380.334C287.453 373.049 285.046 365.479 284.308 357.594C283.235 346.13 283.423 334.556 285.049 323.08C295.47 249.518 286.194 212.166 286.194 212.166L243.407 198.381C233.6 202.436 222.691 202.436 212.884 198.381L164.8 211.527C164.8 211.527 160.82 249.518 171.242 323.08C172.407 331.297 172.834 339.564 172.588 347.806C172.25 359.166 169.991 370.455 165.71 380.896C147.045 426.429 170.235 472.457 213.128 475.76C218.225 476.152 223.234 476.306 228.146 476.271C233.058 476.306 238.068 476.152 243.164 475.76C286.21 472.445 309.205 426.453 290.421 380.334Z" fill="#FCBBA7"/>
<path d="M162.793 389.106C162.679 389.372 162.903 388.837 162.793 389.106V389.106Z" fill="#FCBBA7"/>
<path d="M296.423 224.412C307.125 209.996 329.101 187.18 357.236 146.008C360.061 141.872 362.301 137.234 363.316 132.259C367.991 109.331 351.349 102.722 335.683 113.238C319.52 124.089 288.232 170.412 270.036 198.351C263.706 208.071 261.181 223.065 270.751 229.214C279.241 234.67 290.305 232.654 296.423 224.412Z" fill="#FCBBA7"/>
<path d="M192.385 233.903C194.154 223.569 188.286 213.499 178.697 210.487C167.944 207.11 156.685 213.837 154.004 225.27C149.144 245.991 145.879 276.764 144.654 300.281L189.529 325.305C202.03 279.661 189.339 251.695 192.385 233.903Z" fill="#F19183"/>
<path d="M144.691 330.655C148.17 354.546 174.37 362.788 187.468 332.31C188.23 329.924 188.901 327.599 189.53 325.304L144.655 300.28C143.937 314.056 143.917 325.346 144.691 330.655Z" fill="#FCBBA7"/>
<path d="M118.393 432.453C125.194 378.022 136.322 307.184 160.383 314.751C184.445 322.317 156.59 387.897 133.755 437.284L118.393 432.453Z" fill="#FCBBA7"/>
<path d="M248.124 198.382L278.124 209.567C278.124 209.567 288.911 245.498 288.911 272.667L308.625 509.483C250.179 509.483 231.571 509.483 227.482 509.483C227.482 509.483 227.189 509.483 226.518 509.483C222.43 509.483 203.821 509.483 145.375 509.483L165.089 272.667C165.089 245.498 177.236 207.592 177.236 207.592L208.163 199.671C208.163 199.671 208.163 226.842 228.144 226.842C251.442 226.843 248.124 198.382 248.124 198.382Z" fill="white"/>
<path d="M285.183 174.86L248.125 198.383L289.957 285.225L310.585 233.724C313.721 191.39 285.183 174.86 285.183 174.86Z" fill="white"/>
<path d="M184.927 206.025L163.229 210.45C153.849 212.546 147.375 220.604 146.199 227.645L134.121 299.926H176.137L184.927 206.025Z" fill="white"/>
<path d="M195.154 203.004C195.154 203.004 193.568 236.527 228.389 236.527C263.211 236.527 261.051 201.662 257.132 192.664" stroke="#FF8B13" stroke-width="3" stroke-miterlimit="10" stroke-linecap="round" stroke-linejoin="round"/>
<path d="M228.144 227.355C241.009 227.355 251.438 216.415 251.438 202.919V136.579H204.852V202.919C204.852 216.415 215.28 227.355 228.144 227.355Z" fill="#FCBBA7"/>
<path d="M204.856 166.257C204.856 166.257 220.615 189.426 251.442 189.426C251.442 173.244 251.442 163.003 251.442 163.003L204.852 160.296L204.856 166.257Z" fill="#F19183"/>
<path d="M188.837 126.551C181.868 130.511 183.262 150.919 200.823 153.051L202.496 130.357C202.496 130.357 195.806 122.591 188.837 126.551Z" fill="#FCBBA7"/>
<path d="M199.647 136.932C199.647 136.932 195.678 128.978 191.84 132.016C188.003 135.052 190.471 143.581 196.425 144.303C195.412 137.814 199.647 136.932 199.647 136.932Z" fill="#F19183"/>
<path d="M267.943 126.551C274.912 130.511 273.517 150.919 255.956 153.051L254.283 130.357C254.283 130.357 260.974 122.591 267.943 126.551Z" fill="#FCBBA7"/>
<path d="M257.131 136.932C257.131 136.932 261.1 128.978 264.937 132.016C268.774 135.052 266.306 143.581 260.351 144.303C261.365 137.814 257.131 136.932 257.131 136.932Z" fill="#F19183"/>
<path d="M258.362 95.9375C245.428 73.6981 211.271 73.832 198.415 95.9375C193.96 103.597 192.339 112.683 193.134 121.617C194.782 140.161 197.061 180.687 228.388 181.348C259.716 180.687 261.995 140.161 263.643 121.617C264.438 112.682 262.818 103.599 258.362 95.9375Z" fill="#FCBBA7"/>
<path d="M228.391 122.646C228.391 122.646 242.131 150.272 228.391 150.272V122.646Z" fill="#F19183"/>
<path d="M208.408 120.832C208.408 120.832 211.348 117.291 214.288 120.832" stroke="#142544" stroke-width="2.0222" stroke-miterlimit="10" stroke-linecap="round" stroke-linejoin="round"/>
<path d="M241.617 120.832C241.617 120.832 244.557 117.291 247.497 120.832" stroke="#142544" stroke-width="2.0222" stroke-miterlimit="10" stroke-linecap="round" stroke-linejoin="round"/>
<path d="M247.499 129.541C247.499 129.541 244.559 133.082 241.619 129.541" stroke="#142544" stroke-width="2.0222" stroke-miterlimit="10" stroke-linecap="round" stroke-linejoin="round"/>
<path d="M214.288 129.541C214.288 129.541 211.348 133.082 208.408 129.541" stroke="#142544" stroke-width="2.0222" stroke-miterlimit="10" stroke-linecap="round" stroke-linejoin="round"/>
<path d="M198.82 136.458C198.82 138.654 201.737 140.433 205.336 140.433C208.934 140.433 211.851 138.654 211.851 136.458C211.851 134.264 208.934 132.483 205.336 132.483C201.737 132.483 198.82 134.264 198.82 136.458Z" fill="#F19183"/>
<path d="M244.926 136.458C244.926 138.654 247.843 140.433 251.441 140.433C255.039 140.433 257.956 138.654 257.956 136.458C257.956 134.264 255.039 132.483 251.441 132.483C247.843 132.483 244.926 134.264 244.926 136.458Z" fill="#F19183"/>
<path d="M220.818 156.696C220.818 156.696 227.538 161.353 235.96 156.696" stroke="#142544" stroke-width="2.0222" stroke-miterlimit="10" stroke-linecap="round" stroke-linejoin="round"/>
<path d="M228.389 67.9062C290.5 67.9062 262.152 136.46 262.152 136.46C262.152 136.46 262.188 113.639 255.928 95.1108C248.998 99.5664 222.393 105.43 201.155 95.1108C193.711 111.058 194.824 129.541 194.824 137.893C194.824 137.893 164.266 67.9062 228.389 67.9062Z" fill="#142544"/>
<mask id="mask0_9304_24167" style="mask-type:luminance" maskUnits="userSpaceOnUse" x="187" y="67" width="82" height="71">
<path d="M228.389 67.9062C290.5 67.9062 262.152 136.46 262.152 136.46C262.152 136.46 262.188 113.639 255.928 95.1108C248.998 99.5664 222.393 105.43 201.155 95.1108C193.711 111.058 194.824 129.541 194.824 137.893C194.824 137.893 164.266 67.9062 228.389 67.9062Z" fill="white"/>
</mask>
<g mask="url(#mask0_9304_24167)">
<path d="M209.345 67.9754C206.453 70.7413 204.478 74.6177 203.122 78.6235C201.339 79.1524 191.897 82.351 186.706 92.1278L186.238 93.0093L187.918 93.9905L188.386 93.109C192.4 85.5474 199.356 82.1747 202.389 81.0081C201.936 82.6372 201.575 84.2526 201.289 85.7958C189.322 92.896 186.698 116.886 186.591 117.904L186.486 118.906L188.398 119.125L188.503 118.123C188.526 117.894 190.911 96.1668 200.843 88.5125C200.218 92.8949 200.181 96.1931 200.18 96.5205L200.174 97.5291L202.097 97.5417L202.103 96.5331C202.104 96.445 202.151 92.2904 203.043 87.0746L203.1 87.0414L203.06 86.9681C203.426 84.8502 203.932 82.5605 204.63 80.2995L204.82 80.2491L204.746 79.94C206.011 75.9652 207.877 72.1094 210.643 69.4649L211.352 68.786L210.058 67.2954L209.345 67.9754Z" fill="#214272"/>
<path d="M216.395 68.3039C216.14 68.8969 210.165 83.0286 214.57 99.9881L214.823 100.961L216.678 100.431L216.425 99.458C212.208 83.2244 218.087 69.2747 218.147 69.1362L218.542 68.218L216.791 67.3857L216.395 68.3039Z" fill="#214272"/>
<path d="M227.447 66.8734L227.113 101.84L229.036 101.86L229.37 66.8936L227.447 66.8734Z" fill="#214272"/>
<path d="M237.753 67.0596L236.273 68.3406L236.881 69.1191C236.963 69.2244 244.994 79.8141 239.892 99.4593L239.639 100.432L241.494 100.962L241.747 99.9893C247.128 79.2714 238.726 68.2925 238.364 67.8358L237.753 67.0596Z" fill="#214272"/>
<path d="M255.59 85.2997L255.412 85.1417C254.982 83.6374 254.488 82.2201 253.949 80.915C257.241 81.9545 265.12 85.1933 267.7 92.9517L268.016 93.9042L269.832 93.2391L269.516 92.2866C265.889 81.3798 253.496 78.662 252.862 78.5304C250.136 73.0009 246.998 69.8205 246.763 69.5881L246.064 68.8955L244.744 70.3632L245.444 71.0547C245.518 71.1279 251.066 76.7273 253.665 86.1183L253.616 86.1789L253.698 86.2522C254.528 89.2963 255.053 92.7285 254.974 96.5041L254.954 97.5127L256.876 97.5562L256.897 96.5476C256.952 93.8997 256.715 91.4348 256.313 89.128C259.329 93.1418 264.927 102.718 266.702 120.151L266.805 121.153L268.717 120.939L268.614 119.936C266.065 94.9037 256.018 85.6809 255.59 85.2997Z" fill="#214272"/>
</g>
<path d="M334.967 16.0679C353.262 67.4992 378.679 138.646 354.042 143.784C329.405 148.922 324.372 79.7145 322.494 24.8601L334.967 16.0679Z" fill="#FCBBA7"/>
<path d="M273.781 70.5864L314.261 52.9928L288.505 0.189941L256.391 14.1477L273.781 70.5864Z" fill="#0764A7"/>
<path d="M295.867 44.9602C291.16 42.9155 287.191 38.9911 285.092 33.6745C280.892 23.0402 285.722 10.8032 295.86 6.39672C305.997 1.99143 317.663 7.05843 321.863 17.6927C326.064 28.327 321.233 40.5641 311.095 44.9705C306.026 47.172 300.574 47.0048 295.867 44.9602ZM309.355 10.7917C305.719 9.21185 301.509 9.08477 297.593 10.786C289.761 14.1896 286.031 23.6389 289.276 31.8554C292.521 40.0706 301.529 43.9837 309.361 40.5801C317.193 37.1765 320.924 27.7271 317.678 19.5107C316.055 15.4031 312.992 12.3716 309.355 10.7917Z" fill="#0764A7"/>
<path d="M269.844 53.0524L248.133 41.6649L241.561 32.6963L236.023 48.5407L245.829 46.7948L273.782 70.5866L269.844 53.0524Z" fill="#0764A7"/>
<path d="M335.437 17.426C334.054 12.5021 329.878 8.94169 324.989 8.7196C317.489 8.37844 307.867 9.21989 309.893 16.1369C305.828 17.1879 306.982 22.0179 310.676 21.086C306.982 22.0179 308.438 26.6098 311.453 25.7317C308.438 26.6098 310.126 31.2051 313.076 30.4942C311.593 32.3763 314.16 34.4152 318.433 33.0929C322.705 31.7695 337.987 26.5079 337.987 26.5079L335.437 17.426Z" fill="#FCBBA7"/>
<path d="M239.295 39.1824C239.295 39.1824 204.761 30.8446 211.349 87.3956H243.022C243.022 87.3956 222.563 62.6616 236.025 48.5402L239.295 39.1824Z" fill="url(#paint0_linear_9304_24167)"/>
<path d="M124.209 391.42C124.209 391.42 123.496 410.423 140.497 422.507" stroke="#142544" stroke-width="1.7619" stroke-miterlimit="10" stroke-linecap="round" stroke-linejoin="round"/>
<path d="M139.506 331.562C139.506 331.562 140.85 356.836 152.914 393.507" stroke="#142544" stroke-width="1.7619" stroke-miterlimit="10" stroke-linecap="round" stroke-linejoin="round"/>
<path d="M89.5625 343.389C89.5625 343.389 99.7917 360.623 98.3959 405.171C97 449.72 119.681 451.554 119.681 451.554C119.681 451.554 127.081 454.384 132.352 447.476" stroke="#142544" stroke-width="1.7619" stroke-miterlimit="10" stroke-linecap="round" stroke-linejoin="round"/>
<path d="M115.792 372.922C115.792 372.922 114.22 399.301 98.8535 419.397" stroke="#142544" stroke-width="1.7619" stroke-miterlimit="10" stroke-linecap="round" stroke-linejoin="round"/>
<path d="M88.8051 322.263L78.565 317.384L75.0116 328.578L64.7715 323.699C68.0171 331.501 72.053 337.972 76.1619 343.234C84.1451 353.461 99.986 346.21 98.2671 333.114C97.382 326.376 95.6042 318.871 92.3585 311.069L88.8051 322.263Z" fill="#276FD8"/>
<path d="M129.123 358.104L125.171 347.057L115.113 352.337L111.161 341.291C108.197 349.216 106.689 356.785 106.047 363.553C104.799 376.707 120.888 383.329 128.499 372.794C132.416 367.374 136.217 360.748 139.182 352.824L129.123 358.104Z" fill="#276FD8"/>
<path d="M300.102 367.636C300.102 367.636 320.205 372.019 327.165 351.916C306.47 347.404 300.102 367.636 300.102 367.636Z" fill="#142544"/>
<path d="M141.275 338.866C141.275 338.866 138.566 352.534 150.988 357.267C153.775 343.195 141.275 338.866 141.275 338.866Z" fill="#142544"/>
<path d="M107.322 404.144C107.322 404.144 127.426 408.528 134.385 388.425C113.69 383.913 107.322 404.144 107.322 404.144Z" fill="#142544"/>
<path d="M97.9233 390.339C97.9233 390.339 103.05 364.461 79.5352 355.503C74.2575 382.143 97.9233 390.339 97.9233 390.339Z" fill="#142544"/>
<path d="M302.966 353.694C301.35 354.674 300.13 356.014 301.558 357.512C302.987 359.011 304.263 357.731 305.198 356.036C304.716 357.927 304.756 359.779 306.776 359.779C308.796 359.779 308.837 357.927 308.354 356.036C309.288 357.731 310.565 359.011 311.994 357.512C313.422 356.014 312.202 354.674 310.586 353.694C312.389 354.2 314.155 354.158 314.155 352.039C314.155 349.92 312.389 349.878 310.586 350.384C312.202 349.404 313.422 348.064 311.994 346.566C310.565 345.067 309.288 346.347 308.354 348.042C308.837 346.151 308.796 344.299 306.776 344.299C304.756 344.299 304.716 346.151 305.198 348.042C304.264 346.347 302.987 345.067 301.558 346.566C300.13 348.064 301.35 349.404 302.966 350.384C301.162 349.878 299.396 349.92 299.396 352.039C299.398 354.158 301.163 354.2 302.966 353.694Z" fill="white"/>
<path d="M308.78 352.038C308.78 353.199 307.883 354.14 306.775 354.14C305.669 354.14 304.771 353.199 304.771 352.038C304.771 350.878 305.669 349.937 306.775 349.937C307.883 349.937 308.78 350.878 308.78 352.038Z" fill="#276FD8"/>
<path d="M97.096 385.94C95.4798 386.92 94.2596 388.259 95.6882 389.758C97.1168 391.256 98.3926 389.976 99.3279 388.281C98.8455 390.172 98.8859 392.024 100.906 392.024C102.926 392.024 102.966 390.172 102.484 388.281C103.418 389.976 104.695 391.256 106.124 389.758C107.552 388.259 106.332 386.92 104.716 385.94C106.519 386.446 108.285 386.403 108.285 384.284C108.285 382.165 106.519 382.123 104.716 382.629C106.332 381.649 107.552 380.309 106.124 378.811C104.695 377.312 103.418 378.592 102.484 380.288C102.966 378.396 102.926 376.544 100.906 376.544C98.8859 376.544 98.8455 378.396 99.3279 380.288C98.3937 378.592 97.1168 377.312 95.6882 378.811C94.2596 380.309 95.4798 381.649 97.096 382.629C95.292 382.123 93.5273 382.165 93.5273 384.284C93.5273 386.403 95.2931 386.444 97.096 385.94Z" fill="white"/>
<path d="M100.905 386.387C102.012 386.387 102.91 385.445 102.91 384.284C102.91 383.122 102.012 382.181 100.905 382.181C99.798 382.181 98.9004 383.122 98.9004 384.284C98.9004 385.445 99.798 386.387 100.905 386.387Z" fill="#276FD8"/>
<path d="M144.537 377.394C142.92 378.374 141.7 379.713 143.129 381.212C144.557 382.71 145.834 381.43 146.768 379.735C146.286 381.626 146.326 383.478 148.346 383.478C150.367 383.478 150.407 381.626 149.925 379.735C150.859 381.43 152.136 382.71 153.564 381.212C154.993 379.713 153.773 378.374 152.156 377.394C153.96 377.9 155.725 377.857 155.725 375.738C155.725 373.619 153.959 373.577 152.156 374.083C153.773 373.103 154.993 371.763 153.564 370.265C152.136 368.766 150.859 370.046 149.925 371.742C150.407 369.85 150.367 367.998 148.346 367.998C146.326 367.998 146.286 369.85 146.768 371.742C145.834 370.046 144.557 368.766 143.129 370.265C141.7 371.763 142.92 373.103 144.537 374.083C142.733 373.577 140.967 373.619 140.967 375.738C140.967 377.857 142.733 377.9 144.537 377.394Z" fill="white"/>
<path d="M150.35 375.738C150.35 376.898 149.453 377.841 148.346 377.841C147.239 377.841 146.342 376.9 146.342 375.738C146.342 374.577 147.239 373.636 148.346 373.636C149.453 373.635 150.35 374.577 150.35 375.738Z" fill="#276FD8"/>
<path d="M284.893 21.7455C280.252 22.2481 280.258 26.4794 280.258 26.4794C280.258 26.4794 277.504 23.3884 273.79 26.3512C270.076 29.314 271.663 36.7931 285.237 39.6872C293.253 27.8371 289.535 21.2429 284.893 21.7455Z" fill="#FF8B13"/>
</g>
<defs>
<linearGradient id="paint0_linear_9304_24167" x1="226.22" y1="37.411" x2="226.892" y2="86.0105" gradientUnits="userSpaceOnUse">
<stop stop-color="#BCDBFE"/>
<stop offset="1" stop-color="white" stop-opacity="0"/>
</linearGradient>
<clipPath id="clip0_9304_24167">
<rect width="454" height="402" fill="white"/>
</clipPath>
</defs>
</svg>
