<svg width="24" height="24" viewBox="0 0 24 24" fill="none" xmlns="http://www.w3.org/2000/svg">
<path d="M17.967 20.6782H15.0903C14.8995 20.6782 14.7166 20.6024 14.5817 20.4675C14.4469 20.3327 14.3711 20.1497 14.3711 19.959C14.3711 19.7683 14.4469 19.5853 14.5817 19.4505C14.7166 19.3156 14.8995 19.2398 15.0903 19.2398H17.967C18.2517 19.2646 18.535 19.1788 18.7582 19.0002C18.9814 18.8217 19.1273 18.5641 19.1656 18.2809V6.32338C19.1273 6.04016 18.9814 5.78257 18.7582 5.60404C18.535 5.4255 18.2517 5.33971 17.967 5.36447H15.0903C14.8995 5.36447 14.7166 5.2887 14.5817 5.15383C14.4469 5.01896 14.3711 4.83603 14.3711 4.64529C14.3711 4.45456 14.4469 4.27163 14.5817 4.13676C14.7166 4.00189 14.8995 3.92612 15.0903 3.92612H17.967C18.2995 3.91197 18.6315 3.96353 18.9441 4.07785C19.2567 4.19216 19.5436 4.36699 19.7885 4.59232C20.0335 4.81765 20.2316 5.08907 20.3715 5.39104C20.5114 5.69301 20.5904 6.01961 20.604 6.35214V18.2521C20.5904 18.5847 20.5114 18.9113 20.3715 19.2132C20.2316 19.5152 20.0335 19.7866 19.7885 20.012C19.5436 20.2373 19.2567 20.4121 18.9441 20.5264C18.6315 20.6408 18.2995 20.6923 17.967 20.6782Z" fill="white"/>
<path d="M11.2537 16.8436C11.1592 16.844 11.0656 16.8256 10.9783 16.7894C10.891 16.7532 10.8119 16.6999 10.7455 16.6326C10.6108 16.4978 10.5352 16.315 10.5352 16.1244C10.5352 15.9338 10.6108 15.7511 10.7455 15.6162L14.0729 12.2888L10.7455 8.96141C10.6184 8.82508 10.5493 8.64476 10.5526 8.45844C10.5559 8.27213 10.6313 8.09436 10.7631 7.9626C10.8949 7.83083 11.0726 7.75535 11.259 7.75207C11.4453 7.74878 11.6256 7.81794 11.7619 7.94497L15.5975 11.7806C15.7322 11.9154 15.8079 12.0982 15.8079 12.2888C15.8079 12.4794 15.7322 12.6622 15.5975 12.797L11.7619 16.6326C11.6955 16.6999 11.6164 16.7532 11.5291 16.7894C11.4418 16.8256 11.3482 16.844 11.2537 16.8436Z" fill="white"/>
<path d="M15.0913 13.0067H4.5434C4.35266 13.0067 4.16973 12.9309 4.03486 12.7961C3.89999 12.6612 3.82422 12.4783 3.82422 12.2875C3.82422 12.0968 3.89999 11.9139 4.03486 11.779C4.16973 11.6441 4.35266 11.5684 4.5434 11.5684H15.0913C15.2821 11.5684 15.465 11.6441 15.5999 11.779C15.7347 11.9139 15.8105 12.0968 15.8105 12.2875C15.8105 12.4783 15.7347 12.6612 15.5999 12.7961C15.465 12.9309 15.2821 13.0067 15.0913 13.0067Z" fill="white"/>
</svg>
