<svg  viewBox="0 0 41 38" fill="none" xmlns="http://www.w3.org/2000/svg">
<path d="M21.4339 1C21.785 1 22.1104 1.1841 22.2911 1.48505L27.6873 10.468C27.8345 10.713 28.0795 10.8833 28.3605 10.9359L38.2675 12.7912C39.0456 12.9369 39.3539 13.8859 38.8101 14.4611L31.901 21.769C31.6958 21.986 31.5984 22.2835 31.6354 22.58L32.8595 32.376C32.9341 32.9728 32.4687 33.5 31.8673 33.5H28.8084C28.6075 33.5 28.4112 33.4395 28.2452 33.3263L21.9998 29.07L15.1375 25.08C15.0464 25.027 14.9642 24.9599 14.8941 24.8813L12.4226 22.1118L5.18939 14.4611C4.64558 13.8859 4.95393 12.9369 5.73198 12.7912L15.4797 10.9658C15.8487 10.8967 16.1478 10.6268 16.2545 10.2669L18.7879 1.71593C18.9137 1.2913 19.3038 1 19.7467 1H21.4339Z" fill="#F1B323"/>
<path d="M18.1221 1.60978C18.5011 0.914844 19.4989 0.914845 19.8779 1.60979L24.6917 10.4365C24.8355 10.7002 25.0903 10.8853 25.3856 10.9406L35.2678 12.7912C36.0458 12.9369 36.3542 13.8859 35.8104 14.4611L28.9033 21.7669C28.6969 21.9851 28.5996 22.2846 28.6382 22.5825L29.932 32.5529C30.0338 33.3379 29.2265 33.9245 28.5115 33.585L19.4288 29.2736C19.1575 29.1447 18.8425 29.1447 18.5712 29.2736L9.48855 33.585C8.77345 33.9245 7.96617 33.3379 8.06803 32.5529L9.36178 22.5825C9.40043 22.2846 9.30312 21.9851 9.09675 21.7669L2.18963 14.4611C1.64582 13.8859 1.95417 12.9369 2.73222 12.7912L12.6144 10.9406C12.9097 10.8853 13.1645 10.7002 13.3083 10.4365L18.1221 1.60978Z" fill="#F8BF3B"/>
</svg>
