<svg width="47" height="148" viewBox="0 0 47 148" fill="none" xmlns="http://www.w3.org/2000/svg">
<path d="M0.0961226 4.3842C0.144184 4.2696 0.307592 4.1029 0.461388 4.01956C0.644021 3.91537 1.06696 3.8737 1.94168 3.86328C2.70104 3.86328 3.17204 3.90495 3.17204 3.96746C3.17204 4.01956 3.10476 4.09248 3.02786 4.12374C2.95096 4.15499 2.81639 4.34252 2.73949 4.54047C2.61453 4.85302 2.59531 5.94695 2.59531 12.1979C2.59531 18.4489 2.61453 19.5429 2.73949 19.8554C2.81639 20.0534 2.95096 20.2409 3.02786 20.2722C3.10476 20.3034 3.17204 20.3659 3.17204 20.4284C3.17204 20.4909 2.67221 20.5326 0.576735 20.5326L0 19.9075V12.25C0 7.35342 0.038449 4.51964 0.0961226 4.3842Z" fill="#EE5253"/>
<path d="M42.4093 4.57173L42.7265 4.2175L43.0437 3.86328H44.3029C44.995 3.86328 45.5621 3.88412 45.5621 3.91537C45.5621 3.94663 45.4564 4.1029 45.0815 4.59256V19.8033L45.3218 20.1159C45.4564 20.293 45.5621 20.4493 45.5621 20.4805C45.5621 20.5118 45.0238 20.5326 44.3606 20.5326C43.5435 20.5326 43.0725 20.4909 42.8995 20.3868C42.7457 20.3138 42.5919 20.1575 42.5342 20.0534C42.4766 19.9283 42.4285 17.0737 42.4093 4.57173Z" fill="#EE5253"/>
<path d="M4.58505 19.8554C4.43125 19.8033 4.42164 19.3553 4.42164 12.3021C4.42164 5.22808 4.43125 4.80093 4.58505 4.80093C4.68117 4.81135 5.31558 4.91553 7.25725 5.28017L7.27648 12.7501C7.2957 18.6469 7.27648 20.2305 7.18036 20.2826C7.12268 20.3138 6.54595 20.2409 5.91154 20.1159C5.27713 20.0013 4.68117 19.8763 4.58505 19.8554Z" fill="#EE5253"/>
<path d="M0.431245 0.628911C0.532076 0.45072 0.771549 0.241083 0.973211 0.157228H0.960607C1.16227 0.073373 1.61601 0.0104819 1.96891 0C2.38484 0 2.77556 0.073373 3.01503 0.188673C3.2167 0.28301 3.46877 0.492647 3.58221 0.649875C3.72085 0.869994 3.77126 1.28927 3.77126 3.82588L0.242188 3.77347V2.35842C0.242188 1.31023 0.292603 0.859512 0.431245 0.628911Z" fill="#C7D2E5"/>
<path d="M43.2974 0.73373C43.3983 0.56602 43.6377 0.324938 43.8268 0.209637C44.0789 0.0524093 44.3562 0 44.9611 0C45.6291 0 45.8182 0.0419275 46.1333 0.262046C46.3476 0.408792 46.5618 0.702284 46.6374 0.911921C46.7005 1.13204 46.7635 1.86577 46.7635 3.77347H43.1084V2.41083C43.1084 1.40457 43.1588 0.964331 43.2974 0.73373Z" fill="#C7D2E5"/>
<path d="M0.443849 146.505C0.279999 146.233 0.254791 50.7217 0.254791 36.6341V20.5444H3.78387V36.655C3.78387 52.5979 3.78387 146.243 3.53179 146.558C3.39315 146.725 3.15368 146.924 2.98983 146.998C2.83858 147.071 2.41005 147.124 2.04454 147.134C1.69163 147.134 1.21268 147.061 1.01102 146.977C0.796757 146.893 0.54468 146.673 0.443849 146.505Z" fill="#C7D2E5"/>
<path d="M43.2974 44.8004C43.1336 44.5279 43.1084 50.6274 43.1084 36.5817V20.5444H46.7635V36.5293C46.7635 49.5477 46.7383 44.444 46.5996 44.727C46.4988 44.9052 46.2593 45.1673 46.0577 45.3035C45.7678 45.4922 45.5283 45.5446 44.9359 45.5446C44.3688 45.5446 44.0915 45.4817 43.8268 45.3245C43.6377 45.2092 43.3983 44.9681 43.2974 44.8004Z" fill="#C7D2E5"/>
<path d="M2.50107 4.60022C2.5495 4.43293 2.69479 4.2029 2.81102 4.07743C2.9563 3.92059 3.12096 3.85786 3.31468 3.87877C3.47934 3.88923 3.70211 3.96242 3.82802 4.02515C3.94425 4.09834 4.09922 4.26563 4.16702 4.40156C4.2542 4.61068 4.27357 6.32542 4.1864 20.0643L3.92488 20.3153C3.76991 20.4616 3.52776 20.5662 3.36311 20.5662C3.19845 20.5662 2.97568 20.4616 2.84008 20.3362C2.70448 20.2002 2.5495 19.9702 2.50107 19.8134C2.43327 19.6147 2.39453 17.0949 2.39453 12.2016C2.39453 7.29781 2.42359 4.78842 2.50107 4.60022Z" fill="#FF6B6B"/>
<path d="M45.1959 4.62113L45.4671 4.22381C45.7189 3.85786 45.7673 3.83695 46.1257 3.87877C46.3678 3.91014 46.6003 4.03561 46.9974 4.46429V19.9598L46.6875 20.263C46.4647 20.4721 46.271 20.5662 46.0579 20.5662C45.8061 20.5557 45.6802 20.4721 45.1959 19.782V4.62113Z" fill="#FF6B6B"/>
<path d="M39.5878 5.23802C40.4692 5.09164 41.4475 4.90344 41.7671 4.83025C42.0867 4.75706 42.3967 4.69432 42.4451 4.68387C42.5129 4.67341 42.542 7.26644 42.542 19.8343L42.0577 19.9388C41.7962 19.9911 41.0504 20.1375 40.4111 20.2525C39.7718 20.3675 38.5708 20.5453 37.7475 20.6603C36.9242 20.7753 35.2873 20.9635 34.1154 21.0785C32.9434 21.1935 31.1128 21.3504 30.0474 21.4236C28.9335 21.4968 26.0665 21.549 23.3158 21.549C20.5456 21.549 17.698 21.4968 16.5842 21.4236C15.5187 21.3504 13.9109 21.2144 13.0004 21.1308C12.0997 21.0472 10.4628 20.859 9.36827 20.7126C8.27378 20.5766 7.31489 20.4303 7.23741 20.4094C7.11149 20.3675 7.09212 19.4265 7.09212 5.23802L7.81855 5.36349C8.21567 5.43668 9.3489 5.58306 10.3368 5.70853C11.3248 5.82355 12.9811 5.99084 14.0174 6.08494C15.0538 6.16859 16.9522 6.2836 18.2307 6.34633C19.5093 6.39861 21.7951 6.45089 23.3158 6.45089C24.8364 6.45089 27.1223 6.39861 28.4008 6.34633C29.6793 6.2836 31.5777 6.16859 32.6141 6.08494C33.6505 5.99084 35.2873 5.834 36.2462 5.71899C37.2051 5.59352 38.7064 5.3844 39.5878 5.23802Z" fill="#FF6B6B"/>
<path d="M13.3357 9.5009C13.4981 9.3623 13.7869 9.18104 13.9855 9.09575C14.184 9.01045 14.5902 8.94648 14.888 8.94648C15.1858 8.93582 15.6551 8.99979 15.9259 9.07442C16.1966 9.14906 16.5666 9.30899 16.7381 9.42627C16.9096 9.54355 17.1081 9.75679 17.1803 9.90606C17.2977 10.13 17.2886 10.2153 17.1352 10.5778C17.045 10.8123 16.8825 11.0362 16.7832 11.0789C16.6569 11.1322 16.4313 11.0576 16.0612 10.8443C15.6551 10.6097 15.3934 10.5351 14.9963 10.5351C14.5541 10.5351 14.4548 10.5778 14.3014 10.8017C14.166 10.9936 14.1389 11.1322 14.1931 11.3028C14.2382 11.4414 14.527 11.7506 14.8519 11.9958C15.1678 12.241 15.6461 12.6142 15.8988 12.8168C16.2147 13.0727 16.4674 13.3925 16.6479 13.755C16.8735 14.2242 16.9186 14.4374 16.9186 15.0345C16.9186 15.4503 16.8554 15.9301 16.7742 16.154C16.702 16.3779 16.5305 16.6977 16.3952 16.8577C16.2598 17.0283 15.989 17.2628 15.7905 17.3801C15.5739 17.5187 15.1858 17.6253 14.7977 17.6573C14.2923 17.7 14.0306 17.6573 13.4981 17.4547C13.0559 17.2842 12.6859 17.0603 12.4332 16.7937C12.1895 16.5485 12.0271 16.2819 12 16.0793C11.9729 15.8768 12.018 15.6422 12.1083 15.4396C12.1985 15.269 12.3881 15.0558 12.5234 14.9918C12.74 14.8745 12.8032 14.8852 12.9927 15.0665C13.1101 15.1837 13.3357 15.4076 13.5072 15.5782C13.6696 15.7382 13.9765 15.9194 14.184 15.9727C14.4638 16.0474 14.6624 16.0474 14.906 15.9407C15.1407 15.8554 15.2761 15.7168 15.3392 15.5143C15.4114 15.2797 15.3934 15.1411 15.2941 14.9279C15.2219 14.7679 14.7707 14.3414 14.3014 13.9789C13.8321 13.6164 13.2906 13.1153 13.101 12.8594C12.9115 12.6035 12.713 12.209 12.6588 11.9745C12.6137 11.7399 12.5956 11.3134 12.6227 11.0149C12.6588 10.727 12.7671 10.3112 12.8664 10.1086C12.9657 9.90606 13.1732 9.62885 13.3357 9.5009Z" fill="white"/>
<path d="M33.8224 9.60752C33.9578 9.44759 34.3549 9.37296 36.0336 9.1917C37.1617 9.06376 38.1725 8.95714 38.2808 8.94648C38.3981 8.94648 38.5696 9.03178 38.6689 9.14906C38.7952 9.29832 38.8494 9.51156 38.8494 9.8101C38.8554 10.1157 38.8042 10.3254 38.6959 10.4392C38.5967 10.5458 38.2898 10.6417 37.8566 10.6844C37.4866 10.7164 37.1707 10.759 37.1527 10.7803C37.1346 10.791 37.2339 12.2624 37.3602 14.0536C37.5949 17.2095 37.5949 17.3161 37.4324 17.4974C37.3422 17.604 37.0895 17.7213 36.8639 17.7533C36.548 17.7959 36.4126 17.7639 36.2592 17.6147C36.0697 17.4228 36.0426 17.2095 35.5552 10.9296L34.7881 11.0042C34.1203 11.0682 34.0029 11.0576 33.8585 10.887C33.7593 10.7697 33.6871 10.5138 33.678 10.2472C33.669 9.93804 33.7051 9.73547 33.8224 9.60752Z" fill="white"/>
<path d="M17.6316 10.2153C17.6226 10.002 17.6857 9.7248 17.776 9.59686C17.8843 9.41561 18.0106 9.3623 18.2994 9.37296C18.507 9.37296 19.5629 9.43693 20.6459 9.5009C22.2073 9.60752 22.6314 9.66083 22.6946 9.78878C22.7488 9.87407 22.8119 10.066 22.839 10.2153C22.8661 10.3645 22.8661 10.5884 22.839 10.7164C22.8119 10.855 22.7127 11.0362 22.6224 11.1322C22.4961 11.2815 22.3517 11.3028 21.025 11.1642L20.9618 11.9958C20.9257 12.4543 20.8535 13.8617 20.7994 15.1198C20.7452 16.3779 20.682 17.5081 20.664 17.6253C20.6459 17.7426 20.5015 17.9025 20.3301 17.9878C20.1405 18.0838 19.9149 18.1158 19.7164 18.0625C19.5449 18.0305 19.3463 17.9345 19.2832 17.8599C19.211 17.7746 19.1658 17.4547 19.1749 16.9536C19.1749 16.5378 19.211 15.3543 19.2651 14.3414C19.3102 13.3392 19.3734 12.1984 19.4456 11.1215L18.6514 11.0469C18.0377 10.9936 17.8392 10.9403 17.7489 10.7803C17.6857 10.6737 17.6316 10.4178 17.6316 10.2153Z" fill="white"/>
<path d="M24.2018 10.0766C24.2379 9.97003 24.4184 9.82076 24.5899 9.73547C24.7613 9.65017 24.987 9.5862 25.0862 9.5862C25.1855 9.57554 25.4111 9.61818 25.5826 9.67149C25.7541 9.73547 25.9436 9.84209 26.0068 9.91672C26.07 9.99135 26.5393 11.7612 27.0627 13.8403C27.9291 17.3161 28.0013 17.6467 27.884 17.8706C27.8028 17.9985 27.5771 18.1584 27.3605 18.2331C27.1169 18.3077 26.9003 18.3184 26.7559 18.2544C26.5754 18.1798 26.5032 18.0092 26.1512 16.5591H24.0213L23.8498 17.2522C23.7596 17.636 23.6242 18.0198 23.552 18.1051C23.4617 18.2011 23.2812 18.2544 23.0737 18.2331C22.8932 18.2224 22.6495 18.1371 22.5322 18.0518C22.4239 17.9665 22.2975 17.8066 22.2524 17.7106C22.1892 17.572 22.4419 16.5058 23.1459 13.8936C23.6783 11.8998 24.1567 10.1833 24.2018 10.0766Z" fill="white"/>
<path d="M28.6331 9.86341C28.7414 9.73547 28.958 9.67149 29.4182 9.65017C29.7702 9.62885 30.42 9.60752 30.8622 9.59686C31.3947 9.5862 31.846 9.62885 32.1709 9.74613C32.5048 9.86341 32.7665 10.0447 32.9831 10.3112C33.1546 10.5245 33.3531 10.887 33.4073 11.1215C33.4705 11.3561 33.5246 11.8359 33.5246 12.1877C33.5246 12.6355 33.4614 12.9874 33.317 13.3605C33.1997 13.6697 32.9741 14.0003 32.7936 14.1495C32.6221 14.2988 32.4777 14.4267 32.4597 14.4481C32.4506 14.4694 32.7033 14.9918 33.0192 15.6209C33.3351 16.2606 33.6329 16.879 33.6961 17.0069C33.7683 17.1989 33.7683 17.3161 33.669 17.54C33.6058 17.7106 33.3892 17.9239 33.1997 18.0412C32.938 18.1904 32.7846 18.2117 32.6221 18.1478C32.4597 18.0731 32.1979 17.6253 30.8622 14.8106L30.1854 14.7999L30.2485 16.2819C30.3117 17.5187 30.3027 17.7853 30.1854 17.9345C30.1132 18.0412 29.9056 18.1584 29.7341 18.2117C29.5536 18.2651 29.2919 18.2544 29.1204 18.2011C28.967 18.1478 28.8136 18.0625 28.7865 17.9985C28.7594 17.9345 28.6782 16.1327 28.606 13.9683C28.4796 10.2792 28.4796 10.0447 28.6331 9.86341Z" fill="white"/>
<path d="M30.0763 13.3369L30.0497 12.2645L30.0231 11.1816H30.6972C31.3182 11.1816 31.3803 11.2027 31.6286 11.497C31.8415 11.7494 31.8948 11.8965 31.8948 12.2855C31.8948 12.6325 31.8415 12.8322 31.6819 13.053C31.4778 13.3158 31.4158 13.3369 30.0763 13.3369Z" fill="#FF6B6B"/>
<path d="M24.4614 14.9349C24.4525 14.9243 24.5855 14.2936 24.7718 13.5261C24.9492 12.7586 25.1266 12.1383 25.171 12.1383C25.2153 12.1383 25.375 12.7166 25.5169 13.421C25.6589 14.1253 25.7742 14.7877 25.7742 14.8928C25.7742 15.061 25.7032 15.0715 25.1355 15.0085C24.7807 14.9769 24.4791 14.9349 24.4614 14.9349Z" fill="#FF6B6B"/>
</svg>
