<svg  viewBox="0 0 561 364" fill="none" >
<g clip-path="url(#clip0_7834_23721)">
<path d="M513.69 174.481C508.524 174.564 495.482 174.772 490.491 174.821L482.672 174.855H482.299V174.473L482.266 164.718V164.303H482.68L498.193 164.361C502.057 164.394 509.843 164.469 513.706 164.527H513.905V164.718L513.706 174.473L513.69 174.481ZM513.69 174.481L513.491 164.726L513.69 164.925C509.818 164.975 502.049 165.058 498.177 165.091L482.664 165.149L483.078 164.734L483.045 174.49L482.664 174.108L490.358 174.141C495.275 174.191 508.607 174.407 513.69 174.481Z" fill="#EBEBEB"/>
<path d="M536.938 104.54C531.772 104.623 518.73 104.83 513.739 104.88L505.92 104.913H505.547V104.532L505.514 94.7761V94.3613H505.928L521.441 94.4194C525.305 94.4526 533.091 94.5272 536.954 94.5853H537.153V94.7844L536.954 104.54H536.938ZM536.938 104.54L536.739 94.7844L536.938 94.9835C533.066 95.0333 525.297 95.1162 521.425 95.1494L505.912 95.2075L506.326 94.7927L506.293 104.548L505.912 104.167L513.606 104.2C518.523 104.25 531.855 104.465 536.938 104.54Z" fill="#EBEBEB"/>
<path d="M57.5003 208.89C52.3348 208.973 39.2926 209.18 34.3012 209.23L26.4824 209.263H26.1093V208.881L26.0762 199.126V198.711H26.4907L42.0038 198.769C45.8676 198.802 53.6532 198.877 57.5169 198.935H57.7159V199.134L57.5169 208.89H57.5003ZM57.5003 208.89L57.3013 199.134L57.5003 199.333C53.6283 199.383 45.8593 199.466 41.9872 199.499L26.4742 199.557L26.8887 199.142L26.8556 208.898L26.4742 208.516L34.1685 208.549C39.0853 208.599 52.4177 208.815 57.5003 208.89Z" fill="#EBEBEB"/>
<path d="M40.1961 211.438H9.16992V221.193H40.1961V211.438Z" fill="#EBEBEB"/>
<path d="M251.649 254.623C256.815 254.54 269.857 254.333 274.848 254.283L282.667 254.25H283.04V254.632L283.073 264.387V264.802H282.659L267.146 264.744C263.282 264.711 255.496 264.636 251.633 264.578H251.434V264.379L251.633 254.623H251.649ZM251.649 254.623L251.848 264.379L251.649 264.18C255.521 264.13 263.29 264.047 267.162 264.014L282.675 263.956L282.261 264.371L282.294 254.615L282.675 254.997L274.981 254.963C270.064 254.914 256.732 254.698 251.649 254.623Z" fill="#EBEBEB"/>
<path d="M268.954 252.076H299.98V242.321H268.954V252.076Z" fill="#EBEBEB"/>
<path d="M495.639 172.971H464.613V182.726H495.639V172.971Z" fill="#EBEBEB"/>
<path d="M274.983 55.8212C269.817 55.9042 256.775 56.1115 251.784 56.1613L243.965 56.1945H243.592V55.8129L243.559 46.0574V45.6426H243.973L259.486 45.7006C263.35 45.7338 271.136 45.8085 274.999 45.8666H275.198V46.0656L274.999 55.8212H274.983ZM274.983 55.8212L274.784 46.0656L274.983 46.2647C271.111 46.3145 263.342 46.3975 259.47 46.4307L243.957 46.4887L244.371 46.0739L244.338 55.8295L243.957 55.4479L251.651 55.4811C256.568 55.5309 269.9 55.7465 274.983 55.8212Z" fill="#EBEBEB"/>
<path d="M257.679 58.3672H226.652V68.1227H257.679V58.3672Z" fill="#EBEBEB"/>
<path d="M322.043 16.6571C316.878 16.7401 303.836 16.9475 298.844 16.9973L291.025 17.0304H290.652V16.6488L290.619 6.89329V6.47852H291.034L306.547 6.53658C310.411 6.56977 318.196 6.64443 322.06 6.7025H322.259V6.89329L322.06 16.6488L322.043 16.6571ZM322.043 16.6571L321.844 6.90159L322.043 7.10068C318.171 7.15045 310.402 7.23341 306.53 7.26659L291.017 7.32466L291.432 6.90988L291.399 16.6654L291.017 16.2838L298.711 16.317C303.628 16.3668 316.961 16.5825 322.043 16.6571Z" fill="#EBEBEB"/>
<path d="M155.579 242.711H124.553V252.467H155.579V242.711Z" fill="#EBEBEB"/>
<path d="M153.946 177.874C148.78 177.957 135.738 178.164 130.746 178.214L122.928 178.247H122.555V177.866L122.521 168.11V167.695H122.936L138.449 167.753C142.313 167.787 150.098 167.861 153.962 167.919H154.161V168.118L153.962 177.874H153.946ZM153.946 177.874L153.747 168.118L153.946 168.317C150.074 168.367 142.305 168.45 138.433 168.483L122.919 168.541L123.334 168.127L123.301 177.882L122.919 177.501L130.614 177.534C135.531 177.584 148.863 177.799 153.946 177.874Z" fill="#EBEBEB"/>
<path d="M542.71 12.709H511.684V22.4645H542.71V12.709Z" fill="#EBEBEB"/>
<path d="M53.0882 10.1708C47.9227 10.2538 34.8804 10.4612 29.8891 10.5109L22.0703 10.5441H21.6972V10.1625L21.6641 0.406964V-0.0078125H22.0786L37.5917 0.0502563C41.4555 0.0834384 49.241 0.158098 53.1048 0.216167H53.3038V0.41526L53.1048 10.1708H53.0882ZM53.0882 10.1708L52.8892 0.41526L53.0882 0.614353C49.2162 0.664126 41.4472 0.747082 37.5751 0.780264L22.062 0.838333L22.4766 0.423556L22.4434 10.1791L22.062 9.79752L29.7564 9.8307C34.6732 9.88047 48.0056 10.0962 53.0882 10.1708Z" fill="#EBEBEB"/>
<path d="M204.97 14.0274C205.368 13.6293 205.848 13.4302 206.421 13.4302H226.37C226.933 13.4302 227.423 13.6293 227.821 14.0274C228.218 14.4256 228.417 14.9068 228.417 15.4792V130.812C228.417 131.384 228.218 131.866 227.821 132.264C227.423 132.662 226.942 132.861 226.37 132.861H206.421C205.848 132.861 205.368 132.662 204.97 132.264C204.572 131.866 204.373 131.384 204.373 130.812V84.2326C204.373 83.6685 204.091 83.3782 203.519 83.3782H186.463C185.891 83.3782 185.609 83.6602 185.609 84.2326V130.812C185.609 131.384 185.41 131.866 185.012 132.264C184.614 132.662 184.133 132.861 183.561 132.861H163.612C163.04 132.861 162.559 132.662 162.161 132.264C161.763 131.866 161.564 131.384 161.564 130.812V15.4709C161.564 14.9068 161.763 14.4173 162.161 14.0192C162.559 13.621 163.04 13.4219 163.612 13.4219H183.561C184.125 13.4219 184.614 13.621 185.012 14.0192C185.41 14.4173 185.609 14.8985 185.609 15.4709V61.8761C185.609 62.4485 185.891 62.7306 186.463 62.7306H203.519C204.082 62.7306 204.373 62.4485 204.373 61.8761V15.4709C204.373 14.9068 204.572 14.4173 204.97 14.0192V14.0274Z" fill="#FF8B13"/>
<path d="M174.955 20.8046C174.955 21.7668 174.176 22.5466 173.214 22.5466C172.252 22.5466 171.473 21.7668 171.473 20.8046C171.473 19.8423 172.252 19.0625 173.214 19.0625C174.176 19.0625 174.955 19.8423 174.955 20.8046Z" fill="#A6A6A6"/>
<path d="M218.336 20.8046C218.336 21.7668 217.556 22.5466 216.595 22.5466C215.633 22.5466 214.854 21.7668 214.854 20.8046C214.854 19.8423 215.633 19.0625 216.595 19.0625C217.556 19.0625 218.336 19.8423 218.336 20.8046Z" fill="#A6A6A6"/>
<path d="M374.985 14.0274C375.383 13.6293 375.864 13.4302 376.436 13.4302H396.219C396.783 13.4302 397.272 13.6293 397.67 14.0274C398.068 14.4256 398.267 14.9068 398.267 15.4792V130.812C398.267 131.384 398.068 131.866 397.67 132.264C397.272 132.662 396.791 132.861 396.219 132.861H373.708C372.572 132.861 371.835 132.297 371.495 131.152L350.352 65.128C350.236 64.7879 350.037 64.6468 349.755 64.7049C349.473 64.763 349.332 64.9621 349.332 65.3022L349.506 130.812C349.506 131.384 349.307 131.866 348.909 132.264C348.511 132.662 348.03 132.861 347.458 132.861H327.675C327.103 132.861 326.622 132.662 326.224 132.264C325.826 131.866 325.627 131.384 325.627 130.812V15.4709C325.627 14.9068 325.826 14.4173 326.224 14.0192C326.622 13.621 327.103 13.4219 327.675 13.4219H350.012C351.148 13.4219 351.886 13.9943 352.226 15.1308L373.543 81.155C373.659 81.4951 373.858 81.6444 374.14 81.578C374.421 81.52 374.571 81.3209 374.571 80.9808L374.397 15.4709C374.397 14.9068 374.596 14.4173 374.994 14.0192L374.985 14.0274Z" fill="#FF8B13"/>
<path d="M341.223 20.8046C341.223 21.7668 340.443 22.5466 339.481 22.5466C338.52 22.5466 337.74 21.7668 337.74 20.8046C337.74 19.8423 338.52 19.0625 339.481 19.0625C340.443 19.0625 341.223 19.8423 341.223 20.8046Z" fill="#A6A6A6"/>
<path d="M388.732 20.8046C388.732 21.7668 387.953 22.5466 386.991 22.5466C386.029 22.5466 385.25 21.7668 385.25 20.8046C385.25 19.8423 386.029 19.0625 386.991 19.0625C387.953 19.0625 388.732 19.8423 388.732 20.8046Z" fill="#A6A6A6"/>
<path d="M291.341 147.569L288.613 131.194C288.613 130.63 288.273 130.339 287.593 130.339H265.936C265.256 130.339 264.916 130.621 264.916 131.194L262.188 147.569C262.072 148.822 261.334 149.444 259.975 149.444H240.026C238.55 149.444 237.978 148.706 238.318 147.229L263.382 31.8963C263.606 30.6437 264.344 30.0215 265.596 30.0215H288.613C289.865 30.0215 290.603 30.6519 290.827 31.8963L315.726 147.229L315.9 147.909C315.9 148.93 315.27 149.444 314.026 149.444H293.563C292.195 149.444 291.457 148.822 291.349 147.569H291.341ZM269.004 111.741H284.351C284.915 111.741 285.147 111.459 285.031 110.886L277.013 64.3069C276.897 63.9668 276.732 63.7926 276.499 63.7926C276.267 63.7926 276.101 63.9668 275.985 64.3069L268.316 110.886C268.316 111.459 268.54 111.741 268.996 111.741H269.004Z" fill="#FF8B13"/>
<path d="M278.797 39.4374C278.797 40.3997 278.017 41.1794 277.056 41.1794C276.094 41.1794 275.314 40.3997 275.314 39.4374C275.314 38.4751 276.094 37.6953 277.056 37.6953C278.017 37.6953 278.797 38.4751 278.797 39.4374Z" fill="#A6A6A6"/>
<path d="M413.863 148.847C413.465 148.449 413.266 147.968 413.266 147.396V32.0627C413.266 31.4986 413.465 31.0091 413.863 30.611C414.261 30.2128 414.741 30.0137 415.314 30.0137H435.263C435.826 30.0137 436.316 30.2128 436.714 30.611C437.112 31.0091 437.31 31.4903 437.31 32.0627V75.0585C437.31 75.5147 437.451 75.7719 437.733 75.8299C438.015 75.888 438.214 75.6889 438.33 75.2327L460.327 31.5566C460.891 30.5363 461.695 30.022 462.715 30.022H483.858C484.654 30.022 485.193 30.2211 485.475 30.6192C485.757 31.0174 485.732 31.6147 485.392 32.4111L460.153 81.5456C460.037 82.0018 459.979 82.3419 459.979 82.5659L486.752 147.055C486.86 147.288 486.926 147.628 486.926 148.076C486.926 148.988 486.354 149.445 485.218 149.445H463.901C462.649 149.445 461.853 148.93 461.513 147.91L443.778 103.214C443.662 102.873 443.496 102.732 443.264 102.79C443.032 102.849 442.808 102.99 442.584 103.214L437.642 112.081C437.41 112.538 437.302 112.878 437.302 113.102V147.396C437.302 147.968 437.103 148.449 436.705 148.847C436.307 149.245 435.826 149.445 435.254 149.445H415.305C414.733 149.445 414.252 149.245 413.854 148.847H413.863Z" fill="#FF8B13"/>
<path d="M427.42 39.4374C427.42 40.3997 426.641 41.1794 425.679 41.1794C424.717 41.1794 423.938 40.3997 423.938 39.4374C423.938 38.4751 424.717 37.6953 425.679 37.6953C426.641 37.6953 427.42 38.4751 427.42 39.4374Z" fill="#A6A6A6"/>
<path d="M472.092 39.4374C472.092 40.3997 471.312 41.1794 470.351 41.1794C469.389 41.1794 468.609 40.3997 468.609 39.4374C468.609 38.4751 469.389 37.6953 470.351 37.6953C471.312 37.6953 472.092 38.4751 472.092 39.4374Z" fill="#A6A6A6"/>
<path d="M191.158 291.63C190.76 291.231 190.561 290.75 190.561 290.178V245.822L190.387 244.801L166.516 175.368C166.4 175.144 166.342 174.853 166.342 174.513C166.342 173.493 166.964 172.979 168.216 172.979H189.193C190.445 172.979 191.241 173.551 191.581 174.687L202.152 215.46C202.26 215.8 202.434 215.974 202.666 215.974C202.898 215.974 203.064 215.8 203.18 215.46L213.752 174.687C214.092 173.551 214.888 172.979 216.14 172.979H237.117C237.797 172.979 238.311 173.178 238.651 173.576C238.99 173.974 239.049 174.571 238.825 175.368L214.78 244.801L214.606 245.822V290.178C214.606 290.75 214.407 291.231 214.009 291.63C213.611 292.028 213.13 292.227 212.558 292.227H192.609C192.037 292.227 191.556 292.028 191.158 291.63Z" fill="#FF8B13"/>
<path d="M182.701 181.889C182.701 182.851 181.922 183.631 180.96 183.631C179.998 183.631 179.219 182.851 179.219 181.889C179.219 180.926 179.998 180.146 180.96 180.146C181.922 180.146 182.701 180.926 182.701 181.889Z" fill="#A6A6A6"/>
<path d="M226.537 181.889C226.537 182.851 225.758 183.631 224.796 183.631C223.834 183.631 223.055 182.851 223.055 181.889C223.055 180.926 223.834 180.146 224.796 180.146C225.758 180.146 226.537 180.926 226.537 181.889Z" fill="#A6A6A6"/>
<path d="M254.336 301.145C248.085 295.007 244.959 286.811 244.959 276.574V221.981C244.959 211.744 248.085 203.557 254.336 197.41C260.588 191.271 268.946 188.193 279.401 188.193C289.857 188.193 298.247 191.263 304.557 197.41C310.867 203.548 314.018 211.736 314.018 221.981V276.574C314.018 286.811 310.859 294.998 304.557 301.145C298.247 307.284 289.865 310.362 279.401 310.362C268.938 310.362 260.588 307.292 254.336 301.145ZM287.079 286.388C289.011 284.173 289.981 281.244 289.981 277.603V220.961C289.981 217.319 289.011 214.391 287.079 212.176C285.147 209.961 282.585 208.849 279.409 208.849C276.234 208.849 273.697 209.961 271.823 212.176C269.949 214.391 269.012 217.327 269.012 220.961V277.603C269.012 281.244 269.949 284.173 271.823 286.388C273.697 288.603 276.226 289.714 279.409 289.714C282.593 289.714 285.147 288.603 287.079 286.388Z" fill="#FF8B13"/>
<path d="M281.234 197.459C281.234 198.421 280.455 199.201 279.493 199.201C278.531 199.201 277.752 198.421 277.752 197.459C277.752 196.497 278.531 195.717 279.493 195.717C280.455 195.717 281.234 196.497 281.234 197.459Z" fill="#A6A6A6"/>
<path d="M17.9844 351.508C187.542 351.002 377.745 350.993 547.303 351.508C377.745 352.022 187.542 352.014 17.9844 351.508Z" fill="#263238"/>
<path d="M495.225 222.743C495.557 217.848 496.162 212.946 497.298 208.167C498.326 203.854 499.786 199.441 502.505 195.873C504.993 192.613 508.558 190.025 512.703 189.511C516.7 189.021 520.456 190.805 523.441 193.318C527.147 196.438 529.983 200.569 532.644 204.575C535.621 209.055 538.158 213.709 540.596 218.495C540.678 218.653 540.438 218.786 540.355 218.628C538.34 214.588 535.869 210.656 533.249 206.981C530.77 203.514 528.125 200.054 525.066 197.068C522.321 194.389 518.839 191.883 514.859 191.759C510.904 191.634 507.256 193.858 504.876 196.902C502.215 200.312 500.863 204.567 499.844 208.715C498.733 213.269 498.177 217.923 497.796 222.593C497.016 232.191 496.801 241.856 496.585 251.478C496.461 256.929 496.386 262.379 496.336 267.829C496.311 270.591 496.287 273.354 496.27 276.116C496.253 278.779 496.386 281.475 495.955 284.105C495.864 284.644 494.985 284.586 494.902 284.08C494.463 281.591 494.57 279.036 494.537 276.514C494.504 273.901 494.471 271.28 494.446 268.667C494.396 263.582 494.371 258.488 494.388 253.403C494.421 243.191 494.537 232.938 495.234 222.751L495.225 222.743Z" fill="#263238"/>
<path d="M508.932 215.502C509.437 212.789 510.358 209.247 511.908 207.148C514.686 203.365 517.687 205.016 514.91 209.197C511.883 213.768 511.444 217.376 511.013 219.517C511.013 219.517 515.681 226.195 521.319 229.48C521.078 226.916 520.357 222.968 520.855 219.16C521.941 210.914 526.924 211.379 525.688 217.924C524.702 223.175 524.287 228.758 524.561 231.172C526.252 232.458 529.138 233.561 530.589 234.125C530.265 233.171 529.925 232.026 529.544 230.633C527.546 223.241 532.471 220.935 532.628 225.091C532.753 228.509 534.071 233.81 534.544 235.577C537.247 236.481 539.485 237.103 540.862 237.584C546.558 239.584 550.106 243.906 550.106 243.906C552.693 241.608 554.774 238.82 556.4 235.751C554.675 234.266 551.955 232.06 548.175 229.397C541.094 224.394 543.556 218.073 549.178 222.005C553.232 224.842 556.375 230.094 557.801 232.79C559.758 228.119 560.786 222.993 561.018 218.032C555.454 212.806 541.691 205.522 545.836 205.522C549.567 205.522 557.917 210.997 560.985 213.113C560.902 211.636 560.744 210.201 560.512 208.824C555.272 205.389 538.241 200.039 540.953 198.504C543.938 196.82 555.819 202.32 559.409 204.062C558.622 201.507 557.56 199.284 556.259 197.542C549.02 187.844 535.961 184.501 530.265 186.351C526.236 187.662 527.413 197.89 526.542 197.542C510.349 191.022 502.987 195.634 508.94 215.51L508.932 215.502ZM548.631 214.382C549.775 212.988 555.098 217.078 553.556 219.309C552.022 221.541 547.146 216.157 548.631 214.382ZM520.863 205.655C522.264 206.542 520.2 211.711 518.035 210.151C516.203 208.815 519.453 204.759 520.863 205.655Z" fill="#3AA176"/>
<path d="M522.986 207.239C523.716 205.795 524.479 204.352 525.316 202.966C526.112 201.647 526.958 200.237 527.994 199.084C527.762 198.802 527.538 198.512 527.306 198.23C527.206 198.113 527.372 197.956 527.472 198.072C527.745 198.379 528.002 198.702 528.268 199.009C528.318 199.043 528.359 199.084 528.384 199.142C529.387 200.345 530.324 201.581 531.228 202.842C532.82 203.182 534.395 203.688 535.929 204.202C537.521 204.733 539.088 205.289 540.638 205.936C540.796 206.002 540.721 206.268 540.556 206.202C539.03 205.521 537.471 204.866 535.888 204.335C534.387 203.829 532.861 203.439 531.344 203.008C531.841 203.705 532.322 204.41 532.787 205.123C535.639 205.944 538.433 207.247 541.103 208.516C543.914 209.852 546.617 211.403 549.311 212.962C549.46 213.054 549.311 213.286 549.17 213.195C546.534 211.619 543.789 210.266 541.003 208.964C538.4 207.745 535.705 206.741 533.077 205.579C539.693 215.907 543.657 227.82 548.955 238.853C549.029 239.01 548.781 239.143 548.714 238.986C547.097 235.12 545.232 231.345 543.466 227.538C541.882 224.12 540.34 220.686 538.756 217.268C538.292 216.264 537.811 215.269 537.33 214.273C537.62 219.79 537.504 225.397 538.408 230.848C538.441 231.047 538.151 231.08 538.135 230.881C537.753 224.991 536.717 219.184 536.758 213.261C536.758 213.228 536.783 213.211 536.791 213.186C535.672 210.93 534.47 208.707 533.185 206.55C530.996 211.71 528.691 216.953 527.671 222.494C527.638 222.66 527.364 222.585 527.406 222.411C528.898 216.853 530.274 211.295 532.952 206.16C531.543 203.821 530.001 201.573 528.293 199.441C527.555 200.809 526.618 202.112 525.78 203.423C524.968 204.7 524.164 205.994 523.409 207.313C521.801 210.134 520.383 213.004 519.272 216.057C519.214 216.223 518.94 216.14 519.006 215.974C520.267 213.037 521.544 210.084 522.986 207.23V207.239Z" fill="#263238"/>
<path d="M470.848 219.792C475.094 215.536 480.027 209.945 486.585 209.953C492.912 209.961 497.571 215.063 500.249 220.323C503.052 225.823 504.055 232.052 504.843 238.117C505.788 245.367 506.31 252.683 506.518 259.992C506.634 264.048 506.617 268.121 506.518 272.178C506.418 276.276 506.319 280.432 505.589 284.472C505.473 285.127 504.42 285.152 504.379 284.447C504.188 281.029 504.329 277.595 504.345 274.169C504.362 270.801 504.312 267.425 504.188 264.057C503.939 257.246 503.442 250.435 502.646 243.666C501.949 237.752 501.394 231.671 499.619 225.955C498.027 220.804 495.034 214.906 489.811 212.641C482.688 209.555 475.724 215.196 471.056 219.958C470.931 220.082 470.716 219.908 470.84 219.783L470.848 219.792Z" fill="#263238"/>
<path d="M449.2 229.306C449.233 230.185 449.282 231.048 449.34 231.886C451.281 230.525 453.71 229.281 456.297 228.999C462.316 228.36 461.935 232.939 457.914 233.13C454.075 233.313 451.505 233.968 449.647 234.789C450.634 242.745 452.815 249.141 453.146 249.232C453.478 249.307 460.841 248.784 469.057 247.216C467.557 244.022 464.149 239.783 465.89 239.435C467.673 239.078 469.53 242.869 470.492 246.926C474.455 246.121 478.543 245.076 482.066 243.74C479.413 241.442 475.325 238.589 476.884 237.378C478.451 236.15 481.702 240.181 483.65 243.101C485.582 242.272 487.298 241.351 488.65 240.314C485.076 235.071 476.378 234.001 477.514 230.21C478.675 226.344 486.792 231.679 490.441 238.705C494.736 234.25 495.987 227.946 495.54 222.562C491.8 222.13 484.612 222.918 485.126 220.231C485.615 217.676 490.847 218.057 495.1 219.625C494.578 217.186 493.691 215.104 492.605 213.71C488.666 208.65 476.644 215.087 476.644 215.087C476.644 215.087 477.929 202.993 473.344 200.902C470.699 199.699 466.039 199.708 461.355 202.47C463.983 202.686 467.15 203.515 468.427 205.34C470.061 207.663 467.482 208.932 465.848 207.854C464.696 207.091 462.549 204.701 458.668 204.386C457.159 205.639 455.692 207.232 454.324 209.198C453.884 209.82 453.47 210.483 453.055 211.197C456.836 209.621 461.844 208.816 467.134 211.454C472.349 214.042 469.439 219.459 464.953 217.352C460.517 215.27 456.197 213.179 451.438 214.374C449.689 218.397 449.117 223.167 449.15 227.863C450.932 226.568 453.569 225.025 456.869 224.154C462.051 222.794 463.618 225.888 457.922 226.469C454.307 226.834 451.264 228.161 449.183 229.323L449.2 229.306ZM455.501 220.986C455.144 219.302 458.817 218.82 459.431 220.189C459.937 221.351 455.849 222.67 455.501 220.986ZM486.95 230.285C487.298 229.372 489.752 230.409 489.529 231.554C489.222 233.08 486.61 231.206 486.95 230.285ZM469.588 236.183C471.379 235.47 474.181 239.924 472.225 240.945C470.268 241.965 468.12 236.772 469.588 236.183Z" fill="#3AA176"/>
<path d="M453.844 248.319C456.547 243.798 459.216 239.26 462.052 234.822C463.37 232.756 464.755 230.732 466.189 228.741C465.974 228.7 465.758 228.634 465.543 228.592C465.186 228.517 464.83 228.451 464.465 228.385C463.636 228.244 462.798 228.119 461.961 228.036C461.173 227.953 460.385 227.912 459.589 227.904C458.769 227.895 457.865 227.862 457.052 228.036C456.953 228.061 456.936 227.895 457.027 227.904C457.873 227.937 458.735 227.829 459.581 227.812C460.402 227.804 461.223 227.821 462.044 227.87C462.815 227.92 463.578 227.995 464.34 228.111C464.763 228.177 465.178 228.252 465.601 228.335C465.849 228.385 466.115 228.418 466.363 228.492C467.823 226.477 469.348 224.511 470.915 222.578C466.181 220.404 461.306 218.604 456.132 217.858C456.049 217.841 456.082 217.708 456.165 217.725C461.322 218.546 466.496 219.882 471.164 222.279C472.026 221.217 472.897 220.164 473.768 219.11C474.746 217.932 475.791 216.787 476.67 215.535C476.728 215.452 476.844 215.543 476.777 215.618C475.55 216.929 474.439 218.372 473.353 219.815C473.361 219.815 473.37 219.815 473.378 219.815C475.326 221.118 477.126 222.677 478.875 224.237C480.674 225.83 482.424 227.48 484.132 229.173C484.198 229.231 484.099 229.33 484.041 229.272C482.357 227.597 480.608 225.996 478.784 224.477C476.96 222.959 475.036 221.566 473.204 220.064C473.195 220.064 473.204 220.048 473.187 220.039C472.764 220.595 472.35 221.151 471.927 221.698C471.711 221.972 471.504 222.254 471.288 222.528C471.28 222.553 471.264 222.569 471.247 222.586C470.542 223.499 469.846 224.419 469.149 225.34C470.003 226.477 470.625 227.829 471.239 229.106C471.844 230.384 472.375 231.695 472.856 233.022C473.859 235.768 474.539 238.63 475.111 241.492C475.127 241.575 474.995 241.616 474.978 241.533C474.439 238.688 473.544 235.942 472.516 233.229C471.993 231.844 471.396 230.5 470.774 229.156C470.211 227.937 469.531 226.759 469.008 225.523C468.403 226.327 467.798 227.14 467.209 227.953C467.035 228.194 466.869 228.434 466.703 228.667C466.728 228.716 466.712 228.791 466.645 228.791C466.637 228.791 466.629 228.791 466.621 228.791C464.763 231.379 462.997 234.034 461.281 236.722C461.397 236.896 461.447 237.103 461.513 237.311C461.621 237.634 461.729 237.966 461.82 238.298C462.01 238.961 462.168 239.633 462.292 240.305C462.408 240.944 462.5 241.583 462.558 242.23C462.624 242.943 462.558 243.723 462.715 244.42C462.74 244.528 462.566 244.536 462.583 244.42C462.69 243.773 462.525 243.026 462.433 242.379C462.334 241.682 462.201 240.986 462.044 240.305C461.894 239.683 461.729 239.069 461.546 238.455C461.455 238.148 461.355 237.842 461.248 237.543C461.19 237.385 461.115 237.211 461.057 237.045C460.253 238.306 459.457 239.575 458.669 240.845C457.11 243.375 455.576 245.905 454.026 248.435C453.951 248.559 453.744 248.452 453.819 248.319H453.844Z" fill="#263238"/>
<path d="M495.498 283.02C495.564 280.456 495.971 277.876 496.253 275.338C496.526 272.783 496.816 270.22 497.09 267.665C497.612 262.737 497.911 257.693 499.072 252.857C500.067 248.701 501.899 244.719 505.091 241.782C506.708 240.298 508.756 239.086 510.995 238.962C513.283 238.838 515.389 239.634 517.263 240.895C519.402 242.338 521.044 244.379 522.536 246.453C524.07 248.593 525.43 250.8 526.649 253.131C526.698 253.222 526.557 253.272 526.508 253.189C524.261 249.298 521.176 245.939 517.611 243.218C515.969 241.965 514.096 241.019 512.006 240.878C509.933 240.737 508.093 241.724 506.567 243.043C503.582 245.64 501.857 249.456 500.829 253.205C499.611 257.652 499.213 262.331 498.607 266.885C498.242 269.597 497.903 272.302 497.546 275.014C497.19 277.71 496.966 280.473 496.394 283.136C496.269 283.708 495.49 283.592 495.506 283.011L495.498 283.02Z" fill="#263238"/>
<path d="M508.093 263.135C508.831 264.164 509.776 265.102 510.879 265.981C510.456 263.484 509.95 259.046 511.21 256.682C513.167 253.007 515.489 254.84 514.32 258.034C512.636 262.588 512.421 265.666 512.437 267.084C514.916 268.718 517.91 270.037 520.936 271.099C520.671 269.871 520.497 268.345 520.654 266.719C521.044 262.795 524.045 262.87 523.266 266.951C522.926 268.718 522.851 270.411 522.851 271.746C529.7 273.895 536.101 274.733 536.101 274.733C538.655 271.331 540.437 268.071 541.581 264.969C538.389 264.172 531.922 263.99 532.063 261.7C532.245 258.631 538.505 260.995 542.17 263.218C543.074 260.273 543.389 257.503 543.273 254.956C541.838 254.483 539.202 253.903 534.467 253.496C527.892 252.932 528.216 249.199 532.983 249.282C536.499 249.348 540.943 251.497 543.049 252.617C541.681 243.674 534.857 237.934 529.385 237.718C520.19 237.345 523.498 248.792 523.498 248.792C523.498 248.792 517.271 244.404 511.393 244.52C505.522 244.645 501.791 254.375 508.084 263.127L508.093 263.135ZM532.652 246.586C532.444 245.3 536.549 244.985 536.764 246.644C537.013 248.502 532.859 247.897 532.652 246.586ZM539.252 260.016C539.169 259.178 540.935 259.029 541.341 260.091C541.606 260.78 539.326 260.854 539.252 260.016ZM517.172 260.796C518.556 260.995 519.344 265.948 516.964 265.848C515.149 265.773 516.003 260.622 517.172 260.796Z" fill="#3AA176"/>
<path d="M519.088 266.304C519.32 265.691 519.519 265.06 519.718 264.43C519.536 265.068 519.378 265.707 519.262 266.354C519.237 266.479 519.046 266.429 519.088 266.304Z" fill="#263238"/>
<path d="M521.517 258.333C521.948 257.063 522.429 255.811 522.927 254.558C523.192 253.894 523.466 253.231 523.756 252.575C524.005 252.028 524.204 251.397 524.577 250.916C524.295 250.385 524.029 249.854 523.83 249.307C523.814 249.257 523.88 249.216 523.913 249.257C524.618 250.078 525.157 251.107 525.704 252.036C525.961 252.468 526.202 252.916 526.451 253.347C526.965 253.38 527.495 253.496 528.001 253.587C528.548 253.687 529.104 253.803 529.651 253.928C530.198 254.052 530.745 254.176 531.293 254.309C531.832 254.442 532.371 254.616 532.926 254.699C533.05 254.716 533.001 254.923 532.876 254.873C532.329 254.658 531.732 254.55 531.16 254.425C530.629 254.309 530.107 254.218 529.568 254.143C529.037 254.069 528.498 254.002 527.96 253.944C527.562 253.903 527.147 253.886 526.741 253.845C526.956 254.235 527.188 254.616 527.404 254.998C527.437 255.056 527.47 255.122 527.504 255.18C527.943 255.147 528.391 255.255 528.822 255.338C529.294 255.421 529.767 255.512 530.24 255.62C531.201 255.836 532.155 256.06 533.1 256.325C535.09 256.881 537.055 257.52 539.02 258.158C539.128 258.192 539.062 258.357 538.954 258.324C537.005 257.661 535.015 257.13 533.009 256.673C532.072 256.458 531.127 256.242 530.182 256.051C529.709 255.952 529.236 255.852 528.764 255.753C528.399 255.678 528.018 255.628 527.669 255.512C528.681 257.379 529.634 259.278 530.513 261.219C532.42 265.442 534.029 269.789 535.662 274.119C535.704 274.227 535.538 274.293 535.496 274.185C533.971 269.855 532.039 265.691 530.016 261.576C529.651 260.829 529.27 260.083 528.896 259.336C528.863 259.486 528.83 259.643 528.797 259.793C528.706 260.307 528.615 260.813 528.523 261.327C528.349 262.356 528.175 263.376 528.026 264.405C527.719 266.487 527.213 268.685 527.288 270.801C527.288 270.933 527.089 270.925 527.114 270.801C527.28 269.78 527.28 268.719 527.346 267.69C527.412 266.611 527.495 265.533 527.62 264.463C527.744 263.426 527.868 262.397 528.042 261.369C528.125 260.854 528.217 260.34 528.316 259.834C528.382 259.461 528.399 259.038 528.606 258.722C528.067 257.644 527.537 256.557 526.989 255.479C526.475 254.467 525.961 253.463 525.439 252.459C525.215 252.036 524.975 251.605 524.742 251.173C524.61 251.704 524.336 252.219 524.129 252.725C523.897 253.305 523.656 253.886 523.416 254.467C522.885 255.753 522.396 257.047 521.907 258.341C521.21 260.182 520.448 262.066 519.867 263.982C520.431 262.099 520.904 260.191 521.534 258.333H521.517Z" fill="#263238"/>
<path d="M480.125 285.93L482.438 351.506H518.837L521.142 285.93H480.125Z" fill="#37474F"/>
<path d="M480.125 285.93L480.473 295.685L520.844 294.449L521.142 285.93H480.125Z" fill="#263238"/>
<path d="M477.779 291.463H523.506V280.388H477.779V291.463Z" fill="#37474F"/>
<path d="M503.882 287.316H453.23V351.499H503.882V287.316Z" fill="#DBDBDB"/>
<path d="M505.075 294.799H452.027V295.686H505.075V294.799Z" fill="#C7C7C7"/>
<path d="M505.075 296.939H452.027V297.827H505.075V296.939Z" fill="#C7C7C7"/>
<path d="M505.075 299.088H452.027V299.975H505.075V299.088Z" fill="#C7C7C7"/>
<path d="M505.075 338.84H452.027V339.727H505.075V338.84Z" fill="#C7C7C7"/>
<path d="M505.075 340.98H452.027V341.868H505.075V340.98Z" fill="#C7C7C7"/>
<path d="M505.075 343.121H452.027V344.009H505.075V343.121Z" fill="#C7C7C7"/>
<path d="M489.338 312.427C478.982 312.427 469.58 305.666 463.519 300C456.985 293.886 452.815 287.681 452.773 287.623L453.685 287.018C453.851 287.258 470.16 311.34 489.347 311.34C494.18 311.34 497.878 309.805 500.333 306.786C505.896 299.934 503.384 287.557 503.351 287.432L504.42 287.208C504.528 287.739 507.065 300.207 501.178 307.474C498.508 310.768 494.529 312.435 489.338 312.435V312.427Z" fill="#263238"/>
<path d="M466.23 287.316H492.398C492.398 287.316 491.759 289.598 488.982 290.552C486.204 291.506 486.378 299.594 480.981 299.594C475.583 299.594 473.029 291.829 471.752 290.46C470.476 289.092 466.23 287.316 466.23 287.316Z" fill="#FF8B13"/>
<path d="M151.64 287.316H100.988V351.499H151.64V287.316Z" fill="#DBDBDB"/>
<path d="M152.843 294.799H99.7949V295.686H152.843V294.799Z" fill="#C7C7C7"/>
<path d="M152.843 296.939H99.7949V297.827H152.843V296.939Z" fill="#C7C7C7"/>
<path d="M152.843 299.088H99.7949V299.975H152.843V299.088Z" fill="#C7C7C7"/>
<path d="M152.843 338.84H99.7949V339.727H152.843V338.84Z" fill="#C7C7C7"/>
<path d="M152.843 340.98H99.7949V341.868H152.843V340.98Z" fill="#C7C7C7"/>
<path d="M152.843 343.121H99.7949V344.009H152.843V343.121Z" fill="#C7C7C7"/>
<path d="M137.106 312.427C126.75 312.427 117.348 305.666 111.287 300C104.753 293.886 100.582 287.681 100.541 287.623L101.453 287.018C101.619 287.258 117.928 311.34 137.114 311.34C141.948 311.34 145.646 309.805 148.1 306.786C153.664 299.934 151.151 287.557 151.118 287.432L152.188 287.208C152.296 287.739 154.833 300.207 148.946 307.474C146.276 310.768 142.296 312.435 137.106 312.435V312.427Z" fill="#263238"/>
<path d="M343.513 351.9L343.955 347.584L207.514 333.597L207.072 337.913L343.513 351.9Z" fill="#263238"/>
<path d="M209.836 335.587L199.141 334.492L201.172 314.774L187.052 313.322L186.189 321.726L187.002 321.809L187.773 314.218L200.276 315.496L198.245 335.222L209.753 336.4L209.836 335.587Z" fill="#C7C7C7"/>
<path d="M222.875 340.351L223.482 334.418L205.873 332.613L205.265 338.546L222.875 340.351Z" fill="#455A64"/>
<path d="M192.075 351.764L195.648 316.932L180.307 315.356L176.734 350.189L192.075 351.764Z" fill="#FF8B13"/>
<path opacity="0.3" d="M192.075 351.764L195.648 316.932L180.307 315.356L176.734 350.189L192.075 351.764Z" fill="black"/>
<path d="M177.988 342.067C180.21 342.83 183.568 335.008 183.527 327.832C183.519 325.617 183.054 324.356 184.257 323.61C185.459 322.863 187.78 323.029 187.341 321.436C186.902 319.843 184.771 320.192 184.306 319.03C183.85 317.869 183.958 317.711 183.262 317.147C182.565 316.583 181.006 315.944 180.376 316.533C179.746 317.122 179.804 320.49 179.522 322.631C179.24 324.771 176.861 341.677 177.997 342.067H177.988Z" fill="#FF8B13"/>
<path d="M150.911 293.271C150.911 293.271 153.945 303.392 157.544 313.728C161.142 324.065 164.343 347.806 163.679 348.429C163.008 349.042 155.015 325.956 152.702 315.412C150.397 304.869 148.738 294.043 148.738 294.043L150.911 293.28V293.271Z" fill="#FFC727"/>
<path d="M150.961 293.014L153.374 299.891L149.543 300.82L148.391 293.735L150.961 293.014Z" fill="#DBDBDB"/>
<path d="M150.96 293.013C151.375 291.561 151.433 289.828 150.048 287.845C148.381 285.456 148.862 283.598 148.862 283.598C148.862 283.598 144.559 289.114 148.381 293.735L150.952 293.013H150.96Z" fill="#455A64"/>
<path d="M148.912 283.325C149.128 283.673 148.689 285.407 149.493 286.767C150.256 288.045 146.342 290.152 146.666 288.111C147.03 285.797 148.506 282.678 148.912 283.325Z" fill="#FFC727"/>
<path d="M169.783 299.193C169.783 299.193 166.847 307.381 163.44 315.735C160.032 324.08 156.375 343.467 156.898 344.006C157.42 344.545 164.998 325.897 167.353 317.327C169.708 308.75 171.532 299.923 171.532 299.923L169.783 299.202V299.193Z" fill="#A6A6A6"/>
<path d="M169.757 298.979L167.477 304.528L170.586 305.466L171.838 299.684L169.757 298.979Z" fill="#DBDBDB"/>
<path d="M169.758 298.979C170.089 294.408 173.713 290.691 173.713 290.691C173.713 290.691 175.189 296.05 171.847 299.684L169.766 298.979H169.758Z" fill="#455A64"/>
<path d="M160.769 288.451C160.769 288.451 161.93 297.07 163.522 305.946C165.114 314.823 164.641 334.541 164.02 334.956C163.398 335.371 159.874 315.561 159.368 306.685C158.854 297.809 158.912 288.791 158.912 288.791L160.778 288.451H160.769Z" fill="#37474F"/>
<path d="M160.843 288.252L161.904 294.15L158.671 294.416L158.654 288.501L160.843 288.252Z" fill="#DBDBDB"/>
<path d="M158.654 288.502C158.654 288.502 160.727 288.294 160.843 288.245C160.959 288.195 162.51 282.255 162.377 282.089C162.244 281.923 155.404 282.886 155.446 283.524C155.479 284.171 158.654 288.493 158.654 288.493V288.502Z" fill="#455A64"/>
<path d="M167.717 321.111H150.852C148.847 321.111 147.221 322.738 147.221 324.745V347.864C147.221 349.871 148.847 351.498 150.852 351.498H167.717C169.723 351.498 171.348 349.871 171.348 347.864V324.745C171.348 322.738 169.723 321.111 167.717 321.111Z" fill="#455A64"/>
<path d="M168.297 316.316H150.264V321.111H168.297V316.316Z" fill="#455A64"/>
<path d="M151.376 321.012C155.571 320.805 165.827 320.796 167.22 321.029C167.253 321.029 167.253 321.087 167.22 321.087C165.836 321.319 156.259 321.601 151.376 321.103C151.318 321.103 151.318 321.02 151.376 321.012Z" fill="#263238"/>
<path d="M292.262 351.392C294.385 352.105 356.843 351.931 359.157 350.446C359.43 350.297 359.977 329.608 359.977 329.608C359.894 329.317 360.898 327.302 362.423 324.498C366.702 316.625 375.084 302.514 375.084 302.514L337.781 292.137L323.247 322.98L319.541 330.852C319.541 330.852 311.108 334.369 303.754 337.862C303.746 337.87 303.737 337.87 303.737 337.878C299.21 340.019 295.272 341.968 294.36 342.69C292.013 344.581 290.123 350.695 292.245 351.392H292.262Z" fill="#AD6359"/>
<path d="M292.262 351.393C294.384 352.106 356.843 351.932 359.156 350.447C359.43 350.298 359.977 329.609 359.977 329.609C359.894 329.318 360.897 327.302 362.423 324.499L323.255 322.98L319.548 330.853C319.548 330.853 311.116 334.37 303.762 337.863C303.753 337.871 303.745 337.871 303.745 337.879C299.218 340.02 295.28 341.969 294.368 342.691C292.021 344.582 290.131 350.696 292.253 351.393H292.262Z" fill="#EBEBEB"/>
<path d="M292.005 351.632C294.194 352.354 356.727 352.014 359.098 350.496C360.002 349.923 360.889 340.275 359.977 329.607L319.665 329.873C319.665 329.873 296.557 340.715 294.127 342.665C291.715 344.614 289.816 350.91 292.005 351.632Z" fill="#FFC727"/>
<path opacity="0.1" d="M359.098 350.497C358.228 351.052 349.356 351.451 338.32 351.699L358.991 329.625H359.969C360.881 340.285 359.994 349.941 359.09 350.505L359.098 350.497Z" fill="black"/>
<path d="M292.883 349.119C303.363 348.803 345.665 348.53 356.046 349.019C356.129 349.019 356.129 349.077 356.046 349.086C345.665 349.625 303.363 349.558 292.883 349.293C292.659 349.293 292.659 349.127 292.883 349.119Z" fill="#263238"/>
<path d="M298.14 340.391C300.628 340.275 303.065 341.444 304.425 342.921C305.735 344.339 306.863 346.33 306.796 348.504C306.796 348.57 306.68 348.57 306.672 348.504C306.05 344.406 302.303 340.822 298.14 340.524C298.057 340.524 298.057 340.399 298.14 340.391Z" fill="#263238"/>
<path d="M316.38 330.943C320.575 330.86 325.451 332.32 328.071 335.738C328.17 335.87 327.979 336.011 327.855 335.945C324.049 334.012 320.443 332.569 316.305 331.457C316.015 331.382 316.073 330.943 316.372 330.943H316.38Z" fill="#263238"/>
<path d="M313.147 332.22C317.343 332.137 322.218 333.597 324.838 337.015C324.938 337.148 324.747 337.289 324.623 337.222C320.817 335.289 317.21 333.846 313.073 332.734C312.783 332.651 312.841 332.22 313.139 332.22H313.147Z" fill="#263238"/>
<path d="M309.913 333.505C314.109 333.422 318.984 334.882 321.604 338.3C321.703 338.433 321.513 338.574 321.388 338.516C317.583 336.583 313.976 335.14 309.838 334.028C309.548 333.953 309.606 333.514 309.905 333.514L309.913 333.505Z" fill="#263238"/>
<path d="M306.679 334.785C310.874 334.702 315.749 336.162 318.37 339.579C318.469 339.712 318.278 339.853 318.154 339.787C314.348 337.854 310.741 336.411 306.604 335.299C306.314 335.216 306.372 334.785 306.67 334.785H306.679Z" fill="#263238"/>
<path d="M353.326 339.072C358.035 339.064 358.06 346.381 353.342 346.389C348.633 346.397 348.608 339.081 353.326 339.072Z" fill="#263238"/>
<path d="M312.152 325.916C314.432 328.828 317.889 330.645 320.891 332.702C321.197 332.918 321.554 332.661 321.645 332.362C321.712 332.362 321.778 332.329 321.778 332.238C321.521 328.621 320.045 324.473 317.906 321.528C316.588 319.703 313.901 317.994 311.787 319.769C309.789 321.445 310.825 324.224 312.152 325.916ZM311.944 322.441C312.334 317.87 316.471 321.354 317.392 322.739C317.98 323.627 318.478 324.606 318.942 325.56C319.912 327.567 320.576 329.683 321.338 331.765C319.929 330.67 318.436 329.699 316.985 328.654C315.261 327.41 311.729 324.954 311.944 322.432V322.441Z" fill="#263238"/>
<path d="M336.662 329.476C336.322 326.738 333.188 326.158 330.982 326.597C327.409 327.302 323.504 329.335 320.859 331.815C320.792 331.873 320.817 331.948 320.875 331.989C320.734 332.271 320.817 332.694 321.19 332.753C324.78 333.292 328.553 334.312 332.209 333.731C334.34 333.391 336.985 332.064 336.662 329.476ZM326.803 332.462C325.029 332.238 323.28 331.931 321.497 331.774C323.47 330.762 325.394 329.667 327.475 328.854C328.47 328.464 329.49 328.09 330.526 327.842C332.143 327.452 337.541 327.717 334.722 331.334C333.171 333.325 328.909 332.728 326.795 332.462H326.803Z" fill="#263238"/>
<path d="M365.234 324.032L321.133 318.358C321.133 318.358 341.314 275.752 353.875 252.599C360.865 239.725 380.739 238.655 390.755 253.669C404.137 273.728 414.593 292.567 420.579 303.003L430.57 303.633L428.788 319.976L395.821 328.147C383.16 329.955 373.75 307.549 373.551 307.931C372.008 310.934 365.234 324.032 365.234 324.032Z" fill="#0764A7"/>
<path d="M373.318 308.029C374.512 305.441 375.424 302.704 376.477 300.049C377.497 297.486 378.517 294.923 379.529 292.359C381.568 287.174 383.691 282.006 385.664 276.797C386.775 273.868 387.787 270.915 388.815 267.962C388.84 267.887 388.948 267.921 388.931 267.995C388.143 270.782 387.322 273.562 386.46 276.324C386.692 275.843 386.933 275.37 387.173 274.897C387.853 273.62 388.55 272.359 389.254 271.089C389.279 271.04 389.354 271.089 389.329 271.131C388.682 272.4 388.035 273.661 387.364 274.922C387.032 275.544 386.659 276.166 386.311 276.788C383.873 284.528 381.087 292.152 377.704 299.527C376.37 302.43 374.794 305.209 373.459 308.104C373.418 308.195 373.285 308.112 373.327 308.021L373.318 308.029Z" fill="#263238"/>
<path d="M364.074 316.234C366.122 312.915 370.939 302.903 372.672 299.435C376.171 292.425 379.363 285.283 382.364 278.057C384.064 273.968 385.639 269.853 387.206 265.714C387.215 265.689 387.264 265.697 387.248 265.73C384.926 273.171 382.124 280.48 379.064 287.647C376.005 294.831 366.039 314.209 364.206 316.325C364.14 316.399 364.016 316.325 364.074 316.242V316.234Z" fill="#263238"/>
<path d="M390.367 271.113C394.305 277.791 398.326 284.428 402.281 291.097C404.279 294.465 406.278 297.842 408.259 301.226C409.188 302.819 410.092 304.428 411.062 306.004C411.974 307.489 413.052 308.717 414.619 309.53C416.343 310.426 418.308 310.832 420.174 311.33C422.321 311.911 424.46 312.533 426.625 313.072C426.724 313.097 426.683 313.246 426.583 313.222C424.659 312.749 422.711 312.351 420.779 311.927C419.021 311.538 417.214 311.214 415.506 310.633C413.955 310.111 412.612 309.306 411.559 308.037C410.432 306.676 409.619 305.075 408.74 303.557C404.785 296.697 400.872 289.803 396.975 282.901C394.761 278.978 392.572 275.045 390.333 271.138C390.325 271.113 390.358 271.097 390.367 271.122V271.113Z" fill="#263238"/>
<path d="M366.097 317.834C363.452 317.411 360.749 317.245 358.087 316.963C355.418 316.681 352.748 316.399 350.078 316.109C344.755 315.537 326.605 313.056 325.229 312.641C325.146 312.617 325.171 312.476 325.254 312.467C326.547 312.401 338.42 313.712 341.09 314.043C346.422 314.707 351.72 315.528 357.026 316.3C358.543 316.524 360.052 316.773 361.57 317.005C363.079 317.237 364.596 317.528 366.122 317.693C366.213 317.702 366.188 317.851 366.097 317.834Z" fill="#263238"/>
<path d="M339.207 359.754C339.954 357.638 378.682 308.62 381.269 307.716C381.568 307.6 398.159 319.943 398.159 319.943C398.83 320.889 430.992 314.792 430.992 314.792L430.503 353.441L372.207 350.977C372.207 350.977 364.231 355.448 356.951 359.065C356.934 359.065 356.934 359.073 356.926 359.065C352.44 361.313 348.477 363.196 347.349 363.47C344.414 364.159 338.445 361.861 339.207 359.754Z" fill="#AD6359"/>
<path d="M347.34 363.462C348.467 363.197 352.431 361.305 356.916 359.057C356.924 359.066 356.933 359.057 356.941 359.057C364.221 355.432 372.197 350.961 372.197 350.961L385.173 351.508L406.183 319.131C401.706 319.828 398.373 320.234 398.157 319.927C398.157 319.927 381.575 307.584 381.268 307.708C378.673 308.612 339.952 357.631 339.198 359.746C338.435 361.853 344.405 364.151 347.34 363.462Z" fill="#EBEBEB"/>
<path d="M338.858 359.812C339.646 357.647 378.541 308.653 381.202 307.724C382.214 307.367 390.348 312.635 398.158 319.935L373.044 351.491C373.044 351.491 350.242 362.972 347.216 363.678C344.19 364.374 338.071 361.977 338.858 359.812Z" fill="#FFC727"/>
<path d="M341.371 360.666C348.095 352.611 374.445 319.504 380.473 311.034C380.523 310.968 380.473 310.926 380.423 310.993C373.591 318.824 347.507 352.147 341.239 360.558C341.106 360.733 341.239 360.832 341.371 360.666Z" fill="#263238"/>
<path d="M351.479 361.919C353.104 360.036 353.692 357.398 353.377 355.415C353.07 353.507 352.2 351.392 350.45 350.097C350.401 350.064 350.326 350.147 350.376 350.197C353.211 353.217 353.717 358.385 351.379 361.836C351.329 361.902 351.429 361.985 351.479 361.919Z" fill="#263238"/>
<path d="M370.175 353.408C372.828 350.156 374.694 345.428 373.632 341.247C373.591 341.081 373.359 341.147 373.334 341.28C372.505 345.469 371.402 349.202 369.727 353.143C369.611 353.416 369.984 353.64 370.175 353.408Z" fill="#263238"/>
<path d="M367.175 355.166C369.828 351.914 371.694 347.186 370.632 343.005C370.591 342.839 370.359 342.905 370.334 343.038C369.505 347.227 368.402 350.96 366.727 354.9C366.611 355.174 366.984 355.398 367.175 355.166Z" fill="#263238"/>
<path d="M364.173 356.916C366.826 353.664 368.692 348.936 367.63 344.755C367.589 344.589 367.357 344.655 367.332 344.788C366.503 348.977 365.4 352.71 363.725 356.65C363.609 356.924 363.982 357.148 364.173 356.916Z" fill="#263238"/>
<path d="M361.171 358.668C363.824 355.416 365.69 350.688 364.628 346.507C364.587 346.341 364.355 346.407 364.33 346.54C363.501 350.729 362.398 354.462 360.723 358.402C360.607 358.676 360.98 358.9 361.171 358.668Z" fill="#263238"/>
<path d="M386.609 319.321C389.528 315.621 383.79 311.083 380.871 314.783C377.953 318.483 383.691 323.021 386.609 319.321Z" fill="#263238"/>
<path d="M376.121 363.927C378.824 363.363 379.139 360.194 378.517 358.029C377.514 354.528 375.176 350.804 372.489 348.365C372.423 348.307 372.357 348.34 372.315 348.39C372.025 348.274 371.602 348.39 371.577 348.771C371.337 352.396 370.632 356.246 371.511 359.837C372.025 361.936 373.567 364.466 376.121 363.927ZM372.34 354.346C372.415 352.562 372.581 350.787 372.589 349.004C373.758 350.895 375.01 352.72 375.988 354.727C376.453 355.681 376.917 356.677 377.249 357.689C377.771 359.265 377.953 364.674 374.115 362.16C372 360.775 372.249 356.478 372.34 354.354V354.346Z" fill="#263238"/>
<path d="M377.762 339.231C375.05 341.744 373.525 345.345 371.726 348.505C371.543 348.829 371.825 349.161 372.132 349.227C372.132 349.293 372.173 349.36 372.265 349.343C375.846 348.796 379.851 346.979 382.62 344.606C384.328 343.138 385.804 340.326 383.864 338.36C382.032 336.502 379.354 337.762 377.77 339.231H377.762ZM381.203 338.733C385.788 338.75 382.654 343.163 381.352 344.191C380.514 344.855 379.586 345.428 378.665 345.967C376.742 347.103 374.694 347.941 372.679 348.87C373.658 347.369 374.495 345.809 375.415 344.274C376.51 342.449 378.665 338.725 381.194 338.733H381.203Z" fill="#263238"/>
<path d="M412.012 305.451C412.012 305.451 461.777 297.62 478.219 301.66C501.144 307.284 504.37 334.618 487.057 345.435C465.118 359.139 387.818 353.515 387.818 353.515L408.53 316.724C408.53 316.724 440.709 309.972 469.72 311.656L411.44 320.208L412.004 305.459L412.012 305.451Z" fill="#0764A7"/>
<path d="M407.097 319.197C407.122 319.148 407.131 319.056 407.147 318.998C407.164 318.948 407.172 318.89 407.189 318.841C407.222 318.716 407.255 318.592 407.288 318.467C407.363 318.21 407.454 317.961 407.545 317.712C407.636 317.464 407.744 317.223 407.852 316.982C407.968 316.734 408.117 316.534 408.258 316.302C408.275 316.277 408.3 316.277 408.316 316.261C408.325 316.252 408.341 316.244 408.349 316.236C408.366 316.228 408.383 316.219 408.399 316.211C408.416 316.211 408.432 316.194 408.449 316.186C411.989 315.539 435.993 312.271 439.558 311.897C443.156 311.524 446.763 311.225 450.362 310.968C457.55 310.454 464.772 310.28 471.977 310.562C472.649 310.587 473.329 310.636 474 310.67C474.141 310.62 474.299 310.595 474.448 310.562C474.796 310.479 475.144 310.387 475.493 310.321C476.148 310.197 476.803 310.105 477.458 310.006C478.826 309.807 480.194 309.674 481.554 309.425C481.637 309.409 481.67 309.55 481.579 309.566C480.21 309.873 478.859 310.28 477.491 310.578C477.093 310.661 476.703 310.752 476.305 310.827C478.942 311.035 481.578 311.317 484.207 311.632C484.29 311.64 484.29 311.781 484.207 311.773C480.625 311.466 477.01 311.358 473.42 311.35C469.855 311.341 466.281 311.35 462.716 311.499C455.502 311.806 448.289 312.362 441.092 313.042C437.054 313.424 412.578 316.833 408.524 316.933C408.507 316.933 408.49 316.933 408.474 316.924C408.441 317.024 408.407 317.123 408.358 317.223C408.242 317.464 408.126 317.696 408.001 317.936C407.877 318.16 407.761 318.384 407.628 318.6C407.562 318.708 407.495 318.816 407.421 318.915C407.388 318.965 407.354 319.023 407.313 319.073C407.28 319.114 407.222 319.189 407.205 319.239C407.172 319.338 407.039 319.272 407.089 319.181L407.097 319.197Z" fill="#263238"/>
<path d="M398.83 351.002C400.057 348.886 401.11 346.622 402.238 344.432C403.366 342.242 404.501 340.043 405.629 337.853C407.893 333.482 415.985 318.799 416.781 317.778C416.831 317.712 416.93 317.795 416.905 317.869C416.516 319.014 411.45 328.737 410.289 330.91C407.959 335.249 405.521 339.496 403.109 343.776C402.42 344.996 401.707 346.207 401.011 347.418C400.314 348.629 399.576 349.824 398.93 351.076C398.888 351.151 398.789 351.076 398.83 351.002Z" fill="#263238"/>
<path d="M418.182 321.736C420.322 321.221 422.502 320.898 424.658 320.5C426.822 320.093 428.978 319.695 431.142 319.297C435.47 318.509 439.798 317.754 444.134 317.04C452.782 315.622 461.463 314.477 470.186 313.739C475.111 313.324 480.036 313.083 484.961 312.793C485.069 312.793 485.06 312.967 484.961 312.975C476.189 313.224 467.416 314.353 458.711 315.539C450.088 316.717 441.489 318.036 432.9 319.446C430.47 319.844 428.049 320.251 425.628 320.657C423.166 321.072 420.703 321.603 418.224 321.893C418.133 321.901 418.1 321.76 418.191 321.736H418.182Z" fill="#263238"/>
<path d="M436.822 218C436.822 218 434.583 213.62 431.176 213.645C427.776 213.67 427.154 216.108 425.065 216.307C422.984 216.498 418.672 215.378 416.326 217.527C413.979 219.675 414.435 224.562 413.333 225.905C412.23 227.249 408.897 227.15 407.877 230.659C406.699 234.74 408.772 237.436 408.515 239.576C408.092 243.135 405.729 245.831 407.147 250.17C408.673 254.84 412.097 255.064 414.228 256.74C416.276 258.341 416.384 263.136 421.176 263.907C425.977 264.671 427.478 261.286 430.388 260.282C433.298 259.287 437.203 261.833 440.387 259.768C443.571 257.702 442.85 254.235 443.803 252.542C444.765 250.85 447.194 251.008 448.355 247.972C449.516 244.944 447.302 241.908 447.203 240.663C447.029 238.54 448.355 237.519 448.123 234.5C447.891 231.48 444.889 229.099 444.326 228.137C442.982 225.814 444.782 221.384 442.501 219.161C439.6 216.349 436.822 218.008 436.822 218.008V218Z" fill="#263238"/>
<path d="M414.891 219.949C414.509 222.023 414.418 224.603 412.337 225.764C408.979 227.183 406.533 229.713 407.022 233.562C407.155 234.923 407.685 236.208 408.117 237.602C408.316 238.299 408.506 239.062 408.365 239.875C408.183 240.663 407.893 241.269 407.652 241.949C407.163 243.276 406.757 244.628 406.616 246.022C406.442 247.416 406.616 248.843 407.155 250.17C406.458 248.917 406.176 247.441 406.226 245.997C406.276 243.865 407.122 241.758 407.661 239.759C407.768 237.677 406.342 235.819 406.21 233.653C405.787 230.659 407.395 227.482 410.148 226.204C410.795 225.856 411.483 225.598 412.096 225.308C414.07 224.304 414.261 221.89 414.891 219.957V219.949Z" fill="#263238"/>
<path d="M437.758 260.581C441.738 260.166 443.089 258.831 443.636 254.865C443.777 254.202 443.869 253.455 444.275 252.833C445.228 251.721 446.737 251.141 447.575 249.996C448.752 248.445 449.017 246.139 448.404 244.255C448.13 243.252 447.707 242.273 447.359 241.277C447.882 242.198 448.371 243.136 448.785 244.123C449.606 246.114 449.498 248.685 448.197 250.477C447.508 251.381 446.58 252.02 445.734 252.626C445.311 252.941 444.922 253.198 444.797 253.571C443.703 258.068 443.247 260.822 437.758 260.589V260.581Z" fill="#263238"/>
<path d="M421.201 261.244C407.346 274.716 390.995 288.686 383.052 287.798C376.867 287.11 362.938 280.647 350.111 270.286C347.673 268.312 365.707 251.464 367.606 252.584C372.655 255.578 386.767 265.151 387.762 264.728C389.072 264.173 404.809 256.441 415.48 251.738C429.849 245.416 428.356 254.268 421.192 261.236L421.201 261.244Z" fill="#AD6359"/>
<path d="M353.344 272.866C350.906 271.796 340.152 265.898 337.524 263.592C334.896 261.286 327.823 254.085 329.39 251.895C330.957 249.705 333.196 251.646 333.196 251.646C333.196 251.646 330.692 248.137 332.466 246.072C334.241 244.006 337.623 247.142 337.623 247.142C337.623 247.142 335.31 243.351 337.234 241.418C339.149 239.485 342.026 243.21 342.026 243.21C342.026 243.21 339.754 239.842 342.001 238.913C344.704 237.801 348.195 244.487 351.288 246.818C351.992 247.349 366.27 256.541 366.27 256.541L353.344 272.858V272.866Z" fill="#AD6359"/>
<path d="M341.778 242.903C344.357 247.814 346.338 249.515 351.064 252.253C351.155 252.302 351.097 252.452 350.998 252.41C346.123 250.154 343.337 248.379 341.538 243.02C341.446 242.754 341.662 242.671 341.778 242.903Z" fill="#263238"/>
<path d="M337.433 246.752C340.559 251.622 342.682 253.488 347.425 256.715C347.491 256.765 347.425 256.881 347.35 256.84C342.433 254.061 339.697 252.227 337.21 246.951C337.094 246.711 337.284 246.536 337.433 246.752Z" fill="#263238"/>
<path d="M333.445 251.804C336.811 256.3 339.058 258.441 344.058 260.987C344.174 261.046 344.099 261.228 343.975 261.178C338.619 259.079 335.8 256.425 333.321 251.92C333.155 251.614 333.238 251.522 333.445 251.804Z" fill="#263238"/>
<path d="M370.068 256.715C370.068 256.715 367.398 250.294 365.599 247.739C363.8 245.176 353.602 238.108 351.952 240.224C349.821 242.961 354.903 248.204 357.731 250.444C357.731 250.444 352.789 256.765 355.625 261.319C358.46 265.873 370.068 256.715 370.068 256.715Z" fill="#AD6359"/>
<path d="M351.611 241.169C351.462 245.068 355.367 247.772 357.946 250.153C358.145 250.336 358.062 250.56 357.896 250.676C356.005 253.463 354.14 257.951 355.408 261.269C355.45 261.369 355.309 261.435 355.259 261.344C353.41 257.968 354.878 253.413 357.15 250.493C354.463 248.096 350.674 245.209 351.569 241.169C351.569 241.144 351.611 241.144 351.603 241.169H351.611Z" fill="#263238"/>
<path d="M372.023 254.483L353.865 275.571C353.865 275.571 375.912 289.258 384.469 288.586C393.034 287.906 412.991 271.639 422.692 260.124C432.616 248.345 423.405 247.524 415.86 251.265C408.323 254.998 388.249 264.09 387.686 264.065C387.122 264.032 372.032 254.492 372.032 254.492L372.023 254.483Z" fill="#F6B0A8"/>
<path d="M368.566 267.641C369.776 266.181 370.995 264.721 372.222 263.269C373.441 261.825 374.627 260.316 375.945 258.964C376.003 258.905 376.119 258.972 376.069 259.046C375.05 260.556 373.856 261.983 372.728 263.418C371.534 264.945 370.323 266.463 369.113 267.981C366.717 270.975 364.213 273.871 361.659 276.741C361.593 276.816 361.501 276.716 361.56 276.65C363.831 273.589 366.136 270.577 368.566 267.641Z" fill="#263238"/>
<path opacity="0.1" d="M422.692 260.124C412.991 271.638 393.034 287.905 384.469 288.586C380.257 288.917 372.778 285.765 366.27 282.488L423.787 249.314C427.576 249.588 428.977 252.649 422.692 260.132V260.124Z" fill="black"/>
<path d="M400.812 285.052L396.285 300.208C396.285 300.208 398.234 300.465 404.668 301.261L405.256 301.328L447.244 305.791C447.244 305.791 439.616 264.952 432.9 255.777C427.568 248.485 420.371 248.17 415.305 252.276C414.02 253.313 401.343 268.004 398.739 274.649C397.222 278.515 400.821 285.06 400.821 285.06L400.812 285.052Z" fill="#F6B0A8"/>
<path d="M414.161 283.642C412.288 283.567 410.389 283.575 408.507 283.849C407.57 283.982 406.633 284.173 405.704 284.388C405.24 284.496 404.776 284.579 404.303 284.662C403.822 284.745 403.316 284.82 402.836 284.753C402.794 284.753 402.777 284.828 402.819 284.836C403.275 284.928 403.714 285.019 404.179 285.035C404.626 285.052 405.074 285.011 405.522 284.944C406.475 284.82 407.429 284.637 408.382 284.496C410.306 284.214 412.221 283.94 414.145 283.833C414.236 283.833 414.244 283.642 414.153 283.642H414.161Z" fill="#263238"/>
<path d="M418.357 286.454C416.881 286.006 415.364 285.641 413.838 285.409C413.075 285.292 412.304 285.234 411.533 285.193C411.16 285.176 410.795 285.168 410.422 285.168C410.016 285.168 409.601 285.226 409.195 285.218C409.153 285.218 409.137 285.301 409.178 285.301C409.56 285.326 409.941 285.425 410.314 285.483C410.696 285.533 411.077 285.583 411.458 285.641C412.221 285.749 412.984 285.865 413.747 285.956C415.281 286.147 416.806 286.354 418.324 286.62C418.407 286.636 418.423 286.487 418.349 286.462L418.357 286.454Z" fill="#263238"/>
<path d="M426.748 252.002C426.416 252.881 421.292 258.199 417.171 257.452C415.828 257.203 416.839 249.812 416.839 249.812L416.79 249.248L416.102 241.367L425.852 236.796L427.253 236.207C427.253 236.207 427.303 238.372 427.328 241.077C427.328 241.201 427.328 241.325 427.328 241.458C427.328 241.607 427.345 241.757 427.336 241.898C427.345 242.304 427.353 242.711 427.353 243.126C427.353 243.441 427.353 243.739 427.353 244.071C427.353 244.403 427.345 244.718 427.336 245.05C427.245 248.294 426.872 251.628 426.739 252.002H426.748Z" fill="#AD6359"/>
<path d="M427.336 241.084C424.334 246.883 419.144 248.716 416.798 249.255L416.109 241.375L425.86 236.804L427.261 236.215C427.261 236.215 427.311 238.38 427.336 241.084Z" fill="#263238"/>
<path d="M410.762 224.146C403.267 235.827 409.411 241.642 411.931 243.259C414.22 244.728 422.188 249.431 430.861 238.581C439.525 227.738 436.465 220.554 431.416 216.929C426.367 213.296 418.266 212.466 410.771 224.146H410.762Z" fill="#AD6359"/>
<path d="M413.912 223.267C414.21 223.408 414.509 223.499 414.816 223.607C415.164 223.731 415.429 223.872 415.81 223.781C416.009 223.731 416.167 223.466 416.134 223.267C416.068 222.802 415.678 222.537 415.263 222.371C414.816 222.188 414.418 222.155 413.953 222.296C413.506 222.429 413.514 223.076 413.912 223.267Z" fill="#263238"/>
<path d="M422.138 228.194C421.881 227.987 421.682 227.746 421.449 227.514C421.184 227.249 420.952 227.066 420.877 226.684C420.836 226.477 421.01 226.228 421.209 226.17C421.665 226.037 422.063 226.278 422.395 226.585C422.751 226.917 422.942 227.257 423.008 227.738C423.074 228.203 422.486 228.468 422.146 228.186L422.138 228.194Z" fill="#263238"/>
<path d="M418.962 229.398C418.962 229.398 418.995 229.481 418.97 229.506C418.389 230.261 417.851 231.232 418.365 231.995C418.381 232.02 418.348 232.053 418.323 232.036C417.552 231.298 418.282 230.029 418.953 229.398H418.962Z" fill="#263238"/>
<path d="M420.239 229.083C421.558 229.888 419.858 232.459 418.639 231.721C417.437 230.991 419.137 228.419 420.239 229.083Z" fill="#263238"/>
<path d="M420.653 229.548C420.786 229.839 420.836 230.245 421.085 230.453C421.375 230.693 421.789 230.577 422.171 230.453C422.212 230.436 422.221 230.478 422.196 230.511C421.881 231.008 421.358 231.39 420.778 231.116C420.247 230.867 420.189 230.204 420.396 229.623C420.438 229.515 420.604 229.432 420.653 229.548Z" fill="#263238"/>
<path d="M414.534 226.012C414.534 226.012 414.443 226.012 414.426 226.045C413.962 226.874 413.282 227.754 412.378 227.58C412.353 227.58 412.329 227.613 412.362 227.629C413.34 228.044 414.227 226.874 414.534 226.012Z" fill="#263238"/>
<path d="M414.319 224.71C413.067 223.814 411.367 226.394 412.528 227.215C413.672 228.028 415.372 225.456 414.319 224.71Z" fill="#263238"/>
<path d="M413.672 224.527C413.382 224.527 413.017 224.644 412.76 224.503C412.47 224.337 412.445 223.922 412.437 223.532C412.437 223.491 412.404 223.499 412.379 223.532C412.039 224.013 411.865 224.635 412.279 225.042C412.652 225.415 413.249 225.199 413.689 224.785C413.772 224.71 413.788 224.527 413.672 224.527Z" fill="#263238"/>
<path d="M414.401 236C414.094 236.083 413.746 236.241 413.422 236.1C413.116 235.959 412.85 235.644 412.643 235.395C412.618 235.37 412.577 235.386 412.585 235.42C412.627 235.859 412.966 236.316 413.398 236.465C413.812 236.606 414.177 236.382 414.467 236.092C414.509 236.05 414.451 236 414.409 236.009L414.401 236Z" fill="#263238"/>
<path d="M412.868 230.939C412.868 230.939 411.939 232.043 411.582 232.607C411.549 232.657 411.674 232.773 411.856 232.905C411.856 232.914 411.864 232.922 411.881 232.922C412.785 233.71 414.02 234.009 415.148 233.569C415.222 233.536 415.189 233.436 415.114 233.436C414.02 233.511 413.1 233.129 412.196 232.582C412.254 232.399 413.846 230.749 413.763 230.682C413.473 230.458 412.727 230.284 412.287 230.16C414.153 227.812 416.383 225.78 418.207 223.407C418.273 223.324 418.157 223.216 418.083 223.274C415.595 225.24 413.39 227.895 411.4 230.276C411.151 230.566 412.586 230.881 412.876 230.931L412.868 230.939Z" fill="#263238"/>
<path d="M412.047 232.74C412.047 232.74 412.063 233.844 412.602 234.623C412.801 234.914 413.058 235.154 413.423 235.295C414.161 235.577 414.584 235.022 414.824 234.449C415.023 233.985 415.082 233.503 415.082 233.503C415.082 233.503 413.564 233.703 412.047 232.749V232.74Z" fill="#263238"/>
<path d="M412.602 234.623C412.801 234.913 413.058 235.154 413.422 235.295C414.16 235.577 414.583 235.021 414.824 234.449C414.111 234.042 413.124 234.017 412.602 234.623Z" fill="#FF9CBD"/>
<path d="M429.269 238.771C426.857 237.792 429.162 232.309 429.162 232.309C429.162 232.309 420.472 225.307 424.029 217.028C424.029 217.028 419.593 221.093 413.309 220.537C413.309 220.537 418.441 212.151 426.16 214.283C426.16 214.283 436.309 215.933 437.312 225.274C438.315 234.615 430.886 239.426 429.269 238.771Z" fill="#263238"/>
<path d="M424.319 216.432C423.523 217.552 423.017 218.879 422.752 220.24C422.486 221.609 422.486 223.044 422.802 224.412C422.851 224.761 422.992 225.084 423.083 225.424L423.241 225.922C423.307 226.088 423.382 226.246 423.457 226.403C423.606 226.719 423.747 227.042 423.904 227.349C424.087 227.648 424.277 227.938 424.468 228.228C424.568 228.369 424.65 228.519 424.758 228.66L425.09 229.058L425.753 229.854C426.242 230.344 426.756 230.8 427.271 231.248C426.856 230.7 426.392 230.203 425.985 229.655L425.405 228.826L425.115 228.411C425.032 228.27 424.957 228.112 424.874 227.971C424.717 227.673 424.559 227.382 424.393 227.092C424.253 226.793 424.136 226.478 424.004 226.171L423.813 225.715L423.672 225.234C423.589 224.91 423.457 224.603 423.415 224.271C423.1 222.977 423.092 221.633 423.233 220.306C423.307 219.642 423.448 218.979 423.631 218.332C423.805 217.676 424.045 217.046 424.327 216.424L424.319 216.432Z" fill="#263238"/>
<path d="M427.91 237.37C427.91 237.37 432.611 234.947 433.846 236.814C435.082 238.689 430.14 243.185 427.702 242.87C425.256 242.554 425.505 240.29 425.505 240.29L427.91 237.37Z" fill="#AD6359"/>
<path d="M432.394 238.075C432.394 238.075 432.411 238.142 432.378 238.133C430.645 237.959 429.186 238.888 427.934 239.991C428.639 239.685 429.368 239.701 429.816 240.58C429.841 240.63 429.774 240.663 429.733 240.639C429.211 240.207 428.738 240.083 428.091 240.348C427.635 240.531 427.221 240.854 426.823 241.128C426.69 241.219 426.491 241.028 426.615 240.912C426.624 240.904 426.632 240.896 426.649 240.887C427.569 239.046 430.338 237.237 432.394 238.084V238.075Z" fill="#263238"/>
<path d="M416.557 251.289C416.557 251.289 406.218 265.4 406.417 266.271C406.616 267.134 414.783 268.577 415.877 268.237C416.972 267.888 426.756 252.011 426.756 252.011L416.565 251.297L416.557 251.289Z" fill="#AD6359"/>
<path d="M334.299 280.796C328.943 273.654 326.928 264.778 328.254 254.168L338.577 171.378C338.643 170.814 338.9 170.358 339.348 170.009C339.788 169.661 340.293 169.528 340.857 169.595L360.657 172.067C361.221 172.133 361.677 172.399 362.017 172.838C362.365 173.286 362.498 173.784 362.431 174.348L351.81 259.502C351.362 263.119 351.893 266.163 353.419 268.643C354.944 271.124 357.166 272.551 360.101 272.916C363.037 273.281 365.516 272.443 367.547 270.402C369.578 268.361 370.814 265.541 371.27 261.924L381.891 176.77C381.957 176.206 382.214 175.75 382.662 175.402C383.102 175.053 383.607 174.92 384.171 174.987L403.971 177.459C404.535 177.525 404.991 177.791 405.331 178.23C405.679 178.678 405.812 179.176 405.745 179.74L395.423 262.53C394.096 273.14 389.967 281.253 383.027 286.86C376.079 292.468 367.588 294.65 357.556 293.397C347.407 292.128 339.647 287.922 334.299 280.78V280.796Z" fill="#FF8B13"/>
<path d="M426.199 266.735C410.106 268.054 385.315 265.631 380.547 262.396C376.319 259.526 371.584 238.779 370.15 229.836C369.611 226.493 392.769 221.292 393.274 224.875C393.88 229.181 396.002 245.54 396.989 246.112C398.075 246.742 415.976 252.516 427.882 257.253C438.678 261.542 432.285 266.237 426.199 266.735Z" fill="#AD6359"/>
<path d="M386.119 213.378C386.99 214.573 387.628 214.116 387.711 211.495C387.811 208.832 385.92 198.388 389.635 198.04C393.357 197.683 395.779 212.515 395.298 216.879C394.825 221.25 392.503 228.136 392.503 228.136C391.45 225.348 388.258 218.82 386.119 213.378Z" fill="#AD6359"/>
<path d="M371.485 233.901C368.558 225.829 364.752 215.866 366.709 206.592C367.09 204.775 368.226 203.921 368.226 203.921C369.03 199.748 371.236 198.869 371.236 198.869C373.176 195.211 375.556 194.63 375.556 194.63C375.556 194.63 376.551 189.736 379.602 189.852C383.026 189.968 380.962 196.812 382.122 201.275C384.792 211.495 391.433 225.274 392.495 228.144L371.476 233.901H371.485Z" fill="#AD6359"/>
<path d="M377.396 213.942C376.675 210.922 375.879 207.969 375.572 204.858C375.232 201.449 375.473 198.114 375.63 194.713C375.63 194.605 375.489 194.588 375.465 194.696C374.196 200.81 374.992 208.176 377.255 213.975C377.313 214.116 377.43 214.091 377.388 213.942H377.396Z" fill="#263238"/>
<path d="M371.469 216.446C370.93 213.468 370.01 208.217 371.336 198.876C371.336 198.843 371.286 198.827 371.278 198.86C369.612 204.808 369.728 210.548 371.32 216.471C371.369 216.654 371.494 216.646 371.461 216.446H371.469Z" fill="#263238"/>
<path d="M368.26 217.733C367.53 212.631 367.721 209.321 368.243 203.938C368.243 203.904 368.193 203.896 368.185 203.929C366.941 209.985 367.174 212.316 368.086 217.783C368.119 217.974 368.285 217.932 368.26 217.733Z" fill="#263238"/>
<path d="M368.043 233.636L394.55 228.924L398.116 245.125C407.021 248.8 424.192 254.839 430.286 257.942C437.441 261.583 434.846 266.279 426.729 267.241C408.156 269.448 382.636 265.822 378.789 263.168C373.267 259.368 368.043 233.627 368.043 233.627V233.636Z" fill="#F6B0A8"/>
<path d="M371.791 239.41C373.714 239.41 381.575 238.132 383.531 237.792C385.447 237.46 391.01 235.934 393.017 235.577C393.124 235.561 393.133 235.395 393.017 235.411C391.027 235.735 373.623 238.663 371.782 239.302C371.716 239.327 371.733 239.401 371.799 239.401L371.791 239.41Z" fill="#263238"/>
<path d="M373.424 252.99C374.195 255.081 375.032 257.146 376.06 259.112C376.973 260.73 377.86 262.63 379.676 263.318C384.062 264.928 388.813 265.392 393.472 265.956C397.883 266.454 402.319 266.819 406.755 267.142C410.644 267.458 416.141 267.781 420.071 268.055C415.618 268.121 411.166 267.989 406.714 267.798C400.039 267.449 393.348 266.968 386.756 265.815C384.294 265.375 381.773 264.853 379.452 263.824C377.536 263.011 376.599 261.02 375.745 259.27C374.817 257.238 374.054 255.13 373.424 252.999V252.99Z" fill="#263238"/>
<path d="M415.477 268.006C416.48 268.105 417.466 268.412 418.453 268.611C417.433 268.686 416.422 268.379 415.477 268.006Z" fill="#263238"/>
<path d="M423.984 255.295C417.044 252.724 410.038 250.326 403.148 247.622C402.236 247.241 400.147 246.469 399.276 246.063C398.82 245.822 397.833 245.581 397.725 244.951C396.382 239.7 395.445 234.266 394.525 228.924L394.558 228.949L393.787 229.057L394.55 228.891C394.625 228.841 397.037 239.716 397.07 239.733C397.41 241.168 397.933 243.64 398.347 244.926C406.174 248.468 416.165 251.786 423.984 255.287V255.295Z" fill="#263238"/>
<path d="M423.312 254.317C422.3 254.334 421.281 254.143 420.277 254.06C421.289 253.869 422.325 254.06 423.312 254.317Z" fill="#263238"/>
<path d="M32.5434 259.029C32.5434 259.029 10.8947 286.579 10.8782 286.604C6.45058 292.46 2.67802 297.67 0.978298 300.548C0.970007 300.565 0.953424 300.573 0.953424 300.598C0.3067 301.685 -0.0332444 302.432 0.0165036 302.73C0.0165036 302.755 0.0165036 302.772 0.0165036 302.797C0.86222 305.294 46.5889 342.043 48.6203 342.789C50.6434 343.544 52.9235 337.812 52.2934 334.975C51.6384 332.121 40.4285 310.221 40.4285 310.221L60.8169 281.817L32.5434 259.038V259.029Z" fill="#EB9481"/>
<path d="M48.6203 342.788C46.5972 342.05 0.870511 305.293 0.0165036 302.787C0.00821231 302.771 0.0165036 302.754 0.0165036 302.729C-0.0332444 302.431 0.3067 301.684 0.953424 300.597C0.953424 300.572 0.970007 300.564 0.978298 300.556C2.66973 297.677 6.45058 292.459 10.8782 286.611C10.8782 286.611 11.9394 285.259 13.5977 283.16L43.1149 306.471L40.4285 310.22C40.4285 310.22 51.6384 332.12 52.2851 334.974C52.9318 337.819 50.6434 343.552 48.6203 342.797V342.788Z" fill="#DBDBDB"/>
<path d="M48.6203 342.789C46.5889 342.042 0.870476 305.293 0.0164685 302.787C-0.323476 301.842 4.64303 294.865 10.8781 286.603C10.9444 286.52 11.0108 286.429 11.0771 286.346L40.843 309.723L40.4284 310.212C40.4284 310.212 51.6383 332.112 52.285 334.966C52.9235 337.803 50.6434 343.535 48.6203 342.78V342.789Z" fill="#EF5F3D"/>
<path d="M49.5232 340.598C41.9698 334.211 10.8939 309.183 2.94248 303.442C2.87615 303.393 2.84298 303.442 2.90102 303.492C10.2554 309.979 41.5304 334.766 49.4237 340.723C49.5895 340.847 49.6807 340.723 49.5232 340.598Z" fill="#263238"/>
<path d="M42.8323 312.295C40.2537 309.292 36.1743 306.778 32.1199 307.077C31.9623 307.085 31.9789 307.309 32.1033 307.359C35.851 308.819 39.1343 310.461 42.5172 312.668C42.7576 312.826 43.023 312.51 42.8406 312.295H42.8323Z" fill="#263238"/>
<path d="M43.9592 315.381C41.3806 312.378 37.3013 309.864 33.2468 310.163C33.0893 310.171 33.1059 310.395 33.2302 310.445C36.9779 311.905 40.2613 313.547 43.6442 315.754C43.8846 315.912 44.1499 315.596 43.9675 315.381H43.9592Z" fill="#263238"/>
<path d="M45.0881 318.457C42.5095 315.454 38.4302 312.94 34.3757 313.239C34.2182 313.247 34.2348 313.471 34.3591 313.521C38.1068 314.981 41.3902 316.624 44.7731 318.83C45.0135 318.988 45.2788 318.673 45.0964 318.457H45.0881Z" fill="#263238"/>
<path d="M10.8359 284.877L41.5802 309.606C41.5802 309.606 95.0427 244.37 96.7507 236.083C98.6992 226.651 104.122 152.812 103.997 149.129C103.848 144.666 98.9314 125.047 98.9314 125.047H63.8922C63.8922 125.047 58.992 221.615 57.9722 224.61C56.8777 227.829 10.8442 284.877 10.8442 284.877H10.8359Z" fill="#2C3D68"/>
<path d="M44.3405 302.281C39.8217 297.918 22.2026 283.923 20.0137 282.77C19.964 282.745 19.8976 282.828 19.9308 282.87C21.5227 284.761 36.5135 297.08 44.2244 302.422C44.3073 302.48 44.4151 302.348 44.3405 302.281Z" fill="#15285A"/>
<path d="M100.663 139.566C100.199 139.367 99.7097 139.367 99.2371 139.234C98.7396 139.093 98.2504 138.919 97.7612 138.67C96.8409 138.206 95.9123 137.575 95.0583 136.754C94.1794 135.908 93.5575 134.738 92.9854 133.419C92.6786 132.714 91.2525 128.956 91.2359 128.923C91.1945 128.832 91.0867 128.89 91.1033 128.981C91.2028 129.504 92.1812 132.747 92.4714 133.56C93.0186 135.086 93.6819 136.464 94.6354 137.442C95.564 138.396 96.5921 139.052 97.6286 139.458C98.1592 139.666 98.6981 139.823 99.2371 139.89C99.718 139.948 100.257 140.031 100.705 139.807C100.779 139.765 100.73 139.599 100.663 139.574V139.566Z" fill="#15285A"/>
<path d="M69.6707 126.757L68.9327 146.152L68.0953 165.538L66.2297 204.312C65.8815 210.774 65.5333 217.228 65.127 223.69C65.0855 224.487 65.0192 225.316 64.9363 226.146C64.9363 226.245 64.928 226.345 64.8617 226.519C64.8119 226.635 64.7622 226.743 64.7041 226.834C64.5964 227.025 64.4886 227.199 64.3808 227.373C64.1569 227.722 63.9248 228.054 63.6926 228.385C62.7557 229.713 61.7773 231.007 60.7989 232.301C58.8422 234.881 56.8274 237.411 54.8209 239.949C50.7913 245.01 46.7285 250.045 42.6409 255.056L23.5957 280.034L42.3341 254.807C46.3471 249.738 50.3684 244.67 54.3317 239.56C56.3133 237.005 58.2867 234.441 60.2351 231.87C61.2052 230.584 62.1753 229.29 63.0956 227.971C63.3278 227.639 63.5517 227.307 63.7672 226.975C63.9579 226.635 64.2315 226.303 64.215 226.021C64.2813 225.241 64.3393 224.453 64.3891 223.64C64.7705 217.187 65.0938 210.724 65.4172 204.262L67.4652 165.497L68.5347 146.119L69.6872 126.74L69.6707 126.757Z" fill="#37474F"/>
<path d="M97.4546 230.932C97.1976 233.312 96.9655 235.079 96.7582 236.075C95.7964 240.729 73.9321 270.203 60.8152 286.371L58.502 219.741C60.1022 199.649 63.8913 125.039 63.8913 125.039H81.3529L97.4546 230.932Z" fill="#15285A"/>
<path d="M75.0449 297.67C75.0449 297.67 81.8189 332.055 81.8272 332.08C83.3777 339.256 84.8702 345.519 85.9397 348.679C85.9397 348.696 85.9397 348.713 85.9563 348.729C86.3626 349.924 86.7025 350.67 86.9679 350.828C86.9927 350.845 87.001 350.861 87.0176 350.861C89.4635 351.848 147.121 341.106 149.012 340.052C150.911 339.007 148.05 333.54 145.48 332.171C142.893 330.803 118.989 325.037 118.989 325.037L110.747 291.059L75.0532 297.662L75.0449 297.67Z" fill="#EB9481"/>
<path d="M149.013 340.061C147.131 341.114 89.4645 351.857 87.0185 350.87C87.0019 350.87 86.9936 350.853 86.9688 350.837C86.7117 350.679 86.3635 349.933 85.9655 348.738C85.9489 348.721 85.9489 348.705 85.9489 348.688C84.8711 345.528 83.3786 339.265 81.8281 332.089C81.8281 332.081 81.4965 330.397 80.9824 327.775L117.887 320.566L118.982 325.054C118.982 325.054 142.886 330.82 145.472 332.188C148.051 333.549 150.903 339.024 149.013 340.069V340.061Z" fill="#DBDBDB"/>
<path d="M149.013 340.059C147.122 341.113 89.4727 351.856 87.0184 350.869C86.0815 350.512 84.0253 342.191 81.8281 332.079C81.8032 331.971 81.7866 331.863 81.7617 331.764L118.882 324.414L118.982 325.045C118.982 325.045 142.885 330.81 145.472 332.179C148.034 333.547 150.895 339.006 149.004 340.051L149.013 340.059Z" fill="#EF5F3D"/>
<path d="M147.944 337.944C138.177 339.52 98.9503 346.779 89.4153 349.077C89.3407 349.093 89.3489 349.151 89.4236 349.135C99.1327 347.791 138.309 340.209 147.969 338.102C148.176 338.06 148.143 337.911 147.936 337.944H147.944Z" fill="#263238"/>
<path d="M122.133 324.58C118.178 324.58 113.61 326.04 111.189 329.309C111.098 329.433 111.28 329.566 111.396 329.508C114.945 327.616 118.328 326.198 122.208 325.07C122.482 324.987 122.415 324.58 122.133 324.58Z" fill="#263238"/>
<path d="M125.209 325.732C121.255 325.732 116.686 327.192 114.265 330.461C114.174 330.585 114.356 330.718 114.472 330.66C118.021 328.769 121.404 327.35 125.284 326.222C125.558 326.139 125.491 325.732 125.209 325.732Z" fill="#263238"/>
<path d="M128.276 326.879C124.321 326.879 119.752 328.339 117.331 331.607C117.24 331.732 117.423 331.865 117.539 331.806C121.087 329.915 124.47 328.497 128.351 327.368C128.624 327.285 128.558 326.879 128.276 326.879Z" fill="#263238"/>
<path d="M94.6382 338.185C92.6566 333.863 85.9406 336.941 87.9222 341.271C89.9039 345.593 96.6198 342.516 94.6382 338.185Z" fill="#263238"/>
<path d="M91.9592 125.047C91.9592 125.047 91.0389 140.037 86.9015 150.713C86.9015 150.713 80.94 154.43 80.3182 155.019L119.851 323.941L80.683 331.116C80.683 331.116 65.1119 244.586 63.9014 239.276C61.9446 230.74 46.4978 158.204 45.8097 154.081C44.3753 145.462 52.3349 125.055 52.3349 125.055H91.9675L91.9592 125.047Z" fill="#2C3D68"/>
<path d="M114.212 315.829C104.205 317.331 85.06 321.387 82.7052 322.366C82.6555 322.391 82.6721 322.491 82.7301 322.491C85.2756 322.449 108.599 317.82 114.245 316.012C114.345 315.979 114.312 315.813 114.212 315.829Z" fill="#15285A"/>
<path d="M56.8022 139.573C57.5318 139.415 58.3112 139.465 59.0491 139.365C59.8285 139.266 60.5996 139.133 61.3624 138.934C62.7968 138.552 64.2229 137.997 65.4998 137.242C66.8181 136.47 67.7136 135.334 68.5095 134.048C68.9324 133.359 70.8726 129.676 70.8892 129.651C70.9472 129.568 71.1213 129.626 71.1047 129.718C70.9969 130.232 69.7284 133.442 69.3387 134.239C68.609 135.74 67.6721 137.076 66.2377 137.972C64.8365 138.851 63.2611 139.415 61.6443 139.739C60.8152 139.905 59.9612 140.012 59.1155 140.029C58.3527 140.046 57.4904 140.079 56.769 139.805C56.6446 139.755 56.711 139.598 56.8105 139.573H56.8022Z" fill="#15285A"/>
<path d="M87.7718 150.308C84.4553 151.419 81.2465 153.004 78.1787 154.671C78.0543 154.738 78.1373 154.92 78.2616 154.87C81.4952 153.518 84.7869 152.224 87.9376 150.689C88.1863 150.573 88.0205 150.216 87.7635 150.308H87.7718Z" fill="#15285A"/>
<path d="M88.9915 128.217C88.9915 128.11 88.7925 128.076 88.7842 128.201C88.7759 132.025 88.5023 135.385 88.1458 138.96C87.98 140.619 86.5622 149.778 83.6934 149.081C83.2125 148.965 82.972 148.492 82.9057 147.762C82.8228 146.891 83.1627 145.821 83.312 144.95C83.6519 143.033 83.9255 141.109 84.1079 139.176C84.4479 135.559 84.4976 131.942 84.0913 128.325C84.0748 128.209 83.9089 128.217 83.9089 128.334C83.8675 133.344 83.6934 138.346 82.8974 143.299C82.516 145.68 81.2806 149.263 83.7763 149.645C86.3134 150.043 88.0049 144.045 88.3365 142.403C89.2403 137.824 89.3232 132.863 88.9998 128.217H88.9915Z" fill="#15285A"/>
<path d="M83.7756 149.321C83.5102 149.935 83.2947 150.573 83.1122 151.212C82.9713 151.71 82.7806 152.249 82.8303 152.772C82.8386 152.871 82.9713 152.888 83.0293 152.813C83.3693 152.39 83.5185 151.801 83.7092 151.303C83.9331 150.714 84.1735 150.134 84.3808 149.545C84.5218 149.155 83.9414 148.939 83.7756 149.321Z" fill="#15285A"/>
<path d="M55.3023 125.048C54.3073 128.847 53.3704 132.663 52.5164 136.496C51.6707 140.328 50.8581 144.177 50.3772 148.06L50.2446 149.52C50.2031 150.001 50.2197 150.49 50.2031 150.971L50.6343 153.85L51.7287 159.632L54.0752 171.179L63.6931 217.311L73.3276 263.442L80.2177 295.314L84.9355 318.4L79.8198 295.397L72.6975 263.567L62.8806 217.468C59.6967 202.08 56.4879 186.709 53.445 171.287L51.2147 159.715L50.1699 153.908L49.7637 150.963C49.7637 149.959 49.8549 148.972 49.9792 147.993C50.5265 144.086 51.4136 140.254 52.3257 136.429C53.246 132.613 54.2493 128.814 55.3106 125.031L55.3023 125.048Z" fill="#15285A"/>
<path d="M80.4097 82.2099C86.7691 85.2378 114.537 88.7136 121.22 84.093C127.828 79.5221 127.264 39.4962 123.807 26.7542C122.588 22.2746 104.935 30.8522 103.062 34.6101C101.453 37.837 104.073 67.8503 102.796 68.514C100.632 69.6256 93.6344 70.4551 82.4742 72.0147C71.9774 73.483 75.9324 80.0696 80.4097 82.2016V82.2099Z" fill="#EB9481"/>
<path d="M100.782 46.0584L127.33 41.0645C127.33 41.0645 130.605 80.7503 121.924 86.4576C119.163 88.2744 97.1168 87.76 81.7363 83.6869C76.3055 82.2518 68.5614 73.8567 83.8921 71.4261C99.2228 69.0038 102.017 68.1411 102.291 67.7595C102.572 67.3779 100.773 46.0584 100.773 46.0584H100.782Z" fill="#9FC5EF"/>
<path d="M125.673 48.2074C123.757 48.3485 121.85 48.7715 119.96 49.1033C118.094 49.4352 116.237 49.7753 114.38 50.132C110.632 50.8454 106.843 51.4759 103.145 52.4299C103.062 52.4547 103.071 52.5792 103.162 52.5709C106.992 52.2225 110.806 51.4842 114.587 50.7873C116.486 50.4389 118.376 50.0573 120.267 49.6591C122.083 49.2776 123.948 48.9374 125.706 48.3485C125.789 48.3236 125.747 48.1991 125.664 48.2074H125.673Z" fill="#263238"/>
<path opacity="0.1" d="M97.6484 86.5237C92.2258 85.9098 86.6458 84.9807 81.7373 83.6783C76.3314 82.2515 68.6287 73.9145 83.7106 71.459L97.6484 86.5237Z" fill="black"/>
<path d="M103.367 137.209L46.5299 138.411C45.8334 137.565 57.4164 89.9157 70.3592 73.0177C73.3689 69.0856 81.9173 69.2433 84.9271 71.6656C93.5418 78.5923 104.03 136.462 103.359 137.209H103.367Z" fill="#9FC5EF"/>
<path d="M150.629 13.3481C151.102 13.6467 151.409 14.0781 151.533 14.6256L155.231 30.7521C155.355 31.3079 155.272 31.8223 154.974 32.3034C154.675 32.7845 154.252 33.0832 153.697 33.2076L132.919 37.9775C132.363 38.102 132.148 38.4421 132.28 38.9979L153.722 132.447C153.846 133.003 153.763 133.517 153.465 133.99C153.166 134.471 152.735 134.77 152.188 134.894L132.745 139.357C132.189 139.482 131.675 139.399 131.203 139.1C130.722 138.802 130.423 138.378 130.299 137.823L108.857 44.3734C108.733 43.8176 108.393 43.6019 107.838 43.7347L87.8969 48.3138C87.3414 48.4382 86.8273 48.3553 86.3547 48.0566C85.8738 47.758 85.5753 47.3349 85.4509 46.7791L81.753 30.6526C81.6286 30.0968 81.7116 29.5825 82.01 29.1096C82.3085 28.6368 82.7314 28.3298 83.2869 28.2054L149.104 13.0909C149.659 12.9665 150.173 13.0495 150.646 13.3481H150.629Z" fill="#FF8B13"/>
<path d="M68.0141 86.622C69.9377 94.8263 79.9287 126.913 90.6246 129.999C102.987 133.566 115.557 133.326 126.327 133.757C130.962 133.94 125.365 108.73 121.203 109.244C114.636 110.057 103.949 109.194 101.544 108.871C99.1397 108.547 85.1771 92.5118 77.3833 83.6936C70.3605 75.7465 66.8948 81.794 68.0307 86.622H68.0141Z" fill="#EB9481"/>
<path d="M150.853 103.985C152.387 106.109 150.77 108.282 150.77 108.282C150.77 108.282 152.727 109.012 153.589 110.829C154.576 112.911 151.748 115.367 151.748 115.367C151.748 115.367 153.581 116.52 154.294 118.527C155.032 120.609 152.536 123.496 152.536 123.496C152.536 123.496 153.655 125.504 153.025 127.686C151.955 131.41 146.259 133.036 142.653 134.106C139.046 135.176 125.257 134.139 123.898 133.103L117.555 111.592C117.555 111.592 128.632 102.625 137.827 101.812C141.575 101.48 149.136 101.613 150.861 103.993L150.853 103.985Z" fill="#EB9481"/>
<path d="M150.497 107.959C146.393 107.594 142.413 108.465 138.383 109.104C138.292 109.121 138.317 109.262 138.408 109.245C142.405 108.557 146.492 108.681 150.505 108.15C150.613 108.134 150.613 107.968 150.505 107.951L150.497 107.959Z" fill="#263238"/>
<path d="M151.574 115.085C150.646 115.026 149.701 115.284 148.797 115.474C147.827 115.682 146.857 115.906 145.887 116.138C143.955 116.611 142.031 117.134 140.124 117.706C140.041 117.731 140.058 117.864 140.149 117.847C142.081 117.374 144.013 116.934 145.961 116.545C146.931 116.354 147.91 116.163 148.888 115.98C149.8 115.815 150.77 115.715 151.624 115.342C151.749 115.284 151.724 115.085 151.583 115.076L151.574 115.085Z" fill="#263238"/>
<path d="M152.446 123.504C151.641 123.422 150.738 123.778 149.958 123.986C149.079 124.218 148.201 124.45 147.322 124.674C145.564 125.122 143.806 125.57 142.032 125.96C141.941 125.977 141.966 126.118 142.057 126.101C143.856 125.711 145.672 125.354 147.471 124.956C148.358 124.757 149.237 124.558 150.116 124.351C150.862 124.176 151.824 124.044 152.462 123.587C152.495 123.563 152.479 123.504 152.437 123.496L152.446 123.504Z" fill="#263238"/>
<path d="M117.663 108.88L121.443 135.475C121.443 135.475 97.1084 135.525 88.4937 130.067C79.879 124.608 71.3472 103.645 67.7405 91.6831C64.1254 79.7209 69.0837 71.3341 81.6368 86.4486C94.1981 101.563 100.5 107.677 101.511 108.117C102.523 108.548 117.671 108.888 117.671 108.888L117.663 108.88Z" fill="#9FC5EF"/>
<path d="M100.277 133.773C98.2203 133.143 91.38 132.006 86.629 128.597C83.1384 126.092 76.8618 114.635 72.3928 105.079C70.4526 100.94 69.0929 96.9162 67.1444 92.9758C67.1195 92.926 67.0532 92.9592 67.0698 93.009C67.8409 95.7216 68.7861 98.3845 69.8142 101.014C69.723 100.89 69.6235 100.765 69.5323 100.641C68.7197 99.579 67.8574 98.5338 67.1527 97.3973C67.1029 97.3144 66.9786 97.4056 67.0366 97.4886C67.7745 98.5919 68.4047 99.7615 69.1094 100.89C69.4494 101.429 69.7976 101.968 70.179 102.482C70.32 102.673 70.4775 102.889 70.6433 103.088C76.9862 117.431 82.9062 126.672 86.5544 129.269C90.0119 131.724 94.2653 133.101 100.31 134.047C100.418 134.064 100.376 133.79 100.268 133.765L100.277 133.773Z" fill="#263238"/>
<path d="M116.145 134.388C116.087 132.33 115.747 130.265 115.482 128.224C115.225 126.216 114.96 124.201 114.678 122.193C114.106 118.145 113.633 114.047 112.804 110.04C112.787 109.949 112.646 109.957 112.655 110.057C112.82 114.18 113.426 118.302 113.973 122.384C114.247 124.433 114.553 126.482 114.885 128.523C115.2 130.489 115.465 132.496 115.996 134.421C116.021 134.512 116.154 134.47 116.145 134.388Z" fill="#263238"/>
<path d="M117.788 108.647C115.417 108.398 105.824 108.29 103.461 108.033C102.358 107.917 101.446 107.535 100.609 106.797C99.7214 106.025 85.4603 90.9522 83.9015 89.177C83.8352 89.1023 83.7191 89.2019 83.7854 89.2682C85.4354 91.0518 96.3302 103.57 98.0382 105.37C98.801 106.175 99.5555 107.046 100.434 107.734C101.288 108.398 102.209 108.663 103.278 108.671C105.558 108.696 114.447 108.854 117.556 108.929C117.614 108.929 117.821 110.123 117.879 110.123C117.962 110.123 117.929 110.123 118.004 110.123C118.045 110.123 117.888 108.647 117.78 108.638L117.788 108.647Z" fill="#263238"/>
<path d="M96.627 24.3979C99.2719 21.4945 101.734 15.895 104.288 14.4764C106.593 13.1906 108.268 14.858 108.268 14.858C108.268 14.858 108.508 11.6311 111.029 10.7268C112.331 10.2623 114.213 11.9214 114.213 11.9214C114.213 11.9214 114.511 9.34979 116.808 8.67785C118.64 8.14693 120.257 9.89729 120.257 9.89729C120.257 9.89729 121.7 7.56625 123.731 7.61602C127.86 7.72386 134.071 22.8632 129.452 27.4921C127.305 29.649 125.987 25.8662 125.987 25.8662C125.987 25.8662 126.567 31.756 123.483 33.1165C120.398 34.477 118.98 29.4582 118.98 29.4582C118.98 29.4582 119.494 35.1738 116.153 36.2605C112.671 37.3887 112.115 32.1376 112.115 32.1376C112.115 32.1376 111.211 36.443 108.467 36.6836C103.923 37.0901 106.378 28.6369 104.23 25.6339L97.995 26.0487L96.627 24.3979Z" fill="#EB9481"/>
<path d="M100.15 19.4121C97.4057 21.9422 91.7676 19.578 88.7993 21.6187C84.778 24.3811 91.1375 27.5749 97.9944 26.0485L103.11 23.9332L100.15 19.4121Z" fill="#EB9481"/>
<path d="M120.623 10.055C120.598 10.0053 120.664 9.96378 120.697 10.0053C123.947 14.4849 126.153 20.4079 126.161 25.9825C126.161 26.165 125.863 26.2479 125.83 26.0405C124.727 20.3 123.284 15.2895 120.631 10.0467L120.623 10.055Z" fill="#263238"/>
<path d="M114.213 11.8296C114.188 11.7715 114.28 11.7217 114.321 11.7798C117.646 16.417 119.943 23.153 119.196 29.582C119.171 29.806 118.931 29.9719 118.939 29.7147C119.113 25.4011 116.634 16.5331 114.213 11.8296Z" fill="#263238"/>
<path d="M111.924 32.5863C112.405 26.3978 110.846 20.6822 108.409 15.0329C108.375 14.9582 108.483 14.9251 108.525 14.9748C110.473 17.4137 111.651 21.1716 112.322 24.1746C112.961 27.0531 112.969 29.7741 112.14 32.6029C112.107 32.7107 111.916 32.719 111.924 32.5863Z" fill="#263238"/>
<path d="M83.343 79.5067C80.6234 80.1288 74.977 76.8853 73.0617 72.9864C72.929 72.7209 73.4597 69.9834 73.9323 66.632C74.2142 64.5996 74.4795 62.3266 74.579 60.2361C74.5956 59.8048 87.5467 64.0106 87.5467 64.0106C87.5467 64.0106 86.0625 68.3409 85.9216 71.9826C85.9133 72.2895 85.9299 72.5716 85.9713 72.8453C85.9713 72.8868 85.9796 72.9366 85.9879 72.9864C86.1786 74.6289 86.2615 78.8347 83.343 79.5067Z" fill="#EB9481"/>
<path d="M85.9792 72.8446C85.9792 72.8861 85.9792 72.9358 85.9792 72.9856C85.5647 73.0188 85.1252 73.0271 84.636 72.9939C76.9251 72.4796 75.3249 62.724 75.043 60.252C77.3563 60.6916 87.5463 64.0015 87.5463 64.0015C87.5463 64.0015 86.0621 68.3318 85.9212 71.9818C85.9212 72.2805 85.9295 72.5708 85.9792 72.8363V72.8446Z" fill="#263238"/>
<path d="M69.2562 46.4074C68.7919 51.252 73.8828 63.9442 77.7216 66.2255C83.2934 69.5271 91.0707 68.3657 93.5415 61.9782C95.9377 55.7814 89.0144 39.3645 84.8439 37.4317C78.7083 34.5863 69.9444 39.2567 69.2562 46.4157V46.4074Z" fill="#EB9481"/>
<path d="M83.7088 51.6821C83.7088 51.6821 83.659 51.7485 83.6756 51.7817C84.0404 52.6278 84.314 53.6565 83.659 54.2454C83.6424 54.262 83.659 54.3035 83.6839 54.2869C84.5794 53.7809 84.198 52.4121 83.7171 51.6738L83.7088 51.6821Z" fill="#263238"/>
<path d="M82.5889 51.0848C81.1711 51.5245 82.1577 54.3284 83.4677 53.9219C84.7612 53.5237 83.7745 50.7115 82.5889 51.0848Z" fill="#263238"/>
<path d="M88.7832 50.0571C88.7832 50.0571 88.8661 50.0737 88.8744 50.1069C89.148 50.9862 89.6206 51.9485 90.5078 51.9568C90.5327 51.9568 90.5493 51.9983 90.5161 52.0066C89.5128 52.2057 88.9076 50.9282 88.7832 50.0488V50.0571Z" fill="#263238"/>
<path d="M89.2399 48.879C90.5997 48.2817 91.6941 51.0441 90.4338 51.5999C89.1901 52.1474 88.104 49.3767 89.2399 48.879Z" fill="#263238"/>
<path d="M81.0308 50.1968C81.379 49.9645 81.6609 49.6991 81.9843 49.4336C82.3491 49.135 82.6642 48.9359 82.8052 48.4713C82.8798 48.2225 82.6974 47.8824 82.4569 47.7828C81.9097 47.5588 81.3707 47.8077 80.923 48.1478C80.4338 48.5128 80.1519 48.9276 80.0027 49.5166C79.8617 50.089 80.5665 50.4955 81.0308 50.1885V50.1968Z" fill="#263238"/>
<path d="M89.8281 47.0868C89.4136 47.1614 89.0239 47.1614 88.6093 47.1863C88.145 47.2195 87.7719 47.2942 87.349 47.0536C87.1252 46.9209 87.0257 46.5476 87.1335 46.3153C87.3822 45.7761 87.9377 45.5853 88.5015 45.5272C89.1068 45.4609 89.596 45.5604 90.1101 45.8922C90.6075 46.2157 90.3754 46.9872 89.8281 47.0868Z" fill="#263238"/>
<path d="M85.7329 60.0273C86.0148 60.16 86.3216 60.3674 86.6449 60.2845C86.96 60.2015 87.2585 59.9444 87.4989 59.737C87.5238 59.7204 87.557 59.737 87.5487 59.7702C87.4409 60.1849 87.0429 60.5582 86.6118 60.6329C86.1972 60.6993 85.8821 60.4338 85.6583 60.102C85.6251 60.0522 85.6831 60.0107 85.7246 60.0356L85.7329 60.0273Z" fill="#263238"/>
<path d="M85.7311 57.1075C86.4856 57.6882 87.3396 57.8541 88.1688 57.7297C88.5419 57.6799 88.9067 57.5638 89.2466 57.4061C89.313 57.3813 89.3793 57.3481 89.4456 57.3149C89.5037 57.2817 89.5617 57.2568 89.628 57.2153C89.7275 57.1656 89.7524 57.0577 89.7358 56.9582C89.7358 56.9582 89.7109 56.8918 89.6944 56.8669L89.6695 56.784C89.4539 56.112 89.0311 55.1166 89.0311 55.1166C89.3213 55.1498 90.7639 55.2742 90.6147 54.9341C89.429 52.097 88.1024 48.953 86.3281 46.3814C86.27 46.2901 86.1374 46.3648 86.1788 46.456C87.2153 49.2267 88.7243 51.7901 89.8104 54.5525C89.3627 54.5442 88.6165 54.4861 88.2683 54.6188C88.1853 54.6769 89.114 56.5268 89.1886 56.8338C89.1886 56.8338 89.1886 56.8503 89.1886 56.8669C88.119 57.4061 87.1489 57.3647 85.7974 56.9914C85.7145 56.9665 85.6648 57.0494 85.7477 57.0992L85.7311 57.1075Z" fill="#263238"/>
<path d="M88.7413 57.2065C88.7413 57.2065 88.4263 58.2185 87.7215 58.7909C87.4562 59.0066 87.1494 59.1559 86.7846 59.1891C86.0301 59.2472 85.7896 58.6167 85.7233 58.0277C85.6652 57.5466 85.7399 57.082 85.7399 57.082C85.7399 57.082 87.0831 57.671 88.7413 57.2065Z" fill="#263238"/>
<path d="M87.7131 58.7828C87.4477 58.9984 87.141 59.1478 86.7761 59.1809C86.0216 59.239 85.7812 58.6086 85.7148 58.0196C86.4859 57.8371 87.398 58.0776 87.7131 58.7828Z" fill="#FF9BBC"/>
<path d="M75.7659 63.5455C75.7659 63.5455 74.348 63.9851 73.635 63.2468C72.9219 62.5168 72.8639 59.7461 70.0283 59.4807C69.0416 59.3894 68.2954 59.4226 67.6238 58.8585C66.3801 57.8216 66.6454 56.486 66.0401 55.7311C65.2939 54.802 63.2874 55.3661 62.1764 53.3917C60.7005 50.7621 62.7402 49.0283 62.7568 47.9084C62.7734 46.7885 61.6374 45.6354 62.2178 43.3624C62.7485 41.272 65.0037 40.8738 65.9406 39.7124C66.9439 38.4764 65.5924 36.6265 67.4165 34.6355C68.7431 33.1838 71.4295 33.8806 72.4576 33.076C74.0744 31.8068 73.3531 30.0149 75.5917 28.6379C78.0874 27.1032 83.5431 30.0647 84.8034 31.5911C86.2047 33.3 85.3424 35.0254 86.2295 36.1038C87.5147 37.6468 89.0237 36.8836 89.7616 38.4266C90.4913 39.953 89.8031 41.1143 90.1845 42.1181C90.7069 43.4786 91.0634 43.6611 91.4945 44.8473C91.9423 46.0668 91.3121 47.2862 91.3121 47.2862C91.3121 47.2862 88.2941 41.4711 84.5713 38.3353C83.3276 37.2901 82.0258 36.7509 81.6196 37.0329C81.0972 37.3979 82.316 39.4552 81.404 40.0276C80.4919 40.6 77.449 39.1815 76.4126 40.5585C75.0362 42.3919 77.051 44.9386 75.542 46.6972C74.033 48.4559 72.7727 48.3398 72.582 49.4928C72.3498 50.928 73.7345 51.3345 74.7212 53.3337C75.6083 55.1338 75.4674 55.9385 75.4674 55.9385L74.2154 56.7183C74.2154 56.7183 72.0514 56.0795 71.6368 56.5109C71.2222 56.9422 75.7576 63.5455 75.7576 63.5455H75.7659Z" fill="#263238"/>
<path d="M62.549 46.373C63.3284 48.5299 60.9902 50.4959 61.4379 52.6362C61.9271 54.3451 63.3118 54.9838 64.9617 55.2493C65.4758 55.3737 66.164 55.5147 66.3547 56.0871C66.0562 55.5894 65.4426 55.5728 64.9203 55.5147C63.8092 55.4401 62.5655 55.2078 61.7779 54.3036C60.9404 53.4077 60.6171 52.1467 61.0482 51.002C61.496 49.4258 62.8226 48.0819 62.549 46.373Z" fill="#263238"/>
<path d="M86.9414 36.7598C87.8949 36.992 89.0225 36.6934 89.8682 37.3736C91.2032 38.4686 90.7803 39.8125 90.2745 41.1979C90.1833 41.4965 90.1087 41.8035 90.1833 42.127C90.0009 41.8449 89.9926 41.4716 90.0258 41.1481C90.117 40.2605 90.4984 39.2318 90.0755 38.4438C89.8185 37.9211 89.3708 37.5147 88.7987 37.3487C88.2266 37.1745 87.5052 37.1248 86.9497 36.7598H86.9414Z" fill="#263238"/>
<path d="M74.7962 56.6195C74.7962 56.6195 70.8744 53.0441 69.1912 54.529C67.4998 56.0222 71.1148 61.6715 73.5608 62.0033C76.0067 62.3351 76.3632 60.0787 76.3632 60.0787L74.7962 56.6195Z" fill="#EB9481"/>
<path d="M70.2686 56.131C70.2686 56.131 70.2355 56.1891 70.2686 56.1974C71.9932 56.4877 73.1623 57.7652 74.0827 59.1589C73.4774 58.6777 72.7643 58.5035 72.1093 59.2418C72.0762 59.2833 72.1259 59.3331 72.1674 59.3165C72.7892 59.0344 73.2784 59.0427 73.8339 59.4575C74.2236 59.7562 74.547 60.1709 74.862 60.5525C74.9698 60.677 75.2103 60.5442 75.1191 60.3949C75.1191 60.3866 75.1025 60.37 75.0942 60.3617C74.6796 58.3293 72.4741 55.8573 70.2604 56.1393L70.2686 56.131Z" fill="#263238"/>
<path d="M15.7969 25.4832C15.7969 35.0645 23.5659 42.8374 33.1423 42.8374C37.0144 42.8374 40.588 41.5682 43.4734 39.4114L51.972 41.5848L48.4316 33.6709C49.7499 31.232 50.4878 28.4364 50.4878 25.4832C50.4878 15.9018 42.7188 8.12891 33.1423 8.12891C23.5659 8.12891 15.7969 15.9018 15.7969 25.4832Z" fill="white"/>
<path d="M15.7955 25.4824C15.8203 10.6749 33.0912 2.54523 44.5498 11.9275C50.9259 17.0375 52.8992 26.735 48.8613 33.8941L48.8779 33.471L52.3768 41.4015L52.7417 42.2311C49.6158 41.4347 46.4983 40.5969 43.389 39.759L43.6875 39.701C41.0509 41.6172 37.8836 42.7786 34.6583 43.0109C24.6423 43.8238 15.6877 35.5615 15.7955 25.4824ZM15.7955 25.4824C15.9033 39.6014 31.9885 47.6647 43.2647 39.1286L43.3973 39.029L43.5632 39.0705C46.4071 39.759 49.251 40.4393 52.0784 41.161L51.5726 41.7665L47.999 33.8692L47.8995 33.6535C53.2557 24.0805 47.9161 11.6454 37.2866 8.9328C26.5825 5.96299 15.754 14.3996 15.7872 25.4824H15.7955Z" fill="#263238"/>
<path d="M21.2682 38.4074C17.6283 35.0145 15.5721 30.3027 15.6301 25.483C15.6301 24.5124 15.7047 23.5584 15.8623 22.621C16.7826 16.922 20.4142 12.0442 25.787 9.49745C32.0635 6.52765 39.2936 7.41527 44.6498 11.8036C51.0756 16.9634 53.024 26.5199 49.152 33.7038L52.8831 42.1736C52.9079 42.2317 52.8997 42.298 52.8582 42.3478C52.8167 42.3976 52.7504 42.4142 52.6924 42.4059C49.6495 41.6261 46.6397 40.8214 43.5719 39.9919C40.9353 41.8501 37.8592 42.9534 34.6587 43.1856C34.211 43.2188 33.755 43.2437 33.3072 43.2437C28.9128 43.2437 24.5847 41.5265 21.2599 38.424L21.2682 38.4074ZM43.2237 39.7513C43.2237 39.6766 43.2817 39.6103 43.3563 39.5937L43.6548 39.5356C43.7294 39.519 43.8041 39.5605 43.8372 39.6351C43.8455 39.66 43.8538 39.6849 43.8538 39.7098C46.3827 40.39 48.8701 41.062 51.3658 41.709L51.0839 41.0786C48.6296 40.4647 46.1422 39.8591 43.7211 39.2784L43.431 39.2121L43.3646 39.2619C39.0365 42.5386 33.755 43.5755 28.7221 42.2482C30.6457 42.7957 32.6522 43.0031 34.6504 42.8372C37.7265 42.6132 40.6865 41.5763 43.2402 39.8094C43.2402 39.7845 43.232 39.7679 43.232 39.743L43.2237 39.7513ZM43.431 38.872L43.7958 38.9632C46.1256 39.5273 48.5301 40.108 50.9014 40.697L47.7424 33.7204C47.7176 33.6707 47.7259 33.6126 47.7424 33.5711C50.2713 29.05 50.52 23.6662 48.4223 18.7885C46.3246 13.9107 42.2536 10.3768 37.229 9.09097C32.2294 7.70562 26.9229 8.76744 22.686 12.0027C19.1622 14.6905 16.8738 18.4815 16.1773 22.6625C16.0281 23.5833 15.9535 24.5207 15.9535 25.4747C16.0032 31.9867 19.6514 37.8101 25.4802 40.6804C31.3339 43.5672 37.9421 42.9368 43.1573 38.9881L43.29 38.8886C43.29 38.8886 43.3563 38.8554 43.3895 38.8554C43.4061 38.8554 43.4144 38.8554 43.431 38.8554V38.872ZM51.7554 41.8086C51.9876 41.8666 52.2198 41.9247 52.4519 41.9911L52.1617 41.3357L51.7554 41.8169V41.8086ZM51.4901 41.1864L51.6145 41.4602L51.7803 41.2611C51.6808 41.2362 51.5896 41.2113 51.4901 41.1864ZM48.812 34.0605C48.7374 34.044 48.6877 33.9693 48.6877 33.8946L48.7042 33.4716C48.7042 33.3969 48.7623 33.3305 48.8369 33.3139C48.8867 33.3057 48.9281 33.3139 48.9696 33.3388C52.6178 26.3125 50.6859 17.063 44.4425 12.0525C40.5456 8.8587 35.6371 7.5563 30.8447 8.2863C32.9922 8.02085 35.1894 8.17017 37.3285 8.76744C42.4443 10.0781 46.6065 13.6784 48.7374 18.6557C50.86 23.5999 50.6195 29.0666 48.0824 33.6624L51.316 40.7965C51.5399 40.8546 51.772 40.9127 51.9959 40.9707L48.9364 34.044C48.9364 34.044 48.8535 34.0771 48.8037 34.0605H48.812Z" fill="#263238"/>
<path d="M41.674 27.9308C39.1534 33.0243 33.1422 36.0439 33.1422 36.0439C33.1422 36.0439 27.1393 33.0243 24.6187 27.9308C22.5127 23.6835 23.8476 19.0878 27.1642 18.0923C31.9234 16.6572 33.1422 21.6345 33.1422 21.6345C33.1422 21.6345 34.361 16.6489 39.1203 18.0923C42.4368 19.0961 43.7717 23.6835 41.6657 27.9308H41.674Z" fill="#F8BF3B"/>
</g>
<defs>
<clipPath id="clip0_7834_23721">
<rect width="561" height="364" fill="white"/>
</clipPath>
</defs>
</svg>
