<svg width="360" height="632" viewBox="0 0 360 632" fill="none" xmlns="http://www.w3.org/2000/svg">
<g opacity="0.1">
<path opacity="0.3" d="M184.128 77.453C339.459 -41.54 429.572 130.006 428.963 280.361C432.26 366.609 536.699 381.872 540.719 488.742C544.74 595.613 393.366 526.789 396.602 691.493C399.838 856.197 127.899 885.169 74.6453 761.616C21.3913 638.063 -5.74902 688.912 -149.992 602.171C-294.236 515.43 -248.915 252.65 -90.1746 249.212C68.5655 245.775 15.9795 206.265 184.128 77.453Z" stroke="#9FC5EF" stroke-width="3"/>
<path d="M156.623 400.872C171.024 388.566 208.441 403.774 205.459 429.382C202.727 452.831 217.719 469.519 218.265 484.331C219.701 523.326 208.117 513.455 199.632 534.579C189.307 560.284 146.244 587.979 129.037 545.448C114.886 510.469 102.131 527.809 84.0064 504.661C65.8819 481.514 66.6779 446.626 100.413 432.977C113.082 427.852 132.637 421.366 156.623 400.872Z" stroke="#9FC5EF" stroke-width="3"/>
<path opacity="0.35" d="M182.474 106.508C324.993 -2.78572 410.316 154.547 409.492 293.562C412.24 374.101 508.547 389.494 512.252 487.995C516.038 588.695 377.373 525.23 379.543 676.882C381.546 828.949 130.414 857.806 80.4369 741.618C30.7378 626.117 4.90518 673.92 -127.873 592.96C-260.651 512 -219.378 269.937 -72.0015 265.572C73.4594 261.981 27.4317 225.473 182.474 106.508Z" stroke="#9FC5EF" stroke-width="3"/>
<path opacity="0.4" d="M180.82 135.558C310.528 35.963 391.06 179.084 390.02 306.757C392.22 381.587 480.396 397.11 483.785 487.242C487.336 581.771 361.378 523.666 362.483 662.265C363.253 801.696 132.928 830.436 86.2282 721.615C40.0838 614.166 15.5591 658.923 -105.754 583.744C-227.066 508.565 -189.841 287.22 -53.8287 281.926C78.353 278.182 38.8836 244.676 180.82 135.558Z" stroke="#9FC5EF" stroke-width="3"/>
<path opacity="0.45" d="M179.174 164.618C296.069 74.7218 371.811 203.63 370.555 319.963C372.208 389.084 452.252 404.736 455.325 486.5C458.64 574.858 345.391 522.112 345.431 647.658C344.968 774.453 135.45 803.077 92.0269 701.621C49.4372 602.225 26.2202 643.935 -83.6271 574.537C-193.474 505.14 -160.297 304.512 -35.6487 298.29C83.2538 294.392 50.3427 263.889 179.174 164.618Z" stroke="#9FC5EF" stroke-width="3"/>
<path opacity="0.5" d="M177.519 193.669C281.602 113.471 352.553 228.167 351.081 333.159C352.186 396.571 424.099 412.353 426.856 485.747C429.937 567.935 329.396 520.549 328.369 633.042C326.674 747.201 137.963 775.709 97.8167 681.619C58.7818 590.274 36.8726 628.938 -61.5094 565.322C-159.891 501.706 -130.761 321.795 -17.4773 314.645C88.1459 310.594 61.7931 283.092 177.519 193.669Z" stroke="#9FC5EF" stroke-width="3"/>
<path opacity="0.55" d="M175.276 222.966C266.548 152.467 332.708 252.95 331.02 346.602C331.577 404.305 395.358 420.216 397.799 485.242C400.645 561.259 312.812 519.232 310.721 618.673C307.792 720.195 139.888 748.587 103.019 661.862C67.539 578.57 46.9375 614.188 -39.9791 556.353C-126.896 498.518 -101.813 339.325 0.106459 331.246C92.4505 327.042 72.656 302.542 175.276 222.966Z" stroke="#9FC5EF" stroke-width="3"/>
<path opacity="0.6" d="M172.343 252.533C250.803 191.733 312.173 278.003 310.269 360.314C310.278 412.309 365.928 428.349 368.053 485.006C370.664 554.853 295.539 518.185 292.382 604.573C288.221 693.459 141.123 721.735 107.531 642.376C75.606 567.136 56.3123 599.707 -19.139 547.653C-94.5902 495.6 -73.5555 357.124 17.0002 348.117C96.0649 343.759 82.8288 322.262 172.343 252.533Z" stroke="#9FC5EF" stroke-width="3"/>
<path opacity="0.65" d="M169.379 282.122C235.028 231.021 291.607 303.079 289.488 374.049C288.948 420.334 336.466 436.505 338.276 484.792C340.652 548.469 278.235 517.161 274.012 590.495C268.618 666.746 142.328 694.905 112.013 622.912C83.6423 555.724 65.6564 585.249 1.67053 538.976C-62.3154 492.704 -45.3284 374.946 33.8632 365.011C99.6487 360.499 92.971 342.004 169.379 282.122Z" stroke="#9FC5EF" stroke-width="3"/>
<path opacity="0.7" d="M166.357 311.73C219.194 270.328 270.982 328.174 268.647 387.803C267.56 428.379 306.946 444.679 308.44 484.598C310.581 542.104 260.872 516.155 255.584 576.437C248.957 640.051 143.473 668.094 116.436 603.467C91.6199 544.331 74.9418 570.81 22.4212 530.319C-30.0994 489.827 -17.1601 392.787 50.6675 381.923C103.174 377.258 103.054 361.766 166.357 311.73Z" stroke="#9FC5EF" stroke-width="3"/>
<path opacity="0.8" d="M163.254 341.381C203.279 309.678 250.277 353.311 247.726 401.6C246.091 436.467 277.346 452.896 278.523 484.446C280.429 535.782 243.429 515.192 237.075 562.422C229.216 613.399 144.538 641.326 120.778 584.064C99.5167 532.981 84.1464 556.413 43.0912 521.703C2.03595 486.993 10.9275 410.67 67.391 398.878C106.618 394.06 113.057 381.569 163.254 341.381Z" stroke="#9FC5EF" stroke-width="3"/>
<path d="M160.037 371.08C187.25 349.076 229.457 378.496 226.69 415.444C224.507 444.602 247.63 461.161 248.492 484.342C250.163 529.507 225.871 514.277 218.452 548.454C209.359 586.795 145.489 614.606 125.005 564.71C107.299 521.678 93.2366 542.064 63.6468 513.136C34.0569 484.207 38.9007 428.601 84.0002 415.881C109.948 410.909 122.945 401.421 160.037 371.08Z" stroke="#9FC5EF" stroke-width="3"/>
</g>
</svg>
