<svg width="885" height="454" viewBox="0 0 885 454" fill="none" xmlns="http://www.w3.org/2000/svg">
<g opacity="0.1">
<path opacity="0.3" d="M540.927 -99.9755C707.431 -227.528 804.027 -43.6424 803.374 117.529C806.908 209.981 918.86 226.342 923.17 340.9C927.48 455.458 765.217 381.683 768.685 558.235C772.154 734.787 480.653 765.844 423.569 633.403C366.484 500.962 337.391 555.469 182.772 462.488C28.152 369.507 76.7333 87.8239 246.892 84.1393C417.051 80.4547 360.683 38.1023 540.927 -99.9755Z" stroke="#9FC5EF" stroke-width="3"/>
<path d="M511.442 246.709C526.879 233.519 566.987 249.821 563.79 277.27C560.862 302.406 576.933 320.295 577.517 336.173C579.057 377.972 566.64 367.391 557.544 390.035C546.477 417.589 500.315 447.276 481.871 401.686C466.702 364.191 453.029 382.777 433.601 357.965C414.173 333.153 415.026 295.755 451.188 281.125C464.768 275.631 485.73 268.678 511.442 246.709Z" stroke="#9FC5EF" stroke-width="3"/>
<path opacity="0.35" d="M539.154 -68.8311C691.925 -185.987 783.386 -17.3363 782.502 131.678C785.448 218.011 888.683 234.511 892.655 340.098C896.713 448.041 748.073 380.012 750.399 542.572C752.546 705.579 483.349 736.511 429.777 611.965C376.502 488.156 348.812 539.398 206.482 452.614C64.1527 365.83 108.395 106.354 266.373 101.675C422.297 97.8256 372.959 58.6914 539.154 -68.8311Z" stroke="#9FC5EF" stroke-width="3"/>
<path opacity="0.4" d="M537.381 -37.6902C676.419 -144.45 762.744 8.96621 761.629 145.824C763.988 226.037 858.507 242.676 862.139 339.292C865.946 440.621 730.928 378.336 732.112 526.905C732.937 676.367 486.044 707.174 435.985 590.524C386.521 475.346 360.232 523.323 230.192 442.736C100.153 362.149 140.057 124.881 285.853 119.206C427.543 115.193 385.234 79.2768 537.381 -37.6902Z" stroke="#9FC5EF" stroke-width="3"/>
<path opacity="0.45" d="M535.612 -6.54116C660.916 -102.904 742.106 35.277 740.76 159.979C742.531 234.072 828.333 250.85 831.627 338.495C835.182 433.209 713.786 376.669 713.828 511.247C713.332 647.163 488.742 677.846 442.196 569.091C396.542 462.545 371.655 507.256 253.906 432.866C136.157 358.476 171.721 143.416 305.336 136.746C432.792 132.568 397.513 99.8705 535.612 -6.54116Z" stroke="#9FC5EF" stroke-width="3"/>
<path opacity="0.5" d="M533.837 24.6007C645.408 -61.3656 721.463 61.5805 719.885 174.126C721.069 242.099 798.155 259.016 801.11 337.69C804.413 425.79 696.639 374.995 695.539 495.581C693.722 617.952 491.436 648.51 448.402 547.651C406.559 449.736 383.074 491.181 277.615 422.989C172.156 354.796 203.381 161.944 324.814 154.279C438.035 149.937 409.787 120.457 533.837 24.6007Z" stroke="#9FC5EF" stroke-width="3"/>
<path opacity="0.55" d="M531.437 56.0038C629.275 -19.5659 700.194 88.1453 698.385 188.534C698.982 250.388 767.351 267.444 769.968 337.147C773.019 418.632 678.867 373.582 676.625 480.176C673.486 589.002 493.504 619.436 453.983 526.473C415.95 437.189 393.867 475.368 300.698 413.373C207.529 351.378 234.416 180.733 343.667 172.073C442.654 167.566 421.435 141.305 531.437 56.0038Z" stroke="#9FC5EF" stroke-width="3"/>
<path opacity="0.6" d="M528.29 87.6989C612.394 22.5258 678.178 115.002 676.138 203.234C676.147 258.968 735.8 276.163 738.078 336.895C740.877 411.767 660.348 372.461 656.963 465.063C652.503 560.344 494.824 590.653 458.816 505.586C424.594 424.933 403.912 459.848 323.033 404.049C242.155 348.251 264.702 199.814 361.772 190.16C446.524 185.488 432.336 162.445 528.29 87.6989Z" stroke="#9FC5EF" stroke-width="3"/>
<path opacity="0.65" d="M525.12 119.415C595.491 64.6388 656.14 141.88 653.868 217.956C653.29 267.57 704.227 284.904 706.166 336.665C708.713 404.922 641.806 371.362 637.28 449.972C631.498 531.707 496.122 561.892 463.627 484.72C433.216 412.699 413.936 444.348 345.347 394.747C276.758 345.146 294.967 218.917 379.856 208.267C450.374 203.431 443.215 183.606 525.12 119.415Z" stroke="#9FC5EF" stroke-width="3"/>
<path opacity="0.7" d="M521.877 151.155C578.514 106.775 634.028 168.781 631.525 232.7C630.359 276.195 672.579 293.668 674.18 336.458C676.475 398.101 623.191 370.285 617.522 434.904C610.419 503.094 497.347 533.154 468.364 463.878C441.763 400.488 423.885 428.871 367.587 385.468C311.288 342.064 325.158 238.042 397.865 226.397C454.148 221.397 454.02 204.79 521.877 151.155Z" stroke="#9FC5EF" stroke-width="3"/>
<path opacity="0.8" d="M518.554 182.937C561.458 148.954 611.837 195.726 609.102 247.488C607.35 284.864 640.853 302.475 642.115 336.294C644.158 391.322 604.496 369.252 597.685 419.879C589.261 474.523 498.492 504.459 473.022 443.078C450.232 388.32 433.756 413.438 389.747 376.231C345.739 339.025 355.27 257.211 415.795 244.571C457.844 239.406 464.746 226.017 518.554 182.937Z" stroke="#9FC5EF" stroke-width="3"/>
<path d="M515.101 214.774C544.271 191.187 589.515 222.723 586.549 262.329C584.209 293.585 608.996 311.335 609.919 336.184C611.71 384.597 585.671 368.272 577.718 404.907C567.971 446.006 499.507 475.818 477.55 422.333C458.569 376.206 443.495 398.058 411.777 367.048C380.059 336.039 385.251 276.433 433.594 262.798C461.409 257.468 475.341 247.298 515.101 214.774Z" stroke="#9FC5EF" stroke-width="3"/>
</g>
</svg>
