<svg width="873" height="855" viewBox="0 0 873 855" fill="none" xmlns="http://www.w3.org/2000/svg">
<g opacity="0.12">
<path opacity="0.3" d="M827.842 206.092C873.551 -6.78139 658.122 -15.7265 507.2 56.4772C418.891 94.2287 353.812 -3.53691 244.419 43.3055C135.026 90.148 276.318 209.613 109.136 284.783C-58.0471 359.952 42.2991 647.235 191.913 641.962C341.526 636.69 303.31 688.197 459.227 791.959C615.144 895.722 857.84 725.021 785.713 563.74C713.586 402.459 778.36 436.532 827.842 206.092Z" stroke="white" stroke-width="3"/>
<path d="M515.683 387.751C521.201 367.408 488.09 337.02 463.757 352.212C441.475 366.124 417.553 358.993 402.397 365.497C362.497 382.62 377.939 389.57 360.735 408.161C339.8 430.785 332.452 487.28 383.418 484.334C425.334 481.911 413.969 502.994 445.878 510.2C477.787 517.407 512.495 499.994 510.158 459.568C509.281 444.387 506.492 421.631 515.683 387.751Z" stroke="white" stroke-width="3"/>
<path opacity="0.35" d="M799.409 221.592C841.465 26.2206 642.609 15.3261 503.196 82.3469C420.889 117.931 359.552 28.4051 258.726 71.5804C155.65 115.721 285.502 224.958 131.953 294.984C-21.934 365.377 68.6219 631.678 209.267 626.617C349.09 621.604 313.315 670.345 457.959 765.33C602.602 860.315 826.391 703.548 760.608 553.254C694.958 405.255 753.59 434.162 799.409 221.592Z" stroke="white" stroke-width="3"/>
<path opacity="0.4" d="M770.976 237.083C809.378 59.2153 627.097 46.3714 499.192 108.209C422.888 141.626 365.292 60.3398 273.033 99.848C176.275 141.287 294.685 240.295 154.771 305.178C14.179 370.793 94.9445 616.114 226.622 611.265C356.654 606.51 323.32 652.486 456.69 738.693C590.06 824.9 794.941 682.069 735.503 542.762C676.33 408.044 728.82 431.785 770.976 237.083Z" stroke="white" stroke-width="3"/>
<path opacity="0.45" d="M742.543 252.584C777.291 92.2186 611.585 77.4253 495.187 134.08C424.886 165.33 371.031 92.2832 287.339 128.124C196.899 166.861 303.868 255.641 177.589 315.38C50.2921 376.219 121.267 600.559 243.977 595.921C364.218 591.425 333.325 634.635 455.422 712.064C577.518 789.494 763.491 660.598 710.397 532.277C657.702 410.842 704.05 429.416 742.543 252.584Z" stroke="white" stroke-width="3"/>
<path opacity="0.5" d="M714.109 268.079C745.204 125.217 596.072 108.474 491.183 159.947C426.884 189.029 376.771 124.222 301.646 156.396C217.523 192.431 313.051 270.982 200.406 325.577C86.4047 381.639 147.59 584.999 261.331 580.572C371.782 576.336 343.33 616.78 454.153 685.431C564.976 754.082 732.041 639.122 685.292 521.789C639.073 413.635 679.279 427.043 714.109 268.079Z" stroke="white" stroke-width="3"/>
<path opacity="0.55" d="M685.716 284.28C713.157 158.921 580.6 140.229 487.218 186.518C428.921 213.434 382.55 156.866 315.992 185.372C238.187 218.706 322.275 287.028 223.264 336.48C122.558 387.765 173.952 570.144 278.725 565.929C379.386 561.952 353.375 599.63 452.924 659.503C552.474 719.377 700.63 618.352 660.226 512.005C620.485 417.133 654.549 425.375 685.716 284.28Z" stroke="white" stroke-width="3"/>
<path opacity="0.6" d="M657.37 301.307C681.157 193.45 565.175 172.809 483.301 213.915C431.007 238.663 388.377 190.335 330.386 215.175C258.898 245.806 331.545 303.9 246.169 348.208C158.758 394.716 200.362 556.115 296.167 552.111C387.037 548.393 363.467 583.305 451.743 634.401C540.019 685.496 669.268 598.407 635.208 503.047C601.944 421.457 629.866 424.532 657.37 301.307Z" stroke="white" stroke-width="3"/>
<path opacity="0.65" d="M629.031 318.376C649.164 228.022 549.755 205.431 479.39 241.355C433.098 263.936 394.21 223.847 344.786 245.019C279.616 272.949 340.822 320.814 269.08 359.979C194.964 401.71 226.777 542.128 313.615 538.336C394.694 534.877 373.565 567.023 450.568 609.341C527.571 651.658 637.911 578.504 610.196 494.131C583.409 425.823 605.189 423.732 629.031 318.376Z" stroke="white" stroke-width="3"/>
<path opacity="0.7" d="M600.689 335.517C617.169 262.666 534.335 238.125 475.478 268.866C435.188 289.28 400.042 257.43 359.184 274.936C300.332 300.164 350.097 337.8 291.989 371.822C231.169 408.776 253.192 528.213 331.061 524.633C402.35 521.432 383.662 550.813 449.391 584.353C515.12 617.893 606.553 558.674 585.182 485.288C564.873 430.261 580.51 423.004 600.689 335.517Z" stroke="white" stroke-width="3"/>
<path opacity="0.8" d="M572.344 352.749C585.169 297.401 518.91 270.912 471.561 296.47C437.274 314.716 405.869 291.106 373.579 304.945C321.043 327.471 359.368 354.878 314.895 383.757C267.369 415.934 279.602 514.391 348.503 511.021C410.001 508.08 393.754 534.695 448.21 559.457C502.666 584.219 575.19 538.935 560.164 476.536C546.332 434.791 555.828 422.368 572.344 352.749Z" stroke="white" stroke-width="3"/>
<path d="M544.01 370.135C553.182 332.289 503.497 303.85 467.656 324.226C439.371 340.305 411.708 324.934 387.985 335.106C341.767 354.93 368.651 372.109 337.812 395.844C303.582 423.244 306.024 500.72 365.958 497.562C417.665 494.88 403.859 518.729 447.041 534.713C490.224 550.697 543.84 519.349 535.158 467.936C527.804 439.473 531.157 421.884 544.01 370.135Z" stroke="white" stroke-width="3"/>
</g>
</svg>
