<svg width="1440" height="353" viewBox="0 0 1440 353" fill="none" xmlns="http://www.w3.org/2000/svg">
<path d="M319.375 138.582C223.406 109.801 53.4071 74.5557 -12.4047 72C-104.874 72 -138.475 241.499 -42.007 243.858C54.4614 246.217 319.375 332.03 437.336 350.608C555.297 369.186 649.267 273.642 735.738 267.449C822.21 261.256 897.686 369.186 1006.65 350.608C1093.82 335.746 1348.54 291.827 1465 281.014V101.131C1368.53 93.4643 1076.13 169.546 1006.65 174.559C937.173 179.572 842.029 109.931 772.545 89.682C670.87 60.0518 554.798 149.493 521.309 162.174C487.82 174.854 439.336 174.559 319.375 138.582Z" fill="#2C3D68"/>
<g style="mix-blend-mode:plus-darker">
<path d="M-20 151.502C91.5 151.502 407.5 260.859 461.5 257.001C515.5 253.143 672 161.503 725.5 158.002C779 154.501 891.5 257.001 980 257.001C1068.5 257.001 1385 172.001 1464 172.001" stroke="#DEDEDE" stroke-width="3" stroke-linecap="round" stroke-dasharray="10 10"/>
</g>
<g filter="url(#filter0_d_7368_29107)">
<circle cx="203.5" cy="186.5" r="36.5" fill="#FF8B13"/>
<path d="M213 201.584H208C207.668 201.584 207.351 201.452 207.116 201.217C206.882 200.983 206.75 200.665 206.75 200.334C206.75 200.002 206.882 199.684 207.116 199.45C207.351 199.215 207.668 199.084 208 199.084H213C213.495 199.127 213.987 198.977 214.375 198.667C214.763 198.357 215.017 197.909 215.083 197.417V176.634C215.017 176.141 214.763 175.694 214.375 175.383C213.987 175.073 213.495 174.924 213 174.967H208C207.668 174.967 207.351 174.835 207.116 174.601C206.882 174.366 206.75 174.048 206.75 173.717C206.75 173.385 206.882 173.067 207.116 172.833C207.351 172.599 207.668 172.467 208 172.467H213C213.578 172.442 214.155 172.532 214.698 172.731C215.242 172.929 215.74 173.233 216.166 173.625C216.592 174.016 216.936 174.488 217.179 175.013C217.422 175.538 217.56 176.106 217.583 176.684V197.367C217.56 197.945 217.422 198.513 217.179 199.037C216.936 199.562 216.592 200.034 216.166 200.426C215.74 200.817 215.242 201.121 214.698 201.32C214.155 201.518 213.578 201.608 213 201.584Z" fill="white"/>
<path d="M201.335 194.917C201.171 194.918 201.008 194.886 200.856 194.823C200.704 194.76 200.567 194.668 200.452 194.551C200.217 194.316 200.086 193.999 200.086 193.667C200.086 193.336 200.217 193.018 200.452 192.784L206.235 187.001L200.452 181.217C200.231 180.98 200.11 180.667 200.116 180.343C200.122 180.019 200.253 179.71 200.482 179.481C200.711 179.252 201.02 179.121 201.344 179.115C201.668 179.11 201.981 179.23 202.218 179.451L208.885 186.117C209.119 186.352 209.25 186.669 209.25 187.001C209.25 187.332 209.119 187.65 208.885 187.884L202.218 194.551C202.103 194.668 201.965 194.76 201.813 194.823C201.662 194.886 201.499 194.918 201.335 194.917Z" fill="white"/>
<path d="M208.001 188.25H189.668C189.336 188.25 189.019 188.118 188.784 187.884C188.55 187.649 188.418 187.332 188.418 187C188.418 186.668 188.55 186.351 188.784 186.116C189.019 185.882 189.336 185.75 189.668 185.75H208.001C208.333 185.75 208.651 185.882 208.885 186.116C209.12 186.351 209.251 186.668 209.251 187C209.251 187.332 209.12 187.649 208.885 187.884C208.651 188.118 208.333 188.25 208.001 188.25Z" fill="white"/>
</g>
<path d="M176.108 257.18C175.58 257.18 175.052 257.138 174.524 257.054C173.996 256.982 173.498 256.868 173.03 256.712C172.562 256.544 172.142 256.34 171.77 256.1C171.554 255.956 171.404 255.782 171.32 255.578C171.236 255.374 171.206 255.176 171.23 254.984C171.266 254.78 171.344 254.606 171.464 254.462C171.596 254.306 171.758 254.21 171.95 254.174C172.142 254.138 172.352 254.192 172.58 254.336C173.108 254.648 173.666 254.876 174.254 255.02C174.842 255.164 175.46 255.236 176.108 255.236C177.056 255.236 177.746 255.08 178.178 254.768C178.61 254.444 178.826 254.03 178.826 253.526C178.826 253.106 178.67 252.776 178.358 252.536C178.058 252.296 177.536 252.098 176.792 251.942L174.812 251.528C173.672 251.288 172.82 250.886 172.256 250.322C171.704 249.746 171.428 248.99 171.428 248.054C171.428 247.466 171.548 246.932 171.788 246.452C172.028 245.972 172.364 245.558 172.796 245.21C173.24 244.862 173.762 244.598 174.362 244.418C174.974 244.226 175.646 244.13 176.378 244.13C177.098 244.13 177.782 244.22 178.43 244.4C179.078 244.58 179.66 244.844 180.176 245.192C180.368 245.324 180.494 245.486 180.554 245.678C180.626 245.87 180.644 246.062 180.608 246.254C180.572 246.434 180.488 246.59 180.356 246.722C180.224 246.854 180.056 246.932 179.852 246.956C179.66 246.98 179.438 246.92 179.186 246.776C178.742 246.524 178.292 246.344 177.836 246.236C177.38 246.128 176.888 246.074 176.36 246.074C175.808 246.074 175.334 246.152 174.938 246.308C174.542 246.464 174.236 246.686 174.02 246.974C173.816 247.25 173.714 247.58 173.714 247.964C173.714 248.396 173.858 248.744 174.146 249.008C174.434 249.26 174.926 249.458 175.622 249.602L177.584 250.016C178.772 250.268 179.654 250.664 180.23 251.204C180.818 251.744 181.112 252.464 181.112 253.364C181.112 253.94 180.992 254.462 180.752 254.93C180.524 255.398 180.188 255.8 179.744 256.136C179.312 256.472 178.79 256.73 178.178 256.91C177.566 257.09 176.876 257.18 176.108 257.18ZM183.989 257.126C183.629 257.126 183.353 257.018 183.161 256.802C182.969 256.586 182.873 256.286 182.873 255.902V249.296C182.873 248.9 182.969 248.6 183.161 248.396C183.353 248.18 183.629 248.072 183.989 248.072C184.349 248.072 184.625 248.18 184.817 248.396C185.021 248.6 185.123 248.9 185.123 249.296V255.902C185.123 256.286 185.027 256.586 184.835 256.802C184.643 257.018 184.361 257.126 183.989 257.126ZM183.989 246.398C183.569 246.398 183.239 246.296 182.999 246.092C182.771 245.876 182.657 245.582 182.657 245.21C182.657 244.826 182.771 244.532 182.999 244.328C183.239 244.124 183.569 244.022 183.989 244.022C184.421 244.022 184.751 244.124 184.979 244.328C185.207 244.532 185.321 244.826 185.321 245.21C185.321 245.582 185.207 245.876 184.979 246.092C184.751 246.296 184.421 246.398 183.989 246.398ZM191.565 260.42C190.917 260.42 190.287 260.36 189.675 260.24C189.075 260.12 188.529 259.934 188.037 259.682C187.809 259.562 187.653 259.418 187.569 259.25C187.497 259.082 187.473 258.908 187.497 258.728C187.533 258.56 187.605 258.41 187.713 258.278C187.833 258.146 187.977 258.056 188.145 258.008C188.313 257.96 188.487 257.984 188.667 258.08C189.195 258.344 189.693 258.512 190.161 258.584C190.641 258.668 191.049 258.71 191.385 258.71C192.189 258.71 192.789 258.512 193.185 258.116C193.593 257.732 193.797 257.156 193.797 256.388V254.768H193.959C193.779 255.38 193.401 255.872 192.825 256.244C192.261 256.604 191.619 256.784 190.899 256.784C190.107 256.784 189.417 256.604 188.829 256.244C188.241 255.872 187.785 255.356 187.461 254.696C187.137 254.036 186.975 253.268 186.975 252.392C186.975 251.732 187.065 251.138 187.245 250.61C187.437 250.07 187.701 249.608 188.037 249.224C188.385 248.84 188.799 248.546 189.279 248.342C189.771 248.126 190.311 248.018 190.899 248.018C191.643 248.018 192.291 248.204 192.843 248.576C193.407 248.936 193.773 249.416 193.941 250.016L193.761 250.466V249.188C193.761 248.816 193.857 248.534 194.049 248.342C194.253 248.15 194.529 248.054 194.877 248.054C195.237 248.054 195.513 248.15 195.705 248.342C195.897 248.534 195.993 248.816 195.993 249.188V256.118C195.993 257.546 195.615 258.62 194.859 259.34C194.103 260.06 193.005 260.42 191.565 260.42ZM191.511 255.074C191.979 255.074 192.381 254.966 192.717 254.75C193.053 254.534 193.311 254.228 193.491 253.832C193.683 253.424 193.779 252.944 193.779 252.392C193.779 251.564 193.575 250.916 193.167 250.448C192.759 249.968 192.207 249.728 191.511 249.728C191.043 249.728 190.641 249.836 190.305 250.052C189.969 250.268 189.705 250.574 189.513 250.97C189.333 251.366 189.243 251.84 189.243 252.392C189.243 253.22 189.447 253.874 189.855 254.354C190.263 254.834 190.815 255.074 191.511 255.074ZM199.44 257.144C199.08 257.144 198.804 257.048 198.612 256.856C198.42 256.652 198.324 256.364 198.324 255.992V249.188C198.324 248.816 198.42 248.534 198.612 248.342C198.804 248.15 199.074 248.054 199.422 248.054C199.77 248.054 200.04 248.15 200.232 248.342C200.424 248.534 200.52 248.816 200.52 249.188V250.412L200.322 249.962C200.586 249.326 200.994 248.846 201.546 248.522C202.11 248.186 202.746 248.018 203.454 248.018C204.162 248.018 204.744 248.15 205.2 248.414C205.656 248.678 205.998 249.08 206.226 249.62C206.454 250.148 206.568 250.82 206.568 251.636V255.992C206.568 256.364 206.472 256.652 206.28 256.856C206.088 257.048 205.812 257.144 205.452 257.144C205.092 257.144 204.81 257.048 204.606 256.856C204.414 256.652 204.318 256.364 204.318 255.992V251.744C204.318 251.06 204.186 250.562 203.922 250.25C203.67 249.938 203.274 249.782 202.734 249.782C202.074 249.782 201.546 249.992 201.15 250.412C200.766 250.82 200.574 251.366 200.574 252.05V255.992C200.574 256.76 200.196 257.144 199.44 257.144ZM219.23 257.18C218.354 257.18 217.58 257.066 216.908 256.838C216.248 256.61 215.69 256.274 215.234 255.83C214.778 255.374 214.436 254.81 214.208 254.138C213.98 253.466 213.866 252.686 213.866 251.798V245.336C213.866 244.94 213.962 244.646 214.154 244.454C214.358 244.262 214.646 244.166 215.018 244.166C215.39 244.166 215.672 244.262 215.864 244.454C216.068 244.646 216.17 244.94 216.17 245.336V251.78C216.17 252.92 216.428 253.778 216.944 254.354C217.472 254.918 218.234 255.2 219.23 255.2C220.226 255.2 220.982 254.918 221.498 254.354C222.014 253.778 222.272 252.92 222.272 251.78V245.336C222.272 244.94 222.368 244.646 222.56 244.454C222.764 244.262 223.052 244.166 223.424 244.166C223.784 244.166 224.06 244.262 224.252 244.454C224.456 244.646 224.558 244.94 224.558 245.336V251.798C224.558 252.974 224.354 253.964 223.946 254.768C223.55 255.572 222.956 256.178 222.164 256.586C221.372 256.982 220.394 257.18 219.23 257.18ZM228.145 260.384C227.785 260.384 227.509 260.288 227.317 260.096C227.125 259.904 227.029 259.622 227.029 259.25V249.188C227.029 248.816 227.125 248.534 227.317 248.342C227.509 248.15 227.779 248.054 228.127 248.054C228.487 248.054 228.763 248.15 228.955 248.342C229.147 248.534 229.243 248.816 229.243 249.188V250.592L229.045 250.052C229.225 249.44 229.591 248.948 230.143 248.576C230.707 248.204 231.361 248.018 232.105 248.018C232.873 248.018 233.545 248.204 234.121 248.576C234.709 248.948 235.165 249.476 235.489 250.16C235.813 250.832 235.975 251.642 235.975 252.59C235.975 253.526 235.813 254.342 235.489 255.038C235.165 255.722 234.715 256.25 234.139 256.622C233.563 256.994 232.885 257.18 232.105 257.18C231.373 257.18 230.731 257 230.179 256.64C229.627 256.268 229.255 255.788 229.063 255.2H229.279V259.25C229.279 259.622 229.177 259.904 228.973 260.096C228.781 260.288 228.505 260.384 228.145 260.384ZM231.475 255.47C231.919 255.47 232.309 255.362 232.645 255.146C232.981 254.93 233.239 254.612 233.419 254.192C233.611 253.76 233.707 253.226 233.707 252.59C233.707 251.63 233.503 250.916 233.095 250.448C232.687 249.968 232.147 249.728 231.475 249.728C231.031 249.728 230.641 249.836 230.305 250.052C229.969 250.256 229.705 250.574 229.513 251.006C229.333 251.426 229.243 251.954 229.243 252.59C229.243 253.538 229.447 254.258 229.855 254.75C230.263 255.23 230.803 255.47 231.475 255.47Z" fill="white"/>
<g filter="url(#filter1_d_7368_29107)">
<circle cx="463.5" cy="244.5" r="36.5" fill="#FF8B13"/>
<path d="M460.144 256.429L457.287 263.572M465.858 256.429L468.715 263.572M454.43 263.572H471.573M451.573 243.572H460.144M455.858 239.286V247.858M445.858 230.715H480.144C481.001 230.715 481.573 231.286 481.573 232.143V255.001C481.573 255.858 481.001 256.429 480.144 256.429H445.858C445.001 256.429 444.43 255.858 444.43 255.001V232.143C444.43 231.286 445.001 230.715 445.858 230.715Z" stroke="white" stroke-width="2" stroke-linecap="round" stroke-linejoin="round"/>
<path d="M473.857 242.286C473.668 242.286 473.486 242.211 473.352 242.077C473.218 241.943 473.143 241.761 473.143 241.572C473.143 241.382 473.218 241.201 473.352 241.067C473.486 240.933 473.668 240.857 473.857 240.857M473.857 242.286C474.047 242.286 474.228 242.211 474.362 242.077C474.496 241.943 474.571 241.761 474.571 241.572C474.571 241.382 474.496 241.201 474.362 241.067C474.228 240.933 474.047 240.857 473.857 240.857M468.714 246.286C468.525 246.286 468.343 246.211 468.209 246.077C468.075 245.943 468 245.761 468 245.572C468 245.382 468.075 245.201 468.209 245.067C468.343 244.933 468.525 244.857 468.714 244.857M468.714 246.286C468.904 246.286 469.085 246.211 469.219 246.077C469.353 245.943 469.429 245.761 469.429 245.572C469.429 245.382 469.353 245.201 469.219 245.067C469.085 244.933 468.904 244.857 468.714 244.857" stroke="white" stroke-width="2" stroke-linecap="round" stroke-linejoin="round"/>
</g>
<path d="M404.445 315.144C404.073 315.144 403.779 315.042 403.563 314.838C403.359 314.622 403.257 314.316 403.257 313.92V303.534C403.257 303.138 403.359 302.838 403.563 302.634C403.779 302.418 404.085 302.31 404.481 302.31H410.763C411.075 302.31 411.309 302.388 411.465 302.544C411.621 302.7 411.699 302.922 411.699 303.21C411.699 303.51 411.621 303.744 411.465 303.912C411.309 304.068 411.075 304.146 410.763 304.146H405.561V307.728H410.385C410.685 307.728 410.913 307.806 411.069 307.962C411.237 308.118 411.321 308.34 411.321 308.628C411.321 308.928 411.237 309.162 411.069 309.33C410.913 309.486 410.685 309.564 410.385 309.564H405.561V313.92C405.561 314.736 405.189 315.144 404.445 315.144ZM414.517 315.144C414.145 315.144 413.857 315.042 413.653 314.838C413.461 314.622 413.365 314.328 413.365 313.956V303.48C413.365 303.096 413.467 302.808 413.671 302.616C413.875 302.412 414.163 302.31 414.535 302.31H418.873C420.265 302.31 421.339 302.646 422.095 303.318C422.851 303.978 423.229 304.908 423.229 306.108C423.229 306.888 423.055 307.56 422.707 308.124C422.371 308.688 421.879 309.12 421.231 309.42C420.583 309.72 419.797 309.87 418.873 309.87L419.035 309.6H419.629C420.121 309.6 420.547 309.72 420.907 309.96C421.279 310.2 421.603 310.578 421.879 311.094L423.229 313.596C423.373 313.848 423.439 314.094 423.427 314.334C423.415 314.574 423.325 314.772 423.157 314.928C422.989 315.072 422.743 315.144 422.419 315.144C422.095 315.144 421.831 315.078 421.627 314.946C421.423 314.802 421.243 314.586 421.087 314.298L419.269 310.95C419.053 310.542 418.795 310.272 418.495 310.14C418.207 309.996 417.835 309.924 417.379 309.924H415.669V313.956C415.669 314.328 415.573 314.622 415.381 314.838C415.189 315.042 414.901 315.144 414.517 315.144ZM415.669 308.214H418.477C419.305 308.214 419.929 308.046 420.349 307.71C420.781 307.362 420.997 306.846 420.997 306.162C420.997 305.49 420.781 304.986 420.349 304.65C419.929 304.302 419.305 304.128 418.477 304.128H415.669V308.214ZM426.928 315C426.532 315 426.226 314.898 426.01 314.694C425.806 314.478 425.704 314.172 425.704 313.776V303.534C425.704 303.138 425.806 302.838 426.01 302.634C426.226 302.418 426.532 302.31 426.928 302.31H433.354C433.654 302.31 433.882 302.388 434.038 302.544C434.206 302.7 434.29 302.922 434.29 303.21C434.29 303.51 434.206 303.744 434.038 303.912C433.882 304.068 433.654 304.146 433.354 304.146H427.918V307.638H432.958C433.27 307.638 433.504 307.716 433.66 307.872C433.816 308.028 433.894 308.256 433.894 308.556C433.894 308.856 433.816 309.084 433.66 309.24C433.504 309.396 433.27 309.474 432.958 309.474H427.918V313.164H433.354C433.654 313.164 433.882 313.242 434.038 313.398C434.206 313.554 434.29 313.782 434.29 314.082C434.29 314.382 434.206 314.61 434.038 314.766C433.882 314.922 433.654 315 433.354 315H426.928ZM437.669 315C437.273 315 436.967 314.898 436.751 314.694C436.547 314.478 436.445 314.172 436.445 313.776V303.534C436.445 303.138 436.547 302.838 436.751 302.634C436.967 302.418 437.273 302.31 437.669 302.31H444.095C444.395 302.31 444.623 302.388 444.779 302.544C444.947 302.7 445.031 302.922 445.031 303.21C445.031 303.51 444.947 303.744 444.779 303.912C444.623 304.068 444.395 304.146 444.095 304.146H438.659V307.638H443.699C444.011 307.638 444.245 307.716 444.401 307.872C444.557 308.028 444.635 308.256 444.635 308.556C444.635 308.856 444.557 309.084 444.401 309.24C444.245 309.396 444.011 309.474 443.699 309.474H438.659V313.164H444.095C444.395 313.164 444.623 313.242 444.779 313.398C444.947 313.554 445.031 313.782 445.031 314.082C445.031 314.382 444.947 314.61 444.779 314.766C444.623 314.922 444.395 315 444.095 315H437.669ZM454.754 315.18C454.118 315.18 453.548 315.06 453.044 314.82C452.552 314.568 452.162 314.232 451.874 313.812C451.598 313.392 451.46 312.918 451.46 312.39C451.46 311.742 451.628 311.232 451.964 310.86C452.3 310.476 452.846 310.2 453.602 310.032C454.358 309.864 455.372 309.78 456.644 309.78H457.544V311.076H456.662C455.918 311.076 455.324 311.112 454.88 311.184C454.436 311.256 454.118 311.382 453.926 311.562C453.746 311.73 453.656 311.97 453.656 312.282C453.656 312.678 453.794 313.002 454.07 313.254C454.346 313.506 454.73 313.632 455.222 313.632C455.618 313.632 455.966 313.542 456.266 313.362C456.578 313.17 456.824 312.912 457.004 312.588C457.184 312.264 457.274 311.892 457.274 311.472V309.402C457.274 308.802 457.142 308.37 456.878 308.106C456.614 307.842 456.17 307.71 455.546 307.71C455.198 307.71 454.82 307.752 454.412 307.836C454.016 307.92 453.596 308.064 453.152 308.268C452.924 308.376 452.72 308.406 452.54 308.358C452.372 308.31 452.24 308.214 452.144 308.07C452.048 307.914 452 307.746 452 307.566C452 307.386 452.048 307.212 452.144 307.044C452.24 306.864 452.402 306.732 452.63 306.648C453.182 306.42 453.71 306.258 454.214 306.162C454.73 306.066 455.198 306.018 455.618 306.018C456.482 306.018 457.19 306.15 457.742 306.414C458.306 306.678 458.726 307.08 459.002 307.62C459.278 308.148 459.416 308.832 459.416 309.672V313.992C459.416 314.364 459.326 314.652 459.146 314.856C458.966 315.048 458.708 315.144 458.372 315.144C458.036 315.144 457.772 315.048 457.58 314.856C457.4 314.652 457.31 314.364 457.31 313.992V313.128H457.454C457.37 313.548 457.202 313.914 456.95 314.226C456.71 314.526 456.404 314.76 456.032 314.928C455.66 315.096 455.234 315.18 454.754 315.18ZM465.767 315.18C464.843 315.18 464.039 314.994 463.355 314.622C462.671 314.238 462.143 313.698 461.771 313.002C461.399 312.306 461.213 311.49 461.213 310.554C461.213 309.846 461.315 309.216 461.519 308.664C461.735 308.1 462.041 307.626 462.437 307.242C462.833 306.846 463.313 306.546 463.877 306.342C464.441 306.126 465.071 306.018 465.767 306.018C466.163 306.018 466.589 306.072 467.045 306.18C467.513 306.288 467.951 306.468 468.359 306.72C468.551 306.84 468.677 306.984 468.737 307.152C468.797 307.32 468.809 307.494 468.773 307.674C468.737 307.842 468.659 307.992 468.539 308.124C468.431 308.244 468.293 308.322 468.125 308.358C467.957 308.382 467.771 308.34 467.567 308.232C467.303 308.076 467.033 307.962 466.757 307.89C466.481 307.806 466.217 307.764 465.965 307.764C465.569 307.764 465.221 307.83 464.921 307.962C464.621 308.082 464.363 308.262 464.147 308.502C463.943 308.73 463.787 309.018 463.679 309.366C463.571 309.714 463.517 310.116 463.517 310.572C463.517 311.46 463.727 312.162 464.147 312.678C464.579 313.182 465.185 313.434 465.965 313.434C466.217 313.434 466.475 313.398 466.739 313.326C467.015 313.254 467.291 313.14 467.567 312.984C467.771 312.876 467.951 312.84 468.107 312.876C468.275 312.912 468.413 312.996 468.521 313.128C468.629 313.248 468.695 313.398 468.719 313.578C468.743 313.746 468.719 313.914 468.647 314.082C468.587 314.25 468.467 314.388 468.287 314.496C467.891 314.736 467.471 314.91 467.027 315.018C466.583 315.126 466.163 315.18 465.767 315.18ZM474.257 315.18C473.477 315.18 472.823 315.048 472.295 314.784C471.779 314.52 471.395 314.136 471.143 313.632C470.891 313.116 470.765 312.48 470.765 311.724V307.89H469.829C469.541 307.89 469.319 307.818 469.163 307.674C469.007 307.518 468.929 307.308 468.929 307.044C468.929 306.768 469.007 306.558 469.163 306.414C469.319 306.27 469.541 306.198 469.829 306.198H470.765V304.56C470.765 304.188 470.861 303.906 471.053 303.714C471.257 303.522 471.539 303.426 471.899 303.426C472.259 303.426 472.535 303.522 472.727 303.714C472.919 303.906 473.015 304.188 473.015 304.56V306.198H474.923C475.211 306.198 475.433 306.27 475.589 306.414C475.745 306.558 475.823 306.768 475.823 307.044C475.823 307.308 475.745 307.518 475.589 307.674C475.433 307.818 475.211 307.89 474.923 307.89H473.015V311.598C473.015 312.174 473.141 312.606 473.393 312.894C473.645 313.182 474.053 313.326 474.617 313.326C474.821 313.326 475.001 313.308 475.157 313.272C475.313 313.236 475.451 313.212 475.571 313.2C475.715 313.188 475.835 313.236 475.931 313.344C476.027 313.44 476.075 313.644 476.075 313.956C476.075 314.196 476.033 314.412 475.949 314.604C475.877 314.784 475.739 314.91 475.535 314.982C475.379 315.03 475.175 315.072 474.923 315.108C474.671 315.156 474.449 315.18 474.257 315.18ZM478.477 315.126C478.117 315.126 477.841 315.018 477.649 314.802C477.457 314.586 477.361 314.286 477.361 313.902V307.296C477.361 306.9 477.457 306.6 477.649 306.396C477.841 306.18 478.117 306.072 478.477 306.072C478.837 306.072 479.113 306.18 479.305 306.396C479.509 306.6 479.611 306.9 479.611 307.296V313.902C479.611 314.286 479.515 314.586 479.323 314.802C479.131 315.018 478.849 315.126 478.477 315.126ZM478.477 304.398C478.057 304.398 477.727 304.296 477.487 304.092C477.259 303.876 477.145 303.582 477.145 303.21C477.145 302.826 477.259 302.532 477.487 302.328C477.727 302.124 478.057 302.022 478.477 302.022C478.909 302.022 479.239 302.124 479.467 302.328C479.695 302.532 479.809 302.826 479.809 303.21C479.809 303.582 479.695 303.876 479.467 304.092C479.239 304.296 478.909 304.398 478.477 304.398ZM485.513 315.144C485.213 315.144 484.949 315.066 484.721 314.91C484.505 314.754 484.325 314.514 484.181 314.19L481.319 307.548C481.211 307.284 481.169 307.038 481.193 306.81C481.229 306.582 481.337 306.402 481.517 306.27C481.709 306.126 481.967 306.054 482.291 306.054C482.567 306.054 482.789 306.12 482.957 306.252C483.125 306.372 483.275 306.606 483.407 306.954L485.837 313.02H485.297L487.799 306.936C487.931 306.6 488.081 306.372 488.249 306.252C488.429 306.12 488.669 306.054 488.969 306.054C489.233 306.054 489.443 306.126 489.599 306.27C489.755 306.402 489.851 306.582 489.887 306.81C489.923 307.026 489.881 307.266 489.761 307.53L486.845 314.19C486.713 314.514 486.533 314.754 486.305 314.91C486.089 315.066 485.825 315.144 485.513 315.144ZM492.557 315.126C492.197 315.126 491.921 315.018 491.729 314.802C491.537 314.586 491.441 314.286 491.441 313.902V307.296C491.441 306.9 491.537 306.6 491.729 306.396C491.921 306.18 492.197 306.072 492.557 306.072C492.917 306.072 493.193 306.18 493.385 306.396C493.589 306.6 493.691 306.9 493.691 307.296V313.902C493.691 314.286 493.595 314.586 493.403 314.802C493.211 315.018 492.929 315.126 492.557 315.126ZM492.557 304.398C492.137 304.398 491.807 304.296 491.567 304.092C491.339 303.876 491.225 303.582 491.225 303.21C491.225 302.826 491.339 302.532 491.567 302.328C491.807 302.124 492.137 302.022 492.557 302.022C492.989 302.022 493.319 302.124 493.547 302.328C493.775 302.532 493.889 302.826 493.889 303.21C493.889 303.582 493.775 303.876 493.547 304.092C493.319 304.296 492.989 304.398 492.557 304.398ZM500.061 315.18C499.281 315.18 498.627 315.048 498.099 314.784C497.583 314.52 497.199 314.136 496.947 313.632C496.695 313.116 496.569 312.48 496.569 311.724V307.89H495.633C495.345 307.89 495.123 307.818 494.967 307.674C494.811 307.518 494.733 307.308 494.733 307.044C494.733 306.768 494.811 306.558 494.967 306.414C495.123 306.27 495.345 306.198 495.633 306.198H496.569V304.56C496.569 304.188 496.665 303.906 496.857 303.714C497.061 303.522 497.343 303.426 497.703 303.426C498.063 303.426 498.339 303.522 498.531 303.714C498.723 303.906 498.819 304.188 498.819 304.56V306.198H500.727C501.015 306.198 501.237 306.27 501.393 306.414C501.549 306.558 501.627 306.768 501.627 307.044C501.627 307.308 501.549 307.518 501.393 307.674C501.237 307.818 501.015 307.89 500.727 307.89H498.819V311.598C498.819 312.174 498.945 312.606 499.197 312.894C499.449 313.182 499.857 313.326 500.421 313.326C500.625 313.326 500.805 313.308 500.961 313.272C501.117 313.236 501.255 313.212 501.375 313.2C501.519 313.188 501.639 313.236 501.735 313.344C501.831 313.44 501.879 313.644 501.879 313.956C501.879 314.196 501.837 314.412 501.753 314.604C501.681 314.784 501.543 314.91 501.339 314.982C501.183 315.03 500.979 315.072 500.727 315.108C500.475 315.156 500.253 315.18 500.061 315.18ZM504.282 315.126C503.922 315.126 503.646 315.018 503.454 314.802C503.262 314.586 503.166 314.286 503.166 313.902V307.296C503.166 306.9 503.262 306.6 503.454 306.396C503.646 306.18 503.922 306.072 504.282 306.072C504.642 306.072 504.918 306.18 505.11 306.396C505.314 306.6 505.416 306.9 505.416 307.296V313.902C505.416 314.286 505.32 314.586 505.128 314.802C504.936 315.018 504.654 315.126 504.282 315.126ZM504.282 304.398C503.862 304.398 503.532 304.296 503.292 304.092C503.064 303.876 502.95 303.582 502.95 303.21C502.95 302.826 503.064 302.532 503.292 302.328C503.532 302.124 503.862 302.022 504.282 302.022C504.714 302.022 505.044 302.124 505.272 302.328C505.5 302.532 505.614 302.826 505.614 303.21C505.614 303.582 505.5 303.876 505.272 304.092C505.044 304.296 504.714 304.398 504.282 304.398ZM512.092 315.18C511.096 315.18 510.238 314.994 509.518 314.622C508.798 314.25 508.24 313.722 507.844 313.038C507.46 312.354 507.268 311.544 507.268 310.608C507.268 309.696 507.454 308.898 507.826 308.214C508.21 307.53 508.732 306.996 509.392 306.612C510.064 306.216 510.826 306.018 511.678 306.018C512.302 306.018 512.86 306.12 513.352 306.324C513.856 306.528 514.282 306.822 514.63 307.206C514.99 307.59 515.26 308.058 515.44 308.61C515.632 309.15 515.728 309.762 515.728 310.446C515.728 310.662 515.65 310.83 515.494 310.95C515.35 311.058 515.14 311.112 514.864 311.112H509.086V309.816H514.144L513.856 310.086C513.856 309.534 513.772 309.072 513.604 308.7C513.448 308.328 513.214 308.046 512.902 307.854C512.602 307.65 512.224 307.548 511.768 307.548C511.264 307.548 510.832 307.668 510.472 307.908C510.124 308.136 509.854 308.466 509.662 308.898C509.482 309.318 509.392 309.822 509.392 310.41V310.536C509.392 311.52 509.62 312.258 510.076 312.75C510.544 313.23 511.228 313.47 512.128 313.47C512.44 313.47 512.788 313.434 513.172 313.362C513.568 313.278 513.94 313.14 514.288 312.948C514.54 312.804 514.762 312.744 514.954 312.768C515.146 312.78 515.296 312.846 515.404 312.966C515.524 313.086 515.596 313.236 515.62 313.416C515.644 313.584 515.608 313.758 515.512 313.938C515.428 314.118 515.278 314.274 515.062 314.406C514.642 314.67 514.156 314.868 513.604 315C513.064 315.12 512.56 315.18 512.092 315.18ZM520.732 315.18C520.216 315.18 519.67 315.126 519.094 315.018C518.518 314.91 518.002 314.724 517.546 314.46C517.354 314.34 517.216 314.202 517.132 314.046C517.06 313.878 517.03 313.716 517.042 313.56C517.066 313.392 517.126 313.248 517.222 313.128C517.33 313.008 517.462 312.93 517.618 312.894C517.786 312.858 517.966 312.888 518.158 312.984C518.638 313.212 519.088 313.374 519.508 313.47C519.928 313.554 520.342 313.596 520.75 313.596C521.326 313.596 521.752 313.5 522.028 313.308C522.316 313.104 522.46 312.84 522.46 312.516C522.46 312.24 522.364 312.03 522.172 311.886C521.992 311.73 521.716 311.616 521.344 311.544L519.544 311.202C518.8 311.058 518.23 310.788 517.834 310.392C517.45 309.984 517.258 309.462 517.258 308.826C517.258 308.25 517.414 307.752 517.726 307.332C518.05 306.912 518.494 306.588 519.058 306.36C519.622 306.132 520.27 306.018 521.002 306.018C521.53 306.018 522.022 306.078 522.478 306.198C522.946 306.306 523.396 306.48 523.828 306.72C524.008 306.816 524.128 306.942 524.188 307.098C524.26 307.254 524.278 307.416 524.242 307.584C524.206 307.74 524.134 307.884 524.026 308.016C523.918 308.136 523.78 308.214 523.612 308.25C523.456 308.274 523.276 308.238 523.072 308.142C522.7 307.95 522.34 307.812 521.992 307.728C521.656 307.644 521.332 307.602 521.02 307.602C520.432 307.602 519.994 307.704 519.706 307.908C519.43 308.112 519.292 308.382 519.292 308.718C519.292 308.97 519.376 309.18 519.544 309.348C519.712 309.516 519.97 309.63 520.318 309.69L522.118 310.032C522.898 310.176 523.486 310.44 523.882 310.824C524.29 311.208 524.494 311.724 524.494 312.372C524.494 313.248 524.152 313.938 523.468 314.442C522.784 314.934 521.872 315.18 520.732 315.18Z" fill="white"/>
<g filter="url(#filter2_d_7368_29107)">
<circle cx="726.5" cy="152.5" r="36.5" fill="#FF8B13"/>
<path d="M731.001 154.667C735.604 154.667 739.335 150.936 739.335 146.333C739.335 141.731 735.604 138 731.001 138C726.399 138 722.668 141.731 722.668 146.333C722.668 150.936 726.399 154.667 731.001 154.667Z" stroke="white" stroke-width="2" stroke-linecap="round" stroke-linejoin="round"/>
<path d="M744.335 167.999C744.335 164.463 742.93 161.072 740.429 158.571C737.929 156.071 734.538 154.666 731.001 154.666C727.465 154.666 724.074 156.071 721.573 158.571C719.073 161.072 717.668 164.463 717.668 167.999" stroke="white" stroke-width="2" stroke-linecap="round" stroke-linejoin="round"/>
<path d="M711.5 145V156" stroke="white" stroke-width="2" stroke-linecap="round"/>
<path d="M717 150.5L706 150.5" stroke="white" stroke-width="2" stroke-linecap="round"/>
</g>
<path d="M679.742 223C679.346 223 679.04 222.898 678.824 222.694C678.62 222.478 678.518 222.172 678.518 221.776V211.534C678.518 211.138 678.62 210.838 678.824 210.634C679.04 210.418 679.346 210.31 679.742 210.31H686.168C686.468 210.31 686.696 210.388 686.852 210.544C687.02 210.7 687.104 210.922 687.104 211.21C687.104 211.51 687.02 211.744 686.852 211.912C686.696 212.068 686.468 212.146 686.168 212.146H680.732V215.638H685.772C686.084 215.638 686.318 215.716 686.474 215.872C686.63 216.028 686.708 216.256 686.708 216.556C686.708 216.856 686.63 217.084 686.474 217.24C686.318 217.396 686.084 217.474 685.772 217.474H680.732V221.164H686.168C686.468 221.164 686.696 221.242 686.852 221.398C687.02 221.554 687.104 221.782 687.104 222.082C687.104 222.382 687.02 222.61 686.852 222.766C686.696 222.922 686.468 223 686.168 223H679.742ZM690.158 223.144C689.798 223.144 689.522 223.048 689.33 222.856C689.138 222.652 689.042 222.364 689.042 221.992V215.188C689.042 214.816 689.138 214.534 689.33 214.342C689.522 214.15 689.792 214.054 690.14 214.054C690.488 214.054 690.758 214.15 690.95 214.342C691.142 214.534 691.238 214.816 691.238 215.188V216.412L691.04 215.962C691.304 215.326 691.712 214.846 692.264 214.522C692.828 214.186 693.464 214.018 694.172 214.018C694.88 214.018 695.462 214.15 695.918 214.414C696.374 214.678 696.716 215.08 696.944 215.62C697.172 216.148 697.286 216.82 697.286 217.636V221.992C697.286 222.364 697.19 222.652 696.998 222.856C696.806 223.048 696.53 223.144 696.17 223.144C695.81 223.144 695.528 223.048 695.324 222.856C695.132 222.652 695.036 222.364 695.036 221.992V217.744C695.036 217.06 694.904 216.562 694.64 216.25C694.388 215.938 693.992 215.782 693.452 215.782C692.792 215.782 692.264 215.992 691.868 216.412C691.484 216.82 691.292 217.366 691.292 218.05V221.992C691.292 222.76 690.914 223.144 690.158 223.144ZM700.723 223.144C700.351 223.144 700.063 223.048 699.859 222.856C699.667 222.652 699.571 222.364 699.571 221.992V215.188C699.571 214.816 699.667 214.534 699.859 214.342C700.051 214.15 700.321 214.054 700.669 214.054C701.017 214.054 701.287 214.15 701.479 214.342C701.671 214.534 701.767 214.816 701.767 215.188V216.322H701.587C701.755 215.602 702.085 215.056 702.577 214.684C703.069 214.312 703.723 214.09 704.539 214.018C704.791 213.994 704.989 214.06 705.133 214.216C705.289 214.36 705.379 214.588 705.403 214.9C705.427 215.2 705.355 215.446 705.187 215.638C705.031 215.818 704.791 215.926 704.467 215.962L704.071 215.998C703.339 216.07 702.787 216.298 702.415 216.682C702.043 217.054 701.857 217.582 701.857 218.266V221.992C701.857 222.364 701.761 222.652 701.569 222.856C701.377 223.048 701.095 223.144 700.723 223.144ZM710.494 223.18C709.582 223.18 708.79 222.994 708.118 222.622C707.446 222.25 706.924 221.722 706.552 221.038C706.18 220.342 705.994 219.526 705.994 218.59C705.994 217.882 706.096 217.252 706.3 216.7C706.516 216.136 706.822 215.656 707.218 215.26C707.614 214.852 708.088 214.546 708.64 214.342C709.192 214.126 709.81 214.018 710.494 214.018C711.406 214.018 712.198 214.204 712.87 214.576C713.542 214.948 714.064 215.476 714.436 216.16C714.808 216.844 714.994 217.654 714.994 218.59C714.994 219.298 714.886 219.934 714.67 220.498C714.466 221.062 714.166 221.548 713.77 221.956C713.374 222.352 712.9 222.658 712.348 222.874C711.796 223.078 711.178 223.18 710.494 223.18ZM710.494 221.47C710.938 221.47 711.328 221.362 711.664 221.146C712 220.93 712.258 220.612 712.438 220.192C712.63 219.76 712.726 219.226 712.726 218.59C712.726 217.63 712.522 216.916 712.114 216.448C711.706 215.968 711.166 215.728 710.494 215.728C710.05 215.728 709.66 215.836 709.324 216.052C708.988 216.256 708.724 216.574 708.532 217.006C708.352 217.426 708.262 217.954 708.262 218.59C708.262 219.538 708.466 220.258 708.874 220.75C709.282 221.23 709.822 221.47 710.494 221.47ZM719.857 223.18C718.861 223.18 718.111 222.898 717.607 222.334C717.103 221.758 716.851 220.918 716.851 219.814V211.3C716.851 210.928 716.947 210.646 717.139 210.454C717.331 210.262 717.607 210.166 717.967 210.166C718.327 210.166 718.603 210.262 718.795 210.454C718.999 210.646 719.101 210.928 719.101 211.3V219.706C719.101 220.258 719.215 220.666 719.443 220.93C719.683 221.194 720.019 221.326 720.451 221.326C720.547 221.326 720.637 221.326 720.721 221.326C720.805 221.314 720.889 221.302 720.973 221.29C721.141 221.266 721.255 221.314 721.315 221.434C721.375 221.542 721.405 221.77 721.405 222.118C721.405 222.418 721.345 222.652 721.225 222.82C721.105 222.988 720.907 223.09 720.631 223.126C720.511 223.138 720.385 223.15 720.253 223.162C720.121 223.174 719.989 223.18 719.857 223.18ZM725.605 223.18C724.609 223.18 723.859 222.898 723.355 222.334C722.851 221.758 722.599 220.918 722.599 219.814V211.3C722.599 210.928 722.695 210.646 722.887 210.454C723.079 210.262 723.355 210.166 723.715 210.166C724.075 210.166 724.351 210.262 724.543 210.454C724.747 210.646 724.849 210.928 724.849 211.3V219.706C724.849 220.258 724.963 220.666 725.191 220.93C725.431 221.194 725.767 221.326 726.199 221.326C726.295 221.326 726.385 221.326 726.469 221.326C726.553 221.314 726.637 221.302 726.721 221.29C726.889 221.266 727.003 221.314 727.063 221.434C727.123 221.542 727.153 221.77 727.153 222.118C727.153 222.418 727.093 222.652 726.973 222.82C726.853 222.988 726.655 223.09 726.379 223.126C726.259 223.138 726.133 223.15 726.001 223.162C725.869 223.174 725.737 223.18 725.605 223.18ZM739.353 223.18C738.033 223.18 736.899 222.916 735.951 222.388C735.015 221.848 734.295 221.092 733.791 220.12C733.287 219.136 733.035 217.978 733.035 216.646C733.035 215.65 733.179 214.756 733.467 213.964C733.755 213.16 734.169 212.476 734.709 211.912C735.249 211.336 735.909 210.898 736.689 210.598C737.481 210.286 738.369 210.13 739.353 210.13C740.013 210.13 740.661 210.214 741.297 210.382C741.933 210.55 742.491 210.79 742.971 211.102C743.223 211.258 743.391 211.45 743.475 211.678C743.559 211.894 743.577 212.11 743.529 212.326C743.481 212.53 743.379 212.704 743.223 212.848C743.079 212.992 742.893 213.076 742.665 213.1C742.449 213.112 742.209 213.034 741.945 212.866C741.573 212.626 741.171 212.452 740.739 212.344C740.307 212.236 739.869 212.182 739.425 212.182C738.573 212.182 737.853 212.356 737.265 212.704C736.677 213.052 736.233 213.556 735.933 214.216C735.633 214.876 735.483 215.686 735.483 216.646C735.483 217.594 735.633 218.404 735.933 219.076C736.233 219.748 736.677 220.258 737.265 220.606C737.853 220.954 738.573 221.128 739.425 221.128C739.881 221.128 740.331 221.074 740.775 220.966C741.219 220.846 741.639 220.666 742.035 220.426C742.299 220.27 742.533 220.204 742.737 220.228C742.953 220.24 743.133 220.312 743.277 220.444C743.421 220.576 743.517 220.744 743.565 220.948C743.613 221.14 743.601 221.344 743.529 221.56C743.457 221.764 743.313 221.944 743.097 222.1C742.617 222.448 742.041 222.718 741.369 222.91C740.709 223.09 740.037 223.18 739.353 223.18ZM746.584 223.144C746.224 223.144 745.948 223.048 745.756 222.856C745.564 222.652 745.468 222.364 745.468 221.992V211.3C745.468 210.928 745.564 210.646 745.756 210.454C745.948 210.262 746.224 210.166 746.584 210.166C746.944 210.166 747.22 210.262 747.412 210.454C747.616 210.646 747.718 210.928 747.718 211.3V215.962H747.466C747.73 215.326 748.138 214.846 748.69 214.522C749.254 214.186 749.89 214.018 750.598 214.018C751.306 214.018 751.888 214.15 752.344 214.414C752.8 214.678 753.142 215.08 753.37 215.62C753.598 216.148 753.712 216.82 753.712 217.636V221.992C753.712 222.364 753.616 222.652 753.424 222.856C753.232 223.048 752.956 223.144 752.596 223.144C752.236 223.144 751.954 223.048 751.75 222.856C751.558 222.652 751.462 222.364 751.462 221.992V217.744C751.462 217.06 751.33 216.562 751.066 216.25C750.814 215.938 750.418 215.782 749.878 215.782C749.218 215.782 748.69 215.992 748.294 216.412C747.91 216.82 747.718 217.366 747.718 218.05V221.992C747.718 222.76 747.34 223.144 746.584 223.144ZM757.113 223.126C756.753 223.126 756.477 223.018 756.285 222.802C756.093 222.586 755.997 222.286 755.997 221.902V215.296C755.997 214.9 756.093 214.6 756.285 214.396C756.477 214.18 756.753 214.072 757.113 214.072C757.473 214.072 757.749 214.18 757.941 214.396C758.145 214.6 758.247 214.9 758.247 215.296V221.902C758.247 222.286 758.151 222.586 757.959 222.802C757.767 223.018 757.485 223.126 757.113 223.126ZM757.113 212.398C756.693 212.398 756.363 212.296 756.123 212.092C755.895 211.876 755.781 211.582 755.781 211.21C755.781 210.826 755.895 210.532 756.123 210.328C756.363 210.124 756.693 210.022 757.113 210.022C757.545 210.022 757.875 210.124 758.103 210.328C758.331 210.532 758.445 210.826 758.445 211.21C758.445 211.582 758.331 211.876 758.103 212.092C757.875 212.296 757.545 212.398 757.113 212.398ZM763.591 223.18C762.595 223.18 761.845 222.898 761.341 222.334C760.837 221.758 760.585 220.918 760.585 219.814V211.3C760.585 210.928 760.681 210.646 760.873 210.454C761.065 210.262 761.341 210.166 761.701 210.166C762.061 210.166 762.337 210.262 762.529 210.454C762.733 210.646 762.835 210.928 762.835 211.3V219.706C762.835 220.258 762.949 220.666 763.177 220.93C763.417 221.194 763.753 221.326 764.185 221.326C764.281 221.326 764.371 221.326 764.455 221.326C764.539 221.314 764.623 221.302 764.707 221.29C764.875 221.266 764.989 221.314 765.049 221.434C765.109 221.542 765.139 221.77 765.139 222.118C765.139 222.418 765.079 222.652 764.959 222.82C764.839 222.988 764.641 223.09 764.365 223.126C764.245 223.138 764.119 223.15 763.987 223.162C763.855 223.174 763.723 223.18 763.591 223.18ZM769.629 223.18C768.861 223.18 768.183 222.994 767.595 222.622C767.019 222.25 766.569 221.722 766.245 221.038C765.921 220.342 765.759 219.526 765.759 218.59C765.759 217.642 765.921 216.832 766.245 216.16C766.569 215.476 767.019 214.948 767.595 214.576C768.183 214.204 768.861 214.018 769.629 214.018C770.361 214.018 770.997 214.198 771.537 214.558C772.089 214.918 772.461 215.392 772.653 215.98H772.455V211.3C772.455 210.928 772.551 210.646 772.743 210.454C772.935 210.262 773.211 210.166 773.571 210.166C773.931 210.166 774.207 210.262 774.399 210.454C774.603 210.646 774.705 210.928 774.705 211.3V221.992C774.705 222.364 774.609 222.652 774.417 222.856C774.225 223.048 773.949 223.144 773.589 223.144C773.229 223.144 772.953 223.048 772.761 222.856C772.569 222.652 772.473 222.364 772.473 221.992V220.588L772.671 221.128C772.491 221.752 772.125 222.25 771.573 222.622C771.021 222.994 770.373 223.18 769.629 223.18ZM770.259 221.47C770.703 221.47 771.093 221.362 771.429 221.146C771.765 220.93 772.023 220.612 772.203 220.192C772.395 219.76 772.491 219.226 772.491 218.59C772.491 217.63 772.287 216.916 771.879 216.448C771.471 215.968 770.931 215.728 770.259 215.728C769.815 215.728 769.425 215.836 769.089 216.052C768.753 216.256 768.489 216.574 768.297 217.006C768.117 217.426 768.027 217.954 768.027 218.59C768.027 219.538 768.231 220.258 768.639 220.75C769.047 221.23 769.587 221.47 770.259 221.47Z" fill="white"/>
<g filter="url(#filter3_d_7368_29107)">
<circle cx="980.5" cy="244.5" r="36.5" fill="#FF8B13"/>
<path d="M964.168 240.833H995.835M964.168 240.833V259.166C964.168 259.608 964.344 260.032 964.656 260.345C964.969 260.657 965.393 260.833 965.835 260.833H994.168C994.61 260.833 995.034 260.657 995.346 260.345C995.659 260.032 995.835 259.608 995.835 259.166V240.833M964.168 240.833V233.333C964.168 232.891 964.344 232.467 964.656 232.154C964.969 231.842 965.393 231.666 965.835 231.666H994.168C994.61 231.666 995.034 231.842 995.346 232.154C995.659 232.467 995.835 232.891 995.835 233.333V240.833" stroke="white" stroke-width="2" stroke-linejoin="round"/>
<path d="M973.336 229.166V235.833M986.669 229.166V235.833" stroke="white" stroke-width="2" stroke-linecap="round"/>
<path d="M983.208 256.816C983.016 256.816 982.848 256.786 982.704 256.726C982.56 256.666 982.44 256.582 982.344 256.474C982.26 256.366 982.182 256.252 982.11 256.132L979.788 252.64C979.608 252.352 979.416 252.118 979.212 251.938C979.02 251.758 978.804 251.632 978.564 251.56C978.324 251.488 978.036 251.452 977.7 251.452H975.774C975.522 251.452 975.33 251.386 975.198 251.254C975.066 251.11 975 250.924 975 250.696C975 250.456 975.066 250.276 975.198 250.156C975.33 250.024 975.522 249.958 975.774 249.958H978.726C979.686 249.958 980.406 249.772 980.886 249.4C981.366 249.016 981.624 248.44 981.66 247.672L981.93 248.104H975.72C975.492 248.104 975.312 248.05 975.18 247.942C975.06 247.822 975 247.654 975 247.438C975 247.234 975.06 247.078 975.18 246.97C975.312 246.85 975.492 246.79 975.72 246.79H981.93L981.624 247.204C981.528 246.58 981.246 246.112 980.778 245.8C980.322 245.476 979.674 245.314 978.834 245.314H975.72C975.492 245.314 975.312 245.26 975.18 245.152C975.06 245.032 975 244.864 975 244.648C975 244.444 975.06 244.288 975.18 244.18C975.312 244.06 975.492 244 975.72 244H984.576C984.816 244 984.996 244.06 985.116 244.18C985.248 244.288 985.314 244.444 985.314 244.648C985.314 244.864 985.248 245.032 985.116 245.152C984.996 245.26 984.816 245.314 984.576 245.314H981.678L981.93 244.9C982.374 245.128 982.722 245.428 982.974 245.8C983.226 246.172 983.382 246.604 983.442 247.096L983.082 246.79H984.576C984.816 246.79 984.996 246.85 985.116 246.97C985.248 247.078 985.314 247.234 985.314 247.438C985.314 247.654 985.248 247.822 985.116 247.942C984.996 248.05 984.816 248.104 984.576 248.104H983.136L983.478 247.6C983.502 248.368 983.34 249.034 982.992 249.598C982.656 250.162 982.164 250.6 981.516 250.912C980.88 251.212 980.106 251.362 979.194 251.362V251.182H979.59C980.082 251.182 980.514 251.29 980.886 251.506C981.258 251.722 981.624 252.1 981.984 252.64L983.892 255.502C984.036 255.718 984.096 255.928 984.072 256.132C984.06 256.324 983.976 256.486 983.82 256.618C983.676 256.75 983.472 256.816 983.208 256.816Z" fill="white"/>
</g>
<path d="M935.29 315.18C933.97 315.18 932.836 314.916 931.888 314.388C930.952 313.848 930.232 313.092 929.728 312.12C929.224 311.136 928.972 309.978 928.972 308.646C928.972 307.65 929.116 306.756 929.404 305.964C929.692 305.16 930.106 304.476 930.646 303.912C931.186 303.336 931.846 302.898 932.626 302.598C933.418 302.286 934.306 302.13 935.29 302.13C935.95 302.13 936.598 302.214 937.234 302.382C937.87 302.55 938.428 302.79 938.908 303.102C939.16 303.258 939.328 303.45 939.412 303.678C939.496 303.894 939.514 304.11 939.466 304.326C939.418 304.53 939.316 304.704 939.16 304.848C939.016 304.992 938.83 305.076 938.602 305.1C938.386 305.112 938.146 305.034 937.882 304.866C937.51 304.626 937.108 304.452 936.676 304.344C936.244 304.236 935.806 304.182 935.362 304.182C934.51 304.182 933.79 304.356 933.202 304.704C932.614 305.052 932.17 305.556 931.87 306.216C931.57 306.876 931.42 307.686 931.42 308.646C931.42 309.594 931.57 310.404 931.87 311.076C932.17 311.748 932.614 312.258 933.202 312.606C933.79 312.954 934.51 313.128 935.362 313.128C935.818 313.128 936.268 313.074 936.712 312.966C937.156 312.846 937.576 312.666 937.972 312.426C938.236 312.27 938.47 312.204 938.674 312.228C938.89 312.24 939.07 312.312 939.214 312.444C939.358 312.576 939.454 312.744 939.502 312.948C939.55 313.14 939.538 313.344 939.466 313.56C939.394 313.764 939.25 313.944 939.034 314.1C938.554 314.448 937.978 314.718 937.306 314.91C936.646 315.09 935.974 315.18 935.29 315.18ZM942.52 315.144C942.16 315.144 941.884 315.048 941.692 314.856C941.5 314.652 941.404 314.364 941.404 313.992V303.3C941.404 302.928 941.5 302.646 941.692 302.454C941.884 302.262 942.16 302.166 942.52 302.166C942.88 302.166 943.156 302.262 943.348 302.454C943.552 302.646 943.654 302.928 943.654 303.3V307.962H943.402C943.666 307.326 944.074 306.846 944.626 306.522C945.19 306.186 945.826 306.018 946.534 306.018C947.242 306.018 947.824 306.15 948.28 306.414C948.736 306.678 949.078 307.08 949.306 307.62C949.534 308.148 949.648 308.82 949.648 309.636V313.992C949.648 314.364 949.552 314.652 949.36 314.856C949.168 315.048 948.892 315.144 948.532 315.144C948.172 315.144 947.89 315.048 947.686 314.856C947.494 314.652 947.398 314.364 947.398 313.992V309.744C947.398 309.06 947.266 308.562 947.002 308.25C946.75 307.938 946.354 307.782 945.814 307.782C945.154 307.782 944.626 307.992 944.23 308.412C943.846 308.82 943.654 309.366 943.654 310.05V313.992C943.654 314.76 943.276 315.144 942.52 315.144ZM955.948 315.18C955.036 315.18 954.244 314.994 953.572 314.622C952.9 314.25 952.378 313.722 952.006 313.038C951.634 312.342 951.448 311.526 951.448 310.59C951.448 309.882 951.55 309.252 951.754 308.7C951.97 308.136 952.276 307.656 952.672 307.26C953.068 306.852 953.542 306.546 954.094 306.342C954.646 306.126 955.264 306.018 955.948 306.018C956.86 306.018 957.652 306.204 958.324 306.576C958.996 306.948 959.518 307.476 959.89 308.16C960.262 308.844 960.448 309.654 960.448 310.59C960.448 311.298 960.34 311.934 960.124 312.498C959.92 313.062 959.62 313.548 959.224 313.956C958.828 314.352 958.354 314.658 957.802 314.874C957.25 315.078 956.632 315.18 955.948 315.18ZM955.948 313.47C956.392 313.47 956.782 313.362 957.118 313.146C957.454 312.93 957.712 312.612 957.892 312.192C958.084 311.76 958.18 311.226 958.18 310.59C958.18 309.63 957.976 308.916 957.568 308.448C957.16 307.968 956.62 307.728 955.948 307.728C955.504 307.728 955.114 307.836 954.778 308.052C954.442 308.256 954.178 308.574 953.986 309.006C953.806 309.426 953.716 309.954 953.716 310.59C953.716 311.538 953.92 312.258 954.328 312.75C954.736 313.23 955.276 313.47 955.948 313.47ZM966.319 315.18C965.407 315.18 964.615 314.994 963.943 314.622C963.271 314.25 962.749 313.722 962.377 313.038C962.005 312.342 961.819 311.526 961.819 310.59C961.819 309.882 961.921 309.252 962.125 308.7C962.341 308.136 962.647 307.656 963.043 307.26C963.439 306.852 963.913 306.546 964.465 306.342C965.017 306.126 965.635 306.018 966.319 306.018C967.231 306.018 968.023 306.204 968.695 306.576C969.367 306.948 969.889 307.476 970.261 308.16C970.633 308.844 970.819 309.654 970.819 310.59C970.819 311.298 970.711 311.934 970.495 312.498C970.291 313.062 969.991 313.548 969.595 313.956C969.199 314.352 968.725 314.658 968.173 314.874C967.621 315.078 967.003 315.18 966.319 315.18ZM966.319 313.47C966.763 313.47 967.153 313.362 967.489 313.146C967.825 312.93 968.083 312.612 968.263 312.192C968.455 311.76 968.551 311.226 968.551 310.59C968.551 309.63 968.347 308.916 967.939 308.448C967.531 307.968 966.991 307.728 966.319 307.728C965.875 307.728 965.485 307.836 965.149 308.052C964.813 308.256 964.549 308.574 964.357 309.006C964.177 309.426 964.087 309.954 964.087 310.59C964.087 311.538 964.291 312.258 964.699 312.75C965.107 313.23 965.647 313.47 966.319 313.47ZM975.898 315.18C975.382 315.18 974.836 315.126 974.26 315.018C973.684 314.91 973.168 314.724 972.712 314.46C972.52 314.34 972.382 314.202 972.298 314.046C972.226 313.878 972.196 313.716 972.208 313.56C972.232 313.392 972.292 313.248 972.388 313.128C972.496 313.008 972.628 312.93 972.784 312.894C972.952 312.858 973.132 312.888 973.324 312.984C973.804 313.212 974.254 313.374 974.674 313.47C975.094 313.554 975.508 313.596 975.916 313.596C976.492 313.596 976.918 313.5 977.194 313.308C977.482 313.104 977.626 312.84 977.626 312.516C977.626 312.24 977.53 312.03 977.338 311.886C977.158 311.73 976.882 311.616 976.51 311.544L974.71 311.202C973.966 311.058 973.396 310.788 973 310.392C972.616 309.984 972.424 309.462 972.424 308.826C972.424 308.25 972.58 307.752 972.892 307.332C973.216 306.912 973.66 306.588 974.224 306.36C974.788 306.132 975.436 306.018 976.168 306.018C976.696 306.018 977.188 306.078 977.644 306.198C978.112 306.306 978.562 306.48 978.994 306.72C979.174 306.816 979.294 306.942 979.354 307.098C979.426 307.254 979.444 307.416 979.408 307.584C979.372 307.74 979.3 307.884 979.192 308.016C979.084 308.136 978.946 308.214 978.778 308.25C978.622 308.274 978.442 308.238 978.238 308.142C977.866 307.95 977.506 307.812 977.158 307.728C976.822 307.644 976.498 307.602 976.186 307.602C975.598 307.602 975.16 307.704 974.872 307.908C974.596 308.112 974.458 308.382 974.458 308.718C974.458 308.97 974.542 309.18 974.71 309.348C974.878 309.516 975.136 309.63 975.484 309.69L977.284 310.032C978.064 310.176 978.652 310.44 979.048 310.824C979.456 311.208 979.66 311.724 979.66 312.372C979.66 313.248 979.318 313.938 978.634 314.442C977.95 314.934 977.038 315.18 975.898 315.18ZM985.803 315.18C984.807 315.18 983.949 314.994 983.229 314.622C982.509 314.25 981.951 313.722 981.555 313.038C981.171 312.354 980.979 311.544 980.979 310.608C980.979 309.696 981.165 308.898 981.537 308.214C981.921 307.53 982.443 306.996 983.103 306.612C983.775 306.216 984.537 306.018 985.389 306.018C986.013 306.018 986.571 306.12 987.063 306.324C987.567 306.528 987.993 306.822 988.341 307.206C988.701 307.59 988.971 308.058 989.151 308.61C989.343 309.15 989.439 309.762 989.439 310.446C989.439 310.662 989.361 310.83 989.205 310.95C989.061 311.058 988.851 311.112 988.575 311.112H982.797V309.816H987.855L987.567 310.086C987.567 309.534 987.483 309.072 987.315 308.7C987.159 308.328 986.925 308.046 986.613 307.854C986.313 307.65 985.935 307.548 985.479 307.548C984.975 307.548 984.543 307.668 984.183 307.908C983.835 308.136 983.565 308.466 983.373 308.898C983.193 309.318 983.103 309.822 983.103 310.41V310.536C983.103 311.52 983.331 312.258 983.787 312.75C984.255 313.23 984.939 313.47 985.839 313.47C986.151 313.47 986.499 313.434 986.883 313.362C987.279 313.278 987.651 313.14 987.999 312.948C988.251 312.804 988.473 312.744 988.665 312.768C988.857 312.78 989.007 312.846 989.115 312.966C989.235 313.086 989.307 313.236 989.331 313.416C989.355 313.584 989.319 313.758 989.223 313.938C989.139 314.118 988.989 314.274 988.773 314.406C988.353 314.67 987.867 314.868 987.315 315C986.775 315.12 986.271 315.18 985.803 315.18ZM997.476 315.144C997.104 315.144 996.816 315.042 996.612 314.838C996.42 314.622 996.324 314.328 996.324 313.956V303.48C996.324 303.096 996.426 302.808 996.63 302.616C996.834 302.412 997.122 302.31 997.494 302.31H1001.83C1003.22 302.31 1004.3 302.658 1005.05 303.354C1005.81 304.05 1006.19 305.022 1006.19 306.27C1006.19 307.518 1005.81 308.496 1005.05 309.204C1004.3 309.9 1003.22 310.248 1001.83 310.248H998.628V313.956C998.628 314.328 998.532 314.622 998.34 314.838C998.148 315.042 997.86 315.144 997.476 315.144ZM998.628 308.43H1001.47C1002.29 308.43 1002.91 308.25 1003.33 307.89C1003.75 307.518 1003.96 306.978 1003.96 306.27C1003.96 305.562 1003.75 305.028 1003.33 304.668C1002.91 304.308 1002.29 304.128 1001.47 304.128H998.628V308.43ZM1010.86 315.18C1009.86 315.18 1009.11 314.898 1008.61 314.334C1008.1 313.758 1007.85 312.918 1007.85 311.814V303.3C1007.85 302.928 1007.95 302.646 1008.14 302.454C1008.33 302.262 1008.61 302.166 1008.97 302.166C1009.33 302.166 1009.6 302.262 1009.79 302.454C1010 302.646 1010.1 302.928 1010.1 303.3V311.706C1010.1 312.258 1010.21 312.666 1010.44 312.93C1010.68 313.194 1011.02 313.326 1011.45 313.326C1011.55 313.326 1011.64 313.326 1011.72 313.326C1011.8 313.314 1011.89 313.302 1011.97 313.29C1012.14 313.266 1012.25 313.314 1012.31 313.434C1012.37 313.542 1012.4 313.77 1012.4 314.118C1012.4 314.418 1012.34 314.652 1012.22 314.82C1012.1 314.988 1011.91 315.09 1011.63 315.126C1011.51 315.138 1011.38 315.15 1011.25 315.162C1011.12 315.174 1010.99 315.18 1010.86 315.18ZM1016.5 315.18C1015.86 315.18 1015.29 315.06 1014.79 314.82C1014.29 314.568 1013.9 314.232 1013.62 313.812C1013.34 313.392 1013.2 312.918 1013.2 312.39C1013.2 311.742 1013.37 311.232 1013.71 310.86C1014.04 310.476 1014.59 310.2 1015.34 310.032C1016.1 309.864 1017.11 309.78 1018.39 309.78H1019.29V311.076H1018.4C1017.66 311.076 1017.07 311.112 1016.62 311.184C1016.18 311.256 1015.86 311.382 1015.67 311.562C1015.49 311.73 1015.4 311.97 1015.4 312.282C1015.4 312.678 1015.54 313.002 1015.81 313.254C1016.09 313.506 1016.47 313.632 1016.96 313.632C1017.36 313.632 1017.71 313.542 1018.01 313.362C1018.32 313.17 1018.57 312.912 1018.75 312.588C1018.93 312.264 1019.02 311.892 1019.02 311.472V309.402C1019.02 308.802 1018.88 308.37 1018.62 308.106C1018.36 307.842 1017.91 307.71 1017.29 307.71C1016.94 307.71 1016.56 307.752 1016.15 307.836C1015.76 307.92 1015.34 308.064 1014.89 308.268C1014.67 308.376 1014.46 308.406 1014.28 308.358C1014.11 308.31 1013.98 308.214 1013.89 308.07C1013.79 307.914 1013.74 307.746 1013.74 307.566C1013.74 307.386 1013.79 307.212 1013.89 307.044C1013.98 306.864 1014.14 306.732 1014.37 306.648C1014.92 306.42 1015.45 306.258 1015.96 306.162C1016.47 306.066 1016.94 306.018 1017.36 306.018C1018.22 306.018 1018.93 306.15 1019.48 306.414C1020.05 306.678 1020.47 307.08 1020.74 307.62C1021.02 308.148 1021.16 308.832 1021.16 309.672V313.992C1021.16 314.364 1021.07 314.652 1020.89 314.856C1020.71 315.048 1020.45 315.144 1020.11 315.144C1019.78 315.144 1019.51 315.048 1019.32 314.856C1019.14 314.652 1019.05 314.364 1019.05 313.992V313.128H1019.2C1019.11 313.548 1018.94 313.914 1018.69 314.226C1018.45 314.526 1018.15 314.76 1017.77 314.928C1017.4 315.096 1016.98 315.18 1016.5 315.18ZM1024.56 315.144C1024.2 315.144 1023.92 315.048 1023.73 314.856C1023.54 314.652 1023.44 314.364 1023.44 313.992V307.188C1023.44 306.816 1023.54 306.534 1023.73 306.342C1023.92 306.15 1024.19 306.054 1024.54 306.054C1024.89 306.054 1025.16 306.15 1025.35 306.342C1025.54 306.534 1025.64 306.816 1025.64 307.188V308.412L1025.44 307.962C1025.7 307.326 1026.11 306.846 1026.66 306.522C1027.23 306.186 1027.86 306.018 1028.57 306.018C1029.28 306.018 1029.86 306.15 1030.32 306.414C1030.77 306.678 1031.12 307.08 1031.34 307.62C1031.57 308.148 1031.69 308.82 1031.69 309.636V313.992C1031.69 314.364 1031.59 314.652 1031.4 314.856C1031.21 315.048 1030.93 315.144 1030.57 315.144C1030.21 315.144 1029.93 315.048 1029.72 314.856C1029.53 314.652 1029.44 314.364 1029.44 313.992V309.744C1029.44 309.06 1029.3 308.562 1029.04 308.25C1028.79 307.938 1028.39 307.782 1027.85 307.782C1027.19 307.782 1026.66 307.992 1026.27 308.412C1025.88 308.82 1025.69 309.366 1025.69 310.05V313.992C1025.69 314.76 1025.31 315.144 1024.56 315.144Z" fill="white"/>
<g filter="url(#filter4_d_7368_29107)">
<circle cx="1220.5" cy="208.5" r="36.5" fill="#FF8B13"/>
<path d="M1234.17 217.216V205.667C1234.17 199.382 1234.17 196.239 1232.21 194.287C1230.26 192.336 1227.12 192.334 1220.83 192.334H1219.17C1212.88 192.334 1209.74 192.334 1207.79 194.287C1205.83 196.241 1205.83 199.382 1205.83 205.667V221.501" stroke="white" stroke-width="2" stroke-linecap="round" stroke-linejoin="round"/>
<path d="M1234.17 217.334H1210C1208.89 217.334 1207.83 217.773 1207.05 218.554C1206.27 219.336 1205.83 220.396 1205.83 221.501C1205.83 222.606 1206.27 223.666 1207.05 224.447C1207.83 225.228 1208.89 225.667 1210 225.667H1234.17" stroke="white" stroke-width="2" stroke-linecap="round" stroke-linejoin="round"/>
<path d="M1234.16 217.334C1233.06 217.334 1232 217.773 1231.22 218.554C1230.44 219.336 1230 220.396 1230 221.501C1230 222.606 1230.44 223.665 1231.22 224.447C1232 225.228 1233.06 225.667 1234.16 225.667M1224.93 205.397C1224.72 206.294 1223.73 206.926 1221.74 208.191C1219.82 209.414 1218.86 210.026 1218.08 209.781C1217.75 209.674 1217.46 209.481 1217.23 209.221C1216.66 208.577 1216.66 207.329 1216.66 204.834C1216.66 202.339 1216.66 201.091 1217.23 200.449C1217.47 200.182 1217.76 199.989 1218.08 199.887C1218.86 199.642 1219.82 200.254 1221.74 201.477C1223.73 202.742 1224.72 203.374 1224.93 204.271C1225.02 204.639 1225.02 205.029 1224.93 205.397" stroke="white" stroke-width="2" stroke-linecap="round" stroke-linejoin="round"/>
</g>
<path d="M1165.91 279.144C1165.62 279.144 1165.39 279.078 1165.21 278.946C1165.04 278.814 1164.94 278.64 1164.9 278.424C1164.87 278.196 1164.91 277.944 1165.03 277.668L1169.78 267.138C1169.94 266.79 1170.12 266.544 1170.34 266.4C1170.57 266.244 1170.83 266.166 1171.11 266.166C1171.39 266.166 1171.64 266.244 1171.85 266.4C1172.08 266.544 1172.27 266.79 1172.43 267.138L1177.2 277.668C1177.33 277.944 1177.38 278.196 1177.34 278.424C1177.31 278.652 1177.2 278.832 1177.04 278.964C1176.87 279.084 1176.65 279.144 1176.37 279.144C1176.03 279.144 1175.77 279.066 1175.58 278.91C1175.4 278.742 1175.24 278.49 1175.09 278.154L1173.92 275.436L1174.89 276.066H1167.3L1168.27 275.436L1167.12 278.154C1166.96 278.502 1166.8 278.754 1166.63 278.91C1166.46 279.066 1166.22 279.144 1165.91 279.144ZM1171.08 268.812L1168.56 274.806L1168.09 274.23H1174.1L1173.65 274.806L1171.11 268.812H1171.08ZM1180.4 279C1180.01 279 1179.7 278.898 1179.49 278.694C1179.28 278.478 1179.18 278.172 1179.18 277.776V267.534C1179.18 267.138 1179.28 266.838 1179.49 266.634C1179.7 266.418 1180.01 266.31 1180.4 266.31H1184.72C1185.61 266.31 1186.37 266.442 1186.99 266.706C1187.62 266.97 1188.09 267.348 1188.41 267.84C1188.75 268.332 1188.92 268.92 1188.92 269.604C1188.92 270.372 1188.7 271.02 1188.25 271.548C1187.81 272.076 1187.2 272.43 1186.43 272.61V272.34C1187.32 272.472 1188.01 272.808 1188.5 273.348C1189 273.888 1189.24 274.59 1189.24 275.454C1189.24 276.582 1188.86 277.458 1188.09 278.082C1187.33 278.694 1186.28 279 1184.92 279H1180.4ZM1181.39 277.254H1184.63C1185.45 277.254 1186.05 277.098 1186.43 276.786C1186.82 276.462 1187.01 275.982 1187.01 275.346C1187.01 274.698 1186.82 274.218 1186.43 273.906C1186.05 273.594 1185.45 273.438 1184.63 273.438H1181.39V277.254ZM1181.39 271.692H1184.33C1185.12 271.692 1185.71 271.542 1186.09 271.242C1186.49 270.93 1186.69 270.474 1186.69 269.874C1186.69 269.274 1186.49 268.824 1186.09 268.524C1185.71 268.212 1185.12 268.056 1184.33 268.056H1181.39V271.692ZM1192.74 279C1192.37 279 1192.08 278.898 1191.88 278.694C1191.67 278.478 1191.57 278.184 1191.57 277.812V267.426C1191.57 267.042 1191.67 266.754 1191.86 266.562C1192.06 266.358 1192.35 266.256 1192.72 266.256C1193.1 266.256 1193.38 266.358 1193.57 266.562C1193.77 266.754 1193.88 267.042 1193.88 267.426V277.038H1199.1C1199.42 277.038 1199.67 277.122 1199.83 277.29C1200.01 277.458 1200.1 277.698 1200.1 278.01C1200.1 278.322 1200.01 278.568 1199.83 278.748C1199.67 278.916 1199.42 279 1199.1 279H1192.74ZM1207.65 279.144C1207.31 279.144 1207.05 279.048 1206.87 278.856C1206.69 278.664 1206.6 278.4 1206.6 278.064V267.246C1206.6 266.898 1206.7 266.634 1206.89 266.454C1207.08 266.262 1207.35 266.166 1207.68 266.166C1207.98 266.166 1208.22 266.226 1208.38 266.346C1208.56 266.454 1208.73 266.646 1208.87 266.922L1213.32 275.148H1212.74L1217.19 266.922C1217.33 266.646 1217.49 266.454 1217.65 266.346C1217.82 266.226 1218.06 266.166 1218.36 266.166C1218.69 266.166 1218.95 266.262 1219.13 266.454C1219.31 266.634 1219.4 266.898 1219.4 267.246V278.064C1219.4 278.4 1219.31 278.664 1219.13 278.856C1218.96 279.048 1218.7 279.144 1218.36 279.144C1218.02 279.144 1217.76 279.048 1217.58 278.856C1217.4 278.664 1217.31 278.4 1217.31 278.064V269.73H1217.71L1213.93 276.624C1213.81 276.828 1213.68 276.978 1213.55 277.074C1213.42 277.17 1213.24 277.218 1213.01 277.218C1212.78 277.218 1212.6 277.17 1212.45 277.074C1212.31 276.966 1212.18 276.816 1212.07 276.624L1208.26 269.712H1208.69V278.064C1208.69 278.4 1208.6 278.664 1208.42 278.856C1208.25 279.048 1207.99 279.144 1207.65 279.144ZM1225.99 279.18C1225.08 279.18 1224.29 278.994 1223.62 278.622C1222.94 278.25 1222.42 277.722 1222.05 277.038C1221.68 276.342 1221.49 275.526 1221.49 274.59C1221.49 273.882 1221.59 273.252 1221.8 272.7C1222.01 272.136 1222.32 271.656 1222.72 271.26C1223.11 270.852 1223.59 270.546 1224.14 270.342C1224.69 270.126 1225.31 270.018 1225.99 270.018C1226.9 270.018 1227.7 270.204 1228.37 270.576C1229.04 270.948 1229.56 271.476 1229.93 272.16C1230.31 272.844 1230.49 273.654 1230.49 274.59C1230.49 275.298 1230.38 275.934 1230.17 276.498C1229.96 277.062 1229.66 277.548 1229.27 277.956C1228.87 278.352 1228.4 278.658 1227.85 278.874C1227.29 279.078 1226.68 279.18 1225.99 279.18ZM1225.99 277.47C1226.44 277.47 1226.83 277.362 1227.16 277.146C1227.5 276.93 1227.76 276.612 1227.94 276.192C1228.13 275.76 1228.22 275.226 1228.22 274.59C1228.22 273.63 1228.02 272.916 1227.61 272.448C1227.2 271.968 1226.66 271.728 1225.99 271.728C1225.55 271.728 1225.16 271.836 1224.82 272.052C1224.49 272.256 1224.22 272.574 1224.03 273.006C1223.85 273.426 1223.76 273.954 1223.76 274.59C1223.76 275.538 1223.96 276.258 1224.37 276.75C1224.78 277.23 1225.32 277.47 1225.99 277.47ZM1235.73 279.18C1234.96 279.18 1234.29 278.994 1233.7 278.622C1233.12 278.25 1232.67 277.722 1232.35 277.038C1232.02 276.342 1231.86 275.526 1231.86 274.59C1231.86 273.642 1232.02 272.832 1232.35 272.16C1232.67 271.476 1233.12 270.948 1233.7 270.576C1234.29 270.204 1234.96 270.018 1235.73 270.018C1236.46 270.018 1237.1 270.198 1237.64 270.558C1238.19 270.918 1238.56 271.392 1238.76 271.98H1238.56V267.3C1238.56 266.928 1238.65 266.646 1238.85 266.454C1239.04 266.262 1239.31 266.166 1239.67 266.166C1240.03 266.166 1240.31 266.262 1240.5 266.454C1240.71 266.646 1240.81 266.928 1240.81 267.3V277.992C1240.81 278.364 1240.71 278.652 1240.52 278.856C1240.33 279.048 1240.05 279.144 1239.69 279.144C1239.33 279.144 1239.06 279.048 1238.86 278.856C1238.67 278.652 1238.58 278.364 1238.58 277.992V276.588L1238.77 277.128C1238.59 277.752 1238.23 278.25 1237.68 278.622C1237.12 278.994 1236.48 279.18 1235.73 279.18ZM1236.36 277.47C1236.81 277.47 1237.2 277.362 1237.53 277.146C1237.87 276.93 1238.13 276.612 1238.31 276.192C1238.5 275.76 1238.59 275.226 1238.59 274.59C1238.59 273.63 1238.39 272.916 1237.98 272.448C1237.57 271.968 1237.03 271.728 1236.36 271.728C1235.92 271.728 1235.53 271.836 1235.19 272.052C1234.86 272.256 1234.59 272.574 1234.4 273.006C1234.22 273.426 1234.13 273.954 1234.13 274.59C1234.13 275.538 1234.33 276.258 1234.74 276.75C1235.15 277.23 1235.69 277.47 1236.36 277.47ZM1246.33 279.18C1245.6 279.18 1244.99 279.048 1244.51 278.784C1244.03 278.508 1243.67 278.1 1243.43 277.56C1243.2 277.02 1243.09 276.348 1243.09 275.544V271.188C1243.09 270.804 1243.18 270.522 1243.38 270.342C1243.57 270.15 1243.84 270.054 1244.2 270.054C1244.56 270.054 1244.84 270.15 1245.03 270.342C1245.24 270.522 1245.34 270.804 1245.34 271.188V275.58C1245.34 276.204 1245.46 276.666 1245.72 276.966C1245.97 277.266 1246.37 277.416 1246.92 277.416C1247.52 277.416 1248.01 277.212 1248.4 276.804C1248.78 276.384 1248.97 275.832 1248.97 275.148V271.188C1248.97 270.804 1249.07 270.522 1249.26 270.342C1249.45 270.15 1249.73 270.054 1250.09 270.054C1250.45 270.054 1250.73 270.15 1250.92 270.342C1251.12 270.522 1251.22 270.804 1251.22 271.188V277.992C1251.22 278.76 1250.86 279.144 1250.13 279.144C1249.78 279.144 1249.51 279.048 1249.32 278.856C1249.12 278.652 1249.03 278.364 1249.03 277.992V276.624L1249.28 277.164C1249.03 277.812 1248.64 278.31 1248.13 278.658C1247.62 279.006 1247.02 279.18 1246.33 279.18ZM1256.57 279.18C1255.58 279.18 1254.83 278.898 1254.32 278.334C1253.82 277.758 1253.57 276.918 1253.57 275.814V267.3C1253.57 266.928 1253.66 266.646 1253.85 266.454C1254.05 266.262 1254.32 266.166 1254.68 266.166C1255.04 266.166 1255.32 266.262 1255.51 266.454C1255.71 266.646 1255.82 266.928 1255.82 267.3V275.706C1255.82 276.258 1255.93 276.666 1256.16 276.93C1256.4 277.194 1256.73 277.326 1257.17 277.326C1257.26 277.326 1257.35 277.326 1257.44 277.326C1257.52 277.314 1257.6 277.302 1257.69 277.29C1257.86 277.266 1257.97 277.314 1258.03 277.434C1258.09 277.542 1258.12 277.77 1258.12 278.118C1258.12 278.418 1258.06 278.652 1257.94 278.82C1257.82 278.988 1257.62 279.09 1257.35 279.126C1257.23 279.138 1257.1 279.15 1256.97 279.162C1256.84 279.174 1256.7 279.18 1256.57 279.18ZM1263.56 279.18C1262.57 279.18 1261.71 278.994 1260.99 278.622C1260.27 278.25 1259.71 277.722 1259.32 277.038C1258.93 276.354 1258.74 275.544 1258.74 274.608C1258.74 273.696 1258.93 272.898 1259.3 272.214C1259.68 271.53 1260.2 270.996 1260.86 270.612C1261.54 270.216 1262.3 270.018 1263.15 270.018C1263.77 270.018 1264.33 270.12 1264.82 270.324C1265.33 270.528 1265.75 270.822 1266.1 271.206C1266.46 271.59 1266.73 272.058 1266.91 272.61C1267.1 273.15 1267.2 273.762 1267.2 274.446C1267.2 274.662 1267.12 274.83 1266.97 274.95C1266.82 275.058 1266.61 275.112 1266.34 275.112H1260.56V273.816H1265.62L1265.33 274.086C1265.33 273.534 1265.24 273.072 1265.08 272.7C1264.92 272.328 1264.69 272.046 1264.37 271.854C1264.07 271.65 1263.7 271.548 1263.24 271.548C1262.74 271.548 1262.3 271.668 1261.94 271.908C1261.6 272.136 1261.33 272.466 1261.13 272.898C1260.95 273.318 1260.86 273.822 1260.86 274.41V274.536C1260.86 275.52 1261.09 276.258 1261.55 276.75C1262.02 277.23 1262.7 277.47 1263.6 277.47C1263.91 277.47 1264.26 277.434 1264.64 277.362C1265.04 277.278 1265.41 277.14 1265.76 276.948C1266.01 276.804 1266.23 276.744 1266.43 276.768C1266.62 276.78 1266.77 276.846 1266.88 276.966C1267 277.086 1267.07 277.236 1267.09 277.416C1267.12 277.584 1267.08 277.758 1266.98 277.938C1266.9 278.118 1266.75 278.274 1266.53 278.406C1266.11 278.67 1265.63 278.868 1265.08 279C1264.54 279.12 1264.03 279.18 1263.56 279.18ZM1272.2 279.18C1271.69 279.18 1271.14 279.126 1270.57 279.018C1269.99 278.91 1269.47 278.724 1269.02 278.46C1268.83 278.34 1268.69 278.202 1268.6 278.046C1268.53 277.878 1268.5 277.716 1268.51 277.56C1268.54 277.392 1268.6 277.248 1268.69 277.128C1268.8 277.008 1268.93 276.93 1269.09 276.894C1269.26 276.858 1269.44 276.888 1269.63 276.984C1270.11 277.212 1270.56 277.374 1270.98 277.47C1271.4 277.554 1271.81 277.596 1272.22 277.596C1272.8 277.596 1273.22 277.5 1273.5 277.308C1273.79 277.104 1273.93 276.84 1273.93 276.516C1273.93 276.24 1273.84 276.03 1273.64 275.886C1273.46 275.73 1273.19 275.616 1272.82 275.544L1271.02 275.202C1270.27 275.058 1269.7 274.788 1269.31 274.392C1268.92 273.984 1268.73 273.462 1268.73 272.826C1268.73 272.25 1268.89 271.752 1269.2 271.332C1269.52 270.912 1269.97 270.588 1270.53 270.36C1271.09 270.132 1271.74 270.018 1272.47 270.018C1273 270.018 1273.49 270.078 1273.95 270.198C1274.42 270.306 1274.87 270.48 1275.3 270.72C1275.48 270.816 1275.6 270.942 1275.66 271.098C1275.73 271.254 1275.75 271.416 1275.71 271.584C1275.68 271.74 1275.61 271.884 1275.5 272.016C1275.39 272.136 1275.25 272.214 1275.08 272.25C1274.93 272.274 1274.75 272.238 1274.54 272.142C1274.17 271.95 1273.81 271.812 1273.46 271.728C1273.13 271.644 1272.8 271.602 1272.49 271.602C1271.9 271.602 1271.47 271.704 1271.18 271.908C1270.9 272.112 1270.76 272.382 1270.76 272.718C1270.76 272.97 1270.85 273.18 1271.02 273.348C1271.18 273.516 1271.44 273.63 1271.79 273.69L1273.59 274.032C1274.37 274.176 1274.96 274.44 1275.35 274.824C1275.76 275.208 1275.97 275.724 1275.97 276.372C1275.97 277.248 1275.62 277.938 1274.94 278.442C1274.26 278.934 1273.34 279.18 1272.2 279.18Z" fill="white"/>
<path d="M70.2904 10.7324C70.4356 10.4518 70.9293 10.0437 71.394 9.83963C71.9457 9.58456 73.2235 9.48254 75.8662 9.45703C78.1604 9.45703 79.5834 9.55906 79.5834 9.7121C79.5834 9.83963 79.3802 10.0182 79.1478 10.0947C78.9155 10.1712 78.5089 10.6303 78.2766 11.115C77.8991 11.8801 77.841 14.5583 77.841 29.8622C77.841 45.1661 77.8991 47.8442 78.2766 48.6094C78.5089 49.0941 78.9155 49.5532 79.1478 49.6297C79.3802 49.7062 79.5834 49.8593 79.5834 50.0123C79.5834 50.1653 78.0733 50.2674 71.7424 50.2674L70 48.737V29.9897C70 18.0017 70.1162 11.0639 70.2904 10.7324Z" fill="#EE5253"/>
<path d="M198.128 11.1915L199.086 10.3243L200.044 9.45703H203.849C205.94 9.45703 207.653 9.50804 207.653 9.58456C207.653 9.66108 207.334 10.0437 206.201 11.2425V48.4819L206.927 49.2471C207.334 49.6807 207.653 50.0633 207.653 50.1398C207.653 50.2164 206.027 50.2674 204.023 50.2674C201.555 50.2674 200.132 50.1653 199.609 49.9103C199.144 49.7317 198.679 49.3491 198.505 49.0941C198.331 48.788 198.186 41.7992 198.128 11.1915Z" fill="#EE5253"/>
<path d="M83.8524 48.6094C83.3878 48.4819 83.3587 47.3851 83.3587 30.1173C83.3587 12.7984 83.3878 11.7526 83.8524 11.7526C84.1428 11.7781 86.0595 12.0332 91.9258 12.9259L91.9838 31.214C92.0419 45.6507 91.9838 49.5277 91.6934 49.6552C91.5192 49.7317 89.7767 49.5532 87.86 49.2471C85.9434 48.9665 84.1428 48.6605 83.8524 48.6094Z" fill="#EE5253"/>
<path d="M71.2977 1.53972C71.6024 1.10347 72.3259 0.590226 72.9351 0.38493H72.8971C73.5063 0.179634 74.8772 0.025662 75.9434 0C77.2 0 78.3804 0.179634 79.1039 0.461916C79.7132 0.692874 80.4748 1.20611 80.8175 1.59104C81.2364 2.12994 81.3887 3.15642 81.3887 9.36662L70.7266 9.23831V5.77395C70.7266 3.20775 70.8789 2.10428 71.2977 1.53972Z" fill="#C7D2E5"/>
<path d="M200.806 1.79634C201.11 1.38575 201.834 0.795522 202.405 0.51324C203.167 0.12831 204.004 0 205.832 0C207.85 0 208.422 0.102648 209.374 0.64155C210.021 1.00082 210.668 1.71935 210.897 2.23259C211.087 2.77149 211.278 4.56783 211.278 9.23831H200.235V5.90226C200.235 3.43871 200.387 2.3609 200.806 1.79634Z" fill="#C7D2E5"/>
<path d="M71.3358 270.542C70.8408 269.875 70.7646 124.178 70.7646 89.6886V50.2975H81.4268V89.74C81.4268 128.772 81.4268 269.9 80.6652 270.67C80.2463 271.081 79.5228 271.568 79.0278 271.748C78.5708 271.928 77.2761 272.056 76.1719 272.082C75.1056 272.082 73.6586 271.902 73.0494 271.697C72.402 271.491 71.6405 270.953 71.3358 270.542Z" fill="#C7D2E5"/>
<path d="M200.806 109.682C200.311 109.014 200.235 123.947 200.235 89.5603V50.2975H211.278V89.432C211.278 121.304 211.201 108.809 210.783 109.502C210.478 109.938 209.754 110.58 209.145 110.913C208.269 111.375 207.546 111.504 205.756 111.504C204.043 111.504 203.205 111.35 202.405 110.965C201.834 110.682 201.11 110.092 200.806 109.682Z" fill="#C7D2E5"/>
<path d="M77.5641 11.2612C77.7104 10.8517 78.1493 10.2885 78.5005 9.98132C78.9394 9.59735 79.4369 9.44376 80.0222 9.49495C80.5196 9.52055 81.1927 9.69974 81.5731 9.85333C81.9242 10.0325 82.3924 10.4421 82.5973 10.7749C82.8606 11.2868 82.9192 15.4849 82.6558 49.1209L81.8657 49.7352C81.3975 50.0936 80.6659 50.3496 80.1685 50.3496C79.671 50.3496 78.998 50.0936 78.5883 49.7864C78.1786 49.4536 77.7104 48.8905 77.5641 48.5065C77.3592 48.0201 77.2422 41.851 77.2422 29.8711C77.2422 17.8655 77.33 11.722 77.5641 11.2612Z" fill="#FF6B6B"/>
<path d="M206.554 11.3124L207.374 10.3397C208.135 9.44376 208.281 9.39256 209.364 9.49495C210.095 9.57175 210.798 9.87893 211.997 10.9284V48.8649L211.061 49.6072C210.388 50.1192 209.803 50.3496 209.159 50.3496C208.398 50.324 208.018 50.1192 206.554 48.4297V11.3124Z" fill="#FF6B6B"/>
<path d="M189.611 12.8227C192.274 12.4643 195.23 12.0036 196.195 11.8244C197.161 11.6452 198.097 11.4916 198.244 11.466C198.449 11.4404 198.536 17.7887 198.536 48.5577L197.073 48.8137C196.283 48.9417 194.03 49.3001 192.099 49.5816C190.167 49.8632 186.539 50.2984 184.051 50.58C181.564 50.8615 176.619 51.3223 173.078 51.6039C169.537 51.8855 164.006 52.2694 160.787 52.4486C157.422 52.6278 148.76 52.7558 140.45 52.7558C132.081 52.7558 123.477 52.6278 120.112 52.4486C116.893 52.2694 112.036 51.9367 109.285 51.7319C106.563 51.5271 101.618 51.0663 98.3114 50.7079C95.0047 50.3752 92.1077 50.0168 91.8736 49.9656C91.4932 49.8632 91.4346 47.5594 91.4346 12.8227L93.6293 13.1299C94.8291 13.3091 98.2529 13.6674 101.238 13.9746C104.222 14.2562 109.226 14.6658 112.358 14.8962C115.489 15.1009 121.224 15.3825 125.087 15.5361C128.95 15.6641 135.856 15.7921 140.45 15.7921C145.044 15.7921 151.95 15.6641 155.813 15.5361C159.675 15.3825 165.411 15.1009 168.542 14.8962C171.673 14.6658 176.619 14.2818 179.516 14.0002C182.413 13.693 186.948 13.1811 189.611 12.8227Z" fill="#FF6B6B"/>
<path d="M110.286 23.2586C110.776 22.9193 111.649 22.4756 112.249 22.2667C112.849 22.0579 114.076 21.9013 114.975 21.9013C115.875 21.8752 117.293 22.0318 118.111 22.2145C118.929 22.3973 120.047 22.7888 120.565 23.0759C121.083 23.3631 121.683 23.8851 121.901 24.2506C122.256 24.7987 122.228 25.0075 121.765 25.8951C121.492 26.4693 121.001 27.0175 120.701 27.1219C120.32 27.2524 119.638 27.0697 118.52 26.5476C117.293 25.9734 116.502 25.7906 115.303 25.7906C113.967 25.7906 113.667 25.8951 113.203 26.4432C112.794 26.9131 112.712 27.2524 112.876 27.6701C113.012 28.0094 113.885 28.7664 114.866 29.3667C115.821 29.9671 117.266 30.8807 118.029 31.3767C118.984 32.0031 119.747 32.7862 120.292 33.6737C120.974 34.8223 121.11 35.3443 121.11 36.8061C121.11 37.8241 120.92 38.9987 120.674 39.5469C120.456 40.0951 119.938 40.8782 119.529 41.2697C119.12 41.6874 118.302 42.2616 117.702 42.5488C117.048 42.8881 115.875 43.1491 114.703 43.2274C113.176 43.3318 112.385 43.2274 110.776 42.7315C109.44 42.3138 108.322 41.7657 107.559 41.1131C106.823 40.5127 106.332 39.8601 106.25 39.3642C106.168 38.8682 106.305 38.294 106.577 37.798C106.85 37.3804 107.423 36.8583 107.832 36.7017C108.486 36.4146 108.677 36.4407 109.249 36.8844C109.604 37.1715 110.286 37.7197 110.804 38.1373C111.294 38.5289 112.222 38.9726 112.849 39.1032C113.694 39.2859 114.294 39.2859 115.03 39.0249C115.739 38.816 116.148 38.4767 116.339 37.9807C116.557 37.4065 116.502 37.0671 116.202 36.5451C115.984 36.1535 114.621 35.1094 113.203 34.2219C111.785 33.3344 110.149 32.1076 109.577 31.4811C109.004 30.8546 108.404 29.8888 108.241 29.3145C108.104 28.7403 108.05 27.6962 108.132 26.9653C108.241 26.2605 108.568 25.2425 108.868 24.7465C109.168 24.2506 109.795 23.5719 110.286 23.2586Z" fill="white"/>
<path d="M172.181 23.5197C172.59 23.1281 173.789 22.9454 178.861 22.5017C182.269 22.1884 185.323 21.9274 185.65 21.9013C186.005 21.9013 186.523 22.1101 186.823 22.3973C187.204 22.7627 187.368 23.2848 187.368 24.0156C187.386 24.7639 187.232 25.2773 186.904 25.5557C186.605 25.8167 185.677 26.0517 184.369 26.1561C183.251 26.2344 182.296 26.3388 182.242 26.391C182.187 26.4171 182.487 30.0193 182.869 34.4046C183.578 42.1311 183.578 42.3921 183.087 42.8359C182.814 43.0969 182.051 43.384 181.369 43.4624C180.415 43.5668 180.006 43.4885 179.542 43.123C178.97 42.6532 178.888 42.1311 177.416 26.7564L175.098 26.9392C173.08 27.0958 172.726 27.0697 172.29 26.652C171.99 26.3649 171.772 25.7384 171.744 25.0859C171.717 24.3289 171.826 23.8329 172.181 23.5197Z" fill="white"/>
<path d="M123.264 25.0075C123.237 24.4855 123.428 23.8068 123.701 23.4936C124.028 23.0498 124.41 22.9193 125.282 22.9454C125.909 22.9454 129.099 23.102 132.371 23.2586C137.089 23.5197 138.37 23.6502 138.561 23.9634C138.725 24.1723 138.915 24.6421 138.997 25.0075C139.079 25.373 139.079 25.9212 138.997 26.2344C138.915 26.5737 138.615 27.0175 138.343 27.2524C137.961 27.6178 137.525 27.6701 133.517 27.3307L133.326 29.3667C133.217 30.4892 132.999 33.9348 132.835 37.0149C132.671 40.0951 132.481 42.862 132.426 43.1491C132.371 43.4363 131.935 43.8278 131.417 44.0366C130.845 44.2715 130.163 44.3499 129.563 44.2193C129.045 44.141 128.445 43.9061 128.254 43.7234C128.036 43.5146 127.9 42.7315 127.927 41.5046C127.927 40.4866 128.036 37.5892 128.2 35.1094C128.336 32.6557 128.527 29.8627 128.745 27.2263L126.346 27.0436C124.491 26.9131 123.892 26.7826 123.619 26.391C123.428 26.13 123.264 25.5035 123.264 25.0075Z" fill="white"/>
<path d="M143.114 24.6682C143.224 24.4072 143.769 24.0417 144.287 23.8329C144.805 23.6241 145.487 23.4675 145.787 23.4675C146.086 23.4414 146.768 23.5458 147.286 23.6763C147.804 23.8329 148.377 24.0939 148.568 24.2767C148.759 24.4594 150.176 28.7925 151.758 33.8826C154.376 42.3921 154.594 43.2013 154.239 43.7495C153.994 44.0627 153.312 44.4543 152.658 44.637C151.922 44.8197 151.267 44.8458 150.831 44.6892C150.286 44.5065 150.067 44.0888 149.004 40.5388H142.569L142.051 42.2355C141.778 43.1752 141.369 44.1149 141.151 44.3238C140.879 44.5587 140.333 44.6892 139.706 44.637C139.161 44.6109 138.425 44.4021 138.07 44.1932C137.743 43.9844 137.361 43.5929 137.225 43.3579C137.034 43.0186 137.797 40.4083 139.924 34.0131C141.533 29.1318 142.978 24.9292 143.114 24.6682Z" fill="white"/>
<path d="M156.502 24.1462C156.829 23.8329 157.484 23.6763 158.874 23.6241C159.938 23.5719 161.901 23.5197 163.237 23.4936C164.846 23.4675 166.209 23.5719 167.191 23.859C168.2 24.1462 168.99 24.5899 169.645 25.2425C170.163 25.7645 170.763 26.652 170.926 27.2263C171.117 27.8006 171.281 28.9752 171.281 29.8366C171.281 30.9329 171.09 31.7943 170.654 32.7079C170.299 33.4649 169.617 34.2741 169.072 34.6395C168.554 35.005 168.118 35.3182 168.063 35.3704C168.036 35.4226 168.799 36.7017 169.754 38.2418C170.708 39.8079 171.608 41.3219 171.799 41.6351C172.017 42.105 172.017 42.3921 171.717 42.9403C171.526 43.3579 170.872 43.88 170.299 44.1671C169.508 44.5326 169.045 44.5848 168.554 44.4282C168.063 44.2454 167.273 43.1491 163.237 36.2579L161.192 36.2318L161.383 39.8601C161.574 42.8881 161.547 43.5407 161.192 43.9061C160.974 44.1671 160.347 44.4543 159.829 44.5848C159.283 44.7153 158.493 44.6892 157.975 44.5587C157.511 44.4282 157.048 44.2193 156.966 44.0627C156.884 43.9061 156.639 39.4947 156.42 34.1958C156.039 25.1642 156.039 24.5899 156.502 24.1462Z" fill="white"/>
<path d="M160.86 32.6495L160.779 30.0241L160.699 27.373H162.736C164.612 27.373 164.799 27.4245 165.55 28.1452C166.193 28.7629 166.354 29.1233 166.354 30.0756C166.354 30.925 166.193 31.414 165.711 31.9545C165.094 32.598 164.907 32.6495 160.86 32.6495Z" fill="#FF6B6B"/>
<path d="M143.896 36.5618C143.869 36.536 144.271 34.9917 144.834 33.1128C145.37 31.2339 145.906 29.7153 146.04 29.7153C146.174 29.7153 146.656 31.1309 147.085 32.8554C147.514 34.5799 147.862 36.2014 147.862 36.4588C147.862 36.8707 147.648 36.8964 145.933 36.742C144.861 36.6647 143.949 36.5618 143.896 36.5618Z" fill="#FF6B6B"/>
<path d="M1394.71 31.2812C1394.57 30.9994 1394.08 30.5894 1393.61 30.3844C1393.06 30.1281 1391.79 30.0256 1389.16 30C1386.88 30 1385.46 30.1025 1385.46 30.2562C1385.46 30.3844 1385.67 30.5637 1385.9 30.6406C1386.13 30.7175 1386.53 31.1787 1386.76 31.6656C1387.14 32.4344 1387.2 35.125 1387.2 50.5C1387.2 65.875 1387.14 68.5656 1386.76 69.3344C1386.53 69.8212 1386.13 70.2825 1385.9 70.3594C1385.67 70.4362 1385.46 70.59 1385.46 70.7437C1385.46 70.8975 1386.97 71 1393.27 71L1395 69.4625V50.6281C1395 38.5844 1394.88 31.6144 1394.71 31.2812Z" fill="#EE5253"/>
<path d="M1274.48 31.7425L1273.52 30.8712L1272.57 30H1268.79C1266.7 30 1265 30.0512 1265 30.1281C1265 30.205 1265.32 30.5894 1266.44 31.7937V69.2062L1265.72 69.975C1265.32 70.4106 1265 70.795 1265 70.8719C1265 70.9487 1266.62 71 1268.61 71C1271.07 71 1272.48 70.8975 1273 70.6413C1273.47 70.4619 1273.93 70.0775 1274.1 69.8212C1274.28 69.5137 1274.42 62.4925 1274.48 31.7425Z" fill="#EE5253"/>
<path d="M1381.22 69.3344C1381.68 69.2062 1381.71 68.1044 1381.71 50.7562C1381.71 33.3569 1381.68 32.3062 1381.22 32.3062C1380.93 32.3319 1379.02 32.5881 1373.18 33.485L1373.13 51.8581C1373.07 66.3619 1373.13 70.2569 1373.42 70.385C1373.59 70.4619 1375.32 70.2825 1377.23 69.975C1379.14 69.6931 1380.93 69.3856 1381.22 69.3344Z" fill="#EE5253"/>
<path d="M1394.7 22.5397C1394.39 22.1035 1393.67 21.5902 1393.06 21.3849H1393.1C1392.49 21.1796 1391.12 21.0257 1390.05 21C1388.8 21 1387.62 21.1796 1386.89 21.4619C1386.28 21.6929 1385.52 22.2061 1385.18 22.591C1384.76 23.1299 1384.61 24.1564 1384.61 30.3666L1395.27 30.2383V26.7739C1395.27 24.2077 1395.12 23.1043 1394.7 22.5397Z" fill="#C7D2E5"/>
<path d="M1275.19 22.7963C1274.89 22.3857 1274.16 21.7955 1273.59 21.5132C1272.83 21.1283 1271.99 21 1270.16 21C1268.15 21 1267.57 21.1026 1266.62 21.6416C1265.98 22.0008 1265.33 22.7194 1265.1 23.2326C1264.91 23.7715 1264.72 25.5678 1264.72 30.2383H1275.76V26.9023C1275.76 24.4387 1275.61 23.3609 1275.19 22.7963Z" fill="#C7D2E5"/>
<path d="M1394.66 291.542C1395.16 290.875 1395.23 145.178 1395.23 110.689V71.2975H1384.57V110.74C1384.57 149.772 1384.57 290.9 1385.33 291.67C1385.75 292.081 1386.47 292.568 1386.97 292.748C1387.43 292.928 1388.72 293.056 1389.82 293.082C1390.89 293.082 1392.34 292.902 1392.95 292.697C1393.59 292.491 1394.36 291.953 1394.66 291.542Z" fill="#C7D2E5"/>
<path d="M1275.19 125.682C1275.69 125.014 1275.76 144.947 1275.76 110.56V71.2975H1264.72V110.432C1264.72 142.304 1264.79 124.809 1265.21 125.502C1265.52 125.938 1266.24 126.58 1266.85 126.913C1267.73 127.375 1268.45 127.504 1270.24 127.504C1271.95 127.504 1272.79 127.35 1273.59 126.965C1274.16 126.682 1274.89 126.092 1275.19 125.682Z" fill="#C7D2E5"/>
<rect x="1264" y="30" width="8.25" height="10.5" fill="white"/>
<rect x="1264" y="51" width="8.25" height="10.5" fill="white"/>
<rect x="1387.75" y="40.5" width="8.25" height="10.5" fill="white"/>
<rect x="1387.75" y="61.5" width="8.25" height="10.5" fill="white"/>
<rect x="1330" y="30" width="8.25" height="10.5" fill="white"/>
<rect x="1330" y="51" width="8.25" height="10.5" fill="white"/>
<rect x="1321.75" y="40.5" width="8.25" height="10.5" fill="white"/>
<rect x="1321.75" y="61.5" width="8.25" height="10.5" fill="white"/>
<rect x="1297" y="30" width="8.25" height="10.5" fill="white"/>
<rect x="1297" y="51" width="8.25" height="10.5" fill="white"/>
<rect x="1288.75" y="40.5" width="8.25" height="10.5" fill="white"/>
<rect x="1288.75" y="61.5" width="8.25" height="10.5" fill="white"/>
<rect x="1363" y="30" width="8.25" height="10.5" fill="white"/>
<rect x="1363" y="51" width="8.25" height="10.5" fill="white"/>
<rect x="1354.75" y="40.5" width="8.25" height="10.5" fill="white"/>
<rect x="1354.75" y="61.5" width="8.25" height="10.5" fill="white"/>
<rect x="1280.5" y="30" width="8.25" height="10.5" fill="white"/>
<rect x="1280.5" y="51" width="8.25" height="10.5" fill="white"/>
<rect x="1272.25" y="40.5" width="8.25" height="10.5" fill="white"/>
<rect x="1272.25" y="61.5" width="8.25" height="10.5" fill="white"/>
<rect x="1346.5" y="30" width="8.25" height="10.5" fill="white"/>
<rect x="1346.5" y="51" width="8.25" height="10.5" fill="white"/>
<rect x="1338.25" y="40.5" width="8.25" height="10.5" fill="white"/>
<rect x="1338.25" y="61.5" width="8.25" height="10.5" fill="white"/>
<rect x="1313.5" y="30" width="8.25" height="10.5" fill="white"/>
<rect x="1313.5" y="51" width="8.25" height="10.5" fill="white"/>
<rect x="1305.25" y="40.5" width="8.25" height="10.5" fill="white"/>
<rect x="1305.25" y="61.5" width="8.25" height="10.5" fill="white"/>
<rect x="1379.5" y="30" width="8.25" height="10.5" fill="white"/>
<rect x="1379.5" y="51" width="8.25" height="10.5" fill="white"/>
<rect x="1371.25" y="40.5" width="8.25" height="10.5" fill="white"/>
<rect x="1371.25" y="61.5" width="8.25" height="10.5" fill="white"/>
<rect x="1272.25" y="30" width="8.25" height="10.5" fill="#252525"/>
<rect x="1272.25" y="51" width="8.25" height="10.5" fill="#252525"/>
<rect x="1264" y="40.5" width="8.25" height="10.5" fill="#252525"/>
<rect x="1264" y="61.5" width="8.25" height="10.5" fill="#252525"/>
<rect x="1338.25" y="30" width="8.25" height="10.5" fill="#252525"/>
<rect x="1338.25" y="51" width="8.25" height="10.5" fill="#252525"/>
<rect x="1330" y="40.5" width="8.25" height="10.5" fill="#252525"/>
<rect x="1330" y="61.5" width="8.25" height="10.5" fill="#252525"/>
<rect x="1305.25" y="30" width="8.25" height="10.5" fill="#252525"/>
<rect x="1305.25" y="51" width="8.25" height="10.5" fill="#252525"/>
<rect x="1297" y="40.5" width="8.25" height="10.5" fill="#252525"/>
<rect x="1297" y="61.5" width="8.25" height="10.5" fill="#252525"/>
<rect x="1371.25" y="30" width="8.25" height="10.5" fill="#252525"/>
<rect x="1371.25" y="51" width="8.25" height="10.5" fill="#252525"/>
<rect x="1363" y="40.5" width="8.25" height="10.5" fill="#252525"/>
<rect x="1363" y="61.5" width="8.25" height="10.5" fill="#252525"/>
<rect x="1288.75" y="30" width="8.25" height="10.5" fill="#252525"/>
<rect x="1288.75" y="51" width="8.25" height="10.5" fill="#252525"/>
<rect x="1280.5" y="40.5" width="8.25" height="10.5" fill="#252525"/>
<rect x="1280.5" y="61.5" width="8.25" height="10.5" fill="#252525"/>
<rect x="1354.75" y="30" width="8.25" height="10.5" fill="#252525"/>
<rect x="1354.75" y="51" width="8.25" height="10.5" fill="#252525"/>
<rect x="1346.5" y="40.5" width="8.25" height="10.5" fill="#252525"/>
<rect x="1346.5" y="61.5" width="8.25" height="10.5" fill="#252525"/>
<rect x="1321.75" y="30" width="8.25" height="10.5" fill="#252525"/>
<rect x="1321.75" y="51" width="8.25" height="10.5" fill="#252525"/>
<rect x="1313.5" y="40.5" width="8.25" height="10.5" fill="#252525"/>
<rect x="1313.5" y="61.5" width="8.25" height="10.5" fill="#252525"/>
<rect x="1387.75" y="30" width="8.25" height="10.5" fill="#252525"/>
<rect x="1387.75" y="51" width="8.25" height="10.5" fill="#252525"/>
<rect x="1379.5" y="40.5" width="8.25" height="10.5" fill="#252525"/>
<rect x="1379.5" y="61.5" width="8.25" height="10.5" fill="#252525"/>
<defs>
<filter id="filter0_d_7368_29107" x="147" y="134" width="113" height="113" filterUnits="userSpaceOnUse" color-interpolation-filters="sRGB">
<feFlood flood-opacity="0" result="BackgroundImageFix"/>
<feColorMatrix in="SourceAlpha" type="matrix" values="0 0 0 0 0 0 0 0 0 0 0 0 0 0 0 0 0 0 127 0" result="hardAlpha"/>
<feOffset dy="4"/>
<feGaussianBlur stdDeviation="10"/>
<feComposite in2="hardAlpha" operator="out"/>
<feColorMatrix type="matrix" values="0 0 0 0 1 0 0 0 0 0.545098 0 0 0 0 0.0745098 0 0 0 0.4 0"/>
<feBlend mode="normal" in2="BackgroundImageFix" result="effect1_dropShadow_7368_29107"/>
<feBlend mode="normal" in="SourceGraphic" in2="effect1_dropShadow_7368_29107" result="shape"/>
</filter>
<filter id="filter1_d_7368_29107" x="407" y="192" width="113" height="113" filterUnits="userSpaceOnUse" color-interpolation-filters="sRGB">
<feFlood flood-opacity="0" result="BackgroundImageFix"/>
<feColorMatrix in="SourceAlpha" type="matrix" values="0 0 0 0 0 0 0 0 0 0 0 0 0 0 0 0 0 0 127 0" result="hardAlpha"/>
<feOffset dy="4"/>
<feGaussianBlur stdDeviation="10"/>
<feComposite in2="hardAlpha" operator="out"/>
<feColorMatrix type="matrix" values="0 0 0 0 1 0 0 0 0 0.545098 0 0 0 0 0.0745098 0 0 0 0.4 0"/>
<feBlend mode="normal" in2="BackgroundImageFix" result="effect1_dropShadow_7368_29107"/>
<feBlend mode="normal" in="SourceGraphic" in2="effect1_dropShadow_7368_29107" result="shape"/>
</filter>
<filter id="filter2_d_7368_29107" x="670" y="100" width="113" height="113" filterUnits="userSpaceOnUse" color-interpolation-filters="sRGB">
<feFlood flood-opacity="0" result="BackgroundImageFix"/>
<feColorMatrix in="SourceAlpha" type="matrix" values="0 0 0 0 0 0 0 0 0 0 0 0 0 0 0 0 0 0 127 0" result="hardAlpha"/>
<feOffset dy="4"/>
<feGaussianBlur stdDeviation="10"/>
<feComposite in2="hardAlpha" operator="out"/>
<feColorMatrix type="matrix" values="0 0 0 0 1 0 0 0 0 0.545098 0 0 0 0 0.0745098 0 0 0 0.4 0"/>
<feBlend mode="normal" in2="BackgroundImageFix" result="effect1_dropShadow_7368_29107"/>
<feBlend mode="normal" in="SourceGraphic" in2="effect1_dropShadow_7368_29107" result="shape"/>
</filter>
<filter id="filter3_d_7368_29107" x="924" y="192" width="113" height="113" filterUnits="userSpaceOnUse" color-interpolation-filters="sRGB">
<feFlood flood-opacity="0" result="BackgroundImageFix"/>
<feColorMatrix in="SourceAlpha" type="matrix" values="0 0 0 0 0 0 0 0 0 0 0 0 0 0 0 0 0 0 127 0" result="hardAlpha"/>
<feOffset dy="4"/>
<feGaussianBlur stdDeviation="10"/>
<feComposite in2="hardAlpha" operator="out"/>
<feColorMatrix type="matrix" values="0 0 0 0 1 0 0 0 0 0.545098 0 0 0 0 0.0745098 0 0 0 0.4 0"/>
<feBlend mode="normal" in2="BackgroundImageFix" result="effect1_dropShadow_7368_29107"/>
<feBlend mode="normal" in="SourceGraphic" in2="effect1_dropShadow_7368_29107" result="shape"/>
</filter>
<filter id="filter4_d_7368_29107" x="1164" y="156" width="113" height="113" filterUnits="userSpaceOnUse" color-interpolation-filters="sRGB">
<feFlood flood-opacity="0" result="BackgroundImageFix"/>
<feColorMatrix in="SourceAlpha" type="matrix" values="0 0 0 0 0 0 0 0 0 0 0 0 0 0 0 0 0 0 127 0" result="hardAlpha"/>
<feOffset dy="4"/>
<feGaussianBlur stdDeviation="10"/>
<feComposite in2="hardAlpha" operator="out"/>
<feColorMatrix type="matrix" values="0 0 0 0 1 0 0 0 0 0.545098 0 0 0 0 0.0745098 0 0 0 0.4 0"/>
<feBlend mode="normal" in2="BackgroundImageFix" result="effect1_dropShadow_7368_29107"/>
<feBlend mode="normal" in="SourceGraphic" in2="effect1_dropShadow_7368_29107" result="shape"/>
</filter>
</defs>
</svg>
