<svg width="36" height="36" viewBox="0 0 36 36" fill="none" xmlns="http://www.w3.org/2000/svg">
<path d="M18 19.5C22.1421 19.5 25.5 16.1421 25.5 12C25.5 7.85786 22.1421 4.5 18 4.5C13.8579 4.5 10.5 7.85786 10.5 12C10.5 16.1421 13.8579 19.5 18 19.5Z" stroke="url(#paint0_linear_5982_11753)" stroke-width="3" stroke-linecap="round" stroke-linejoin="round"/>
<path d="M30 31.5C30 28.3174 28.7357 25.2652 26.4853 23.0147C24.2348 20.7643 21.1826 19.5 18 19.5C14.8174 19.5 11.7652 20.7643 9.51472 23.0147C7.26428 25.2652 6 28.3174 6 31.5" stroke="url(#paint1_linear_5982_11753)" stroke-width="3" stroke-linecap="round" stroke-linejoin="round"/>
<defs>
<linearGradient id="paint0_linear_5982_11753" x1="12.4781" y1="7.38462" x2="24.8318" y2="7.44501" gradientUnits="userSpaceOnUse">
<stop stop-color="#F8BF3B"/>
<stop offset="0.305" stop-color="#FF8B13"/>
<stop offset="1" stop-color="#EF5F3D"/>
</linearGradient>
<linearGradient id="paint1_linear_5982_11753" x1="9.165" y1="21.8077" x2="28.9294" y2="22.0009" gradientUnits="userSpaceOnUse">
<stop stop-color="#F8BF3B"/>
<stop offset="0.305" stop-color="#FF8B13"/>
<stop offset="1" stop-color="#EF5F3D"/>
</linearGradient>
</defs>
</svg>
