<svg width="139" height="139" viewBox="0 0 139 139" fill="none" xmlns="http://www.w3.org/2000/svg">
<path fill-rule="evenodd" clip-rule="evenodd" d="M69.4998 0C70.0156 0 70.7215 0.217187 71.0201 0.488672C71.3459 0.733008 71.7531 1.22168 71.916 1.57461C72.1061 1.98184 72.2147 5.2125 72.2147 11.6738C72.2147 19.2211 72.1332 21.3387 71.8346 21.9359C71.6445 22.3432 71.1559 22.8318 70.7486 23.0219C70.3686 23.1848 69.7984 23.3477 69.4998 23.3477C69.2012 23.3477 68.6311 23.1848 68.251 22.9947C67.8438 22.8318 67.3551 22.3432 67.165 21.9088C66.8664 21.3387 66.785 19.2211 66.785 11.6738C66.785 5.2125 66.8936 1.98184 67.0836 1.54746C67.2465 1.22168 67.6537 0.733008 67.9795 0.488672C68.2781 0.217187 68.984 0 69.4998 0ZM68.9568 31.5193C70.6672 31.4922 73.3549 31.6279 74.9295 31.7637C76.5041 31.9266 79.3004 32.3609 81.1736 32.741C83.0469 33.1211 86.4133 34.017 88.6395 34.7771C91.0828 35.5645 94.5578 37.0305 97.327 38.3879C100.015 39.7182 103.653 41.8086 106.014 43.3832C108.268 44.9035 111.417 47.184 113.073 48.5143C114.729 49.8174 118.15 52.9666 120.702 55.5186C123.254 58.0434 126.376 61.4098 127.652 62.9844C128.928 64.559 130.394 66.5137 130.964 67.3281C131.507 68.1426 131.968 69.1199 131.968 69.5C131.968 69.8801 131.507 70.8574 130.964 71.6719C130.394 72.4863 128.928 74.441 127.652 76.0156C126.376 77.5902 123.254 80.9566 120.702 83.4814C118.15 86.0334 114.729 89.1826 113.073 90.4857C111.417 91.816 108.241 94.0965 106.014 95.6168C103.625 97.1914 100.042 99.2818 97.327 100.612C94.775 101.861 91.11 103.408 89.1824 104.06C87.2549 104.739 84.2414 105.58 82.5311 105.987C80.8207 106.368 77.8072 106.856 75.8797 107.101C73.9521 107.318 71.0744 107.508 69.4998 107.508C67.9252 107.508 65.1018 107.318 63.1742 107.101C61.2738 106.883 58.5318 106.449 57.093 106.123C55.627 105.825 52.5863 104.956 50.3602 104.223C47.8625 103.381 44.4961 101.997 41.6727 100.585C39.1479 99.3361 35.7271 97.4357 34.0711 96.3498C32.4422 95.291 29.9988 93.5807 28.6414 92.5762C27.284 91.5717 24.8406 89.5898 23.2117 88.1781C21.5828 86.7393 18.7594 84.0787 16.9676 82.2326C15.1758 80.3865 12.651 77.5902 11.375 76.0156C10.099 74.441 8.60586 72.4863 8.03574 71.6719C7.49277 70.8574 7.03125 69.8801 7.03125 69.5C7.03125 69.1199 7.49277 68.1426 8.03574 67.3281C8.60586 66.5137 10.099 64.559 11.375 62.9844C12.651 61.4098 15.1758 58.6135 16.9676 56.7674C18.7594 54.9213 21.5828 52.2607 23.2117 50.8219C24.8406 49.4102 27.1211 47.5641 28.2342 46.6953C29.3473 45.8537 31.7906 44.1434 33.6639 42.9217C35.5371 41.7 39.1479 39.6639 41.6727 38.415C44.4689 37.0305 47.8896 35.5916 50.3602 34.7771C52.6135 34.0441 55.9527 33.1211 57.826 32.741C59.6992 32.3609 62.2512 31.9266 63.5271 31.818C64.8031 31.6822 67.2465 31.5465 68.9568 31.5193ZM58.9119 38.035C57.3373 38.3336 54.4053 39.148 52.3963 39.7996C50.3602 40.4783 46.6951 42.0258 44.116 43.3018C41.5912 44.5506 38.0348 46.5324 36.243 47.6998C34.4512 48.8943 31.4105 51.1205 29.4559 52.6951C27.5283 54.2426 24.2162 57.2289 22.1258 59.3193C20.0082 61.4098 17.2119 64.4504 15.8816 66.0521C14.5242 67.6811 13.4383 69.2285 13.4383 69.5C13.4383 69.7715 14.5242 71.3189 15.8816 72.9479C17.2119 74.5496 20.0082 77.5902 22.1258 79.6807C24.2162 81.7711 27.5283 84.7574 29.4559 86.3049C31.4105 87.8795 34.4512 90.1057 36.243 91.3002C38.0348 92.4676 41.5912 94.4494 44.116 95.6982C46.7223 96.9742 50.333 98.5217 52.3963 99.2004C54.4053 99.852 57.3373 100.666 58.9119 100.965C60.4865 101.291 62.9299 101.644 64.3416 101.807C65.7533 101.942 68.0881 102.078 69.4998 102.078C70.9115 102.078 73.2463 101.942 74.658 101.807C76.0697 101.644 78.5131 101.291 80.0877 100.965C81.6623 100.639 84.5943 99.852 86.6033 99.2004C88.6937 98.5217 92.2502 97.0285 94.8836 95.7254C97.4355 94.4766 101.101 92.3861 103.028 91.083C104.956 89.807 108.023 87.5537 109.815 86.1148C111.607 84.676 114.783 81.7711 116.874 79.6807C118.991 77.5902 121.788 74.5496 123.118 72.9479C124.475 71.3189 125.588 69.8258 125.643 69.6086C125.67 69.3914 124.937 68.2783 123.987 67.1381C123.064 65.9707 121.082 63.6902 119.562 62.0342C118.068 60.4053 115.435 57.799 113.725 56.2787C112.014 54.7584 109.788 52.8037 108.729 51.9893C107.671 51.1477 105.173 49.3559 103.164 47.9984C101.155 46.641 97.4355 44.5234 94.8836 43.2746C92.2502 41.9715 88.6937 40.4783 86.6033 39.7996C84.5943 39.148 81.6623 38.3607 80.0877 38.035C78.5131 37.7363 76.124 37.3563 74.7938 37.1934C73.4635 37.0576 70.8844 36.949 69.0926 36.949C67.3008 36.9762 64.9117 37.0848 63.7986 37.2205C62.6855 37.3563 60.4865 37.7092 58.9119 38.035ZM69.4455 115.652C69.7713 115.652 70.3686 115.815 70.8029 116.032C71.2102 116.222 71.6988 116.711 71.8889 117.118C72.1332 117.634 72.2147 120.295 72.2147 127.326C72.2147 133.788 72.1061 137.018 71.916 137.453C71.7531 137.778 71.3459 138.267 71.0201 138.511C70.7215 138.783 70.0156 139 69.4998 139C68.984 139 68.2781 138.783 67.9795 138.511C67.6537 138.267 67.2465 137.778 67.0836 137.453C66.8936 137.018 66.785 133.787 66.785 127.272C66.8121 119.073 66.8664 117.607 67.2193 117.037C67.4637 116.684 67.9252 116.222 68.2238 116.032C68.5496 115.842 69.0926 115.679 69.4455 115.652ZM17.8363 20.6328C18.0264 20.6328 18.5965 20.7957 19.058 21.0129C19.5738 21.2301 22.6416 24.0807 25.9537 27.4471C30.6232 32.1709 32.0078 33.7184 32.1436 34.4242C32.2521 34.9672 32.1436 35.5916 31.8992 36.1074C31.682 36.5689 31.1391 37.1119 30.6775 37.3291C30.1617 37.5734 29.5373 37.682 28.9672 37.5734C28.2885 37.4377 26.7682 36.0803 21.8271 31.1121C16.859 26.1711 15.5016 24.6508 15.3658 23.9721C15.2572 23.402 15.3658 22.7775 15.6102 22.2617C15.8273 21.8273 16.3432 21.2572 16.7504 21.04C17.1848 20.8229 17.6734 20.66 17.8363 20.6328ZM121.028 20.6328C121.19 20.6328 121.706 20.8229 122.168 21.04C122.602 21.2572 123.199 21.8273 123.444 22.2889C123.77 22.8861 123.851 23.3477 123.688 23.9721C123.525 24.5965 121.706 26.6055 117.308 31.0307C112.829 35.5645 110.928 37.302 110.222 37.5191C109.462 37.7363 109.109 37.7092 108.376 37.3563C107.915 37.1119 107.318 36.5689 107.1 36.1074C106.856 35.5916 106.747 34.9672 106.856 34.4242C106.992 33.7184 108.349 32.198 113.046 27.4742C116.331 24.1621 119.399 21.2572 119.86 21.04C120.295 20.8229 120.838 20.6328 121 20.6328H121.028ZM29.5373 103.979C29.7273 103.979 30.2432 104.169 30.7047 104.386C31.1391 104.603 31.7363 105.173 31.9807 105.635C32.3064 106.232 32.3879 106.693 32.225 107.318C32.0621 107.942 30.2432 109.951 25.8451 114.376C21.3656 118.91 19.4652 120.648 18.7594 120.865C17.9992 121.082 17.6463 121.055 16.9133 120.702C16.4518 120.458 15.8545 119.915 15.6373 119.453C15.393 118.937 15.2844 118.313 15.393 117.77C15.5287 117.064 16.8861 115.544 21.5828 110.82C24.8678 107.508 27.9355 104.603 28.3971 104.386C28.8314 104.169 29.3744 103.979 29.5373 103.979ZM109.354 103.979C109.544 103.979 110.114 104.141 110.575 104.359C111.091 104.576 114.159 107.426 117.471 110.793C122.141 115.517 123.525 117.064 123.661 117.77C123.77 118.313 123.661 118.937 123.417 119.453C123.199 119.915 122.629 120.458 122.195 120.675C121.679 120.919 121.055 121.028 120.485 120.919C119.806 120.783 118.286 119.426 113.345 114.458C108.376 109.517 107.019 107.996 106.883 107.318C106.775 106.748 106.883 106.123 107.128 105.607C107.345 105.173 107.861 104.603 108.268 104.386C108.702 104.169 109.191 104.006 109.354 103.979ZM70.3414 45.2021C72.2961 45.2564 74.2779 45.5279 75.6354 45.8809C76.8299 46.1795 78.6488 46.8311 79.7076 47.3197C80.7393 47.8084 82.3953 48.7586 83.3727 49.4102C84.35 50.0889 85.8703 51.3377 86.7662 52.2607C87.6893 53.1566 88.9381 54.677 89.6168 55.6543C90.2684 56.6316 91.2186 58.2877 91.7072 59.3193C92.1959 60.3781 92.8475 62.1971 93.1732 63.3916C93.6619 65.1562 93.7705 66.2965 93.7705 69.5C93.7705 72.7035 93.6619 73.8438 93.1732 75.6084C92.8475 76.8029 92.1959 78.649 91.7072 79.6807C91.2186 80.7395 90.2684 82.3684 89.6168 83.3457C88.9381 84.323 87.6893 85.8434 86.7662 86.7393C85.8703 87.6623 84.35 88.9111 83.3727 89.5898C82.3953 90.2414 80.7393 91.1916 79.7076 91.6803C78.6488 92.1689 76.8299 92.8205 75.6354 93.1463C73.925 93.635 72.6762 93.7436 69.6627 93.7707C66.8936 93.7707 65.3461 93.635 63.9615 93.282C62.9027 93.0377 61.1381 92.4404 60.025 91.9518C58.9119 91.4902 57.093 90.5129 56.007 89.807C54.9482 89.1012 53.2922 87.7437 52.342 86.8207C51.4189 85.8705 50.1158 84.323 49.4371 83.3457C48.7855 82.3684 47.8354 80.7395 47.3467 79.6807C46.858 78.649 46.2064 76.8029 45.8807 75.6084C45.392 73.8709 45.2834 72.6764 45.2563 69.5C45.2563 66.3508 45.3377 65.3734 45.7178 64.559C46.0164 63.8803 46.5051 63.3916 47.048 63.1473C47.5367 62.9301 48.2426 62.8215 48.6227 62.8758C49.0027 62.9301 49.6543 63.3102 50.8488 64.4775L50.6588 67.7354C50.523 70.1787 50.5773 71.5361 50.9031 73.165C51.1746 74.5496 51.799 76.2871 52.5863 77.916C53.6451 80.0607 54.2695 80.9023 56.1971 82.8299C58.1518 84.7846 58.9662 85.3818 61.1109 86.4135C62.6584 87.1736 64.5316 87.8523 65.7805 88.0967C66.9479 88.3139 68.6311 88.5039 69.527 88.5039C70.4229 88.5039 72.0518 88.341 73.1105 88.1238C74.1965 87.9338 75.7711 87.4723 76.5855 87.1193C77.4 86.7936 78.8117 86.0334 79.7076 85.4904C80.6035 84.9475 82.2324 83.5629 83.2912 82.4227C84.7844 80.848 85.5717 79.7621 86.4947 77.8617C87.2006 76.3686 87.8793 74.4682 88.1236 73.2465C88.3408 72.0791 88.5309 70.3959 88.5309 69.5C88.5309 68.6041 88.3408 66.9209 88.1236 65.7807C87.8793 64.5318 87.2006 62.6314 86.4947 61.1654C85.5717 59.2379 84.7844 58.152 83.2912 56.5773C82.2324 55.4371 80.6035 54.0525 79.7076 53.5096C78.8117 52.9395 77.2914 52.1793 76.3141 51.7721C75.3367 51.392 73.5721 50.9305 72.3775 50.7404C71.1016 50.5504 69.3641 50.4961 68.1695 50.5775C67.0564 50.6861 65.4547 50.9305 64.6402 51.1748C63.8258 51.4191 62.6584 51.6635 62.0611 51.7721C61.1381 51.9078 60.8395 51.8264 60.0793 51.1477C59.4006 50.5504 59.1563 50.116 59.1291 49.4102C59.102 48.8943 59.292 48.1342 59.5635 47.727C59.8621 47.2383 60.5408 46.7768 61.5182 46.4238C62.3326 46.1252 63.9615 45.6908 65.1018 45.4736C66.5135 45.2021 68.2781 45.1207 70.3414 45.2021ZM53.1564 53.2109C53.5094 53.2109 54.1066 53.3738 54.5139 53.591C54.9482 53.7811 55.4369 54.2697 55.5998 54.677C55.7898 55.057 55.9527 55.6271 55.9527 55.9258C55.9527 56.2244 55.7898 56.7945 55.5727 57.2289C55.3826 57.6361 54.8939 58.1248 54.4867 58.3148C54.1066 58.4777 53.5365 58.6406 53.2379 58.6406C52.9393 58.6406 52.3691 58.4777 51.9891 58.3148C51.5818 58.1248 51.0932 57.6361 50.9031 57.2289C50.6859 56.7945 50.523 56.1973 50.523 55.8715C50.5502 55.5186 50.7402 54.9484 50.9574 54.5955C51.2018 54.2426 51.6633 53.7811 51.9619 53.591C52.2877 53.401 52.8307 53.2381 53.1564 53.2109ZM70.0699 58.7492C71.6174 58.8035 72.5133 59.0207 73.8707 59.618C74.8481 60.0795 76.2326 60.9754 76.9385 61.627C77.8072 62.4143 78.6217 63.5545 79.2461 64.8576C80.1963 66.7852 80.2506 67.0566 80.2506 69.5C80.2506 71.9434 80.1963 72.2148 79.2461 74.1424C78.6217 75.4455 77.8072 76.5857 76.9385 77.373C76.2326 78.0246 74.8481 78.9477 73.8707 79.4092C72.2961 80.1422 71.8346 80.2236 69.527 80.2236C67.2193 80.2236 66.7578 80.1422 65.1832 79.4092C64.2059 78.9477 62.8213 78.0246 62.1154 77.373C61.2467 76.5857 60.4322 75.4455 59.8078 74.1424C58.8576 72.242 58.8033 71.9434 58.8033 69.5272C58.8033 67.1924 58.8848 66.7309 59.6178 65.1562C60.0793 64.1789 60.948 62.8486 61.5725 62.1699C62.1697 61.4912 63.3914 60.5682 64.2602 60.0795C65.1561 59.5908 66.3506 59.075 66.9479 58.9393C67.5451 58.7764 68.9568 58.6949 70.0699 58.7492ZM65.7262 65.6992C65.0475 66.3779 64.5316 67.2195 64.3416 67.9525C64.1787 68.577 64.1244 69.6357 64.2059 70.3145C64.3145 70.9932 64.6674 71.9705 64.9932 72.4863C65.3461 73.0022 66.1063 73.7352 66.7035 74.1152C67.5451 74.6582 68.1152 74.7939 69.5541 74.7939C70.993 74.7939 71.5359 74.6582 72.4047 74.0881C72.9748 73.708 73.7621 72.9207 74.1422 72.3234C74.6852 71.4818 74.8209 70.9117 74.8209 69.5C74.8209 68.0883 74.6852 67.5182 74.1422 66.6766C73.7621 66.0793 73.0291 65.3191 72.5133 64.9662C71.916 64.559 71.0201 64.2875 70.0699 64.2061C69.2555 64.1518 68.1695 64.2061 67.6809 64.3418C67.2193 64.5047 66.3234 65.102 65.7262 65.6992Z" fill="url(#paint0_linear_6455_15157)"/>
<defs>
<linearGradient id="paint0_linear_6455_15157" x1="23.5073" y1="26.7308" x2="126.403" y2="27.1829" gradientUnits="userSpaceOnUse">
<stop stop-color="#F8BF3B"/>
<stop offset="0.305" stop-color="#FF8B13"/>
<stop offset="1" stop-color="#EF5F3D"/>
</linearGradient>
</defs>
</svg>
