<svg width="71" height="63" viewBox="0 0 71 63" fill="none" xmlns="http://www.w3.org/2000/svg">
<mask id="path-1-outside-1_5624_7345" maskUnits="userSpaceOnUse" x="0" y="0" width="71" height="63" fill="black">
<rect fill="white" width="71" height="63"/>
<path fill-rule="evenodd" clip-rule="evenodd" d="M43.1806 1.0013C43.803 0.985656 44.5187 1.11081 45.3588 1.39242C46.0434 1.61144 46.8524 1.93998 47.148 2.11207C47.4436 2.29981 48.0193 2.70657 48.4393 3.05076C48.9839 3.48881 49.2017 3.59832 49.3106 3.45752C49.3884 3.34801 49.9952 2.98818 50.6642 2.65964C51.411 2.31546 52.4067 1.98692 53.2158 1.83047C54.0974 1.67402 54.9012 1.6323 55.6273 1.70531C56.2341 1.75225 57.2454 1.97127 57.8832 2.15901C58.5989 2.39368 59.5324 2.84738 60.2948 3.36365C61.0105 3.84864 61.8506 4.58394 62.2862 5.1315C62.7219 5.64778 63.2975 6.53953 63.5776 7.13403C63.8732 7.71288 64.2155 8.62027 64.3399 9.16784C64.4644 9.69976 64.5733 10.6072 64.5733 11.2016C64.5733 12.2186 64.5889 12.2498 65.0089 12.3437C65.2423 12.4063 65.8335 12.6722 66.347 12.9382C66.8448 13.2042 67.5916 13.7987 68.0117 14.2524C68.4318 14.6904 68.9763 15.5039 69.2253 16.0515C69.4897 16.5834 69.7698 17.4439 69.8787 17.9602C70.0654 18.805 70.0499 19.024 69.7387 20.2286C69.5364 20.9639 69.1475 21.9652 68.3073 23.3576L68.7274 24.4996C69.0697 25.454 69.1319 25.8764 69.1319 27.2688C69.1319 28.5673 69.0541 29.1148 68.7896 29.8501C68.6029 30.3664 68.2451 31.1017 67.9961 31.4928C67.7628 31.8839 67.156 32.5723 66.6893 33.026C66.2069 33.4797 65.3201 34.0899 64.6978 34.3871C64.0755 34.6843 63.4687 34.9347 63.3753 34.9347C63.2664 34.9347 63.1731 34.966 63.1731 35.0129C63.1731 35.0598 63.3131 35.5292 63.4998 36.0767C63.7643 36.8433 63.811 37.2814 63.7487 38.2201C63.7021 38.8771 63.5309 39.7063 63.3598 40.0974C63.1886 40.4885 62.8308 41.0987 62.5663 41.4741C62.3018 41.834 61.7573 42.3503 61.3527 42.6319C60.9327 42.9135 60.2014 43.2576 59.7191 43.4141C59.2213 43.5705 58.4745 43.6957 57.2609 43.6957V44.6344C57.2609 45.1507 57.1831 45.9485 57.0898 46.4022C56.9964 46.8403 56.7008 47.6695 56.4363 48.2327C56.1407 48.8897 55.6273 49.5938 55.0205 50.2039C54.4915 50.7358 53.6981 51.346 53.2624 51.5806C52.8112 51.7997 52.0178 52.1125 51.5043 52.269C50.6486 52.5193 50.5708 52.5662 50.4775 53.0825C50.4308 53.3798 50.2441 53.9273 50.0885 54.3028C49.9174 54.6626 49.4973 55.2884 49.1395 55.6795C48.7661 56.0863 48.1904 56.5713 47.8481 56.7747C47.5058 56.9781 46.7902 57.2284 45.2654 57.5413L44.9232 58.4017C44.7365 58.8711 44.3942 59.5125 44.1608 59.8097C43.943 60.107 43.4918 60.545 43.1651 60.7797C42.8228 61.0144 42.1382 61.3899 41.6248 61.6089C41.018 61.8592 40.3957 62 39.8356 62C39.3533 62 38.6065 61.8592 38.1242 61.6715C37.6574 61.4994 36.9418 61.1083 35.7904 60.2791V36.2645C35.7904 14.0333 35.7749 12.1873 35.5259 11.3425C35.3548 10.7792 35.2615 9.95007 35.2615 9.04268C35.277 8.01013 35.3704 7.35305 35.6193 6.61775C35.806 6.05454 36.2261 5.20973 36.5372 4.74039C36.8484 4.27104 37.3774 3.59832 37.7352 3.25414C38.0931 2.90996 38.8243 2.39368 39.3844 2.09643C39.929 1.79918 40.8002 1.43935 41.3136 1.28291C41.8271 1.1421 42.6672 1.01695 43.1806 1.0013ZM39.68 3.91122C39.2911 4.16153 38.7465 4.66216 38.4509 4.9907C38.1553 5.31924 37.7508 5.96067 37.5485 6.38308C37.3618 6.82113 37.1285 7.58772 37.0195 8.104C36.9262 8.62027 36.9106 9.38686 36.9729 9.82491C37.0195 10.263 37.1751 10.8888 37.2996 11.2329C37.4552 11.7179 37.5019 13.0008 37.5019 16.9902V22.106L55.7829 22.1842C57.2298 22.9039 57.961 23.4358 58.35 23.8269C58.739 24.218 59.2524 24.9533 59.5013 25.4696C59.7502 25.9859 59.9836 26.7838 60.0458 27.2375L60.1392 28.051H58.35C58.35 27.2688 58.21 26.7525 58.0699 26.4083C57.9144 26.0641 57.541 25.5166 57.2454 25.188C56.9497 24.8595 56.3741 24.4058 55.9385 24.2024L55.1605 23.8269H37.5019V38.6894C44.7209 38.6894 45.6855 38.7363 46.3701 38.9397C46.8368 39.0805 47.5681 39.409 47.9882 39.675C48.4082 39.9566 48.9995 40.4572 49.2795 40.8014C49.5751 41.1456 49.9952 41.8183 50.213 42.2877C50.4308 42.757 50.6486 43.5236 50.7109 43.9773L50.8042 44.7908H49.0928C48.9061 43.6957 48.735 43.1168 48.5638 42.8039C48.4082 42.4754 47.957 41.9122 47.5525 41.5524C47.0858 41.1143 46.5568 40.8014 46.0278 40.645C45.3899 40.4572 44.332 40.4103 41.3603 40.4103H37.5019V59.4968C38.7154 60.0601 39.2911 60.1696 39.8356 60.1696C40.3023 60.1696 40.9402 60.0601 41.2358 59.9349C41.5315 59.8097 42.0293 59.4968 42.3249 59.2309C42.6205 58.9806 43.0251 58.433 43.2273 58.0419C43.4607 57.5413 43.5696 57.025 43.5696 56.4148C43.5696 55.836 43.4451 55.2571 43.2429 54.8034C43.0717 54.4123 42.6672 53.8648 42.356 53.5675L41.7804 53.0512C42.3872 51.9874 42.605 51.6745 42.6828 51.6745C42.745 51.6745 43.1184 51.9717 43.5074 52.3472C43.8963 52.707 44.3631 53.2546 44.5498 53.5519C44.7365 53.8491 45.001 54.4905 45.141 54.9599C45.3744 55.7108 45.4522 55.8203 45.7633 55.7578C45.9656 55.7265 46.4012 55.57 46.7279 55.4136C47.0391 55.2571 47.5681 54.8504 47.8792 54.5375C48.1904 54.2089 48.5483 53.7083 48.6572 53.4423C48.7661 53.1607 48.8594 52.8322 48.8594 52.7383C48.8594 52.6132 48.486 52.4567 48.0037 52.3472C47.537 52.2377 46.7124 51.9248 46.1834 51.6432C45.6388 51.3772 44.8143 50.7827 44.3475 50.3447C43.8808 49.891 43.2584 49.0775 42.9628 48.5299C42.6672 47.9823 42.3405 47.1845 42.216 46.7464C42.1071 46.324 42.0138 45.7764 42.0138 45.5418C42.0138 45.1194 42.0449 45.1037 42.8384 45.1037H43.6474C43.8341 46.1989 44.0675 46.9185 44.3008 47.4191C44.5342 47.9041 45.0321 48.6238 45.421 49.0305C45.8256 49.4217 46.5568 49.9379 47.0702 50.2039C47.9259 50.6107 48.1437 50.6576 49.6373 50.6576C51.0843 50.6576 51.3643 50.6107 52.1267 50.2352C52.5934 50.0162 53.3247 49.4842 53.7447 49.0618C54.1648 48.6551 54.7094 47.8885 54.9583 47.3722C55.2383 46.7621 55.425 46.0424 55.5028 45.3384C55.5806 44.4623 55.5339 44.0242 55.2695 43.1481C55.0672 42.4754 54.7094 41.7558 54.3204 41.2708L53.7136 40.4885L54.9427 39.237C55.5339 39.9566 55.9229 40.5511 56.1718 41.0048C56.6075 41.7714 56.6853 41.8183 57.3854 41.9122C57.7899 41.9748 58.3811 41.9748 58.7078 41.9122C59.019 41.8653 59.548 41.6775 59.8747 41.5211C60.1859 41.349 60.6682 40.9892 60.9327 40.6919C61.2127 40.4103 61.555 39.9253 61.695 39.6281C61.8506 39.3308 62.0062 38.7363 62.0373 38.2983C62.084 37.8759 62.0373 37.2344 61.9595 36.8903C61.8662 36.5461 61.6172 36.0141 61.4305 35.7169C61.1038 35.2319 60.9638 35.1537 60.217 35.0598C59.7502 35.0129 58.9879 34.8095 58.5522 34.6374C58.1011 34.4497 57.4321 34.1211 57.0742 33.8865C56.7008 33.6518 56.094 33.1512 55.7051 32.7601C55.3161 32.3689 54.7405 31.5085 54.4137 30.867L53.8225 29.6937C54.4915 29.4121 54.8649 29.2869 55.0827 29.2243C55.425 29.1461 55.5028 29.2087 55.814 29.8814C55.9851 30.2882 56.483 31.0078 56.9031 31.4772C57.3698 31.9935 58.0077 32.4784 58.5834 32.7601C59.0968 33.026 59.9369 33.2763 60.4504 33.3545C60.9638 33.4171 61.8039 33.4171 62.3174 33.3389C62.8308 33.2763 63.6398 33.0104 64.1066 32.7757C64.5733 32.541 65.289 32.0247 65.7091 31.618C66.1136 31.1956 66.6115 30.4916 66.8293 30.0535C67.0471 29.5998 67.296 28.7707 67.4049 28.2074C67.545 27.4252 67.545 26.9715 67.4049 26.2519C67.296 25.7356 67.0471 24.969 66.8604 24.5309C66.6581 24.1085 66.2225 23.4671 65.8802 23.1073C65.5535 22.7631 65.0556 22.325 64.8067 22.1529L64.3399 21.8244C64.8845 20.7136 65.0867 20.3851 65.1645 20.3851C65.2268 20.3851 65.4446 20.4946 65.6624 20.6354C65.8802 20.7919 66.3159 21.1517 66.627 21.4646L67.2027 22.0278C68.0117 20.4164 68.0739 20.1348 68.0739 18.8988C68.0739 17.7568 68.0117 17.35 67.7161 16.7555C67.5294 16.3331 67.0782 15.7073 66.7204 15.3318C66.347 14.972 65.7246 14.5183 65.3201 14.3149C64.9 14.1272 64.5111 13.9708 64.4177 13.9708C64.3244 13.9708 64.2622 14.0803 64.2622 14.2054C64.2622 14.3306 63.9354 15.0972 63.5309 15.8951C62.9864 16.9589 62.5352 17.6003 61.7728 18.3513C61.2127 18.9145 60.2948 19.6341 59.7502 19.9627C59.1901 20.2756 58.63 20.5259 58.5056 20.5102C58.3811 20.479 58.1633 20.1504 58.0077 19.7593L57.7432 19.0553C59.0034 18.4451 59.8436 17.7881 60.4504 17.1779C61.0571 16.5834 61.7417 15.7386 61.9595 15.3006C62.1929 14.8782 62.4885 14.0959 62.613 13.5796C62.753 13.0634 62.8619 12.109 62.8619 11.4676C62.8619 10.8262 62.753 9.87185 62.613 9.35557C62.4885 8.8393 62.1929 8.07271 61.9595 7.6503C61.7262 7.22789 61.2283 6.52388 60.8393 6.10147C60.4504 5.66342 59.7191 5.03764 59.2057 4.7091C58.6923 4.36491 57.7899 3.94251 57.1831 3.77041C56.4519 3.53574 55.674 3.42623 54.8494 3.42623C54.1181 3.42623 53.2158 3.55139 52.6712 3.70784C52.1578 3.86428 51.3488 4.20847 50.882 4.47443C50.4153 4.74039 49.6685 5.31924 49.2328 5.75729C48.8127 6.1797 48.2526 6.89935 47.9882 7.32176C47.7392 7.75981 47.4125 8.46382 47.2725 8.88623C47.0235 9.62153 46.9769 9.66847 46.4946 9.63718C46.2145 9.62153 45.8256 9.5746 45.6388 9.52766C45.3121 9.4338 45.2966 9.38686 45.4522 8.85494C45.5455 8.5264 45.8567 7.77546 46.1367 7.16531C46.4168 6.57082 46.9146 5.77294 47.2102 5.41311L47.7703 4.74039C46.868 3.97379 46.2145 3.56703 45.7478 3.34801C45.0476 3.01947 44.612 2.94124 43.414 2.89431C42.2938 2.86302 41.7493 2.9256 41.1581 3.14463C40.738 3.30107 40.069 3.64526 39.68 3.91122ZM18.4429 1.62709C19.2986 1.61144 20.6366 1.72096 21.399 1.84612C22.1614 1.97127 23.3593 2.26852 24.0439 2.48755C24.7285 2.70657 25.8798 3.2072 26.611 3.58268C27.3423 3.94251 28.4314 4.63087 29.0226 5.06892C29.6138 5.52262 30.5473 6.33614 31.0918 6.88371C31.6208 7.43127 32.4143 8.3856 33.6278 10.1378L33.6123 35.1693C33.6123 54.6157 33.5812 60.2478 33.4256 60.4042C33.3167 60.4981 33.0833 60.592 32.881 60.592C32.6788 60.592 31.7297 60.0444 30.7807 59.3873C29.816 58.7303 27.8246 57.2909 26.3777 56.2115C24.9307 55.1163 22.9704 53.5675 22.0213 52.7696C21.0723 51.9874 19.3764 50.4855 18.2251 49.4373C17.0893 48.3891 15.3001 46.6056 14.2733 45.4948C13.2464 44.3841 11.8773 42.8196 11.2239 42.053C10.586 41.2864 9.69914 40.16 9.26351 39.5499C8.81232 38.9397 7.97217 37.7194 7.36539 36.812C6.75862 35.9046 5.80956 34.3245 5.2339 33.292C4.6738 32.2594 3.86477 30.6011 3.4447 29.6155C3.02462 28.6298 2.46452 27.1123 2.20003 26.2519C1.93554 25.3914 1.60882 24.1555 1.48435 23.514C1.34432 22.8726 1.17318 21.6367 1.07983 20.7762C0.970926 19.6967 0.970925 18.758 1.09539 17.7255C1.18874 16.912 1.391 15.676 1.54658 14.9877C1.71772 14.2993 2.12224 13.0947 2.44897 12.3281C2.77569 11.5615 3.4447 10.3255 3.92701 9.59024C4.40931 8.85494 5.17167 7.83804 5.63842 7.33741C6.08961 6.82113 7.02311 5.96067 7.70768 5.41311C8.39224 4.86554 9.68358 4.03637 10.586 3.58268C11.4883 3.12898 12.7486 2.59706 13.3865 2.39368C14.0244 2.20594 15.0823 1.95563 15.7202 1.84612C16.3581 1.7366 17.5872 1.64273 18.4429 1.62709ZM14.2422 3.94251C13.6043 4.13024 12.6397 4.47443 12.0951 4.7091C11.5661 4.95941 10.6326 5.46004 10.0414 5.85116C9.45021 6.24228 8.43892 7.04016 7.80103 7.6503C7.16314 8.2448 6.30743 9.18348 5.88735 9.74669C5.45172 10.3099 4.76715 11.4676 4.34708 12.3281C3.92701 13.1885 3.4447 14.4557 3.27356 15.1441C3.08686 15.8325 2.8846 17.131 2.80681 18.0384C2.72902 19.024 2.72901 20.213 2.82236 21.0109C2.90016 21.7462 3.11797 22.9821 3.30467 23.7487C3.47581 24.5153 3.86477 25.8607 4.16038 26.7212C4.45599 27.5817 5.14055 29.1931 5.66954 30.3195C6.19852 31.4303 7.11646 33.1668 7.70768 34.1524C8.29889 35.138 9.37242 36.7651 10.0881 37.7507C10.8193 38.7363 12.0796 40.3634 12.8886 41.349C13.7132 42.3346 15.6113 44.3841 17.1205 45.886C18.6141 47.4035 20.7922 49.4373 21.9435 50.4386C23.0949 51.4242 24.8063 52.8479 25.7553 53.5832C26.7044 54.3185 28.4469 55.6326 29.6449 56.4931L31.8231 58.0575L31.9009 10.6071C31.2474 9.63718 30.4539 8.74543 29.7227 8.01013C28.9915 7.25918 27.9024 6.33614 27.3112 5.94503C26.7199 5.55391 25.7242 5.00635 25.133 4.74039C24.5418 4.45878 23.3749 4.06766 22.5659 3.84864C21.4301 3.55139 20.59 3.44187 18.9875 3.41059C17.8361 3.3793 16.5604 3.41059 16.1558 3.47316C15.7513 3.55139 14.8956 3.75477 14.2422 3.94251ZM52.609 10.216H53.4491C53.9159 10.216 54.3048 10.2943 54.3048 10.3725C54.3048 10.4663 54.227 10.9044 54.1337 11.3581C54.0403 11.7961 53.7914 12.4845 53.6047 12.8756C53.4025 13.2667 52.9824 13.8925 52.6401 14.268C52.2667 14.6904 51.6444 15.1441 50.9598 15.4727C50.353 15.7699 49.4973 16.0672 48.2371 16.2392V15.3475C48.2371 14.5183 48.2682 14.4401 48.5949 14.4401C48.7816 14.4401 49.2484 14.3462 49.6373 14.2054C50.0263 14.0803 50.6486 13.7048 51.0376 13.3763C51.4265 13.0477 51.8933 12.4689 52.0644 12.0778C52.2511 11.7023 52.4378 11.1234 52.5001 10.8105L52.609 10.216ZM40.4579 14.4401H45.9033V16.161H40.4579V14.4401ZM50.6175 27.2688C51.022 27.2688 51.0376 27.2844 51.0531 28.9115L50.4619 29.0053C50.1352 29.0679 49.5284 29.3495 49.1084 29.6311C48.6105 29.9753 48.206 30.4133 47.9726 30.867C47.7237 31.3677 47.6148 31.8214 47.6148 32.4628C47.6148 33.026 47.7237 33.5736 47.9104 33.9491C48.0815 34.2776 48.4082 34.7313 48.6572 34.9816C48.8905 35.2319 49.2639 35.5135 49.4818 35.6387C49.6996 35.7482 50.1352 35.8733 51.0376 36.0298V37.7507L50.3841 37.6568C50.0107 37.6099 49.2951 37.3596 48.7816 37.1249C48.206 36.8433 47.5992 36.3896 47.1791 35.9203C46.8213 35.4979 46.3701 34.7782 46.1989 34.3089C45.95 33.6205 45.8878 33.1825 45.95 32.1968C45.9967 31.2425 46.1056 30.7419 46.4012 30.163C46.619 29.725 47.1169 29.0835 47.4903 28.7394C47.8637 28.3952 48.3304 28.0041 48.5483 27.8945C48.7661 27.7694 49.2173 27.5817 49.5595 27.4721C49.9018 27.3783 50.3841 27.2844 50.6175 27.2688Z"/>
</mask>
<path fill-rule="evenodd" clip-rule="evenodd" d="M43.1806 1.0013C43.803 0.985656 44.5187 1.11081 45.3588 1.39242C46.0434 1.61144 46.8524 1.93998 47.148 2.11207C47.4436 2.29981 48.0193 2.70657 48.4393 3.05076C48.9839 3.48881 49.2017 3.59832 49.3106 3.45752C49.3884 3.34801 49.9952 2.98818 50.6642 2.65964C51.411 2.31546 52.4067 1.98692 53.2158 1.83047C54.0974 1.67402 54.9012 1.6323 55.6273 1.70531C56.2341 1.75225 57.2454 1.97127 57.8832 2.15901C58.5989 2.39368 59.5324 2.84738 60.2948 3.36365C61.0105 3.84864 61.8506 4.58394 62.2862 5.1315C62.7219 5.64778 63.2975 6.53953 63.5776 7.13403C63.8732 7.71288 64.2155 8.62027 64.3399 9.16784C64.4644 9.69976 64.5733 10.6072 64.5733 11.2016C64.5733 12.2186 64.5889 12.2498 65.0089 12.3437C65.2423 12.4063 65.8335 12.6722 66.347 12.9382C66.8448 13.2042 67.5916 13.7987 68.0117 14.2524C68.4318 14.6904 68.9763 15.5039 69.2253 16.0515C69.4897 16.5834 69.7698 17.4439 69.8787 17.9602C70.0654 18.805 70.0499 19.024 69.7387 20.2286C69.5364 20.9639 69.1475 21.9652 68.3073 23.3576L68.7274 24.4996C69.0697 25.454 69.1319 25.8764 69.1319 27.2688C69.1319 28.5673 69.0541 29.1148 68.7896 29.8501C68.6029 30.3664 68.2451 31.1017 67.9961 31.4928C67.7628 31.8839 67.156 32.5723 66.6893 33.026C66.2069 33.4797 65.3201 34.0899 64.6978 34.3871C64.0755 34.6843 63.4687 34.9347 63.3753 34.9347C63.2664 34.9347 63.1731 34.966 63.1731 35.0129C63.1731 35.0598 63.3131 35.5292 63.4998 36.0767C63.7643 36.8433 63.811 37.2814 63.7487 38.2201C63.7021 38.8771 63.5309 39.7063 63.3598 40.0974C63.1886 40.4885 62.8308 41.0987 62.5663 41.4741C62.3018 41.834 61.7573 42.3503 61.3527 42.6319C60.9327 42.9135 60.2014 43.2576 59.7191 43.4141C59.2213 43.5705 58.4745 43.6957 57.2609 43.6957V44.6344C57.2609 45.1507 57.1831 45.9485 57.0898 46.4022C56.9964 46.8403 56.7008 47.6695 56.4363 48.2327C56.1407 48.8897 55.6273 49.5938 55.0205 50.2039C54.4915 50.7358 53.6981 51.346 53.2624 51.5806C52.8112 51.7997 52.0178 52.1125 51.5043 52.269C50.6486 52.5193 50.5708 52.5662 50.4775 53.0825C50.4308 53.3798 50.2441 53.9273 50.0885 54.3028C49.9174 54.6626 49.4973 55.2884 49.1395 55.6795C48.7661 56.0863 48.1904 56.5713 47.8481 56.7747C47.5058 56.9781 46.7902 57.2284 45.2654 57.5413L44.9232 58.4017C44.7365 58.8711 44.3942 59.5125 44.1608 59.8097C43.943 60.107 43.4918 60.545 43.1651 60.7797C42.8228 61.0144 42.1382 61.3899 41.6248 61.6089C41.018 61.8592 40.3957 62 39.8356 62C39.3533 62 38.6065 61.8592 38.1242 61.6715C37.6574 61.4994 36.9418 61.1083 35.7904 60.2791V36.2645C35.7904 14.0333 35.7749 12.1873 35.5259 11.3425C35.3548 10.7792 35.2615 9.95007 35.2615 9.04268C35.277 8.01013 35.3704 7.35305 35.6193 6.61775C35.806 6.05454 36.2261 5.20973 36.5372 4.74039C36.8484 4.27104 37.3774 3.59832 37.7352 3.25414C38.0931 2.90996 38.8243 2.39368 39.3844 2.09643C39.929 1.79918 40.8002 1.43935 41.3136 1.28291C41.8271 1.1421 42.6672 1.01695 43.1806 1.0013ZM39.68 3.91122C39.2911 4.16153 38.7465 4.66216 38.4509 4.9907C38.1553 5.31924 37.7508 5.96067 37.5485 6.38308C37.3618 6.82113 37.1285 7.58772 37.0195 8.104C36.9262 8.62027 36.9106 9.38686 36.9729 9.82491C37.0195 10.263 37.1751 10.8888 37.2996 11.2329C37.4552 11.7179 37.5019 13.0008 37.5019 16.9902V22.106L55.7829 22.1842C57.2298 22.9039 57.961 23.4358 58.35 23.8269C58.739 24.218 59.2524 24.9533 59.5013 25.4696C59.7502 25.9859 59.9836 26.7838 60.0458 27.2375L60.1392 28.051H58.35C58.35 27.2688 58.21 26.7525 58.0699 26.4083C57.9144 26.0641 57.541 25.5166 57.2454 25.188C56.9497 24.8595 56.3741 24.4058 55.9385 24.2024L55.1605 23.8269H37.5019V38.6894C44.7209 38.6894 45.6855 38.7363 46.3701 38.9397C46.8368 39.0805 47.5681 39.409 47.9882 39.675C48.4082 39.9566 48.9995 40.4572 49.2795 40.8014C49.5751 41.1456 49.9952 41.8183 50.213 42.2877C50.4308 42.757 50.6486 43.5236 50.7109 43.9773L50.8042 44.7908H49.0928C48.9061 43.6957 48.735 43.1168 48.5638 42.8039C48.4082 42.4754 47.957 41.9122 47.5525 41.5524C47.0858 41.1143 46.5568 40.8014 46.0278 40.645C45.3899 40.4572 44.332 40.4103 41.3603 40.4103H37.5019V59.4968C38.7154 60.0601 39.2911 60.1696 39.8356 60.1696C40.3023 60.1696 40.9402 60.0601 41.2358 59.9349C41.5315 59.8097 42.0293 59.4968 42.3249 59.2309C42.6205 58.9806 43.0251 58.433 43.2273 58.0419C43.4607 57.5413 43.5696 57.025 43.5696 56.4148C43.5696 55.836 43.4451 55.2571 43.2429 54.8034C43.0717 54.4123 42.6672 53.8648 42.356 53.5675L41.7804 53.0512C42.3872 51.9874 42.605 51.6745 42.6828 51.6745C42.745 51.6745 43.1184 51.9717 43.5074 52.3472C43.8963 52.707 44.3631 53.2546 44.5498 53.5519C44.7365 53.8491 45.001 54.4905 45.141 54.9599C45.3744 55.7108 45.4522 55.8203 45.7633 55.7578C45.9656 55.7265 46.4012 55.57 46.7279 55.4136C47.0391 55.2571 47.5681 54.8504 47.8792 54.5375C48.1904 54.2089 48.5483 53.7083 48.6572 53.4423C48.7661 53.1607 48.8594 52.8322 48.8594 52.7383C48.8594 52.6132 48.486 52.4567 48.0037 52.3472C47.537 52.2377 46.7124 51.9248 46.1834 51.6432C45.6388 51.3772 44.8143 50.7827 44.3475 50.3447C43.8808 49.891 43.2584 49.0775 42.9628 48.5299C42.6672 47.9823 42.3405 47.1845 42.216 46.7464C42.1071 46.324 42.0138 45.7764 42.0138 45.5418C42.0138 45.1194 42.0449 45.1037 42.8384 45.1037H43.6474C43.8341 46.1989 44.0675 46.9185 44.3008 47.4191C44.5342 47.9041 45.0321 48.6238 45.421 49.0305C45.8256 49.4217 46.5568 49.9379 47.0702 50.2039C47.9259 50.6107 48.1437 50.6576 49.6373 50.6576C51.0843 50.6576 51.3643 50.6107 52.1267 50.2352C52.5934 50.0162 53.3247 49.4842 53.7447 49.0618C54.1648 48.6551 54.7094 47.8885 54.9583 47.3722C55.2383 46.7621 55.425 46.0424 55.5028 45.3384C55.5806 44.4623 55.5339 44.0242 55.2695 43.1481C55.0672 42.4754 54.7094 41.7558 54.3204 41.2708L53.7136 40.4885L54.9427 39.237C55.5339 39.9566 55.9229 40.5511 56.1718 41.0048C56.6075 41.7714 56.6853 41.8183 57.3854 41.9122C57.7899 41.9748 58.3811 41.9748 58.7078 41.9122C59.019 41.8653 59.548 41.6775 59.8747 41.5211C60.1859 41.349 60.6682 40.9892 60.9327 40.6919C61.2127 40.4103 61.555 39.9253 61.695 39.6281C61.8506 39.3308 62.0062 38.7363 62.0373 38.2983C62.084 37.8759 62.0373 37.2344 61.9595 36.8903C61.8662 36.5461 61.6172 36.0141 61.4305 35.7169C61.1038 35.2319 60.9638 35.1537 60.217 35.0598C59.7502 35.0129 58.9879 34.8095 58.5522 34.6374C58.1011 34.4497 57.4321 34.1211 57.0742 33.8865C56.7008 33.6518 56.094 33.1512 55.7051 32.7601C55.3161 32.3689 54.7405 31.5085 54.4137 30.867L53.8225 29.6937C54.4915 29.4121 54.8649 29.2869 55.0827 29.2243C55.425 29.1461 55.5028 29.2087 55.814 29.8814C55.9851 30.2882 56.483 31.0078 56.9031 31.4772C57.3698 31.9935 58.0077 32.4784 58.5834 32.7601C59.0968 33.026 59.9369 33.2763 60.4504 33.3545C60.9638 33.4171 61.8039 33.4171 62.3174 33.3389C62.8308 33.2763 63.6398 33.0104 64.1066 32.7757C64.5733 32.541 65.289 32.0247 65.7091 31.618C66.1136 31.1956 66.6115 30.4916 66.8293 30.0535C67.0471 29.5998 67.296 28.7707 67.4049 28.2074C67.545 27.4252 67.545 26.9715 67.4049 26.2519C67.296 25.7356 67.0471 24.969 66.8604 24.5309C66.6581 24.1085 66.2225 23.4671 65.8802 23.1073C65.5535 22.7631 65.0556 22.325 64.8067 22.1529L64.3399 21.8244C64.8845 20.7136 65.0867 20.3851 65.1645 20.3851C65.2268 20.3851 65.4446 20.4946 65.6624 20.6354C65.8802 20.7919 66.3159 21.1517 66.627 21.4646L67.2027 22.0278C68.0117 20.4164 68.0739 20.1348 68.0739 18.8988C68.0739 17.7568 68.0117 17.35 67.7161 16.7555C67.5294 16.3331 67.0782 15.7073 66.7204 15.3318C66.347 14.972 65.7246 14.5183 65.3201 14.3149C64.9 14.1272 64.5111 13.9708 64.4177 13.9708C64.3244 13.9708 64.2622 14.0803 64.2622 14.2054C64.2622 14.3306 63.9354 15.0972 63.5309 15.8951C62.9864 16.9589 62.5352 17.6003 61.7728 18.3513C61.2127 18.9145 60.2948 19.6341 59.7502 19.9627C59.1901 20.2756 58.63 20.5259 58.5056 20.5102C58.3811 20.479 58.1633 20.1504 58.0077 19.7593L57.7432 19.0553C59.0034 18.4451 59.8436 17.7881 60.4504 17.1779C61.0571 16.5834 61.7417 15.7386 61.9595 15.3006C62.1929 14.8782 62.4885 14.0959 62.613 13.5796C62.753 13.0634 62.8619 12.109 62.8619 11.4676C62.8619 10.8262 62.753 9.87185 62.613 9.35557C62.4885 8.8393 62.1929 8.07271 61.9595 7.6503C61.7262 7.22789 61.2283 6.52388 60.8393 6.10147C60.4504 5.66342 59.7191 5.03764 59.2057 4.7091C58.6923 4.36491 57.7899 3.94251 57.1831 3.77041C56.4519 3.53574 55.674 3.42623 54.8494 3.42623C54.1181 3.42623 53.2158 3.55139 52.6712 3.70784C52.1578 3.86428 51.3488 4.20847 50.882 4.47443C50.4153 4.74039 49.6685 5.31924 49.2328 5.75729C48.8127 6.1797 48.2526 6.89935 47.9882 7.32176C47.7392 7.75981 47.4125 8.46382 47.2725 8.88623C47.0235 9.62153 46.9769 9.66847 46.4946 9.63718C46.2145 9.62153 45.8256 9.5746 45.6388 9.52766C45.3121 9.4338 45.2966 9.38686 45.4522 8.85494C45.5455 8.5264 45.8567 7.77546 46.1367 7.16531C46.4168 6.57082 46.9146 5.77294 47.2102 5.41311L47.7703 4.74039C46.868 3.97379 46.2145 3.56703 45.7478 3.34801C45.0476 3.01947 44.612 2.94124 43.414 2.89431C42.2938 2.86302 41.7493 2.9256 41.1581 3.14463C40.738 3.30107 40.069 3.64526 39.68 3.91122ZM18.4429 1.62709C19.2986 1.61144 20.6366 1.72096 21.399 1.84612C22.1614 1.97127 23.3593 2.26852 24.0439 2.48755C24.7285 2.70657 25.8798 3.2072 26.611 3.58268C27.3423 3.94251 28.4314 4.63087 29.0226 5.06892C29.6138 5.52262 30.5473 6.33614 31.0918 6.88371C31.6208 7.43127 32.4143 8.3856 33.6278 10.1378L33.6123 35.1693C33.6123 54.6157 33.5812 60.2478 33.4256 60.4042C33.3167 60.4981 33.0833 60.592 32.881 60.592C32.6788 60.592 31.7297 60.0444 30.7807 59.3873C29.816 58.7303 27.8246 57.2909 26.3777 56.2115C24.9307 55.1163 22.9704 53.5675 22.0213 52.7696C21.0723 51.9874 19.3764 50.4855 18.2251 49.4373C17.0893 48.3891 15.3001 46.6056 14.2733 45.4948C13.2464 44.3841 11.8773 42.8196 11.2239 42.053C10.586 41.2864 9.69914 40.16 9.26351 39.5499C8.81232 38.9397 7.97217 37.7194 7.36539 36.812C6.75862 35.9046 5.80956 34.3245 5.2339 33.292C4.6738 32.2594 3.86477 30.6011 3.4447 29.6155C3.02462 28.6298 2.46452 27.1123 2.20003 26.2519C1.93554 25.3914 1.60882 24.1555 1.48435 23.514C1.34432 22.8726 1.17318 21.6367 1.07983 20.7762C0.970926 19.6967 0.970925 18.758 1.09539 17.7255C1.18874 16.912 1.391 15.676 1.54658 14.9877C1.71772 14.2993 2.12224 13.0947 2.44897 12.3281C2.77569 11.5615 3.4447 10.3255 3.92701 9.59024C4.40931 8.85494 5.17167 7.83804 5.63842 7.33741C6.08961 6.82113 7.02311 5.96067 7.70768 5.41311C8.39224 4.86554 9.68358 4.03637 10.586 3.58268C11.4883 3.12898 12.7486 2.59706 13.3865 2.39368C14.0244 2.20594 15.0823 1.95563 15.7202 1.84612C16.3581 1.7366 17.5872 1.64273 18.4429 1.62709ZM14.2422 3.94251C13.6043 4.13024 12.6397 4.47443 12.0951 4.7091C11.5661 4.95941 10.6326 5.46004 10.0414 5.85116C9.45021 6.24228 8.43892 7.04016 7.80103 7.6503C7.16314 8.2448 6.30743 9.18348 5.88735 9.74669C5.45172 10.3099 4.76715 11.4676 4.34708 12.3281C3.92701 13.1885 3.4447 14.4557 3.27356 15.1441C3.08686 15.8325 2.8846 17.131 2.80681 18.0384C2.72902 19.024 2.72901 20.213 2.82236 21.0109C2.90016 21.7462 3.11797 22.9821 3.30467 23.7487C3.47581 24.5153 3.86477 25.8607 4.16038 26.7212C4.45599 27.5817 5.14055 29.1931 5.66954 30.3195C6.19852 31.4303 7.11646 33.1668 7.70768 34.1524C8.29889 35.138 9.37242 36.7651 10.0881 37.7507C10.8193 38.7363 12.0796 40.3634 12.8886 41.349C13.7132 42.3346 15.6113 44.3841 17.1205 45.886C18.6141 47.4035 20.7922 49.4373 21.9435 50.4386C23.0949 51.4242 24.8063 52.8479 25.7553 53.5832C26.7044 54.3185 28.4469 55.6326 29.6449 56.4931L31.8231 58.0575L31.9009 10.6071C31.2474 9.63718 30.4539 8.74543 29.7227 8.01013C28.9915 7.25918 27.9024 6.33614 27.3112 5.94503C26.7199 5.55391 25.7242 5.00635 25.133 4.74039C24.5418 4.45878 23.3749 4.06766 22.5659 3.84864C21.4301 3.55139 20.59 3.44187 18.9875 3.41059C17.8361 3.3793 16.5604 3.41059 16.1558 3.47316C15.7513 3.55139 14.8956 3.75477 14.2422 3.94251ZM52.609 10.216H53.4491C53.9159 10.216 54.3048 10.2943 54.3048 10.3725C54.3048 10.4663 54.227 10.9044 54.1337 11.3581C54.0403 11.7961 53.7914 12.4845 53.6047 12.8756C53.4025 13.2667 52.9824 13.8925 52.6401 14.268C52.2667 14.6904 51.6444 15.1441 50.9598 15.4727C50.353 15.7699 49.4973 16.0672 48.2371 16.2392V15.3475C48.2371 14.5183 48.2682 14.4401 48.5949 14.4401C48.7816 14.4401 49.2484 14.3462 49.6373 14.2054C50.0263 14.0803 50.6486 13.7048 51.0376 13.3763C51.4265 13.0477 51.8933 12.4689 52.0644 12.0778C52.2511 11.7023 52.4378 11.1234 52.5001 10.8105L52.609 10.216ZM40.4579 14.4401H45.9033V16.161H40.4579V14.4401ZM50.6175 27.2688C51.022 27.2688 51.0376 27.2844 51.0531 28.9115L50.4619 29.0053C50.1352 29.0679 49.5284 29.3495 49.1084 29.6311C48.6105 29.9753 48.206 30.4133 47.9726 30.867C47.7237 31.3677 47.6148 31.8214 47.6148 32.4628C47.6148 33.026 47.7237 33.5736 47.9104 33.9491C48.0815 34.2776 48.4082 34.7313 48.6572 34.9816C48.8905 35.2319 49.2639 35.5135 49.4818 35.6387C49.6996 35.7482 50.1352 35.8733 51.0376 36.0298V37.7507L50.3841 37.6568C50.0107 37.6099 49.2951 37.3596 48.7816 37.1249C48.206 36.8433 47.5992 36.3896 47.1791 35.9203C46.8213 35.4979 46.3701 34.7782 46.1989 34.3089C45.95 33.6205 45.8878 33.1825 45.95 32.1968C45.9967 31.2425 46.1056 30.7419 46.4012 30.163C46.619 29.725 47.1169 29.0835 47.4903 28.7394C47.8637 28.3952 48.3304 28.0041 48.5483 27.8945C48.7661 27.7694 49.2173 27.5817 49.5595 27.4721C49.9018 27.3783 50.3841 27.2844 50.6175 27.2688Z" fill="white"/>
<path fill-rule="evenodd" clip-rule="evenodd" d="M43.1806 1.0013C43.803 0.985656 44.5187 1.11081 45.3588 1.39242C46.0434 1.61144 46.8524 1.93998 47.148 2.11207C47.4436 2.29981 48.0193 2.70657 48.4393 3.05076C48.9839 3.48881 49.2017 3.59832 49.3106 3.45752C49.3884 3.34801 49.9952 2.98818 50.6642 2.65964C51.411 2.31546 52.4067 1.98692 53.2158 1.83047C54.0974 1.67402 54.9012 1.6323 55.6273 1.70531C56.2341 1.75225 57.2454 1.97127 57.8832 2.15901C58.5989 2.39368 59.5324 2.84738 60.2948 3.36365C61.0105 3.84864 61.8506 4.58394 62.2862 5.1315C62.7219 5.64778 63.2975 6.53953 63.5776 7.13403C63.8732 7.71288 64.2155 8.62027 64.3399 9.16784C64.4644 9.69976 64.5733 10.6072 64.5733 11.2016C64.5733 12.2186 64.5889 12.2498 65.0089 12.3437C65.2423 12.4063 65.8335 12.6722 66.347 12.9382C66.8448 13.2042 67.5916 13.7987 68.0117 14.2524C68.4318 14.6904 68.9763 15.5039 69.2253 16.0515C69.4897 16.5834 69.7698 17.4439 69.8787 17.9602C70.0654 18.805 70.0499 19.024 69.7387 20.2286C69.5364 20.9639 69.1475 21.9652 68.3073 23.3576L68.7274 24.4996C69.0697 25.454 69.1319 25.8764 69.1319 27.2688C69.1319 28.5673 69.0541 29.1148 68.7896 29.8501C68.6029 30.3664 68.2451 31.1017 67.9961 31.4928C67.7628 31.8839 67.156 32.5723 66.6893 33.026C66.2069 33.4797 65.3201 34.0899 64.6978 34.3871C64.0755 34.6843 63.4687 34.9347 63.3753 34.9347C63.2664 34.9347 63.1731 34.966 63.1731 35.0129C63.1731 35.0598 63.3131 35.5292 63.4998 36.0767C63.7643 36.8433 63.811 37.2814 63.7487 38.2201C63.7021 38.8771 63.5309 39.7063 63.3598 40.0974C63.1886 40.4885 62.8308 41.0987 62.5663 41.4741C62.3018 41.834 61.7573 42.3503 61.3527 42.6319C60.9327 42.9135 60.2014 43.2576 59.7191 43.4141C59.2213 43.5705 58.4745 43.6957 57.2609 43.6957V44.6344C57.2609 45.1507 57.1831 45.9485 57.0898 46.4022C56.9964 46.8403 56.7008 47.6695 56.4363 48.2327C56.1407 48.8897 55.6273 49.5938 55.0205 50.2039C54.4915 50.7358 53.6981 51.346 53.2624 51.5806C52.8112 51.7997 52.0178 52.1125 51.5043 52.269C50.6486 52.5193 50.5708 52.5662 50.4775 53.0825C50.4308 53.3798 50.2441 53.9273 50.0885 54.3028C49.9174 54.6626 49.4973 55.2884 49.1395 55.6795C48.7661 56.0863 48.1904 56.5713 47.8481 56.7747C47.5058 56.9781 46.7902 57.2284 45.2654 57.5413L44.9232 58.4017C44.7365 58.8711 44.3942 59.5125 44.1608 59.8097C43.943 60.107 43.4918 60.545 43.1651 60.7797C42.8228 61.0144 42.1382 61.3899 41.6248 61.6089C41.018 61.8592 40.3957 62 39.8356 62C39.3533 62 38.6065 61.8592 38.1242 61.6715C37.6574 61.4994 36.9418 61.1083 35.7904 60.2791V36.2645C35.7904 14.0333 35.7749 12.1873 35.5259 11.3425C35.3548 10.7792 35.2615 9.95007 35.2615 9.04268C35.277 8.01013 35.3704 7.35305 35.6193 6.61775C35.806 6.05454 36.2261 5.20973 36.5372 4.74039C36.8484 4.27104 37.3774 3.59832 37.7352 3.25414C38.0931 2.90996 38.8243 2.39368 39.3844 2.09643C39.929 1.79918 40.8002 1.43935 41.3136 1.28291C41.8271 1.1421 42.6672 1.01695 43.1806 1.0013ZM39.68 3.91122C39.2911 4.16153 38.7465 4.66216 38.4509 4.9907C38.1553 5.31924 37.7508 5.96067 37.5485 6.38308C37.3618 6.82113 37.1285 7.58772 37.0195 8.104C36.9262 8.62027 36.9106 9.38686 36.9729 9.82491C37.0195 10.263 37.1751 10.8888 37.2996 11.2329C37.4552 11.7179 37.5019 13.0008 37.5019 16.9902V22.106L55.7829 22.1842C57.2298 22.9039 57.961 23.4358 58.35 23.8269C58.739 24.218 59.2524 24.9533 59.5013 25.4696C59.7502 25.9859 59.9836 26.7838 60.0458 27.2375L60.1392 28.051H58.35C58.35 27.2688 58.21 26.7525 58.0699 26.4083C57.9144 26.0641 57.541 25.5166 57.2454 25.188C56.9497 24.8595 56.3741 24.4058 55.9385 24.2024L55.1605 23.8269H37.5019V38.6894C44.7209 38.6894 45.6855 38.7363 46.3701 38.9397C46.8368 39.0805 47.5681 39.409 47.9882 39.675C48.4082 39.9566 48.9995 40.4572 49.2795 40.8014C49.5751 41.1456 49.9952 41.8183 50.213 42.2877C50.4308 42.757 50.6486 43.5236 50.7109 43.9773L50.8042 44.7908H49.0928C48.9061 43.6957 48.735 43.1168 48.5638 42.8039C48.4082 42.4754 47.957 41.9122 47.5525 41.5524C47.0858 41.1143 46.5568 40.8014 46.0278 40.645C45.3899 40.4572 44.332 40.4103 41.3603 40.4103H37.5019V59.4968C38.7154 60.0601 39.2911 60.1696 39.8356 60.1696C40.3023 60.1696 40.9402 60.0601 41.2358 59.9349C41.5315 59.8097 42.0293 59.4968 42.3249 59.2309C42.6205 58.9806 43.0251 58.433 43.2273 58.0419C43.4607 57.5413 43.5696 57.025 43.5696 56.4148C43.5696 55.836 43.4451 55.2571 43.2429 54.8034C43.0717 54.4123 42.6672 53.8648 42.356 53.5675L41.7804 53.0512C42.3872 51.9874 42.605 51.6745 42.6828 51.6745C42.745 51.6745 43.1184 51.9717 43.5074 52.3472C43.8963 52.707 44.3631 53.2546 44.5498 53.5519C44.7365 53.8491 45.001 54.4905 45.141 54.9599C45.3744 55.7108 45.4522 55.8203 45.7633 55.7578C45.9656 55.7265 46.4012 55.57 46.7279 55.4136C47.0391 55.2571 47.5681 54.8504 47.8792 54.5375C48.1904 54.2089 48.5483 53.7083 48.6572 53.4423C48.7661 53.1607 48.8594 52.8322 48.8594 52.7383C48.8594 52.6132 48.486 52.4567 48.0037 52.3472C47.537 52.2377 46.7124 51.9248 46.1834 51.6432C45.6388 51.3772 44.8143 50.7827 44.3475 50.3447C43.8808 49.891 43.2584 49.0775 42.9628 48.5299C42.6672 47.9823 42.3405 47.1845 42.216 46.7464C42.1071 46.324 42.0138 45.7764 42.0138 45.5418C42.0138 45.1194 42.0449 45.1037 42.8384 45.1037H43.6474C43.8341 46.1989 44.0675 46.9185 44.3008 47.4191C44.5342 47.9041 45.0321 48.6238 45.421 49.0305C45.8256 49.4217 46.5568 49.9379 47.0702 50.2039C47.9259 50.6107 48.1437 50.6576 49.6373 50.6576C51.0843 50.6576 51.3643 50.6107 52.1267 50.2352C52.5934 50.0162 53.3247 49.4842 53.7447 49.0618C54.1648 48.6551 54.7094 47.8885 54.9583 47.3722C55.2383 46.7621 55.425 46.0424 55.5028 45.3384C55.5806 44.4623 55.5339 44.0242 55.2695 43.1481C55.0672 42.4754 54.7094 41.7558 54.3204 41.2708L53.7136 40.4885L54.9427 39.237C55.5339 39.9566 55.9229 40.5511 56.1718 41.0048C56.6075 41.7714 56.6853 41.8183 57.3854 41.9122C57.7899 41.9748 58.3811 41.9748 58.7078 41.9122C59.019 41.8653 59.548 41.6775 59.8747 41.5211C60.1859 41.349 60.6682 40.9892 60.9327 40.6919C61.2127 40.4103 61.555 39.9253 61.695 39.6281C61.8506 39.3308 62.0062 38.7363 62.0373 38.2983C62.084 37.8759 62.0373 37.2344 61.9595 36.8903C61.8662 36.5461 61.6172 36.0141 61.4305 35.7169C61.1038 35.2319 60.9638 35.1537 60.217 35.0598C59.7502 35.0129 58.9879 34.8095 58.5522 34.6374C58.1011 34.4497 57.4321 34.1211 57.0742 33.8865C56.7008 33.6518 56.094 33.1512 55.7051 32.7601C55.3161 32.3689 54.7405 31.5085 54.4137 30.867L53.8225 29.6937C54.4915 29.4121 54.8649 29.2869 55.0827 29.2243C55.425 29.1461 55.5028 29.2087 55.814 29.8814C55.9851 30.2882 56.483 31.0078 56.9031 31.4772C57.3698 31.9935 58.0077 32.4784 58.5834 32.7601C59.0968 33.026 59.9369 33.2763 60.4504 33.3545C60.9638 33.4171 61.8039 33.4171 62.3174 33.3389C62.8308 33.2763 63.6398 33.0104 64.1066 32.7757C64.5733 32.541 65.289 32.0247 65.7091 31.618C66.1136 31.1956 66.6115 30.4916 66.8293 30.0535C67.0471 29.5998 67.296 28.7707 67.4049 28.2074C67.545 27.4252 67.545 26.9715 67.4049 26.2519C67.296 25.7356 67.0471 24.969 66.8604 24.5309C66.6581 24.1085 66.2225 23.4671 65.8802 23.1073C65.5535 22.7631 65.0556 22.325 64.8067 22.1529L64.3399 21.8244C64.8845 20.7136 65.0867 20.3851 65.1645 20.3851C65.2268 20.3851 65.4446 20.4946 65.6624 20.6354C65.8802 20.7919 66.3159 21.1517 66.627 21.4646L67.2027 22.0278C68.0117 20.4164 68.0739 20.1348 68.0739 18.8988C68.0739 17.7568 68.0117 17.35 67.7161 16.7555C67.5294 16.3331 67.0782 15.7073 66.7204 15.3318C66.347 14.972 65.7246 14.5183 65.3201 14.3149C64.9 14.1272 64.5111 13.9708 64.4177 13.9708C64.3244 13.9708 64.2622 14.0803 64.2622 14.2054C64.2622 14.3306 63.9354 15.0972 63.5309 15.8951C62.9864 16.9589 62.5352 17.6003 61.7728 18.3513C61.2127 18.9145 60.2948 19.6341 59.7502 19.9627C59.1901 20.2756 58.63 20.5259 58.5056 20.5102C58.3811 20.479 58.1633 20.1504 58.0077 19.7593L57.7432 19.0553C59.0034 18.4451 59.8436 17.7881 60.4504 17.1779C61.0571 16.5834 61.7417 15.7386 61.9595 15.3006C62.1929 14.8782 62.4885 14.0959 62.613 13.5796C62.753 13.0634 62.8619 12.109 62.8619 11.4676C62.8619 10.8262 62.753 9.87185 62.613 9.35557C62.4885 8.8393 62.1929 8.07271 61.9595 7.6503C61.7262 7.22789 61.2283 6.52388 60.8393 6.10147C60.4504 5.66342 59.7191 5.03764 59.2057 4.7091C58.6923 4.36491 57.7899 3.94251 57.1831 3.77041C56.4519 3.53574 55.674 3.42623 54.8494 3.42623C54.1181 3.42623 53.2158 3.55139 52.6712 3.70784C52.1578 3.86428 51.3488 4.20847 50.882 4.47443C50.4153 4.74039 49.6685 5.31924 49.2328 5.75729C48.8127 6.1797 48.2526 6.89935 47.9882 7.32176C47.7392 7.75981 47.4125 8.46382 47.2725 8.88623C47.0235 9.62153 46.9769 9.66847 46.4946 9.63718C46.2145 9.62153 45.8256 9.5746 45.6388 9.52766C45.3121 9.4338 45.2966 9.38686 45.4522 8.85494C45.5455 8.5264 45.8567 7.77546 46.1367 7.16531C46.4168 6.57082 46.9146 5.77294 47.2102 5.41311L47.7703 4.74039C46.868 3.97379 46.2145 3.56703 45.7478 3.34801C45.0476 3.01947 44.612 2.94124 43.414 2.89431C42.2938 2.86302 41.7493 2.9256 41.1581 3.14463C40.738 3.30107 40.069 3.64526 39.68 3.91122ZM18.4429 1.62709C19.2986 1.61144 20.6366 1.72096 21.399 1.84612C22.1614 1.97127 23.3593 2.26852 24.0439 2.48755C24.7285 2.70657 25.8798 3.2072 26.611 3.58268C27.3423 3.94251 28.4314 4.63087 29.0226 5.06892C29.6138 5.52262 30.5473 6.33614 31.0918 6.88371C31.6208 7.43127 32.4143 8.3856 33.6278 10.1378L33.6123 35.1693C33.6123 54.6157 33.5812 60.2478 33.4256 60.4042C33.3167 60.4981 33.0833 60.592 32.881 60.592C32.6788 60.592 31.7297 60.0444 30.7807 59.3873C29.816 58.7303 27.8246 57.2909 26.3777 56.2115C24.9307 55.1163 22.9704 53.5675 22.0213 52.7696C21.0723 51.9874 19.3764 50.4855 18.2251 49.4373C17.0893 48.3891 15.3001 46.6056 14.2733 45.4948C13.2464 44.3841 11.8773 42.8196 11.2239 42.053C10.586 41.2864 9.69914 40.16 9.26351 39.5499C8.81232 38.9397 7.97217 37.7194 7.36539 36.812C6.75862 35.9046 5.80956 34.3245 5.2339 33.292C4.6738 32.2594 3.86477 30.6011 3.4447 29.6155C3.02462 28.6298 2.46452 27.1123 2.20003 26.2519C1.93554 25.3914 1.60882 24.1555 1.48435 23.514C1.34432 22.8726 1.17318 21.6367 1.07983 20.7762C0.970926 19.6967 0.970925 18.758 1.09539 17.7255C1.18874 16.912 1.391 15.676 1.54658 14.9877C1.71772 14.2993 2.12224 13.0947 2.44897 12.3281C2.77569 11.5615 3.4447 10.3255 3.92701 9.59024C4.40931 8.85494 5.17167 7.83804 5.63842 7.33741C6.08961 6.82113 7.02311 5.96067 7.70768 5.41311C8.39224 4.86554 9.68358 4.03637 10.586 3.58268C11.4883 3.12898 12.7486 2.59706 13.3865 2.39368C14.0244 2.20594 15.0823 1.95563 15.7202 1.84612C16.3581 1.7366 17.5872 1.64273 18.4429 1.62709ZM14.2422 3.94251C13.6043 4.13024 12.6397 4.47443 12.0951 4.7091C11.5661 4.95941 10.6326 5.46004 10.0414 5.85116C9.45021 6.24228 8.43892 7.04016 7.80103 7.6503C7.16314 8.2448 6.30743 9.18348 5.88735 9.74669C5.45172 10.3099 4.76715 11.4676 4.34708 12.3281C3.92701 13.1885 3.4447 14.4557 3.27356 15.1441C3.08686 15.8325 2.8846 17.131 2.80681 18.0384C2.72902 19.024 2.72901 20.213 2.82236 21.0109C2.90016 21.7462 3.11797 22.9821 3.30467 23.7487C3.47581 24.5153 3.86477 25.8607 4.16038 26.7212C4.45599 27.5817 5.14055 29.1931 5.66954 30.3195C6.19852 31.4303 7.11646 33.1668 7.70768 34.1524C8.29889 35.138 9.37242 36.7651 10.0881 37.7507C10.8193 38.7363 12.0796 40.3634 12.8886 41.349C13.7132 42.3346 15.6113 44.3841 17.1205 45.886C18.6141 47.4035 20.7922 49.4373 21.9435 50.4386C23.0949 51.4242 24.8063 52.8479 25.7553 53.5832C26.7044 54.3185 28.4469 55.6326 29.6449 56.4931L31.8231 58.0575L31.9009 10.6071C31.2474 9.63718 30.4539 8.74543 29.7227 8.01013C28.9915 7.25918 27.9024 6.33614 27.3112 5.94503C26.7199 5.55391 25.7242 5.00635 25.133 4.74039C24.5418 4.45878 23.3749 4.06766 22.5659 3.84864C21.4301 3.55139 20.59 3.44187 18.9875 3.41059C17.8361 3.3793 16.5604 3.41059 16.1558 3.47316C15.7513 3.55139 14.8956 3.75477 14.2422 3.94251ZM52.609 10.216H53.4491C53.9159 10.216 54.3048 10.2943 54.3048 10.3725C54.3048 10.4663 54.227 10.9044 54.1337 11.3581C54.0403 11.7961 53.7914 12.4845 53.6047 12.8756C53.4025 13.2667 52.9824 13.8925 52.6401 14.268C52.2667 14.6904 51.6444 15.1441 50.9598 15.4727C50.353 15.7699 49.4973 16.0672 48.2371 16.2392V15.3475C48.2371 14.5183 48.2682 14.4401 48.5949 14.4401C48.7816 14.4401 49.2484 14.3462 49.6373 14.2054C50.0263 14.0803 50.6486 13.7048 51.0376 13.3763C51.4265 13.0477 51.8933 12.4689 52.0644 12.0778C52.2511 11.7023 52.4378 11.1234 52.5001 10.8105L52.609 10.216ZM40.4579 14.4401H45.9033V16.161H40.4579V14.4401ZM50.6175 27.2688C51.022 27.2688 51.0376 27.2844 51.0531 28.9115L50.4619 29.0053C50.1352 29.0679 49.5284 29.3495 49.1084 29.6311C48.6105 29.9753 48.206 30.4133 47.9726 30.867C47.7237 31.3677 47.6148 31.8214 47.6148 32.4628C47.6148 33.026 47.7237 33.5736 47.9104 33.9491C48.0815 34.2776 48.4082 34.7313 48.6572 34.9816C48.8905 35.2319 49.2639 35.5135 49.4818 35.6387C49.6996 35.7482 50.1352 35.8733 51.0376 36.0298V37.7507L50.3841 37.6568C50.0107 37.6099 49.2951 37.3596 48.7816 37.1249C48.206 36.8433 47.5992 36.3896 47.1791 35.9203C46.8213 35.4979 46.3701 34.7782 46.1989 34.3089C45.95 33.6205 45.8878 33.1825 45.95 32.1968C45.9967 31.2425 46.1056 30.7419 46.4012 30.163C46.619 29.725 47.1169 29.0835 47.4903 28.7394C47.8637 28.3952 48.3304 28.0041 48.5483 27.8945C48.7661 27.7694 49.2173 27.5817 49.5595 27.4721C49.9018 27.3783 50.3841 27.2844 50.6175 27.2688Z" stroke="white" stroke-width="0.6" mask="url(#path-1-outside-1_5624_7345)"/>
</svg>
